<?xml version="1.0" encoding="UTF-8"?>
<svg xmlns="http://www.w3.org/2000/svg" xmlns:xlink="http://www.w3.org/1999/xlink" width="435.20019pt" height="37.900944pt" viewBox="0 0 435.20019 37.900944" version="1.1">
<g id="surface1">
<path style="fill:none;stroke-width:0.797;stroke-linecap:butt;stroke-linejoin:miter;stroke:rgb(0%,0%,0%);stroke-opacity:1;stroke-miterlimit:10;" d="M -0.001472 0.00175 L 340.157903 0.00175 " transform="matrix(1.25,0,0,-1.25,5.00184,8.54125)"/>
<path style=" stroke:none;fill-rule:nonzero;fill:rgb(0%,0%,0%);fill-opacity:1;" d="M 430.1875 8.523438 C 427.570312 7.976562 425.089844 7.058594 422.726562 5.808594 L 422.726562 11.277344 C 425.089844 10.027344 427.570312 9.109375 430.1875 8.5625 Z M 430.1875 8.523438 "/>
<path style="fill:none;stroke-width:0.797;stroke-linecap:butt;stroke-linejoin:miter;stroke:rgb(0%,0%,0%);stroke-opacity:1;stroke-miterlimit:10;" d="M -0.000597 -0.00075 L -0.000597 5.668 " transform="matrix(1.25,0,0,-1.25,40.43434,12.085)"/>
<path style="fill:none;stroke-width:0.797;stroke-linecap:butt;stroke-linejoin:miter;stroke:rgb(0%,0%,0%);stroke-opacity:1;stroke-miterlimit:10;" d="M 0.002403 -0.00075 L 0.002403 5.668 " transform="matrix(1.25,0,0,-1.25,75.86809,12.085)"/>
<path style="fill:none;stroke-width:0.797;stroke-linecap:butt;stroke-linejoin:miter;stroke:rgb(0%,0%,0%);stroke-opacity:1;stroke-miterlimit:10;" d="M 0.000153 -0.00075 L 0.000153 5.668 " transform="matrix(1.25,0,0,-1.25,111.30059,12.085)"/>
<path style="fill:none;stroke-width:0.797;stroke-linecap:butt;stroke-linejoin:miter;stroke:rgb(0%,0%,0%);stroke-opacity:1;stroke-miterlimit:10;" d="M 0.000028 -0.00075 L 0.000028 5.668 " transform="matrix(1.25,0,0,-1.25,146.73434,12.085)"/>
<path style="fill:none;stroke-width:0.797;stroke-linecap:butt;stroke-linejoin:miter;stroke:rgb(0%,0%,0%);stroke-opacity:1;stroke-miterlimit:10;" d="M 0.000903 -0.00075 L 0.000903 5.668 " transform="matrix(1.25,0,0,-1.25,182.16684,12.085)"/>
<path style="fill:none;stroke-width:0.797;stroke-linecap:butt;stroke-linejoin:miter;stroke:rgb(0%,0%,0%);stroke-opacity:1;stroke-miterlimit:10;" d="M 0.000778 -0.00075 L 0.000778 5.668 " transform="matrix(1.25,0,0,-1.25,217.60059,12.085)"/>
<path style="fill:none;stroke-width:0.797;stroke-linecap:butt;stroke-linejoin:miter;stroke:rgb(0%,0%,0%);stroke-opacity:1;stroke-miterlimit:10;" d="M -0.001472 -0.00075 L -0.001472 5.668 " transform="matrix(1.25,0,0,-1.25,253.03309,12.085)"/>
<path style="fill:none;stroke-width:0.797;stroke-linecap:butt;stroke-linejoin:miter;stroke:rgb(0%,0%,0%);stroke-opacity:1;stroke-miterlimit:10;" d="M 0.001528 -0.00075 L 0.001528 5.668 " transform="matrix(1.25,0,0,-1.25,288.46684,12.085)"/>
<path style="fill:none;stroke-width:0.797;stroke-linecap:butt;stroke-linejoin:miter;stroke:rgb(0%,0%,0%);stroke-opacity:1;stroke-miterlimit:10;" d="M 0.002403 -0.00075 L 0.002403 5.668 " transform="matrix(1.25,0,0,-1.25,323.89934,12.085)"/>
<path style=" stroke:none;fill-rule:nonzero;fill:rgb(0%,0%,0%);fill-opacity:1;" d="M 40.738281 22.1875 C 40.992188 22.1875 41.265625 22.1875 41.265625 21.894531 C 41.265625 21.582031 40.992188 21.582031 40.738281 21.582031 L 32.652344 21.582031 C 32.398438 21.582031 32.125 21.582031 32.125 21.894531 C 32.125 22.1875 32.398438 22.1875 32.652344 22.1875 Z M 40.738281 22.1875 "/>
<path style=" stroke:none;fill-rule:nonzero;fill:rgb(0%,0%,0%);fill-opacity:1;" d="M 49.554688 22.167969 L 48.03125 22.167969 L 48.03125 15.527344 L 47.367188 15.527344 L 42.679688 22.167969 L 42.679688 23.125 L 46.878906 23.125 L 46.878906 25.625 L 48.03125 25.625 L 48.03125 23.125 L 49.554688 23.125 Z M 46.859375 22.167969 L 43.285156 22.167969 L 46.859375 17.050781 Z M 46.859375 22.167969 "/>
<path style=" stroke:none;fill-rule:nonzero;fill:rgb(0%,0%,0%);fill-opacity:1;" d="M 76.171875 22.1875 C 76.425781 22.1875 76.699219 22.1875 76.699219 21.894531 C 76.699219 21.582031 76.425781 21.582031 76.171875 21.582031 L 68.085938 21.582031 C 67.832031 21.582031 67.558594 21.582031 67.558594 21.894531 C 67.558594 22.1875 67.832031 22.1875 68.085938 22.1875 Z M 76.171875 22.1875 "/>
<path style=" stroke:none;fill-rule:nonzero;fill:rgb(0%,0%,0%);fill-opacity:1;" d="M 80.222656 20.703125 C 81.101562 20.703125 81.453125 20.722656 81.804688 20.859375 C 82.742188 21.191406 83.308594 22.03125 83.308594 23.066406 C 83.308594 24.316406 82.46875 25.292969 81.355469 25.292969 C 80.964844 25.292969 80.652344 25.195312 80.105469 24.824219 C 79.65625 24.570312 79.402344 24.453125 79.148438 24.453125 C 78.796875 24.453125 78.582031 24.667969 78.582031 24.980469 C 78.582031 25.507812 79.226562 25.839844 80.261719 25.839844 C 81.414062 25.839844 82.605469 25.449219 83.308594 24.824219 C 84.011719 24.21875 84.382812 23.359375 84.382812 22.34375 C 84.382812 21.582031 84.148438 20.878906 83.71875 20.429688 C 83.425781 20.097656 83.132812 19.921875 82.488281 19.628906 C 83.503906 18.925781 83.875 18.378906 83.875 17.578125 C 83.875 16.367188 82.9375 15.527344 81.550781 15.527344 C 80.808594 15.527344 80.144531 15.78125 79.617188 16.25 C 79.167969 16.660156 78.933594 17.050781 78.601562 17.949219 L 78.835938 18.007812 C 79.441406 16.914062 80.125 16.425781 81.0625 16.425781 C 82.039062 16.425781 82.703125 17.070312 82.703125 18.027344 C 82.703125 18.554688 82.488281 19.101562 82.097656 19.472656 C 81.648438 19.921875 81.238281 20.136719 80.222656 20.507812 Z M 80.222656 20.703125 "/>
<path style=" stroke:none;fill-rule:nonzero;fill:rgb(0%,0%,0%);fill-opacity:1;" d="M 111.601562 22.1875 C 111.855469 22.1875 112.128906 22.1875 112.128906 21.894531 C 112.128906 21.582031 111.855469 21.582031 111.601562 21.582031 L 103.515625 21.582031 C 103.261719 21.582031 102.988281 21.582031 102.988281 21.894531 C 102.988281 22.1875 103.261719 22.1875 103.515625 22.1875 Z M 111.601562 22.1875 "/>
<path style=" stroke:none;fill-rule:nonzero;fill:rgb(0%,0%,0%);fill-opacity:1;" d="M 120.460938 23.574219 L 120.265625 23.496094 C 119.71875 24.355469 119.523438 24.492188 118.859375 24.492188 L 115.285156 24.492188 L 117.785156 21.855469 C 119.132812 20.46875 119.699219 19.335938 119.699219 18.164062 C 119.699219 16.679688 118.488281 15.527344 116.945312 15.527344 C 116.125 15.527344 115.34375 15.859375 114.796875 16.445312 C 114.308594 16.953125 114.09375 17.441406 113.839844 18.496094 L 114.152344 18.574219 C 114.738281 17.109375 115.285156 16.621094 116.320312 16.621094 C 117.570312 16.621094 118.429688 17.480469 118.429688 18.730469 C 118.429688 19.902344 117.726562 21.289062 116.476562 22.617188 L 113.820312 25.449219 L 113.820312 25.625 L 119.640625 25.625 Z M 120.460938 23.574219 "/>
<path style=" stroke:none;fill-rule:nonzero;fill:rgb(0%,0%,0%);fill-opacity:1;" d="M 147.035156 22.1875 C 147.289062 22.1875 147.5625 22.1875 147.5625 21.894531 C 147.5625 21.582031 147.289062 21.582031 147.035156 21.582031 L 138.949219 21.582031 C 138.695312 21.582031 138.421875 21.582031 138.421875 21.894531 C 138.421875 22.1875 138.695312 22.1875 138.949219 22.1875 Z M 147.035156 22.1875 "/>
<path style=" stroke:none;fill-rule:nonzero;fill:rgb(0%,0%,0%);fill-opacity:1;" d="M 153.160156 15.527344 L 150.464844 16.875 L 150.464844 17.089844 C 150.640625 17.011719 150.816406 16.953125 150.875 16.933594 C 151.128906 16.816406 151.382812 16.757812 151.539062 16.757812 C 151.851562 16.757812 151.988281 16.992188 151.988281 17.460938 L 151.988281 24.238281 C 151.988281 24.726562 151.871094 25.078125 151.636719 25.214844 C 151.402344 25.332031 151.1875 25.390625 150.5625 25.410156 L 150.5625 25.625 L 154.683594 25.625 L 154.683594 25.410156 C 153.511719 25.390625 153.277344 25.234375 153.277344 24.511719 L 153.277344 15.546875 Z M 153.160156 15.527344 "/>
<path style=" stroke:none;fill-rule:nonzero;fill:rgb(0%,0%,0%);fill-opacity:1;" d="M 182.226562 15.527344 C 181.40625 15.527344 180.78125 15.78125 180.234375 16.308594 C 179.355469 17.128906 178.789062 18.847656 178.789062 20.605469 C 178.789062 22.226562 179.296875 23.984375 180 24.824219 C 180.546875 25.46875 181.308594 25.839844 182.167969 25.839844 C 182.929688 25.839844 183.574219 25.585938 184.121094 25.058594 C 184.980469 24.238281 185.546875 22.5 185.546875 20.703125 C 185.546875 17.636719 184.199219 15.527344 182.226562 15.527344 Z M 182.1875 15.917969 C 183.4375 15.917969 184.121094 17.597656 184.121094 20.722656 C 184.121094 23.847656 183.457031 25.449219 182.167969 25.449219 C 180.878906 25.449219 180.234375 23.847656 180.234375 20.742188 C 180.234375 17.578125 180.898438 15.917969 182.1875 15.917969 Z M 182.1875 15.917969 "/>
<path style=" stroke:none;fill-rule:nonzero;fill:rgb(0%,0%,0%);fill-opacity:1;" d="M 218.226562 15.527344 L 215.53125 16.875 L 215.53125 17.089844 C 215.707031 17.011719 215.882812 16.953125 215.941406 16.933594 C 216.195312 16.816406 216.449219 16.757812 216.605469 16.757812 C 216.917969 16.757812 217.054688 16.992188 217.054688 17.460938 L 217.054688 24.238281 C 217.054688 24.726562 216.9375 25.078125 216.703125 25.214844 C 216.46875 25.332031 216.253906 25.390625 215.628906 25.410156 L 215.628906 25.625 L 219.75 25.625 L 219.75 25.410156 C 218.578125 25.390625 218.34375 25.234375 218.34375 24.511719 L 218.34375 15.546875 Z M 218.226562 15.527344 "/>
<path style=" stroke:none;fill-rule:nonzero;fill:rgb(0%,0%,0%);fill-opacity:1;" d="M 256.390625 23.574219 L 256.195312 23.496094 C 255.648438 24.355469 255.453125 24.492188 254.789062 24.492188 L 251.214844 24.492188 L 253.714844 21.855469 C 255.0625 20.46875 255.628906 19.335938 255.628906 18.164062 C 255.628906 16.679688 254.417969 15.527344 252.875 15.527344 C 252.054688 15.527344 251.273438 15.859375 250.726562 16.445312 C 250.238281 16.953125 250.023438 17.441406 249.769531 18.496094 L 250.082031 18.574219 C 250.667969 17.109375 251.214844 16.621094 252.25 16.621094 C 253.5 16.621094 254.359375 17.480469 254.359375 18.730469 C 254.359375 19.902344 253.65625 21.289062 252.40625 22.617188 L 249.75 25.449219 L 249.75 25.625 L 255.570312 25.625 Z M 256.390625 23.574219 "/>
<path style=" stroke:none;fill-rule:nonzero;fill:rgb(0%,0%,0%);fill-opacity:1;" d="M 287.019531 20.703125 C 287.898438 20.703125 288.25 20.722656 288.601562 20.859375 C 289.539062 21.191406 290.105469 22.03125 290.105469 23.066406 C 290.105469 24.316406 289.265625 25.292969 288.152344 25.292969 C 287.761719 25.292969 287.449219 25.195312 286.902344 24.824219 C 286.453125 24.570312 286.199219 24.453125 285.945312 24.453125 C 285.59375 24.453125 285.378906 24.667969 285.378906 24.980469 C 285.378906 25.507812 286.023438 25.839844 287.058594 25.839844 C 288.210938 25.839844 289.402344 25.449219 290.105469 24.824219 C 290.808594 24.21875 291.179688 23.359375 291.179688 22.34375 C 291.179688 21.582031 290.945312 20.878906 290.515625 20.429688 C 290.222656 20.097656 289.929688 19.921875 289.285156 19.628906 C 290.300781 18.925781 290.671875 18.378906 290.671875 17.578125 C 290.671875 16.367188 289.734375 15.527344 288.347656 15.527344 C 287.605469 15.527344 286.941406 15.78125 286.414062 16.25 C 285.964844 16.660156 285.730469 17.050781 285.398438 17.949219 L 285.632812 18.007812 C 286.238281 16.914062 286.921875 16.425781 287.859375 16.425781 C 288.835938 16.425781 289.5 17.070312 289.5 18.027344 C 289.5 18.554688 289.285156 19.101562 288.894531 19.472656 C 288.445312 19.921875 288.035156 20.136719 287.019531 20.507812 Z M 287.019531 20.703125 "/>
<path style=" stroke:none;fill-rule:nonzero;fill:rgb(0%,0%,0%);fill-opacity:1;" d="M 327.214844 22.167969 L 325.691406 22.167969 L 325.691406 15.527344 L 325.027344 15.527344 L 320.339844 22.167969 L 320.339844 23.125 L 324.539062 23.125 L 324.539062 25.625 L 325.691406 25.625 L 325.691406 23.125 L 327.214844 23.125 Z M 324.519531 22.167969 L 320.945312 22.167969 L 324.519531 17.050781 Z M 324.519531 22.167969 "/>
<path style=" stroke:none;fill-rule:nonzero;fill:rgb(0%,0%,0%);fill-opacity:1;" d="M 353.503906 23.484375 C 353.503906 23.054688 353.152344 22.703125 352.703125 22.703125 C 352.273438 22.703125 351.921875 23.054688 351.921875 23.484375 C 351.921875 23.933594 352.273438 24.285156 352.703125 24.285156 C 353.152344 24.285156 353.503906 23.933594 353.503906 23.484375 Z M 353.503906 23.484375 "/>
<path style=" stroke:none;fill-rule:nonzero;fill:rgb(0%,0%,0%);fill-opacity:1;" d="M 359.300781 23.484375 C 359.300781 23.054688 358.949219 22.703125 358.5 22.703125 C 358.070312 22.703125 357.71875 23.054688 357.71875 23.484375 C 357.71875 23.933594 358.070312 24.285156 358.5 24.285156 C 358.949219 24.285156 359.300781 23.933594 359.300781 23.484375 Z M 359.300781 23.484375 "/>
<path style=" stroke:none;fill-rule:nonzero;fill:rgb(0%,0%,0%);fill-opacity:1;" d="M 365.109375 23.484375 C 365.109375 23.054688 364.757812 22.703125 364.308594 22.703125 C 363.878906 22.703125 363.527344 23.054688 363.527344 23.484375 C 363.527344 23.933594 363.878906 24.285156 364.308594 24.285156 C 364.757812 24.285156 365.109375 23.933594 365.109375 23.484375 Z M 365.109375 23.484375 "/>
<path style=" stroke:none;fill-rule:nonzero;fill:rgb(0%,0%,0%);fill-opacity:1;" d="M 393.375 21.234375 L 393.921875 21.234375 L 396.148438 24.691406 C 396.304688 24.945312 396.65625 25.511719 396.832031 25.746094 C 396.929688 25.921875 396.96875 25.921875 397.320312 25.921875 L 399.390625 25.921875 C 399.644531 25.921875 399.878906 25.921875 399.878906 25.648438 C 399.878906 25.53125 399.78125 25.433594 399.644531 25.394531 C 399.097656 25.277344 398.375 24.300781 398.003906 23.8125 C 397.90625 23.65625 397.164062 22.679688 396.148438 21.058594 C 397.476562 20.824219 398.765625 20.257812 398.765625 18.480469 C 398.765625 16.410156 396.578125 15.6875 394.800781 15.6875 L 390.113281 15.6875 C 389.839844 15.6875 389.605469 15.6875 389.605469 15.960938 C 389.605469 16.214844 389.898438 16.214844 390.015625 16.214844 C 390.855469 16.214844 390.933594 16.3125 390.933594 17.054688 L 390.933594 24.554688 C 390.933594 25.296875 390.855469 25.394531 390.015625 25.394531 C 389.898438 25.394531 389.605469 25.394531 389.605469 25.648438 C 389.605469 25.921875 389.839844 25.921875 390.113281 25.921875 L 394.214844 25.921875 C 394.488281 25.921875 394.703125 25.921875 394.703125 25.648438 C 394.703125 25.394531 394.449219 25.394531 394.292969 25.394531 C 393.433594 25.394531 393.375 25.277344 393.375 24.554688 Z M 396.265625 20.492188 C 396.675781 19.945312 396.714844 19.144531 396.714844 18.5 C 396.714844 17.777344 396.636719 16.996094 396.148438 16.371094 C 396.773438 16.507812 398.238281 16.976562 398.238281 18.480469 C 398.238281 19.457031 397.789062 20.21875 396.265625 20.492188 Z M 393.375 17.015625 C 393.375 16.703125 393.375 16.214844 394.292969 16.214844 C 395.5625 16.214844 396.207031 16.742188 396.207031 18.5 C 396.207031 20.414062 395.738281 20.707031 393.375 20.707031 Z M 391.34375 25.394531 C 391.460938 25.121094 391.460938 24.710938 391.460938 24.574219 L 391.460938 17.035156 C 391.460938 16.878906 391.460938 16.488281 391.34375 16.214844 L 393.042969 16.214844 C 392.847656 16.449219 392.847656 16.742188 392.847656 16.976562 L 392.847656 24.574219 C 392.847656 24.730469 392.847656 25.121094 392.964844 25.394531 Z M 394.527344 21.234375 C 394.625 21.214844 394.683594 21.195312 394.800781 21.195312 C 395.035156 21.195312 395.367188 21.175781 395.582031 21.136719 C 395.816406 21.507812 397.417969 24.164062 398.667969 25.394531 L 397.222656 25.394531 Z M 394.527344 21.234375 "/>
<path style=" stroke:none;fill-rule:nonzero;fill:rgb(0%,0%,0%);fill-opacity:1;" d="M 228.128906 31.339844 L 225.492188 25.519531 C 225.394531 25.285156 225.316406 25.285156 225.257812 25.285156 C 225.257812 25.285156 225.179688 25.285156 225.003906 25.402344 L 223.597656 26.476562 C 223.402344 26.632812 223.402344 26.671875 223.402344 26.730469 C 223.402344 26.808594 223.441406 26.886719 223.539062 26.886719 C 223.636719 26.886719 223.890625 26.671875 224.066406 26.554688 C 224.144531 26.476562 224.378906 26.320312 224.535156 26.203125 L 227.484375 32.667969 C 227.582031 32.902344 227.660156 32.902344 227.796875 32.902344 C 228.011719 32.902344 228.070312 32.824219 228.167969 32.609375 L 234.945312 18.566406 C 235.0625 18.351562 235.0625 18.292969 235.0625 18.273438 C 235.0625 18.117188 234.925781 17.960938 234.75 17.960938 C 234.632812 17.960938 234.535156 18.039062 234.417969 18.273438 Z M 228.128906 31.339844 "/>
<path style="fill:none;stroke-width:0.466;stroke-linecap:butt;stroke-linejoin:miter;stroke:rgb(0%,0%,0%);stroke-opacity:1;stroke-miterlimit:10;" d="M -0.000222 0.00025 L 5.977903 0.00025 " transform="matrix(1.25,0,0,-1.25,234.75809,18.27375)"/>
<path style=" stroke:none;fill-rule:nonzero;fill:rgb(0%,0%,0%);fill-opacity:1;" d="M 241.847656 29.058594 L 241.652344 28.980469 C 241.105469 29.839844 240.910156 29.976562 240.246094 29.976562 L 236.671875 29.976562 L 239.171875 27.339844 C 240.519531 25.953125 241.085938 24.820312 241.085938 23.648438 C 241.085938 22.164062 239.875 21.011719 238.332031 21.011719 C 237.511719 21.011719 236.730469 21.34375 236.183594 21.929688 C 235.695312 22.4375 235.480469 22.925781 235.226562 23.980469 L 235.539062 24.058594 C 236.125 22.59375 236.671875 22.105469 237.707031 22.105469 C 238.957031 22.105469 239.816406 22.964844 239.816406 24.214844 C 239.816406 25.386719 239.113281 26.773438 237.863281 28.101562 L 235.207031 30.933594 L 235.207031 31.109375 L 241.027344 31.109375 Z M 241.847656 29.058594 "/>
<path style=" stroke:none;fill-rule:nonzero;fill:rgb(0%,0%,0%);fill-opacity:1;" d="M 294.289062 21.351562 C 294.777344 20.570312 295.03125 20.414062 295.753906 20.414062 L 296.4375 20.414062 L 296.046875 23.714844 C 295.988281 24.144531 295.792969 24.476562 295.285156 24.925781 C 294.816406 25.355469 294.699219 25.589844 294.699219 25.921875 C 294.699219 26.371094 295.050781 26.742188 295.519531 26.742188 C 295.96875 26.742188 296.339844 26.390625 296.535156 25.746094 C 296.671875 25.375 296.867188 23.851562 297.003906 22.328125 L 297.179688 20.414062 L 298.820312 20.414062 C 298.644531 21.585938 298.507812 23.207031 298.507812 24.046875 C 298.507812 25.726562 299.074219 26.742188 299.972656 26.742188 C 300.558594 26.742188 301.085938 26.332031 301.4375 25.628906 C 301.652344 25.21875 301.710938 24.925781 301.75 24.183594 L 301.398438 24.183594 C 301.320312 24.90625 301.046875 25.277344 300.539062 25.277344 C 300.246094 25.277344 299.933594 25.0625 299.777344 24.75 C 299.640625 24.476562 299.601562 24.242188 299.601562 23.753906 C 299.601562 22.621094 299.660156 21.234375 299.777344 20.414062 L 301.652344 20.414062 L 301.652344 19.085938 L 296.417969 19.085938 C 295.617188 19.085938 295.324219 19.183594 294.894531 19.59375 C 294.484375 20.023438 294.25 20.453125 293.996094 21.351562 Z M 294.289062 21.351562 "/>
<path style="fill:none;stroke-width:0.797;stroke-linecap:butt;stroke-linejoin:miter;stroke:rgb(0%,0%,0%);stroke-opacity:1;stroke-miterlimit:10;" d="M 0.000153 -0.00075 L 0.000153 5.668 " transform="matrix(1.25,0,0,-1.25,232.26934,12.085)"/>
<path style="fill:none;stroke-width:0.797;stroke-linecap:butt;stroke-linejoin:miter;stroke:rgb(0%,0%,0%);stroke-opacity:1;stroke-miterlimit:10;" d="M 0.001403 -0.00075 L 0.001403 5.668 " transform="matrix(1.25,0,0,-1.25,293.83809,12.085)"/>
</g>
</svg>
