<?xml version="1.0" encoding="UTF-8"?>
<svg xmlns="http://www.w3.org/2000/svg" xmlns:xlink="http://www.w3.org/1999/xlink" width="674.77115pt" height="20.605469pt" viewBox="0 0 674.77115 20.605469" version="1.1">
<g id="surface497">
<path style=" stroke:none;fill-rule:nonzero;fill:rgb(0%,0%,0%);fill-opacity:1;" d="M 5 11.425781 L 5 12.382812 L 8.671875 12.382812 L 8.671875 11.425781 Z M 5 11.425781 "/>
<path style=" stroke:none;fill-rule:nonzero;fill:rgb(0%,0%,0%);fill-opacity:1;" d="M 11.675781 10.351562 C 12.554688 10.351562 12.90625 10.371094 13.257812 10.507812 C 14.195312 10.839844 14.761719 11.679688 14.761719 12.714844 C 14.761719 13.964844 13.921875 14.941406 12.808594 14.941406 C 12.417969 14.941406 12.105469 14.84375 11.558594 14.472656 C 11.109375 14.21875 10.855469 14.101562 10.601562 14.101562 C 10.25 14.101562 10.035156 14.316406 10.035156 14.628906 C 10.035156 15.15625 10.679688 15.488281 11.714844 15.488281 C 12.867188 15.488281 14.058594 15.097656 14.761719 14.472656 C 15.464844 13.867188 15.835938 13.007812 15.835938 11.992188 C 15.835938 11.230469 15.601562 10.527344 15.171875 10.078125 C 14.878906 9.746094 14.585938 9.570312 13.941406 9.277344 C 14.957031 8.574219 15.328125 8.027344 15.328125 7.226562 C 15.328125 6.015625 14.390625 5.175781 13.003906 5.175781 C 12.261719 5.175781 11.597656 5.429688 11.070312 5.898438 C 10.621094 6.308594 10.386719 6.699219 10.054688 7.597656 L 10.289062 7.65625 C 10.894531 6.5625 11.578125 6.074219 12.515625 6.074219 C 13.492188 6.074219 14.15625 6.71875 14.15625 7.675781 C 14.15625 8.203125 13.941406 8.75 13.550781 9.121094 C 13.101562 9.570312 12.691406 9.785156 11.675781 10.15625 Z M 11.675781 10.351562 "/>
<path style=" stroke:none;fill-rule:nonzero;fill:rgb(0%,0%,0%);fill-opacity:1;" d="M 18.738281 13.789062 C 18.289062 13.789062 17.917969 14.160156 17.917969 14.628906 C 17.917969 15.058594 18.289062 15.429688 18.71875 15.429688 C 19.1875 15.429688 19.558594 15.058594 19.558594 14.628906 C 19.558594 14.160156 19.1875 13.789062 18.738281 13.789062 Z M 18.738281 13.789062 "/>
<path style=" stroke:none;fill-rule:nonzero;fill:rgb(0%,0%,0%);fill-opacity:1;" d="M 27.105469 13.789062 C 26.65625 13.789062 26.285156 14.160156 26.285156 14.628906 C 26.285156 15.058594 26.65625 15.429688 27.085938 15.429688 C 27.554688 15.429688 27.925781 15.058594 27.925781 14.628906 C 27.925781 14.160156 27.554688 13.789062 27.105469 13.789062 Z M 27.105469 13.789062 "/>
<path style=" stroke:none;fill-rule:nonzero;fill:rgb(0%,0%,0%);fill-opacity:1;" d="M 36.058594 13.222656 L 35.863281 13.144531 C 35.316406 14.003906 35.121094 14.140625 34.457031 14.140625 L 30.882812 14.140625 L 33.382812 11.503906 C 34.730469 10.117188 35.296875 8.984375 35.296875 7.8125 C 35.296875 6.328125 34.085938 5.175781 32.542969 5.175781 C 31.722656 5.175781 30.941406 5.507812 30.394531 6.09375 C 29.90625 6.601562 29.691406 7.089844 29.4375 8.144531 L 29.75 8.222656 C 30.335938 6.757812 30.882812 6.269531 31.917969 6.269531 C 33.167969 6.269531 34.027344 7.128906 34.027344 8.378906 C 34.027344 9.550781 33.324219 10.9375 32.074219 12.265625 L 29.417969 15.097656 L 29.417969 15.273438 L 35.238281 15.273438 Z M 36.058594 13.222656 "/>
<path style=" stroke:none;fill-rule:nonzero;fill:rgb(0%,0%,0%);fill-opacity:1;" d="M 40.226562 5.175781 C 39.40625 5.175781 38.78125 5.429688 38.234375 5.957031 C 37.355469 6.777344 36.789062 8.496094 36.789062 10.253906 C 36.789062 11.875 37.296875 13.632812 38 14.472656 C 38.546875 15.117188 39.308594 15.488281 40.167969 15.488281 C 40.929688 15.488281 41.574219 15.234375 42.121094 14.707031 C 42.980469 13.886719 43.546875 12.148438 43.546875 10.351562 C 43.546875 7.285156 42.199219 5.175781 40.226562 5.175781 Z M 40.1875 5.566406 C 41.4375 5.566406 42.121094 7.246094 42.121094 10.371094 C 42.121094 13.496094 41.457031 15.097656 40.167969 15.097656 C 38.878906 15.097656 38.234375 13.496094 38.234375 10.390625 C 38.234375 7.226562 38.898438 5.566406 40.1875 5.566406 Z M 40.1875 5.566406 "/>
<path style=" stroke:none;fill-rule:nonzero;fill:rgb(0%,0%,0%);fill-opacity:1;" d="M 47.699219 5.175781 C 46.878906 5.175781 46.253906 5.429688 45.707031 5.957031 C 44.828125 6.777344 44.261719 8.496094 44.261719 10.253906 C 44.261719 11.875 44.769531 13.632812 45.472656 14.472656 C 46.019531 15.117188 46.78125 15.488281 47.640625 15.488281 C 48.402344 15.488281 49.046875 15.234375 49.59375 14.707031 C 50.453125 13.886719 51.019531 12.148438 51.019531 10.351562 C 51.019531 7.285156 49.671875 5.175781 47.699219 5.175781 Z M 47.660156 5.566406 C 48.910156 5.566406 49.59375 7.246094 49.59375 10.371094 C 49.59375 13.496094 48.929688 15.097656 47.640625 15.097656 C 46.351562 15.097656 45.707031 13.496094 45.707031 10.390625 C 45.707031 7.226562 46.371094 5.566406 47.660156 5.566406 Z M 47.660156 5.566406 "/>
<path style=" stroke:none;fill-rule:nonzero;fill:rgb(0%,0%,0%);fill-opacity:1;" d="M 55.171875 5.175781 C 54.351562 5.175781 53.726562 5.429688 53.179688 5.957031 C 52.300781 6.777344 51.734375 8.496094 51.734375 10.253906 C 51.734375 11.875 52.242188 13.632812 52.945312 14.472656 C 53.492188 15.117188 54.253906 15.488281 55.113281 15.488281 C 55.875 15.488281 56.519531 15.234375 57.066406 14.707031 C 57.925781 13.886719 58.492188 12.148438 58.492188 10.351562 C 58.492188 7.285156 57.144531 5.175781 55.171875 5.175781 Z M 55.132812 5.566406 C 56.382812 5.566406 57.066406 7.246094 57.066406 10.371094 C 57.066406 13.496094 56.402344 15.097656 55.113281 15.097656 C 53.824219 15.097656 53.179688 13.496094 53.179688 10.390625 C 53.179688 7.226562 53.84375 5.566406 55.132812 5.566406 Z M 55.132812 5.566406 "/>
<path style=" stroke:none;fill-rule:nonzero;fill:rgb(0%,0%,0%);fill-opacity:1;" d="M 63.175781 11.425781 L 63.175781 12.382812 L 66.847656 12.382812 L 66.847656 11.425781 Z M 63.175781 11.425781 "/>
<path style=" stroke:none;fill-rule:nonzero;fill:rgb(0%,0%,0%);fill-opacity:1;" d="M 74.65625 13.222656 L 74.460938 13.144531 C 73.914062 14.003906 73.71875 14.140625 73.054688 14.140625 L 69.480469 14.140625 L 71.980469 11.503906 C 73.328125 10.117188 73.894531 8.984375 73.894531 7.8125 C 73.894531 6.328125 72.683594 5.175781 71.140625 5.175781 C 70.320312 5.175781 69.539062 5.507812 68.992188 6.09375 C 68.503906 6.601562 68.289062 7.089844 68.035156 8.144531 L 68.347656 8.222656 C 68.933594 6.757812 69.480469 6.269531 70.515625 6.269531 C 71.765625 6.269531 72.625 7.128906 72.625 8.378906 C 72.625 9.550781 71.921875 10.9375 70.671875 12.265625 L 68.015625 15.097656 L 68.015625 15.273438 L 73.835938 15.273438 Z M 74.65625 13.222656 "/>
<path style=" stroke:none;fill-rule:nonzero;fill:rgb(0%,0%,0%);fill-opacity:1;" d="M 76.914062 13.789062 C 76.464844 13.789062 76.09375 14.160156 76.09375 14.628906 C 76.09375 15.058594 76.464844 15.429688 76.894531 15.429688 C 77.363281 15.429688 77.734375 15.058594 77.734375 14.628906 C 77.734375 14.160156 77.363281 13.789062 76.914062 13.789062 Z M 76.914062 13.789062 "/>
<path style=" stroke:none;fill-rule:nonzero;fill:rgb(0%,0%,0%);fill-opacity:1;" d="M 83.113281 9.726562 C 84.597656 8.945312 85.105469 8.320312 85.105469 7.285156 C 85.105469 6.074219 84.03125 5.175781 82.546875 5.175781 C 80.90625 5.175781 79.695312 6.171875 79.695312 7.539062 C 79.695312 8.496094 79.988281 8.945312 81.550781 10.3125 C 79.949219 11.542969 79.617188 11.992188 79.617188 13.007812 C 79.617188 14.472656 80.789062 15.488281 82.488281 15.488281 C 84.285156 15.488281 85.417969 14.492188 85.417969 12.949219 C 85.417969 11.816406 84.910156 11.074219 83.113281 9.726562 Z M 82.839844 11.269531 C 83.933594 12.050781 84.285156 12.578125 84.285156 13.417969 C 84.285156 14.394531 83.621094 15.058594 82.644531 15.058594 C 81.511719 15.058594 80.75 14.199219 80.75 12.890625 C 80.75 11.933594 81.082031 11.308594 81.941406 10.605469 Z M 82.683594 9.453125 C 81.355469 8.59375 80.808594 7.910156 80.808594 7.070312 C 80.808594 6.210938 81.472656 5.585938 82.429688 5.585938 C 83.445312 5.585938 84.089844 6.25 84.089844 7.285156 C 84.089844 8.125 83.660156 8.808594 82.820312 9.375 C 82.742188 9.414062 82.742188 9.414062 82.683594 9.453125 Z M 82.683594 9.453125 "/>
<path style=" stroke:none;fill-rule:nonzero;fill:rgb(0%,0%,0%);fill-opacity:1;" d="M 91.859375 13.789062 C 91.410156 13.789062 91.039062 14.160156 91.039062 14.628906 C 91.039062 15.058594 91.410156 15.429688 91.839844 15.429688 C 92.308594 15.429688 92.679688 15.058594 92.679688 14.628906 C 92.679688 14.160156 92.308594 13.789062 91.859375 13.789062 Z M 91.859375 13.789062 "/>
<path style=" stroke:none;fill-rule:nonzero;fill:rgb(0%,0%,0%);fill-opacity:1;" d="M 100.808594 13.222656 L 100.613281 13.144531 C 100.066406 14.003906 99.871094 14.140625 99.207031 14.140625 L 95.632812 14.140625 L 98.132812 11.503906 C 99.480469 10.117188 100.046875 8.984375 100.046875 7.8125 C 100.046875 6.328125 98.835938 5.175781 97.292969 5.175781 C 96.472656 5.175781 95.691406 5.507812 95.144531 6.09375 C 94.65625 6.601562 94.441406 7.089844 94.1875 8.144531 L 94.5 8.222656 C 95.085938 6.757812 95.632812 6.269531 96.667969 6.269531 C 97.917969 6.269531 98.777344 7.128906 98.777344 8.378906 C 98.777344 9.550781 98.074219 10.9375 96.824219 12.265625 L 94.167969 15.097656 L 94.167969 15.273438 L 99.988281 15.273438 Z M 100.808594 13.222656 "/>
<path style=" stroke:none;fill-rule:nonzero;fill:rgb(0%,0%,0%);fill-opacity:1;" d="M 108.28125 13.222656 L 108.085938 13.144531 C 107.539062 14.003906 107.34375 14.140625 106.679688 14.140625 L 103.105469 14.140625 L 105.605469 11.503906 C 106.953125 10.117188 107.519531 8.984375 107.519531 7.8125 C 107.519531 6.328125 106.308594 5.175781 104.765625 5.175781 C 103.945312 5.175781 103.164062 5.507812 102.617188 6.09375 C 102.128906 6.601562 101.914062 7.089844 101.660156 8.144531 L 101.972656 8.222656 C 102.558594 6.757812 103.105469 6.269531 104.140625 6.269531 C 105.390625 6.269531 106.25 7.128906 106.25 8.378906 C 106.25 9.550781 105.546875 10.9375 104.296875 12.265625 L 101.640625 15.097656 L 101.640625 15.273438 L 107.460938 15.273438 Z M 108.28125 13.222656 "/>
<path style=" stroke:none;fill-rule:nonzero;fill:rgb(0%,0%,0%);fill-opacity:1;" d="M 115.324219 5.058594 C 113.625 5.195312 112.765625 5.488281 111.671875 6.25 C 110.050781 7.402344 109.171875 9.101562 109.171875 11.113281 C 109.171875 12.402344 109.582031 13.710938 110.226562 14.472656 C 110.792969 15.117188 111.59375 15.488281 112.511719 15.488281 C 114.367188 15.488281 115.65625 14.0625 115.65625 11.992188 C 115.65625 10.097656 114.5625 8.886719 112.84375 8.886719 C 112.199219 8.886719 111.867188 8.984375 110.929688 9.550781 C 111.339844 7.285156 113.019531 5.683594 115.363281 5.292969 Z M 112.277344 9.570312 C 113.566406 9.570312 114.308594 10.644531 114.308594 12.5 C 114.308594 14.160156 113.722656 15.058594 112.6875 15.058594 C 111.359375 15.058594 110.558594 13.652344 110.558594 11.347656 C 110.558594 10.585938 110.675781 10.15625 110.988281 9.941406 C 111.300781 9.707031 111.75 9.570312 112.277344 9.570312 Z M 112.277344 9.570312 "/>
<path style=" stroke:none;fill-rule:nonzero;fill:rgb(0%,0%,0%);fill-opacity:1;" d="M 123.226562 13.222656 L 123.03125 13.144531 C 122.484375 14.003906 122.289062 14.140625 121.625 14.140625 L 118.050781 14.140625 L 120.550781 11.503906 C 121.898438 10.117188 122.464844 8.984375 122.464844 7.8125 C 122.464844 6.328125 121.253906 5.175781 119.710938 5.175781 C 118.890625 5.175781 118.109375 5.507812 117.5625 6.09375 C 117.074219 6.601562 116.859375 7.089844 116.605469 8.144531 L 116.917969 8.222656 C 117.503906 6.757812 118.050781 6.269531 119.085938 6.269531 C 120.335938 6.269531 121.195312 7.128906 121.195312 8.378906 C 121.195312 9.550781 120.492188 10.9375 119.242188 12.265625 L 116.585938 15.097656 L 116.585938 15.273438 L 122.40625 15.273438 Z M 123.226562 13.222656 "/>
<path style=" stroke:none;fill-rule:nonzero;fill:rgb(0%,0%,0%);fill-opacity:1;" d="M 127.929688 11.425781 L 127.929688 12.382812 L 131.601562 12.382812 L 131.601562 11.425781 Z M 127.929688 11.425781 "/>
<path style=" stroke:none;fill-rule:nonzero;fill:rgb(0%,0%,0%);fill-opacity:1;" d="M 139.410156 13.222656 L 139.214844 13.144531 C 138.667969 14.003906 138.472656 14.140625 137.808594 14.140625 L 134.234375 14.140625 L 136.734375 11.503906 C 138.082031 10.117188 138.648438 8.984375 138.648438 7.8125 C 138.648438 6.328125 137.4375 5.175781 135.894531 5.175781 C 135.074219 5.175781 134.292969 5.507812 133.746094 6.09375 C 133.257812 6.601562 133.042969 7.089844 132.789062 8.144531 L 133.101562 8.222656 C 133.6875 6.757812 134.234375 6.269531 135.269531 6.269531 C 136.519531 6.269531 137.378906 7.128906 137.378906 8.378906 C 137.378906 9.550781 136.675781 10.9375 135.425781 12.265625 L 132.769531 15.097656 L 132.769531 15.273438 L 138.589844 15.273438 Z M 139.410156 13.222656 "/>
<path style=" stroke:none;fill-rule:nonzero;fill:rgb(0%,0%,0%);fill-opacity:1;" d="M 141.667969 13.789062 C 141.21875 13.789062 140.847656 14.160156 140.847656 14.628906 C 140.847656 15.058594 141.21875 15.429688 141.648438 15.429688 C 142.117188 15.429688 142.488281 15.058594 142.488281 14.628906 C 142.488281 14.160156 142.117188 13.789062 141.667969 13.789062 Z M 141.667969 13.789062 "/>
<path style=" stroke:none;fill-rule:nonzero;fill:rgb(0%,0%,0%);fill-opacity:1;" d="M 150.1875 5.058594 C 148.488281 5.195312 147.628906 5.488281 146.535156 6.25 C 144.914062 7.402344 144.035156 9.101562 144.035156 11.113281 C 144.035156 12.402344 144.445312 13.710938 145.089844 14.472656 C 145.65625 15.117188 146.457031 15.488281 147.375 15.488281 C 149.230469 15.488281 150.519531 14.0625 150.519531 11.992188 C 150.519531 10.097656 149.425781 8.886719 147.707031 8.886719 C 147.0625 8.886719 146.730469 8.984375 145.792969 9.550781 C 146.203125 7.285156 147.882812 5.683594 150.226562 5.292969 Z M 147.140625 9.570312 C 148.429688 9.570312 149.171875 10.644531 149.171875 12.5 C 149.171875 14.160156 148.585938 15.058594 147.550781 15.058594 C 146.222656 15.058594 145.421875 13.652344 145.421875 11.347656 C 145.421875 10.585938 145.539062 10.15625 145.851562 9.941406 C 146.164062 9.707031 146.613281 9.570312 147.140625 9.570312 Z M 147.140625 9.570312 "/>
<path style=" stroke:none;fill-rule:nonzero;fill:rgb(0%,0%,0%);fill-opacity:1;" d="M 156.609375 13.789062 C 156.160156 13.789062 155.789062 14.160156 155.789062 14.628906 C 155.789062 15.058594 156.160156 15.429688 156.589844 15.429688 C 157.058594 15.429688 157.429688 15.058594 157.429688 14.628906 C 157.429688 14.160156 157.058594 13.789062 156.609375 13.789062 Z M 156.609375 13.789062 "/>
<path style=" stroke:none;fill-rule:nonzero;fill:rgb(0%,0%,0%);fill-opacity:1;" d="M 165.5625 13.222656 L 165.367188 13.144531 C 164.820312 14.003906 164.625 14.140625 163.960938 14.140625 L 160.386719 14.140625 L 162.886719 11.503906 C 164.234375 10.117188 164.800781 8.984375 164.800781 7.8125 C 164.800781 6.328125 163.589844 5.175781 162.046875 5.175781 C 161.226562 5.175781 160.445312 5.507812 159.898438 6.09375 C 159.410156 6.601562 159.195312 7.089844 158.941406 8.144531 L 159.253906 8.222656 C 159.839844 6.757812 160.386719 6.269531 161.421875 6.269531 C 162.671875 6.269531 163.53125 7.128906 163.53125 8.378906 C 163.53125 9.550781 162.828125 10.9375 161.578125 12.265625 L 158.921875 15.097656 L 158.921875 15.273438 L 164.742188 15.273438 Z M 165.5625 13.222656 "/>
<path style=" stroke:none;fill-rule:nonzero;fill:rgb(0%,0%,0%);fill-opacity:1;" d="M 168.640625 6.5625 L 171.570312 6.5625 C 171.824219 6.5625 171.882812 6.523438 171.921875 6.425781 L 172.488281 5.097656 L 172.351562 5 C 172.136719 5.3125 171.980469 5.390625 171.667969 5.390625 L 168.542969 5.390625 L 166.921875 8.925781 C 166.902344 8.945312 166.902344 8.964844 166.902344 9.003906 C 166.902344 9.082031 166.960938 9.121094 167.078125 9.121094 C 167.566406 9.121094 168.152344 9.21875 168.777344 9.414062 C 170.496094 9.960938 171.277344 10.898438 171.277344 12.382812 C 171.277344 13.808594 170.359375 14.921875 169.207031 14.921875 C 168.894531 14.921875 168.640625 14.824219 168.210938 14.492188 C 167.722656 14.160156 167.371094 14.003906 167.058594 14.003906 C 166.628906 14.003906 166.414062 14.179688 166.414062 14.550781 C 166.414062 15.117188 167.117188 15.488281 168.25 15.488281 C 169.5 15.488281 170.574219 15.078125 171.316406 14.316406 C 172.019531 13.652344 172.332031 12.792969 172.332031 11.660156 C 172.332031 10.585938 172.039062 9.902344 171.296875 9.140625 C 170.632812 8.496094 169.792969 8.144531 168.015625 7.832031 Z M 168.640625 6.5625 "/>
<path style=" stroke:none;fill-rule:nonzero;fill:rgb(0%,0%,0%);fill-opacity:1;" d="M 180.113281 5.390625 L 174.585938 5.390625 L 173.707031 7.578125 L 173.960938 7.695312 C 174.605469 6.679688 174.878906 6.484375 175.699219 6.484375 L 178.941406 6.484375 L 175.992188 15.390625 L 176.949219 15.390625 L 180.113281 5.625 Z M 180.113281 5.390625 "/>
<path style=" stroke:none;fill-rule:nonzero;fill:rgb(0%,0%,0%);fill-opacity:1;" d="M 187.585938 5.390625 L 182.058594 5.390625 L 181.179688 7.578125 L 181.433594 7.695312 C 182.078125 6.679688 182.351562 6.484375 183.171875 6.484375 L 186.414062 6.484375 L 183.464844 15.390625 L 184.421875 15.390625 L 187.585938 5.625 Z M 187.585938 5.390625 "/>
<path style=" stroke:none;fill-rule:nonzero;fill:rgb(0%,0%,0%);fill-opacity:1;" d="M 192.683594 11.425781 L 192.683594 12.382812 L 196.355469 12.382812 L 196.355469 11.425781 Z M 192.683594 11.425781 "/>
<path style=" stroke:none;fill-rule:nonzero;fill:rgb(0%,0%,0%);fill-opacity:1;" d="M 204.160156 13.222656 L 203.964844 13.144531 C 203.417969 14.003906 203.222656 14.140625 202.558594 14.140625 L 198.984375 14.140625 L 201.484375 11.503906 C 202.832031 10.117188 203.398438 8.984375 203.398438 7.8125 C 203.398438 6.328125 202.1875 5.175781 200.644531 5.175781 C 199.824219 5.175781 199.042969 5.507812 198.496094 6.09375 C 198.007812 6.601562 197.792969 7.089844 197.539062 8.144531 L 197.851562 8.222656 C 198.4375 6.757812 198.984375 6.269531 200.019531 6.269531 C 201.269531 6.269531 202.128906 7.128906 202.128906 8.378906 C 202.128906 9.550781 201.425781 10.9375 200.175781 12.265625 L 197.519531 15.097656 L 197.519531 15.273438 L 203.339844 15.273438 Z M 204.160156 13.222656 "/>
<path style=" stroke:none;fill-rule:nonzero;fill:rgb(0%,0%,0%);fill-opacity:1;" d="M 206.417969 13.789062 C 205.96875 13.789062 205.597656 14.160156 205.597656 14.628906 C 205.597656 15.058594 205.96875 15.429688 206.398438 15.429688 C 206.867188 15.429688 207.238281 15.058594 207.238281 14.628906 C 207.238281 14.160156 206.867188 13.789062 206.417969 13.789062 Z M 206.417969 13.789062 "/>
<path style=" stroke:none;fill-rule:nonzero;fill:rgb(0%,0%,0%);fill-opacity:1;" d="M 215.332031 11.816406 L 213.808594 11.816406 L 213.808594 5.175781 L 213.144531 5.175781 L 208.457031 11.816406 L 208.457031 12.773438 L 212.65625 12.773438 L 212.65625 15.273438 L 213.808594 15.273438 L 213.808594 12.773438 L 215.332031 12.773438 Z M 212.636719 11.816406 L 209.0625 11.816406 L 212.636719 6.699219 Z M 212.636719 11.816406 "/>
<path style=" stroke:none;fill-rule:nonzero;fill:rgb(0%,0%,0%);fill-opacity:1;" d="M 221.363281 13.789062 C 220.914062 13.789062 220.542969 14.160156 220.542969 14.628906 C 220.542969 15.058594 220.914062 15.429688 221.34375 15.429688 C 221.8125 15.429688 222.183594 15.058594 222.183594 14.628906 C 222.183594 14.160156 221.8125 13.789062 221.363281 13.789062 Z M 221.363281 13.789062 "/>
<path style=" stroke:none;fill-rule:nonzero;fill:rgb(0%,0%,0%);fill-opacity:1;" d="M 230.3125 13.222656 L 230.117188 13.144531 C 229.570312 14.003906 229.375 14.140625 228.710938 14.140625 L 225.136719 14.140625 L 227.636719 11.503906 C 228.984375 10.117188 229.550781 8.984375 229.550781 7.8125 C 229.550781 6.328125 228.339844 5.175781 226.796875 5.175781 C 225.976562 5.175781 225.195312 5.507812 224.648438 6.09375 C 224.160156 6.601562 223.945312 7.089844 223.691406 8.144531 L 224.003906 8.222656 C 224.589844 6.757812 225.136719 6.269531 226.171875 6.269531 C 227.421875 6.269531 228.28125 7.128906 228.28125 8.378906 C 228.28125 9.550781 227.578125 10.9375 226.328125 12.265625 L 223.671875 15.097656 L 223.671875 15.273438 L 229.492188 15.273438 Z M 230.3125 13.222656 "/>
<path style=" stroke:none;fill-rule:nonzero;fill:rgb(0%,0%,0%);fill-opacity:1;" d="M 231.574219 15.605469 C 233.253906 15.410156 234.074219 15.117188 235.089844 14.394531 C 236.632812 13.261719 237.550781 11.40625 237.550781 9.394531 C 237.550781 6.914062 236.183594 5.175781 234.25 5.175781 C 232.472656 5.175781 231.144531 6.679688 231.144531 8.691406 C 231.144531 10.527344 232.21875 11.738281 233.839844 11.738281 C 234.660156 11.738281 235.285156 11.484375 236.066406 10.878906 C 235.460938 13.320312 233.800781 14.921875 231.535156 15.3125 Z M 236.105469 9.960938 C 236.105469 10.273438 236.046875 10.410156 235.871094 10.527344 C 235.460938 10.898438 234.914062 11.09375 234.367188 11.09375 C 233.234375 11.09375 232.511719 9.960938 232.511719 8.183594 C 232.511719 7.34375 232.765625 6.445312 233.078125 6.054688 C 233.332031 5.761719 233.703125 5.585938 234.132812 5.585938 C 235.441406 5.585938 236.105469 6.875 236.105469 9.394531 Z M 236.105469 9.960938 "/>
<path style=" stroke:none;fill-rule:nonzero;fill:rgb(0%,0%,0%);fill-opacity:1;" d="M 240.863281 6.5625 L 243.792969 6.5625 C 244.046875 6.5625 244.105469 6.523438 244.144531 6.425781 L 244.710938 5.097656 L 244.574219 5 C 244.359375 5.3125 244.203125 5.390625 243.890625 5.390625 L 240.765625 5.390625 L 239.144531 8.925781 C 239.125 8.945312 239.125 8.964844 239.125 9.003906 C 239.125 9.082031 239.183594 9.121094 239.300781 9.121094 C 239.789062 9.121094 240.375 9.21875 241 9.414062 C 242.71875 9.960938 243.5 10.898438 243.5 12.382812 C 243.5 13.808594 242.582031 14.921875 241.429688 14.921875 C 241.117188 14.921875 240.863281 14.824219 240.433594 14.492188 C 239.945312 14.160156 239.59375 14.003906 239.28125 14.003906 C 238.851562 14.003906 238.636719 14.179688 238.636719 14.550781 C 238.636719 15.117188 239.339844 15.488281 240.472656 15.488281 C 241.722656 15.488281 242.796875 15.078125 243.539062 14.316406 C 244.242188 13.652344 244.554688 12.792969 244.554688 11.660156 C 244.554688 10.585938 244.261719 9.902344 243.519531 9.140625 C 242.855469 8.496094 242.015625 8.144531 240.238281 7.832031 Z M 240.863281 6.5625 "/>
<path style=" stroke:none;fill-rule:nonzero;fill:rgb(0%,0%,0%);fill-opacity:1;" d="M 246.519531 15.605469 C 248.199219 15.410156 249.019531 15.117188 250.035156 14.394531 C 251.578125 13.261719 252.496094 11.40625 252.496094 9.394531 C 252.496094 6.914062 251.128906 5.175781 249.195312 5.175781 C 247.417969 5.175781 246.089844 6.679688 246.089844 8.691406 C 246.089844 10.527344 247.164062 11.738281 248.785156 11.738281 C 249.605469 11.738281 250.230469 11.484375 251.011719 10.878906 C 250.40625 13.320312 248.746094 14.921875 246.480469 15.3125 Z M 251.050781 9.960938 C 251.050781 10.273438 250.992188 10.410156 250.816406 10.527344 C 250.40625 10.898438 249.859375 11.09375 249.3125 11.09375 C 248.179688 11.09375 247.457031 9.960938 247.457031 8.183594 C 247.457031 7.34375 247.710938 6.445312 248.023438 6.054688 C 248.277344 5.761719 248.648438 5.585938 249.078125 5.585938 C 250.386719 5.585938 251.050781 6.875 251.050781 9.394531 Z M 251.050781 9.960938 "/>
<path style=" stroke:none;fill-rule:nonzero;fill:rgb(0%,0%,0%);fill-opacity:1;" d="M 257.433594 11.425781 L 257.433594 12.382812 L 261.105469 12.382812 L 261.105469 11.425781 Z M 257.433594 11.425781 "/>
<path style=" stroke:none;fill-rule:nonzero;fill:rgb(0%,0%,0%);fill-opacity:1;" d="M 268.914062 13.222656 L 268.71875 13.144531 C 268.171875 14.003906 267.976562 14.140625 267.3125 14.140625 L 263.738281 14.140625 L 266.238281 11.503906 C 267.585938 10.117188 268.152344 8.984375 268.152344 7.8125 C 268.152344 6.328125 266.941406 5.175781 265.398438 5.175781 C 264.578125 5.175781 263.796875 5.507812 263.25 6.09375 C 262.761719 6.601562 262.546875 7.089844 262.292969 8.144531 L 262.605469 8.222656 C 263.191406 6.757812 263.738281 6.269531 264.773438 6.269531 C 266.023438 6.269531 266.882812 7.128906 266.882812 8.378906 C 266.882812 9.550781 266.179688 10.9375 264.929688 12.265625 L 262.273438 15.097656 L 262.273438 15.273438 L 268.09375 15.273438 Z M 268.914062 13.222656 "/>
<path style=" stroke:none;fill-rule:nonzero;fill:rgb(0%,0%,0%);fill-opacity:1;" d="M 271.171875 13.789062 C 270.722656 13.789062 270.351562 14.160156 270.351562 14.628906 C 270.351562 15.058594 270.722656 15.429688 271.152344 15.429688 C 271.621094 15.429688 271.992188 15.058594 271.992188 14.628906 C 271.992188 14.160156 271.621094 13.789062 271.171875 13.789062 Z M 271.171875 13.789062 "/>
<path style=" stroke:none;fill-rule:nonzero;fill:rgb(0%,0%,0%);fill-opacity:1;" d="M 280.121094 13.222656 L 279.925781 13.144531 C 279.378906 14.003906 279.183594 14.140625 278.519531 14.140625 L 274.945312 14.140625 L 277.445312 11.503906 C 278.792969 10.117188 279.359375 8.984375 279.359375 7.8125 C 279.359375 6.328125 278.148438 5.175781 276.605469 5.175781 C 275.785156 5.175781 275.003906 5.507812 274.457031 6.09375 C 273.96875 6.601562 273.753906 7.089844 273.5 8.144531 L 273.8125 8.222656 C 274.398438 6.757812 274.945312 6.269531 275.980469 6.269531 C 277.230469 6.269531 278.089844 7.128906 278.089844 8.378906 C 278.089844 9.550781 277.386719 10.9375 276.136719 12.265625 L 273.480469 15.097656 L 273.480469 15.273438 L 279.300781 15.273438 Z M 280.121094 13.222656 "/>
<path style=" stroke:none;fill-rule:nonzero;fill:rgb(0%,0%,0%);fill-opacity:1;" d="M 286.117188 13.789062 C 285.667969 13.789062 285.296875 14.160156 285.296875 14.628906 C 285.296875 15.058594 285.667969 15.429688 286.097656 15.429688 C 286.566406 15.429688 286.9375 15.058594 286.9375 14.628906 C 286.9375 14.160156 286.566406 13.789062 286.117188 13.789062 Z M 286.117188 13.789062 "/>
<path style=" stroke:none;fill-rule:nonzero;fill:rgb(0%,0%,0%);fill-opacity:1;" d="M 290.261719 10.351562 C 291.140625 10.351562 291.492188 10.371094 291.84375 10.507812 C 292.78125 10.839844 293.347656 11.679688 293.347656 12.714844 C 293.347656 13.964844 292.507812 14.941406 291.394531 14.941406 C 291.003906 14.941406 290.691406 14.84375 290.144531 14.472656 C 289.695312 14.21875 289.441406 14.101562 289.1875 14.101562 C 288.835938 14.101562 288.621094 14.316406 288.621094 14.628906 C 288.621094 15.15625 289.265625 15.488281 290.300781 15.488281 C 291.453125 15.488281 292.644531 15.097656 293.347656 14.472656 C 294.050781 13.867188 294.421875 13.007812 294.421875 11.992188 C 294.421875 11.230469 294.1875 10.527344 293.757812 10.078125 C 293.464844 9.746094 293.171875 9.570312 292.527344 9.277344 C 293.542969 8.574219 293.914062 8.027344 293.914062 7.226562 C 293.914062 6.015625 292.976562 5.175781 291.589844 5.175781 C 290.847656 5.175781 290.183594 5.429688 289.65625 5.898438 C 289.207031 6.308594 288.972656 6.699219 288.640625 7.597656 L 288.875 7.65625 C 289.480469 6.5625 290.164062 6.074219 291.101562 6.074219 C 292.078125 6.074219 292.742188 6.71875 292.742188 7.675781 C 292.742188 8.203125 292.527344 8.75 292.136719 9.121094 C 291.6875 9.570312 291.277344 9.785156 290.261719 10.15625 Z M 290.261719 10.351562 "/>
<path style=" stroke:none;fill-rule:nonzero;fill:rgb(0%,0%,0%);fill-opacity:1;" d="M 302.5 11.816406 L 300.976562 11.816406 L 300.976562 5.175781 L 300.3125 5.175781 L 295.625 11.816406 L 295.625 12.773438 L 299.824219 12.773438 L 299.824219 15.273438 L 300.976562 15.273438 L 300.976562 12.773438 L 302.5 12.773438 Z M 299.804688 11.816406 L 296.230469 11.816406 L 299.804688 6.699219 Z M 299.804688 11.816406 "/>
<path style=" stroke:none;fill-rule:nonzero;fill:rgb(0%,0%,0%);fill-opacity:1;" d="M 310.011719 13.222656 L 309.816406 13.144531 C 309.269531 14.003906 309.074219 14.140625 308.410156 14.140625 L 304.835938 14.140625 L 307.335938 11.503906 C 308.683594 10.117188 309.25 8.984375 309.25 7.8125 C 309.25 6.328125 308.039062 5.175781 306.496094 5.175781 C 305.675781 5.175781 304.894531 5.507812 304.347656 6.09375 C 303.859375 6.601562 303.644531 7.089844 303.390625 8.144531 L 303.703125 8.222656 C 304.289062 6.757812 304.835938 6.269531 305.871094 6.269531 C 307.121094 6.269531 307.980469 7.128906 307.980469 8.378906 C 307.980469 9.550781 307.277344 10.9375 306.027344 12.265625 L 303.371094 15.097656 L 303.371094 15.273438 L 309.191406 15.273438 Z M 310.011719 13.222656 "/>
<path style=" stroke:none;fill-rule:nonzero;fill:rgb(0%,0%,0%);fill-opacity:1;" d="M 313.085938 6.5625 L 316.015625 6.5625 C 316.269531 6.5625 316.328125 6.523438 316.367188 6.425781 L 316.933594 5.097656 L 316.796875 5 C 316.582031 5.3125 316.425781 5.390625 316.113281 5.390625 L 312.988281 5.390625 L 311.367188 8.925781 C 311.347656 8.945312 311.347656 8.964844 311.347656 9.003906 C 311.347656 9.082031 311.40625 9.121094 311.523438 9.121094 C 312.011719 9.121094 312.597656 9.21875 313.222656 9.414062 C 314.941406 9.960938 315.722656 10.898438 315.722656 12.382812 C 315.722656 13.808594 314.804688 14.921875 313.652344 14.921875 C 313.339844 14.921875 313.085938 14.824219 312.65625 14.492188 C 312.167969 14.160156 311.816406 14.003906 311.503906 14.003906 C 311.074219 14.003906 310.859375 14.179688 310.859375 14.550781 C 310.859375 15.117188 311.5625 15.488281 312.695312 15.488281 C 313.945312 15.488281 315.019531 15.078125 315.761719 14.316406 C 316.464844 13.652344 316.777344 12.792969 316.777344 11.660156 C 316.777344 10.585938 316.484375 9.902344 315.742188 9.140625 C 315.078125 8.496094 314.238281 8.144531 312.460938 7.832031 Z M 313.085938 6.5625 "/>
<path style=" stroke:none;fill-rule:nonzero;fill:rgb(0%,0%,0%);fill-opacity:1;" d="M 322.1875 11.425781 L 322.1875 12.382812 L 325.859375 12.382812 L 325.859375 11.425781 Z M 322.1875 11.425781 "/>
<path style=" stroke:none;fill-rule:nonzero;fill:rgb(0%,0%,0%);fill-opacity:1;" d="M 333.667969 13.222656 L 333.472656 13.144531 C 332.925781 14.003906 332.730469 14.140625 332.066406 14.140625 L 328.492188 14.140625 L 330.992188 11.503906 C 332.339844 10.117188 332.90625 8.984375 332.90625 7.8125 C 332.90625 6.328125 331.695312 5.175781 330.152344 5.175781 C 329.332031 5.175781 328.550781 5.507812 328.003906 6.09375 C 327.515625 6.601562 327.300781 7.089844 327.046875 8.144531 L 327.359375 8.222656 C 327.945312 6.757812 328.492188 6.269531 329.527344 6.269531 C 330.777344 6.269531 331.636719 7.128906 331.636719 8.378906 C 331.636719 9.550781 330.933594 10.9375 329.683594 12.265625 L 327.027344 15.097656 L 327.027344 15.273438 L 332.847656 15.273438 Z M 333.667969 13.222656 "/>
<path style=" stroke:none;fill-rule:nonzero;fill:rgb(0%,0%,0%);fill-opacity:1;" d="M 335.921875 13.789062 C 335.472656 13.789062 335.101562 14.160156 335.101562 14.628906 C 335.101562 15.058594 335.472656 15.429688 335.902344 15.429688 C 336.371094 15.429688 336.742188 15.058594 336.742188 14.628906 C 336.742188 14.160156 336.371094 13.789062 335.921875 13.789062 Z M 335.921875 13.789062 "/>
<path style=" stroke:none;fill-rule:nonzero;fill:rgb(0%,0%,0%);fill-opacity:1;" d="M 344.292969 13.789062 C 343.84375 13.789062 343.472656 14.160156 343.472656 14.628906 C 343.472656 15.058594 343.84375 15.429688 344.273438 15.429688 C 344.742188 15.429688 345.113281 15.058594 345.113281 14.628906 C 345.113281 14.160156 344.742188 13.789062 344.292969 13.789062 Z M 344.292969 13.789062 "/>
<path style=" stroke:none;fill-rule:nonzero;fill:rgb(0%,0%,0%);fill-opacity:1;" d="M 353.203125 11.816406 L 351.679688 11.816406 L 351.679688 5.175781 L 351.015625 5.175781 L 346.328125 11.816406 L 346.328125 12.773438 L 350.527344 12.773438 L 350.527344 15.273438 L 351.679688 15.273438 L 351.679688 12.773438 L 353.203125 12.773438 Z M 350.507812 11.816406 L 346.933594 11.816406 L 350.507812 6.699219 Z M 350.507812 11.816406 "/>
<path style=" stroke:none;fill-rule:nonzero;fill:rgb(0%,0%,0%);fill-opacity:1;" d="M 357.414062 5.175781 C 356.59375 5.175781 355.96875 5.429688 355.421875 5.957031 C 354.542969 6.777344 353.976562 8.496094 353.976562 10.253906 C 353.976562 11.875 354.484375 13.632812 355.1875 14.472656 C 355.734375 15.117188 356.496094 15.488281 357.355469 15.488281 C 358.117188 15.488281 358.761719 15.234375 359.308594 14.707031 C 360.167969 13.886719 360.734375 12.148438 360.734375 10.351562 C 360.734375 7.285156 359.386719 5.175781 357.414062 5.175781 Z M 357.375 5.566406 C 358.625 5.566406 359.308594 7.246094 359.308594 10.371094 C 359.308594 13.496094 358.644531 15.097656 357.355469 15.097656 C 356.066406 15.097656 355.421875 13.496094 355.421875 10.390625 C 355.421875 7.226562 356.085938 5.566406 357.375 5.566406 Z M 357.375 5.566406 "/>
<path style=" stroke:none;fill-rule:nonzero;fill:rgb(0%,0%,0%);fill-opacity:1;" d="M 364.886719 5.175781 C 364.066406 5.175781 363.441406 5.429688 362.894531 5.957031 C 362.015625 6.777344 361.449219 8.496094 361.449219 10.253906 C 361.449219 11.875 361.957031 13.632812 362.660156 14.472656 C 363.207031 15.117188 363.96875 15.488281 364.828125 15.488281 C 365.589844 15.488281 366.234375 15.234375 366.78125 14.707031 C 367.640625 13.886719 368.207031 12.148438 368.207031 10.351562 C 368.207031 7.285156 366.859375 5.175781 364.886719 5.175781 Z M 364.847656 5.566406 C 366.097656 5.566406 366.78125 7.246094 366.78125 10.371094 C 366.78125 13.496094 366.117188 15.097656 364.828125 15.097656 C 363.539062 15.097656 362.894531 13.496094 362.894531 10.390625 C 362.894531 7.226562 363.558594 5.566406 364.847656 5.566406 Z M 364.847656 5.566406 "/>
<path style=" stroke:none;fill-rule:nonzero;fill:rgb(0%,0%,0%);fill-opacity:1;" d="M 372.359375 5.175781 C 371.539062 5.175781 370.914062 5.429688 370.367188 5.957031 C 369.488281 6.777344 368.921875 8.496094 368.921875 10.253906 C 368.921875 11.875 369.429688 13.632812 370.132812 14.472656 C 370.679688 15.117188 371.441406 15.488281 372.300781 15.488281 C 373.0625 15.488281 373.707031 15.234375 374.253906 14.707031 C 375.113281 13.886719 375.679688 12.148438 375.679688 10.351562 C 375.679688 7.285156 374.332031 5.175781 372.359375 5.175781 Z M 372.320312 5.566406 C 373.570312 5.566406 374.253906 7.246094 374.253906 10.371094 C 374.253906 13.496094 373.589844 15.097656 372.300781 15.097656 C 371.011719 15.097656 370.367188 13.496094 370.367188 10.390625 C 370.367188 7.226562 371.03125 5.566406 372.320312 5.566406 Z M 372.320312 5.566406 "/>
<path style=" stroke:none;fill-rule:nonzero;fill:rgb(0%,0%,0%);fill-opacity:1;" d="M 380.363281 11.425781 L 380.363281 12.382812 L 384.035156 12.382812 L 384.035156 11.425781 Z M 380.363281 11.425781 "/>
<path style=" stroke:none;fill-rule:nonzero;fill:rgb(0%,0%,0%);fill-opacity:1;" d="M 389.109375 5.175781 L 386.414062 6.523438 L 386.414062 6.738281 C 386.589844 6.660156 386.765625 6.601562 386.824219 6.582031 C 387.078125 6.464844 387.332031 6.40625 387.488281 6.40625 C 387.800781 6.40625 387.9375 6.640625 387.9375 7.109375 L 387.9375 13.886719 C 387.9375 14.375 387.820312 14.726562 387.585938 14.863281 C 387.351562 14.980469 387.136719 15.039062 386.511719 15.058594 L 386.511719 15.273438 L 390.632812 15.273438 L 390.632812 15.058594 C 389.460938 15.039062 389.226562 14.882812 389.226562 14.160156 L 389.226562 5.195312 Z M 389.109375 5.175781 "/>
<path style=" stroke:none;fill-rule:nonzero;fill:rgb(0%,0%,0%);fill-opacity:1;" d="M 394.101562 13.789062 C 393.652344 13.789062 393.28125 14.160156 393.28125 14.628906 C 393.28125 15.058594 393.652344 15.429688 394.082031 15.429688 C 394.550781 15.429688 394.921875 15.058594 394.921875 14.628906 C 394.921875 14.160156 394.550781 13.789062 394.101562 13.789062 Z M 394.101562 13.789062 "/>
<path style=" stroke:none;fill-rule:nonzero;fill:rgb(0%,0%,0%);fill-opacity:1;" d="M 400.296875 9.726562 C 401.78125 8.945312 402.289062 8.320312 402.289062 7.285156 C 402.289062 6.074219 401.214844 5.175781 399.730469 5.175781 C 398.089844 5.175781 396.878906 6.171875 396.878906 7.539062 C 396.878906 8.496094 397.171875 8.945312 398.734375 10.3125 C 397.132812 11.542969 396.800781 11.992188 396.800781 13.007812 C 396.800781 14.472656 397.972656 15.488281 399.671875 15.488281 C 401.46875 15.488281 402.601562 14.492188 402.601562 12.949219 C 402.601562 11.816406 402.09375 11.074219 400.296875 9.726562 Z M 400.023438 11.269531 C 401.117188 12.050781 401.46875 12.578125 401.46875 13.417969 C 401.46875 14.394531 400.804688 15.058594 399.828125 15.058594 C 398.695312 15.058594 397.933594 14.199219 397.933594 12.890625 C 397.933594 11.933594 398.265625 11.308594 399.125 10.605469 Z M 399.867188 9.453125 C 398.539062 8.59375 397.992188 7.910156 397.992188 7.070312 C 397.992188 6.210938 398.65625 5.585938 399.613281 5.585938 C 400.628906 5.585938 401.273438 6.25 401.273438 7.285156 C 401.273438 8.125 400.84375 8.808594 400.003906 9.375 C 399.925781 9.414062 399.925781 9.414062 399.867188 9.453125 Z M 399.867188 9.453125 "/>
<path style=" stroke:none;fill-rule:nonzero;fill:rgb(0%,0%,0%);fill-opacity:1;" d="M 409.042969 13.789062 C 408.59375 13.789062 408.222656 14.160156 408.222656 14.628906 C 408.222656 15.058594 408.59375 15.429688 409.023438 15.429688 C 409.492188 15.429688 409.863281 15.058594 409.863281 14.628906 C 409.863281 14.160156 409.492188 13.789062 409.042969 13.789062 Z M 409.042969 13.789062 "/>
<path style=" stroke:none;fill-rule:nonzero;fill:rgb(0%,0%,0%);fill-opacity:1;" d="M 417.957031 11.816406 L 416.433594 11.816406 L 416.433594 5.175781 L 415.769531 5.175781 L 411.082031 11.816406 L 411.082031 12.773438 L 415.28125 12.773438 L 415.28125 15.273438 L 416.433594 15.273438 L 416.433594 12.773438 L 417.957031 12.773438 Z M 415.261719 11.816406 L 411.6875 11.816406 L 415.261719 6.699219 Z M 415.261719 11.816406 "/>
<path style=" stroke:none;fill-rule:nonzero;fill:rgb(0%,0%,0%);fill-opacity:1;" d="M 425.078125 5.390625 L 419.550781 5.390625 L 418.671875 7.578125 L 418.925781 7.695312 C 419.570312 6.679688 419.84375 6.484375 420.664062 6.484375 L 423.90625 6.484375 L 420.957031 15.390625 L 421.914062 15.390625 L 425.078125 5.625 Z M 425.078125 5.390625 "/>
<path style=" stroke:none;fill-rule:nonzero;fill:rgb(0%,0%,0%);fill-opacity:1;" d="M 430.207031 5.175781 L 427.511719 6.523438 L 427.511719 6.738281 C 427.6875 6.660156 427.863281 6.601562 427.921875 6.582031 C 428.175781 6.464844 428.429688 6.40625 428.585938 6.40625 C 428.898438 6.40625 429.035156 6.640625 429.035156 7.109375 L 429.035156 13.886719 C 429.035156 14.375 428.917969 14.726562 428.683594 14.863281 C 428.449219 14.980469 428.234375 15.039062 427.609375 15.058594 L 427.609375 15.273438 L 431.730469 15.273438 L 431.730469 15.058594 C 430.558594 15.039062 430.324219 14.882812 430.324219 14.160156 L 430.324219 5.195312 Z M 430.207031 5.175781 "/>
<path style=" stroke:none;fill-rule:nonzero;fill:rgb(0%,0%,0%);fill-opacity:1;" d="M 440.019531 5.390625 L 434.492188 5.390625 L 433.613281 7.578125 L 433.867188 7.695312 C 434.511719 6.679688 434.785156 6.484375 435.605469 6.484375 L 438.847656 6.484375 L 435.898438 15.390625 L 436.855469 15.390625 L 440.019531 5.625 Z M 440.019531 5.390625 "/>
<path style=" stroke:none;fill-rule:nonzero;fill:rgb(0%,0%,0%);fill-opacity:1;" d="M 445.117188 11.425781 L 445.117188 12.382812 L 448.789062 12.382812 L 448.789062 11.425781 Z M 445.117188 11.425781 "/>
<path style=" stroke:none;fill-rule:nonzero;fill:rgb(0%,0%,0%);fill-opacity:1;" d="M 453.863281 5.175781 L 451.167969 6.523438 L 451.167969 6.738281 C 451.34375 6.660156 451.519531 6.601562 451.578125 6.582031 C 451.832031 6.464844 452.085938 6.40625 452.242188 6.40625 C 452.554688 6.40625 452.691406 6.640625 452.691406 7.109375 L 452.691406 13.886719 C 452.691406 14.375 452.574219 14.726562 452.339844 14.863281 C 452.105469 14.980469 451.890625 15.039062 451.265625 15.058594 L 451.265625 15.273438 L 455.386719 15.273438 L 455.386719 15.058594 C 454.214844 15.039062 453.980469 14.882812 453.980469 14.160156 L 453.980469 5.195312 Z M 453.863281 5.175781 "/>
<path style=" stroke:none;fill-rule:nonzero;fill:rgb(0%,0%,0%);fill-opacity:1;" d="M 458.851562 13.789062 C 458.402344 13.789062 458.03125 14.160156 458.03125 14.628906 C 458.03125 15.058594 458.402344 15.429688 458.832031 15.429688 C 459.300781 15.429688 459.671875 15.058594 459.671875 14.628906 C 459.671875 14.160156 459.300781 13.789062 458.851562 13.789062 Z M 458.851562 13.789062 "/>
<path style=" stroke:none;fill-rule:nonzero;fill:rgb(0%,0%,0%);fill-opacity:1;" d="M 467.375 5.058594 C 465.675781 5.195312 464.816406 5.488281 463.722656 6.25 C 462.101562 7.402344 461.222656 9.101562 461.222656 11.113281 C 461.222656 12.402344 461.632812 13.710938 462.277344 14.472656 C 462.84375 15.117188 463.644531 15.488281 464.5625 15.488281 C 466.417969 15.488281 467.707031 14.0625 467.707031 11.992188 C 467.707031 10.097656 466.613281 8.886719 464.894531 8.886719 C 464.25 8.886719 463.917969 8.984375 462.980469 9.550781 C 463.390625 7.285156 465.070312 5.683594 467.414062 5.292969 Z M 464.328125 9.570312 C 465.617188 9.570312 466.359375 10.644531 466.359375 12.5 C 466.359375 14.160156 465.773438 15.058594 464.738281 15.058594 C 463.410156 15.058594 462.609375 13.652344 462.609375 11.347656 C 462.609375 10.585938 462.726562 10.15625 463.039062 9.941406 C 463.351562 9.707031 463.800781 9.570312 464.328125 9.570312 Z M 464.328125 9.570312 "/>
<path style=" stroke:none;fill-rule:nonzero;fill:rgb(0%,0%,0%);fill-opacity:1;" d="M 473.796875 13.789062 C 473.347656 13.789062 472.976562 14.160156 472.976562 14.628906 C 472.976562 15.058594 473.347656 15.429688 473.777344 15.429688 C 474.246094 15.429688 474.617188 15.058594 474.617188 14.628906 C 474.617188 14.160156 474.246094 13.789062 473.796875 13.789062 Z M 473.796875 13.789062 "/>
<path style=" stroke:none;fill-rule:nonzero;fill:rgb(0%,0%,0%);fill-opacity:1;" d="M 478.351562 6.5625 L 481.28125 6.5625 C 481.535156 6.5625 481.59375 6.523438 481.632812 6.425781 L 482.199219 5.097656 L 482.0625 5 C 481.847656 5.3125 481.691406 5.390625 481.378906 5.390625 L 478.253906 5.390625 L 476.632812 8.925781 C 476.613281 8.945312 476.613281 8.964844 476.613281 9.003906 C 476.613281 9.082031 476.671875 9.121094 476.789062 9.121094 C 477.277344 9.121094 477.863281 9.21875 478.488281 9.414062 C 480.207031 9.960938 480.988281 10.898438 480.988281 12.382812 C 480.988281 13.808594 480.070312 14.921875 478.917969 14.921875 C 478.605469 14.921875 478.351562 14.824219 477.921875 14.492188 C 477.433594 14.160156 477.082031 14.003906 476.769531 14.003906 C 476.339844 14.003906 476.125 14.179688 476.125 14.550781 C 476.125 15.117188 476.828125 15.488281 477.960938 15.488281 C 479.210938 15.488281 480.285156 15.078125 481.027344 14.316406 C 481.730469 13.652344 482.042969 12.792969 482.042969 11.660156 C 482.042969 10.585938 481.75 9.902344 481.007812 9.140625 C 480.34375 8.496094 479.503906 8.144531 477.726562 7.832031 Z M 478.351562 6.5625 "/>
<path style=" stroke:none;fill-rule:nonzero;fill:rgb(0%,0%,0%);fill-opacity:1;" d="M 489.789062 5.058594 C 488.089844 5.195312 487.230469 5.488281 486.136719 6.25 C 484.515625 7.402344 483.636719 9.101562 483.636719 11.113281 C 483.636719 12.402344 484.046875 13.710938 484.691406 14.472656 C 485.257812 15.117188 486.058594 15.488281 486.976562 15.488281 C 488.832031 15.488281 490.121094 14.0625 490.121094 11.992188 C 490.121094 10.097656 489.027344 8.886719 487.308594 8.886719 C 486.664062 8.886719 486.332031 8.984375 485.394531 9.550781 C 485.804688 7.285156 487.484375 5.683594 489.828125 5.292969 Z M 486.742188 9.570312 C 488.03125 9.570312 488.773438 10.644531 488.773438 12.5 C 488.773438 14.160156 488.1875 15.058594 487.152344 15.058594 C 485.824219 15.058594 485.023438 13.652344 485.023438 11.347656 C 485.023438 10.585938 485.140625 10.15625 485.453125 9.941406 C 485.765625 9.707031 486.214844 9.570312 486.742188 9.570312 Z M 486.742188 9.570312 "/>
<path style=" stroke:none;fill-rule:nonzero;fill:rgb(0%,0%,0%);fill-opacity:1;" d="M 494.957031 5.175781 L 492.261719 6.523438 L 492.261719 6.738281 C 492.4375 6.660156 492.613281 6.601562 492.671875 6.582031 C 492.925781 6.464844 493.179688 6.40625 493.335938 6.40625 C 493.648438 6.40625 493.785156 6.640625 493.785156 7.109375 L 493.785156 13.886719 C 493.785156 14.375 493.667969 14.726562 493.433594 14.863281 C 493.199219 14.980469 492.984375 15.039062 492.359375 15.058594 L 492.359375 15.273438 L 496.480469 15.273438 L 496.480469 15.058594 C 495.308594 15.039062 495.074219 14.882812 495.074219 14.160156 L 495.074219 5.195312 Z M 494.957031 5.175781 "/>
<path style=" stroke:none;fill-rule:nonzero;fill:rgb(0%,0%,0%);fill-opacity:1;" d="M 502.410156 9.726562 C 503.894531 8.945312 504.402344 8.320312 504.402344 7.285156 C 504.402344 6.074219 503.328125 5.175781 501.84375 5.175781 C 500.203125 5.175781 498.992188 6.171875 498.992188 7.539062 C 498.992188 8.496094 499.285156 8.945312 500.847656 10.3125 C 499.246094 11.542969 498.914062 11.992188 498.914062 13.007812 C 498.914062 14.472656 500.085938 15.488281 501.785156 15.488281 C 503.582031 15.488281 504.714844 14.492188 504.714844 12.949219 C 504.714844 11.816406 504.207031 11.074219 502.410156 9.726562 Z M 502.136719 11.269531 C 503.230469 12.050781 503.582031 12.578125 503.582031 13.417969 C 503.582031 14.394531 502.917969 15.058594 501.941406 15.058594 C 500.808594 15.058594 500.046875 14.199219 500.046875 12.890625 C 500.046875 11.933594 500.378906 11.308594 501.238281 10.605469 Z M 501.980469 9.453125 C 500.652344 8.59375 500.105469 7.910156 500.105469 7.070312 C 500.105469 6.210938 500.769531 5.585938 501.726562 5.585938 C 502.742188 5.585938 503.386719 6.25 503.386719 7.285156 C 503.386719 8.125 502.957031 8.808594 502.117188 9.375 C 502.039062 9.414062 502.039062 9.414062 501.980469 9.453125 Z M 501.980469 9.453125 "/>
<path style=" stroke:none;fill-rule:nonzero;fill:rgb(0%,0%,0%);fill-opacity:1;" d="M 509.867188 11.425781 L 509.867188 12.382812 L 513.539062 12.382812 L 513.539062 11.425781 Z M 509.867188 11.425781 "/>
<path style=" stroke:none;fill-rule:nonzero;fill:rgb(0%,0%,0%);fill-opacity:1;" d="M 518.613281 5.175781 L 515.917969 6.523438 L 515.917969 6.738281 C 516.09375 6.660156 516.269531 6.601562 516.328125 6.582031 C 516.582031 6.464844 516.835938 6.40625 516.992188 6.40625 C 517.304688 6.40625 517.441406 6.640625 517.441406 7.109375 L 517.441406 13.886719 C 517.441406 14.375 517.324219 14.726562 517.089844 14.863281 C 516.855469 14.980469 516.640625 15.039062 516.015625 15.058594 L 516.015625 15.273438 L 520.136719 15.273438 L 520.136719 15.058594 C 518.964844 15.039062 518.730469 14.882812 518.730469 14.160156 L 518.730469 5.195312 Z M 518.613281 5.175781 "/>
<path style=" stroke:none;fill-rule:nonzero;fill:rgb(0%,0%,0%);fill-opacity:1;" d="M 523.605469 13.789062 C 523.15625 13.789062 522.785156 14.160156 522.785156 14.628906 C 522.785156 15.058594 523.15625 15.429688 523.585938 15.429688 C 524.054688 15.429688 524.425781 15.058594 524.425781 14.628906 C 524.425781 14.160156 524.054688 13.789062 523.605469 13.789062 Z M 523.605469 13.789062 "/>
<path style=" stroke:none;fill-rule:nonzero;fill:rgb(0%,0%,0%);fill-opacity:1;" d="M 532.515625 11.816406 L 530.992188 11.816406 L 530.992188 5.175781 L 530.328125 5.175781 L 525.640625 11.816406 L 525.640625 12.773438 L 529.839844 12.773438 L 529.839844 15.273438 L 530.992188 15.273438 L 530.992188 12.773438 L 532.515625 12.773438 Z M 529.820312 11.816406 L 526.246094 11.816406 L 529.820312 6.699219 Z M 529.820312 11.816406 "/>
<path style=" stroke:none;fill-rule:nonzero;fill:rgb(0%,0%,0%);fill-opacity:1;" d="M 538.550781 13.789062 C 538.101562 13.789062 537.730469 14.160156 537.730469 14.628906 C 537.730469 15.058594 538.101562 15.429688 538.53125 15.429688 C 539 15.429688 539.371094 15.058594 539.371094 14.628906 C 539.371094 14.160156 539 13.789062 538.550781 13.789062 Z M 538.550781 13.789062 "/>
<path style=" stroke:none;fill-rule:nonzero;fill:rgb(0%,0%,0%);fill-opacity:1;" d="M 547.070312 5.058594 C 545.371094 5.195312 544.511719 5.488281 543.417969 6.25 C 541.796875 7.402344 540.917969 9.101562 540.917969 11.113281 C 540.917969 12.402344 541.328125 13.710938 541.972656 14.472656 C 542.539062 15.117188 543.339844 15.488281 544.257812 15.488281 C 546.113281 15.488281 547.402344 14.0625 547.402344 11.992188 C 547.402344 10.097656 546.308594 8.886719 544.589844 8.886719 C 543.945312 8.886719 543.613281 8.984375 542.675781 9.550781 C 543.085938 7.285156 544.765625 5.683594 547.109375 5.292969 Z M 544.023438 9.570312 C 545.3125 9.570312 546.054688 10.644531 546.054688 12.5 C 546.054688 14.160156 545.46875 15.058594 544.433594 15.058594 C 543.105469 15.058594 542.304688 13.652344 542.304688 11.347656 C 542.304688 10.585938 542.421875 10.15625 542.734375 9.941406 C 543.046875 9.707031 543.496094 9.570312 544.023438 9.570312 Z M 544.023438 9.570312 "/>
<path style=" stroke:none;fill-rule:nonzero;fill:rgb(0%,0%,0%);fill-opacity:1;" d="M 554.582031 5.390625 L 549.054688 5.390625 L 548.175781 7.578125 L 548.429688 7.695312 C 549.074219 6.679688 549.347656 6.484375 550.167969 6.484375 L 553.410156 6.484375 L 550.460938 15.390625 L 551.417969 15.390625 L 554.582031 5.625 Z M 554.582031 5.390625 "/>
<path style=" stroke:none;fill-rule:nonzero;fill:rgb(0%,0%,0%);fill-opacity:1;" d="M 558.050781 6.5625 L 560.980469 6.5625 C 561.234375 6.5625 561.292969 6.523438 561.332031 6.425781 L 561.898438 5.097656 L 561.761719 5 C 561.546875 5.3125 561.390625 5.390625 561.078125 5.390625 L 557.953125 5.390625 L 556.332031 8.925781 C 556.3125 8.945312 556.3125 8.964844 556.3125 9.003906 C 556.3125 9.082031 556.371094 9.121094 556.488281 9.121094 C 556.976562 9.121094 557.5625 9.21875 558.1875 9.414062 C 559.90625 9.960938 560.6875 10.898438 560.6875 12.382812 C 560.6875 13.808594 559.769531 14.921875 558.617188 14.921875 C 558.304688 14.921875 558.050781 14.824219 557.621094 14.492188 C 557.132812 14.160156 556.78125 14.003906 556.46875 14.003906 C 556.039062 14.003906 555.824219 14.179688 555.824219 14.550781 C 555.824219 15.117188 556.527344 15.488281 557.660156 15.488281 C 558.910156 15.488281 559.984375 15.078125 560.726562 14.316406 C 561.429688 13.652344 561.742188 12.792969 561.742188 11.660156 C 561.742188 10.585938 561.449219 9.902344 560.707031 9.140625 C 560.042969 8.496094 559.203125 8.144531 557.425781 7.832031 Z M 558.050781 6.5625 "/>
<path style=" stroke:none;fill-rule:nonzero;fill:rgb(0%,0%,0%);fill-opacity:1;" d="M 569.527344 5.390625 L 564 5.390625 L 563.121094 7.578125 L 563.375 7.695312 C 564.019531 6.679688 564.292969 6.484375 565.113281 6.484375 L 568.355469 6.484375 L 565.40625 15.390625 L 566.363281 15.390625 L 569.527344 5.625 Z M 569.527344 5.390625 "/>
<path style=" stroke:none;fill-rule:nonzero;fill:rgb(0%,0%,0%);fill-opacity:1;" d="M 574.621094 11.425781 L 574.621094 12.382812 L 578.292969 12.382812 L 578.292969 11.425781 Z M 574.621094 11.425781 "/>
<path style=" stroke:none;fill-rule:nonzero;fill:rgb(0%,0%,0%);fill-opacity:1;" d="M 583.367188 5.175781 L 580.671875 6.523438 L 580.671875 6.738281 C 580.847656 6.660156 581.023438 6.601562 581.082031 6.582031 C 581.335938 6.464844 581.589844 6.40625 581.746094 6.40625 C 582.058594 6.40625 582.195312 6.640625 582.195312 7.109375 L 582.195312 13.886719 C 582.195312 14.375 582.078125 14.726562 581.84375 14.863281 C 581.609375 14.980469 581.394531 15.039062 580.769531 15.058594 L 580.769531 15.273438 L 584.890625 15.273438 L 584.890625 15.058594 C 583.71875 15.039062 583.484375 14.882812 583.484375 14.160156 L 583.484375 5.195312 Z M 583.367188 5.175781 "/>
<path style=" stroke:none;fill-rule:nonzero;fill:rgb(0%,0%,0%);fill-opacity:1;" d="M 588.359375 13.789062 C 587.910156 13.789062 587.539062 14.160156 587.539062 14.628906 C 587.539062 15.058594 587.910156 15.429688 588.339844 15.429688 C 588.808594 15.429688 589.179688 15.058594 589.179688 14.628906 C 589.179688 14.160156 588.808594 13.789062 588.359375 13.789062 Z M 588.359375 13.789062 "/>
<path style=" stroke:none;fill-rule:nonzero;fill:rgb(0%,0%,0%);fill-opacity:1;" d="M 597.308594 13.222656 L 597.113281 13.144531 C 596.566406 14.003906 596.371094 14.140625 595.707031 14.140625 L 592.132812 14.140625 L 594.632812 11.503906 C 595.980469 10.117188 596.546875 8.984375 596.546875 7.8125 C 596.546875 6.328125 595.335938 5.175781 593.792969 5.175781 C 592.972656 5.175781 592.191406 5.507812 591.644531 6.09375 C 591.15625 6.601562 590.941406 7.089844 590.6875 8.144531 L 591 8.222656 C 591.585938 6.757812 592.132812 6.269531 593.167969 6.269531 C 594.417969 6.269531 595.277344 7.128906 595.277344 8.378906 C 595.277344 9.550781 594.574219 10.9375 593.324219 12.265625 L 590.667969 15.097656 L 590.667969 15.273438 L 596.488281 15.273438 Z M 597.308594 13.222656 "/>
<path style=" stroke:none;fill-rule:nonzero;fill:rgb(0%,0%,0%);fill-opacity:1;" d="M 603.300781 13.789062 C 602.851562 13.789062 602.480469 14.160156 602.480469 14.628906 C 602.480469 15.058594 602.851562 15.429688 603.28125 15.429688 C 603.75 15.429688 604.121094 15.058594 604.121094 14.628906 C 604.121094 14.160156 603.75 13.789062 603.300781 13.789062 Z M 603.300781 13.789062 "/>
<path style=" stroke:none;fill-rule:nonzero;fill:rgb(0%,0%,0%);fill-opacity:1;" d="M 609.5 9.726562 C 610.984375 8.945312 611.492188 8.320312 611.492188 7.285156 C 611.492188 6.074219 610.417969 5.175781 608.933594 5.175781 C 607.292969 5.175781 606.082031 6.171875 606.082031 7.539062 C 606.082031 8.496094 606.375 8.945312 607.9375 10.3125 C 606.335938 11.542969 606.003906 11.992188 606.003906 13.007812 C 606.003906 14.472656 607.175781 15.488281 608.875 15.488281 C 610.671875 15.488281 611.804688 14.492188 611.804688 12.949219 C 611.804688 11.816406 611.296875 11.074219 609.5 9.726562 Z M 609.226562 11.269531 C 610.320312 12.050781 610.671875 12.578125 610.671875 13.417969 C 610.671875 14.394531 610.007812 15.058594 609.03125 15.058594 C 607.898438 15.058594 607.136719 14.199219 607.136719 12.890625 C 607.136719 11.933594 607.46875 11.308594 608.328125 10.605469 Z M 609.070312 9.453125 C 607.742188 8.59375 607.195312 7.910156 607.195312 7.070312 C 607.195312 6.210938 607.859375 5.585938 608.816406 5.585938 C 609.832031 5.585938 610.476562 6.25 610.476562 7.285156 C 610.476562 8.125 610.046875 8.808594 609.207031 9.375 C 609.128906 9.414062 609.128906 9.414062 609.070312 9.453125 Z M 609.070312 9.453125 "/>
<path style=" stroke:none;fill-rule:nonzero;fill:rgb(0%,0%,0%);fill-opacity:1;" d="M 616.992188 5.175781 L 614.296875 6.523438 L 614.296875 6.738281 C 614.472656 6.660156 614.648438 6.601562 614.707031 6.582031 C 614.960938 6.464844 615.214844 6.40625 615.371094 6.40625 C 615.683594 6.40625 615.820312 6.640625 615.820312 7.109375 L 615.820312 13.886719 C 615.820312 14.375 615.703125 14.726562 615.46875 14.863281 C 615.234375 14.980469 615.019531 15.039062 614.394531 15.058594 L 614.394531 15.273438 L 618.515625 15.273438 L 618.515625 15.058594 C 617.34375 15.039062 617.109375 14.882812 617.109375 14.160156 L 617.109375 5.195312 Z M 616.992188 5.175781 "/>
<path style=" stroke:none;fill-rule:nonzero;fill:rgb(0%,0%,0%);fill-opacity:1;" d="M 620.984375 15.605469 C 622.664062 15.410156 623.484375 15.117188 624.5 14.394531 C 626.042969 13.261719 626.960938 11.40625 626.960938 9.394531 C 626.960938 6.914062 625.59375 5.175781 623.660156 5.175781 C 621.882812 5.175781 620.554688 6.679688 620.554688 8.691406 C 620.554688 10.527344 621.628906 11.738281 623.25 11.738281 C 624.070312 11.738281 624.695312 11.484375 625.476562 10.878906 C 624.871094 13.320312 623.210938 14.921875 620.945312 15.3125 Z M 625.515625 9.960938 C 625.515625 10.273438 625.457031 10.410156 625.28125 10.527344 C 624.871094 10.898438 624.324219 11.09375 623.777344 11.09375 C 622.644531 11.09375 621.921875 9.960938 621.921875 8.183594 C 621.921875 7.34375 622.175781 6.445312 622.488281 6.054688 C 622.742188 5.761719 623.113281 5.585938 623.542969 5.585938 C 624.851562 5.585938 625.515625 6.875 625.515625 9.394531 Z M 625.515625 9.960938 "/>
<path style=" stroke:none;fill-rule:nonzero;fill:rgb(0%,0%,0%);fill-opacity:1;" d="M 634.277344 5.390625 L 628.75 5.390625 L 627.871094 7.578125 L 628.125 7.695312 C 628.769531 6.679688 629.042969 6.484375 629.863281 6.484375 L 633.105469 6.484375 L 630.15625 15.390625 L 631.113281 15.390625 L 634.277344 5.625 Z M 634.277344 5.390625 "/>
<path style=" stroke:none;fill-rule:nonzero;fill:rgb(0%,0%,0%);fill-opacity:1;" d="M 639.371094 11.425781 L 639.371094 12.382812 L 643.042969 12.382812 L 643.042969 11.425781 Z M 639.371094 11.425781 "/>
<path style=" stroke:none;fill-rule:nonzero;fill:rgb(0%,0%,0%);fill-opacity:1;" d="M 648.117188 5.175781 L 645.421875 6.523438 L 645.421875 6.738281 C 645.597656 6.660156 645.773438 6.601562 645.832031 6.582031 C 646.085938 6.464844 646.339844 6.40625 646.496094 6.40625 C 646.808594 6.40625 646.945312 6.640625 646.945312 7.109375 L 646.945312 13.886719 C 646.945312 14.375 646.828125 14.726562 646.59375 14.863281 C 646.359375 14.980469 646.144531 15.039062 645.519531 15.058594 L 645.519531 15.273438 L 649.640625 15.273438 L 649.640625 15.058594 C 648.46875 15.039062 648.234375 14.882812 648.234375 14.160156 L 648.234375 5.195312 Z M 648.117188 5.175781 "/>
<path style=" stroke:none;fill-rule:nonzero;fill:rgb(0%,0%,0%);fill-opacity:1;" d="M 653.109375 13.789062 C 652.660156 13.789062 652.289062 14.160156 652.289062 14.628906 C 652.289062 15.058594 652.660156 15.429688 653.089844 15.429688 C 653.558594 15.429688 653.929688 15.058594 653.929688 14.628906 C 653.929688 14.160156 653.558594 13.789062 653.109375 13.789062 Z M 653.109375 13.789062 "/>
<path style=" stroke:none;fill-rule:nonzero;fill:rgb(0%,0%,0%);fill-opacity:1;" d="M 663.960938 5.175781 L 661.265625 6.523438 L 661.265625 6.738281 C 661.441406 6.660156 661.617188 6.601562 661.675781 6.582031 C 661.929688 6.464844 662.183594 6.40625 662.339844 6.40625 C 662.652344 6.40625 662.789062 6.640625 662.789062 7.109375 L 662.789062 13.886719 C 662.789062 14.375 662.671875 14.726562 662.4375 14.863281 C 662.203125 14.980469 661.988281 15.039062 661.363281 15.058594 L 661.363281 15.273438 L 665.484375 15.273438 L 665.484375 15.058594 C 664.3125 15.039062 664.078125 14.882812 664.078125 14.160156 L 664.078125 5.195312 Z M 663.960938 5.175781 "/>
<path style=" stroke:none;fill-rule:nonzero;fill:rgb(0%,0%,0%);fill-opacity:1;" d="M 668.949219 13.789062 C 668.5 13.789062 668.128906 14.160156 668.128906 14.628906 C 668.128906 15.058594 668.5 15.429688 668.929688 15.429688 C 669.398438 15.429688 669.769531 15.058594 669.769531 14.628906 C 669.769531 14.160156 669.398438 13.789062 668.949219 13.789062 Z M 668.949219 13.789062 "/>
</g>
</svg>
