<?xml version="1.0" encoding="UTF-8"?>
<svg xmlns="http://www.w3.org/2000/svg" xmlns:xlink="http://www.w3.org/1999/xlink" width="671.88235pt" height="20.605469pt" viewBox="0 0 671.88235 20.605469" version="1.1">
<g id="surface749">
<path style=" stroke:none;fill-rule:nonzero;fill:rgb(0%,0%,0%);fill-opacity:1;" d="M 8.4375 5.175781 C 7.617188 5.175781 6.992188 5.429688 6.445312 5.957031 C 5.566406 6.777344 5 8.496094 5 10.253906 C 5 11.875 5.507812 13.632812 6.210938 14.472656 C 6.757812 15.117188 7.519531 15.488281 8.378906 15.488281 C 9.140625 15.488281 9.785156 15.234375 10.332031 14.707031 C 11.191406 13.886719 11.757812 12.148438 11.757812 10.351562 C 11.757812 7.285156 10.410156 5.175781 8.4375 5.175781 Z M 8.398438 5.566406 C 9.648438 5.566406 10.332031 7.246094 10.332031 10.371094 C 10.332031 13.496094 9.667969 15.097656 8.378906 15.097656 C 7.089844 15.097656 6.445312 13.496094 6.445312 10.390625 C 6.445312 7.226562 7.109375 5.566406 8.398438 5.566406 Z M 8.398438 5.566406 "/>
<path style=" stroke:none;fill-rule:nonzero;fill:rgb(0%,0%,0%);fill-opacity:1;" d="M 19.644531 5.175781 C 18.824219 5.175781 18.199219 5.429688 17.652344 5.957031 C 16.773438 6.777344 16.207031 8.496094 16.207031 10.253906 C 16.207031 11.875 16.714844 13.632812 17.417969 14.472656 C 17.964844 15.117188 18.726562 15.488281 19.585938 15.488281 C 20.347656 15.488281 20.992188 15.234375 21.539062 14.707031 C 22.398438 13.886719 22.964844 12.148438 22.964844 10.351562 C 22.964844 7.285156 21.617188 5.175781 19.644531 5.175781 Z M 19.605469 5.566406 C 20.855469 5.566406 21.539062 7.246094 21.539062 10.371094 C 21.539062 13.496094 20.875 15.097656 19.585938 15.097656 C 18.296875 15.097656 17.652344 13.496094 17.652344 10.390625 C 17.652344 7.226562 18.316406 5.566406 19.605469 5.566406 Z M 19.605469 5.566406 "/>
<path style=" stroke:none;fill-rule:nonzero;fill:rgb(0%,0%,0%);fill-opacity:1;" d="M 28.9375 13.789062 C 28.488281 13.789062 28.117188 14.160156 28.117188 14.628906 C 28.117188 15.058594 28.488281 15.429688 28.917969 15.429688 C 29.386719 15.429688 29.757812 15.058594 29.757812 14.628906 C 29.757812 14.160156 29.386719 13.789062 28.9375 13.789062 Z M 28.9375 13.789062 "/>
<path style=" stroke:none;fill-rule:nonzero;fill:rgb(0%,0%,0%);fill-opacity:1;" d="M 37.890625 13.222656 L 37.695312 13.144531 C 37.148438 14.003906 36.953125 14.140625 36.289062 14.140625 L 32.714844 14.140625 L 35.214844 11.503906 C 36.5625 10.117188 37.128906 8.984375 37.128906 7.8125 C 37.128906 6.328125 35.917969 5.175781 34.375 5.175781 C 33.554688 5.175781 32.773438 5.507812 32.226562 6.09375 C 31.738281 6.601562 31.523438 7.089844 31.269531 8.144531 L 31.582031 8.222656 C 32.167969 6.757812 32.714844 6.269531 33.75 6.269531 C 35 6.269531 35.859375 7.128906 35.859375 8.378906 C 35.859375 9.550781 35.15625 10.9375 33.90625 12.265625 L 31.25 15.097656 L 31.25 15.273438 L 37.070312 15.273438 Z M 37.890625 13.222656 "/>
<path style=" stroke:none;fill-rule:nonzero;fill:rgb(0%,0%,0%);fill-opacity:1;" d="M 42.0625 5.175781 C 41.242188 5.175781 40.617188 5.429688 40.070312 5.957031 C 39.191406 6.777344 38.625 8.496094 38.625 10.253906 C 38.625 11.875 39.132812 13.632812 39.835938 14.472656 C 40.382812 15.117188 41.144531 15.488281 42.003906 15.488281 C 42.765625 15.488281 43.410156 15.234375 43.957031 14.707031 C 44.816406 13.886719 45.382812 12.148438 45.382812 10.351562 C 45.382812 7.285156 44.035156 5.175781 42.0625 5.175781 Z M 42.023438 5.566406 C 43.273438 5.566406 43.957031 7.246094 43.957031 10.371094 C 43.957031 13.496094 43.292969 15.097656 42.003906 15.097656 C 40.714844 15.097656 40.070312 13.496094 40.070312 10.390625 C 40.070312 7.226562 40.734375 5.566406 42.023438 5.566406 Z M 42.023438 5.566406 "/>
<path style=" stroke:none;fill-rule:nonzero;fill:rgb(0%,0%,0%);fill-opacity:1;" d="M 51.355469 13.789062 C 50.90625 13.789062 50.535156 14.160156 50.535156 14.628906 C 50.535156 15.058594 50.90625 15.429688 51.335938 15.429688 C 51.804688 15.429688 52.175781 15.058594 52.175781 14.628906 C 52.175781 14.160156 51.804688 13.789062 51.355469 13.789062 Z M 51.355469 13.789062 "/>
<path style=" stroke:none;fill-rule:nonzero;fill:rgb(0%,0%,0%);fill-opacity:1;" d="M 57.570312 5.175781 L 54.875 6.523438 L 54.875 6.738281 C 55.050781 6.660156 55.226562 6.601562 55.285156 6.582031 C 55.539062 6.464844 55.792969 6.40625 55.949219 6.40625 C 56.261719 6.40625 56.398438 6.640625 56.398438 7.109375 L 56.398438 13.886719 C 56.398438 14.375 56.28125 14.726562 56.046875 14.863281 C 55.8125 14.980469 55.597656 15.039062 54.972656 15.058594 L 54.972656 15.273438 L 59.09375 15.273438 L 59.09375 15.058594 C 57.921875 15.039062 57.6875 14.882812 57.6875 14.160156 L 57.6875 5.195312 Z M 57.570312 5.175781 "/>
<path style=" stroke:none;fill-rule:nonzero;fill:rgb(0%,0%,0%);fill-opacity:1;" d="M 67.347656 5.058594 C 65.648438 5.195312 64.789062 5.488281 63.695312 6.25 C 62.074219 7.402344 61.195312 9.101562 61.195312 11.113281 C 61.195312 12.402344 61.605469 13.710938 62.25 14.472656 C 62.816406 15.117188 63.617188 15.488281 64.535156 15.488281 C 66.390625 15.488281 67.679688 14.0625 67.679688 11.992188 C 67.679688 10.097656 66.585938 8.886719 64.867188 8.886719 C 64.222656 8.886719 63.890625 8.984375 62.953125 9.550781 C 63.363281 7.285156 65.042969 5.683594 67.386719 5.292969 Z M 64.300781 9.570312 C 65.589844 9.570312 66.332031 10.644531 66.332031 12.5 C 66.332031 14.160156 65.746094 15.058594 64.710938 15.058594 C 63.382812 15.058594 62.582031 13.652344 62.582031 11.347656 C 62.582031 10.585938 62.699219 10.15625 63.011719 9.941406 C 63.324219 9.707031 63.773438 9.570312 64.300781 9.570312 Z M 64.300781 9.570312 "/>
<path style=" stroke:none;fill-rule:nonzero;fill:rgb(0%,0%,0%);fill-opacity:1;" d="M 70.445312 10.351562 C 71.324219 10.351562 71.675781 10.371094 72.027344 10.507812 C 72.964844 10.839844 73.53125 11.679688 73.53125 12.714844 C 73.53125 13.964844 72.691406 14.941406 71.578125 14.941406 C 71.1875 14.941406 70.875 14.84375 70.328125 14.472656 C 69.878906 14.21875 69.625 14.101562 69.371094 14.101562 C 69.019531 14.101562 68.804688 14.316406 68.804688 14.628906 C 68.804688 15.15625 69.449219 15.488281 70.484375 15.488281 C 71.636719 15.488281 72.828125 15.097656 73.53125 14.472656 C 74.234375 13.867188 74.605469 13.007812 74.605469 11.992188 C 74.605469 11.230469 74.371094 10.527344 73.941406 10.078125 C 73.648438 9.746094 73.355469 9.570312 72.710938 9.277344 C 73.726562 8.574219 74.097656 8.027344 74.097656 7.226562 C 74.097656 6.015625 73.160156 5.175781 71.773438 5.175781 C 71.03125 5.175781 70.367188 5.429688 69.839844 5.898438 C 69.390625 6.308594 69.15625 6.699219 68.824219 7.597656 L 69.058594 7.65625 C 69.664062 6.5625 70.347656 6.074219 71.285156 6.074219 C 72.261719 6.074219 72.925781 6.71875 72.925781 7.675781 C 72.925781 8.203125 72.710938 8.75 72.320312 9.121094 C 71.871094 9.570312 71.460938 9.785156 70.445312 10.15625 Z M 70.445312 10.351562 "/>
<path style=" stroke:none;fill-rule:nonzero;fill:rgb(0%,0%,0%);fill-opacity:1;" d="M 82.332031 5.390625 L 76.804688 5.390625 L 75.925781 7.578125 L 76.179688 7.695312 C 76.824219 6.679688 77.097656 6.484375 77.917969 6.484375 L 81.160156 6.484375 L 78.210938 15.390625 L 79.167969 15.390625 L 82.332031 5.625 Z M 82.332031 5.390625 "/>
<path style=" stroke:none;fill-rule:nonzero;fill:rgb(0%,0%,0%);fill-opacity:1;" d="M 88.714844 13.789062 C 88.265625 13.789062 87.894531 14.160156 87.894531 14.628906 C 87.894531 15.058594 88.265625 15.429688 88.695312 15.429688 C 89.164062 15.429688 89.535156 15.058594 89.535156 14.628906 C 89.535156 14.160156 89.164062 13.789062 88.714844 13.789062 Z M 88.714844 13.789062 "/>
<path style=" stroke:none;fill-rule:nonzero;fill:rgb(0%,0%,0%);fill-opacity:1;" d="M 97.628906 11.816406 L 96.105469 11.816406 L 96.105469 5.175781 L 95.441406 5.175781 L 90.753906 11.816406 L 90.753906 12.773438 L 94.953125 12.773438 L 94.953125 15.273438 L 96.105469 15.273438 L 96.105469 12.773438 L 97.628906 12.773438 Z M 94.933594 11.816406 L 91.359375 11.816406 L 94.933594 6.699219 Z M 94.933594 11.816406 "/>
<path style=" stroke:none;fill-rule:nonzero;fill:rgb(0%,0%,0%);fill-opacity:1;" d="M 101.835938 5.175781 C 101.015625 5.175781 100.390625 5.429688 99.84375 5.957031 C 98.964844 6.777344 98.398438 8.496094 98.398438 10.253906 C 98.398438 11.875 98.90625 13.632812 99.609375 14.472656 C 100.15625 15.117188 100.917969 15.488281 101.777344 15.488281 C 102.539062 15.488281 103.183594 15.234375 103.730469 14.707031 C 104.589844 13.886719 105.15625 12.148438 105.15625 10.351562 C 105.15625 7.285156 103.808594 5.175781 101.835938 5.175781 Z M 101.796875 5.566406 C 103.046875 5.566406 103.730469 7.246094 103.730469 10.371094 C 103.730469 13.496094 103.066406 15.097656 101.777344 15.097656 C 100.488281 15.097656 99.84375 13.496094 99.84375 10.390625 C 99.84375 7.226562 100.507812 5.566406 101.796875 5.566406 Z M 101.796875 5.566406 "/>
<path style=" stroke:none;fill-rule:nonzero;fill:rgb(0%,0%,0%);fill-opacity:1;" d="M 111.132812 13.789062 C 110.683594 13.789062 110.3125 14.160156 110.3125 14.628906 C 110.3125 15.058594 110.683594 15.429688 111.113281 15.429688 C 111.582031 15.429688 111.953125 15.058594 111.953125 14.628906 C 111.953125 14.160156 111.582031 13.789062 111.132812 13.789062 Z M 111.132812 13.789062 "/>
<path style=" stroke:none;fill-rule:nonzero;fill:rgb(0%,0%,0%);fill-opacity:1;" d="M 120.082031 13.222656 L 119.886719 13.144531 C 119.339844 14.003906 119.144531 14.140625 118.480469 14.140625 L 114.90625 14.140625 L 117.40625 11.503906 C 118.753906 10.117188 119.320312 8.984375 119.320312 7.8125 C 119.320312 6.328125 118.109375 5.175781 116.566406 5.175781 C 115.746094 5.175781 114.964844 5.507812 114.417969 6.09375 C 113.929688 6.601562 113.714844 7.089844 113.460938 8.144531 L 113.773438 8.222656 C 114.359375 6.757812 114.90625 6.269531 115.941406 6.269531 C 117.191406 6.269531 118.050781 7.128906 118.050781 8.378906 C 118.050781 9.550781 117.347656 10.9375 116.097656 12.265625 L 113.441406 15.097656 L 113.441406 15.273438 L 119.261719 15.273438 Z M 120.082031 13.222656 "/>
<path style=" stroke:none;fill-rule:nonzero;fill:rgb(0%,0%,0%);fill-opacity:1;" d="M 127.125 5.058594 C 125.425781 5.195312 124.566406 5.488281 123.472656 6.25 C 121.851562 7.402344 120.972656 9.101562 120.972656 11.113281 C 120.972656 12.402344 121.382812 13.710938 122.027344 14.472656 C 122.59375 15.117188 123.394531 15.488281 124.3125 15.488281 C 126.167969 15.488281 127.457031 14.0625 127.457031 11.992188 C 127.457031 10.097656 126.363281 8.886719 124.644531 8.886719 C 124 8.886719 123.667969 8.984375 122.730469 9.550781 C 123.140625 7.285156 124.820312 5.683594 127.164062 5.292969 Z M 124.078125 9.570312 C 125.367188 9.570312 126.109375 10.644531 126.109375 12.5 C 126.109375 14.160156 125.523438 15.058594 124.488281 15.058594 C 123.160156 15.058594 122.359375 13.652344 122.359375 11.347656 C 122.359375 10.585938 122.476562 10.15625 122.789062 9.941406 C 123.101562 9.707031 123.550781 9.570312 124.078125 9.570312 Z M 124.078125 9.570312 "/>
<path style=" stroke:none;fill-rule:nonzero;fill:rgb(0%,0%,0%);fill-opacity:1;" d="M 132.273438 9.726562 C 133.757812 8.945312 134.265625 8.320312 134.265625 7.285156 C 134.265625 6.074219 133.191406 5.175781 131.707031 5.175781 C 130.066406 5.175781 128.855469 6.171875 128.855469 7.539062 C 128.855469 8.496094 129.148438 8.945312 130.710938 10.3125 C 129.109375 11.542969 128.777344 11.992188 128.777344 13.007812 C 128.777344 14.472656 129.949219 15.488281 131.648438 15.488281 C 133.445312 15.488281 134.578125 14.492188 134.578125 12.949219 C 134.578125 11.816406 134.070312 11.074219 132.273438 9.726562 Z M 132 11.269531 C 133.09375 12.050781 133.445312 12.578125 133.445312 13.417969 C 133.445312 14.394531 132.78125 15.058594 131.804688 15.058594 C 130.671875 15.058594 129.910156 14.199219 129.910156 12.890625 C 129.910156 11.933594 130.242188 11.308594 131.101562 10.605469 Z M 131.84375 9.453125 C 130.515625 8.59375 129.96875 7.910156 129.96875 7.070312 C 129.96875 6.210938 130.632812 5.585938 131.589844 5.585938 C 132.605469 5.585938 133.25 6.25 133.25 7.285156 C 133.25 8.125 132.820312 8.808594 131.980469 9.375 C 131.902344 9.414062 131.902344 9.414062 131.84375 9.453125 Z M 131.84375 9.453125 "/>
<path style=" stroke:none;fill-rule:nonzero;fill:rgb(0%,0%,0%);fill-opacity:1;" d="M 139.765625 5.175781 L 137.070312 6.523438 L 137.070312 6.738281 C 137.246094 6.660156 137.421875 6.601562 137.480469 6.582031 C 137.734375 6.464844 137.988281 6.40625 138.144531 6.40625 C 138.457031 6.40625 138.59375 6.640625 138.59375 7.109375 L 138.59375 13.886719 C 138.59375 14.375 138.476562 14.726562 138.242188 14.863281 C 138.007812 14.980469 137.792969 15.039062 137.167969 15.058594 L 137.167969 15.273438 L 141.289062 15.273438 L 141.289062 15.058594 C 140.117188 15.039062 139.882812 14.882812 139.882812 14.160156 L 139.882812 5.195312 Z M 139.765625 5.175781 "/>
<path style=" stroke:none;fill-rule:nonzero;fill:rgb(0%,0%,0%);fill-opacity:1;" d="M 148.492188 13.789062 C 148.042969 13.789062 147.671875 14.160156 147.671875 14.628906 C 147.671875 15.058594 148.042969 15.429688 148.472656 15.429688 C 148.941406 15.429688 149.3125 15.058594 149.3125 14.628906 C 149.3125 14.160156 148.941406 13.789062 148.492188 13.789062 Z M 148.492188 13.789062 "/>
<path style=" stroke:none;fill-rule:nonzero;fill:rgb(0%,0%,0%);fill-opacity:1;" d="M 157.011719 5.058594 C 155.3125 5.195312 154.453125 5.488281 153.359375 6.25 C 151.738281 7.402344 150.859375 9.101562 150.859375 11.113281 C 150.859375 12.402344 151.269531 13.710938 151.914062 14.472656 C 152.480469 15.117188 153.28125 15.488281 154.199219 15.488281 C 156.054688 15.488281 157.34375 14.0625 157.34375 11.992188 C 157.34375 10.097656 156.25 8.886719 154.53125 8.886719 C 153.886719 8.886719 153.554688 8.984375 152.617188 9.550781 C 153.027344 7.285156 154.707031 5.683594 157.050781 5.292969 Z M 153.964844 9.570312 C 155.253906 9.570312 155.996094 10.644531 155.996094 12.5 C 155.996094 14.160156 155.410156 15.058594 154.375 15.058594 C 153.046875 15.058594 152.246094 13.652344 152.246094 11.347656 C 152.246094 10.585938 152.363281 10.15625 152.675781 9.941406 C 152.988281 9.707031 153.4375 9.570312 153.964844 9.570312 Z M 153.964844 9.570312 "/>
<path style=" stroke:none;fill-rule:nonzero;fill:rgb(0%,0%,0%);fill-opacity:1;" d="M 161.613281 5.175781 C 160.792969 5.175781 160.167969 5.429688 159.621094 5.957031 C 158.742188 6.777344 158.175781 8.496094 158.175781 10.253906 C 158.175781 11.875 158.683594 13.632812 159.386719 14.472656 C 159.933594 15.117188 160.695312 15.488281 161.554688 15.488281 C 162.316406 15.488281 162.960938 15.234375 163.507812 14.707031 C 164.367188 13.886719 164.933594 12.148438 164.933594 10.351562 C 164.933594 7.285156 163.585938 5.175781 161.613281 5.175781 Z M 161.574219 5.566406 C 162.824219 5.566406 163.507812 7.246094 163.507812 10.371094 C 163.507812 13.496094 162.84375 15.097656 161.554688 15.097656 C 160.265625 15.097656 159.621094 13.496094 159.621094 10.390625 C 159.621094 7.226562 160.285156 5.566406 161.574219 5.566406 Z M 161.574219 5.566406 "/>
<path style=" stroke:none;fill-rule:nonzero;fill:rgb(0%,0%,0%);fill-opacity:1;" d="M 170.90625 13.789062 C 170.457031 13.789062 170.085938 14.160156 170.085938 14.628906 C 170.085938 15.058594 170.457031 15.429688 170.886719 15.429688 C 171.355469 15.429688 171.726562 15.058594 171.726562 14.628906 C 171.726562 14.160156 171.355469 13.789062 170.90625 13.789062 Z M 170.90625 13.789062 "/>
<path style=" stroke:none;fill-rule:nonzero;fill:rgb(0%,0%,0%);fill-opacity:1;" d="M 175.054688 10.351562 C 175.933594 10.351562 176.285156 10.371094 176.636719 10.507812 C 177.574219 10.839844 178.140625 11.679688 178.140625 12.714844 C 178.140625 13.964844 177.300781 14.941406 176.1875 14.941406 C 175.796875 14.941406 175.484375 14.84375 174.9375 14.472656 C 174.488281 14.21875 174.234375 14.101562 173.980469 14.101562 C 173.628906 14.101562 173.414062 14.316406 173.414062 14.628906 C 173.414062 15.15625 174.058594 15.488281 175.09375 15.488281 C 176.246094 15.488281 177.4375 15.097656 178.140625 14.472656 C 178.84375 13.867188 179.214844 13.007812 179.214844 11.992188 C 179.214844 11.230469 178.980469 10.527344 178.550781 10.078125 C 178.257812 9.746094 177.964844 9.570312 177.320312 9.277344 C 178.335938 8.574219 178.707031 8.027344 178.707031 7.226562 C 178.707031 6.015625 177.769531 5.175781 176.382812 5.175781 C 175.640625 5.175781 174.976562 5.429688 174.449219 5.898438 C 174 6.308594 173.765625 6.699219 173.433594 7.597656 L 173.667969 7.65625 C 174.273438 6.5625 174.957031 6.074219 175.894531 6.074219 C 176.871094 6.074219 177.535156 6.71875 177.535156 7.675781 C 177.535156 8.203125 177.320312 8.75 176.929688 9.121094 C 176.480469 9.570312 176.070312 9.785156 175.054688 10.15625 Z M 175.054688 10.351562 "/>
<path style=" stroke:none;fill-rule:nonzero;fill:rgb(0%,0%,0%);fill-opacity:1;" d="M 187.332031 13.222656 L 187.136719 13.144531 C 186.589844 14.003906 186.394531 14.140625 185.730469 14.140625 L 182.15625 14.140625 L 184.65625 11.503906 C 186.003906 10.117188 186.570312 8.984375 186.570312 7.8125 C 186.570312 6.328125 185.359375 5.175781 183.816406 5.175781 C 182.996094 5.175781 182.214844 5.507812 181.667969 6.09375 C 181.179688 6.601562 180.964844 7.089844 180.710938 8.144531 L 181.023438 8.222656 C 181.609375 6.757812 182.15625 6.269531 183.191406 6.269531 C 184.441406 6.269531 185.300781 7.128906 185.300781 8.378906 C 185.300781 9.550781 184.597656 10.9375 183.347656 12.265625 L 180.691406 15.097656 L 180.691406 15.273438 L 186.511719 15.273438 Z M 187.332031 13.222656 "/>
<path style=" stroke:none;fill-rule:nonzero;fill:rgb(0%,0%,0%);fill-opacity:1;" d="M 188.589844 15.605469 C 190.269531 15.410156 191.089844 15.117188 192.105469 14.394531 C 193.648438 13.261719 194.566406 11.40625 194.566406 9.394531 C 194.566406 6.914062 193.199219 5.175781 191.265625 5.175781 C 189.488281 5.175781 188.160156 6.679688 188.160156 8.691406 C 188.160156 10.527344 189.234375 11.738281 190.855469 11.738281 C 191.675781 11.738281 192.300781 11.484375 193.082031 10.878906 C 192.476562 13.320312 190.816406 14.921875 188.550781 15.3125 Z M 193.121094 9.960938 C 193.121094 10.273438 193.0625 10.410156 192.886719 10.527344 C 192.476562 10.898438 191.929688 11.09375 191.382812 11.09375 C 190.25 11.09375 189.527344 9.960938 189.527344 8.183594 C 189.527344 7.34375 189.78125 6.445312 190.09375 6.054688 C 190.347656 5.761719 190.71875 5.585938 191.148438 5.585938 C 192.457031 5.585938 193.121094 6.875 193.121094 9.394531 Z M 193.121094 9.960938 "/>
<path style=" stroke:none;fill-rule:nonzero;fill:rgb(0%,0%,0%);fill-opacity:1;" d="M 197.46875 10.351562 C 198.347656 10.351562 198.699219 10.371094 199.050781 10.507812 C 199.988281 10.839844 200.554688 11.679688 200.554688 12.714844 C 200.554688 13.964844 199.714844 14.941406 198.601562 14.941406 C 198.210938 14.941406 197.898438 14.84375 197.351562 14.472656 C 196.902344 14.21875 196.648438 14.101562 196.394531 14.101562 C 196.042969 14.101562 195.828125 14.316406 195.828125 14.628906 C 195.828125 15.15625 196.472656 15.488281 197.507812 15.488281 C 198.660156 15.488281 199.851562 15.097656 200.554688 14.472656 C 201.257812 13.867188 201.628906 13.007812 201.628906 11.992188 C 201.628906 11.230469 201.394531 10.527344 200.964844 10.078125 C 200.671875 9.746094 200.378906 9.570312 199.734375 9.277344 C 200.75 8.574219 201.121094 8.027344 201.121094 7.226562 C 201.121094 6.015625 200.183594 5.175781 198.796875 5.175781 C 198.054688 5.175781 197.390625 5.429688 196.863281 5.898438 C 196.414062 6.308594 196.179688 6.699219 195.847656 7.597656 L 196.082031 7.65625 C 196.6875 6.5625 197.371094 6.074219 198.308594 6.074219 C 199.285156 6.074219 199.949219 6.71875 199.949219 7.675781 C 199.949219 8.203125 199.734375 8.75 199.34375 9.121094 C 198.894531 9.570312 198.484375 9.785156 197.46875 10.15625 Z M 197.46875 10.351562 "/>
<path style=" stroke:none;fill-rule:nonzero;fill:rgb(0%,0%,0%);fill-opacity:1;" d="M 208.265625 13.789062 C 207.816406 13.789062 207.445312 14.160156 207.445312 14.628906 C 207.445312 15.058594 207.816406 15.429688 208.246094 15.429688 C 208.714844 15.429688 209.085938 15.058594 209.085938 14.628906 C 209.085938 14.160156 208.714844 13.789062 208.265625 13.789062 Z M 208.265625 13.789062 "/>
<path style=" stroke:none;fill-rule:nonzero;fill:rgb(0%,0%,0%);fill-opacity:1;" d="M 214.464844 9.726562 C 215.949219 8.945312 216.457031 8.320312 216.457031 7.285156 C 216.457031 6.074219 215.382812 5.175781 213.898438 5.175781 C 212.257812 5.175781 211.046875 6.171875 211.046875 7.539062 C 211.046875 8.496094 211.339844 8.945312 212.902344 10.3125 C 211.300781 11.542969 210.96875 11.992188 210.96875 13.007812 C 210.96875 14.472656 212.140625 15.488281 213.839844 15.488281 C 215.636719 15.488281 216.769531 14.492188 216.769531 12.949219 C 216.769531 11.816406 216.261719 11.074219 214.464844 9.726562 Z M 214.191406 11.269531 C 215.285156 12.050781 215.636719 12.578125 215.636719 13.417969 C 215.636719 14.394531 214.972656 15.058594 213.996094 15.058594 C 212.863281 15.058594 212.101562 14.199219 212.101562 12.890625 C 212.101562 11.933594 212.433594 11.308594 213.292969 10.605469 Z M 214.035156 9.453125 C 212.707031 8.59375 212.160156 7.910156 212.160156 7.070312 C 212.160156 6.210938 212.824219 5.585938 213.78125 5.585938 C 214.796875 5.585938 215.441406 6.25 215.441406 7.285156 C 215.441406 8.125 215.011719 8.808594 214.171875 9.375 C 214.09375 9.414062 214.09375 9.414062 214.035156 9.453125 Z M 214.035156 9.453125 "/>
<path style=" stroke:none;fill-rule:nonzero;fill:rgb(0%,0%,0%);fill-opacity:1;" d="M 221.390625 5.175781 C 220.570312 5.175781 219.945312 5.429688 219.398438 5.957031 C 218.519531 6.777344 217.953125 8.496094 217.953125 10.253906 C 217.953125 11.875 218.460938 13.632812 219.164062 14.472656 C 219.710938 15.117188 220.472656 15.488281 221.332031 15.488281 C 222.09375 15.488281 222.738281 15.234375 223.285156 14.707031 C 224.144531 13.886719 224.710938 12.148438 224.710938 10.351562 C 224.710938 7.285156 223.363281 5.175781 221.390625 5.175781 Z M 221.351562 5.566406 C 222.601562 5.566406 223.285156 7.246094 223.285156 10.371094 C 223.285156 13.496094 222.621094 15.097656 221.332031 15.097656 C 220.042969 15.097656 219.398438 13.496094 219.398438 10.390625 C 219.398438 7.226562 220.0625 5.566406 221.351562 5.566406 Z M 221.351562 5.566406 "/>
<path style=" stroke:none;fill-rule:nonzero;fill:rgb(0%,0%,0%);fill-opacity:1;" d="M 230.683594 13.789062 C 230.234375 13.789062 229.863281 14.160156 229.863281 14.628906 C 229.863281 15.058594 230.234375 15.429688 230.664062 15.429688 C 231.132812 15.429688 231.503906 15.058594 231.503906 14.628906 C 231.503906 14.160156 231.132812 13.789062 230.683594 13.789062 Z M 230.683594 13.789062 "/>
<path style=" stroke:none;fill-rule:nonzero;fill:rgb(0%,0%,0%);fill-opacity:1;" d="M 234.828125 10.351562 C 235.707031 10.351562 236.058594 10.371094 236.410156 10.507812 C 237.347656 10.839844 237.914062 11.679688 237.914062 12.714844 C 237.914062 13.964844 237.074219 14.941406 235.960938 14.941406 C 235.570312 14.941406 235.257812 14.84375 234.710938 14.472656 C 234.261719 14.21875 234.007812 14.101562 233.753906 14.101562 C 233.402344 14.101562 233.1875 14.316406 233.1875 14.628906 C 233.1875 15.15625 233.832031 15.488281 234.867188 15.488281 C 236.019531 15.488281 237.210938 15.097656 237.914062 14.472656 C 238.617188 13.867188 238.988281 13.007812 238.988281 11.992188 C 238.988281 11.230469 238.753906 10.527344 238.324219 10.078125 C 238.03125 9.746094 237.738281 9.570312 237.09375 9.277344 C 238.109375 8.574219 238.480469 8.027344 238.480469 7.226562 C 238.480469 6.015625 237.542969 5.175781 236.15625 5.175781 C 235.414062 5.175781 234.75 5.429688 234.222656 5.898438 C 233.773438 6.308594 233.539062 6.699219 233.207031 7.597656 L 233.441406 7.65625 C 234.046875 6.5625 234.730469 6.074219 235.667969 6.074219 C 236.644531 6.074219 237.308594 6.71875 237.308594 7.675781 C 237.308594 8.203125 237.09375 8.75 236.703125 9.121094 C 236.253906 9.570312 235.84375 9.785156 234.828125 10.15625 Z M 234.828125 10.351562 "/>
<path style=" stroke:none;fill-rule:nonzero;fill:rgb(0%,0%,0%);fill-opacity:1;" d="M 242.710938 6.5625 L 245.640625 6.5625 C 245.894531 6.5625 245.953125 6.523438 245.992188 6.425781 L 246.558594 5.097656 L 246.421875 5 C 246.207031 5.3125 246.050781 5.390625 245.738281 5.390625 L 242.613281 5.390625 L 240.992188 8.925781 C 240.972656 8.945312 240.972656 8.964844 240.972656 9.003906 C 240.972656 9.082031 241.03125 9.121094 241.148438 9.121094 C 241.636719 9.121094 242.222656 9.21875 242.847656 9.414062 C 244.566406 9.960938 245.347656 10.898438 245.347656 12.382812 C 245.347656 13.808594 244.429688 14.921875 243.277344 14.921875 C 242.964844 14.921875 242.710938 14.824219 242.28125 14.492188 C 241.792969 14.160156 241.441406 14.003906 241.128906 14.003906 C 240.699219 14.003906 240.484375 14.179688 240.484375 14.550781 C 240.484375 15.117188 241.1875 15.488281 242.320312 15.488281 C 243.570312 15.488281 244.644531 15.078125 245.386719 14.316406 C 246.089844 13.652344 246.402344 12.792969 246.402344 11.660156 C 246.402344 10.585938 246.109375 9.902344 245.367188 9.140625 C 244.703125 8.496094 243.863281 8.144531 242.085938 7.832031 Z M 242.710938 6.5625 "/>
<path style=" stroke:none;fill-rule:nonzero;fill:rgb(0%,0%,0%);fill-opacity:1;" d="M 248.367188 15.605469 C 250.046875 15.410156 250.867188 15.117188 251.882812 14.394531 C 253.425781 13.261719 254.34375 11.40625 254.34375 9.394531 C 254.34375 6.914062 252.976562 5.175781 251.042969 5.175781 C 249.265625 5.175781 247.9375 6.679688 247.9375 8.691406 C 247.9375 10.527344 249.011719 11.738281 250.632812 11.738281 C 251.453125 11.738281 252.078125 11.484375 252.859375 10.878906 C 252.253906 13.320312 250.59375 14.921875 248.328125 15.3125 Z M 252.898438 9.960938 C 252.898438 10.273438 252.839844 10.410156 252.664062 10.527344 C 252.253906 10.898438 251.707031 11.09375 251.160156 11.09375 C 250.027344 11.09375 249.304688 9.960938 249.304688 8.183594 C 249.304688 7.34375 249.558594 6.445312 249.871094 6.054688 C 250.125 5.761719 250.496094 5.585938 250.925781 5.585938 C 252.234375 5.585938 252.898438 6.875 252.898438 9.394531 Z M 252.898438 9.960938 "/>
<path style=" stroke:none;fill-rule:nonzero;fill:rgb(0%,0%,0%);fill-opacity:1;" d="M 262.011719 11.816406 L 260.488281 11.816406 L 260.488281 5.175781 L 259.824219 5.175781 L 255.136719 11.816406 L 255.136719 12.773438 L 259.335938 12.773438 L 259.335938 15.273438 L 260.488281 15.273438 L 260.488281 12.773438 L 262.011719 12.773438 Z M 259.316406 11.816406 L 255.742188 11.816406 L 259.316406 6.699219 Z M 259.316406 11.816406 "/>
<path style=" stroke:none;fill-rule:nonzero;fill:rgb(0%,0%,0%);fill-opacity:1;" d="M 270.523438 5.175781 L 267.828125 6.523438 L 267.828125 6.738281 C 268.003906 6.660156 268.179688 6.601562 268.238281 6.582031 C 268.492188 6.464844 268.746094 6.40625 268.902344 6.40625 C 269.214844 6.40625 269.351562 6.640625 269.351562 7.109375 L 269.351562 13.886719 C 269.351562 14.375 269.234375 14.726562 269 14.863281 C 268.765625 14.980469 268.550781 15.039062 267.925781 15.058594 L 267.925781 15.273438 L 272.046875 15.273438 L 272.046875 15.058594 C 270.875 15.039062 270.640625 14.882812 270.640625 14.160156 L 270.640625 5.195312 Z M 270.523438 5.175781 "/>
<path style=" stroke:none;fill-rule:nonzero;fill:rgb(0%,0%,0%);fill-opacity:1;" d="M 275.515625 13.789062 C 275.066406 13.789062 274.695312 14.160156 274.695312 14.628906 C 274.695312 15.058594 275.066406 15.429688 275.496094 15.429688 C 275.964844 15.429688 276.335938 15.058594 276.335938 14.628906 C 276.335938 14.160156 275.964844 13.789062 275.515625 13.789062 Z M 275.515625 13.789062 "/>
<path style=" stroke:none;fill-rule:nonzero;fill:rgb(0%,0%,0%);fill-opacity:1;" d="M 283.882812 13.789062 C 283.433594 13.789062 283.0625 14.160156 283.0625 14.628906 C 283.0625 15.058594 283.433594 15.429688 283.863281 15.429688 C 284.332031 15.429688 284.703125 15.058594 284.703125 14.628906 C 284.703125 14.160156 284.332031 13.789062 283.882812 13.789062 Z M 283.882812 13.789062 "/>
<path style=" stroke:none;fill-rule:nonzero;fill:rgb(0%,0%,0%);fill-opacity:1;" d="M 288.03125 10.351562 C 288.910156 10.351562 289.261719 10.371094 289.613281 10.507812 C 290.550781 10.839844 291.117188 11.679688 291.117188 12.714844 C 291.117188 13.964844 290.277344 14.941406 289.164062 14.941406 C 288.773438 14.941406 288.460938 14.84375 287.914062 14.472656 C 287.464844 14.21875 287.210938 14.101562 286.957031 14.101562 C 286.605469 14.101562 286.390625 14.316406 286.390625 14.628906 C 286.390625 15.15625 287.035156 15.488281 288.070312 15.488281 C 289.222656 15.488281 290.414062 15.097656 291.117188 14.472656 C 291.820312 13.867188 292.191406 13.007812 292.191406 11.992188 C 292.191406 11.230469 291.957031 10.527344 291.527344 10.078125 C 291.234375 9.746094 290.941406 9.570312 290.296875 9.277344 C 291.3125 8.574219 291.683594 8.027344 291.683594 7.226562 C 291.683594 6.015625 290.746094 5.175781 289.359375 5.175781 C 288.617188 5.175781 287.953125 5.429688 287.425781 5.898438 C 286.976562 6.308594 286.742188 6.699219 286.410156 7.597656 L 286.644531 7.65625 C 287.25 6.5625 287.933594 6.074219 288.871094 6.074219 C 289.847656 6.074219 290.511719 6.71875 290.511719 7.675781 C 290.511719 8.203125 290.296875 8.75 289.90625 9.121094 C 289.457031 9.570312 289.046875 9.785156 288.03125 10.15625 Z M 288.03125 10.351562 "/>
<path style=" stroke:none;fill-rule:nonzero;fill:rgb(0%,0%,0%);fill-opacity:1;" d="M 299.878906 5.058594 C 298.179688 5.195312 297.320312 5.488281 296.226562 6.25 C 294.605469 7.402344 293.726562 9.101562 293.726562 11.113281 C 293.726562 12.402344 294.136719 13.710938 294.78125 14.472656 C 295.347656 15.117188 296.148438 15.488281 297.066406 15.488281 C 298.921875 15.488281 300.210938 14.0625 300.210938 11.992188 C 300.210938 10.097656 299.117188 8.886719 297.398438 8.886719 C 296.753906 8.886719 296.421875 8.984375 295.484375 9.550781 C 295.894531 7.285156 297.574219 5.683594 299.917969 5.292969 Z M 296.832031 9.570312 C 298.121094 9.570312 298.863281 10.644531 298.863281 12.5 C 298.863281 14.160156 298.277344 15.058594 297.242188 15.058594 C 295.914062 15.058594 295.113281 13.652344 295.113281 11.347656 C 295.113281 10.585938 295.230469 10.15625 295.542969 9.941406 C 295.855469 9.707031 296.304688 9.570312 296.832031 9.570312 Z M 296.832031 9.570312 "/>
<path style=" stroke:none;fill-rule:nonzero;fill:rgb(0%,0%,0%);fill-opacity:1;" d="M 307.386719 5.390625 L 301.859375 5.390625 L 300.980469 7.578125 L 301.234375 7.695312 C 301.878906 6.679688 302.152344 6.484375 302.972656 6.484375 L 306.214844 6.484375 L 303.265625 15.390625 L 304.222656 15.390625 L 307.386719 5.625 Z M 307.386719 5.390625 "/>
<path style=" stroke:none;fill-rule:nonzero;fill:rgb(0%,0%,0%);fill-opacity:1;" d="M 309.039062 15.605469 C 310.71875 15.410156 311.539062 15.117188 312.554688 14.394531 C 314.097656 13.261719 315.015625 11.40625 315.015625 9.394531 C 315.015625 6.914062 313.648438 5.175781 311.714844 5.175781 C 309.9375 5.175781 308.609375 6.679688 308.609375 8.691406 C 308.609375 10.527344 309.683594 11.738281 311.304688 11.738281 C 312.125 11.738281 312.75 11.484375 313.53125 10.878906 C 312.925781 13.320312 311.265625 14.921875 309 15.3125 Z M 313.570312 9.960938 C 313.570312 10.273438 313.511719 10.410156 313.335938 10.527344 C 312.925781 10.898438 312.378906 11.09375 311.832031 11.09375 C 310.699219 11.09375 309.976562 9.960938 309.976562 8.183594 C 309.976562 7.34375 310.230469 6.445312 310.542969 6.054688 C 310.796875 5.761719 311.167969 5.585938 311.597656 5.585938 C 312.90625 5.585938 313.570312 6.875 313.570312 9.394531 Z M 313.570312 9.960938 "/>
<path style=" stroke:none;fill-rule:nonzero;fill:rgb(0%,0%,0%);fill-opacity:1;" d="M 323.722656 5.175781 L 321.027344 6.523438 L 321.027344 6.738281 C 321.203125 6.660156 321.378906 6.601562 321.4375 6.582031 C 321.691406 6.464844 321.945312 6.40625 322.101562 6.40625 C 322.414062 6.40625 322.550781 6.640625 322.550781 7.109375 L 322.550781 13.886719 C 322.550781 14.375 322.433594 14.726562 322.199219 14.863281 C 321.964844 14.980469 321.75 15.039062 321.125 15.058594 L 321.125 15.273438 L 325.246094 15.273438 L 325.246094 15.058594 C 324.074219 15.039062 323.839844 14.882812 323.839844 14.160156 L 323.839844 5.195312 Z M 323.722656 5.175781 "/>
<path style=" stroke:none;fill-rule:nonzero;fill:rgb(0%,0%,0%);fill-opacity:1;" d="M 328.714844 13.789062 C 328.265625 13.789062 327.894531 14.160156 327.894531 14.628906 C 327.894531 15.058594 328.265625 15.429688 328.695312 15.429688 C 329.164062 15.429688 329.535156 15.058594 329.535156 14.628906 C 329.535156 14.160156 329.164062 13.789062 328.714844 13.789062 Z M 328.714844 13.789062 "/>
<path style=" stroke:none;fill-rule:nonzero;fill:rgb(0%,0%,0%);fill-opacity:1;" d="M 337.667969 13.222656 L 337.472656 13.144531 C 336.925781 14.003906 336.730469 14.140625 336.066406 14.140625 L 332.492188 14.140625 L 334.992188 11.503906 C 336.339844 10.117188 336.90625 8.984375 336.90625 7.8125 C 336.90625 6.328125 335.695312 5.175781 334.152344 5.175781 C 333.332031 5.175781 332.550781 5.507812 332.003906 6.09375 C 331.515625 6.601562 331.300781 7.089844 331.046875 8.144531 L 331.359375 8.222656 C 331.945312 6.757812 332.492188 6.269531 333.527344 6.269531 C 334.777344 6.269531 335.636719 7.128906 335.636719 8.378906 C 335.636719 9.550781 334.933594 10.9375 333.683594 12.265625 L 331.027344 15.097656 L 331.027344 15.273438 L 336.847656 15.273438 Z M 337.667969 13.222656 "/>
<path style=" stroke:none;fill-rule:nonzero;fill:rgb(0%,0%,0%);fill-opacity:1;" d="M 343.660156 13.789062 C 343.210938 13.789062 342.839844 14.160156 342.839844 14.628906 C 342.839844 15.058594 343.210938 15.429688 343.640625 15.429688 C 344.109375 15.429688 344.480469 15.058594 344.480469 14.628906 C 344.480469 14.160156 344.109375 13.789062 343.660156 13.789062 Z M 343.660156 13.789062 "/>
<path style=" stroke:none;fill-rule:nonzero;fill:rgb(0%,0%,0%);fill-opacity:1;" d="M 347.804688 10.351562 C 348.683594 10.351562 349.035156 10.371094 349.386719 10.507812 C 350.324219 10.839844 350.890625 11.679688 350.890625 12.714844 C 350.890625 13.964844 350.050781 14.941406 348.9375 14.941406 C 348.546875 14.941406 348.234375 14.84375 347.6875 14.472656 C 347.238281 14.21875 346.984375 14.101562 346.730469 14.101562 C 346.378906 14.101562 346.164062 14.316406 346.164062 14.628906 C 346.164062 15.15625 346.808594 15.488281 347.84375 15.488281 C 348.996094 15.488281 350.1875 15.097656 350.890625 14.472656 C 351.59375 13.867188 351.964844 13.007812 351.964844 11.992188 C 351.964844 11.230469 351.730469 10.527344 351.300781 10.078125 C 351.007812 9.746094 350.714844 9.570312 350.070312 9.277344 C 351.085938 8.574219 351.457031 8.027344 351.457031 7.226562 C 351.457031 6.015625 350.519531 5.175781 349.132812 5.175781 C 348.390625 5.175781 347.726562 5.429688 347.199219 5.898438 C 346.75 6.308594 346.515625 6.699219 346.183594 7.597656 L 346.417969 7.65625 C 347.023438 6.5625 347.707031 6.074219 348.644531 6.074219 C 349.621094 6.074219 350.285156 6.71875 350.285156 7.675781 C 350.285156 8.203125 350.070312 8.75 349.679688 9.121094 C 349.230469 9.570312 348.820312 9.785156 347.804688 10.15625 Z M 347.804688 10.351562 "/>
<path style=" stroke:none;fill-rule:nonzero;fill:rgb(0%,0%,0%);fill-opacity:1;" d="M 359.652344 5.058594 C 357.953125 5.195312 357.09375 5.488281 356 6.25 C 354.378906 7.402344 353.5 9.101562 353.5 11.113281 C 353.5 12.402344 353.910156 13.710938 354.554688 14.472656 C 355.121094 15.117188 355.921875 15.488281 356.839844 15.488281 C 358.695312 15.488281 359.984375 14.0625 359.984375 11.992188 C 359.984375 10.097656 358.890625 8.886719 357.171875 8.886719 C 356.527344 8.886719 356.195312 8.984375 355.257812 9.550781 C 355.667969 7.285156 357.347656 5.683594 359.691406 5.292969 Z M 356.605469 9.570312 C 357.894531 9.570312 358.636719 10.644531 358.636719 12.5 C 358.636719 14.160156 358.050781 15.058594 357.015625 15.058594 C 355.6875 15.058594 354.886719 13.652344 354.886719 11.347656 C 354.886719 10.585938 355.003906 10.15625 355.316406 9.941406 C 355.628906 9.707031 356.078125 9.570312 356.605469 9.570312 Z M 356.605469 9.570312 "/>
<path style=" stroke:none;fill-rule:nonzero;fill:rgb(0%,0%,0%);fill-opacity:1;" d="M 364.820312 5.175781 L 362.125 6.523438 L 362.125 6.738281 C 362.300781 6.660156 362.476562 6.601562 362.535156 6.582031 C 362.789062 6.464844 363.042969 6.40625 363.199219 6.40625 C 363.511719 6.40625 363.648438 6.640625 363.648438 7.109375 L 363.648438 13.886719 C 363.648438 14.375 363.53125 14.726562 363.296875 14.863281 C 363.0625 14.980469 362.847656 15.039062 362.222656 15.058594 L 362.222656 15.273438 L 366.34375 15.273438 L 366.34375 15.058594 C 365.171875 15.039062 364.9375 14.882812 364.9375 14.160156 L 364.9375 5.195312 Z M 364.820312 5.175781 "/>
<path style=" stroke:none;fill-rule:nonzero;fill:rgb(0%,0%,0%);fill-opacity:1;" d="M 374.988281 11.816406 L 373.464844 11.816406 L 373.464844 5.175781 L 372.800781 5.175781 L 368.113281 11.816406 L 368.113281 12.773438 L 372.3125 12.773438 L 372.3125 15.273438 L 373.464844 15.273438 L 373.464844 12.773438 L 374.988281 12.773438 Z M 372.292969 11.816406 L 368.71875 11.816406 L 372.292969 6.699219 Z M 372.292969 11.816406 "/>
<path style=" stroke:none;fill-rule:nonzero;fill:rgb(0%,0%,0%);fill-opacity:1;" d="M 383.5 5.175781 L 380.804688 6.523438 L 380.804688 6.738281 C 380.980469 6.660156 381.15625 6.601562 381.214844 6.582031 C 381.46875 6.464844 381.722656 6.40625 381.878906 6.40625 C 382.191406 6.40625 382.328125 6.640625 382.328125 7.109375 L 382.328125 13.886719 C 382.328125 14.375 382.210938 14.726562 381.976562 14.863281 C 381.742188 14.980469 381.527344 15.039062 380.902344 15.058594 L 380.902344 15.273438 L 385.023438 15.273438 L 385.023438 15.058594 C 383.851562 15.039062 383.617188 14.882812 383.617188 14.160156 L 383.617188 5.195312 Z M 383.5 5.175781 "/>
<path style=" stroke:none;fill-rule:nonzero;fill:rgb(0%,0%,0%);fill-opacity:1;" d="M 388.492188 13.789062 C 388.042969 13.789062 387.671875 14.160156 387.671875 14.628906 C 387.671875 15.058594 388.042969 15.429688 388.472656 15.429688 C 388.941406 15.429688 389.3125 15.058594 389.3125 14.628906 C 389.3125 14.160156 388.941406 13.789062 388.492188 13.789062 Z M 388.492188 13.789062 "/>
<path style=" stroke:none;fill-rule:nonzero;fill:rgb(0%,0%,0%);fill-opacity:1;" d="M 397.402344 11.816406 L 395.878906 11.816406 L 395.878906 5.175781 L 395.214844 5.175781 L 390.527344 11.816406 L 390.527344 12.773438 L 394.726562 12.773438 L 394.726562 15.273438 L 395.878906 15.273438 L 395.878906 12.773438 L 397.402344 12.773438 Z M 394.707031 11.816406 L 391.132812 11.816406 L 394.707031 6.699219 Z M 394.707031 11.816406 "/>
<path style=" stroke:none;fill-rule:nonzero;fill:rgb(0%,0%,0%);fill-opacity:1;" d="M 403.4375 13.789062 C 402.988281 13.789062 402.617188 14.160156 402.617188 14.628906 C 402.617188 15.058594 402.988281 15.429688 403.417969 15.429688 C 403.886719 15.429688 404.257812 15.058594 404.257812 14.628906 C 404.257812 14.160156 403.886719 13.789062 403.4375 13.789062 Z M 403.4375 13.789062 "/>
<path style=" stroke:none;fill-rule:nonzero;fill:rgb(0%,0%,0%);fill-opacity:1;" d="M 407.582031 10.351562 C 408.460938 10.351562 408.8125 10.371094 409.164062 10.507812 C 410.101562 10.839844 410.667969 11.679688 410.667969 12.714844 C 410.667969 13.964844 409.828125 14.941406 408.714844 14.941406 C 408.324219 14.941406 408.011719 14.84375 407.464844 14.472656 C 407.015625 14.21875 406.761719 14.101562 406.507812 14.101562 C 406.15625 14.101562 405.941406 14.316406 405.941406 14.628906 C 405.941406 15.15625 406.585938 15.488281 407.621094 15.488281 C 408.773438 15.488281 409.964844 15.097656 410.667969 14.472656 C 411.371094 13.867188 411.742188 13.007812 411.742188 11.992188 C 411.742188 11.230469 411.507812 10.527344 411.078125 10.078125 C 410.785156 9.746094 410.492188 9.570312 409.847656 9.277344 C 410.863281 8.574219 411.234375 8.027344 411.234375 7.226562 C 411.234375 6.015625 410.296875 5.175781 408.910156 5.175781 C 408.167969 5.175781 407.503906 5.429688 406.976562 5.898438 C 406.527344 6.308594 406.292969 6.699219 405.960938 7.597656 L 406.195312 7.65625 C 406.800781 6.5625 407.484375 6.074219 408.421875 6.074219 C 409.398438 6.074219 410.0625 6.71875 410.0625 7.675781 C 410.0625 8.203125 409.847656 8.75 409.457031 9.121094 C 409.007812 9.570312 408.597656 9.785156 407.582031 10.15625 Z M 407.582031 10.351562 "/>
<path style=" stroke:none;fill-rule:nonzero;fill:rgb(0%,0%,0%);fill-opacity:1;" d="M 419.820312 11.816406 L 418.296875 11.816406 L 418.296875 5.175781 L 417.632812 5.175781 L 412.945312 11.816406 L 412.945312 12.773438 L 417.144531 12.773438 L 417.144531 15.273438 L 418.296875 15.273438 L 418.296875 12.773438 L 419.820312 12.773438 Z M 417.125 11.816406 L 413.550781 11.816406 L 417.125 6.699219 Z M 417.125 11.816406 "/>
<path style=" stroke:none;fill-rule:nonzero;fill:rgb(0%,0%,0%);fill-opacity:1;" d="M 422.9375 6.5625 L 425.867188 6.5625 C 426.121094 6.5625 426.179688 6.523438 426.21875 6.425781 L 426.785156 5.097656 L 426.648438 5 C 426.433594 5.3125 426.277344 5.390625 425.964844 5.390625 L 422.839844 5.390625 L 421.21875 8.925781 C 421.199219 8.945312 421.199219 8.964844 421.199219 9.003906 C 421.199219 9.082031 421.257812 9.121094 421.375 9.121094 C 421.863281 9.121094 422.449219 9.21875 423.074219 9.414062 C 424.792969 9.960938 425.574219 10.898438 425.574219 12.382812 C 425.574219 13.808594 424.65625 14.921875 423.503906 14.921875 C 423.191406 14.921875 422.9375 14.824219 422.507812 14.492188 C 422.019531 14.160156 421.667969 14.003906 421.355469 14.003906 C 420.925781 14.003906 420.710938 14.179688 420.710938 14.550781 C 420.710938 15.117188 421.414062 15.488281 422.546875 15.488281 C 423.796875 15.488281 424.871094 15.078125 425.613281 14.316406 C 426.316406 13.652344 426.628906 12.792969 426.628906 11.660156 C 426.628906 10.585938 426.335938 9.902344 425.59375 9.140625 C 424.929688 8.496094 424.089844 8.144531 422.3125 7.832031 Z M 422.9375 6.5625 "/>
<path style=" stroke:none;fill-rule:nonzero;fill:rgb(0%,0%,0%);fill-opacity:1;" d="M 434.804688 13.222656 L 434.609375 13.144531 C 434.0625 14.003906 433.867188 14.140625 433.203125 14.140625 L 429.628906 14.140625 L 432.128906 11.503906 C 433.476562 10.117188 434.042969 8.984375 434.042969 7.8125 C 434.042969 6.328125 432.832031 5.175781 431.289062 5.175781 C 430.46875 5.175781 429.6875 5.507812 429.140625 6.09375 C 428.652344 6.601562 428.4375 7.089844 428.183594 8.144531 L 428.496094 8.222656 C 429.082031 6.757812 429.628906 6.269531 430.664062 6.269531 C 431.914062 6.269531 432.773438 7.128906 432.773438 8.378906 C 432.773438 9.550781 432.070312 10.9375 430.820312 12.265625 L 428.164062 15.097656 L 428.164062 15.273438 L 433.984375 15.273438 Z M 434.804688 13.222656 "/>
<path style=" stroke:none;fill-rule:nonzero;fill:rgb(0%,0%,0%);fill-opacity:1;" d="M 443.277344 5.175781 L 440.582031 6.523438 L 440.582031 6.738281 C 440.757812 6.660156 440.933594 6.601562 440.992188 6.582031 C 441.246094 6.464844 441.5 6.40625 441.65625 6.40625 C 441.96875 6.40625 442.105469 6.640625 442.105469 7.109375 L 442.105469 13.886719 C 442.105469 14.375 441.988281 14.726562 441.753906 14.863281 C 441.519531 14.980469 441.304688 15.039062 440.679688 15.058594 L 440.679688 15.273438 L 444.800781 15.273438 L 444.800781 15.058594 C 443.628906 15.039062 443.394531 14.882812 443.394531 14.160156 L 443.394531 5.195312 Z M 443.277344 5.175781 "/>
<path style=" stroke:none;fill-rule:nonzero;fill:rgb(0%,0%,0%);fill-opacity:1;" d="M 448.269531 13.789062 C 447.820312 13.789062 447.449219 14.160156 447.449219 14.628906 C 447.449219 15.058594 447.820312 15.429688 448.25 15.429688 C 448.71875 15.429688 449.089844 15.058594 449.089844 14.628906 C 449.089844 14.160156 448.71875 13.789062 448.269531 13.789062 Z M 448.269531 13.789062 "/>
<path style=" stroke:none;fill-rule:nonzero;fill:rgb(0%,0%,0%);fill-opacity:1;" d="M 456.789062 5.058594 C 455.089844 5.195312 454.230469 5.488281 453.136719 6.25 C 451.515625 7.402344 450.636719 9.101562 450.636719 11.113281 C 450.636719 12.402344 451.046875 13.710938 451.691406 14.472656 C 452.257812 15.117188 453.058594 15.488281 453.976562 15.488281 C 455.832031 15.488281 457.121094 14.0625 457.121094 11.992188 C 457.121094 10.097656 456.027344 8.886719 454.308594 8.886719 C 453.664062 8.886719 453.332031 8.984375 452.394531 9.550781 C 452.804688 7.285156 454.484375 5.683594 456.828125 5.292969 Z M 453.742188 9.570312 C 455.03125 9.570312 455.773438 10.644531 455.773438 12.5 C 455.773438 14.160156 455.1875 15.058594 454.152344 15.058594 C 452.824219 15.058594 452.023438 13.652344 452.023438 11.347656 C 452.023438 10.585938 452.140625 10.15625 452.453125 9.941406 C 452.765625 9.707031 453.214844 9.570312 453.742188 9.570312 Z M 453.742188 9.570312 "/>
<path style=" stroke:none;fill-rule:nonzero;fill:rgb(0%,0%,0%);fill-opacity:1;" d="M 463.210938 13.789062 C 462.761719 13.789062 462.390625 14.160156 462.390625 14.628906 C 462.390625 15.058594 462.761719 15.429688 463.191406 15.429688 C 463.660156 15.429688 464.03125 15.058594 464.03125 14.628906 C 464.03125 14.160156 463.660156 13.789062 463.210938 13.789062 Z M 463.210938 13.789062 "/>
<path style=" stroke:none;fill-rule:nonzero;fill:rgb(0%,0%,0%);fill-opacity:1;" d="M 467.359375 10.351562 C 468.238281 10.351562 468.589844 10.371094 468.941406 10.507812 C 469.878906 10.839844 470.445312 11.679688 470.445312 12.714844 C 470.445312 13.964844 469.605469 14.941406 468.492188 14.941406 C 468.101562 14.941406 467.789062 14.84375 467.242188 14.472656 C 466.792969 14.21875 466.539062 14.101562 466.285156 14.101562 C 465.933594 14.101562 465.71875 14.316406 465.71875 14.628906 C 465.71875 15.15625 466.363281 15.488281 467.398438 15.488281 C 468.550781 15.488281 469.742188 15.097656 470.445312 14.472656 C 471.148438 13.867188 471.519531 13.007812 471.519531 11.992188 C 471.519531 11.230469 471.285156 10.527344 470.855469 10.078125 C 470.5625 9.746094 470.269531 9.570312 469.625 9.277344 C 470.640625 8.574219 471.011719 8.027344 471.011719 7.226562 C 471.011719 6.015625 470.074219 5.175781 468.6875 5.175781 C 467.945312 5.175781 467.28125 5.429688 466.753906 5.898438 C 466.304688 6.308594 466.070312 6.699219 465.738281 7.597656 L 465.972656 7.65625 C 466.578125 6.5625 467.261719 6.074219 468.199219 6.074219 C 469.175781 6.074219 469.839844 6.71875 469.839844 7.675781 C 469.839844 8.203125 469.625 8.75 469.234375 9.121094 C 468.785156 9.570312 468.375 9.785156 467.359375 10.15625 Z M 467.359375 10.351562 "/>
<path style=" stroke:none;fill-rule:nonzero;fill:rgb(0%,0%,0%);fill-opacity:1;" d="M 479.636719 13.222656 L 479.441406 13.144531 C 478.894531 14.003906 478.699219 14.140625 478.035156 14.140625 L 474.460938 14.140625 L 476.960938 11.503906 C 478.308594 10.117188 478.875 8.984375 478.875 7.8125 C 478.875 6.328125 477.664062 5.175781 476.121094 5.175781 C 475.300781 5.175781 474.519531 5.507812 473.972656 6.09375 C 473.484375 6.601562 473.269531 7.089844 473.015625 8.144531 L 473.328125 8.222656 C 473.914062 6.757812 474.460938 6.269531 475.496094 6.269531 C 476.746094 6.269531 477.605469 7.128906 477.605469 8.378906 C 477.605469 9.550781 476.902344 10.9375 475.652344 12.265625 L 472.996094 15.097656 L 472.996094 15.273438 L 478.816406 15.273438 Z M 479.636719 13.222656 "/>
<path style=" stroke:none;fill-rule:nonzero;fill:rgb(0%,0%,0%);fill-opacity:1;" d="M 482.300781 10.351562 C 483.179688 10.351562 483.53125 10.371094 483.882812 10.507812 C 484.820312 10.839844 485.386719 11.679688 485.386719 12.714844 C 485.386719 13.964844 484.546875 14.941406 483.433594 14.941406 C 483.042969 14.941406 482.730469 14.84375 482.183594 14.472656 C 481.734375 14.21875 481.480469 14.101562 481.226562 14.101562 C 480.875 14.101562 480.660156 14.316406 480.660156 14.628906 C 480.660156 15.15625 481.304688 15.488281 482.339844 15.488281 C 483.492188 15.488281 484.683594 15.097656 485.386719 14.472656 C 486.089844 13.867188 486.460938 13.007812 486.460938 11.992188 C 486.460938 11.230469 486.226562 10.527344 485.796875 10.078125 C 485.503906 9.746094 485.210938 9.570312 484.566406 9.277344 C 485.582031 8.574219 485.953125 8.027344 485.953125 7.226562 C 485.953125 6.015625 485.015625 5.175781 483.628906 5.175781 C 482.886719 5.175781 482.222656 5.429688 481.695312 5.898438 C 481.246094 6.308594 481.011719 6.699219 480.679688 7.597656 L 480.914062 7.65625 C 481.519531 6.5625 482.203125 6.074219 483.140625 6.074219 C 484.117188 6.074219 484.78125 6.71875 484.78125 7.675781 C 484.78125 8.203125 484.566406 8.75 484.175781 9.121094 C 483.726562 9.570312 483.316406 9.785156 482.300781 10.15625 Z M 482.300781 10.351562 "/>
<path style=" stroke:none;fill-rule:nonzero;fill:rgb(0%,0%,0%);fill-opacity:1;" d="M 491.277344 5.175781 C 490.457031 5.175781 489.832031 5.429688 489.285156 5.957031 C 488.40625 6.777344 487.839844 8.496094 487.839844 10.253906 C 487.839844 11.875 488.347656 13.632812 489.050781 14.472656 C 489.597656 15.117188 490.359375 15.488281 491.21875 15.488281 C 491.980469 15.488281 492.625 15.234375 493.171875 14.707031 C 494.03125 13.886719 494.597656 12.148438 494.597656 10.351562 C 494.597656 7.285156 493.25 5.175781 491.277344 5.175781 Z M 491.238281 5.566406 C 492.488281 5.566406 493.171875 7.246094 493.171875 10.371094 C 493.171875 13.496094 492.507812 15.097656 491.21875 15.097656 C 489.929688 15.097656 489.285156 13.496094 489.285156 10.390625 C 489.285156 7.226562 489.949219 5.566406 491.238281 5.566406 Z M 491.238281 5.566406 "/>
<path style=" stroke:none;fill-rule:nonzero;fill:rgb(0%,0%,0%);fill-opacity:1;" d="M 503.050781 5.175781 L 500.355469 6.523438 L 500.355469 6.738281 C 500.53125 6.660156 500.707031 6.601562 500.765625 6.582031 C 501.019531 6.464844 501.273438 6.40625 501.429688 6.40625 C 501.742188 6.40625 501.878906 6.640625 501.878906 7.109375 L 501.878906 13.886719 C 501.878906 14.375 501.761719 14.726562 501.527344 14.863281 C 501.292969 14.980469 501.078125 15.039062 500.453125 15.058594 L 500.453125 15.273438 L 504.574219 15.273438 L 504.574219 15.058594 C 503.402344 15.039062 503.167969 14.882812 503.167969 14.160156 L 503.167969 5.195312 Z M 503.050781 5.175781 "/>
<path style=" stroke:none;fill-rule:nonzero;fill:rgb(0%,0%,0%);fill-opacity:1;" d="M 508.042969 13.789062 C 507.59375 13.789062 507.222656 14.160156 507.222656 14.628906 C 507.222656 15.058594 507.59375 15.429688 508.023438 15.429688 C 508.492188 15.429688 508.863281 15.058594 508.863281 14.628906 C 508.863281 14.160156 508.492188 13.789062 508.042969 13.789062 Z M 508.042969 13.789062 "/>
<path style=" stroke:none;fill-rule:nonzero;fill:rgb(0%,0%,0%);fill-opacity:1;" d="M 514.242188 9.726562 C 515.726562 8.945312 516.234375 8.320312 516.234375 7.285156 C 516.234375 6.074219 515.160156 5.175781 513.675781 5.175781 C 512.035156 5.175781 510.824219 6.171875 510.824219 7.539062 C 510.824219 8.496094 511.117188 8.945312 512.679688 10.3125 C 511.078125 11.542969 510.746094 11.992188 510.746094 13.007812 C 510.746094 14.472656 511.917969 15.488281 513.617188 15.488281 C 515.414062 15.488281 516.546875 14.492188 516.546875 12.949219 C 516.546875 11.816406 516.039062 11.074219 514.242188 9.726562 Z M 513.96875 11.269531 C 515.0625 12.050781 515.414062 12.578125 515.414062 13.417969 C 515.414062 14.394531 514.75 15.058594 513.773438 15.058594 C 512.640625 15.058594 511.878906 14.199219 511.878906 12.890625 C 511.878906 11.933594 512.210938 11.308594 513.070312 10.605469 Z M 513.8125 9.453125 C 512.484375 8.59375 511.9375 7.910156 511.9375 7.070312 C 511.9375 6.210938 512.601562 5.585938 513.558594 5.585938 C 514.574219 5.585938 515.21875 6.25 515.21875 7.285156 C 515.21875 8.125 514.789062 8.808594 513.949219 9.375 C 513.871094 9.414062 513.871094 9.414062 513.8125 9.453125 Z M 513.8125 9.453125 "/>
<path style=" stroke:none;fill-rule:nonzero;fill:rgb(0%,0%,0%);fill-opacity:1;" d="M 522.988281 13.789062 C 522.539062 13.789062 522.167969 14.160156 522.167969 14.628906 C 522.167969 15.058594 522.539062 15.429688 522.96875 15.429688 C 523.4375 15.429688 523.808594 15.058594 523.808594 14.628906 C 523.808594 14.160156 523.4375 13.789062 522.988281 13.789062 Z M 522.988281 13.789062 "/>
<path style=" stroke:none;fill-rule:nonzero;fill:rgb(0%,0%,0%);fill-opacity:1;" d="M 531.9375 13.222656 L 531.742188 13.144531 C 531.195312 14.003906 531 14.140625 530.335938 14.140625 L 526.761719 14.140625 L 529.261719 11.503906 C 530.609375 10.117188 531.175781 8.984375 531.175781 7.8125 C 531.175781 6.328125 529.964844 5.175781 528.421875 5.175781 C 527.601562 5.175781 526.820312 5.507812 526.273438 6.09375 C 525.785156 6.601562 525.570312 7.089844 525.316406 8.144531 L 525.628906 8.222656 C 526.214844 6.757812 526.761719 6.269531 527.796875 6.269531 C 529.046875 6.269531 529.90625 7.128906 529.90625 8.378906 C 529.90625 9.550781 529.203125 10.9375 527.953125 12.265625 L 525.296875 15.097656 L 525.296875 15.273438 L 531.117188 15.273438 Z M 531.9375 13.222656 "/>
<path style=" stroke:none;fill-rule:nonzero;fill:rgb(0%,0%,0%);fill-opacity:1;" d="M 533.199219 15.605469 C 534.878906 15.410156 535.699219 15.117188 536.714844 14.394531 C 538.257812 13.261719 539.175781 11.40625 539.175781 9.394531 C 539.175781 6.914062 537.808594 5.175781 535.875 5.175781 C 534.097656 5.175781 532.769531 6.679688 532.769531 8.691406 C 532.769531 10.527344 533.84375 11.738281 535.464844 11.738281 C 536.285156 11.738281 536.910156 11.484375 537.691406 10.878906 C 537.085938 13.320312 535.425781 14.921875 533.160156 15.3125 Z M 537.730469 9.960938 C 537.730469 10.273438 537.671875 10.410156 537.496094 10.527344 C 537.085938 10.898438 536.539062 11.09375 535.992188 11.09375 C 534.859375 11.09375 534.136719 9.960938 534.136719 8.183594 C 534.136719 7.34375 534.390625 6.445312 534.703125 6.054688 C 534.957031 5.761719 535.328125 5.585938 535.757812 5.585938 C 537.066406 5.585938 537.730469 6.875 537.730469 9.394531 Z M 537.730469 9.960938 "/>
<path style=" stroke:none;fill-rule:nonzero;fill:rgb(0%,0%,0%);fill-opacity:1;" d="M 546.492188 5.390625 L 540.964844 5.390625 L 540.085938 7.578125 L 540.339844 7.695312 C 540.984375 6.679688 541.257812 6.484375 542.078125 6.484375 L 545.320312 6.484375 L 542.371094 15.390625 L 543.328125 15.390625 L 546.492188 5.625 Z M 546.492188 5.390625 "/>
<path style=" stroke:none;fill-rule:nonzero;fill:rgb(0%,0%,0%);fill-opacity:1;" d="M 549.960938 6.5625 L 552.890625 6.5625 C 553.144531 6.5625 553.203125 6.523438 553.242188 6.425781 L 553.808594 5.097656 L 553.671875 5 C 553.457031 5.3125 553.300781 5.390625 552.988281 5.390625 L 549.863281 5.390625 L 548.242188 8.925781 C 548.222656 8.945312 548.222656 8.964844 548.222656 9.003906 C 548.222656 9.082031 548.28125 9.121094 548.398438 9.121094 C 548.886719 9.121094 549.472656 9.21875 550.097656 9.414062 C 551.816406 9.960938 552.597656 10.898438 552.597656 12.382812 C 552.597656 13.808594 551.679688 14.921875 550.527344 14.921875 C 550.214844 14.921875 549.960938 14.824219 549.53125 14.492188 C 549.042969 14.160156 548.691406 14.003906 548.378906 14.003906 C 547.949219 14.003906 547.734375 14.179688 547.734375 14.550781 C 547.734375 15.117188 548.4375 15.488281 549.570312 15.488281 C 550.820312 15.488281 551.894531 15.078125 552.636719 14.316406 C 553.339844 13.652344 553.652344 12.792969 553.652344 11.660156 C 553.652344 10.585938 553.359375 9.902344 552.617188 9.140625 C 551.953125 8.496094 551.113281 8.144531 549.335938 7.832031 Z M 549.960938 6.5625 "/>
<path style=" stroke:none;fill-rule:nonzero;fill:rgb(0%,0%,0%);fill-opacity:1;" d="M 565.5625 13.222656 L 565.367188 13.144531 C 564.820312 14.003906 564.625 14.140625 563.960938 14.140625 L 560.386719 14.140625 L 562.886719 11.503906 C 564.234375 10.117188 564.800781 8.984375 564.800781 7.8125 C 564.800781 6.328125 563.589844 5.175781 562.046875 5.175781 C 561.226562 5.175781 560.445312 5.507812 559.898438 6.09375 C 559.410156 6.601562 559.195312 7.089844 558.941406 8.144531 L 559.253906 8.222656 C 559.839844 6.757812 560.386719 6.269531 561.421875 6.269531 C 562.671875 6.269531 563.53125 7.128906 563.53125 8.378906 C 563.53125 9.550781 562.828125 10.9375 561.578125 12.265625 L 558.921875 15.097656 L 558.921875 15.273438 L 564.742188 15.273438 Z M 565.5625 13.222656 "/>
<path style=" stroke:none;fill-rule:nonzero;fill:rgb(0%,0%,0%);fill-opacity:1;" d="M 567.820312 13.789062 C 567.371094 13.789062 567 14.160156 567 14.628906 C 567 15.058594 567.371094 15.429688 567.800781 15.429688 C 568.269531 15.429688 568.640625 15.058594 568.640625 14.628906 C 568.640625 14.160156 568.269531 13.789062 567.820312 13.789062 Z M 567.820312 13.789062 "/>
<path style=" stroke:none;fill-rule:nonzero;fill:rgb(0%,0%,0%);fill-opacity:1;" d="M 576.1875 13.789062 C 575.738281 13.789062 575.367188 14.160156 575.367188 14.628906 C 575.367188 15.058594 575.738281 15.429688 576.167969 15.429688 C 576.636719 15.429688 577.007812 15.058594 577.007812 14.628906 C 577.007812 14.160156 576.636719 13.789062 576.1875 13.789062 Z M 576.1875 13.789062 "/>
<path style=" stroke:none;fill-rule:nonzero;fill:rgb(0%,0%,0%);fill-opacity:1;" d="M 585.140625 13.222656 L 584.945312 13.144531 C 584.398438 14.003906 584.203125 14.140625 583.539062 14.140625 L 579.964844 14.140625 L 582.464844 11.503906 C 583.8125 10.117188 584.378906 8.984375 584.378906 7.8125 C 584.378906 6.328125 583.167969 5.175781 581.625 5.175781 C 580.804688 5.175781 580.023438 5.507812 579.476562 6.09375 C 578.988281 6.601562 578.773438 7.089844 578.519531 8.144531 L 578.832031 8.222656 C 579.417969 6.757812 579.964844 6.269531 581 6.269531 C 582.25 6.269531 583.109375 7.128906 583.109375 8.378906 C 583.109375 9.550781 582.40625 10.9375 581.15625 12.265625 L 578.5 15.097656 L 578.5 15.273438 L 584.320312 15.273438 Z M 585.140625 13.222656 "/>
<path style=" stroke:none;fill-rule:nonzero;fill:rgb(0%,0%,0%);fill-opacity:1;" d="M 592.222656 5.390625 L 586.695312 5.390625 L 585.816406 7.578125 L 586.070312 7.695312 C 586.714844 6.679688 586.988281 6.484375 587.808594 6.484375 L 591.050781 6.484375 L 588.101562 15.390625 L 589.058594 15.390625 L 592.222656 5.625 Z M 592.222656 5.390625 "/>
<path style=" stroke:none;fill-rule:nonzero;fill:rgb(0%,0%,0%);fill-opacity:1;" d="M 596.78125 5.175781 C 595.960938 5.175781 595.335938 5.429688 594.789062 5.957031 C 593.910156 6.777344 593.34375 8.496094 593.34375 10.253906 C 593.34375 11.875 593.851562 13.632812 594.554688 14.472656 C 595.101562 15.117188 595.863281 15.488281 596.722656 15.488281 C 597.484375 15.488281 598.128906 15.234375 598.675781 14.707031 C 599.535156 13.886719 600.101562 12.148438 600.101562 10.351562 C 600.101562 7.285156 598.753906 5.175781 596.78125 5.175781 Z M 596.742188 5.566406 C 597.992188 5.566406 598.675781 7.246094 598.675781 10.371094 C 598.675781 13.496094 598.011719 15.097656 596.722656 15.097656 C 595.433594 15.097656 594.789062 13.496094 594.789062 10.390625 C 594.789062 7.226562 595.453125 5.566406 596.742188 5.566406 Z M 596.742188 5.566406 "/>
<path style=" stroke:none;fill-rule:nonzero;fill:rgb(0%,0%,0%);fill-opacity:1;" d="M 607.125 5.058594 C 605.425781 5.195312 604.566406 5.488281 603.472656 6.25 C 601.851562 7.402344 600.972656 9.101562 600.972656 11.113281 C 600.972656 12.402344 601.382812 13.710938 602.027344 14.472656 C 602.59375 15.117188 603.394531 15.488281 604.3125 15.488281 C 606.167969 15.488281 607.457031 14.0625 607.457031 11.992188 C 607.457031 10.097656 606.363281 8.886719 604.644531 8.886719 C 604 8.886719 603.667969 8.984375 602.730469 9.550781 C 603.140625 7.285156 604.820312 5.683594 607.164062 5.292969 Z M 604.078125 9.570312 C 605.367188 9.570312 606.109375 10.644531 606.109375 12.5 C 606.109375 14.160156 605.523438 15.058594 604.488281 15.058594 C 603.160156 15.058594 602.359375 13.652344 602.359375 11.347656 C 602.359375 10.585938 602.476562 10.15625 602.789062 9.941406 C 603.101562 9.707031 603.550781 9.570312 604.078125 9.570312 Z M 604.078125 9.570312 "/>
<path style=" stroke:none;fill-rule:nonzero;fill:rgb(0%,0%,0%);fill-opacity:1;" d="M 618.761719 13.222656 L 618.566406 13.144531 C 618.019531 14.003906 617.824219 14.140625 617.160156 14.140625 L 613.585938 14.140625 L 616.085938 11.503906 C 617.433594 10.117188 618 8.984375 618 7.8125 C 618 6.328125 616.789062 5.175781 615.246094 5.175781 C 614.425781 5.175781 613.644531 5.507812 613.097656 6.09375 C 612.609375 6.601562 612.394531 7.089844 612.140625 8.144531 L 612.453125 8.222656 C 613.039062 6.757812 613.585938 6.269531 614.621094 6.269531 C 615.871094 6.269531 616.730469 7.128906 616.730469 8.378906 C 616.730469 9.550781 616.027344 10.9375 614.777344 12.265625 L 612.121094 15.097656 L 612.121094 15.273438 L 617.941406 15.273438 Z M 618.761719 13.222656 "/>
<path style=" stroke:none;fill-rule:nonzero;fill:rgb(0%,0%,0%);fill-opacity:1;" d="M 621.019531 13.789062 C 620.570312 13.789062 620.199219 14.160156 620.199219 14.628906 C 620.199219 15.058594 620.570312 15.429688 621 15.429688 C 621.46875 15.429688 621.839844 15.058594 621.839844 14.628906 C 621.839844 14.160156 621.46875 13.789062 621.019531 13.789062 Z M 621.019531 13.789062 "/>
<path style=" stroke:none;fill-rule:nonzero;fill:rgb(0%,0%,0%);fill-opacity:1;" d="M 629.972656 13.222656 L 629.777344 13.144531 C 629.230469 14.003906 629.035156 14.140625 628.371094 14.140625 L 624.796875 14.140625 L 627.296875 11.503906 C 628.644531 10.117188 629.210938 8.984375 629.210938 7.8125 C 629.210938 6.328125 628 5.175781 626.457031 5.175781 C 625.636719 5.175781 624.855469 5.507812 624.308594 6.09375 C 623.820312 6.601562 623.605469 7.089844 623.351562 8.144531 L 623.664062 8.222656 C 624.25 6.757812 624.796875 6.269531 625.832031 6.269531 C 627.082031 6.269531 627.941406 7.128906 627.941406 8.378906 C 627.941406 9.550781 627.238281 10.9375 625.988281 12.265625 L 623.332031 15.097656 L 623.332031 15.273438 L 629.152344 15.273438 Z M 629.972656 13.222656 "/>
<path style=" stroke:none;fill-rule:nonzero;fill:rgb(0%,0%,0%);fill-opacity:1;" d="M 635.964844 13.789062 C 635.515625 13.789062 635.144531 14.160156 635.144531 14.628906 C 635.144531 15.058594 635.515625 15.429688 635.945312 15.429688 C 636.414062 15.429688 636.785156 15.058594 636.785156 14.628906 C 636.785156 14.160156 636.414062 13.789062 635.964844 13.789062 Z M 635.964844 13.789062 "/>
<path style=" stroke:none;fill-rule:nonzero;fill:rgb(0%,0%,0%);fill-opacity:1;" d="M 644.914062 13.222656 L 644.71875 13.144531 C 644.171875 14.003906 643.976562 14.140625 643.3125 14.140625 L 639.738281 14.140625 L 642.238281 11.503906 C 643.585938 10.117188 644.152344 8.984375 644.152344 7.8125 C 644.152344 6.328125 642.941406 5.175781 641.398438 5.175781 C 640.578125 5.175781 639.796875 5.507812 639.25 6.09375 C 638.761719 6.601562 638.546875 7.089844 638.292969 8.144531 L 638.605469 8.222656 C 639.191406 6.757812 639.738281 6.269531 640.773438 6.269531 C 642.023438 6.269531 642.882812 7.128906 642.882812 8.378906 C 642.882812 9.550781 642.179688 10.9375 640.929688 12.265625 L 638.273438 15.097656 L 638.273438 15.273438 L 644.09375 15.273438 Z M 644.914062 13.222656 "/>
<path style=" stroke:none;fill-rule:nonzero;fill:rgb(0%,0%,0%);fill-opacity:1;" d="M 652.347656 11.816406 L 650.824219 11.816406 L 650.824219 5.175781 L 650.160156 5.175781 L 645.472656 11.816406 L 645.472656 12.773438 L 649.671875 12.773438 L 649.671875 15.273438 L 650.824219 15.273438 L 650.824219 12.773438 L 652.347656 12.773438 Z M 649.652344 11.816406 L 646.078125 11.816406 L 649.652344 6.699219 Z M 649.652344 11.816406 "/>
<path style=" stroke:none;fill-rule:nonzero;fill:rgb(0%,0%,0%);fill-opacity:1;" d="M 655.054688 10.351562 C 655.933594 10.351562 656.285156 10.371094 656.636719 10.507812 C 657.574219 10.839844 658.140625 11.679688 658.140625 12.714844 C 658.140625 13.964844 657.300781 14.941406 656.1875 14.941406 C 655.796875 14.941406 655.484375 14.84375 654.9375 14.472656 C 654.488281 14.21875 654.234375 14.101562 653.980469 14.101562 C 653.628906 14.101562 653.414062 14.316406 653.414062 14.628906 C 653.414062 15.15625 654.058594 15.488281 655.09375 15.488281 C 656.246094 15.488281 657.4375 15.097656 658.140625 14.472656 C 658.84375 13.867188 659.214844 13.007812 659.214844 11.992188 C 659.214844 11.230469 658.980469 10.527344 658.550781 10.078125 C 658.257812 9.746094 657.964844 9.570312 657.320312 9.277344 C 658.335938 8.574219 658.707031 8.027344 658.707031 7.226562 C 658.707031 6.015625 657.769531 5.175781 656.382812 5.175781 C 655.640625 5.175781 654.976562 5.429688 654.449219 5.898438 C 654 6.308594 653.765625 6.699219 653.433594 7.597656 L 653.667969 7.65625 C 654.273438 6.5625 654.957031 6.074219 655.894531 6.074219 C 656.871094 6.074219 657.535156 6.71875 657.535156 7.675781 C 657.535156 8.203125 657.320312 8.75 656.929688 9.121094 C 656.480469 9.570312 656.070312 9.785156 655.054688 10.15625 Z M 655.054688 10.351562 "/>
<path style=" stroke:none;fill-rule:nonzero;fill:rgb(0%,0%,0%);fill-opacity:1;" d="M 664.578125 9.726562 C 666.0625 8.945312 666.570312 8.320312 666.570312 7.285156 C 666.570312 6.074219 665.496094 5.175781 664.011719 5.175781 C 662.371094 5.175781 661.160156 6.171875 661.160156 7.539062 C 661.160156 8.496094 661.453125 8.945312 663.015625 10.3125 C 661.414062 11.542969 661.082031 11.992188 661.082031 13.007812 C 661.082031 14.472656 662.253906 15.488281 663.953125 15.488281 C 665.75 15.488281 666.882812 14.492188 666.882812 12.949219 C 666.882812 11.816406 666.375 11.074219 664.578125 9.726562 Z M 664.304688 11.269531 C 665.398438 12.050781 665.75 12.578125 665.75 13.417969 C 665.75 14.394531 665.085938 15.058594 664.109375 15.058594 C 662.976562 15.058594 662.214844 14.199219 662.214844 12.890625 C 662.214844 11.933594 662.546875 11.308594 663.40625 10.605469 Z M 664.148438 9.453125 C 662.820312 8.59375 662.273438 7.910156 662.273438 7.070312 C 662.273438 6.210938 662.9375 5.585938 663.894531 5.585938 C 664.910156 5.585938 665.554688 6.25 665.554688 7.285156 C 665.554688 8.125 665.125 8.808594 664.285156 9.375 C 664.207031 9.414062 664.207031 9.414062 664.148438 9.453125 Z M 664.148438 9.453125 "/>
</g>
</svg>
