<?xml version="1.0" encoding="UTF-8"?>
<svg xmlns="http://www.w3.org/2000/svg" xmlns:xlink="http://www.w3.org/1999/xlink" width="677.81314pt" height="20.605469pt" viewBox="0 0 677.81314 20.605469" version="1.1">
<g id="surface685">
<path style=" stroke:none;fill-rule:nonzero;fill:rgb(0%,0%,0%);fill-opacity:1;" d="M 5.820312 13.789062 C 5.371094 13.789062 5 14.160156 5 14.628906 C 5 15.058594 5.371094 15.429688 5.800781 15.429688 C 6.269531 15.429688 6.640625 15.058594 6.640625 14.628906 C 6.640625 14.160156 6.269531 13.789062 5.820312 13.789062 Z M 5.820312 13.789062 "/>
<path style=" stroke:none;fill-rule:nonzero;fill:rgb(0%,0%,0%);fill-opacity:1;" d="M 14.339844 5.058594 C 12.640625 5.195312 11.78125 5.488281 10.6875 6.25 C 9.066406 7.402344 8.1875 9.101562 8.1875 11.113281 C 8.1875 12.402344 8.597656 13.710938 9.242188 14.472656 C 9.808594 15.117188 10.609375 15.488281 11.527344 15.488281 C 13.382812 15.488281 14.671875 14.0625 14.671875 11.992188 C 14.671875 10.097656 13.578125 8.886719 11.859375 8.886719 C 11.214844 8.886719 10.882812 8.984375 9.945312 9.550781 C 10.355469 7.285156 12.035156 5.683594 14.378906 5.292969 Z M 11.292969 9.570312 C 12.582031 9.570312 13.324219 10.644531 13.324219 12.5 C 13.324219 14.160156 12.738281 15.058594 11.703125 15.058594 C 10.375 15.058594 9.574219 13.652344 9.574219 11.347656 C 9.574219 10.585938 9.691406 10.15625 10.003906 9.941406 C 10.316406 9.707031 10.765625 9.570312 11.292969 9.570312 Z M 11.292969 9.570312 "/>
<path style=" stroke:none;fill-rule:nonzero;fill:rgb(0%,0%,0%);fill-opacity:1;" d="M 18.941406 5.175781 C 18.121094 5.175781 17.496094 5.429688 16.949219 5.957031 C 16.070312 6.777344 15.503906 8.496094 15.503906 10.253906 C 15.503906 11.875 16.011719 13.632812 16.714844 14.472656 C 17.261719 15.117188 18.023438 15.488281 18.882812 15.488281 C 19.644531 15.488281 20.289062 15.234375 20.835938 14.707031 C 21.695312 13.886719 22.261719 12.148438 22.261719 10.351562 C 22.261719 7.285156 20.914062 5.175781 18.941406 5.175781 Z M 18.902344 5.566406 C 20.152344 5.566406 20.835938 7.246094 20.835938 10.371094 C 20.835938 13.496094 20.171875 15.097656 18.882812 15.097656 C 17.59375 15.097656 16.949219 13.496094 16.949219 10.390625 C 16.949219 7.226562 17.613281 5.566406 18.902344 5.566406 Z M 18.902344 5.566406 "/>
<path style=" stroke:none;fill-rule:nonzero;fill:rgb(0%,0%,0%);fill-opacity:1;" d="M 29.054688 6.5625 L 31.984375 6.5625 C 32.238281 6.5625 32.296875 6.523438 32.335938 6.425781 L 32.902344 5.097656 L 32.765625 5 C 32.550781 5.3125 32.394531 5.390625 32.082031 5.390625 L 28.957031 5.390625 L 27.335938 8.925781 C 27.316406 8.945312 27.316406 8.964844 27.316406 9.003906 C 27.316406 9.082031 27.375 9.121094 27.492188 9.121094 C 27.980469 9.121094 28.566406 9.21875 29.191406 9.414062 C 30.910156 9.960938 31.691406 10.898438 31.691406 12.382812 C 31.691406 13.808594 30.773438 14.921875 29.621094 14.921875 C 29.308594 14.921875 29.054688 14.824219 28.625 14.492188 C 28.136719 14.160156 27.785156 14.003906 27.472656 14.003906 C 27.042969 14.003906 26.828125 14.179688 26.828125 14.550781 C 26.828125 15.117188 27.53125 15.488281 28.664062 15.488281 C 29.914062 15.488281 30.988281 15.078125 31.730469 14.316406 C 32.433594 13.652344 32.746094 12.792969 32.746094 11.660156 C 32.746094 10.585938 32.453125 9.902344 31.710938 9.140625 C 31.046875 8.496094 30.207031 8.144531 28.429688 7.832031 Z M 29.054688 6.5625 "/>
<path style=" stroke:none;fill-rule:nonzero;fill:rgb(0%,0%,0%);fill-opacity:1;" d="M 35.707031 13.789062 C 35.257812 13.789062 34.886719 14.160156 34.886719 14.628906 C 34.886719 15.058594 35.257812 15.429688 35.6875 15.429688 C 36.15625 15.429688 36.527344 15.058594 36.527344 14.628906 C 36.527344 14.160156 36.15625 13.789062 35.707031 13.789062 Z M 35.707031 13.789062 "/>
<path style=" stroke:none;fill-rule:nonzero;fill:rgb(0%,0%,0%);fill-opacity:1;" d="M 44.660156 13.222656 L 44.464844 13.144531 C 43.917969 14.003906 43.722656 14.140625 43.058594 14.140625 L 39.484375 14.140625 L 41.984375 11.503906 C 43.332031 10.117188 43.898438 8.984375 43.898438 7.8125 C 43.898438 6.328125 42.6875 5.175781 41.144531 5.175781 C 40.324219 5.175781 39.542969 5.507812 38.996094 6.09375 C 38.507812 6.601562 38.292969 7.089844 38.039062 8.144531 L 38.351562 8.222656 C 38.9375 6.757812 39.484375 6.269531 40.519531 6.269531 C 41.769531 6.269531 42.628906 7.128906 42.628906 8.378906 C 42.628906 9.550781 41.925781 10.9375 40.675781 12.265625 L 38.019531 15.097656 L 38.019531 15.273438 L 43.839844 15.273438 Z M 44.660156 13.222656 "/>
<path style=" stroke:none;fill-rule:nonzero;fill:rgb(0%,0%,0%);fill-opacity:1;" d="M 47.328125 10.351562 C 48.207031 10.351562 48.558594 10.371094 48.910156 10.507812 C 49.847656 10.839844 50.414062 11.679688 50.414062 12.714844 C 50.414062 13.964844 49.574219 14.941406 48.460938 14.941406 C 48.070312 14.941406 47.757812 14.84375 47.210938 14.472656 C 46.761719 14.21875 46.507812 14.101562 46.253906 14.101562 C 45.902344 14.101562 45.6875 14.316406 45.6875 14.628906 C 45.6875 15.15625 46.332031 15.488281 47.367188 15.488281 C 48.519531 15.488281 49.710938 15.097656 50.414062 14.472656 C 51.117188 13.867188 51.488281 13.007812 51.488281 11.992188 C 51.488281 11.230469 51.253906 10.527344 50.824219 10.078125 C 50.53125 9.746094 50.238281 9.570312 49.59375 9.277344 C 50.609375 8.574219 50.980469 8.027344 50.980469 7.226562 C 50.980469 6.015625 50.042969 5.175781 48.65625 5.175781 C 47.914062 5.175781 47.25 5.429688 46.722656 5.898438 C 46.273438 6.308594 46.039062 6.699219 45.707031 7.597656 L 45.941406 7.65625 C 46.546875 6.5625 47.230469 6.074219 48.167969 6.074219 C 49.144531 6.074219 49.808594 6.71875 49.808594 7.675781 C 49.808594 8.203125 49.59375 8.75 49.203125 9.121094 C 48.753906 9.570312 48.34375 9.785156 47.328125 10.15625 Z M 47.328125 10.351562 "/>
<path style=" stroke:none;fill-rule:nonzero;fill:rgb(0%,0%,0%);fill-opacity:1;" d="M 56.847656 9.726562 C 58.332031 8.945312 58.839844 8.320312 58.839844 7.285156 C 58.839844 6.074219 57.765625 5.175781 56.28125 5.175781 C 54.640625 5.175781 53.429688 6.171875 53.429688 7.539062 C 53.429688 8.496094 53.722656 8.945312 55.285156 10.3125 C 53.683594 11.542969 53.351562 11.992188 53.351562 13.007812 C 53.351562 14.472656 54.523438 15.488281 56.222656 15.488281 C 58.019531 15.488281 59.152344 14.492188 59.152344 12.949219 C 59.152344 11.816406 58.644531 11.074219 56.847656 9.726562 Z M 56.574219 11.269531 C 57.667969 12.050781 58.019531 12.578125 58.019531 13.417969 C 58.019531 14.394531 57.355469 15.058594 56.378906 15.058594 C 55.246094 15.058594 54.484375 14.199219 54.484375 12.890625 C 54.484375 11.933594 54.816406 11.308594 55.675781 10.605469 Z M 56.417969 9.453125 C 55.089844 8.59375 54.542969 7.910156 54.542969 7.070312 C 54.542969 6.210938 55.207031 5.585938 56.164062 5.585938 C 57.179688 5.585938 57.824219 6.25 57.824219 7.285156 C 57.824219 8.125 57.394531 8.808594 56.554688 9.375 C 56.476562 9.414062 56.476562 9.414062 56.417969 9.453125 Z M 56.417969 9.453125 "/>
<path style=" stroke:none;fill-rule:nonzero;fill:rgb(0%,0%,0%);fill-opacity:1;" d="M 65.597656 13.789062 C 65.148438 13.789062 64.777344 14.160156 64.777344 14.628906 C 64.777344 15.058594 65.148438 15.429688 65.578125 15.429688 C 66.046875 15.429688 66.417969 15.058594 66.417969 14.628906 C 66.417969 14.160156 66.046875 13.789062 65.597656 13.789062 Z M 65.597656 13.789062 "/>
<path style=" stroke:none;fill-rule:nonzero;fill:rgb(0%,0%,0%);fill-opacity:1;" d="M 74.15625 5.390625 L 68.628906 5.390625 L 67.75 7.578125 L 68.003906 7.695312 C 68.648438 6.679688 68.921875 6.484375 69.742188 6.484375 L 72.984375 6.484375 L 70.035156 15.390625 L 70.992188 15.390625 L 74.15625 5.625 Z M 74.15625 5.390625 "/>
<path style=" stroke:none;fill-rule:nonzero;fill:rgb(0%,0%,0%);fill-opacity:1;" d="M 78.71875 5.175781 C 77.898438 5.175781 77.273438 5.429688 76.726562 5.957031 C 75.847656 6.777344 75.28125 8.496094 75.28125 10.253906 C 75.28125 11.875 75.789062 13.632812 76.492188 14.472656 C 77.039062 15.117188 77.800781 15.488281 78.660156 15.488281 C 79.421875 15.488281 80.066406 15.234375 80.613281 14.707031 C 81.472656 13.886719 82.039062 12.148438 82.039062 10.351562 C 82.039062 7.285156 80.691406 5.175781 78.71875 5.175781 Z M 78.679688 5.566406 C 79.929688 5.566406 80.613281 7.246094 80.613281 10.371094 C 80.613281 13.496094 79.949219 15.097656 78.660156 15.097656 C 77.371094 15.097656 76.726562 13.496094 76.726562 10.390625 C 76.726562 7.226562 77.390625 5.566406 78.679688 5.566406 Z M 78.679688 5.566406 "/>
<path style=" stroke:none;fill-rule:nonzero;fill:rgb(0%,0%,0%);fill-opacity:1;" d="M 93.226562 13.222656 L 93.03125 13.144531 C 92.484375 14.003906 92.289062 14.140625 91.625 14.140625 L 88.050781 14.140625 L 90.550781 11.503906 C 91.898438 10.117188 92.464844 8.984375 92.464844 7.8125 C 92.464844 6.328125 91.253906 5.175781 89.710938 5.175781 C 88.890625 5.175781 88.109375 5.507812 87.5625 6.09375 C 87.074219 6.601562 86.859375 7.089844 86.605469 8.144531 L 86.917969 8.222656 C 87.503906 6.757812 88.050781 6.269531 89.085938 6.269531 C 90.335938 6.269531 91.195312 7.128906 91.195312 8.378906 C 91.195312 9.550781 90.492188 10.9375 89.242188 12.265625 L 86.585938 15.097656 L 86.585938 15.273438 L 92.40625 15.273438 Z M 93.226562 13.222656 "/>
<path style=" stroke:none;fill-rule:nonzero;fill:rgb(0%,0%,0%);fill-opacity:1;" d="M 95.484375 13.789062 C 95.035156 13.789062 94.664062 14.160156 94.664062 14.628906 C 94.664062 15.058594 95.035156 15.429688 95.464844 15.429688 C 95.933594 15.429688 96.304688 15.058594 96.304688 14.628906 C 96.304688 14.160156 95.933594 13.789062 95.484375 13.789062 Z M 95.484375 13.789062 "/>
<path style=" stroke:none;fill-rule:nonzero;fill:rgb(0%,0%,0%);fill-opacity:1;" d="M 104.042969 5.390625 L 98.515625 5.390625 L 97.636719 7.578125 L 97.890625 7.695312 C 98.535156 6.679688 98.808594 6.484375 99.628906 6.484375 L 102.871094 6.484375 L 99.921875 15.390625 L 100.878906 15.390625 L 104.042969 5.625 Z M 104.042969 5.390625 "/>
<path style=" stroke:none;fill-rule:nonzero;fill:rgb(0%,0%,0%);fill-opacity:1;" d="M 111.90625 13.222656 L 111.710938 13.144531 C 111.164062 14.003906 110.96875 14.140625 110.304688 14.140625 L 106.730469 14.140625 L 109.230469 11.503906 C 110.578125 10.117188 111.144531 8.984375 111.144531 7.8125 C 111.144531 6.328125 109.933594 5.175781 108.390625 5.175781 C 107.570312 5.175781 106.789062 5.507812 106.242188 6.09375 C 105.753906 6.601562 105.539062 7.089844 105.285156 8.144531 L 105.597656 8.222656 C 106.183594 6.757812 106.730469 6.269531 107.765625 6.269531 C 109.015625 6.269531 109.875 7.128906 109.875 8.378906 C 109.875 9.550781 109.171875 10.9375 107.921875 12.265625 L 105.265625 15.097656 L 105.265625 15.273438 L 111.085938 15.273438 Z M 111.90625 13.222656 "/>
<path style=" stroke:none;fill-rule:nonzero;fill:rgb(0%,0%,0%);fill-opacity:1;" d="M 118.988281 5.390625 L 113.460938 5.390625 L 112.582031 7.578125 L 112.835938 7.695312 C 113.480469 6.679688 113.753906 6.484375 114.574219 6.484375 L 117.816406 6.484375 L 114.867188 15.390625 L 115.824219 15.390625 L 118.988281 5.625 Z M 118.988281 5.390625 "/>
<path style=" stroke:none;fill-rule:nonzero;fill:rgb(0%,0%,0%);fill-opacity:1;" d="M 125.371094 13.789062 C 124.921875 13.789062 124.550781 14.160156 124.550781 14.628906 C 124.550781 15.058594 124.921875 15.429688 125.351562 15.429688 C 125.820312 15.429688 126.191406 15.058594 126.191406 14.628906 C 126.191406 14.160156 125.820312 13.789062 125.371094 13.789062 Z M 125.371094 13.789062 "/>
<path style=" stroke:none;fill-rule:nonzero;fill:rgb(0%,0%,0%);fill-opacity:1;" d="M 131.570312 9.726562 C 133.054688 8.945312 133.5625 8.320312 133.5625 7.285156 C 133.5625 6.074219 132.488281 5.175781 131.003906 5.175781 C 129.363281 5.175781 128.152344 6.171875 128.152344 7.539062 C 128.152344 8.496094 128.445312 8.945312 130.007812 10.3125 C 128.40625 11.542969 128.074219 11.992188 128.074219 13.007812 C 128.074219 14.472656 129.246094 15.488281 130.945312 15.488281 C 132.742188 15.488281 133.875 14.492188 133.875 12.949219 C 133.875 11.816406 133.367188 11.074219 131.570312 9.726562 Z M 131.296875 11.269531 C 132.390625 12.050781 132.742188 12.578125 132.742188 13.417969 C 132.742188 14.394531 132.078125 15.058594 131.101562 15.058594 C 129.96875 15.058594 129.207031 14.199219 129.207031 12.890625 C 129.207031 11.933594 129.539062 11.308594 130.398438 10.605469 Z M 131.140625 9.453125 C 129.8125 8.59375 129.265625 7.910156 129.265625 7.070312 C 129.265625 6.210938 129.929688 5.585938 130.886719 5.585938 C 131.902344 5.585938 132.546875 6.25 132.546875 7.285156 C 132.546875 8.125 132.117188 8.808594 131.277344 9.375 C 131.199219 9.414062 131.199219 9.414062 131.140625 9.453125 Z M 131.140625 9.453125 "/>
<path style=" stroke:none;fill-rule:nonzero;fill:rgb(0%,0%,0%);fill-opacity:1;" d="M 138.496094 5.175781 C 137.675781 5.175781 137.050781 5.429688 136.503906 5.957031 C 135.625 6.777344 135.058594 8.496094 135.058594 10.253906 C 135.058594 11.875 135.566406 13.632812 136.269531 14.472656 C 136.816406 15.117188 137.578125 15.488281 138.4375 15.488281 C 139.199219 15.488281 139.84375 15.234375 140.390625 14.707031 C 141.25 13.886719 141.816406 12.148438 141.816406 10.351562 C 141.816406 7.285156 140.46875 5.175781 138.496094 5.175781 Z M 138.457031 5.566406 C 139.707031 5.566406 140.390625 7.246094 140.390625 10.371094 C 140.390625 13.496094 139.726562 15.097656 138.4375 15.097656 C 137.148438 15.097656 136.503906 13.496094 136.503906 10.390625 C 136.503906 7.226562 137.167969 5.566406 138.457031 5.566406 Z M 138.457031 5.566406 "/>
<path style=" stroke:none;fill-rule:nonzero;fill:rgb(0%,0%,0%);fill-opacity:1;" d="M 150.269531 5.175781 L 147.574219 6.523438 L 147.574219 6.738281 C 147.75 6.660156 147.925781 6.601562 147.984375 6.582031 C 148.238281 6.464844 148.492188 6.40625 148.648438 6.40625 C 148.960938 6.40625 149.097656 6.640625 149.097656 7.109375 L 149.097656 13.886719 C 149.097656 14.375 148.980469 14.726562 148.746094 14.863281 C 148.511719 14.980469 148.296875 15.039062 147.671875 15.058594 L 147.671875 15.273438 L 151.792969 15.273438 L 151.792969 15.058594 C 150.621094 15.039062 150.386719 14.882812 150.386719 14.160156 L 150.386719 5.195312 Z M 150.269531 5.175781 "/>
<path style=" stroke:none;fill-rule:nonzero;fill:rgb(0%,0%,0%);fill-opacity:1;" d="M 155.261719 13.789062 C 154.8125 13.789062 154.441406 14.160156 154.441406 14.628906 C 154.441406 15.058594 154.8125 15.429688 155.242188 15.429688 C 155.710938 15.429688 156.082031 15.058594 156.082031 14.628906 C 156.082031 14.160156 155.710938 13.789062 155.261719 13.789062 Z M 155.261719 13.789062 "/>
<path style=" stroke:none;fill-rule:nonzero;fill:rgb(0%,0%,0%);fill-opacity:1;" d="M 161.457031 9.726562 C 162.941406 8.945312 163.449219 8.320312 163.449219 7.285156 C 163.449219 6.074219 162.375 5.175781 160.890625 5.175781 C 159.25 5.175781 158.039062 6.171875 158.039062 7.539062 C 158.039062 8.496094 158.332031 8.945312 159.894531 10.3125 C 158.292969 11.542969 157.960938 11.992188 157.960938 13.007812 C 157.960938 14.472656 159.132812 15.488281 160.832031 15.488281 C 162.628906 15.488281 163.761719 14.492188 163.761719 12.949219 C 163.761719 11.816406 163.253906 11.074219 161.457031 9.726562 Z M 161.183594 11.269531 C 162.277344 12.050781 162.628906 12.578125 162.628906 13.417969 C 162.628906 14.394531 161.964844 15.058594 160.988281 15.058594 C 159.855469 15.058594 159.09375 14.199219 159.09375 12.890625 C 159.09375 11.933594 159.425781 11.308594 160.285156 10.605469 Z M 161.027344 9.453125 C 159.699219 8.59375 159.152344 7.910156 159.152344 7.070312 C 159.152344 6.210938 159.816406 5.585938 160.773438 5.585938 C 161.789062 5.585938 162.433594 6.25 162.433594 7.285156 C 162.433594 8.125 162.003906 8.808594 161.164062 9.375 C 161.085938 9.414062 161.085938 9.414062 161.027344 9.453125 Z M 161.027344 9.453125 "/>
<path style=" stroke:none;fill-rule:nonzero;fill:rgb(0%,0%,0%);fill-opacity:1;" d="M 168.929688 9.726562 C 170.414062 8.945312 170.921875 8.320312 170.921875 7.285156 C 170.921875 6.074219 169.847656 5.175781 168.363281 5.175781 C 166.722656 5.175781 165.511719 6.171875 165.511719 7.539062 C 165.511719 8.496094 165.804688 8.945312 167.367188 10.3125 C 165.765625 11.542969 165.433594 11.992188 165.433594 13.007812 C 165.433594 14.472656 166.605469 15.488281 168.304688 15.488281 C 170.101562 15.488281 171.234375 14.492188 171.234375 12.949219 C 171.234375 11.816406 170.726562 11.074219 168.929688 9.726562 Z M 168.65625 11.269531 C 169.75 12.050781 170.101562 12.578125 170.101562 13.417969 C 170.101562 14.394531 169.4375 15.058594 168.460938 15.058594 C 167.328125 15.058594 166.566406 14.199219 166.566406 12.890625 C 166.566406 11.933594 166.898438 11.308594 167.757812 10.605469 Z M 168.5 9.453125 C 167.171875 8.59375 166.625 7.910156 166.625 7.070312 C 166.625 6.210938 167.289062 5.585938 168.246094 5.585938 C 169.261719 5.585938 169.90625 6.25 169.90625 7.285156 C 169.90625 8.125 169.476562 8.808594 168.636719 9.375 C 168.558594 9.414062 168.558594 9.414062 168.5 9.453125 Z M 168.5 9.453125 "/>
<path style=" stroke:none;fill-rule:nonzero;fill:rgb(0%,0%,0%);fill-opacity:1;" d="M 179.117188 11.816406 L 177.59375 11.816406 L 177.59375 5.175781 L 176.929688 5.175781 L 172.242188 11.816406 L 172.242188 12.773438 L 176.441406 12.773438 L 176.441406 15.273438 L 177.59375 15.273438 L 177.59375 12.773438 L 179.117188 12.773438 Z M 176.421875 11.816406 L 172.847656 11.816406 L 176.421875 6.699219 Z M 176.421875 11.816406 "/>
<path style=" stroke:none;fill-rule:nonzero;fill:rgb(0%,0%,0%);fill-opacity:1;" d="M 185.148438 13.789062 C 184.699219 13.789062 184.328125 14.160156 184.328125 14.628906 C 184.328125 15.058594 184.699219 15.429688 185.128906 15.429688 C 185.597656 15.429688 185.96875 15.058594 185.96875 14.628906 C 185.96875 14.160156 185.597656 13.789062 185.148438 13.789062 Z M 185.148438 13.789062 "/>
<path style=" stroke:none;fill-rule:nonzero;fill:rgb(0%,0%,0%);fill-opacity:1;" d="M 187.886719 15.605469 C 189.566406 15.410156 190.386719 15.117188 191.402344 14.394531 C 192.945312 13.261719 193.863281 11.40625 193.863281 9.394531 C 193.863281 6.914062 192.496094 5.175781 190.5625 5.175781 C 188.785156 5.175781 187.457031 6.679688 187.457031 8.691406 C 187.457031 10.527344 188.53125 11.738281 190.152344 11.738281 C 190.972656 11.738281 191.597656 11.484375 192.378906 10.878906 C 191.773438 13.320312 190.113281 14.921875 187.847656 15.3125 Z M 192.417969 9.960938 C 192.417969 10.273438 192.359375 10.410156 192.183594 10.527344 C 191.773438 10.898438 191.226562 11.09375 190.679688 11.09375 C 189.546875 11.09375 188.824219 9.960938 188.824219 8.183594 C 188.824219 7.34375 189.078125 6.445312 189.390625 6.054688 C 189.644531 5.761719 190.015625 5.585938 190.445312 5.585938 C 191.753906 5.585938 192.417969 6.875 192.417969 9.394531 Z M 192.417969 9.960938 "/>
<path style=" stroke:none;fill-rule:nonzero;fill:rgb(0%,0%,0%);fill-opacity:1;" d="M 198.269531 5.175781 C 197.449219 5.175781 196.824219 5.429688 196.277344 5.957031 C 195.398438 6.777344 194.832031 8.496094 194.832031 10.253906 C 194.832031 11.875 195.339844 13.632812 196.042969 14.472656 C 196.589844 15.117188 197.351562 15.488281 198.210938 15.488281 C 198.972656 15.488281 199.617188 15.234375 200.164062 14.707031 C 201.023438 13.886719 201.589844 12.148438 201.589844 10.351562 C 201.589844 7.285156 200.242188 5.175781 198.269531 5.175781 Z M 198.230469 5.566406 C 199.480469 5.566406 200.164062 7.246094 200.164062 10.371094 C 200.164062 13.496094 199.5 15.097656 198.210938 15.097656 C 196.921875 15.097656 196.277344 13.496094 196.277344 10.390625 C 196.277344 7.226562 196.941406 5.566406 198.230469 5.566406 Z M 198.230469 5.566406 "/>
<path style=" stroke:none;fill-rule:nonzero;fill:rgb(0%,0%,0%);fill-opacity:1;" d="M 210.042969 5.175781 L 207.347656 6.523438 L 207.347656 6.738281 C 207.523438 6.660156 207.699219 6.601562 207.757812 6.582031 C 208.011719 6.464844 208.265625 6.40625 208.421875 6.40625 C 208.734375 6.40625 208.871094 6.640625 208.871094 7.109375 L 208.871094 13.886719 C 208.871094 14.375 208.753906 14.726562 208.519531 14.863281 C 208.285156 14.980469 208.070312 15.039062 207.445312 15.058594 L 207.445312 15.273438 L 211.566406 15.273438 L 211.566406 15.058594 C 210.394531 15.039062 210.160156 14.882812 210.160156 14.160156 L 210.160156 5.195312 Z M 210.042969 5.175781 "/>
<path style=" stroke:none;fill-rule:nonzero;fill:rgb(0%,0%,0%);fill-opacity:1;" d="M 215.035156 13.789062 C 214.585938 13.789062 214.214844 14.160156 214.214844 14.628906 C 214.214844 15.058594 214.585938 15.429688 215.015625 15.429688 C 215.484375 15.429688 215.855469 15.058594 215.855469 14.628906 C 215.855469 14.160156 215.484375 13.789062 215.035156 13.789062 Z M 215.035156 13.789062 "/>
<path style=" stroke:none;fill-rule:nonzero;fill:rgb(0%,0%,0%);fill-opacity:1;" d="M 223.949219 11.816406 L 222.425781 11.816406 L 222.425781 5.175781 L 221.761719 5.175781 L 217.074219 11.816406 L 217.074219 12.773438 L 221.273438 12.773438 L 221.273438 15.273438 L 222.425781 15.273438 L 222.425781 12.773438 L 223.949219 12.773438 Z M 221.253906 11.816406 L 217.679688 11.816406 L 221.253906 6.699219 Z M 221.253906 11.816406 "/>
<path style=" stroke:none;fill-rule:nonzero;fill:rgb(0%,0%,0%);fill-opacity:1;" d="M 227.066406 6.5625 L 229.996094 6.5625 C 230.25 6.5625 230.308594 6.523438 230.347656 6.425781 L 230.914062 5.097656 L 230.777344 5 C 230.5625 5.3125 230.40625 5.390625 230.09375 5.390625 L 226.96875 5.390625 L 225.347656 8.925781 C 225.328125 8.945312 225.328125 8.964844 225.328125 9.003906 C 225.328125 9.082031 225.386719 9.121094 225.503906 9.121094 C 225.992188 9.121094 226.578125 9.21875 227.203125 9.414062 C 228.921875 9.960938 229.703125 10.898438 229.703125 12.382812 C 229.703125 13.808594 228.785156 14.921875 227.632812 14.921875 C 227.320312 14.921875 227.066406 14.824219 226.636719 14.492188 C 226.148438 14.160156 225.796875 14.003906 225.484375 14.003906 C 225.054688 14.003906 224.839844 14.179688 224.839844 14.550781 C 224.839844 15.117188 225.542969 15.488281 226.675781 15.488281 C 227.925781 15.488281 229 15.078125 229.742188 14.316406 C 230.445312 13.652344 230.757812 12.792969 230.757812 11.660156 C 230.757812 10.585938 230.464844 9.902344 229.722656 9.140625 C 229.058594 8.496094 228.21875 8.144531 226.441406 7.832031 Z M 227.066406 6.5625 "/>
<path style=" stroke:none;fill-rule:nonzero;fill:rgb(0%,0%,0%);fill-opacity:1;" d="M 236.175781 9.726562 C 237.660156 8.945312 238.167969 8.320312 238.167969 7.285156 C 238.167969 6.074219 237.09375 5.175781 235.609375 5.175781 C 233.96875 5.175781 232.757812 6.171875 232.757812 7.539062 C 232.757812 8.496094 233.050781 8.945312 234.613281 10.3125 C 233.011719 11.542969 232.679688 11.992188 232.679688 13.007812 C 232.679688 14.472656 233.851562 15.488281 235.550781 15.488281 C 237.347656 15.488281 238.480469 14.492188 238.480469 12.949219 C 238.480469 11.816406 237.972656 11.074219 236.175781 9.726562 Z M 235.902344 11.269531 C 236.996094 12.050781 237.347656 12.578125 237.347656 13.417969 C 237.347656 14.394531 236.683594 15.058594 235.707031 15.058594 C 234.574219 15.058594 233.8125 14.199219 233.8125 12.890625 C 233.8125 11.933594 234.144531 11.308594 235.003906 10.605469 Z M 235.746094 9.453125 C 234.417969 8.59375 233.871094 7.910156 233.871094 7.070312 C 233.871094 6.210938 234.535156 5.585938 235.492188 5.585938 C 236.507812 5.585938 237.152344 6.25 237.152344 7.285156 C 237.152344 8.125 236.722656 8.808594 235.882812 9.375 C 235.804688 9.414062 235.804688 9.414062 235.746094 9.453125 Z M 235.746094 9.453125 "/>
<path style=" stroke:none;fill-rule:nonzero;fill:rgb(0%,0%,0%);fill-opacity:1;" d="M 247.40625 5.175781 L 244.710938 6.523438 L 244.710938 6.738281 C 244.886719 6.660156 245.0625 6.601562 245.121094 6.582031 C 245.375 6.464844 245.628906 6.40625 245.785156 6.40625 C 246.097656 6.40625 246.234375 6.640625 246.234375 7.109375 L 246.234375 13.886719 C 246.234375 14.375 246.117188 14.726562 245.882812 14.863281 C 245.648438 14.980469 245.433594 15.039062 244.808594 15.058594 L 244.808594 15.273438 L 248.929688 15.273438 L 248.929688 15.058594 C 247.757812 15.039062 247.523438 14.882812 247.523438 14.160156 L 247.523438 5.195312 Z M 247.40625 5.175781 "/>
<path style=" stroke:none;fill-rule:nonzero;fill:rgb(0%,0%,0%);fill-opacity:1;" d="M 252.394531 13.789062 C 251.945312 13.789062 251.574219 14.160156 251.574219 14.628906 C 251.574219 15.058594 251.945312 15.429688 252.375 15.429688 C 252.84375 15.429688 253.214844 15.058594 253.214844 14.628906 C 253.214844 14.160156 252.84375 13.789062 252.394531 13.789062 Z M 252.394531 13.789062 "/>
<path style=" stroke:none;fill-rule:nonzero;fill:rgb(0%,0%,0%);fill-opacity:1;" d="M 263.246094 5.175781 L 260.550781 6.523438 L 260.550781 6.738281 C 260.726562 6.660156 260.902344 6.601562 260.960938 6.582031 C 261.214844 6.464844 261.46875 6.40625 261.625 6.40625 C 261.9375 6.40625 262.074219 6.640625 262.074219 7.109375 L 262.074219 13.886719 C 262.074219 14.375 261.957031 14.726562 261.722656 14.863281 C 261.488281 14.980469 261.273438 15.039062 260.648438 15.058594 L 260.648438 15.273438 L 264.769531 15.273438 L 264.769531 15.058594 C 263.597656 15.039062 263.363281 14.882812 263.363281 14.160156 L 263.363281 5.195312 Z M 263.246094 5.175781 "/>
<path style=" stroke:none;fill-rule:nonzero;fill:rgb(0%,0%,0%);fill-opacity:1;" d="M 268.238281 13.789062 C 267.789062 13.789062 267.417969 14.160156 267.417969 14.628906 C 267.417969 15.058594 267.789062 15.429688 268.21875 15.429688 C 268.6875 15.429688 269.058594 15.058594 269.058594 14.628906 C 269.058594 14.160156 268.6875 13.789062 268.238281 13.789062 Z M 268.238281 13.789062 "/>
<path style=" stroke:none;fill-rule:nonzero;fill:rgb(0%,0%,0%);fill-opacity:1;" d="M 277.1875 13.222656 L 276.992188 13.144531 C 276.445312 14.003906 276.25 14.140625 275.585938 14.140625 L 272.011719 14.140625 L 274.511719 11.503906 C 275.859375 10.117188 276.425781 8.984375 276.425781 7.8125 C 276.425781 6.328125 275.214844 5.175781 273.671875 5.175781 C 272.851562 5.175781 272.070312 5.507812 271.523438 6.09375 C 271.035156 6.601562 270.820312 7.089844 270.566406 8.144531 L 270.878906 8.222656 C 271.464844 6.757812 272.011719 6.269531 273.046875 6.269531 C 274.296875 6.269531 275.15625 7.128906 275.15625 8.378906 C 275.15625 9.550781 274.453125 10.9375 273.203125 12.265625 L 270.546875 15.097656 L 270.546875 15.273438 L 276.367188 15.273438 Z M 277.1875 13.222656 "/>
<path style=" stroke:none;fill-rule:nonzero;fill:rgb(0%,0%,0%);fill-opacity:1;" d="M 281.359375 5.175781 C 280.539062 5.175781 279.914062 5.429688 279.367188 5.957031 C 278.488281 6.777344 277.921875 8.496094 277.921875 10.253906 C 277.921875 11.875 278.429688 13.632812 279.132812 14.472656 C 279.679688 15.117188 280.441406 15.488281 281.300781 15.488281 C 282.0625 15.488281 282.707031 15.234375 283.253906 14.707031 C 284.113281 13.886719 284.679688 12.148438 284.679688 10.351562 C 284.679688 7.285156 283.332031 5.175781 281.359375 5.175781 Z M 281.320312 5.566406 C 282.570312 5.566406 283.253906 7.246094 283.253906 10.371094 C 283.253906 13.496094 282.589844 15.097656 281.300781 15.097656 C 280.011719 15.097656 279.367188 13.496094 279.367188 10.390625 C 279.367188 7.226562 280.03125 5.566406 281.320312 5.566406 Z M 281.320312 5.566406 "/>
<path style=" stroke:none;fill-rule:nonzero;fill:rgb(0%,0%,0%);fill-opacity:1;" d="M 288.832031 5.175781 C 288.011719 5.175781 287.386719 5.429688 286.839844 5.957031 C 285.960938 6.777344 285.394531 8.496094 285.394531 10.253906 C 285.394531 11.875 285.902344 13.632812 286.605469 14.472656 C 287.152344 15.117188 287.914062 15.488281 288.773438 15.488281 C 289.535156 15.488281 290.179688 15.234375 290.726562 14.707031 C 291.585938 13.886719 292.152344 12.148438 292.152344 10.351562 C 292.152344 7.285156 290.804688 5.175781 288.832031 5.175781 Z M 288.792969 5.566406 C 290.042969 5.566406 290.726562 7.246094 290.726562 10.371094 C 290.726562 13.496094 290.0625 15.097656 288.773438 15.097656 C 287.484375 15.097656 286.839844 13.496094 286.839844 10.390625 C 286.839844 7.226562 287.503906 5.566406 288.792969 5.566406 Z M 288.792969 5.566406 "/>
<path style=" stroke:none;fill-rule:nonzero;fill:rgb(0%,0%,0%);fill-opacity:1;" d="M 300.605469 5.175781 L 297.910156 6.523438 L 297.910156 6.738281 C 298.085938 6.660156 298.261719 6.601562 298.320312 6.582031 C 298.574219 6.464844 298.828125 6.40625 298.984375 6.40625 C 299.296875 6.40625 299.433594 6.640625 299.433594 7.109375 L 299.433594 13.886719 C 299.433594 14.375 299.316406 14.726562 299.082031 14.863281 C 298.847656 14.980469 298.632812 15.039062 298.007812 15.058594 L 298.007812 15.273438 L 302.128906 15.273438 L 302.128906 15.058594 C 300.957031 15.039062 300.722656 14.882812 300.722656 14.160156 L 300.722656 5.195312 Z M 300.605469 5.175781 "/>
<path style=" stroke:none;fill-rule:nonzero;fill:rgb(0%,0%,0%);fill-opacity:1;" d="M 305.597656 13.789062 C 305.148438 13.789062 304.777344 14.160156 304.777344 14.628906 C 304.777344 15.058594 305.148438 15.429688 305.578125 15.429688 C 306.046875 15.429688 306.417969 15.058594 306.417969 14.628906 C 306.417969 14.160156 306.046875 13.789062 305.597656 13.789062 Z M 305.597656 13.789062 "/>
<path style=" stroke:none;fill-rule:nonzero;fill:rgb(0%,0%,0%);fill-opacity:1;" d="M 311.8125 5.175781 L 309.117188 6.523438 L 309.117188 6.738281 C 309.292969 6.660156 309.46875 6.601562 309.527344 6.582031 C 309.78125 6.464844 310.035156 6.40625 310.191406 6.40625 C 310.503906 6.40625 310.640625 6.640625 310.640625 7.109375 L 310.640625 13.886719 C 310.640625 14.375 310.523438 14.726562 310.289062 14.863281 C 310.054688 14.980469 309.839844 15.039062 309.214844 15.058594 L 309.214844 15.273438 L 313.335938 15.273438 L 313.335938 15.058594 C 312.164062 15.039062 311.929688 14.882812 311.929688 14.160156 L 311.929688 5.195312 Z M 311.8125 5.175781 "/>
<path style=" stroke:none;fill-rule:nonzero;fill:rgb(0%,0%,0%);fill-opacity:1;" d="M 323.019531 5.175781 L 320.324219 6.523438 L 320.324219 6.738281 C 320.5 6.660156 320.675781 6.601562 320.734375 6.582031 C 320.988281 6.464844 321.242188 6.40625 321.398438 6.40625 C 321.710938 6.40625 321.847656 6.640625 321.847656 7.109375 L 321.847656 13.886719 C 321.847656 14.375 321.730469 14.726562 321.496094 14.863281 C 321.261719 14.980469 321.046875 15.039062 320.421875 15.058594 L 320.421875 15.273438 L 324.542969 15.273438 L 324.542969 15.058594 C 323.371094 15.039062 323.136719 14.882812 323.136719 14.160156 L 323.136719 5.195312 Z M 323.019531 5.175781 "/>
<path style=" stroke:none;fill-rule:nonzero;fill:rgb(0%,0%,0%);fill-opacity:1;" d="M 328.011719 13.789062 C 327.5625 13.789062 327.191406 14.160156 327.191406 14.628906 C 327.191406 15.058594 327.5625 15.429688 327.992188 15.429688 C 328.460938 15.429688 328.832031 15.058594 328.832031 14.628906 C 328.832031 14.160156 328.460938 13.789062 328.011719 13.789062 Z M 328.011719 13.789062 "/>
<path style=" stroke:none;fill-rule:nonzero;fill:rgb(0%,0%,0%);fill-opacity:1;" d="M 333.664062 5.175781 C 332.84375 5.175781 332.21875 5.429688 331.671875 5.957031 C 330.792969 6.777344 330.226562 8.496094 330.226562 10.253906 C 330.226562 11.875 330.734375 13.632812 331.4375 14.472656 C 331.984375 15.117188 332.746094 15.488281 333.605469 15.488281 C 334.367188 15.488281 335.011719 15.234375 335.558594 14.707031 C 336.417969 13.886719 336.984375 12.148438 336.984375 10.351562 C 336.984375 7.285156 335.636719 5.175781 333.664062 5.175781 Z M 333.625 5.566406 C 334.875 5.566406 335.558594 7.246094 335.558594 10.371094 C 335.558594 13.496094 334.894531 15.097656 333.605469 15.097656 C 332.316406 15.097656 331.671875 13.496094 331.671875 10.390625 C 331.671875 7.226562 332.335938 5.566406 333.625 5.566406 Z M 333.625 5.566406 "/>
<path style=" stroke:none;fill-rule:nonzero;fill:rgb(0%,0%,0%);fill-opacity:1;" d="M 344.4375 13.222656 L 344.242188 13.144531 C 343.695312 14.003906 343.5 14.140625 342.835938 14.140625 L 339.261719 14.140625 L 341.761719 11.503906 C 343.109375 10.117188 343.675781 8.984375 343.675781 7.8125 C 343.675781 6.328125 342.464844 5.175781 340.921875 5.175781 C 340.101562 5.175781 339.320312 5.507812 338.773438 6.09375 C 338.285156 6.601562 338.070312 7.089844 337.816406 8.144531 L 338.128906 8.222656 C 338.714844 6.757812 339.261719 6.269531 340.296875 6.269531 C 341.546875 6.269531 342.40625 7.128906 342.40625 8.378906 C 342.40625 9.550781 341.703125 10.9375 340.453125 12.265625 L 337.796875 15.097656 L 337.796875 15.273438 L 343.617188 15.273438 Z M 344.4375 13.222656 "/>
<path style=" stroke:none;fill-rule:nonzero;fill:rgb(0%,0%,0%);fill-opacity:1;" d="M 351.476562 5.058594 C 349.777344 5.195312 348.917969 5.488281 347.824219 6.25 C 346.203125 7.402344 345.324219 9.101562 345.324219 11.113281 C 345.324219 12.402344 345.734375 13.710938 346.378906 14.472656 C 346.945312 15.117188 347.746094 15.488281 348.664062 15.488281 C 350.519531 15.488281 351.808594 14.0625 351.808594 11.992188 C 351.808594 10.097656 350.714844 8.886719 348.996094 8.886719 C 348.351562 8.886719 348.019531 8.984375 347.082031 9.550781 C 347.492188 7.285156 349.171875 5.683594 351.515625 5.292969 Z M 348.429688 9.570312 C 349.71875 9.570312 350.460938 10.644531 350.460938 12.5 C 350.460938 14.160156 349.875 15.058594 348.839844 15.058594 C 347.511719 15.058594 346.710938 13.652344 346.710938 11.347656 C 346.710938 10.585938 346.828125 10.15625 347.140625 9.941406 C 347.453125 9.707031 347.902344 9.570312 348.429688 9.570312 Z M 348.429688 9.570312 "/>
<path style=" stroke:none;fill-rule:nonzero;fill:rgb(0%,0%,0%);fill-opacity:1;" d="M 360.382812 5.175781 L 357.6875 6.523438 L 357.6875 6.738281 C 357.863281 6.660156 358.039062 6.601562 358.097656 6.582031 C 358.351562 6.464844 358.605469 6.40625 358.761719 6.40625 C 359.074219 6.40625 359.210938 6.640625 359.210938 7.109375 L 359.210938 13.886719 C 359.210938 14.375 359.09375 14.726562 358.859375 14.863281 C 358.625 14.980469 358.410156 15.039062 357.785156 15.058594 L 357.785156 15.273438 L 361.90625 15.273438 L 361.90625 15.058594 C 360.734375 15.039062 360.5 14.882812 360.5 14.160156 L 360.5 5.195312 Z M 360.382812 5.175781 "/>
<path style=" stroke:none;fill-rule:nonzero;fill:rgb(0%,0%,0%);fill-opacity:1;" d="M 365.371094 13.789062 C 364.921875 13.789062 364.550781 14.160156 364.550781 14.628906 C 364.550781 15.058594 364.921875 15.429688 365.351562 15.429688 C 365.820312 15.429688 366.191406 15.058594 366.191406 14.628906 C 366.191406 14.160156 365.820312 13.789062 365.371094 13.789062 Z M 365.371094 13.789062 "/>
<path style=" stroke:none;fill-rule:nonzero;fill:rgb(0%,0%,0%);fill-opacity:1;" d="M 374.324219 13.222656 L 374.128906 13.144531 C 373.582031 14.003906 373.386719 14.140625 372.722656 14.140625 L 369.148438 14.140625 L 371.648438 11.503906 C 372.996094 10.117188 373.5625 8.984375 373.5625 7.8125 C 373.5625 6.328125 372.351562 5.175781 370.808594 5.175781 C 369.988281 5.175781 369.207031 5.507812 368.660156 6.09375 C 368.171875 6.601562 367.957031 7.089844 367.703125 8.144531 L 368.015625 8.222656 C 368.601562 6.757812 369.148438 6.269531 370.183594 6.269531 C 371.433594 6.269531 372.292969 7.128906 372.292969 8.378906 C 372.292969 9.550781 371.589844 10.9375 370.339844 12.265625 L 367.683594 15.097656 L 367.683594 15.273438 L 373.503906 15.273438 Z M 374.324219 13.222656 "/>
<path style=" stroke:none;fill-rule:nonzero;fill:rgb(0%,0%,0%);fill-opacity:1;" d="M 380.316406 13.789062 C 379.867188 13.789062 379.496094 14.160156 379.496094 14.628906 C 379.496094 15.058594 379.867188 15.429688 380.296875 15.429688 C 380.765625 15.429688 381.136719 15.058594 381.136719 14.628906 C 381.136719 14.160156 380.765625 13.789062 380.316406 13.789062 Z M 380.316406 13.789062 "/>
<path style=" stroke:none;fill-rule:nonzero;fill:rgb(0%,0%,0%);fill-opacity:1;" d="M 386.515625 9.726562 C 388 8.945312 388.507812 8.320312 388.507812 7.285156 C 388.507812 6.074219 387.433594 5.175781 385.949219 5.175781 C 384.308594 5.175781 383.097656 6.171875 383.097656 7.539062 C 383.097656 8.496094 383.390625 8.945312 384.953125 10.3125 C 383.351562 11.542969 383.019531 11.992188 383.019531 13.007812 C 383.019531 14.472656 384.191406 15.488281 385.890625 15.488281 C 387.6875 15.488281 388.820312 14.492188 388.820312 12.949219 C 388.820312 11.816406 388.3125 11.074219 386.515625 9.726562 Z M 386.242188 11.269531 C 387.335938 12.050781 387.6875 12.578125 387.6875 13.417969 C 387.6875 14.394531 387.023438 15.058594 386.046875 15.058594 C 384.914062 15.058594 384.152344 14.199219 384.152344 12.890625 C 384.152344 11.933594 384.484375 11.308594 385.34375 10.605469 Z M 386.085938 9.453125 C 384.757812 8.59375 384.210938 7.910156 384.210938 7.070312 C 384.210938 6.210938 384.875 5.585938 385.832031 5.585938 C 386.847656 5.585938 387.492188 6.25 387.492188 7.285156 C 387.492188 8.125 387.0625 8.808594 386.222656 9.375 C 386.144531 9.414062 386.144531 9.414062 386.085938 9.453125 Z M 386.085938 9.453125 "/>
<path style=" stroke:none;fill-rule:nonzero;fill:rgb(0%,0%,0%);fill-opacity:1;" d="M 390.527344 15.605469 C 392.207031 15.410156 393.027344 15.117188 394.042969 14.394531 C 395.585938 13.261719 396.503906 11.40625 396.503906 9.394531 C 396.503906 6.914062 395.136719 5.175781 393.203125 5.175781 C 391.425781 5.175781 390.097656 6.679688 390.097656 8.691406 C 390.097656 10.527344 391.171875 11.738281 392.792969 11.738281 C 393.613281 11.738281 394.238281 11.484375 395.019531 10.878906 C 394.414062 13.320312 392.753906 14.921875 390.488281 15.3125 Z M 395.058594 9.960938 C 395.058594 10.273438 395 10.410156 394.824219 10.527344 C 394.414062 10.898438 393.867188 11.09375 393.320312 11.09375 C 392.1875 11.09375 391.464844 9.960938 391.464844 8.183594 C 391.464844 7.34375 391.71875 6.445312 392.03125 6.054688 C 392.285156 5.761719 392.65625 5.585938 393.085938 5.585938 C 394.394531 5.585938 395.058594 6.875 395.058594 9.394531 Z M 395.058594 9.960938 "/>
<path style=" stroke:none;fill-rule:nonzero;fill:rgb(0%,0%,0%);fill-opacity:1;" d="M 398 15.605469 C 399.679688 15.410156 400.5 15.117188 401.515625 14.394531 C 403.058594 13.261719 403.976562 11.40625 403.976562 9.394531 C 403.976562 6.914062 402.609375 5.175781 400.675781 5.175781 C 398.898438 5.175781 397.570312 6.679688 397.570312 8.691406 C 397.570312 10.527344 398.644531 11.738281 400.265625 11.738281 C 401.085938 11.738281 401.710938 11.484375 402.492188 10.878906 C 401.886719 13.320312 400.226562 14.921875 397.960938 15.3125 Z M 402.53125 9.960938 C 402.53125 10.273438 402.472656 10.410156 402.296875 10.527344 C 401.886719 10.898438 401.339844 11.09375 400.792969 11.09375 C 399.660156 11.09375 398.9375 9.960938 398.9375 8.183594 C 398.9375 7.34375 399.191406 6.445312 399.503906 6.054688 C 399.757812 5.761719 400.128906 5.585938 400.558594 5.585938 C 401.867188 5.585938 402.53125 6.875 402.53125 9.394531 Z M 402.53125 9.960938 "/>
<path style=" stroke:none;fill-rule:nonzero;fill:rgb(0%,0%,0%);fill-opacity:1;" d="M 407.289062 6.5625 L 410.21875 6.5625 C 410.472656 6.5625 410.53125 6.523438 410.570312 6.425781 L 411.136719 5.097656 L 411 5 C 410.785156 5.3125 410.628906 5.390625 410.316406 5.390625 L 407.191406 5.390625 L 405.570312 8.925781 C 405.550781 8.945312 405.550781 8.964844 405.550781 9.003906 C 405.550781 9.082031 405.609375 9.121094 405.726562 9.121094 C 406.214844 9.121094 406.800781 9.21875 407.425781 9.414062 C 409.144531 9.960938 409.925781 10.898438 409.925781 12.382812 C 409.925781 13.808594 409.007812 14.921875 407.855469 14.921875 C 407.542969 14.921875 407.289062 14.824219 406.859375 14.492188 C 406.371094 14.160156 406.019531 14.003906 405.707031 14.003906 C 405.277344 14.003906 405.0625 14.179688 405.0625 14.550781 C 405.0625 15.117188 405.765625 15.488281 406.898438 15.488281 C 408.148438 15.488281 409.222656 15.078125 409.964844 14.316406 C 410.667969 13.652344 410.980469 12.792969 410.980469 11.660156 C 410.980469 10.585938 410.6875 9.902344 409.945312 9.140625 C 409.28125 8.496094 408.441406 8.144531 406.664062 7.832031 Z M 407.289062 6.5625 "/>
<path style=" stroke:none;fill-rule:nonzero;fill:rgb(0%,0%,0%);fill-opacity:1;" d="M 420.15625 5.175781 L 417.460938 6.523438 L 417.460938 6.738281 C 417.636719 6.660156 417.8125 6.601562 417.871094 6.582031 C 418.125 6.464844 418.378906 6.40625 418.535156 6.40625 C 418.847656 6.40625 418.984375 6.640625 418.984375 7.109375 L 418.984375 13.886719 C 418.984375 14.375 418.867188 14.726562 418.632812 14.863281 C 418.398438 14.980469 418.183594 15.039062 417.558594 15.058594 L 417.558594 15.273438 L 421.679688 15.273438 L 421.679688 15.058594 C 420.507812 15.039062 420.273438 14.882812 420.273438 14.160156 L 420.273438 5.195312 Z M 420.15625 5.175781 "/>
<path style=" stroke:none;fill-rule:nonzero;fill:rgb(0%,0%,0%);fill-opacity:1;" d="M 425.148438 13.789062 C 424.699219 13.789062 424.328125 14.160156 424.328125 14.628906 C 424.328125 15.058594 424.699219 15.429688 425.128906 15.429688 C 425.597656 15.429688 425.96875 15.058594 425.96875 14.628906 C 425.96875 14.160156 425.597656 13.789062 425.148438 13.789062 Z M 425.148438 13.789062 "/>
<path style=" stroke:none;fill-rule:nonzero;fill:rgb(0%,0%,0%);fill-opacity:1;" d="M 429.296875 10.351562 C 430.175781 10.351562 430.527344 10.371094 430.878906 10.507812 C 431.816406 10.839844 432.382812 11.679688 432.382812 12.714844 C 432.382812 13.964844 431.542969 14.941406 430.429688 14.941406 C 430.039062 14.941406 429.726562 14.84375 429.179688 14.472656 C 428.730469 14.21875 428.476562 14.101562 428.222656 14.101562 C 427.871094 14.101562 427.65625 14.316406 427.65625 14.628906 C 427.65625 15.15625 428.300781 15.488281 429.335938 15.488281 C 430.488281 15.488281 431.679688 15.097656 432.382812 14.472656 C 433.085938 13.867188 433.457031 13.007812 433.457031 11.992188 C 433.457031 11.230469 433.222656 10.527344 432.792969 10.078125 C 432.5 9.746094 432.207031 9.570312 431.5625 9.277344 C 432.578125 8.574219 432.949219 8.027344 432.949219 7.226562 C 432.949219 6.015625 432.011719 5.175781 430.625 5.175781 C 429.882812 5.175781 429.21875 5.429688 428.691406 5.898438 C 428.242188 6.308594 428.007812 6.699219 427.675781 7.597656 L 427.910156 7.65625 C 428.515625 6.5625 429.199219 6.074219 430.136719 6.074219 C 431.113281 6.074219 431.777344 6.71875 431.777344 7.675781 C 431.777344 8.203125 431.5625 8.75 431.171875 9.121094 C 430.722656 9.570312 430.3125 9.785156 429.296875 10.15625 Z M 429.296875 10.351562 "/>
<path style=" stroke:none;fill-rule:nonzero;fill:rgb(0%,0%,0%);fill-opacity:1;" d="M 440.09375 13.789062 C 439.644531 13.789062 439.273438 14.160156 439.273438 14.628906 C 439.273438 15.058594 439.644531 15.429688 440.074219 15.429688 C 440.542969 15.429688 440.914062 15.058594 440.914062 14.628906 C 440.914062 14.160156 440.542969 13.789062 440.09375 13.789062 Z M 440.09375 13.789062 "/>
<path style=" stroke:none;fill-rule:nonzero;fill:rgb(0%,0%,0%);fill-opacity:1;" d="M 446.289062 9.726562 C 447.773438 8.945312 448.28125 8.320312 448.28125 7.285156 C 448.28125 6.074219 447.207031 5.175781 445.722656 5.175781 C 444.082031 5.175781 442.871094 6.171875 442.871094 7.539062 C 442.871094 8.496094 443.164062 8.945312 444.726562 10.3125 C 443.125 11.542969 442.792969 11.992188 442.792969 13.007812 C 442.792969 14.472656 443.964844 15.488281 445.664062 15.488281 C 447.460938 15.488281 448.59375 14.492188 448.59375 12.949219 C 448.59375 11.816406 448.085938 11.074219 446.289062 9.726562 Z M 446.015625 11.269531 C 447.109375 12.050781 447.460938 12.578125 447.460938 13.417969 C 447.460938 14.394531 446.796875 15.058594 445.820312 15.058594 C 444.6875 15.058594 443.925781 14.199219 443.925781 12.890625 C 443.925781 11.933594 444.257812 11.308594 445.117188 10.605469 Z M 445.859375 9.453125 C 444.53125 8.59375 443.984375 7.910156 443.984375 7.070312 C 443.984375 6.210938 444.648438 5.585938 445.605469 5.585938 C 446.621094 5.585938 447.265625 6.25 447.265625 7.285156 C 447.265625 8.125 446.835938 8.808594 445.996094 9.375 C 445.917969 9.414062 445.917969 9.414062 445.859375 9.453125 Z M 445.859375 9.453125 "/>
<path style=" stroke:none;fill-rule:nonzero;fill:rgb(0%,0%,0%);fill-opacity:1;" d="M 453.214844 5.175781 C 452.394531 5.175781 451.769531 5.429688 451.222656 5.957031 C 450.34375 6.777344 449.777344 8.496094 449.777344 10.253906 C 449.777344 11.875 450.285156 13.632812 450.988281 14.472656 C 451.535156 15.117188 452.296875 15.488281 453.15625 15.488281 C 453.917969 15.488281 454.5625 15.234375 455.109375 14.707031 C 455.96875 13.886719 456.535156 12.148438 456.535156 10.351562 C 456.535156 7.285156 455.1875 5.175781 453.214844 5.175781 Z M 453.175781 5.566406 C 454.425781 5.566406 455.109375 7.246094 455.109375 10.371094 C 455.109375 13.496094 454.445312 15.097656 453.15625 15.097656 C 451.867188 15.097656 451.222656 13.496094 451.222656 10.390625 C 451.222656 7.226562 451.886719 5.566406 453.175781 5.566406 Z M 453.175781 5.566406 "/>
<path style=" stroke:none;fill-rule:nonzero;fill:rgb(0%,0%,0%);fill-opacity:1;" d="M 459.183594 10.351562 C 460.0625 10.351562 460.414062 10.371094 460.765625 10.507812 C 461.703125 10.839844 462.269531 11.679688 462.269531 12.714844 C 462.269531 13.964844 461.429688 14.941406 460.316406 14.941406 C 459.925781 14.941406 459.613281 14.84375 459.066406 14.472656 C 458.617188 14.21875 458.363281 14.101562 458.109375 14.101562 C 457.757812 14.101562 457.542969 14.316406 457.542969 14.628906 C 457.542969 15.15625 458.1875 15.488281 459.222656 15.488281 C 460.375 15.488281 461.566406 15.097656 462.269531 14.472656 C 462.972656 13.867188 463.34375 13.007812 463.34375 11.992188 C 463.34375 11.230469 463.109375 10.527344 462.679688 10.078125 C 462.386719 9.746094 462.09375 9.570312 461.449219 9.277344 C 462.464844 8.574219 462.835938 8.027344 462.835938 7.226562 C 462.835938 6.015625 461.898438 5.175781 460.511719 5.175781 C 459.769531 5.175781 459.105469 5.429688 458.578125 5.898438 C 458.128906 6.308594 457.894531 6.699219 457.5625 7.597656 L 457.796875 7.65625 C 458.402344 6.5625 459.085938 6.074219 460.023438 6.074219 C 461 6.074219 461.664062 6.71875 461.664062 7.675781 C 461.664062 8.203125 461.449219 8.75 461.058594 9.121094 C 460.609375 9.570312 460.199219 9.785156 459.183594 10.15625 Z M 459.183594 10.351562 "/>
<path style=" stroke:none;fill-rule:nonzero;fill:rgb(0%,0%,0%);fill-opacity:1;" d="M 471.03125 5.058594 C 469.332031 5.195312 468.472656 5.488281 467.378906 6.25 C 465.757812 7.402344 464.878906 9.101562 464.878906 11.113281 C 464.878906 12.402344 465.289062 13.710938 465.933594 14.472656 C 466.5 15.117188 467.300781 15.488281 468.21875 15.488281 C 470.074219 15.488281 471.363281 14.0625 471.363281 11.992188 C 471.363281 10.097656 470.269531 8.886719 468.550781 8.886719 C 467.90625 8.886719 467.574219 8.984375 466.636719 9.550781 C 467.046875 7.285156 468.726562 5.683594 471.070312 5.292969 Z M 467.984375 9.570312 C 469.273438 9.570312 470.015625 10.644531 470.015625 12.5 C 470.015625 14.160156 469.429688 15.058594 468.394531 15.058594 C 467.066406 15.058594 466.265625 13.652344 466.265625 11.347656 C 466.265625 10.585938 466.382812 10.15625 466.695312 9.941406 C 467.007812 9.707031 467.457031 9.570312 467.984375 9.570312 Z M 467.984375 9.570312 "/>
<path style=" stroke:none;fill-rule:nonzero;fill:rgb(0%,0%,0%);fill-opacity:1;" d="M 479.933594 5.175781 L 477.238281 6.523438 L 477.238281 6.738281 C 477.414062 6.660156 477.589844 6.601562 477.648438 6.582031 C 477.902344 6.464844 478.15625 6.40625 478.3125 6.40625 C 478.625 6.40625 478.761719 6.640625 478.761719 7.109375 L 478.761719 13.886719 C 478.761719 14.375 478.644531 14.726562 478.410156 14.863281 C 478.175781 14.980469 477.960938 15.039062 477.335938 15.058594 L 477.335938 15.273438 L 481.457031 15.273438 L 481.457031 15.058594 C 480.285156 15.039062 480.050781 14.882812 480.050781 14.160156 L 480.050781 5.195312 Z M 479.933594 5.175781 "/>
<path style=" stroke:none;fill-rule:nonzero;fill:rgb(0%,0%,0%);fill-opacity:1;" d="M 484.925781 13.789062 C 484.476562 13.789062 484.105469 14.160156 484.105469 14.628906 C 484.105469 15.058594 484.476562 15.429688 484.90625 15.429688 C 485.375 15.429688 485.746094 15.058594 485.746094 14.628906 C 485.746094 14.160156 485.375 13.789062 484.925781 13.789062 Z M 484.925781 13.789062 "/>
<path style=" stroke:none;fill-rule:nonzero;fill:rgb(0%,0%,0%);fill-opacity:1;" d="M 493.835938 11.816406 L 492.3125 11.816406 L 492.3125 5.175781 L 491.648438 5.175781 L 486.960938 11.816406 L 486.960938 12.773438 L 491.160156 12.773438 L 491.160156 15.273438 L 492.3125 15.273438 L 492.3125 12.773438 L 493.835938 12.773438 Z M 491.140625 11.816406 L 487.566406 11.816406 L 491.140625 6.699219 Z M 491.140625 11.816406 "/>
<path style=" stroke:none;fill-rule:nonzero;fill:rgb(0%,0%,0%);fill-opacity:1;" d="M 499.867188 13.789062 C 499.417969 13.789062 499.046875 14.160156 499.046875 14.628906 C 499.046875 15.058594 499.417969 15.429688 499.847656 15.429688 C 500.316406 15.429688 500.6875 15.058594 500.6875 14.628906 C 500.6875 14.160156 500.316406 13.789062 499.867188 13.789062 Z M 499.867188 13.789062 "/>
<path style=" stroke:none;fill-rule:nonzero;fill:rgb(0%,0%,0%);fill-opacity:1;" d="M 508.429688 5.390625 L 502.902344 5.390625 L 502.023438 7.578125 L 502.277344 7.695312 C 502.921875 6.679688 503.195312 6.484375 504.015625 6.484375 L 507.257812 6.484375 L 504.308594 15.390625 L 505.265625 15.390625 L 508.429688 5.625 Z M 508.429688 5.390625 "/>
<path style=" stroke:none;fill-rule:nonzero;fill:rgb(0%,0%,0%);fill-opacity:1;" d="M 516.292969 13.222656 L 516.097656 13.144531 C 515.550781 14.003906 515.355469 14.140625 514.691406 14.140625 L 511.117188 14.140625 L 513.617188 11.503906 C 514.964844 10.117188 515.53125 8.984375 515.53125 7.8125 C 515.53125 6.328125 514.320312 5.175781 512.777344 5.175781 C 511.957031 5.175781 511.175781 5.507812 510.628906 6.09375 C 510.140625 6.601562 509.925781 7.089844 509.671875 8.144531 L 509.984375 8.222656 C 510.570312 6.757812 511.117188 6.269531 512.152344 6.269531 C 513.402344 6.269531 514.261719 7.128906 514.261719 8.378906 C 514.261719 9.550781 513.558594 10.9375 512.308594 12.265625 L 509.652344 15.097656 L 509.652344 15.273438 L 515.472656 15.273438 Z M 516.292969 13.222656 "/>
<path style=" stroke:none;fill-rule:nonzero;fill:rgb(0%,0%,0%);fill-opacity:1;" d="M 521.011719 9.726562 C 522.496094 8.945312 523.003906 8.320312 523.003906 7.285156 C 523.003906 6.074219 521.929688 5.175781 520.445312 5.175781 C 518.804688 5.175781 517.59375 6.171875 517.59375 7.539062 C 517.59375 8.496094 517.886719 8.945312 519.449219 10.3125 C 517.847656 11.542969 517.515625 11.992188 517.515625 13.007812 C 517.515625 14.472656 518.6875 15.488281 520.386719 15.488281 C 522.183594 15.488281 523.316406 14.492188 523.316406 12.949219 C 523.316406 11.816406 522.808594 11.074219 521.011719 9.726562 Z M 520.738281 11.269531 C 521.832031 12.050781 522.183594 12.578125 522.183594 13.417969 C 522.183594 14.394531 521.519531 15.058594 520.542969 15.058594 C 519.410156 15.058594 518.648438 14.199219 518.648438 12.890625 C 518.648438 11.933594 518.980469 11.308594 519.839844 10.605469 Z M 520.582031 9.453125 C 519.253906 8.59375 518.707031 7.910156 518.707031 7.070312 C 518.707031 6.210938 519.371094 5.585938 520.328125 5.585938 C 521.34375 5.585938 521.988281 6.25 521.988281 7.285156 C 521.988281 8.125 521.558594 8.808594 520.71875 9.375 C 520.640625 9.414062 520.640625 9.414062 520.582031 9.453125 Z M 520.582031 9.453125 "/>
<path style=" stroke:none;fill-rule:nonzero;fill:rgb(0%,0%,0%);fill-opacity:1;" d="M 527.933594 5.175781 C 527.113281 5.175781 526.488281 5.429688 525.941406 5.957031 C 525.0625 6.777344 524.496094 8.496094 524.496094 10.253906 C 524.496094 11.875 525.003906 13.632812 525.707031 14.472656 C 526.253906 15.117188 527.015625 15.488281 527.875 15.488281 C 528.636719 15.488281 529.28125 15.234375 529.828125 14.707031 C 530.6875 13.886719 531.253906 12.148438 531.253906 10.351562 C 531.253906 7.285156 529.90625 5.175781 527.933594 5.175781 Z M 527.894531 5.566406 C 529.144531 5.566406 529.828125 7.246094 529.828125 10.371094 C 529.828125 13.496094 529.164062 15.097656 527.875 15.097656 C 526.585938 15.097656 525.941406 13.496094 525.941406 10.390625 C 525.941406 7.226562 526.605469 5.566406 527.894531 5.566406 Z M 527.894531 5.566406 "/>
<path style=" stroke:none;fill-rule:nonzero;fill:rgb(0%,0%,0%);fill-opacity:1;" d="M 539.710938 5.175781 L 537.015625 6.523438 L 537.015625 6.738281 C 537.191406 6.660156 537.367188 6.601562 537.425781 6.582031 C 537.679688 6.464844 537.933594 6.40625 538.089844 6.40625 C 538.402344 6.40625 538.539062 6.640625 538.539062 7.109375 L 538.539062 13.886719 C 538.539062 14.375 538.421875 14.726562 538.1875 14.863281 C 537.953125 14.980469 537.738281 15.039062 537.113281 15.058594 L 537.113281 15.273438 L 541.234375 15.273438 L 541.234375 15.058594 C 540.0625 15.039062 539.828125 14.882812 539.828125 14.160156 L 539.828125 5.195312 Z M 539.710938 5.175781 "/>
<path style=" stroke:none;fill-rule:nonzero;fill:rgb(0%,0%,0%);fill-opacity:1;" d="M 544.699219 13.789062 C 544.25 13.789062 543.878906 14.160156 543.878906 14.628906 C 543.878906 15.058594 544.25 15.429688 544.679688 15.429688 C 545.148438 15.429688 545.519531 15.058594 545.519531 14.628906 C 545.519531 14.160156 545.148438 13.789062 544.699219 13.789062 Z M 544.699219 13.789062 "/>
<path style=" stroke:none;fill-rule:nonzero;fill:rgb(0%,0%,0%);fill-opacity:1;" d="M 549.257812 6.5625 L 552.1875 6.5625 C 552.441406 6.5625 552.5 6.523438 552.539062 6.425781 L 553.105469 5.097656 L 552.96875 5 C 552.753906 5.3125 552.597656 5.390625 552.285156 5.390625 L 549.160156 5.390625 L 547.539062 8.925781 C 547.519531 8.945312 547.519531 8.964844 547.519531 9.003906 C 547.519531 9.082031 547.578125 9.121094 547.695312 9.121094 C 548.183594 9.121094 548.769531 9.21875 549.394531 9.414062 C 551.113281 9.960938 551.894531 10.898438 551.894531 12.382812 C 551.894531 13.808594 550.976562 14.921875 549.824219 14.921875 C 549.511719 14.921875 549.257812 14.824219 548.828125 14.492188 C 548.339844 14.160156 547.988281 14.003906 547.675781 14.003906 C 547.246094 14.003906 547.03125 14.179688 547.03125 14.550781 C 547.03125 15.117188 547.734375 15.488281 548.867188 15.488281 C 550.117188 15.488281 551.191406 15.078125 551.933594 14.316406 C 552.636719 13.652344 552.949219 12.792969 552.949219 11.660156 C 552.949219 10.585938 552.65625 9.902344 551.914062 9.140625 C 551.25 8.496094 550.410156 8.144531 548.632812 7.832031 Z M 549.257812 6.5625 "/>
<path style=" stroke:none;fill-rule:nonzero;fill:rgb(0%,0%,0%);fill-opacity:1;" d="M 559.644531 13.789062 C 559.195312 13.789062 558.824219 14.160156 558.824219 14.628906 C 558.824219 15.058594 559.195312 15.429688 559.625 15.429688 C 560.09375 15.429688 560.464844 15.058594 560.464844 14.628906 C 560.464844 14.160156 560.09375 13.789062 559.644531 13.789062 Z M 559.644531 13.789062 "/>
<path style=" stroke:none;fill-rule:nonzero;fill:rgb(0%,0%,0%);fill-opacity:1;" d="M 568.167969 5.058594 C 566.46875 5.195312 565.609375 5.488281 564.515625 6.25 C 562.894531 7.402344 562.015625 9.101562 562.015625 11.113281 C 562.015625 12.402344 562.425781 13.710938 563.070312 14.472656 C 563.636719 15.117188 564.4375 15.488281 565.355469 15.488281 C 567.210938 15.488281 568.5 14.0625 568.5 11.992188 C 568.5 10.097656 567.40625 8.886719 565.6875 8.886719 C 565.042969 8.886719 564.710938 8.984375 563.773438 9.550781 C 564.183594 7.285156 565.863281 5.683594 568.207031 5.292969 Z M 565.121094 9.570312 C 566.410156 9.570312 567.152344 10.644531 567.152344 12.5 C 567.152344 14.160156 566.566406 15.058594 565.53125 15.058594 C 564.203125 15.058594 563.402344 13.652344 563.402344 11.347656 C 563.402344 10.585938 563.519531 10.15625 563.832031 9.941406 C 564.144531 9.707031 564.59375 9.570312 565.121094 9.570312 Z M 565.121094 9.570312 "/>
<path style=" stroke:none;fill-rule:nonzero;fill:rgb(0%,0%,0%);fill-opacity:1;" d="M 575.636719 5.058594 C 573.9375 5.195312 573.078125 5.488281 571.984375 6.25 C 570.363281 7.402344 569.484375 9.101562 569.484375 11.113281 C 569.484375 12.402344 569.894531 13.710938 570.539062 14.472656 C 571.105469 15.117188 571.90625 15.488281 572.824219 15.488281 C 574.679688 15.488281 575.96875 14.0625 575.96875 11.992188 C 575.96875 10.097656 574.875 8.886719 573.15625 8.886719 C 572.511719 8.886719 572.179688 8.984375 571.242188 9.550781 C 571.652344 7.285156 573.332031 5.683594 575.675781 5.292969 Z M 572.589844 9.570312 C 573.878906 9.570312 574.621094 10.644531 574.621094 12.5 C 574.621094 14.160156 574.035156 15.058594 573 15.058594 C 571.671875 15.058594 570.871094 13.652344 570.871094 11.347656 C 570.871094 10.585938 570.988281 10.15625 571.300781 9.941406 C 571.613281 9.707031 572.0625 9.570312 572.589844 9.570312 Z M 572.589844 9.570312 "/>
<path style=" stroke:none;fill-rule:nonzero;fill:rgb(0%,0%,0%);fill-opacity:1;" d="M 583.109375 5.058594 C 581.410156 5.195312 580.550781 5.488281 579.457031 6.25 C 577.835938 7.402344 576.957031 9.101562 576.957031 11.113281 C 576.957031 12.402344 577.367188 13.710938 578.011719 14.472656 C 578.578125 15.117188 579.378906 15.488281 580.296875 15.488281 C 582.152344 15.488281 583.441406 14.0625 583.441406 11.992188 C 583.441406 10.097656 582.347656 8.886719 580.628906 8.886719 C 579.984375 8.886719 579.652344 8.984375 578.714844 9.550781 C 579.125 7.285156 580.804688 5.683594 583.148438 5.292969 Z M 580.0625 9.570312 C 581.351562 9.570312 582.09375 10.644531 582.09375 12.5 C 582.09375 14.160156 581.507812 15.058594 580.472656 15.058594 C 579.144531 15.058594 578.34375 13.652344 578.34375 11.347656 C 578.34375 10.585938 578.460938 10.15625 578.773438 9.941406 C 579.085938 9.707031 579.535156 9.570312 580.0625 9.570312 Z M 580.0625 9.570312 "/>
<path style=" stroke:none;fill-rule:nonzero;fill:rgb(0%,0%,0%);fill-opacity:1;" d="M 590.621094 5.390625 L 585.09375 5.390625 L 584.214844 7.578125 L 584.46875 7.695312 C 585.113281 6.679688 585.386719 6.484375 586.207031 6.484375 L 589.449219 6.484375 L 586.5 15.390625 L 587.457031 15.390625 L 590.621094 5.625 Z M 590.621094 5.390625 "/>
<path style=" stroke:none;fill-rule:nonzero;fill:rgb(0%,0%,0%);fill-opacity:1;" d="M 599.484375 5.175781 L 596.789062 6.523438 L 596.789062 6.738281 C 596.964844 6.660156 597.140625 6.601562 597.199219 6.582031 C 597.453125 6.464844 597.707031 6.40625 597.863281 6.40625 C 598.175781 6.40625 598.3125 6.640625 598.3125 7.109375 L 598.3125 13.886719 C 598.3125 14.375 598.195312 14.726562 597.960938 14.863281 C 597.726562 14.980469 597.511719 15.039062 596.886719 15.058594 L 596.886719 15.273438 L 601.007812 15.273438 L 601.007812 15.058594 C 599.835938 15.039062 599.601562 14.882812 599.601562 14.160156 L 599.601562 5.195312 Z M 599.484375 5.175781 "/>
<path style=" stroke:none;fill-rule:nonzero;fill:rgb(0%,0%,0%);fill-opacity:1;" d="M 604.476562 13.789062 C 604.027344 13.789062 603.65625 14.160156 603.65625 14.628906 C 603.65625 15.058594 604.027344 15.429688 604.457031 15.429688 C 604.925781 15.429688 605.296875 15.058594 605.296875 14.628906 C 605.296875 14.160156 604.925781 13.789062 604.476562 13.789062 Z M 604.476562 13.789062 "/>
<path style=" stroke:none;fill-rule:nonzero;fill:rgb(0%,0%,0%);fill-opacity:1;" d="M 613 5.058594 C 611.300781 5.195312 610.441406 5.488281 609.347656 6.25 C 607.726562 7.402344 606.847656 9.101562 606.847656 11.113281 C 606.847656 12.402344 607.257812 13.710938 607.902344 14.472656 C 608.46875 15.117188 609.269531 15.488281 610.1875 15.488281 C 612.042969 15.488281 613.332031 14.0625 613.332031 11.992188 C 613.332031 10.097656 612.238281 8.886719 610.519531 8.886719 C 609.875 8.886719 609.542969 8.984375 608.605469 9.550781 C 609.015625 7.285156 610.695312 5.683594 613.039062 5.292969 Z M 609.953125 9.570312 C 611.242188 9.570312 611.984375 10.644531 611.984375 12.5 C 611.984375 14.160156 611.398438 15.058594 610.363281 15.058594 C 609.035156 15.058594 608.234375 13.652344 608.234375 11.347656 C 608.234375 10.585938 608.351562 10.15625 608.664062 9.941406 C 608.976562 9.707031 609.425781 9.570312 609.953125 9.570312 Z M 609.953125 9.570312 "/>
<path style=" stroke:none;fill-rule:nonzero;fill:rgb(0%,0%,0%);fill-opacity:1;" d="M 619.421875 13.789062 C 618.972656 13.789062 618.601562 14.160156 618.601562 14.628906 C 618.601562 15.058594 618.972656 15.429688 619.402344 15.429688 C 619.871094 15.429688 620.242188 15.058594 620.242188 14.628906 C 620.242188 14.160156 619.871094 13.789062 619.421875 13.789062 Z M 619.421875 13.789062 "/>
<path style=" stroke:none;fill-rule:nonzero;fill:rgb(0%,0%,0%);fill-opacity:1;" d="M 627.941406 5.058594 C 626.242188 5.195312 625.382812 5.488281 624.289062 6.25 C 622.667969 7.402344 621.789062 9.101562 621.789062 11.113281 C 621.789062 12.402344 622.199219 13.710938 622.84375 14.472656 C 623.410156 15.117188 624.210938 15.488281 625.128906 15.488281 C 626.984375 15.488281 628.273438 14.0625 628.273438 11.992188 C 628.273438 10.097656 627.179688 8.886719 625.460938 8.886719 C 624.816406 8.886719 624.484375 8.984375 623.546875 9.550781 C 623.957031 7.285156 625.636719 5.683594 627.980469 5.292969 Z M 624.894531 9.570312 C 626.183594 9.570312 626.925781 10.644531 626.925781 12.5 C 626.925781 14.160156 626.339844 15.058594 625.304688 15.058594 C 623.976562 15.058594 623.175781 13.652344 623.175781 11.347656 C 623.175781 10.585938 623.292969 10.15625 623.605469 9.941406 C 623.917969 9.707031 624.367188 9.570312 624.894531 9.570312 Z M 624.894531 9.570312 "/>
<path style=" stroke:none;fill-rule:nonzero;fill:rgb(0%,0%,0%);fill-opacity:1;" d="M 633.109375 5.175781 L 630.414062 6.523438 L 630.414062 6.738281 C 630.589844 6.660156 630.765625 6.601562 630.824219 6.582031 C 631.078125 6.464844 631.332031 6.40625 631.488281 6.40625 C 631.800781 6.40625 631.9375 6.640625 631.9375 7.109375 L 631.9375 13.886719 C 631.9375 14.375 631.820312 14.726562 631.585938 14.863281 C 631.351562 14.980469 631.136719 15.039062 630.511719 15.058594 L 630.511719 15.273438 L 634.632812 15.273438 L 634.632812 15.058594 C 633.460938 15.039062 633.226562 14.882812 633.226562 14.160156 L 633.226562 5.195312 Z M 633.109375 5.175781 "/>
<path style=" stroke:none;fill-rule:nonzero;fill:rgb(0%,0%,0%);fill-opacity:1;" d="M 638.921875 6.5625 L 641.851562 6.5625 C 642.105469 6.5625 642.164062 6.523438 642.203125 6.425781 L 642.769531 5.097656 L 642.632812 5 C 642.417969 5.3125 642.261719 5.390625 641.949219 5.390625 L 638.824219 5.390625 L 637.203125 8.925781 C 637.183594 8.945312 637.183594 8.964844 637.183594 9.003906 C 637.183594 9.082031 637.242188 9.121094 637.359375 9.121094 C 637.847656 9.121094 638.433594 9.21875 639.058594 9.414062 C 640.777344 9.960938 641.558594 10.898438 641.558594 12.382812 C 641.558594 13.808594 640.640625 14.921875 639.488281 14.921875 C 639.175781 14.921875 638.921875 14.824219 638.492188 14.492188 C 638.003906 14.160156 637.652344 14.003906 637.339844 14.003906 C 636.910156 14.003906 636.695312 14.179688 636.695312 14.550781 C 636.695312 15.117188 637.398438 15.488281 638.53125 15.488281 C 639.78125 15.488281 640.855469 15.078125 641.597656 14.316406 C 642.300781 13.652344 642.613281 12.792969 642.613281 11.660156 C 642.613281 10.585938 642.320312 9.902344 641.578125 9.140625 C 640.914062 8.496094 640.074219 8.144531 638.296875 7.832031 Z M 638.921875 6.5625 "/>
<path style=" stroke:none;fill-rule:nonzero;fill:rgb(0%,0%,0%);fill-opacity:1;" d="M 648.035156 9.726562 C 649.519531 8.945312 650.027344 8.320312 650.027344 7.285156 C 650.027344 6.074219 648.953125 5.175781 647.46875 5.175781 C 645.828125 5.175781 644.617188 6.171875 644.617188 7.539062 C 644.617188 8.496094 644.910156 8.945312 646.472656 10.3125 C 644.871094 11.542969 644.539062 11.992188 644.539062 13.007812 C 644.539062 14.472656 645.710938 15.488281 647.410156 15.488281 C 649.207031 15.488281 650.339844 14.492188 650.339844 12.949219 C 650.339844 11.816406 649.832031 11.074219 648.035156 9.726562 Z M 647.761719 11.269531 C 648.855469 12.050781 649.207031 12.578125 649.207031 13.417969 C 649.207031 14.394531 648.542969 15.058594 647.566406 15.058594 C 646.433594 15.058594 645.671875 14.199219 645.671875 12.890625 C 645.671875 11.933594 646.003906 11.308594 646.863281 10.605469 Z M 647.605469 9.453125 C 646.277344 8.59375 645.730469 7.910156 645.730469 7.070312 C 645.730469 6.210938 646.394531 5.585938 647.351562 5.585938 C 648.367188 5.585938 649.011719 6.25 649.011719 7.285156 C 649.011719 8.125 648.582031 8.808594 647.742188 9.375 C 647.664062 9.414062 647.664062 9.414062 647.605469 9.453125 Z M 647.605469 9.453125 "/>
<path style=" stroke:none;fill-rule:nonzero;fill:rgb(0%,0%,0%);fill-opacity:1;" d="M 659.261719 5.175781 L 656.566406 6.523438 L 656.566406 6.738281 C 656.742188 6.660156 656.917969 6.601562 656.976562 6.582031 C 657.230469 6.464844 657.484375 6.40625 657.640625 6.40625 C 657.953125 6.40625 658.089844 6.640625 658.089844 7.109375 L 658.089844 13.886719 C 658.089844 14.375 657.972656 14.726562 657.738281 14.863281 C 657.503906 14.980469 657.289062 15.039062 656.664062 15.058594 L 656.664062 15.273438 L 660.785156 15.273438 L 660.785156 15.058594 C 659.613281 15.039062 659.378906 14.882812 659.378906 14.160156 L 659.378906 5.195312 Z M 659.261719 5.175781 "/>
<path style=" stroke:none;fill-rule:nonzero;fill:rgb(0%,0%,0%);fill-opacity:1;" d="M 664.253906 13.789062 C 663.804688 13.789062 663.433594 14.160156 663.433594 14.628906 C 663.433594 15.058594 663.804688 15.429688 664.234375 15.429688 C 664.703125 15.429688 665.074219 15.058594 665.074219 14.628906 C 665.074219 14.160156 664.703125 13.789062 664.253906 13.789062 Z M 664.253906 13.789062 "/>
<path style=" stroke:none;fill-rule:nonzero;fill:rgb(0%,0%,0%);fill-opacity:1;" d="M 672.8125 5.390625 L 667.285156 5.390625 L 666.40625 7.578125 L 666.660156 7.695312 C 667.304688 6.679688 667.578125 6.484375 668.398438 6.484375 L 671.640625 6.484375 L 668.691406 15.390625 L 669.648438 15.390625 L 672.8125 5.625 Z M 672.8125 5.390625 "/>
</g>
</svg>
