<?xml version="1.0" encoding="UTF-8"?>
<svg xmlns="http://www.w3.org/2000/svg" xmlns:xlink="http://www.w3.org/1999/xlink" width="696.63478pt" height="20.605469pt" viewBox="0 0 696.63478 20.605469" version="1.1">
<g id="surface81">
<path style=" stroke:none;fill-rule:nonzero;fill:rgb(0%,0%,0%);fill-opacity:1;" d="M 5 11.425781 L 5 12.382812 L 8.671875 12.382812 L 8.671875 11.425781 Z M 5 11.425781 "/>
<path style=" stroke:none;fill-rule:nonzero;fill:rgb(0%,0%,0%);fill-opacity:1;" d="M 11.675781 10.351562 C 12.554688 10.351562 12.90625 10.371094 13.257812 10.507812 C 14.195312 10.839844 14.761719 11.679688 14.761719 12.714844 C 14.761719 13.964844 13.921875 14.941406 12.808594 14.941406 C 12.417969 14.941406 12.105469 14.84375 11.558594 14.472656 C 11.109375 14.21875 10.855469 14.101562 10.601562 14.101562 C 10.25 14.101562 10.035156 14.316406 10.035156 14.628906 C 10.035156 15.15625 10.679688 15.488281 11.714844 15.488281 C 12.867188 15.488281 14.058594 15.097656 14.761719 14.472656 C 15.464844 13.867188 15.835938 13.007812 15.835938 11.992188 C 15.835938 11.230469 15.601562 10.527344 15.171875 10.078125 C 14.878906 9.746094 14.585938 9.570312 13.941406 9.277344 C 14.957031 8.574219 15.328125 8.027344 15.328125 7.226562 C 15.328125 6.015625 14.390625 5.175781 13.003906 5.175781 C 12.261719 5.175781 11.597656 5.429688 11.070312 5.898438 C 10.621094 6.308594 10.386719 6.699219 10.054688 7.597656 L 10.289062 7.65625 C 10.894531 6.5625 11.578125 6.074219 12.515625 6.074219 C 13.492188 6.074219 14.15625 6.71875 14.15625 7.675781 C 14.15625 8.203125 13.941406 8.75 13.550781 9.121094 C 13.101562 9.570312 12.691406 9.785156 11.675781 10.15625 Z M 11.675781 10.351562 "/>
<path style=" stroke:none;fill-rule:nonzero;fill:rgb(0%,0%,0%);fill-opacity:1;" d="M 18.738281 13.789062 C 18.289062 13.789062 17.917969 14.160156 17.917969 14.628906 C 17.917969 15.058594 18.289062 15.429688 18.71875 15.429688 C 19.1875 15.429688 19.558594 15.058594 19.558594 14.628906 C 19.558594 14.160156 19.1875 13.789062 18.738281 13.789062 Z M 18.738281 13.789062 "/>
<path style=" stroke:none;fill-rule:nonzero;fill:rgb(0%,0%,0%);fill-opacity:1;" d="M 27.105469 13.789062 C 26.65625 13.789062 26.285156 14.160156 26.285156 14.628906 C 26.285156 15.058594 26.65625 15.429688 27.085938 15.429688 C 27.554688 15.429688 27.925781 15.058594 27.925781 14.628906 C 27.925781 14.160156 27.554688 13.789062 27.105469 13.789062 Z M 27.105469 13.789062 "/>
<path style=" stroke:none;fill-rule:nonzero;fill:rgb(0%,0%,0%);fill-opacity:1;" d="M 33.324219 5.175781 L 30.628906 6.523438 L 30.628906 6.738281 C 30.804688 6.660156 30.980469 6.601562 31.039062 6.582031 C 31.292969 6.464844 31.546875 6.40625 31.703125 6.40625 C 32.015625 6.40625 32.152344 6.640625 32.152344 7.109375 L 32.152344 13.886719 C 32.152344 14.375 32.035156 14.726562 31.800781 14.863281 C 31.566406 14.980469 31.351562 15.039062 30.726562 15.058594 L 30.726562 15.273438 L 34.847656 15.273438 L 34.847656 15.058594 C 33.675781 15.039062 33.441406 14.882812 33.441406 14.160156 L 33.441406 5.195312 Z M 33.324219 5.175781 "/>
<path style=" stroke:none;fill-rule:nonzero;fill:rgb(0%,0%,0%);fill-opacity:1;" d="M 40.773438 9.726562 C 42.257812 8.945312 42.765625 8.320312 42.765625 7.285156 C 42.765625 6.074219 41.691406 5.175781 40.207031 5.175781 C 38.566406 5.175781 37.355469 6.171875 37.355469 7.539062 C 37.355469 8.496094 37.648438 8.945312 39.210938 10.3125 C 37.609375 11.542969 37.277344 11.992188 37.277344 13.007812 C 37.277344 14.472656 38.449219 15.488281 40.148438 15.488281 C 41.945312 15.488281 43.078125 14.492188 43.078125 12.949219 C 43.078125 11.816406 42.570312 11.074219 40.773438 9.726562 Z M 40.5 11.269531 C 41.59375 12.050781 41.945312 12.578125 41.945312 13.417969 C 41.945312 14.394531 41.28125 15.058594 40.304688 15.058594 C 39.171875 15.058594 38.410156 14.199219 38.410156 12.890625 C 38.410156 11.933594 38.742188 11.308594 39.601562 10.605469 Z M 40.34375 9.453125 C 39.015625 8.59375 38.46875 7.910156 38.46875 7.070312 C 38.46875 6.210938 39.132812 5.585938 40.089844 5.585938 C 41.105469 5.585938 41.75 6.25 41.75 7.285156 C 41.75 8.125 41.320312 8.808594 40.480469 9.375 C 40.402344 9.414062 40.402344 9.414062 40.34375 9.453125 Z M 40.34375 9.453125 "/>
<path style=" stroke:none;fill-rule:nonzero;fill:rgb(0%,0%,0%);fill-opacity:1;" d="M 50.570312 5.058594 C 48.871094 5.195312 48.011719 5.488281 46.917969 6.25 C 45.296875 7.402344 44.417969 9.101562 44.417969 11.113281 C 44.417969 12.402344 44.828125 13.710938 45.472656 14.472656 C 46.039062 15.117188 46.839844 15.488281 47.757812 15.488281 C 49.613281 15.488281 50.902344 14.0625 50.902344 11.992188 C 50.902344 10.097656 49.808594 8.886719 48.089844 8.886719 C 47.445312 8.886719 47.113281 8.984375 46.175781 9.550781 C 46.585938 7.285156 48.265625 5.683594 50.609375 5.292969 Z M 47.523438 9.570312 C 48.8125 9.570312 49.554688 10.644531 49.554688 12.5 C 49.554688 14.160156 48.96875 15.058594 47.933594 15.058594 C 46.605469 15.058594 45.804688 13.652344 45.804688 11.347656 C 45.804688 10.585938 45.921875 10.15625 46.234375 9.941406 C 46.546875 9.707031 46.996094 9.570312 47.523438 9.570312 Z M 47.523438 9.570312 "/>
<path style=" stroke:none;fill-rule:nonzero;fill:rgb(0%,0%,0%);fill-opacity:1;" d="M 52.261719 15.605469 C 53.941406 15.410156 54.761719 15.117188 55.777344 14.394531 C 57.320312 13.261719 58.238281 11.40625 58.238281 9.394531 C 58.238281 6.914062 56.871094 5.175781 54.9375 5.175781 C 53.160156 5.175781 51.832031 6.679688 51.832031 8.691406 C 51.832031 10.527344 52.90625 11.738281 54.527344 11.738281 C 55.347656 11.738281 55.972656 11.484375 56.753906 10.878906 C 56.148438 13.320312 54.488281 14.921875 52.222656 15.3125 Z M 56.792969 9.960938 C 56.792969 10.273438 56.734375 10.410156 56.558594 10.527344 C 56.148438 10.898438 55.601562 11.09375 55.054688 11.09375 C 53.921875 11.09375 53.199219 9.960938 53.199219 8.183594 C 53.199219 7.34375 53.453125 6.445312 53.765625 6.054688 C 54.019531 5.761719 54.390625 5.585938 54.820312 5.585938 C 56.128906 5.585938 56.792969 6.875 56.792969 9.394531 Z M 56.792969 9.960938 "/>
<path style=" stroke:none;fill-rule:nonzero;fill:rgb(0%,0%,0%);fill-opacity:1;" d="M 63.175781 11.425781 L 63.175781 12.382812 L 66.847656 12.382812 L 66.847656 11.425781 Z M 63.175781 11.425781 "/>
<path style=" stroke:none;fill-rule:nonzero;fill:rgb(0%,0%,0%);fill-opacity:1;" d="M 74.65625 13.222656 L 74.460938 13.144531 C 73.914062 14.003906 73.71875 14.140625 73.054688 14.140625 L 69.480469 14.140625 L 71.980469 11.503906 C 73.328125 10.117188 73.894531 8.984375 73.894531 7.8125 C 73.894531 6.328125 72.683594 5.175781 71.140625 5.175781 C 70.320312 5.175781 69.539062 5.507812 68.992188 6.09375 C 68.503906 6.601562 68.289062 7.089844 68.035156 8.144531 L 68.347656 8.222656 C 68.933594 6.757812 69.480469 6.269531 70.515625 6.269531 C 71.765625 6.269531 72.625 7.128906 72.625 8.378906 C 72.625 9.550781 71.921875 10.9375 70.671875 12.265625 L 68.015625 15.097656 L 68.015625 15.273438 L 73.835938 15.273438 Z M 74.65625 13.222656 "/>
<path style=" stroke:none;fill-rule:nonzero;fill:rgb(0%,0%,0%);fill-opacity:1;" d="M 76.914062 13.789062 C 76.464844 13.789062 76.09375 14.160156 76.09375 14.628906 C 76.09375 15.058594 76.464844 15.429688 76.894531 15.429688 C 77.363281 15.429688 77.734375 15.058594 77.734375 14.628906 C 77.734375 14.160156 77.363281 13.789062 76.914062 13.789062 Z M 76.914062 13.789062 "/>
<path style=" stroke:none;fill-rule:nonzero;fill:rgb(0%,0%,0%);fill-opacity:1;" d="M 83.113281 9.726562 C 84.597656 8.945312 85.105469 8.320312 85.105469 7.285156 C 85.105469 6.074219 84.03125 5.175781 82.546875 5.175781 C 80.90625 5.175781 79.695312 6.171875 79.695312 7.539062 C 79.695312 8.496094 79.988281 8.945312 81.550781 10.3125 C 79.949219 11.542969 79.617188 11.992188 79.617188 13.007812 C 79.617188 14.472656 80.789062 15.488281 82.488281 15.488281 C 84.285156 15.488281 85.417969 14.492188 85.417969 12.949219 C 85.417969 11.816406 84.910156 11.074219 83.113281 9.726562 Z M 82.839844 11.269531 C 83.933594 12.050781 84.285156 12.578125 84.285156 13.417969 C 84.285156 14.394531 83.621094 15.058594 82.644531 15.058594 C 81.511719 15.058594 80.75 14.199219 80.75 12.890625 C 80.75 11.933594 81.082031 11.308594 81.941406 10.605469 Z M 82.683594 9.453125 C 81.355469 8.59375 80.808594 7.910156 80.808594 7.070312 C 80.808594 6.210938 81.472656 5.585938 82.429688 5.585938 C 83.445312 5.585938 84.089844 6.25 84.089844 7.285156 C 84.089844 8.125 83.660156 8.808594 82.820312 9.375 C 82.742188 9.414062 82.742188 9.414062 82.683594 9.453125 Z M 82.683594 9.453125 "/>
<path style=" stroke:none;fill-rule:nonzero;fill:rgb(0%,0%,0%);fill-opacity:1;" d="M 91.859375 13.789062 C 91.410156 13.789062 91.039062 14.160156 91.039062 14.628906 C 91.039062 15.058594 91.410156 15.429688 91.839844 15.429688 C 92.308594 15.429688 92.679688 15.058594 92.679688 14.628906 C 92.679688 14.160156 92.308594 13.789062 91.859375 13.789062 Z M 91.859375 13.789062 "/>
<path style=" stroke:none;fill-rule:nonzero;fill:rgb(0%,0%,0%);fill-opacity:1;" d="M 100.808594 13.222656 L 100.613281 13.144531 C 100.066406 14.003906 99.871094 14.140625 99.207031 14.140625 L 95.632812 14.140625 L 98.132812 11.503906 C 99.480469 10.117188 100.046875 8.984375 100.046875 7.8125 C 100.046875 6.328125 98.835938 5.175781 97.292969 5.175781 C 96.472656 5.175781 95.691406 5.507812 95.144531 6.09375 C 94.65625 6.601562 94.441406 7.089844 94.1875 8.144531 L 94.5 8.222656 C 95.085938 6.757812 95.632812 6.269531 96.667969 6.269531 C 97.917969 6.269531 98.777344 7.128906 98.777344 8.378906 C 98.777344 9.550781 98.074219 10.9375 96.824219 12.265625 L 94.167969 15.097656 L 94.167969 15.273438 L 99.988281 15.273438 Z M 100.808594 13.222656 "/>
<path style=" stroke:none;fill-rule:nonzero;fill:rgb(0%,0%,0%);fill-opacity:1;" d="M 108.242188 11.816406 L 106.71875 11.816406 L 106.71875 5.175781 L 106.054688 5.175781 L 101.367188 11.816406 L 101.367188 12.773438 L 105.566406 12.773438 L 105.566406 15.273438 L 106.71875 15.273438 L 106.71875 12.773438 L 108.242188 12.773438 Z M 105.546875 11.816406 L 101.972656 11.816406 L 105.546875 6.699219 Z M 105.546875 11.816406 "/>
<path style=" stroke:none;fill-rule:nonzero;fill:rgb(0%,0%,0%);fill-opacity:1;" d="M 109.542969 15.605469 C 111.222656 15.410156 112.042969 15.117188 113.058594 14.394531 C 114.601562 13.261719 115.519531 11.40625 115.519531 9.394531 C 115.519531 6.914062 114.152344 5.175781 112.21875 5.175781 C 110.441406 5.175781 109.113281 6.679688 109.113281 8.691406 C 109.113281 10.527344 110.1875 11.738281 111.808594 11.738281 C 112.628906 11.738281 113.253906 11.484375 114.035156 10.878906 C 113.429688 13.320312 111.769531 14.921875 109.503906 15.3125 Z M 114.074219 9.960938 C 114.074219 10.273438 114.015625 10.410156 113.839844 10.527344 C 113.429688 10.898438 112.882812 11.09375 112.335938 11.09375 C 111.203125 11.09375 110.480469 9.960938 110.480469 8.183594 C 110.480469 7.34375 110.734375 6.445312 111.046875 6.054688 C 111.300781 5.761719 111.671875 5.585938 112.101562 5.585938 C 113.410156 5.585938 114.074219 6.875 114.074219 9.394531 Z M 114.074219 9.960938 "/>
<path style=" stroke:none;fill-rule:nonzero;fill:rgb(0%,0%,0%);fill-opacity:1;" d="M 120.472656 9.726562 C 121.957031 8.945312 122.464844 8.320312 122.464844 7.285156 C 122.464844 6.074219 121.390625 5.175781 119.90625 5.175781 C 118.265625 5.175781 117.054688 6.171875 117.054688 7.539062 C 117.054688 8.496094 117.347656 8.945312 118.910156 10.3125 C 117.308594 11.542969 116.976562 11.992188 116.976562 13.007812 C 116.976562 14.472656 118.148438 15.488281 119.847656 15.488281 C 121.644531 15.488281 122.777344 14.492188 122.777344 12.949219 C 122.777344 11.816406 122.269531 11.074219 120.472656 9.726562 Z M 120.199219 11.269531 C 121.292969 12.050781 121.644531 12.578125 121.644531 13.417969 C 121.644531 14.394531 120.980469 15.058594 120.003906 15.058594 C 118.871094 15.058594 118.109375 14.199219 118.109375 12.890625 C 118.109375 11.933594 118.441406 11.308594 119.300781 10.605469 Z M 120.042969 9.453125 C 118.714844 8.59375 118.167969 7.910156 118.167969 7.070312 C 118.167969 6.210938 118.832031 5.585938 119.789062 5.585938 C 120.804688 5.585938 121.449219 6.25 121.449219 7.285156 C 121.449219 8.125 121.019531 8.808594 120.179688 9.375 C 120.101562 9.414062 120.101562 9.414062 120.042969 9.453125 Z M 120.042969 9.453125 "/>
<path style=" stroke:none;fill-rule:nonzero;fill:rgb(0%,0%,0%);fill-opacity:1;" d="M 127.929688 11.425781 L 127.929688 12.382812 L 131.601562 12.382812 L 131.601562 11.425781 Z M 127.929688 11.425781 "/>
<path style=" stroke:none;fill-rule:nonzero;fill:rgb(0%,0%,0%);fill-opacity:1;" d="M 139.410156 13.222656 L 139.214844 13.144531 C 138.667969 14.003906 138.472656 14.140625 137.808594 14.140625 L 134.234375 14.140625 L 136.734375 11.503906 C 138.082031 10.117188 138.648438 8.984375 138.648438 7.8125 C 138.648438 6.328125 137.4375 5.175781 135.894531 5.175781 C 135.074219 5.175781 134.292969 5.507812 133.746094 6.09375 C 133.257812 6.601562 133.042969 7.089844 132.789062 8.144531 L 133.101562 8.222656 C 133.6875 6.757812 134.234375 6.269531 135.269531 6.269531 C 136.519531 6.269531 137.378906 7.128906 137.378906 8.378906 C 137.378906 9.550781 136.675781 10.9375 135.425781 12.265625 L 132.769531 15.097656 L 132.769531 15.273438 L 138.589844 15.273438 Z M 139.410156 13.222656 "/>
<path style=" stroke:none;fill-rule:nonzero;fill:rgb(0%,0%,0%);fill-opacity:1;" d="M 141.667969 13.789062 C 141.21875 13.789062 140.847656 14.160156 140.847656 14.628906 C 140.847656 15.058594 141.21875 15.429688 141.648438 15.429688 C 142.117188 15.429688 142.488281 15.058594 142.488281 14.628906 C 142.488281 14.160156 142.117188 13.789062 141.667969 13.789062 Z M 141.667969 13.789062 "/>
<path style=" stroke:none;fill-rule:nonzero;fill:rgb(0%,0%,0%);fill-opacity:1;" d="M 150.1875 5.058594 C 148.488281 5.195312 147.628906 5.488281 146.535156 6.25 C 144.914062 7.402344 144.035156 9.101562 144.035156 11.113281 C 144.035156 12.402344 144.445312 13.710938 145.089844 14.472656 C 145.65625 15.117188 146.457031 15.488281 147.375 15.488281 C 149.230469 15.488281 150.519531 14.0625 150.519531 11.992188 C 150.519531 10.097656 149.425781 8.886719 147.707031 8.886719 C 147.0625 8.886719 146.730469 8.984375 145.792969 9.550781 C 146.203125 7.285156 147.882812 5.683594 150.226562 5.292969 Z M 147.140625 9.570312 C 148.429688 9.570312 149.171875 10.644531 149.171875 12.5 C 149.171875 14.160156 148.585938 15.058594 147.550781 15.058594 C 146.222656 15.058594 145.421875 13.652344 145.421875 11.347656 C 145.421875 10.585938 145.539062 10.15625 145.851562 9.941406 C 146.164062 9.707031 146.613281 9.570312 147.140625 9.570312 Z M 147.140625 9.570312 "/>
<path style=" stroke:none;fill-rule:nonzero;fill:rgb(0%,0%,0%);fill-opacity:1;" d="M 156.609375 13.789062 C 156.160156 13.789062 155.789062 14.160156 155.789062 14.628906 C 155.789062 15.058594 156.160156 15.429688 156.589844 15.429688 C 157.058594 15.429688 157.429688 15.058594 157.429688 14.628906 C 157.429688 14.160156 157.058594 13.789062 156.609375 13.789062 Z M 156.609375 13.789062 "/>
<path style=" stroke:none;fill-rule:nonzero;fill:rgb(0%,0%,0%);fill-opacity:1;" d="M 160.757812 10.351562 C 161.636719 10.351562 161.988281 10.371094 162.339844 10.507812 C 163.277344 10.839844 163.84375 11.679688 163.84375 12.714844 C 163.84375 13.964844 163.003906 14.941406 161.890625 14.941406 C 161.5 14.941406 161.1875 14.84375 160.640625 14.472656 C 160.191406 14.21875 159.9375 14.101562 159.683594 14.101562 C 159.332031 14.101562 159.117188 14.316406 159.117188 14.628906 C 159.117188 15.15625 159.761719 15.488281 160.796875 15.488281 C 161.949219 15.488281 163.140625 15.097656 163.84375 14.472656 C 164.546875 13.867188 164.917969 13.007812 164.917969 11.992188 C 164.917969 11.230469 164.683594 10.527344 164.253906 10.078125 C 163.960938 9.746094 163.667969 9.570312 163.023438 9.277344 C 164.039062 8.574219 164.410156 8.027344 164.410156 7.226562 C 164.410156 6.015625 163.472656 5.175781 162.085938 5.175781 C 161.34375 5.175781 160.679688 5.429688 160.152344 5.898438 C 159.703125 6.308594 159.46875 6.699219 159.136719 7.597656 L 159.371094 7.65625 C 159.976562 6.5625 160.660156 6.074219 161.597656 6.074219 C 162.574219 6.074219 163.238281 6.71875 163.238281 7.675781 C 163.238281 8.203125 163.023438 8.75 162.632812 9.121094 C 162.183594 9.570312 161.773438 9.785156 160.757812 10.15625 Z M 160.757812 10.351562 "/>
<path style=" stroke:none;fill-rule:nonzero;fill:rgb(0%,0%,0%);fill-opacity:1;" d="M 173.035156 13.222656 L 172.839844 13.144531 C 172.292969 14.003906 172.097656 14.140625 171.433594 14.140625 L 167.859375 14.140625 L 170.359375 11.503906 C 171.707031 10.117188 172.273438 8.984375 172.273438 7.8125 C 172.273438 6.328125 171.0625 5.175781 169.519531 5.175781 C 168.699219 5.175781 167.917969 5.507812 167.371094 6.09375 C 166.882812 6.601562 166.667969 7.089844 166.414062 8.144531 L 166.726562 8.222656 C 167.3125 6.757812 167.859375 6.269531 168.894531 6.269531 C 170.144531 6.269531 171.003906 7.128906 171.003906 8.378906 C 171.003906 9.550781 170.300781 10.9375 169.050781 12.265625 L 166.394531 15.097656 L 166.394531 15.273438 L 172.214844 15.273438 Z M 173.035156 13.222656 "/>
<path style=" stroke:none;fill-rule:nonzero;fill:rgb(0%,0%,0%);fill-opacity:1;" d="M 180.113281 5.390625 L 174.585938 5.390625 L 173.707031 7.578125 L 173.960938 7.695312 C 174.605469 6.679688 174.878906 6.484375 175.699219 6.484375 L 178.941406 6.484375 L 175.992188 15.390625 L 176.949219 15.390625 L 180.113281 5.625 Z M 180.113281 5.390625 "/>
<path style=" stroke:none;fill-rule:nonzero;fill:rgb(0%,0%,0%);fill-opacity:1;" d="M 185.242188 5.175781 L 182.546875 6.523438 L 182.546875 6.738281 C 182.722656 6.660156 182.898438 6.601562 182.957031 6.582031 C 183.210938 6.464844 183.464844 6.40625 183.621094 6.40625 C 183.933594 6.40625 184.070312 6.640625 184.070312 7.109375 L 184.070312 13.886719 C 184.070312 14.375 183.953125 14.726562 183.71875 14.863281 C 183.484375 14.980469 183.269531 15.039062 182.644531 15.058594 L 182.644531 15.273438 L 186.765625 15.273438 L 186.765625 15.058594 C 185.59375 15.039062 185.359375 14.882812 185.359375 14.160156 L 185.359375 5.195312 Z M 185.242188 5.175781 "/>
<path style=" stroke:none;fill-rule:nonzero;fill:rgb(0%,0%,0%);fill-opacity:1;" d="M 192.683594 11.425781 L 192.683594 12.382812 L 196.355469 12.382812 L 196.355469 11.425781 Z M 192.683594 11.425781 "/>
<path style=" stroke:none;fill-rule:nonzero;fill:rgb(0%,0%,0%);fill-opacity:1;" d="M 204.160156 13.222656 L 203.964844 13.144531 C 203.417969 14.003906 203.222656 14.140625 202.558594 14.140625 L 198.984375 14.140625 L 201.484375 11.503906 C 202.832031 10.117188 203.398438 8.984375 203.398438 7.8125 C 203.398438 6.328125 202.1875 5.175781 200.644531 5.175781 C 199.824219 5.175781 199.042969 5.507812 198.496094 6.09375 C 198.007812 6.601562 197.792969 7.089844 197.539062 8.144531 L 197.851562 8.222656 C 198.4375 6.757812 198.984375 6.269531 200.019531 6.269531 C 201.269531 6.269531 202.128906 7.128906 202.128906 8.378906 C 202.128906 9.550781 201.425781 10.9375 200.175781 12.265625 L 197.519531 15.097656 L 197.519531 15.273438 L 203.339844 15.273438 Z M 204.160156 13.222656 "/>
<path style=" stroke:none;fill-rule:nonzero;fill:rgb(0%,0%,0%);fill-opacity:1;" d="M 206.417969 13.789062 C 205.96875 13.789062 205.597656 14.160156 205.597656 14.628906 C 205.597656 15.058594 205.96875 15.429688 206.398438 15.429688 C 206.867188 15.429688 207.238281 15.058594 207.238281 14.628906 C 207.238281 14.160156 206.867188 13.789062 206.417969 13.789062 Z M 206.417969 13.789062 "/>
<path style=" stroke:none;fill-rule:nonzero;fill:rgb(0%,0%,0%);fill-opacity:1;" d="M 215.332031 11.816406 L 213.808594 11.816406 L 213.808594 5.175781 L 213.144531 5.175781 L 208.457031 11.816406 L 208.457031 12.773438 L 212.65625 12.773438 L 212.65625 15.273438 L 213.808594 15.273438 L 213.808594 12.773438 L 215.332031 12.773438 Z M 212.636719 11.816406 L 209.0625 11.816406 L 212.636719 6.699219 Z M 212.636719 11.816406 "/>
<path style=" stroke:none;fill-rule:nonzero;fill:rgb(0%,0%,0%);fill-opacity:1;" d="M 221.363281 13.789062 C 220.914062 13.789062 220.542969 14.160156 220.542969 14.628906 C 220.542969 15.058594 220.914062 15.429688 221.34375 15.429688 C 221.8125 15.429688 222.183594 15.058594 222.183594 14.628906 C 222.183594 14.160156 221.8125 13.789062 221.363281 13.789062 Z M 221.363281 13.789062 "/>
<path style=" stroke:none;fill-rule:nonzero;fill:rgb(0%,0%,0%);fill-opacity:1;" d="M 230.273438 11.816406 L 228.75 11.816406 L 228.75 5.175781 L 228.085938 5.175781 L 223.398438 11.816406 L 223.398438 12.773438 L 227.597656 12.773438 L 227.597656 15.273438 L 228.75 15.273438 L 228.75 12.773438 L 230.273438 12.773438 Z M 227.578125 11.816406 L 224.003906 11.816406 L 227.578125 6.699219 Z M 227.578125 11.816406 "/>
<path style=" stroke:none;fill-rule:nonzero;fill:rgb(0%,0%,0%);fill-opacity:1;" d="M 237.785156 13.222656 L 237.589844 13.144531 C 237.042969 14.003906 236.847656 14.140625 236.183594 14.140625 L 232.609375 14.140625 L 235.109375 11.503906 C 236.457031 10.117188 237.023438 8.984375 237.023438 7.8125 C 237.023438 6.328125 235.8125 5.175781 234.269531 5.175781 C 233.449219 5.175781 232.667969 5.507812 232.121094 6.09375 C 231.632812 6.601562 231.417969 7.089844 231.164062 8.144531 L 231.476562 8.222656 C 232.0625 6.757812 232.609375 6.269531 233.644531 6.269531 C 234.894531 6.269531 235.753906 7.128906 235.753906 8.378906 C 235.753906 9.550781 235.050781 10.9375 233.800781 12.265625 L 231.144531 15.097656 L 231.144531 15.273438 L 236.964844 15.273438 Z M 237.785156 13.222656 "/>
<path style=" stroke:none;fill-rule:nonzero;fill:rgb(0%,0%,0%);fill-opacity:1;" d="M 241.957031 5.175781 C 241.136719 5.175781 240.511719 5.429688 239.964844 5.957031 C 239.085938 6.777344 238.519531 8.496094 238.519531 10.253906 C 238.519531 11.875 239.027344 13.632812 239.730469 14.472656 C 240.277344 15.117188 241.039062 15.488281 241.898438 15.488281 C 242.660156 15.488281 243.304688 15.234375 243.851562 14.707031 C 244.710938 13.886719 245.277344 12.148438 245.277344 10.351562 C 245.277344 7.285156 243.929688 5.175781 241.957031 5.175781 Z M 241.917969 5.566406 C 243.167969 5.566406 243.851562 7.246094 243.851562 10.371094 C 243.851562 13.496094 243.1875 15.097656 241.898438 15.097656 C 240.609375 15.097656 239.964844 13.496094 239.964844 10.390625 C 239.964844 7.226562 240.628906 5.566406 241.917969 5.566406 Z M 241.917969 5.566406 "/>
<path style=" stroke:none;fill-rule:nonzero;fill:rgb(0%,0%,0%);fill-opacity:1;" d="M 249.429688 5.175781 C 248.609375 5.175781 247.984375 5.429688 247.4375 5.957031 C 246.558594 6.777344 245.992188 8.496094 245.992188 10.253906 C 245.992188 11.875 246.5 13.632812 247.203125 14.472656 C 247.75 15.117188 248.511719 15.488281 249.371094 15.488281 C 250.132812 15.488281 250.777344 15.234375 251.324219 14.707031 C 252.183594 13.886719 252.75 12.148438 252.75 10.351562 C 252.75 7.285156 251.402344 5.175781 249.429688 5.175781 Z M 249.390625 5.566406 C 250.640625 5.566406 251.324219 7.246094 251.324219 10.371094 C 251.324219 13.496094 250.660156 15.097656 249.371094 15.097656 C 248.082031 15.097656 247.4375 13.496094 247.4375 10.390625 C 247.4375 7.226562 248.101562 5.566406 249.390625 5.566406 Z M 249.390625 5.566406 "/>
<path style=" stroke:none;fill-rule:nonzero;fill:rgb(0%,0%,0%);fill-opacity:1;" d="M 257.433594 11.425781 L 257.433594 12.382812 L 261.105469 12.382812 L 261.105469 11.425781 Z M 257.433594 11.425781 "/>
<path style=" stroke:none;fill-rule:nonzero;fill:rgb(0%,0%,0%);fill-opacity:1;" d="M 268.914062 13.222656 L 268.71875 13.144531 C 268.171875 14.003906 267.976562 14.140625 267.3125 14.140625 L 263.738281 14.140625 L 266.238281 11.503906 C 267.585938 10.117188 268.152344 8.984375 268.152344 7.8125 C 268.152344 6.328125 266.941406 5.175781 265.398438 5.175781 C 264.578125 5.175781 263.796875 5.507812 263.25 6.09375 C 262.761719 6.601562 262.546875 7.089844 262.292969 8.144531 L 262.605469 8.222656 C 263.191406 6.757812 263.738281 6.269531 264.773438 6.269531 C 266.023438 6.269531 266.882812 7.128906 266.882812 8.378906 C 266.882812 9.550781 266.179688 10.9375 264.929688 12.265625 L 262.273438 15.097656 L 262.273438 15.273438 L 268.09375 15.273438 Z M 268.914062 13.222656 "/>
<path style=" stroke:none;fill-rule:nonzero;fill:rgb(0%,0%,0%);fill-opacity:1;" d="M 271.171875 13.789062 C 270.722656 13.789062 270.351562 14.160156 270.351562 14.628906 C 270.351562 15.058594 270.722656 15.429688 271.152344 15.429688 C 271.621094 15.429688 271.992188 15.058594 271.992188 14.628906 C 271.992188 14.160156 271.621094 13.789062 271.171875 13.789062 Z M 271.171875 13.789062 "/>
<path style=" stroke:none;fill-rule:nonzero;fill:rgb(0%,0%,0%);fill-opacity:1;" d="M 280.121094 13.222656 L 279.925781 13.144531 C 279.378906 14.003906 279.183594 14.140625 278.519531 14.140625 L 274.945312 14.140625 L 277.445312 11.503906 C 278.792969 10.117188 279.359375 8.984375 279.359375 7.8125 C 279.359375 6.328125 278.148438 5.175781 276.605469 5.175781 C 275.785156 5.175781 275.003906 5.507812 274.457031 6.09375 C 273.96875 6.601562 273.753906 7.089844 273.5 8.144531 L 273.8125 8.222656 C 274.398438 6.757812 274.945312 6.269531 275.980469 6.269531 C 277.230469 6.269531 278.089844 7.128906 278.089844 8.378906 C 278.089844 9.550781 277.386719 10.9375 276.136719 12.265625 L 273.480469 15.097656 L 273.480469 15.273438 L 279.300781 15.273438 Z M 280.121094 13.222656 "/>
<path style=" stroke:none;fill-rule:nonzero;fill:rgb(0%,0%,0%);fill-opacity:1;" d="M 286.117188 13.789062 C 285.667969 13.789062 285.296875 14.160156 285.296875 14.628906 C 285.296875 15.058594 285.667969 15.429688 286.097656 15.429688 C 286.566406 15.429688 286.9375 15.058594 286.9375 14.628906 C 286.9375 14.160156 286.566406 13.789062 286.117188 13.789062 Z M 286.117188 13.789062 "/>
<path style=" stroke:none;fill-rule:nonzero;fill:rgb(0%,0%,0%);fill-opacity:1;" d="M 290.671875 6.5625 L 293.601562 6.5625 C 293.855469 6.5625 293.914062 6.523438 293.953125 6.425781 L 294.519531 5.097656 L 294.382812 5 C 294.167969 5.3125 294.011719 5.390625 293.699219 5.390625 L 290.574219 5.390625 L 288.953125 8.925781 C 288.933594 8.945312 288.933594 8.964844 288.933594 9.003906 C 288.933594 9.082031 288.992188 9.121094 289.109375 9.121094 C 289.597656 9.121094 290.183594 9.21875 290.808594 9.414062 C 292.527344 9.960938 293.308594 10.898438 293.308594 12.382812 C 293.308594 13.808594 292.390625 14.921875 291.238281 14.921875 C 290.925781 14.921875 290.671875 14.824219 290.242188 14.492188 C 289.753906 14.160156 289.402344 14.003906 289.089844 14.003906 C 288.660156 14.003906 288.445312 14.179688 288.445312 14.550781 C 288.445312 15.117188 289.148438 15.488281 290.28125 15.488281 C 291.53125 15.488281 292.605469 15.078125 293.347656 14.316406 C 294.050781 13.652344 294.363281 12.792969 294.363281 11.660156 C 294.363281 10.585938 294.070312 9.902344 293.328125 9.140625 C 292.664062 8.496094 291.824219 8.144531 290.046875 7.832031 Z M 290.671875 6.5625 "/>
<path style=" stroke:none;fill-rule:nonzero;fill:rgb(0%,0%,0%);fill-opacity:1;" d="M 302.539062 13.222656 L 302.34375 13.144531 C 301.796875 14.003906 301.601562 14.140625 300.9375 14.140625 L 297.363281 14.140625 L 299.863281 11.503906 C 301.210938 10.117188 301.777344 8.984375 301.777344 7.8125 C 301.777344 6.328125 300.566406 5.175781 299.023438 5.175781 C 298.203125 5.175781 297.421875 5.507812 296.875 6.09375 C 296.386719 6.601562 296.171875 7.089844 295.917969 8.144531 L 296.230469 8.222656 C 296.816406 6.757812 297.363281 6.269531 298.398438 6.269531 C 299.648438 6.269531 300.507812 7.128906 300.507812 8.378906 C 300.507812 9.550781 299.804688 10.9375 298.554688 12.265625 L 295.898438 15.097656 L 295.898438 15.273438 L 301.71875 15.273438 Z M 302.539062 13.222656 "/>
<path style=" stroke:none;fill-rule:nonzero;fill:rgb(0%,0%,0%);fill-opacity:1;" d="M 307.257812 9.726562 C 308.742188 8.945312 309.25 8.320312 309.25 7.285156 C 309.25 6.074219 308.175781 5.175781 306.691406 5.175781 C 305.050781 5.175781 303.839844 6.171875 303.839844 7.539062 C 303.839844 8.496094 304.132812 8.945312 305.695312 10.3125 C 304.09375 11.542969 303.761719 11.992188 303.761719 13.007812 C 303.761719 14.472656 304.933594 15.488281 306.632812 15.488281 C 308.429688 15.488281 309.5625 14.492188 309.5625 12.949219 C 309.5625 11.816406 309.054688 11.074219 307.257812 9.726562 Z M 306.984375 11.269531 C 308.078125 12.050781 308.429688 12.578125 308.429688 13.417969 C 308.429688 14.394531 307.765625 15.058594 306.789062 15.058594 C 305.65625 15.058594 304.894531 14.199219 304.894531 12.890625 C 304.894531 11.933594 305.226562 11.308594 306.085938 10.605469 Z M 306.828125 9.453125 C 305.5 8.59375 304.953125 7.910156 304.953125 7.070312 C 304.953125 6.210938 305.617188 5.585938 306.574219 5.585938 C 307.589844 5.585938 308.234375 6.25 308.234375 7.285156 C 308.234375 8.125 307.804688 8.808594 306.964844 9.375 C 306.886719 9.414062 306.886719 9.414062 306.828125 9.453125 Z M 306.828125 9.453125 "/>
<path style=" stroke:none;fill-rule:nonzero;fill:rgb(0%,0%,0%);fill-opacity:1;" d="M 317.089844 5.390625 L 311.5625 5.390625 L 310.683594 7.578125 L 310.9375 7.695312 C 311.582031 6.679688 311.855469 6.484375 312.675781 6.484375 L 315.917969 6.484375 L 312.96875 15.390625 L 313.925781 15.390625 L 317.089844 5.625 Z M 317.089844 5.390625 "/>
<path style=" stroke:none;fill-rule:nonzero;fill:rgb(0%,0%,0%);fill-opacity:1;" d="M 322.1875 11.425781 L 322.1875 12.382812 L 325.859375 12.382812 L 325.859375 11.425781 Z M 322.1875 11.425781 "/>
<path style=" stroke:none;fill-rule:nonzero;fill:rgb(0%,0%,0%);fill-opacity:1;" d="M 333.667969 13.222656 L 333.472656 13.144531 C 332.925781 14.003906 332.730469 14.140625 332.066406 14.140625 L 328.492188 14.140625 L 330.992188 11.503906 C 332.339844 10.117188 332.90625 8.984375 332.90625 7.8125 C 332.90625 6.328125 331.695312 5.175781 330.152344 5.175781 C 329.332031 5.175781 328.550781 5.507812 328.003906 6.09375 C 327.515625 6.601562 327.300781 7.089844 327.046875 8.144531 L 327.359375 8.222656 C 327.945312 6.757812 328.492188 6.269531 329.527344 6.269531 C 330.777344 6.269531 331.636719 7.128906 331.636719 8.378906 C 331.636719 9.550781 330.933594 10.9375 329.683594 12.265625 L 327.027344 15.097656 L 327.027344 15.273438 L 332.847656 15.273438 Z M 333.667969 13.222656 "/>
<path style=" stroke:none;fill-rule:nonzero;fill:rgb(0%,0%,0%);fill-opacity:1;" d="M 335.921875 13.789062 C 335.472656 13.789062 335.101562 14.160156 335.101562 14.628906 C 335.101562 15.058594 335.472656 15.429688 335.902344 15.429688 C 336.371094 15.429688 336.742188 15.058594 336.742188 14.628906 C 336.742188 14.160156 336.371094 13.789062 335.921875 13.789062 Z M 335.921875 13.789062 "/>
<path style=" stroke:none;fill-rule:nonzero;fill:rgb(0%,0%,0%);fill-opacity:1;" d="M 344.292969 13.789062 C 343.84375 13.789062 343.472656 14.160156 343.472656 14.628906 C 343.472656 15.058594 343.84375 15.429688 344.273438 15.429688 C 344.742188 15.429688 345.113281 15.058594 345.113281 14.628906 C 345.113281 14.160156 344.742188 13.789062 344.292969 13.789062 Z M 344.292969 13.789062 "/>
<path style=" stroke:none;fill-rule:nonzero;fill:rgb(0%,0%,0%);fill-opacity:1;" d="M 352.8125 5.058594 C 351.113281 5.195312 350.253906 5.488281 349.160156 6.25 C 347.539062 7.402344 346.660156 9.101562 346.660156 11.113281 C 346.660156 12.402344 347.070312 13.710938 347.714844 14.472656 C 348.28125 15.117188 349.082031 15.488281 350 15.488281 C 351.855469 15.488281 353.144531 14.0625 353.144531 11.992188 C 353.144531 10.097656 352.050781 8.886719 350.332031 8.886719 C 349.6875 8.886719 349.355469 8.984375 348.417969 9.550781 C 348.828125 7.285156 350.507812 5.683594 352.851562 5.292969 Z M 349.765625 9.570312 C 351.054688 9.570312 351.796875 10.644531 351.796875 12.5 C 351.796875 14.160156 351.210938 15.058594 350.175781 15.058594 C 348.847656 15.058594 348.046875 13.652344 348.046875 11.347656 C 348.046875 10.585938 348.164062 10.15625 348.476562 9.941406 C 348.789062 9.707031 349.238281 9.570312 349.765625 9.570312 Z M 349.765625 9.570312 "/>
<path style=" stroke:none;fill-rule:nonzero;fill:rgb(0%,0%,0%);fill-opacity:1;" d="M 356.320312 6.5625 L 359.25 6.5625 C 359.503906 6.5625 359.5625 6.523438 359.601562 6.425781 L 360.167969 5.097656 L 360.03125 5 C 359.816406 5.3125 359.660156 5.390625 359.347656 5.390625 L 356.222656 5.390625 L 354.601562 8.925781 C 354.582031 8.945312 354.582031 8.964844 354.582031 9.003906 C 354.582031 9.082031 354.640625 9.121094 354.757812 9.121094 C 355.246094 9.121094 355.832031 9.21875 356.457031 9.414062 C 358.175781 9.960938 358.957031 10.898438 358.957031 12.382812 C 358.957031 13.808594 358.039062 14.921875 356.886719 14.921875 C 356.574219 14.921875 356.320312 14.824219 355.890625 14.492188 C 355.402344 14.160156 355.050781 14.003906 354.738281 14.003906 C 354.308594 14.003906 354.09375 14.179688 354.09375 14.550781 C 354.09375 15.117188 354.796875 15.488281 355.929688 15.488281 C 357.179688 15.488281 358.253906 15.078125 358.996094 14.316406 C 359.699219 13.652344 360.011719 12.792969 360.011719 11.660156 C 360.011719 10.585938 359.71875 9.902344 358.976562 9.140625 C 358.3125 8.496094 357.472656 8.144531 355.695312 7.832031 Z M 356.320312 6.5625 "/>
<path style=" stroke:none;fill-rule:nonzero;fill:rgb(0%,0%,0%);fill-opacity:1;" d="M 368.1875 13.222656 L 367.992188 13.144531 C 367.445312 14.003906 367.25 14.140625 366.585938 14.140625 L 363.011719 14.140625 L 365.511719 11.503906 C 366.859375 10.117188 367.425781 8.984375 367.425781 7.8125 C 367.425781 6.328125 366.214844 5.175781 364.671875 5.175781 C 363.851562 5.175781 363.070312 5.507812 362.523438 6.09375 C 362.035156 6.601562 361.820312 7.089844 361.566406 8.144531 L 361.878906 8.222656 C 362.464844 6.757812 363.011719 6.269531 364.046875 6.269531 C 365.296875 6.269531 366.15625 7.128906 366.15625 8.378906 C 366.15625 9.550781 365.453125 10.9375 364.203125 12.265625 L 361.546875 15.097656 L 361.546875 15.273438 L 367.367188 15.273438 Z M 368.1875 13.222656 "/>
<path style=" stroke:none;fill-rule:nonzero;fill:rgb(0%,0%,0%);fill-opacity:1;" d="M 370.855469 10.351562 C 371.734375 10.351562 372.085938 10.371094 372.4375 10.507812 C 373.375 10.839844 373.941406 11.679688 373.941406 12.714844 C 373.941406 13.964844 373.101562 14.941406 371.988281 14.941406 C 371.597656 14.941406 371.285156 14.84375 370.738281 14.472656 C 370.289062 14.21875 370.035156 14.101562 369.78125 14.101562 C 369.429688 14.101562 369.214844 14.316406 369.214844 14.628906 C 369.214844 15.15625 369.859375 15.488281 370.894531 15.488281 C 372.046875 15.488281 373.238281 15.097656 373.941406 14.472656 C 374.644531 13.867188 375.015625 13.007812 375.015625 11.992188 C 375.015625 11.230469 374.78125 10.527344 374.351562 10.078125 C 374.058594 9.746094 373.765625 9.570312 373.121094 9.277344 C 374.136719 8.574219 374.507812 8.027344 374.507812 7.226562 C 374.507812 6.015625 373.570312 5.175781 372.183594 5.175781 C 371.441406 5.175781 370.777344 5.429688 370.25 5.898438 C 369.800781 6.308594 369.566406 6.699219 369.234375 7.597656 L 369.46875 7.65625 C 370.074219 6.5625 370.757812 6.074219 371.695312 6.074219 C 372.671875 6.074219 373.335938 6.71875 373.335938 7.675781 C 373.335938 8.203125 373.121094 8.75 372.730469 9.121094 C 372.28125 9.570312 371.871094 9.785156 370.855469 10.15625 Z M 370.855469 10.351562 "/>
<path style=" stroke:none;fill-rule:nonzero;fill:rgb(0%,0%,0%);fill-opacity:1;" d="M 380.363281 11.425781 L 380.363281 12.382812 L 384.035156 12.382812 L 384.035156 11.425781 Z M 380.363281 11.425781 "/>
<path style=" stroke:none;fill-rule:nonzero;fill:rgb(0%,0%,0%);fill-opacity:1;" d="M 389.109375 5.175781 L 386.414062 6.523438 L 386.414062 6.738281 C 386.589844 6.660156 386.765625 6.601562 386.824219 6.582031 C 387.078125 6.464844 387.332031 6.40625 387.488281 6.40625 C 387.800781 6.40625 387.9375 6.640625 387.9375 7.109375 L 387.9375 13.886719 C 387.9375 14.375 387.820312 14.726562 387.585938 14.863281 C 387.351562 14.980469 387.136719 15.039062 386.511719 15.058594 L 386.511719 15.273438 L 390.632812 15.273438 L 390.632812 15.058594 C 389.460938 15.039062 389.226562 14.882812 389.226562 14.160156 L 389.226562 5.195312 Z M 389.109375 5.175781 "/>
<path style=" stroke:none;fill-rule:nonzero;fill:rgb(0%,0%,0%);fill-opacity:1;" d="M 394.101562 13.789062 C 393.652344 13.789062 393.28125 14.160156 393.28125 14.628906 C 393.28125 15.058594 393.652344 15.429688 394.082031 15.429688 C 394.550781 15.429688 394.921875 15.058594 394.921875 14.628906 C 394.921875 14.160156 394.550781 13.789062 394.101562 13.789062 Z M 394.101562 13.789062 "/>
<path style=" stroke:none;fill-rule:nonzero;fill:rgb(0%,0%,0%);fill-opacity:1;" d="M 400.296875 9.726562 C 401.78125 8.945312 402.289062 8.320312 402.289062 7.285156 C 402.289062 6.074219 401.214844 5.175781 399.730469 5.175781 C 398.089844 5.175781 396.878906 6.171875 396.878906 7.539062 C 396.878906 8.496094 397.171875 8.945312 398.734375 10.3125 C 397.132812 11.542969 396.800781 11.992188 396.800781 13.007812 C 396.800781 14.472656 397.972656 15.488281 399.671875 15.488281 C 401.46875 15.488281 402.601562 14.492188 402.601562 12.949219 C 402.601562 11.816406 402.09375 11.074219 400.296875 9.726562 Z M 400.023438 11.269531 C 401.117188 12.050781 401.46875 12.578125 401.46875 13.417969 C 401.46875 14.394531 400.804688 15.058594 399.828125 15.058594 C 398.695312 15.058594 397.933594 14.199219 397.933594 12.890625 C 397.933594 11.933594 398.265625 11.308594 399.125 10.605469 Z M 399.867188 9.453125 C 398.539062 8.59375 397.992188 7.910156 397.992188 7.070312 C 397.992188 6.210938 398.65625 5.585938 399.613281 5.585938 C 400.628906 5.585938 401.273438 6.25 401.273438 7.285156 C 401.273438 8.125 400.84375 8.808594 400.003906 9.375 C 399.925781 9.414062 399.925781 9.414062 399.867188 9.453125 Z M 399.867188 9.453125 "/>
<path style=" stroke:none;fill-rule:nonzero;fill:rgb(0%,0%,0%);fill-opacity:1;" d="M 409.042969 13.789062 C 408.59375 13.789062 408.222656 14.160156 408.222656 14.628906 C 408.222656 15.058594 408.59375 15.429688 409.023438 15.429688 C 409.492188 15.429688 409.863281 15.058594 409.863281 14.628906 C 409.863281 14.160156 409.492188 13.789062 409.042969 13.789062 Z M 409.042969 13.789062 "/>
<path style=" stroke:none;fill-rule:nonzero;fill:rgb(0%,0%,0%);fill-opacity:1;" d="M 417.605469 5.390625 L 412.078125 5.390625 L 411.199219 7.578125 L 411.453125 7.695312 C 412.097656 6.679688 412.371094 6.484375 413.191406 6.484375 L 416.433594 6.484375 L 413.484375 15.390625 L 414.441406 15.390625 L 417.605469 5.625 Z M 417.605469 5.390625 "/>
<path style=" stroke:none;fill-rule:nonzero;fill:rgb(0%,0%,0%);fill-opacity:1;" d="M 422.714844 9.726562 C 424.199219 8.945312 424.707031 8.320312 424.707031 7.285156 C 424.707031 6.074219 423.632812 5.175781 422.148438 5.175781 C 420.507812 5.175781 419.296875 6.171875 419.296875 7.539062 C 419.296875 8.496094 419.589844 8.945312 421.152344 10.3125 C 419.550781 11.542969 419.21875 11.992188 419.21875 13.007812 C 419.21875 14.472656 420.390625 15.488281 422.089844 15.488281 C 423.886719 15.488281 425.019531 14.492188 425.019531 12.949219 C 425.019531 11.816406 424.511719 11.074219 422.714844 9.726562 Z M 422.441406 11.269531 C 423.535156 12.050781 423.886719 12.578125 423.886719 13.417969 C 423.886719 14.394531 423.222656 15.058594 422.246094 15.058594 C 421.113281 15.058594 420.351562 14.199219 420.351562 12.890625 C 420.351562 11.933594 420.683594 11.308594 421.542969 10.605469 Z M 422.285156 9.453125 C 420.957031 8.59375 420.410156 7.910156 420.410156 7.070312 C 420.410156 6.210938 421.074219 5.585938 422.03125 5.585938 C 423.046875 5.585938 423.691406 6.25 423.691406 7.285156 C 423.691406 8.125 423.261719 8.808594 422.421875 9.375 C 422.34375 9.414062 422.34375 9.414062 422.285156 9.453125 Z M 422.285156 9.453125 "/>
<path style=" stroke:none;fill-rule:nonzero;fill:rgb(0%,0%,0%);fill-opacity:1;" d="M 430.1875 9.726562 C 431.671875 8.945312 432.179688 8.320312 432.179688 7.285156 C 432.179688 6.074219 431.105469 5.175781 429.621094 5.175781 C 427.980469 5.175781 426.769531 6.171875 426.769531 7.539062 C 426.769531 8.496094 427.0625 8.945312 428.625 10.3125 C 427.023438 11.542969 426.691406 11.992188 426.691406 13.007812 C 426.691406 14.472656 427.863281 15.488281 429.5625 15.488281 C 431.359375 15.488281 432.492188 14.492188 432.492188 12.949219 C 432.492188 11.816406 431.984375 11.074219 430.1875 9.726562 Z M 429.914062 11.269531 C 431.007812 12.050781 431.359375 12.578125 431.359375 13.417969 C 431.359375 14.394531 430.695312 15.058594 429.71875 15.058594 C 428.585938 15.058594 427.824219 14.199219 427.824219 12.890625 C 427.824219 11.933594 428.15625 11.308594 429.015625 10.605469 Z M 429.757812 9.453125 C 428.429688 8.59375 427.882812 7.910156 427.882812 7.070312 C 427.882812 6.210938 428.546875 5.585938 429.503906 5.585938 C 430.519531 5.585938 431.164062 6.25 431.164062 7.285156 C 431.164062 8.125 430.734375 8.808594 429.894531 9.375 C 429.816406 9.414062 429.816406 9.414062 429.757812 9.453125 Z M 429.757812 9.453125 "/>
<path style=" stroke:none;fill-rule:nonzero;fill:rgb(0%,0%,0%);fill-opacity:1;" d="M 437.65625 9.726562 C 439.140625 8.945312 439.648438 8.320312 439.648438 7.285156 C 439.648438 6.074219 438.574219 5.175781 437.089844 5.175781 C 435.449219 5.175781 434.238281 6.171875 434.238281 7.539062 C 434.238281 8.496094 434.53125 8.945312 436.09375 10.3125 C 434.492188 11.542969 434.160156 11.992188 434.160156 13.007812 C 434.160156 14.472656 435.332031 15.488281 437.03125 15.488281 C 438.828125 15.488281 439.960938 14.492188 439.960938 12.949219 C 439.960938 11.816406 439.453125 11.074219 437.65625 9.726562 Z M 437.382812 11.269531 C 438.476562 12.050781 438.828125 12.578125 438.828125 13.417969 C 438.828125 14.394531 438.164062 15.058594 437.1875 15.058594 C 436.054688 15.058594 435.292969 14.199219 435.292969 12.890625 C 435.292969 11.933594 435.625 11.308594 436.484375 10.605469 Z M 437.226562 9.453125 C 435.898438 8.59375 435.351562 7.910156 435.351562 7.070312 C 435.351562 6.210938 436.015625 5.585938 436.972656 5.585938 C 437.988281 5.585938 438.632812 6.25 438.632812 7.285156 C 438.632812 8.125 438.203125 8.808594 437.363281 9.375 C 437.285156 9.414062 437.285156 9.414062 437.226562 9.453125 Z M 437.226562 9.453125 "/>
<path style=" stroke:none;fill-rule:nonzero;fill:rgb(0%,0%,0%);fill-opacity:1;" d="M 445.117188 11.425781 L 445.117188 12.382812 L 448.789062 12.382812 L 448.789062 11.425781 Z M 445.117188 11.425781 "/>
<path style=" stroke:none;fill-rule:nonzero;fill:rgb(0%,0%,0%);fill-opacity:1;" d="M 453.863281 5.175781 L 451.167969 6.523438 L 451.167969 6.738281 C 451.34375 6.660156 451.519531 6.601562 451.578125 6.582031 C 451.832031 6.464844 452.085938 6.40625 452.242188 6.40625 C 452.554688 6.40625 452.691406 6.640625 452.691406 7.109375 L 452.691406 13.886719 C 452.691406 14.375 452.574219 14.726562 452.339844 14.863281 C 452.105469 14.980469 451.890625 15.039062 451.265625 15.058594 L 451.265625 15.273438 L 455.386719 15.273438 L 455.386719 15.058594 C 454.214844 15.039062 453.980469 14.882812 453.980469 14.160156 L 453.980469 5.195312 Z M 453.863281 5.175781 "/>
<path style=" stroke:none;fill-rule:nonzero;fill:rgb(0%,0%,0%);fill-opacity:1;" d="M 458.851562 13.789062 C 458.402344 13.789062 458.03125 14.160156 458.03125 14.628906 C 458.03125 15.058594 458.402344 15.429688 458.832031 15.429688 C 459.300781 15.429688 459.671875 15.058594 459.671875 14.628906 C 459.671875 14.160156 459.300781 13.789062 458.851562 13.789062 Z M 458.851562 13.789062 "/>
<path style=" stroke:none;fill-rule:nonzero;fill:rgb(0%,0%,0%);fill-opacity:1;" d="M 467.375 5.058594 C 465.675781 5.195312 464.816406 5.488281 463.722656 6.25 C 462.101562 7.402344 461.222656 9.101562 461.222656 11.113281 C 461.222656 12.402344 461.632812 13.710938 462.277344 14.472656 C 462.84375 15.117188 463.644531 15.488281 464.5625 15.488281 C 466.417969 15.488281 467.707031 14.0625 467.707031 11.992188 C 467.707031 10.097656 466.613281 8.886719 464.894531 8.886719 C 464.25 8.886719 463.917969 8.984375 462.980469 9.550781 C 463.390625 7.285156 465.070312 5.683594 467.414062 5.292969 Z M 464.328125 9.570312 C 465.617188 9.570312 466.359375 10.644531 466.359375 12.5 C 466.359375 14.160156 465.773438 15.058594 464.738281 15.058594 C 463.410156 15.058594 462.609375 13.652344 462.609375 11.347656 C 462.609375 10.585938 462.726562 10.15625 463.039062 9.941406 C 463.351562 9.707031 463.800781 9.570312 464.328125 9.570312 Z M 464.328125 9.570312 "/>
<path style=" stroke:none;fill-rule:nonzero;fill:rgb(0%,0%,0%);fill-opacity:1;" d="M 473.796875 13.789062 C 473.347656 13.789062 472.976562 14.160156 472.976562 14.628906 C 472.976562 15.058594 473.347656 15.429688 473.777344 15.429688 C 474.246094 15.429688 474.617188 15.058594 474.617188 14.628906 C 474.617188 14.160156 474.246094 13.789062 473.796875 13.789062 Z M 473.796875 13.789062 "/>
<path style=" stroke:none;fill-rule:nonzero;fill:rgb(0%,0%,0%);fill-opacity:1;" d="M 476.535156 15.605469 C 478.214844 15.410156 479.035156 15.117188 480.050781 14.394531 C 481.59375 13.261719 482.511719 11.40625 482.511719 9.394531 C 482.511719 6.914062 481.144531 5.175781 479.210938 5.175781 C 477.433594 5.175781 476.105469 6.679688 476.105469 8.691406 C 476.105469 10.527344 477.179688 11.738281 478.800781 11.738281 C 479.621094 11.738281 480.246094 11.484375 481.027344 10.878906 C 480.421875 13.320312 478.761719 14.921875 476.496094 15.3125 Z M 481.066406 9.960938 C 481.066406 10.273438 481.007812 10.410156 480.832031 10.527344 C 480.421875 10.898438 479.875 11.09375 479.328125 11.09375 C 478.195312 11.09375 477.472656 9.960938 477.472656 8.183594 C 477.472656 7.34375 477.726562 6.445312 478.039062 6.054688 C 478.292969 5.761719 478.664062 5.585938 479.09375 5.585938 C 480.402344 5.585938 481.066406 6.875 481.066406 9.394531 Z M 481.066406 9.960938 "/>
<path style=" stroke:none;fill-rule:nonzero;fill:rgb(0%,0%,0%);fill-opacity:1;" d="M 485.414062 10.351562 C 486.292969 10.351562 486.644531 10.371094 486.996094 10.507812 C 487.933594 10.839844 488.5 11.679688 488.5 12.714844 C 488.5 13.964844 487.660156 14.941406 486.546875 14.941406 C 486.15625 14.941406 485.84375 14.84375 485.296875 14.472656 C 484.847656 14.21875 484.59375 14.101562 484.339844 14.101562 C 483.988281 14.101562 483.773438 14.316406 483.773438 14.628906 C 483.773438 15.15625 484.417969 15.488281 485.453125 15.488281 C 486.605469 15.488281 487.796875 15.097656 488.5 14.472656 C 489.203125 13.867188 489.574219 13.007812 489.574219 11.992188 C 489.574219 11.230469 489.339844 10.527344 488.910156 10.078125 C 488.617188 9.746094 488.324219 9.570312 487.679688 9.277344 C 488.695312 8.574219 489.066406 8.027344 489.066406 7.226562 C 489.066406 6.015625 488.128906 5.175781 486.742188 5.175781 C 486 5.175781 485.335938 5.429688 484.808594 5.898438 C 484.359375 6.308594 484.125 6.699219 483.792969 7.597656 L 484.027344 7.65625 C 484.632812 6.5625 485.316406 6.074219 486.253906 6.074219 C 487.230469 6.074219 487.894531 6.71875 487.894531 7.675781 C 487.894531 8.203125 487.679688 8.75 487.289062 9.121094 C 486.839844 9.570312 486.429688 9.785156 485.414062 10.15625 Z M 485.414062 10.351562 "/>
<path style=" stroke:none;fill-rule:nonzero;fill:rgb(0%,0%,0%);fill-opacity:1;" d="M 497.652344 11.816406 L 496.128906 11.816406 L 496.128906 5.175781 L 495.464844 5.175781 L 490.777344 11.816406 L 490.777344 12.773438 L 494.976562 12.773438 L 494.976562 15.273438 L 496.128906 15.273438 L 496.128906 12.773438 L 497.652344 12.773438 Z M 494.957031 11.816406 L 491.382812 11.816406 L 494.957031 6.699219 Z M 494.957031 11.816406 "/>
<path style=" stroke:none;fill-rule:nonzero;fill:rgb(0%,0%,0%);fill-opacity:1;" d="M 498.953125 15.605469 C 500.632812 15.410156 501.453125 15.117188 502.46875 14.394531 C 504.011719 13.261719 504.929688 11.40625 504.929688 9.394531 C 504.929688 6.914062 503.5625 5.175781 501.628906 5.175781 C 499.851562 5.175781 498.523438 6.679688 498.523438 8.691406 C 498.523438 10.527344 499.597656 11.738281 501.21875 11.738281 C 502.039062 11.738281 502.664062 11.484375 503.445312 10.878906 C 502.839844 13.320312 501.179688 14.921875 498.914062 15.3125 Z M 503.484375 9.960938 C 503.484375 10.273438 503.425781 10.410156 503.25 10.527344 C 502.839844 10.898438 502.292969 11.09375 501.746094 11.09375 C 500.613281 11.09375 499.890625 9.960938 499.890625 8.183594 C 499.890625 7.34375 500.144531 6.445312 500.457031 6.054688 C 500.710938 5.761719 501.082031 5.585938 501.511719 5.585938 C 502.820312 5.585938 503.484375 6.875 503.484375 9.394531 Z M 503.484375 9.960938 "/>
<path style=" stroke:none;fill-rule:nonzero;fill:rgb(0%,0%,0%);fill-opacity:1;" d="M 509.867188 11.425781 L 509.867188 12.382812 L 513.539062 12.382812 L 513.539062 11.425781 Z M 509.867188 11.425781 "/>
<path style=" stroke:none;fill-rule:nonzero;fill:rgb(0%,0%,0%);fill-opacity:1;" d="M 518.613281 5.175781 L 515.917969 6.523438 L 515.917969 6.738281 C 516.09375 6.660156 516.269531 6.601562 516.328125 6.582031 C 516.582031 6.464844 516.835938 6.40625 516.992188 6.40625 C 517.304688 6.40625 517.441406 6.640625 517.441406 7.109375 L 517.441406 13.886719 C 517.441406 14.375 517.324219 14.726562 517.089844 14.863281 C 516.855469 14.980469 516.640625 15.039062 516.015625 15.058594 L 516.015625 15.273438 L 520.136719 15.273438 L 520.136719 15.058594 C 518.964844 15.039062 518.730469 14.882812 518.730469 14.160156 L 518.730469 5.195312 Z M 518.613281 5.175781 "/>
<path style=" stroke:none;fill-rule:nonzero;fill:rgb(0%,0%,0%);fill-opacity:1;" d="M 523.605469 13.789062 C 523.15625 13.789062 522.785156 14.160156 522.785156 14.628906 C 522.785156 15.058594 523.15625 15.429688 523.585938 15.429688 C 524.054688 15.429688 524.425781 15.058594 524.425781 14.628906 C 524.425781 14.160156 524.054688 13.789062 523.605469 13.789062 Z M 523.605469 13.789062 "/>
<path style=" stroke:none;fill-rule:nonzero;fill:rgb(0%,0%,0%);fill-opacity:1;" d="M 532.515625 11.816406 L 530.992188 11.816406 L 530.992188 5.175781 L 530.328125 5.175781 L 525.640625 11.816406 L 525.640625 12.773438 L 529.839844 12.773438 L 529.839844 15.273438 L 530.992188 15.273438 L 530.992188 12.773438 L 532.515625 12.773438 Z M 529.820312 11.816406 L 526.246094 11.816406 L 529.820312 6.699219 Z M 529.820312 11.816406 "/>
<path style=" stroke:none;fill-rule:nonzero;fill:rgb(0%,0%,0%);fill-opacity:1;" d="M 541.03125 5.175781 L 538.335938 6.523438 L 538.335938 6.738281 C 538.511719 6.660156 538.6875 6.601562 538.746094 6.582031 C 539 6.464844 539.253906 6.40625 539.410156 6.40625 C 539.722656 6.40625 539.859375 6.640625 539.859375 7.109375 L 539.859375 13.886719 C 539.859375 14.375 539.742188 14.726562 539.507812 14.863281 C 539.273438 14.980469 539.058594 15.039062 538.433594 15.058594 L 538.433594 15.273438 L 542.554688 15.273438 L 542.554688 15.058594 C 541.382812 15.039062 541.148438 14.882812 541.148438 14.160156 L 541.148438 5.195312 Z M 541.03125 5.175781 "/>
<path style=" stroke:none;fill-rule:nonzero;fill:rgb(0%,0%,0%);fill-opacity:1;" d="M 546.023438 13.789062 C 545.574219 13.789062 545.203125 14.160156 545.203125 14.628906 C 545.203125 15.058594 545.574219 15.429688 546.003906 15.429688 C 546.472656 15.429688 546.84375 15.058594 546.84375 14.628906 C 546.84375 14.160156 546.472656 13.789062 546.023438 13.789062 Z M 546.023438 13.789062 "/>
<path style=" stroke:none;fill-rule:nonzero;fill:rgb(0%,0%,0%);fill-opacity:1;" d="M 551.671875 5.175781 C 550.851562 5.175781 550.226562 5.429688 549.679688 5.957031 C 548.800781 6.777344 548.234375 8.496094 548.234375 10.253906 C 548.234375 11.875 548.742188 13.632812 549.445312 14.472656 C 549.992188 15.117188 550.753906 15.488281 551.613281 15.488281 C 552.375 15.488281 553.019531 15.234375 553.566406 14.707031 C 554.425781 13.886719 554.992188 12.148438 554.992188 10.351562 C 554.992188 7.285156 553.644531 5.175781 551.671875 5.175781 Z M 551.632812 5.566406 C 552.882812 5.566406 553.566406 7.246094 553.566406 10.371094 C 553.566406 13.496094 552.902344 15.097656 551.613281 15.097656 C 550.324219 15.097656 549.679688 13.496094 549.679688 10.390625 C 549.679688 7.226562 550.34375 5.566406 551.632812 5.566406 Z M 551.632812 5.566406 "/>
<path style=" stroke:none;fill-rule:nonzero;fill:rgb(0%,0%,0%);fill-opacity:1;" d="M 559.691406 9.726562 C 561.175781 8.945312 561.683594 8.320312 561.683594 7.285156 C 561.683594 6.074219 560.609375 5.175781 559.125 5.175781 C 557.484375 5.175781 556.273438 6.171875 556.273438 7.539062 C 556.273438 8.496094 556.566406 8.945312 558.128906 10.3125 C 556.527344 11.542969 556.195312 11.992188 556.195312 13.007812 C 556.195312 14.472656 557.367188 15.488281 559.066406 15.488281 C 560.863281 15.488281 561.996094 14.492188 561.996094 12.949219 C 561.996094 11.816406 561.488281 11.074219 559.691406 9.726562 Z M 559.417969 11.269531 C 560.511719 12.050781 560.863281 12.578125 560.863281 13.417969 C 560.863281 14.394531 560.199219 15.058594 559.222656 15.058594 C 558.089844 15.058594 557.328125 14.199219 557.328125 12.890625 C 557.328125 11.933594 557.660156 11.308594 558.519531 10.605469 Z M 559.261719 9.453125 C 557.933594 8.59375 557.386719 7.910156 557.386719 7.070312 C 557.386719 6.210938 558.050781 5.585938 559.007812 5.585938 C 560.023438 5.585938 560.667969 6.25 560.667969 7.285156 C 560.667969 8.125 560.238281 8.808594 559.398438 9.375 C 559.320312 9.414062 559.320312 9.414062 559.261719 9.453125 Z M 559.261719 9.453125 "/>
<path style=" stroke:none;fill-rule:nonzero;fill:rgb(0%,0%,0%);fill-opacity:1;" d="M 569.488281 5.058594 C 567.789062 5.195312 566.929688 5.488281 565.835938 6.25 C 564.214844 7.402344 563.335938 9.101562 563.335938 11.113281 C 563.335938 12.402344 563.746094 13.710938 564.390625 14.472656 C 564.957031 15.117188 565.757812 15.488281 566.675781 15.488281 C 568.53125 15.488281 569.820312 14.0625 569.820312 11.992188 C 569.820312 10.097656 568.726562 8.886719 567.007812 8.886719 C 566.363281 8.886719 566.03125 8.984375 565.09375 9.550781 C 565.503906 7.285156 567.183594 5.683594 569.527344 5.292969 Z M 566.441406 9.570312 C 567.730469 9.570312 568.472656 10.644531 568.472656 12.5 C 568.472656 14.160156 567.886719 15.058594 566.851562 15.058594 C 565.523438 15.058594 564.722656 13.652344 564.722656 11.347656 C 564.722656 10.585938 564.839844 10.15625 565.152344 9.941406 C 565.464844 9.707031 565.914062 9.570312 566.441406 9.570312 Z M 566.441406 9.570312 "/>
<path style=" stroke:none;fill-rule:nonzero;fill:rgb(0%,0%,0%);fill-opacity:1;" d="M 574.621094 11.425781 L 574.621094 12.382812 L 578.292969 12.382812 L 578.292969 11.425781 Z M 574.621094 11.425781 "/>
<path style=" stroke:none;fill-rule:nonzero;fill:rgb(0%,0%,0%);fill-opacity:1;" d="M 583.367188 5.175781 L 580.671875 6.523438 L 580.671875 6.738281 C 580.847656 6.660156 581.023438 6.601562 581.082031 6.582031 C 581.335938 6.464844 581.589844 6.40625 581.746094 6.40625 C 582.058594 6.40625 582.195312 6.640625 582.195312 7.109375 L 582.195312 13.886719 C 582.195312 14.375 582.078125 14.726562 581.84375 14.863281 C 581.609375 14.980469 581.394531 15.039062 580.769531 15.058594 L 580.769531 15.273438 L 584.890625 15.273438 L 584.890625 15.058594 C 583.71875 15.039062 583.484375 14.882812 583.484375 14.160156 L 583.484375 5.195312 Z M 583.367188 5.175781 "/>
<path style=" stroke:none;fill-rule:nonzero;fill:rgb(0%,0%,0%);fill-opacity:1;" d="M 588.359375 13.789062 C 587.910156 13.789062 587.539062 14.160156 587.539062 14.628906 C 587.539062 15.058594 587.910156 15.429688 588.339844 15.429688 C 588.808594 15.429688 589.179688 15.058594 589.179688 14.628906 C 589.179688 14.160156 588.808594 13.789062 588.359375 13.789062 Z M 588.359375 13.789062 "/>
<path style=" stroke:none;fill-rule:nonzero;fill:rgb(0%,0%,0%);fill-opacity:1;" d="M 597.308594 13.222656 L 597.113281 13.144531 C 596.566406 14.003906 596.371094 14.140625 595.707031 14.140625 L 592.132812 14.140625 L 594.632812 11.503906 C 595.980469 10.117188 596.546875 8.984375 596.546875 7.8125 C 596.546875 6.328125 595.335938 5.175781 593.792969 5.175781 C 592.972656 5.175781 592.191406 5.507812 591.644531 6.09375 C 591.15625 6.601562 590.941406 7.089844 590.6875 8.144531 L 591 8.222656 C 591.585938 6.757812 592.132812 6.269531 593.167969 6.269531 C 594.417969 6.269531 595.277344 7.128906 595.277344 8.378906 C 595.277344 9.550781 594.574219 10.9375 593.324219 12.265625 L 590.667969 15.097656 L 590.667969 15.273438 L 596.488281 15.273438 Z M 597.308594 13.222656 "/>
<path style=" stroke:none;fill-rule:nonzero;fill:rgb(0%,0%,0%);fill-opacity:1;" d="M 605.78125 5.175781 L 603.085938 6.523438 L 603.085938 6.738281 C 603.261719 6.660156 603.4375 6.601562 603.496094 6.582031 C 603.75 6.464844 604.003906 6.40625 604.160156 6.40625 C 604.472656 6.40625 604.609375 6.640625 604.609375 7.109375 L 604.609375 13.886719 C 604.609375 14.375 604.492188 14.726562 604.257812 14.863281 C 604.023438 14.980469 603.808594 15.039062 603.183594 15.058594 L 603.183594 15.273438 L 607.304688 15.273438 L 607.304688 15.058594 C 606.132812 15.039062 605.898438 14.882812 605.898438 14.160156 L 605.898438 5.195312 Z M 605.78125 5.175781 "/>
<path style=" stroke:none;fill-rule:nonzero;fill:rgb(0%,0%,0%);fill-opacity:1;" d="M 610.773438 13.789062 C 610.324219 13.789062 609.953125 14.160156 609.953125 14.628906 C 609.953125 15.058594 610.324219 15.429688 610.753906 15.429688 C 611.222656 15.429688 611.59375 15.058594 611.59375 14.628906 C 611.59375 14.160156 611.222656 13.789062 610.773438 13.789062 Z M 610.773438 13.789062 "/>
<path style=" stroke:none;fill-rule:nonzero;fill:rgb(0%,0%,0%);fill-opacity:1;" d="M 619.726562 13.222656 L 619.53125 13.144531 C 618.984375 14.003906 618.789062 14.140625 618.125 14.140625 L 614.550781 14.140625 L 617.050781 11.503906 C 618.398438 10.117188 618.964844 8.984375 618.964844 7.8125 C 618.964844 6.328125 617.753906 5.175781 616.210938 5.175781 C 615.390625 5.175781 614.609375 5.507812 614.0625 6.09375 C 613.574219 6.601562 613.359375 7.089844 613.105469 8.144531 L 613.417969 8.222656 C 614.003906 6.757812 614.550781 6.269531 615.585938 6.269531 C 616.835938 6.269531 617.695312 7.128906 617.695312 8.378906 C 617.695312 9.550781 616.992188 10.9375 615.742188 12.265625 L 613.085938 15.097656 L 613.085938 15.273438 L 618.90625 15.273438 Z M 619.726562 13.222656 "/>
<path style=" stroke:none;fill-rule:nonzero;fill:rgb(0%,0%,0%);fill-opacity:1;" d="M 622.390625 10.351562 C 623.269531 10.351562 623.621094 10.371094 623.972656 10.507812 C 624.910156 10.839844 625.476562 11.679688 625.476562 12.714844 C 625.476562 13.964844 624.636719 14.941406 623.523438 14.941406 C 623.132812 14.941406 622.820312 14.84375 622.273438 14.472656 C 621.824219 14.21875 621.570312 14.101562 621.316406 14.101562 C 620.964844 14.101562 620.75 14.316406 620.75 14.628906 C 620.75 15.15625 621.394531 15.488281 622.429688 15.488281 C 623.582031 15.488281 624.773438 15.097656 625.476562 14.472656 C 626.179688 13.867188 626.550781 13.007812 626.550781 11.992188 C 626.550781 11.230469 626.316406 10.527344 625.886719 10.078125 C 625.59375 9.746094 625.300781 9.570312 624.65625 9.277344 C 625.671875 8.574219 626.042969 8.027344 626.042969 7.226562 C 626.042969 6.015625 625.105469 5.175781 623.71875 5.175781 C 622.976562 5.175781 622.3125 5.429688 621.785156 5.898438 C 621.335938 6.308594 621.101562 6.699219 620.769531 7.597656 L 621.003906 7.65625 C 621.609375 6.5625 622.292969 6.074219 623.230469 6.074219 C 624.207031 6.074219 624.871094 6.71875 624.871094 7.675781 C 624.871094 8.203125 624.65625 8.75 624.265625 9.121094 C 623.816406 9.570312 623.40625 9.785156 622.390625 10.15625 Z M 622.390625 10.351562 "/>
<path style=" stroke:none;fill-rule:nonzero;fill:rgb(0%,0%,0%);fill-opacity:1;" d="M 634.277344 5.390625 L 628.75 5.390625 L 627.871094 7.578125 L 628.125 7.695312 C 628.769531 6.679688 629.042969 6.484375 629.863281 6.484375 L 633.105469 6.484375 L 630.15625 15.390625 L 631.113281 15.390625 L 634.277344 5.625 Z M 634.277344 5.390625 "/>
<path style=" stroke:none;fill-rule:nonzero;fill:rgb(0%,0%,0%);fill-opacity:1;" d="M 639.371094 11.425781 L 639.371094 12.382812 L 643.042969 12.382812 L 643.042969 11.425781 Z M 639.371094 11.425781 "/>
<path style=" stroke:none;fill-rule:nonzero;fill:rgb(0%,0%,0%);fill-opacity:1;" d="M 648.117188 5.175781 L 645.421875 6.523438 L 645.421875 6.738281 C 645.597656 6.660156 645.773438 6.601562 645.832031 6.582031 C 646.085938 6.464844 646.339844 6.40625 646.496094 6.40625 C 646.808594 6.40625 646.945312 6.640625 646.945312 7.109375 L 646.945312 13.886719 C 646.945312 14.375 646.828125 14.726562 646.59375 14.863281 C 646.359375 14.980469 646.144531 15.039062 645.519531 15.058594 L 645.519531 15.273438 L 649.640625 15.273438 L 649.640625 15.058594 C 648.46875 15.039062 648.234375 14.882812 648.234375 14.160156 L 648.234375 5.195312 Z M 648.117188 5.175781 "/>
<path style=" stroke:none;fill-rule:nonzero;fill:rgb(0%,0%,0%);fill-opacity:1;" d="M 653.109375 13.789062 C 652.660156 13.789062 652.289062 14.160156 652.289062 14.628906 C 652.289062 15.058594 652.660156 15.429688 653.089844 15.429688 C 653.558594 15.429688 653.929688 15.058594 653.929688 14.628906 C 653.929688 14.160156 653.558594 13.789062 653.109375 13.789062 Z M 653.109375 13.789062 "/>
<path style=" stroke:none;fill-rule:nonzero;fill:rgb(0%,0%,0%);fill-opacity:1;" d="M 663.960938 5.175781 L 661.265625 6.523438 L 661.265625 6.738281 C 661.441406 6.660156 661.617188 6.601562 661.675781 6.582031 C 661.929688 6.464844 662.183594 6.40625 662.339844 6.40625 C 662.652344 6.40625 662.789062 6.640625 662.789062 7.109375 L 662.789062 13.886719 C 662.789062 14.375 662.671875 14.726562 662.4375 14.863281 C 662.203125 14.980469 661.988281 15.039062 661.363281 15.058594 L 661.363281 15.273438 L 665.484375 15.273438 L 665.484375 15.058594 C 664.3125 15.039062 664.078125 14.882812 664.078125 14.160156 L 664.078125 5.195312 Z M 663.960938 5.175781 "/>
<path style=" stroke:none;fill-rule:nonzero;fill:rgb(0%,0%,0%);fill-opacity:1;" d="M 668.949219 13.789062 C 668.5 13.789062 668.128906 14.160156 668.128906 14.628906 C 668.128906 15.058594 668.5 15.429688 668.929688 15.429688 C 669.398438 15.429688 669.769531 15.058594 669.769531 14.628906 C 669.769531 14.160156 669.398438 13.789062 668.949219 13.789062 Z M 668.949219 13.789062 "/>
<path style=" stroke:none;fill-rule:nonzero;fill:rgb(0%,0%,0%);fill-opacity:1;" d="M 673.097656 10.351562 C 673.976562 10.351562 674.328125 10.371094 674.679688 10.507812 C 675.617188 10.839844 676.183594 11.679688 676.183594 12.714844 C 676.183594 13.964844 675.34375 14.941406 674.230469 14.941406 C 673.839844 14.941406 673.527344 14.84375 672.980469 14.472656 C 672.53125 14.21875 672.277344 14.101562 672.023438 14.101562 C 671.671875 14.101562 671.457031 14.316406 671.457031 14.628906 C 671.457031 15.15625 672.101562 15.488281 673.136719 15.488281 C 674.289062 15.488281 675.480469 15.097656 676.183594 14.472656 C 676.886719 13.867188 677.257812 13.007812 677.257812 11.992188 C 677.257812 11.230469 677.023438 10.527344 676.59375 10.078125 C 676.300781 9.746094 676.007812 9.570312 675.363281 9.277344 C 676.378906 8.574219 676.75 8.027344 676.75 7.226562 C 676.75 6.015625 675.8125 5.175781 674.425781 5.175781 C 673.683594 5.175781 673.019531 5.429688 672.492188 5.898438 C 672.042969 6.308594 671.808594 6.699219 671.476562 7.597656 L 671.710938 7.65625 C 672.316406 6.5625 673 6.074219 673.9375 6.074219 C 674.914062 6.074219 675.578125 6.71875 675.578125 7.675781 C 675.578125 8.203125 675.363281 8.75 674.972656 9.121094 C 674.523438 9.570312 674.113281 9.785156 673.097656 10.15625 Z M 673.097656 10.351562 "/>
<path style=" stroke:none;fill-rule:nonzero;fill:rgb(0%,0%,0%);fill-opacity:1;" d="M 682.621094 9.726562 C 684.105469 8.945312 684.613281 8.320312 684.613281 7.285156 C 684.613281 6.074219 683.539062 5.175781 682.054688 5.175781 C 680.414062 5.175781 679.203125 6.171875 679.203125 7.539062 C 679.203125 8.496094 679.496094 8.945312 681.058594 10.3125 C 679.457031 11.542969 679.125 11.992188 679.125 13.007812 C 679.125 14.472656 680.296875 15.488281 681.996094 15.488281 C 683.792969 15.488281 684.925781 14.492188 684.925781 12.949219 C 684.925781 11.816406 684.417969 11.074219 682.621094 9.726562 Z M 682.347656 11.269531 C 683.441406 12.050781 683.792969 12.578125 683.792969 13.417969 C 683.792969 14.394531 683.128906 15.058594 682.152344 15.058594 C 681.019531 15.058594 680.257812 14.199219 680.257812 12.890625 C 680.257812 11.933594 680.589844 11.308594 681.449219 10.605469 Z M 682.191406 9.453125 C 680.863281 8.59375 680.316406 7.910156 680.316406 7.070312 C 680.316406 6.210938 680.980469 5.585938 681.9375 5.585938 C 682.953125 5.585938 683.597656 6.25 683.597656 7.285156 C 683.597656 8.125 683.167969 8.808594 682.328125 9.375 C 682.25 9.414062 682.25 9.414062 682.191406 9.453125 Z M 682.191406 9.453125 "/>
<path style=" stroke:none;fill-rule:nonzero;fill:rgb(0%,0%,0%);fill-opacity:1;" d="M 690.109375 5.175781 L 687.414062 6.523438 L 687.414062 6.738281 C 687.589844 6.660156 687.765625 6.601562 687.824219 6.582031 C 688.078125 6.464844 688.332031 6.40625 688.488281 6.40625 C 688.800781 6.40625 688.9375 6.640625 688.9375 7.109375 L 688.9375 13.886719 C 688.9375 14.375 688.820312 14.726562 688.585938 14.863281 C 688.351562 14.980469 688.136719 15.039062 687.511719 15.058594 L 687.511719 15.273438 L 691.632812 15.273438 L 691.632812 15.058594 C 690.460938 15.039062 690.226562 14.882812 690.226562 14.160156 L 690.226562 5.195312 Z M 690.109375 5.175781 "/>
</g>
</svg>
