<?xml version="1.0" encoding="UTF-8"?>
<svg xmlns="http://www.w3.org/2000/svg" xmlns:xlink="http://www.w3.org/1999/xlink" width="695.9685pt" height="20.605469pt" viewBox="0 0 695.9685 20.605469" version="1.1">
<g id="surface677">
<path style=" stroke:none;fill-rule:nonzero;fill:rgb(0%,0%,0%);fill-opacity:1;" d="M 5 11.425781 L 5 12.382812 L 8.671875 12.382812 L 8.671875 11.425781 Z M 5 11.425781 "/>
<path style=" stroke:none;fill-rule:nonzero;fill:rgb(0%,0%,0%);fill-opacity:1;" d="M 16.441406 11.816406 L 14.917969 11.816406 L 14.917969 5.175781 L 14.253906 5.175781 L 9.566406 11.816406 L 9.566406 12.773438 L 13.765625 12.773438 L 13.765625 15.273438 L 14.917969 15.273438 L 14.917969 12.773438 L 16.441406 12.773438 Z M 13.746094 11.816406 L 10.171875 11.816406 L 13.746094 6.699219 Z M 13.746094 11.816406 "/>
<path style=" stroke:none;fill-rule:nonzero;fill:rgb(0%,0%,0%);fill-opacity:1;" d="M 18.738281 13.789062 C 18.289062 13.789062 17.917969 14.160156 17.917969 14.628906 C 17.917969 15.058594 18.289062 15.429688 18.71875 15.429688 C 19.1875 15.429688 19.558594 15.058594 19.558594 14.628906 C 19.558594 14.160156 19.1875 13.789062 18.738281 13.789062 Z M 18.738281 13.789062 "/>
<path style=" stroke:none;fill-rule:nonzero;fill:rgb(0%,0%,0%);fill-opacity:1;" d="M 25.816406 11.425781 L 25.816406 12.382812 L 29.488281 12.382812 L 29.488281 11.425781 Z M 25.816406 11.425781 "/>
<path style=" stroke:none;fill-rule:nonzero;fill:rgb(0%,0%,0%);fill-opacity:1;" d="M 32.082031 13.789062 C 31.632812 13.789062 31.261719 14.160156 31.261719 14.628906 C 31.261719 15.058594 31.632812 15.429688 32.0625 15.429688 C 32.53125 15.429688 32.902344 15.058594 32.902344 14.628906 C 32.902344 14.160156 32.53125 13.789062 32.082031 13.789062 Z M 32.082031 13.789062 "/>
<path style=" stroke:none;fill-rule:nonzero;fill:rgb(0%,0%,0%);fill-opacity:1;" d="M 36.230469 10.351562 C 37.109375 10.351562 37.460938 10.371094 37.8125 10.507812 C 38.75 10.839844 39.316406 11.679688 39.316406 12.714844 C 39.316406 13.964844 38.476562 14.941406 37.363281 14.941406 C 36.972656 14.941406 36.660156 14.84375 36.113281 14.472656 C 35.664062 14.21875 35.410156 14.101562 35.15625 14.101562 C 34.804688 14.101562 34.589844 14.316406 34.589844 14.628906 C 34.589844 15.15625 35.234375 15.488281 36.269531 15.488281 C 37.421875 15.488281 38.613281 15.097656 39.316406 14.472656 C 40.019531 13.867188 40.390625 13.007812 40.390625 11.992188 C 40.390625 11.230469 40.15625 10.527344 39.726562 10.078125 C 39.433594 9.746094 39.140625 9.570312 38.496094 9.277344 C 39.511719 8.574219 39.882812 8.027344 39.882812 7.226562 C 39.882812 6.015625 38.945312 5.175781 37.558594 5.175781 C 36.816406 5.175781 36.152344 5.429688 35.625 5.898438 C 35.175781 6.308594 34.941406 6.699219 34.609375 7.597656 L 34.84375 7.65625 C 35.449219 6.5625 36.132812 6.074219 37.070312 6.074219 C 38.046875 6.074219 38.710938 6.71875 38.710938 7.675781 C 38.710938 8.203125 38.496094 8.75 38.105469 9.121094 C 37.65625 9.570312 37.246094 9.785156 36.230469 10.15625 Z M 36.230469 10.351562 "/>
<path style=" stroke:none;fill-rule:nonzero;fill:rgb(0%,0%,0%);fill-opacity:1;" d="M 45.769531 5.175781 L 43.074219 6.523438 L 43.074219 6.738281 C 43.25 6.660156 43.425781 6.601562 43.484375 6.582031 C 43.738281 6.464844 43.992188 6.40625 44.148438 6.40625 C 44.460938 6.40625 44.597656 6.640625 44.597656 7.109375 L 44.597656 13.886719 C 44.597656 14.375 44.480469 14.726562 44.246094 14.863281 C 44.011719 14.980469 43.796875 15.039062 43.171875 15.058594 L 43.171875 15.273438 L 47.292969 15.273438 L 47.292969 15.058594 C 46.121094 15.039062 45.886719 14.882812 45.886719 14.160156 L 45.886719 5.195312 Z M 45.769531 5.175781 "/>
<path style=" stroke:none;fill-rule:nonzero;fill:rgb(0%,0%,0%);fill-opacity:1;" d="M 53.242188 5.175781 L 50.546875 6.523438 L 50.546875 6.738281 C 50.722656 6.660156 50.898438 6.601562 50.957031 6.582031 C 51.210938 6.464844 51.464844 6.40625 51.621094 6.40625 C 51.933594 6.40625 52.070312 6.640625 52.070312 7.109375 L 52.070312 13.886719 C 52.070312 14.375 51.953125 14.726562 51.71875 14.863281 C 51.484375 14.980469 51.269531 15.039062 50.644531 15.058594 L 50.644531 15.273438 L 54.765625 15.273438 L 54.765625 15.058594 C 53.59375 15.039062 53.359375 14.882812 53.359375 14.160156 L 53.359375 5.195312 Z M 53.242188 5.175781 "/>
<path style=" stroke:none;fill-rule:nonzero;fill:rgb(0%,0%,0%);fill-opacity:1;" d="M 60.714844 5.175781 L 58.019531 6.523438 L 58.019531 6.738281 C 58.195312 6.660156 58.371094 6.601562 58.429688 6.582031 C 58.683594 6.464844 58.9375 6.40625 59.09375 6.40625 C 59.40625 6.40625 59.542969 6.640625 59.542969 7.109375 L 59.542969 13.886719 C 59.542969 14.375 59.425781 14.726562 59.191406 14.863281 C 58.957031 14.980469 58.742188 15.039062 58.117188 15.058594 L 58.117188 15.273438 L 62.238281 15.273438 L 62.238281 15.058594 C 61.066406 15.039062 60.832031 14.882812 60.832031 14.160156 L 60.832031 5.195312 Z M 60.714844 5.175781 "/>
<path style=" stroke:none;fill-rule:nonzero;fill:rgb(0%,0%,0%);fill-opacity:1;" d="M 68.152344 11.425781 L 68.152344 12.382812 L 71.824219 12.382812 L 71.824219 11.425781 Z M 68.152344 11.425781 "/>
<path style=" stroke:none;fill-rule:nonzero;fill:rgb(0%,0%,0%);fill-opacity:1;" d="M 74.828125 10.351562 C 75.707031 10.351562 76.058594 10.371094 76.410156 10.507812 C 77.347656 10.839844 77.914062 11.679688 77.914062 12.714844 C 77.914062 13.964844 77.074219 14.941406 75.960938 14.941406 C 75.570312 14.941406 75.257812 14.84375 74.710938 14.472656 C 74.261719 14.21875 74.007812 14.101562 73.753906 14.101562 C 73.402344 14.101562 73.1875 14.316406 73.1875 14.628906 C 73.1875 15.15625 73.832031 15.488281 74.867188 15.488281 C 76.019531 15.488281 77.210938 15.097656 77.914062 14.472656 C 78.617188 13.867188 78.988281 13.007812 78.988281 11.992188 C 78.988281 11.230469 78.753906 10.527344 78.324219 10.078125 C 78.03125 9.746094 77.738281 9.570312 77.09375 9.277344 C 78.109375 8.574219 78.480469 8.027344 78.480469 7.226562 C 78.480469 6.015625 77.542969 5.175781 76.15625 5.175781 C 75.414062 5.175781 74.75 5.429688 74.222656 5.898438 C 73.773438 6.308594 73.539062 6.699219 73.207031 7.597656 L 73.441406 7.65625 C 74.046875 6.5625 74.730469 6.074219 75.667969 6.074219 C 76.644531 6.074219 77.308594 6.71875 77.308594 7.675781 C 77.308594 8.203125 77.09375 8.75 76.703125 9.121094 C 76.253906 9.570312 75.84375 9.785156 74.828125 10.15625 Z M 74.828125 10.351562 "/>
<path style=" stroke:none;fill-rule:nonzero;fill:rgb(0%,0%,0%);fill-opacity:1;" d="M 81.890625 13.789062 C 81.441406 13.789062 81.070312 14.160156 81.070312 14.628906 C 81.070312 15.058594 81.441406 15.429688 81.871094 15.429688 C 82.339844 15.429688 82.710938 15.058594 82.710938 14.628906 C 82.710938 14.160156 82.339844 13.789062 81.890625 13.789062 Z M 81.890625 13.789062 "/>
<path style=" stroke:none;fill-rule:nonzero;fill:rgb(0%,0%,0%);fill-opacity:1;" d="M 84.628906 15.605469 C 86.308594 15.410156 87.128906 15.117188 88.144531 14.394531 C 89.6875 13.261719 90.605469 11.40625 90.605469 9.394531 C 90.605469 6.914062 89.238281 5.175781 87.304688 5.175781 C 85.527344 5.175781 84.199219 6.679688 84.199219 8.691406 C 84.199219 10.527344 85.273438 11.738281 86.894531 11.738281 C 87.714844 11.738281 88.339844 11.484375 89.121094 10.878906 C 88.515625 13.320312 86.855469 14.921875 84.589844 15.3125 Z M 89.160156 9.960938 C 89.160156 10.273438 89.101562 10.410156 88.925781 10.527344 C 88.515625 10.898438 87.96875 11.09375 87.421875 11.09375 C 86.289062 11.09375 85.566406 9.960938 85.566406 8.183594 C 85.566406 7.34375 85.820312 6.445312 86.132812 6.054688 C 86.386719 5.761719 86.757812 5.585938 87.1875 5.585938 C 88.496094 5.585938 89.160156 6.875 89.160156 9.394531 Z M 89.160156 9.960938 "/>
<path style=" stroke:none;fill-rule:nonzero;fill:rgb(0%,0%,0%);fill-opacity:1;" d="M 95.546875 11.425781 L 95.546875 12.382812 L 99.21875 12.382812 L 99.21875 11.425781 Z M 95.546875 11.425781 "/>
<path style=" stroke:none;fill-rule:nonzero;fill:rgb(0%,0%,0%);fill-opacity:1;" d="M 101.8125 13.789062 C 101.363281 13.789062 100.992188 14.160156 100.992188 14.628906 C 100.992188 15.058594 101.363281 15.429688 101.792969 15.429688 C 102.261719 15.429688 102.632812 15.058594 102.632812 14.628906 C 102.632812 14.160156 102.261719 13.789062 101.8125 13.789062 Z M 101.8125 13.789062 "/>
<path style=" stroke:none;fill-rule:nonzero;fill:rgb(0%,0%,0%);fill-opacity:1;" d="M 105.957031 10.351562 C 106.835938 10.351562 107.1875 10.371094 107.539062 10.507812 C 108.476562 10.839844 109.042969 11.679688 109.042969 12.714844 C 109.042969 13.964844 108.203125 14.941406 107.089844 14.941406 C 106.699219 14.941406 106.386719 14.84375 105.839844 14.472656 C 105.390625 14.21875 105.136719 14.101562 104.882812 14.101562 C 104.53125 14.101562 104.316406 14.316406 104.316406 14.628906 C 104.316406 15.15625 104.960938 15.488281 105.996094 15.488281 C 107.148438 15.488281 108.339844 15.097656 109.042969 14.472656 C 109.746094 13.867188 110.117188 13.007812 110.117188 11.992188 C 110.117188 11.230469 109.882812 10.527344 109.453125 10.078125 C 109.160156 9.746094 108.867188 9.570312 108.222656 9.277344 C 109.238281 8.574219 109.609375 8.027344 109.609375 7.226562 C 109.609375 6.015625 108.671875 5.175781 107.285156 5.175781 C 106.542969 5.175781 105.878906 5.429688 105.351562 5.898438 C 104.902344 6.308594 104.667969 6.699219 104.335938 7.597656 L 104.570312 7.65625 C 105.175781 6.5625 105.859375 6.074219 106.796875 6.074219 C 107.773438 6.074219 108.4375 6.71875 108.4375 7.675781 C 108.4375 8.203125 108.222656 8.75 107.832031 9.121094 C 107.382812 9.570312 106.972656 9.785156 105.957031 10.15625 Z M 105.957031 10.351562 "/>
<path style=" stroke:none;fill-rule:nonzero;fill:rgb(0%,0%,0%);fill-opacity:1;" d="M 118.234375 13.222656 L 118.039062 13.144531 C 117.492188 14.003906 117.296875 14.140625 116.632812 14.140625 L 113.058594 14.140625 L 115.558594 11.503906 C 116.90625 10.117188 117.472656 8.984375 117.472656 7.8125 C 117.472656 6.328125 116.261719 5.175781 114.71875 5.175781 C 113.898438 5.175781 113.117188 5.507812 112.570312 6.09375 C 112.082031 6.601562 111.867188 7.089844 111.613281 8.144531 L 111.925781 8.222656 C 112.511719 6.757812 113.058594 6.269531 114.09375 6.269531 C 115.34375 6.269531 116.203125 7.128906 116.203125 8.378906 C 116.203125 9.550781 115.5 10.9375 114.25 12.265625 L 111.59375 15.097656 L 111.59375 15.273438 L 117.414062 15.273438 Z M 118.234375 13.222656 "/>
<path style=" stroke:none;fill-rule:nonzero;fill:rgb(0%,0%,0%);fill-opacity:1;" d="M 125.707031 13.222656 L 125.511719 13.144531 C 124.964844 14.003906 124.769531 14.140625 124.105469 14.140625 L 120.53125 14.140625 L 123.03125 11.503906 C 124.378906 10.117188 124.945312 8.984375 124.945312 7.8125 C 124.945312 6.328125 123.734375 5.175781 122.191406 5.175781 C 121.371094 5.175781 120.589844 5.507812 120.042969 6.09375 C 119.554688 6.601562 119.339844 7.089844 119.085938 8.144531 L 119.398438 8.222656 C 119.984375 6.757812 120.53125 6.269531 121.566406 6.269531 C 122.816406 6.269531 123.675781 7.128906 123.675781 8.378906 C 123.675781 9.550781 122.972656 10.9375 121.722656 12.265625 L 119.066406 15.097656 L 119.066406 15.273438 L 124.886719 15.273438 Z M 125.707031 13.222656 "/>
<path style=" stroke:none;fill-rule:nonzero;fill:rgb(0%,0%,0%);fill-opacity:1;" d="M 129.878906 5.175781 C 129.058594 5.175781 128.433594 5.429688 127.886719 5.957031 C 127.007812 6.777344 126.441406 8.496094 126.441406 10.253906 C 126.441406 11.875 126.949219 13.632812 127.652344 14.472656 C 128.199219 15.117188 128.960938 15.488281 129.820312 15.488281 C 130.582031 15.488281 131.226562 15.234375 131.773438 14.707031 C 132.632812 13.886719 133.199219 12.148438 133.199219 10.351562 C 133.199219 7.285156 131.851562 5.175781 129.878906 5.175781 Z M 129.839844 5.566406 C 131.089844 5.566406 131.773438 7.246094 131.773438 10.371094 C 131.773438 13.496094 131.109375 15.097656 129.820312 15.097656 C 128.53125 15.097656 127.886719 13.496094 127.886719 10.390625 C 127.886719 7.226562 128.550781 5.566406 129.839844 5.566406 Z M 129.839844 5.566406 "/>
<path style=" stroke:none;fill-rule:nonzero;fill:rgb(0%,0%,0%);fill-opacity:1;" d="M 137.882812 11.425781 L 137.882812 12.382812 L 141.554688 12.382812 L 141.554688 11.425781 Z M 137.882812 11.425781 "/>
<path style=" stroke:none;fill-rule:nonzero;fill:rgb(0%,0%,0%);fill-opacity:1;" d="M 144.558594 10.351562 C 145.4375 10.351562 145.789062 10.371094 146.140625 10.507812 C 147.078125 10.839844 147.644531 11.679688 147.644531 12.714844 C 147.644531 13.964844 146.804688 14.941406 145.691406 14.941406 C 145.300781 14.941406 144.988281 14.84375 144.441406 14.472656 C 143.992188 14.21875 143.738281 14.101562 143.484375 14.101562 C 143.132812 14.101562 142.917969 14.316406 142.917969 14.628906 C 142.917969 15.15625 143.5625 15.488281 144.597656 15.488281 C 145.75 15.488281 146.941406 15.097656 147.644531 14.472656 C 148.347656 13.867188 148.71875 13.007812 148.71875 11.992188 C 148.71875 11.230469 148.484375 10.527344 148.054688 10.078125 C 147.761719 9.746094 147.46875 9.570312 146.824219 9.277344 C 147.839844 8.574219 148.210938 8.027344 148.210938 7.226562 C 148.210938 6.015625 147.273438 5.175781 145.886719 5.175781 C 145.144531 5.175781 144.480469 5.429688 143.953125 5.898438 C 143.503906 6.308594 143.269531 6.699219 142.9375 7.597656 L 143.171875 7.65625 C 143.777344 6.5625 144.460938 6.074219 145.398438 6.074219 C 146.375 6.074219 147.039062 6.71875 147.039062 7.675781 C 147.039062 8.203125 146.824219 8.75 146.433594 9.121094 C 145.984375 9.570312 145.574219 9.785156 144.558594 10.15625 Z M 144.558594 10.351562 "/>
<path style=" stroke:none;fill-rule:nonzero;fill:rgb(0%,0%,0%);fill-opacity:1;" d="M 151.621094 13.789062 C 151.171875 13.789062 150.800781 14.160156 150.800781 14.628906 C 150.800781 15.058594 151.171875 15.429688 151.601562 15.429688 C 152.070312 15.429688 152.441406 15.058594 152.441406 14.628906 C 152.441406 14.160156 152.070312 13.789062 151.621094 13.789062 Z M 151.621094 13.789062 "/>
<path style=" stroke:none;fill-rule:nonzero;fill:rgb(0%,0%,0%);fill-opacity:1;" d="M 157.816406 9.726562 C 159.300781 8.945312 159.808594 8.320312 159.808594 7.285156 C 159.808594 6.074219 158.734375 5.175781 157.25 5.175781 C 155.609375 5.175781 154.398438 6.171875 154.398438 7.539062 C 154.398438 8.496094 154.691406 8.945312 156.253906 10.3125 C 154.652344 11.542969 154.320312 11.992188 154.320312 13.007812 C 154.320312 14.472656 155.492188 15.488281 157.191406 15.488281 C 158.988281 15.488281 160.121094 14.492188 160.121094 12.949219 C 160.121094 11.816406 159.613281 11.074219 157.816406 9.726562 Z M 157.542969 11.269531 C 158.636719 12.050781 158.988281 12.578125 158.988281 13.417969 C 158.988281 14.394531 158.324219 15.058594 157.347656 15.058594 C 156.214844 15.058594 155.453125 14.199219 155.453125 12.890625 C 155.453125 11.933594 155.785156 11.308594 156.644531 10.605469 Z M 157.386719 9.453125 C 156.058594 8.59375 155.511719 7.910156 155.511719 7.070312 C 155.511719 6.210938 156.175781 5.585938 157.132812 5.585938 C 158.148438 5.585938 158.792969 6.25 158.792969 7.285156 C 158.792969 8.125 158.363281 8.808594 157.523438 9.375 C 157.445312 9.414062 157.445312 9.414062 157.386719 9.453125 Z M 157.386719 9.453125 "/>
<path style=" stroke:none;fill-rule:nonzero;fill:rgb(0%,0%,0%);fill-opacity:1;" d="M 165.273438 11.425781 L 165.273438 12.382812 L 168.945312 12.382812 L 168.945312 11.425781 Z M 165.273438 11.425781 "/>
<path style=" stroke:none;fill-rule:nonzero;fill:rgb(0%,0%,0%);fill-opacity:1;" d="M 171.539062 13.789062 C 171.089844 13.789062 170.71875 14.160156 170.71875 14.628906 C 170.71875 15.058594 171.089844 15.429688 171.519531 15.429688 C 171.988281 15.429688 172.359375 15.058594 172.359375 14.628906 C 172.359375 14.160156 171.988281 13.789062 171.539062 13.789062 Z M 171.539062 13.789062 "/>
<path style=" stroke:none;fill-rule:nonzero;fill:rgb(0%,0%,0%);fill-opacity:1;" d="M 175.6875 10.351562 C 176.566406 10.351562 176.917969 10.371094 177.269531 10.507812 C 178.207031 10.839844 178.773438 11.679688 178.773438 12.714844 C 178.773438 13.964844 177.933594 14.941406 176.820312 14.941406 C 176.429688 14.941406 176.117188 14.84375 175.570312 14.472656 C 175.121094 14.21875 174.867188 14.101562 174.613281 14.101562 C 174.261719 14.101562 174.046875 14.316406 174.046875 14.628906 C 174.046875 15.15625 174.691406 15.488281 175.726562 15.488281 C 176.878906 15.488281 178.070312 15.097656 178.773438 14.472656 C 179.476562 13.867188 179.847656 13.007812 179.847656 11.992188 C 179.847656 11.230469 179.613281 10.527344 179.183594 10.078125 C 178.890625 9.746094 178.597656 9.570312 177.953125 9.277344 C 178.96875 8.574219 179.339844 8.027344 179.339844 7.226562 C 179.339844 6.015625 178.402344 5.175781 177.015625 5.175781 C 176.273438 5.175781 175.609375 5.429688 175.082031 5.898438 C 174.632812 6.308594 174.398438 6.699219 174.066406 7.597656 L 174.300781 7.65625 C 174.90625 6.5625 175.589844 6.074219 176.527344 6.074219 C 177.503906 6.074219 178.167969 6.71875 178.167969 7.675781 C 178.167969 8.203125 177.953125 8.75 177.5625 9.121094 C 177.113281 9.570312 176.703125 9.785156 175.6875 10.15625 Z M 175.6875 10.351562 "/>
<path style=" stroke:none;fill-rule:nonzero;fill:rgb(0%,0%,0%);fill-opacity:1;" d="M 183.15625 10.351562 C 184.035156 10.351562 184.386719 10.371094 184.738281 10.507812 C 185.675781 10.839844 186.242188 11.679688 186.242188 12.714844 C 186.242188 13.964844 185.402344 14.941406 184.289062 14.941406 C 183.898438 14.941406 183.585938 14.84375 183.039062 14.472656 C 182.589844 14.21875 182.335938 14.101562 182.082031 14.101562 C 181.730469 14.101562 181.515625 14.316406 181.515625 14.628906 C 181.515625 15.15625 182.160156 15.488281 183.195312 15.488281 C 184.347656 15.488281 185.539062 15.097656 186.242188 14.472656 C 186.945312 13.867188 187.316406 13.007812 187.316406 11.992188 C 187.316406 11.230469 187.082031 10.527344 186.652344 10.078125 C 186.359375 9.746094 186.066406 9.570312 185.421875 9.277344 C 186.4375 8.574219 186.808594 8.027344 186.808594 7.226562 C 186.808594 6.015625 185.871094 5.175781 184.484375 5.175781 C 183.742188 5.175781 183.078125 5.429688 182.550781 5.898438 C 182.101562 6.308594 181.867188 6.699219 181.535156 7.597656 L 181.769531 7.65625 C 182.375 6.5625 183.058594 6.074219 183.996094 6.074219 C 184.972656 6.074219 185.636719 6.71875 185.636719 7.675781 C 185.636719 8.203125 185.421875 8.75 185.03125 9.121094 C 184.582031 9.570312 184.171875 9.785156 183.15625 10.15625 Z M 183.15625 10.351562 "/>
<path style=" stroke:none;fill-rule:nonzero;fill:rgb(0%,0%,0%);fill-opacity:1;" d="M 190.628906 10.351562 C 191.507812 10.351562 191.859375 10.371094 192.210938 10.507812 C 193.148438 10.839844 193.714844 11.679688 193.714844 12.714844 C 193.714844 13.964844 192.875 14.941406 191.761719 14.941406 C 191.371094 14.941406 191.058594 14.84375 190.511719 14.472656 C 190.0625 14.21875 189.808594 14.101562 189.554688 14.101562 C 189.203125 14.101562 188.988281 14.316406 188.988281 14.628906 C 188.988281 15.15625 189.632812 15.488281 190.667969 15.488281 C 191.820312 15.488281 193.011719 15.097656 193.714844 14.472656 C 194.417969 13.867188 194.789062 13.007812 194.789062 11.992188 C 194.789062 11.230469 194.554688 10.527344 194.125 10.078125 C 193.832031 9.746094 193.539062 9.570312 192.894531 9.277344 C 193.910156 8.574219 194.28125 8.027344 194.28125 7.226562 C 194.28125 6.015625 193.34375 5.175781 191.957031 5.175781 C 191.214844 5.175781 190.550781 5.429688 190.023438 5.898438 C 189.574219 6.308594 189.339844 6.699219 189.007812 7.597656 L 189.242188 7.65625 C 189.847656 6.5625 190.53125 6.074219 191.46875 6.074219 C 192.445312 6.074219 193.109375 6.71875 193.109375 7.675781 C 193.109375 8.203125 192.894531 8.75 192.503906 9.121094 C 192.054688 9.570312 191.644531 9.785156 190.628906 10.15625 Z M 190.628906 10.351562 "/>
<path style=" stroke:none;fill-rule:nonzero;fill:rgb(0%,0%,0%);fill-opacity:1;" d="M 202.515625 5.390625 L 196.988281 5.390625 L 196.109375 7.578125 L 196.363281 7.695312 C 197.007812 6.679688 197.28125 6.484375 198.101562 6.484375 L 201.34375 6.484375 L 198.394531 15.390625 L 199.351562 15.390625 L 202.515625 5.625 Z M 202.515625 5.390625 "/>
<path style=" stroke:none;fill-rule:nonzero;fill:rgb(0%,0%,0%);fill-opacity:1;" d="M 207.609375 11.425781 L 207.609375 12.382812 L 211.28125 12.382812 L 211.28125 11.425781 Z M 207.609375 11.425781 "/>
<path style=" stroke:none;fill-rule:nonzero;fill:rgb(0%,0%,0%);fill-opacity:1;" d="M 214.285156 10.351562 C 215.164062 10.351562 215.515625 10.371094 215.867188 10.507812 C 216.804688 10.839844 217.371094 11.679688 217.371094 12.714844 C 217.371094 13.964844 216.53125 14.941406 215.417969 14.941406 C 215.027344 14.941406 214.714844 14.84375 214.167969 14.472656 C 213.71875 14.21875 213.464844 14.101562 213.210938 14.101562 C 212.859375 14.101562 212.644531 14.316406 212.644531 14.628906 C 212.644531 15.15625 213.289062 15.488281 214.324219 15.488281 C 215.476562 15.488281 216.667969 15.097656 217.371094 14.472656 C 218.074219 13.867188 218.445312 13.007812 218.445312 11.992188 C 218.445312 11.230469 218.210938 10.527344 217.78125 10.078125 C 217.488281 9.746094 217.195312 9.570312 216.550781 9.277344 C 217.566406 8.574219 217.9375 8.027344 217.9375 7.226562 C 217.9375 6.015625 217 5.175781 215.613281 5.175781 C 214.871094 5.175781 214.207031 5.429688 213.679688 5.898438 C 213.230469 6.308594 212.996094 6.699219 212.664062 7.597656 L 212.898438 7.65625 C 213.503906 6.5625 214.1875 6.074219 215.125 6.074219 C 216.101562 6.074219 216.765625 6.71875 216.765625 7.675781 C 216.765625 8.203125 216.550781 8.75 216.160156 9.121094 C 215.710938 9.570312 215.300781 9.785156 214.285156 10.15625 Z M 214.285156 10.351562 "/>
<path style=" stroke:none;fill-rule:nonzero;fill:rgb(0%,0%,0%);fill-opacity:1;" d="M 221.347656 13.789062 C 220.898438 13.789062 220.527344 14.160156 220.527344 14.628906 C 220.527344 15.058594 220.898438 15.429688 221.328125 15.429688 C 221.796875 15.429688 222.167969 15.058594 222.167969 14.628906 C 222.167969 14.160156 221.796875 13.789062 221.347656 13.789062 Z M 221.347656 13.789062 "/>
<path style=" stroke:none;fill-rule:nonzero;fill:rgb(0%,0%,0%);fill-opacity:1;" d="M 229.910156 5.390625 L 224.382812 5.390625 L 223.503906 7.578125 L 223.757812 7.695312 C 224.402344 6.679688 224.675781 6.484375 225.496094 6.484375 L 228.738281 6.484375 L 225.789062 15.390625 L 226.746094 15.390625 L 229.910156 5.625 Z M 229.910156 5.390625 "/>
<path style=" stroke:none;fill-rule:nonzero;fill:rgb(0%,0%,0%);fill-opacity:1;" d="M 235.003906 11.425781 L 235.003906 12.382812 L 238.675781 12.382812 L 238.675781 11.425781 Z M 235.003906 11.425781 "/>
<path style=" stroke:none;fill-rule:nonzero;fill:rgb(0%,0%,0%);fill-opacity:1;" d="M 241.269531 13.789062 C 240.820312 13.789062 240.449219 14.160156 240.449219 14.628906 C 240.449219 15.058594 240.820312 15.429688 241.25 15.429688 C 241.71875 15.429688 242.089844 15.058594 242.089844 14.628906 C 242.089844 14.160156 241.71875 13.789062 241.269531 13.789062 Z M 241.269531 13.789062 "/>
<path style=" stroke:none;fill-rule:nonzero;fill:rgb(0%,0%,0%);fill-opacity:1;" d="M 245.414062 10.351562 C 246.292969 10.351562 246.644531 10.371094 246.996094 10.507812 C 247.933594 10.839844 248.5 11.679688 248.5 12.714844 C 248.5 13.964844 247.660156 14.941406 246.546875 14.941406 C 246.15625 14.941406 245.84375 14.84375 245.296875 14.472656 C 244.847656 14.21875 244.59375 14.101562 244.339844 14.101562 C 243.988281 14.101562 243.773438 14.316406 243.773438 14.628906 C 243.773438 15.15625 244.417969 15.488281 245.453125 15.488281 C 246.605469 15.488281 247.796875 15.097656 248.5 14.472656 C 249.203125 13.867188 249.574219 13.007812 249.574219 11.992188 C 249.574219 11.230469 249.339844 10.527344 248.910156 10.078125 C 248.617188 9.746094 248.324219 9.570312 247.679688 9.277344 C 248.695312 8.574219 249.066406 8.027344 249.066406 7.226562 C 249.066406 6.015625 248.128906 5.175781 246.742188 5.175781 C 246 5.175781 245.335938 5.429688 244.808594 5.898438 C 244.359375 6.308594 244.125 6.699219 243.792969 7.597656 L 244.027344 7.65625 C 244.632812 6.5625 245.316406 6.074219 246.253906 6.074219 C 247.230469 6.074219 247.894531 6.71875 247.894531 7.675781 C 247.894531 8.203125 247.679688 8.75 247.289062 9.121094 C 246.839844 9.570312 246.429688 9.785156 245.414062 10.15625 Z M 245.414062 10.351562 "/>
<path style=" stroke:none;fill-rule:nonzero;fill:rgb(0%,0%,0%);fill-opacity:1;" d="M 257.652344 11.816406 L 256.128906 11.816406 L 256.128906 5.175781 L 255.464844 5.175781 L 250.777344 11.816406 L 250.777344 12.773438 L 254.976562 12.773438 L 254.976562 15.273438 L 256.128906 15.273438 L 256.128906 12.773438 L 257.652344 12.773438 Z M 254.957031 11.816406 L 251.382812 11.816406 L 254.957031 6.699219 Z M 254.957031 11.816406 "/>
<path style=" stroke:none;fill-rule:nonzero;fill:rgb(0%,0%,0%);fill-opacity:1;" d="M 264.734375 5.058594 C 263.035156 5.195312 262.175781 5.488281 261.082031 6.25 C 259.460938 7.402344 258.582031 9.101562 258.582031 11.113281 C 258.582031 12.402344 258.992188 13.710938 259.636719 14.472656 C 260.203125 15.117188 261.003906 15.488281 261.921875 15.488281 C 263.777344 15.488281 265.066406 14.0625 265.066406 11.992188 C 265.066406 10.097656 263.972656 8.886719 262.253906 8.886719 C 261.609375 8.886719 261.277344 8.984375 260.339844 9.550781 C 260.75 7.285156 262.429688 5.683594 264.773438 5.292969 Z M 261.6875 9.570312 C 262.976562 9.570312 263.71875 10.644531 263.71875 12.5 C 263.71875 14.160156 263.132812 15.058594 262.097656 15.058594 C 260.769531 15.058594 259.96875 13.652344 259.96875 11.347656 C 259.96875 10.585938 260.085938 10.15625 260.398438 9.941406 C 260.710938 9.707031 261.160156 9.570312 261.6875 9.570312 Z M 261.6875 9.570312 "/>
<path style=" stroke:none;fill-rule:nonzero;fill:rgb(0%,0%,0%);fill-opacity:1;" d="M 267.832031 10.351562 C 268.710938 10.351562 269.0625 10.371094 269.414062 10.507812 C 270.351562 10.839844 270.917969 11.679688 270.917969 12.714844 C 270.917969 13.964844 270.078125 14.941406 268.964844 14.941406 C 268.574219 14.941406 268.261719 14.84375 267.714844 14.472656 C 267.265625 14.21875 267.011719 14.101562 266.757812 14.101562 C 266.40625 14.101562 266.191406 14.316406 266.191406 14.628906 C 266.191406 15.15625 266.835938 15.488281 267.871094 15.488281 C 269.023438 15.488281 270.214844 15.097656 270.917969 14.472656 C 271.621094 13.867188 271.992188 13.007812 271.992188 11.992188 C 271.992188 11.230469 271.757812 10.527344 271.328125 10.078125 C 271.035156 9.746094 270.742188 9.570312 270.097656 9.277344 C 271.113281 8.574219 271.484375 8.027344 271.484375 7.226562 C 271.484375 6.015625 270.546875 5.175781 269.160156 5.175781 C 268.417969 5.175781 267.753906 5.429688 267.226562 5.898438 C 266.777344 6.308594 266.542969 6.699219 266.210938 7.597656 L 266.445312 7.65625 C 267.050781 6.5625 267.734375 6.074219 268.671875 6.074219 C 269.648438 6.074219 270.3125 6.71875 270.3125 7.675781 C 270.3125 8.203125 270.097656 8.75 269.707031 9.121094 C 269.257812 9.570312 268.847656 9.785156 267.832031 10.15625 Z M 267.832031 10.351562 "/>
<path style=" stroke:none;fill-rule:nonzero;fill:rgb(0%,0%,0%);fill-opacity:1;" d="M 277.339844 11.425781 L 277.339844 12.382812 L 281.011719 12.382812 L 281.011719 11.425781 Z M 277.339844 11.425781 "/>
<path style=" stroke:none;fill-rule:nonzero;fill:rgb(0%,0%,0%);fill-opacity:1;" d="M 284.015625 10.351562 C 284.894531 10.351562 285.246094 10.371094 285.597656 10.507812 C 286.535156 10.839844 287.101562 11.679688 287.101562 12.714844 C 287.101562 13.964844 286.261719 14.941406 285.148438 14.941406 C 284.757812 14.941406 284.445312 14.84375 283.898438 14.472656 C 283.449219 14.21875 283.195312 14.101562 282.941406 14.101562 C 282.589844 14.101562 282.375 14.316406 282.375 14.628906 C 282.375 15.15625 283.019531 15.488281 284.054688 15.488281 C 285.207031 15.488281 286.398438 15.097656 287.101562 14.472656 C 287.804688 13.867188 288.175781 13.007812 288.175781 11.992188 C 288.175781 11.230469 287.941406 10.527344 287.511719 10.078125 C 287.21875 9.746094 286.925781 9.570312 286.28125 9.277344 C 287.296875 8.574219 287.667969 8.027344 287.667969 7.226562 C 287.667969 6.015625 286.730469 5.175781 285.34375 5.175781 C 284.601562 5.175781 283.9375 5.429688 283.410156 5.898438 C 282.960938 6.308594 282.726562 6.699219 282.394531 7.597656 L 282.628906 7.65625 C 283.234375 6.5625 283.917969 6.074219 284.855469 6.074219 C 285.832031 6.074219 286.496094 6.71875 286.496094 7.675781 C 286.496094 8.203125 286.28125 8.75 285.890625 9.121094 C 285.441406 9.570312 285.03125 9.785156 284.015625 10.15625 Z M 284.015625 10.351562 "/>
<path style=" stroke:none;fill-rule:nonzero;fill:rgb(0%,0%,0%);fill-opacity:1;" d="M 291.078125 13.789062 C 290.628906 13.789062 290.257812 14.160156 290.257812 14.628906 C 290.257812 15.058594 290.628906 15.429688 291.058594 15.429688 C 291.527344 15.429688 291.898438 15.058594 291.898438 14.628906 C 291.898438 14.160156 291.527344 13.789062 291.078125 13.789062 Z M 291.078125 13.789062 "/>
<path style=" stroke:none;fill-rule:nonzero;fill:rgb(0%,0%,0%);fill-opacity:1;" d="M 299.597656 5.058594 C 297.898438 5.195312 297.039062 5.488281 295.945312 6.25 C 294.324219 7.402344 293.445312 9.101562 293.445312 11.113281 C 293.445312 12.402344 293.855469 13.710938 294.5 14.472656 C 295.066406 15.117188 295.867188 15.488281 296.785156 15.488281 C 298.640625 15.488281 299.929688 14.0625 299.929688 11.992188 C 299.929688 10.097656 298.835938 8.886719 297.117188 8.886719 C 296.472656 8.886719 296.140625 8.984375 295.203125 9.550781 C 295.613281 7.285156 297.292969 5.683594 299.636719 5.292969 Z M 296.550781 9.570312 C 297.839844 9.570312 298.582031 10.644531 298.582031 12.5 C 298.582031 14.160156 297.996094 15.058594 296.960938 15.058594 C 295.632812 15.058594 294.832031 13.652344 294.832031 11.347656 C 294.832031 10.585938 294.949219 10.15625 295.261719 9.941406 C 295.574219 9.707031 296.023438 9.570312 296.550781 9.570312 Z M 296.550781 9.570312 "/>
<path style=" stroke:none;fill-rule:nonzero;fill:rgb(0%,0%,0%);fill-opacity:1;" d="M 304.730469 11.425781 L 304.730469 12.382812 L 308.402344 12.382812 L 308.402344 11.425781 Z M 304.730469 11.425781 "/>
<path style=" stroke:none;fill-rule:nonzero;fill:rgb(0%,0%,0%);fill-opacity:1;" d="M 310.996094 13.789062 C 310.546875 13.789062 310.175781 14.160156 310.175781 14.628906 C 310.175781 15.058594 310.546875 15.429688 310.976562 15.429688 C 311.445312 15.429688 311.816406 15.058594 311.816406 14.628906 C 311.816406 14.160156 311.445312 13.789062 310.996094 13.789062 Z M 310.996094 13.789062 "/>
<path style=" stroke:none;fill-rule:nonzero;fill:rgb(0%,0%,0%);fill-opacity:1;" d="M 315.144531 10.351562 C 316.023438 10.351562 316.375 10.371094 316.726562 10.507812 C 317.664062 10.839844 318.230469 11.679688 318.230469 12.714844 C 318.230469 13.964844 317.390625 14.941406 316.277344 14.941406 C 315.886719 14.941406 315.574219 14.84375 315.027344 14.472656 C 314.578125 14.21875 314.324219 14.101562 314.070312 14.101562 C 313.71875 14.101562 313.503906 14.316406 313.503906 14.628906 C 313.503906 15.15625 314.148438 15.488281 315.183594 15.488281 C 316.335938 15.488281 317.527344 15.097656 318.230469 14.472656 C 318.933594 13.867188 319.304688 13.007812 319.304688 11.992188 C 319.304688 11.230469 319.070312 10.527344 318.640625 10.078125 C 318.347656 9.746094 318.054688 9.570312 317.410156 9.277344 C 318.425781 8.574219 318.796875 8.027344 318.796875 7.226562 C 318.796875 6.015625 317.859375 5.175781 316.472656 5.175781 C 315.730469 5.175781 315.066406 5.429688 314.539062 5.898438 C 314.089844 6.308594 313.855469 6.699219 313.523438 7.597656 L 313.757812 7.65625 C 314.363281 6.5625 315.046875 6.074219 315.984375 6.074219 C 316.960938 6.074219 317.625 6.71875 317.625 7.675781 C 317.625 8.203125 317.410156 8.75 317.019531 9.121094 C 316.570312 9.570312 316.160156 9.785156 315.144531 10.15625 Z M 315.144531 10.351562 "/>
<path style=" stroke:none;fill-rule:nonzero;fill:rgb(0%,0%,0%);fill-opacity:1;" d="M 326.992188 5.058594 C 325.292969 5.195312 324.433594 5.488281 323.339844 6.25 C 321.71875 7.402344 320.839844 9.101562 320.839844 11.113281 C 320.839844 12.402344 321.25 13.710938 321.894531 14.472656 C 322.460938 15.117188 323.261719 15.488281 324.179688 15.488281 C 326.035156 15.488281 327.324219 14.0625 327.324219 11.992188 C 327.324219 10.097656 326.230469 8.886719 324.511719 8.886719 C 323.867188 8.886719 323.535156 8.984375 322.597656 9.550781 C 323.007812 7.285156 324.6875 5.683594 327.03125 5.292969 Z M 323.945312 9.570312 C 325.234375 9.570312 325.976562 10.644531 325.976562 12.5 C 325.976562 14.160156 325.390625 15.058594 324.355469 15.058594 C 323.027344 15.058594 322.226562 13.652344 322.226562 11.347656 C 322.226562 10.585938 322.34375 10.15625 322.65625 9.941406 C 322.96875 9.707031 323.417969 9.570312 323.945312 9.570312 Z M 323.945312 9.570312 "/>
<path style=" stroke:none;fill-rule:nonzero;fill:rgb(0%,0%,0%);fill-opacity:1;" d="M 331.589844 5.175781 C 330.769531 5.175781 330.144531 5.429688 329.597656 5.957031 C 328.71875 6.777344 328.152344 8.496094 328.152344 10.253906 C 328.152344 11.875 328.660156 13.632812 329.363281 14.472656 C 329.910156 15.117188 330.671875 15.488281 331.53125 15.488281 C 332.292969 15.488281 332.9375 15.234375 333.484375 14.707031 C 334.34375 13.886719 334.910156 12.148438 334.910156 10.351562 C 334.910156 7.285156 333.5625 5.175781 331.589844 5.175781 Z M 331.550781 5.566406 C 332.800781 5.566406 333.484375 7.246094 333.484375 10.371094 C 333.484375 13.496094 332.820312 15.097656 331.53125 15.097656 C 330.242188 15.097656 329.597656 13.496094 329.597656 10.390625 C 329.597656 7.226562 330.261719 5.566406 331.550781 5.566406 Z M 331.550781 5.566406 "/>
<path style=" stroke:none;fill-rule:nonzero;fill:rgb(0%,0%,0%);fill-opacity:1;" d="M 339.0625 5.175781 C 338.242188 5.175781 337.617188 5.429688 337.070312 5.957031 C 336.191406 6.777344 335.625 8.496094 335.625 10.253906 C 335.625 11.875 336.132812 13.632812 336.835938 14.472656 C 337.382812 15.117188 338.144531 15.488281 339.003906 15.488281 C 339.765625 15.488281 340.410156 15.234375 340.957031 14.707031 C 341.816406 13.886719 342.382812 12.148438 342.382812 10.351562 C 342.382812 7.285156 341.035156 5.175781 339.0625 5.175781 Z M 339.023438 5.566406 C 340.273438 5.566406 340.957031 7.246094 340.957031 10.371094 C 340.957031 13.496094 340.292969 15.097656 339.003906 15.097656 C 337.714844 15.097656 337.070312 13.496094 337.070312 10.390625 C 337.070312 7.226562 337.734375 5.566406 339.023438 5.566406 Z M 339.023438 5.566406 "/>
<path style=" stroke:none;fill-rule:nonzero;fill:rgb(0%,0%,0%);fill-opacity:1;" d="M 347.066406 11.425781 L 347.066406 12.382812 L 350.738281 12.382812 L 350.738281 11.425781 Z M 347.066406 11.425781 "/>
<path style=" stroke:none;fill-rule:nonzero;fill:rgb(0%,0%,0%);fill-opacity:1;" d="M 353.742188 10.351562 C 354.621094 10.351562 354.972656 10.371094 355.324219 10.507812 C 356.261719 10.839844 356.828125 11.679688 356.828125 12.714844 C 356.828125 13.964844 355.988281 14.941406 354.875 14.941406 C 354.484375 14.941406 354.171875 14.84375 353.625 14.472656 C 353.175781 14.21875 352.921875 14.101562 352.667969 14.101562 C 352.316406 14.101562 352.101562 14.316406 352.101562 14.628906 C 352.101562 15.15625 352.746094 15.488281 353.78125 15.488281 C 354.933594 15.488281 356.125 15.097656 356.828125 14.472656 C 357.53125 13.867188 357.902344 13.007812 357.902344 11.992188 C 357.902344 11.230469 357.667969 10.527344 357.238281 10.078125 C 356.945312 9.746094 356.652344 9.570312 356.007812 9.277344 C 357.023438 8.574219 357.394531 8.027344 357.394531 7.226562 C 357.394531 6.015625 356.457031 5.175781 355.070312 5.175781 C 354.328125 5.175781 353.664062 5.429688 353.136719 5.898438 C 352.6875 6.308594 352.453125 6.699219 352.121094 7.597656 L 352.355469 7.65625 C 352.960938 6.5625 353.644531 6.074219 354.582031 6.074219 C 355.558594 6.074219 356.222656 6.71875 356.222656 7.675781 C 356.222656 8.203125 356.007812 8.75 355.617188 9.121094 C 355.167969 9.570312 354.757812 9.785156 353.742188 10.15625 Z M 353.742188 10.351562 "/>
<path style=" stroke:none;fill-rule:nonzero;fill:rgb(0%,0%,0%);fill-opacity:1;" d="M 360.804688 13.789062 C 360.355469 13.789062 359.984375 14.160156 359.984375 14.628906 C 359.984375 15.058594 360.355469 15.429688 360.785156 15.429688 C 361.253906 15.429688 361.625 15.058594 361.625 14.628906 C 361.625 14.160156 361.253906 13.789062 360.804688 13.789062 Z M 360.804688 13.789062 "/>
<path style=" stroke:none;fill-rule:nonzero;fill:rgb(0%,0%,0%);fill-opacity:1;" d="M 365.363281 6.5625 L 368.292969 6.5625 C 368.546875 6.5625 368.605469 6.523438 368.644531 6.425781 L 369.210938 5.097656 L 369.074219 5 C 368.859375 5.3125 368.703125 5.390625 368.390625 5.390625 L 365.265625 5.390625 L 363.644531 8.925781 C 363.625 8.945312 363.625 8.964844 363.625 9.003906 C 363.625 9.082031 363.683594 9.121094 363.800781 9.121094 C 364.289062 9.121094 364.875 9.21875 365.5 9.414062 C 367.21875 9.960938 368 10.898438 368 12.382812 C 368 13.808594 367.082031 14.921875 365.929688 14.921875 C 365.617188 14.921875 365.363281 14.824219 364.933594 14.492188 C 364.445312 14.160156 364.09375 14.003906 363.78125 14.003906 C 363.351562 14.003906 363.136719 14.179688 363.136719 14.550781 C 363.136719 15.117188 363.839844 15.488281 364.972656 15.488281 C 366.222656 15.488281 367.296875 15.078125 368.039062 14.316406 C 368.742188 13.652344 369.054688 12.792969 369.054688 11.660156 C 369.054688 10.585938 368.761719 9.902344 368.019531 9.140625 C 367.355469 8.496094 366.515625 8.144531 364.738281 7.832031 Z M 365.363281 6.5625 "/>
<path style=" stroke:none;fill-rule:nonzero;fill:rgb(0%,0%,0%);fill-opacity:1;" d="M 374.460938 11.425781 L 374.460938 12.382812 L 378.132812 12.382812 L 378.132812 11.425781 Z M 374.460938 11.425781 "/>
<path style=" stroke:none;fill-rule:nonzero;fill:rgb(0%,0%,0%);fill-opacity:1;" d="M 380.726562 13.789062 C 380.277344 13.789062 379.90625 14.160156 379.90625 14.628906 C 379.90625 15.058594 380.277344 15.429688 380.707031 15.429688 C 381.175781 15.429688 381.546875 15.058594 381.546875 14.628906 C 381.546875 14.160156 381.175781 13.789062 380.726562 13.789062 Z M 380.726562 13.789062 "/>
<path style=" stroke:none;fill-rule:nonzero;fill:rgb(0%,0%,0%);fill-opacity:1;" d="M 384.871094 10.351562 C 385.75 10.351562 386.101562 10.371094 386.453125 10.507812 C 387.390625 10.839844 387.957031 11.679688 387.957031 12.714844 C 387.957031 13.964844 387.117188 14.941406 386.003906 14.941406 C 385.613281 14.941406 385.300781 14.84375 384.753906 14.472656 C 384.304688 14.21875 384.050781 14.101562 383.796875 14.101562 C 383.445312 14.101562 383.230469 14.316406 383.230469 14.628906 C 383.230469 15.15625 383.875 15.488281 384.910156 15.488281 C 386.0625 15.488281 387.253906 15.097656 387.957031 14.472656 C 388.660156 13.867188 389.03125 13.007812 389.03125 11.992188 C 389.03125 11.230469 388.796875 10.527344 388.367188 10.078125 C 388.074219 9.746094 387.78125 9.570312 387.136719 9.277344 C 388.152344 8.574219 388.523438 8.027344 388.523438 7.226562 C 388.523438 6.015625 387.585938 5.175781 386.199219 5.175781 C 385.457031 5.175781 384.792969 5.429688 384.265625 5.898438 C 383.816406 6.308594 383.582031 6.699219 383.25 7.597656 L 383.484375 7.65625 C 384.089844 6.5625 384.773438 6.074219 385.710938 6.074219 C 386.6875 6.074219 387.351562 6.71875 387.351562 7.675781 C 387.351562 8.203125 387.136719 8.75 386.746094 9.121094 C 386.296875 9.570312 385.886719 9.785156 384.871094 10.15625 Z M 384.871094 10.351562 "/>
<path style=" stroke:none;fill-rule:nonzero;fill:rgb(0%,0%,0%);fill-opacity:1;" d="M 396.757812 5.390625 L 391.230469 5.390625 L 390.351562 7.578125 L 390.605469 7.695312 C 391.25 6.679688 391.523438 6.484375 392.34375 6.484375 L 395.585938 6.484375 L 392.636719 15.390625 L 393.59375 15.390625 L 396.757812 5.625 Z M 396.757812 5.390625 "/>
<path style=" stroke:none;fill-rule:nonzero;fill:rgb(0%,0%,0%);fill-opacity:1;" d="M 400.226562 6.5625 L 403.15625 6.5625 C 403.410156 6.5625 403.46875 6.523438 403.507812 6.425781 L 404.074219 5.097656 L 403.9375 5 C 403.722656 5.3125 403.566406 5.390625 403.253906 5.390625 L 400.128906 5.390625 L 398.507812 8.925781 C 398.488281 8.945312 398.488281 8.964844 398.488281 9.003906 C 398.488281 9.082031 398.546875 9.121094 398.664062 9.121094 C 399.152344 9.121094 399.738281 9.21875 400.363281 9.414062 C 402.082031 9.960938 402.863281 10.898438 402.863281 12.382812 C 402.863281 13.808594 401.945312 14.921875 400.792969 14.921875 C 400.480469 14.921875 400.226562 14.824219 399.796875 14.492188 C 399.308594 14.160156 398.957031 14.003906 398.644531 14.003906 C 398.214844 14.003906 398 14.179688 398 14.550781 C 398 15.117188 398.703125 15.488281 399.835938 15.488281 C 401.085938 15.488281 402.160156 15.078125 402.902344 14.316406 C 403.605469 13.652344 403.917969 12.792969 403.917969 11.660156 C 403.917969 10.585938 403.625 9.902344 402.882812 9.140625 C 402.21875 8.496094 401.378906 8.144531 399.601562 7.832031 Z M 400.226562 6.5625 "/>
<path style=" stroke:none;fill-rule:nonzero;fill:rgb(0%,0%,0%);fill-opacity:1;" d="M 408.792969 5.175781 C 407.972656 5.175781 407.347656 5.429688 406.800781 5.957031 C 405.921875 6.777344 405.355469 8.496094 405.355469 10.253906 C 405.355469 11.875 405.863281 13.632812 406.566406 14.472656 C 407.113281 15.117188 407.875 15.488281 408.734375 15.488281 C 409.496094 15.488281 410.140625 15.234375 410.6875 14.707031 C 411.546875 13.886719 412.113281 12.148438 412.113281 10.351562 C 412.113281 7.285156 410.765625 5.175781 408.792969 5.175781 Z M 408.753906 5.566406 C 410.003906 5.566406 410.6875 7.246094 410.6875 10.371094 C 410.6875 13.496094 410.023438 15.097656 408.734375 15.097656 C 407.445312 15.097656 406.800781 13.496094 406.800781 10.390625 C 406.800781 7.226562 407.464844 5.566406 408.753906 5.566406 Z M 408.753906 5.566406 "/>
<path style=" stroke:none;fill-rule:nonzero;fill:rgb(0%,0%,0%);fill-opacity:1;" d="M 416.796875 11.425781 L 416.796875 12.382812 L 420.46875 12.382812 L 420.46875 11.425781 Z M 416.796875 11.425781 "/>
<path style=" stroke:none;fill-rule:nonzero;fill:rgb(0%,0%,0%);fill-opacity:1;" d="M 423.472656 10.351562 C 424.351562 10.351562 424.703125 10.371094 425.054688 10.507812 C 425.992188 10.839844 426.558594 11.679688 426.558594 12.714844 C 426.558594 13.964844 425.71875 14.941406 424.605469 14.941406 C 424.214844 14.941406 423.902344 14.84375 423.355469 14.472656 C 422.90625 14.21875 422.652344 14.101562 422.398438 14.101562 C 422.046875 14.101562 421.832031 14.316406 421.832031 14.628906 C 421.832031 15.15625 422.476562 15.488281 423.511719 15.488281 C 424.664062 15.488281 425.855469 15.097656 426.558594 14.472656 C 427.261719 13.867188 427.632812 13.007812 427.632812 11.992188 C 427.632812 11.230469 427.398438 10.527344 426.96875 10.078125 C 426.675781 9.746094 426.382812 9.570312 425.738281 9.277344 C 426.753906 8.574219 427.125 8.027344 427.125 7.226562 C 427.125 6.015625 426.1875 5.175781 424.800781 5.175781 C 424.058594 5.175781 423.394531 5.429688 422.867188 5.898438 C 422.417969 6.308594 422.183594 6.699219 421.851562 7.597656 L 422.085938 7.65625 C 422.691406 6.5625 423.375 6.074219 424.3125 6.074219 C 425.289062 6.074219 425.953125 6.71875 425.953125 7.675781 C 425.953125 8.203125 425.738281 8.75 425.347656 9.121094 C 424.898438 9.570312 424.488281 9.785156 423.472656 10.15625 Z M 423.472656 10.351562 "/>
<path style=" stroke:none;fill-rule:nonzero;fill:rgb(0%,0%,0%);fill-opacity:1;" d="M 430.535156 13.789062 C 430.085938 13.789062 429.714844 14.160156 429.714844 14.628906 C 429.714844 15.058594 430.085938 15.429688 430.515625 15.429688 C 430.984375 15.429688 431.355469 15.058594 431.355469 14.628906 C 431.355469 14.160156 430.984375 13.789062 430.535156 13.789062 Z M 430.535156 13.789062 "/>
<path style=" stroke:none;fill-rule:nonzero;fill:rgb(0%,0%,0%);fill-opacity:1;" d="M 439.445312 11.816406 L 437.921875 11.816406 L 437.921875 5.175781 L 437.257812 5.175781 L 432.570312 11.816406 L 432.570312 12.773438 L 436.769531 12.773438 L 436.769531 15.273438 L 437.921875 15.273438 L 437.921875 12.773438 L 439.445312 12.773438 Z M 436.75 11.816406 L 433.175781 11.816406 L 436.75 6.699219 Z M 436.75 11.816406 "/>
<path style=" stroke:none;fill-rule:nonzero;fill:rgb(0%,0%,0%);fill-opacity:1;" d="M 444.1875 11.425781 L 444.1875 12.382812 L 447.859375 12.382812 L 447.859375 11.425781 Z M 444.1875 11.425781 "/>
<path style=" stroke:none;fill-rule:nonzero;fill:rgb(0%,0%,0%);fill-opacity:1;" d="M 450.453125 13.789062 C 450.003906 13.789062 449.632812 14.160156 449.632812 14.628906 C 449.632812 15.058594 450.003906 15.429688 450.433594 15.429688 C 450.902344 15.429688 451.273438 15.058594 451.273438 14.628906 C 451.273438 14.160156 450.902344 13.789062 450.453125 13.789062 Z M 450.453125 13.789062 "/>
<path style=" stroke:none;fill-rule:nonzero;fill:rgb(0%,0%,0%);fill-opacity:1;" d="M 454.601562 10.351562 C 455.480469 10.351562 455.832031 10.371094 456.183594 10.507812 C 457.121094 10.839844 457.6875 11.679688 457.6875 12.714844 C 457.6875 13.964844 456.847656 14.941406 455.734375 14.941406 C 455.34375 14.941406 455.03125 14.84375 454.484375 14.472656 C 454.035156 14.21875 453.78125 14.101562 453.527344 14.101562 C 453.175781 14.101562 452.960938 14.316406 452.960938 14.628906 C 452.960938 15.15625 453.605469 15.488281 454.640625 15.488281 C 455.792969 15.488281 456.984375 15.097656 457.6875 14.472656 C 458.390625 13.867188 458.761719 13.007812 458.761719 11.992188 C 458.761719 11.230469 458.527344 10.527344 458.097656 10.078125 C 457.804688 9.746094 457.511719 9.570312 456.867188 9.277344 C 457.882812 8.574219 458.253906 8.027344 458.253906 7.226562 C 458.253906 6.015625 457.316406 5.175781 455.929688 5.175781 C 455.1875 5.175781 454.523438 5.429688 453.996094 5.898438 C 453.546875 6.308594 453.3125 6.699219 452.980469 7.597656 L 453.214844 7.65625 C 453.820312 6.5625 454.503906 6.074219 455.441406 6.074219 C 456.417969 6.074219 457.082031 6.71875 457.082031 7.675781 C 457.082031 8.203125 456.867188 8.75 456.476562 9.121094 C 456.027344 9.570312 455.617188 9.785156 454.601562 10.15625 Z M 454.601562 10.351562 "/>
<path style=" stroke:none;fill-rule:nonzero;fill:rgb(0%,0%,0%);fill-opacity:1;" d="M 460.667969 15.605469 C 462.347656 15.410156 463.167969 15.117188 464.183594 14.394531 C 465.726562 13.261719 466.644531 11.40625 466.644531 9.394531 C 466.644531 6.914062 465.277344 5.175781 463.34375 5.175781 C 461.566406 5.175781 460.238281 6.679688 460.238281 8.691406 C 460.238281 10.527344 461.3125 11.738281 462.933594 11.738281 C 463.753906 11.738281 464.378906 11.484375 465.160156 10.878906 C 464.554688 13.320312 462.894531 14.921875 460.628906 15.3125 Z M 465.199219 9.960938 C 465.199219 10.273438 465.140625 10.410156 464.964844 10.527344 C 464.554688 10.898438 464.007812 11.09375 463.460938 11.09375 C 462.328125 11.09375 461.605469 9.960938 461.605469 8.183594 C 461.605469 7.34375 461.859375 6.445312 462.171875 6.054688 C 462.425781 5.761719 462.796875 5.585938 463.226562 5.585938 C 464.535156 5.585938 465.199219 6.875 465.199219 9.394531 Z M 465.199219 9.960938 "/>
<path style=" stroke:none;fill-rule:nonzero;fill:rgb(0%,0%,0%);fill-opacity:1;" d="M 471.613281 5.175781 L 468.917969 6.523438 L 468.917969 6.738281 C 469.09375 6.660156 469.269531 6.601562 469.328125 6.582031 C 469.582031 6.464844 469.835938 6.40625 469.992188 6.40625 C 470.304688 6.40625 470.441406 6.640625 470.441406 7.109375 L 470.441406 13.886719 C 470.441406 14.375 470.324219 14.726562 470.089844 14.863281 C 469.855469 14.980469 469.640625 15.039062 469.015625 15.058594 L 469.015625 15.273438 L 473.136719 15.273438 L 473.136719 15.058594 C 471.964844 15.039062 471.730469 14.882812 471.730469 14.160156 L 471.730469 5.195312 Z M 471.613281 5.175781 "/>
<path style=" stroke:none;fill-rule:nonzero;fill:rgb(0%,0%,0%);fill-opacity:1;" d="M 481.78125 11.816406 L 480.257812 11.816406 L 480.257812 5.175781 L 479.59375 5.175781 L 474.90625 11.816406 L 474.90625 12.773438 L 479.105469 12.773438 L 479.105469 15.273438 L 480.257812 15.273438 L 480.257812 12.773438 L 481.78125 12.773438 Z M 479.085938 11.816406 L 475.511719 11.816406 L 479.085938 6.699219 Z M 479.085938 11.816406 "/>
<path style=" stroke:none;fill-rule:nonzero;fill:rgb(0%,0%,0%);fill-opacity:1;" d="M 486.527344 11.425781 L 486.527344 12.382812 L 490.199219 12.382812 L 490.199219 11.425781 Z M 486.527344 11.425781 "/>
<path style=" stroke:none;fill-rule:nonzero;fill:rgb(0%,0%,0%);fill-opacity:1;" d="M 493.199219 10.351562 C 494.078125 10.351562 494.429688 10.371094 494.78125 10.507812 C 495.71875 10.839844 496.285156 11.679688 496.285156 12.714844 C 496.285156 13.964844 495.445312 14.941406 494.332031 14.941406 C 493.941406 14.941406 493.628906 14.84375 493.082031 14.472656 C 492.632812 14.21875 492.378906 14.101562 492.125 14.101562 C 491.773438 14.101562 491.558594 14.316406 491.558594 14.628906 C 491.558594 15.15625 492.203125 15.488281 493.238281 15.488281 C 494.390625 15.488281 495.582031 15.097656 496.285156 14.472656 C 496.988281 13.867188 497.359375 13.007812 497.359375 11.992188 C 497.359375 11.230469 497.125 10.527344 496.695312 10.078125 C 496.402344 9.746094 496.109375 9.570312 495.464844 9.277344 C 496.480469 8.574219 496.851562 8.027344 496.851562 7.226562 C 496.851562 6.015625 495.914062 5.175781 494.527344 5.175781 C 493.785156 5.175781 493.121094 5.429688 492.59375 5.898438 C 492.144531 6.308594 491.910156 6.699219 491.578125 7.597656 L 491.8125 7.65625 C 492.417969 6.5625 493.101562 6.074219 494.039062 6.074219 C 495.015625 6.074219 495.679688 6.71875 495.679688 7.675781 C 495.679688 8.203125 495.464844 8.75 495.074219 9.121094 C 494.625 9.570312 494.214844 9.785156 493.199219 10.15625 Z M 493.199219 10.351562 "/>
<path style=" stroke:none;fill-rule:nonzero;fill:rgb(0%,0%,0%);fill-opacity:1;" d="M 500.261719 13.789062 C 499.8125 13.789062 499.441406 14.160156 499.441406 14.628906 C 499.441406 15.058594 499.8125 15.429688 500.242188 15.429688 C 500.710938 15.429688 501.082031 15.058594 501.082031 14.628906 C 501.082031 14.160156 500.710938 13.789062 500.261719 13.789062 Z M 500.261719 13.789062 "/>
<path style=" stroke:none;fill-rule:nonzero;fill:rgb(0%,0%,0%);fill-opacity:1;" d="M 504.410156 10.351562 C 505.289062 10.351562 505.640625 10.371094 505.992188 10.507812 C 506.929688 10.839844 507.496094 11.679688 507.496094 12.714844 C 507.496094 13.964844 506.65625 14.941406 505.542969 14.941406 C 505.152344 14.941406 504.839844 14.84375 504.292969 14.472656 C 503.84375 14.21875 503.589844 14.101562 503.335938 14.101562 C 502.984375 14.101562 502.769531 14.316406 502.769531 14.628906 C 502.769531 15.15625 503.414062 15.488281 504.449219 15.488281 C 505.601562 15.488281 506.792969 15.097656 507.496094 14.472656 C 508.199219 13.867188 508.570312 13.007812 508.570312 11.992188 C 508.570312 11.230469 508.335938 10.527344 507.90625 10.078125 C 507.613281 9.746094 507.320312 9.570312 506.675781 9.277344 C 507.691406 8.574219 508.0625 8.027344 508.0625 7.226562 C 508.0625 6.015625 507.125 5.175781 505.738281 5.175781 C 504.996094 5.175781 504.332031 5.429688 503.804688 5.898438 C 503.355469 6.308594 503.121094 6.699219 502.789062 7.597656 L 503.023438 7.65625 C 503.628906 6.5625 504.3125 6.074219 505.25 6.074219 C 506.226562 6.074219 506.890625 6.71875 506.890625 7.675781 C 506.890625 8.203125 506.675781 8.75 506.285156 9.121094 C 505.835938 9.570312 505.425781 9.785156 504.410156 10.15625 Z M 504.410156 10.351562 "/>
<path style=" stroke:none;fill-rule:nonzero;fill:rgb(0%,0%,0%);fill-opacity:1;" d="M 513.917969 11.425781 L 513.917969 12.382812 L 517.589844 12.382812 L 517.589844 11.425781 Z M 513.917969 11.425781 "/>
<path style=" stroke:none;fill-rule:nonzero;fill:rgb(0%,0%,0%);fill-opacity:1;" d="M 520.183594 13.789062 C 519.734375 13.789062 519.363281 14.160156 519.363281 14.628906 C 519.363281 15.058594 519.734375 15.429688 520.164062 15.429688 C 520.632812 15.429688 521.003906 15.058594 521.003906 14.628906 C 521.003906 14.160156 520.632812 13.789062 520.183594 13.789062 Z M 520.183594 13.789062 "/>
<path style=" stroke:none;fill-rule:nonzero;fill:rgb(0%,0%,0%);fill-opacity:1;" d="M 529.09375 11.816406 L 527.570312 11.816406 L 527.570312 5.175781 L 526.90625 5.175781 L 522.21875 11.816406 L 522.21875 12.773438 L 526.417969 12.773438 L 526.417969 15.273438 L 527.570312 15.273438 L 527.570312 12.773438 L 529.09375 12.773438 Z M 526.398438 11.816406 L 522.824219 11.816406 L 526.398438 6.699219 Z M 526.398438 11.816406 "/>
<path style=" stroke:none;fill-rule:nonzero;fill:rgb(0%,0%,0%);fill-opacity:1;" d="M 533.304688 5.175781 C 532.484375 5.175781 531.859375 5.429688 531.3125 5.957031 C 530.433594 6.777344 529.867188 8.496094 529.867188 10.253906 C 529.867188 11.875 530.375 13.632812 531.078125 14.472656 C 531.625 15.117188 532.386719 15.488281 533.246094 15.488281 C 534.007812 15.488281 534.652344 15.234375 535.199219 14.707031 C 536.058594 13.886719 536.625 12.148438 536.625 10.351562 C 536.625 7.285156 535.277344 5.175781 533.304688 5.175781 Z M 533.265625 5.566406 C 534.515625 5.566406 535.199219 7.246094 535.199219 10.371094 C 535.199219 13.496094 534.535156 15.097656 533.246094 15.097656 C 531.957031 15.097656 531.3125 13.496094 531.3125 10.390625 C 531.3125 7.226562 531.976562 5.566406 533.265625 5.566406 Z M 533.265625 5.566406 "/>
<path style=" stroke:none;fill-rule:nonzero;fill:rgb(0%,0%,0%);fill-opacity:1;" d="M 537.867188 15.605469 C 539.546875 15.410156 540.367188 15.117188 541.382812 14.394531 C 542.925781 13.261719 543.84375 11.40625 543.84375 9.394531 C 543.84375 6.914062 542.476562 5.175781 540.542969 5.175781 C 538.765625 5.175781 537.4375 6.679688 537.4375 8.691406 C 537.4375 10.527344 538.511719 11.738281 540.132812 11.738281 C 540.953125 11.738281 541.578125 11.484375 542.359375 10.878906 C 541.753906 13.320312 540.09375 14.921875 537.828125 15.3125 Z M 542.398438 9.960938 C 542.398438 10.273438 542.339844 10.410156 542.164062 10.527344 C 541.753906 10.898438 541.207031 11.09375 540.660156 11.09375 C 539.527344 11.09375 538.804688 9.960938 538.804688 8.183594 C 538.804688 7.34375 539.058594 6.445312 539.371094 6.054688 C 539.625 5.761719 539.996094 5.585938 540.425781 5.585938 C 541.734375 5.585938 542.398438 6.875 542.398438 9.394531 Z M 542.398438 9.960938 "/>
<path style=" stroke:none;fill-rule:nonzero;fill:rgb(0%,0%,0%);fill-opacity:1;" d="M 551.511719 11.816406 L 549.988281 11.816406 L 549.988281 5.175781 L 549.324219 5.175781 L 544.636719 11.816406 L 544.636719 12.773438 L 548.835938 12.773438 L 548.835938 15.273438 L 549.988281 15.273438 L 549.988281 12.773438 L 551.511719 12.773438 Z M 548.816406 11.816406 L 545.242188 11.816406 L 548.816406 6.699219 Z M 548.816406 11.816406 "/>
<path style=" stroke:none;fill-rule:nonzero;fill:rgb(0%,0%,0%);fill-opacity:1;" d="M 556.253906 11.425781 L 556.253906 12.382812 L 559.925781 12.382812 L 559.925781 11.425781 Z M 556.253906 11.425781 "/>
<path style=" stroke:none;fill-rule:nonzero;fill:rgb(0%,0%,0%);fill-opacity:1;" d="M 562.929688 10.351562 C 563.808594 10.351562 564.160156 10.371094 564.511719 10.507812 C 565.449219 10.839844 566.015625 11.679688 566.015625 12.714844 C 566.015625 13.964844 565.175781 14.941406 564.0625 14.941406 C 563.671875 14.941406 563.359375 14.84375 562.8125 14.472656 C 562.363281 14.21875 562.109375 14.101562 561.855469 14.101562 C 561.503906 14.101562 561.289062 14.316406 561.289062 14.628906 C 561.289062 15.15625 561.933594 15.488281 562.96875 15.488281 C 564.121094 15.488281 565.3125 15.097656 566.015625 14.472656 C 566.71875 13.867188 567.089844 13.007812 567.089844 11.992188 C 567.089844 11.230469 566.855469 10.527344 566.425781 10.078125 C 566.132812 9.746094 565.839844 9.570312 565.195312 9.277344 C 566.210938 8.574219 566.582031 8.027344 566.582031 7.226562 C 566.582031 6.015625 565.644531 5.175781 564.257812 5.175781 C 563.515625 5.175781 562.851562 5.429688 562.324219 5.898438 C 561.875 6.308594 561.640625 6.699219 561.308594 7.597656 L 561.542969 7.65625 C 562.148438 6.5625 562.832031 6.074219 563.769531 6.074219 C 564.746094 6.074219 565.410156 6.71875 565.410156 7.675781 C 565.410156 8.203125 565.195312 8.75 564.804688 9.121094 C 564.355469 9.570312 563.945312 9.785156 562.929688 10.15625 Z M 562.929688 10.351562 "/>
<path style=" stroke:none;fill-rule:nonzero;fill:rgb(0%,0%,0%);fill-opacity:1;" d="M 569.992188 13.789062 C 569.542969 13.789062 569.171875 14.160156 569.171875 14.628906 C 569.171875 15.058594 569.542969 15.429688 569.972656 15.429688 C 570.441406 15.429688 570.8125 15.058594 570.8125 14.628906 C 570.8125 14.160156 570.441406 13.789062 569.992188 13.789062 Z M 569.992188 13.789062 "/>
<path style=" stroke:none;fill-rule:nonzero;fill:rgb(0%,0%,0%);fill-opacity:1;" d="M 578.941406 13.222656 L 578.746094 13.144531 C 578.199219 14.003906 578.003906 14.140625 577.339844 14.140625 L 573.765625 14.140625 L 576.265625 11.503906 C 577.613281 10.117188 578.179688 8.984375 578.179688 7.8125 C 578.179688 6.328125 576.96875 5.175781 575.425781 5.175781 C 574.605469 5.175781 573.824219 5.507812 573.277344 6.09375 C 572.789062 6.601562 572.574219 7.089844 572.320312 8.144531 L 572.632812 8.222656 C 573.21875 6.757812 573.765625 6.269531 574.800781 6.269531 C 576.050781 6.269531 576.910156 7.128906 576.910156 8.378906 C 576.910156 9.550781 576.207031 10.9375 574.957031 12.265625 L 572.300781 15.097656 L 572.300781 15.273438 L 578.121094 15.273438 Z M 578.941406 13.222656 "/>
<path style=" stroke:none;fill-rule:nonzero;fill:rgb(0%,0%,0%);fill-opacity:1;" d="M 583.648438 11.425781 L 583.648438 12.382812 L 587.320312 12.382812 L 587.320312 11.425781 Z M 583.648438 11.425781 "/>
<path style=" stroke:none;fill-rule:nonzero;fill:rgb(0%,0%,0%);fill-opacity:1;" d="M 589.910156 13.789062 C 589.460938 13.789062 589.089844 14.160156 589.089844 14.628906 C 589.089844 15.058594 589.460938 15.429688 589.890625 15.429688 C 590.359375 15.429688 590.730469 15.058594 590.730469 14.628906 C 590.730469 14.160156 590.359375 13.789062 589.910156 13.789062 Z M 589.910156 13.789062 "/>
<path style=" stroke:none;fill-rule:nonzero;fill:rgb(0%,0%,0%);fill-opacity:1;" d="M 598.824219 11.816406 L 597.300781 11.816406 L 597.300781 5.175781 L 596.636719 5.175781 L 591.949219 11.816406 L 591.949219 12.773438 L 596.148438 12.773438 L 596.148438 15.273438 L 597.300781 15.273438 L 597.300781 12.773438 L 598.824219 12.773438 Z M 596.128906 11.816406 L 592.554688 11.816406 L 596.128906 6.699219 Z M 596.128906 11.816406 "/>
<path style=" stroke:none;fill-rule:nonzero;fill:rgb(0%,0%,0%);fill-opacity:1;" d="M 606.335938 13.222656 L 606.140625 13.144531 C 605.59375 14.003906 605.398438 14.140625 604.734375 14.140625 L 601.160156 14.140625 L 603.660156 11.503906 C 605.007812 10.117188 605.574219 8.984375 605.574219 7.8125 C 605.574219 6.328125 604.363281 5.175781 602.820312 5.175781 C 602 5.175781 601.21875 5.507812 600.671875 6.09375 C 600.183594 6.601562 599.96875 7.089844 599.714844 8.144531 L 600.027344 8.222656 C 600.613281 6.757812 601.160156 6.269531 602.195312 6.269531 C 603.445312 6.269531 604.304688 7.128906 604.304688 8.378906 C 604.304688 9.550781 603.601562 10.9375 602.351562 12.265625 L 599.695312 15.097656 L 599.695312 15.273438 L 605.515625 15.273438 Z M 606.335938 13.222656 "/>
<path style=" stroke:none;fill-rule:nonzero;fill:rgb(0%,0%,0%);fill-opacity:1;" d="M 607.597656 15.605469 C 609.277344 15.410156 610.097656 15.117188 611.113281 14.394531 C 612.65625 13.261719 613.574219 11.40625 613.574219 9.394531 C 613.574219 6.914062 612.207031 5.175781 610.273438 5.175781 C 608.496094 5.175781 607.167969 6.679688 607.167969 8.691406 C 607.167969 10.527344 608.242188 11.738281 609.863281 11.738281 C 610.683594 11.738281 611.308594 11.484375 612.089844 10.878906 C 611.484375 13.320312 609.824219 14.921875 607.558594 15.3125 Z M 612.128906 9.960938 C 612.128906 10.273438 612.070312 10.410156 611.894531 10.527344 C 611.484375 10.898438 610.9375 11.09375 610.390625 11.09375 C 609.257812 11.09375 608.535156 9.960938 608.535156 8.183594 C 608.535156 7.34375 608.789062 6.445312 609.101562 6.054688 C 609.355469 5.761719 609.726562 5.585938 610.15625 5.585938 C 611.464844 5.585938 612.128906 6.875 612.128906 9.394531 Z M 612.128906 9.960938 "/>
<path style=" stroke:none;fill-rule:nonzero;fill:rgb(0%,0%,0%);fill-opacity:1;" d="M 616.472656 10.351562 C 617.351562 10.351562 617.703125 10.371094 618.054688 10.507812 C 618.992188 10.839844 619.558594 11.679688 619.558594 12.714844 C 619.558594 13.964844 618.71875 14.941406 617.605469 14.941406 C 617.214844 14.941406 616.902344 14.84375 616.355469 14.472656 C 615.90625 14.21875 615.652344 14.101562 615.398438 14.101562 C 615.046875 14.101562 614.832031 14.316406 614.832031 14.628906 C 614.832031 15.15625 615.476562 15.488281 616.511719 15.488281 C 617.664062 15.488281 618.855469 15.097656 619.558594 14.472656 C 620.261719 13.867188 620.632812 13.007812 620.632812 11.992188 C 620.632812 11.230469 620.398438 10.527344 619.96875 10.078125 C 619.675781 9.746094 619.382812 9.570312 618.738281 9.277344 C 619.753906 8.574219 620.125 8.027344 620.125 7.226562 C 620.125 6.015625 619.1875 5.175781 617.800781 5.175781 C 617.058594 5.175781 616.394531 5.429688 615.867188 5.898438 C 615.417969 6.308594 615.183594 6.699219 614.851562 7.597656 L 615.085938 7.65625 C 615.691406 6.5625 616.375 6.074219 617.3125 6.074219 C 618.289062 6.074219 618.953125 6.71875 618.953125 7.675781 C 618.953125 8.203125 618.738281 8.75 618.347656 9.121094 C 617.898438 9.570312 617.488281 9.785156 616.472656 10.15625 Z M 616.472656 10.351562 "/>
<path style=" stroke:none;fill-rule:nonzero;fill:rgb(0%,0%,0%);fill-opacity:1;" d="M 625.984375 11.425781 L 625.984375 12.382812 L 629.65625 12.382812 L 629.65625 11.425781 Z M 625.984375 11.425781 "/>
<path style=" stroke:none;fill-rule:nonzero;fill:rgb(0%,0%,0%);fill-opacity:1;" d="M 632.660156 10.351562 C 633.539062 10.351562 633.890625 10.371094 634.242188 10.507812 C 635.179688 10.839844 635.746094 11.679688 635.746094 12.714844 C 635.746094 13.964844 634.90625 14.941406 633.792969 14.941406 C 633.402344 14.941406 633.089844 14.84375 632.542969 14.472656 C 632.09375 14.21875 631.839844 14.101562 631.585938 14.101562 C 631.234375 14.101562 631.019531 14.316406 631.019531 14.628906 C 631.019531 15.15625 631.664062 15.488281 632.699219 15.488281 C 633.851562 15.488281 635.042969 15.097656 635.746094 14.472656 C 636.449219 13.867188 636.820312 13.007812 636.820312 11.992188 C 636.820312 11.230469 636.585938 10.527344 636.15625 10.078125 C 635.863281 9.746094 635.570312 9.570312 634.925781 9.277344 C 635.941406 8.574219 636.3125 8.027344 636.3125 7.226562 C 636.3125 6.015625 635.375 5.175781 633.988281 5.175781 C 633.246094 5.175781 632.582031 5.429688 632.054688 5.898438 C 631.605469 6.308594 631.371094 6.699219 631.039062 7.597656 L 631.273438 7.65625 C 631.878906 6.5625 632.5625 6.074219 633.5 6.074219 C 634.476562 6.074219 635.140625 6.71875 635.140625 7.675781 C 635.140625 8.203125 634.925781 8.75 634.535156 9.121094 C 634.085938 9.570312 633.675781 9.785156 632.660156 10.15625 Z M 632.660156 10.351562 "/>
<path style=" stroke:none;fill-rule:nonzero;fill:rgb(0%,0%,0%);fill-opacity:1;" d="M 639.71875 13.789062 C 639.269531 13.789062 638.898438 14.160156 638.898438 14.628906 C 638.898438 15.058594 639.269531 15.429688 639.699219 15.429688 C 640.167969 15.429688 640.539062 15.058594 640.539062 14.628906 C 640.539062 14.160156 640.167969 13.789062 639.71875 13.789062 Z M 639.71875 13.789062 "/>
<path style=" stroke:none;fill-rule:nonzero;fill:rgb(0%,0%,0%);fill-opacity:1;" d="M 645.9375 5.175781 L 643.242188 6.523438 L 643.242188 6.738281 C 643.417969 6.660156 643.59375 6.601562 643.652344 6.582031 C 643.90625 6.464844 644.160156 6.40625 644.316406 6.40625 C 644.628906 6.40625 644.765625 6.640625 644.765625 7.109375 L 644.765625 13.886719 C 644.765625 14.375 644.648438 14.726562 644.414062 14.863281 C 644.179688 14.980469 643.964844 15.039062 643.339844 15.058594 L 643.339844 15.273438 L 647.460938 15.273438 L 647.460938 15.058594 C 646.289062 15.039062 646.054688 14.882812 646.054688 14.160156 L 646.054688 5.195312 Z M 645.9375 5.175781 "/>
<path style=" stroke:none;fill-rule:nonzero;fill:rgb(0%,0%,0%);fill-opacity:1;" d="M 653.375 11.425781 L 653.375 12.382812 L 657.046875 12.382812 L 657.046875 11.425781 Z M 653.375 11.425781 "/>
<path style=" stroke:none;fill-rule:nonzero;fill:rgb(0%,0%,0%);fill-opacity:1;" d="M 659.640625 13.789062 C 659.191406 13.789062 658.820312 14.160156 658.820312 14.628906 C 658.820312 15.058594 659.191406 15.429688 659.621094 15.429688 C 660.089844 15.429688 660.460938 15.058594 660.460938 14.628906 C 660.460938 14.160156 660.089844 13.789062 659.640625 13.789062 Z M 659.640625 13.789062 "/>
<path style=" stroke:none;fill-rule:nonzero;fill:rgb(0%,0%,0%);fill-opacity:1;" d="M 668.550781 11.816406 L 667.027344 11.816406 L 667.027344 5.175781 L 666.363281 5.175781 L 661.675781 11.816406 L 661.675781 12.773438 L 665.875 12.773438 L 665.875 15.273438 L 667.027344 15.273438 L 667.027344 12.773438 L 668.550781 12.773438 Z M 665.855469 11.816406 L 662.28125 11.816406 L 665.855469 6.699219 Z M 665.855469 11.816406 "/>
<path style=" stroke:none;fill-rule:nonzero;fill:rgb(0%,0%,0%);fill-opacity:1;" d="M 671.667969 6.5625 L 674.597656 6.5625 C 674.851562 6.5625 674.910156 6.523438 674.949219 6.425781 L 675.515625 5.097656 L 675.378906 5 C 675.164062 5.3125 675.007812 5.390625 674.695312 5.390625 L 671.570312 5.390625 L 669.949219 8.925781 C 669.929688 8.945312 669.929688 8.964844 669.929688 9.003906 C 669.929688 9.082031 669.988281 9.121094 670.105469 9.121094 C 670.59375 9.121094 671.179688 9.21875 671.804688 9.414062 C 673.523438 9.960938 674.304688 10.898438 674.304688 12.382812 C 674.304688 13.808594 673.386719 14.921875 672.234375 14.921875 C 671.921875 14.921875 671.667969 14.824219 671.238281 14.492188 C 670.75 14.160156 670.398438 14.003906 670.085938 14.003906 C 669.65625 14.003906 669.441406 14.179688 669.441406 14.550781 C 669.441406 15.117188 670.144531 15.488281 671.277344 15.488281 C 672.527344 15.488281 673.601562 15.078125 674.34375 14.316406 C 675.046875 13.652344 675.359375 12.792969 675.359375 11.660156 C 675.359375 10.585938 675.066406 9.902344 674.324219 9.140625 C 673.660156 8.496094 672.820312 8.144531 671.042969 7.832031 Z M 671.667969 6.5625 "/>
<path style=" stroke:none;fill-rule:nonzero;fill:rgb(0%,0%,0%);fill-opacity:1;" d="M 680.800781 5.175781 L 678.105469 6.523438 L 678.105469 6.738281 C 678.28125 6.660156 678.457031 6.601562 678.515625 6.582031 C 678.769531 6.464844 679.023438 6.40625 679.179688 6.40625 C 679.492188 6.40625 679.628906 6.640625 679.628906 7.109375 L 679.628906 13.886719 C 679.628906 14.375 679.511719 14.726562 679.277344 14.863281 C 679.042969 14.980469 678.828125 15.039062 678.203125 15.058594 L 678.203125 15.273438 L 682.324219 15.273438 L 682.324219 15.058594 C 681.152344 15.039062 680.917969 14.882812 680.917969 14.160156 L 680.917969 5.195312 Z M 680.800781 5.175781 "/>
<path style=" stroke:none;fill-rule:nonzero;fill:rgb(0%,0%,0%);fill-opacity:1;" d="M 690.96875 11.816406 L 689.445312 11.816406 L 689.445312 5.175781 L 688.78125 5.175781 L 684.09375 11.816406 L 684.09375 12.773438 L 688.292969 12.773438 L 688.292969 15.273438 L 689.445312 15.273438 L 689.445312 12.773438 L 690.96875 12.773438 Z M 688.273438 11.816406 L 684.699219 11.816406 L 688.273438 6.699219 Z M 688.273438 11.816406 "/>
</g>
</svg>
