<?xml version="1.0" encoding="UTF-8"?>
<svg xmlns="http://www.w3.org/2000/svg" xmlns:xlink="http://www.w3.org/1999/xlink" width="668.19705pt" height="20.605469pt" viewBox="0 0 668.19705 20.605469" version="1.1">
<g id="surface221">
<path style=" stroke:none;fill-rule:nonzero;fill:rgb(0%,0%,0%);fill-opacity:1;" d="M 6.640625 10.351562 C 7.519531 10.351562 7.871094 10.371094 8.222656 10.507812 C 9.160156 10.839844 9.726562 11.679688 9.726562 12.714844 C 9.726562 13.964844 8.886719 14.941406 7.773438 14.941406 C 7.382812 14.941406 7.070312 14.84375 6.523438 14.472656 C 6.074219 14.21875 5.820312 14.101562 5.566406 14.101562 C 5.214844 14.101562 5 14.316406 5 14.628906 C 5 15.15625 5.644531 15.488281 6.679688 15.488281 C 7.832031 15.488281 9.023438 15.097656 9.726562 14.472656 C 10.429688 13.867188 10.800781 13.007812 10.800781 11.992188 C 10.800781 11.230469 10.566406 10.527344 10.136719 10.078125 C 9.84375 9.746094 9.550781 9.570312 8.90625 9.277344 C 9.921875 8.574219 10.292969 8.027344 10.292969 7.226562 C 10.292969 6.015625 9.355469 5.175781 7.96875 5.175781 C 7.226562 5.175781 6.5625 5.429688 6.035156 5.898438 C 5.585938 6.308594 5.351562 6.699219 5.019531 7.597656 L 5.253906 7.65625 C 5.859375 6.5625 6.542969 6.074219 7.480469 6.074219 C 8.457031 6.074219 9.121094 6.71875 9.121094 7.675781 C 9.121094 8.203125 8.90625 8.75 8.515625 9.121094 C 8.066406 9.570312 7.65625 9.785156 6.640625 10.15625 Z M 6.640625 10.351562 "/>
<path style=" stroke:none;fill-rule:nonzero;fill:rgb(0%,0%,0%);fill-opacity:1;" d="M 13.703125 13.789062 C 13.253906 13.789062 12.882812 14.160156 12.882812 14.628906 C 12.882812 15.058594 13.253906 15.429688 13.683594 15.429688 C 14.152344 15.429688 14.523438 15.058594 14.523438 14.628906 C 14.523438 14.160156 14.152344 13.789062 13.703125 13.789062 Z M 13.703125 13.789062 "/>
<path style=" stroke:none;fill-rule:nonzero;fill:rgb(0%,0%,0%);fill-opacity:1;" d="M 20.78125 11.425781 L 20.78125 12.382812 L 24.453125 12.382812 L 24.453125 11.425781 Z M 20.78125 11.425781 "/>
<path style=" stroke:none;fill-rule:nonzero;fill:rgb(0%,0%,0%);fill-opacity:1;" d="M 27.046875 13.789062 C 26.597656 13.789062 26.226562 14.160156 26.226562 14.628906 C 26.226562 15.058594 26.597656 15.429688 27.027344 15.429688 C 27.496094 15.429688 27.867188 15.058594 27.867188 14.628906 C 27.867188 14.160156 27.496094 13.789062 27.046875 13.789062 Z M 27.046875 13.789062 "/>
<path style=" stroke:none;fill-rule:nonzero;fill:rgb(0%,0%,0%);fill-opacity:1;" d="M 32.699219 5.175781 C 31.878906 5.175781 31.253906 5.429688 30.707031 5.957031 C 29.828125 6.777344 29.261719 8.496094 29.261719 10.253906 C 29.261719 11.875 29.769531 13.632812 30.472656 14.472656 C 31.019531 15.117188 31.78125 15.488281 32.640625 15.488281 C 33.402344 15.488281 34.046875 15.234375 34.59375 14.707031 C 35.453125 13.886719 36.019531 12.148438 36.019531 10.351562 C 36.019531 7.285156 34.671875 5.175781 32.699219 5.175781 Z M 32.660156 5.566406 C 33.910156 5.566406 34.59375 7.246094 34.59375 10.371094 C 34.59375 13.496094 33.929688 15.097656 32.640625 15.097656 C 31.351562 15.097656 30.707031 13.496094 30.707031 10.390625 C 30.707031 7.226562 31.371094 5.566406 32.660156 5.566406 Z M 32.660156 5.566406 "/>
<path style=" stroke:none;fill-rule:nonzero;fill:rgb(0%,0%,0%);fill-opacity:1;" d="M 40.167969 5.175781 C 39.347656 5.175781 38.722656 5.429688 38.175781 5.957031 C 37.296875 6.777344 36.730469 8.496094 36.730469 10.253906 C 36.730469 11.875 37.238281 13.632812 37.941406 14.472656 C 38.488281 15.117188 39.25 15.488281 40.109375 15.488281 C 40.871094 15.488281 41.515625 15.234375 42.0625 14.707031 C 42.921875 13.886719 43.488281 12.148438 43.488281 10.351562 C 43.488281 7.285156 42.140625 5.175781 40.167969 5.175781 Z M 40.128906 5.566406 C 41.378906 5.566406 42.0625 7.246094 42.0625 10.371094 C 42.0625 13.496094 41.398438 15.097656 40.109375 15.097656 C 38.820312 15.097656 38.175781 13.496094 38.175781 10.390625 C 38.175781 7.226562 38.839844 5.566406 40.128906 5.566406 Z M 40.128906 5.566406 "/>
<path style=" stroke:none;fill-rule:nonzero;fill:rgb(0%,0%,0%);fill-opacity:1;" d="M 47.640625 5.175781 C 46.820312 5.175781 46.195312 5.429688 45.648438 5.957031 C 44.769531 6.777344 44.203125 8.496094 44.203125 10.253906 C 44.203125 11.875 44.710938 13.632812 45.414062 14.472656 C 45.960938 15.117188 46.722656 15.488281 47.582031 15.488281 C 48.34375 15.488281 48.988281 15.234375 49.535156 14.707031 C 50.394531 13.886719 50.960938 12.148438 50.960938 10.351562 C 50.960938 7.285156 49.613281 5.175781 47.640625 5.175781 Z M 47.601562 5.566406 C 48.851562 5.566406 49.535156 7.246094 49.535156 10.371094 C 49.535156 13.496094 48.871094 15.097656 47.582031 15.097656 C 46.292969 15.097656 45.648438 13.496094 45.648438 10.390625 C 45.648438 7.226562 46.3125 5.566406 47.601562 5.566406 Z M 47.601562 5.566406 "/>
<path style=" stroke:none;fill-rule:nonzero;fill:rgb(0%,0%,0%);fill-opacity:1;" d="M 55.679688 5.175781 L 52.984375 6.523438 L 52.984375 6.738281 C 53.160156 6.660156 53.335938 6.601562 53.394531 6.582031 C 53.648438 6.464844 53.902344 6.40625 54.058594 6.40625 C 54.371094 6.40625 54.507812 6.640625 54.507812 7.109375 L 54.507812 13.886719 C 54.507812 14.375 54.390625 14.726562 54.15625 14.863281 C 53.921875 14.980469 53.707031 15.039062 53.082031 15.058594 L 53.082031 15.273438 L 57.203125 15.273438 L 57.203125 15.058594 C 56.03125 15.039062 55.796875 14.882812 55.796875 14.160156 L 55.796875 5.195312 Z M 55.679688 5.175781 "/>
<path style=" stroke:none;fill-rule:nonzero;fill:rgb(0%,0%,0%);fill-opacity:1;" d="M 69.621094 13.222656 L 69.425781 13.144531 C 68.878906 14.003906 68.683594 14.140625 68.019531 14.140625 L 64.445312 14.140625 L 66.945312 11.503906 C 68.292969 10.117188 68.859375 8.984375 68.859375 7.8125 C 68.859375 6.328125 67.648438 5.175781 66.105469 5.175781 C 65.285156 5.175781 64.503906 5.507812 63.957031 6.09375 C 63.46875 6.601562 63.253906 7.089844 63 8.144531 L 63.3125 8.222656 C 63.898438 6.757812 64.445312 6.269531 65.480469 6.269531 C 66.730469 6.269531 67.589844 7.128906 67.589844 8.378906 C 67.589844 9.550781 66.886719 10.9375 65.636719 12.265625 L 62.980469 15.097656 L 62.980469 15.273438 L 68.800781 15.273438 Z M 69.621094 13.222656 "/>
<path style=" stroke:none;fill-rule:nonzero;fill:rgb(0%,0%,0%);fill-opacity:1;" d="M 71.878906 13.789062 C 71.429688 13.789062 71.058594 14.160156 71.058594 14.628906 C 71.058594 15.058594 71.429688 15.429688 71.859375 15.429688 C 72.328125 15.429688 72.699219 15.058594 72.699219 14.628906 C 72.699219 14.160156 72.328125 13.789062 71.878906 13.789062 Z M 71.878906 13.789062 "/>
<path style=" stroke:none;fill-rule:nonzero;fill:rgb(0%,0%,0%);fill-opacity:1;" d="M 74.621094 15.605469 C 76.300781 15.410156 77.121094 15.117188 78.136719 14.394531 C 79.679688 13.261719 80.597656 11.40625 80.597656 9.394531 C 80.597656 6.914062 79.230469 5.175781 77.296875 5.175781 C 75.519531 5.175781 74.191406 6.679688 74.191406 8.691406 C 74.191406 10.527344 75.265625 11.738281 76.886719 11.738281 C 77.707031 11.738281 78.332031 11.484375 79.113281 10.878906 C 78.507812 13.320312 76.847656 14.921875 74.582031 15.3125 Z M 79.152344 9.960938 C 79.152344 10.273438 79.09375 10.410156 78.917969 10.527344 C 78.507812 10.898438 77.960938 11.09375 77.414062 11.09375 C 76.28125 11.09375 75.558594 9.960938 75.558594 8.183594 C 75.558594 7.34375 75.8125 6.445312 76.125 6.054688 C 76.378906 5.761719 76.75 5.585938 77.179688 5.585938 C 78.488281 5.585938 79.152344 6.875 79.152344 9.394531 Z M 79.152344 9.960938 "/>
<path style=" stroke:none;fill-rule:nonzero;fill:rgb(0%,0%,0%);fill-opacity:1;" d="M 87.871094 5.058594 C 86.171875 5.195312 85.3125 5.488281 84.21875 6.25 C 82.597656 7.402344 81.71875 9.101562 81.71875 11.113281 C 81.71875 12.402344 82.128906 13.710938 82.773438 14.472656 C 83.339844 15.117188 84.140625 15.488281 85.058594 15.488281 C 86.914062 15.488281 88.203125 14.0625 88.203125 11.992188 C 88.203125 10.097656 87.109375 8.886719 85.390625 8.886719 C 84.746094 8.886719 84.414062 8.984375 83.476562 9.550781 C 83.886719 7.285156 85.566406 5.683594 87.910156 5.292969 Z M 84.824219 9.570312 C 86.113281 9.570312 86.855469 10.644531 86.855469 12.5 C 86.855469 14.160156 86.269531 15.058594 85.234375 15.058594 C 83.90625 15.058594 83.105469 13.652344 83.105469 11.347656 C 83.105469 10.585938 83.222656 10.15625 83.535156 9.941406 C 83.847656 9.707031 84.296875 9.570312 84.824219 9.570312 Z M 84.824219 9.570312 "/>
<path style=" stroke:none;fill-rule:nonzero;fill:rgb(0%,0%,0%);fill-opacity:1;" d="M 94.296875 13.789062 C 93.847656 13.789062 93.476562 14.160156 93.476562 14.628906 C 93.476562 15.058594 93.847656 15.429688 94.277344 15.429688 C 94.746094 15.429688 95.117188 15.058594 95.117188 14.628906 C 95.117188 14.160156 94.746094 13.789062 94.296875 13.789062 Z M 94.296875 13.789062 "/>
<path style=" stroke:none;fill-rule:nonzero;fill:rgb(0%,0%,0%);fill-opacity:1;" d="M 99.945312 5.175781 C 99.125 5.175781 98.5 5.429688 97.953125 5.957031 C 97.074219 6.777344 96.507812 8.496094 96.507812 10.253906 C 96.507812 11.875 97.015625 13.632812 97.71875 14.472656 C 98.265625 15.117188 99.027344 15.488281 99.886719 15.488281 C 100.648438 15.488281 101.292969 15.234375 101.839844 14.707031 C 102.699219 13.886719 103.265625 12.148438 103.265625 10.351562 C 103.265625 7.285156 101.917969 5.175781 99.945312 5.175781 Z M 99.90625 5.566406 C 101.15625 5.566406 101.839844 7.246094 101.839844 10.371094 C 101.839844 13.496094 101.175781 15.097656 99.886719 15.097656 C 98.597656 15.097656 97.953125 13.496094 97.953125 10.390625 C 97.953125 7.226562 98.617188 5.566406 99.90625 5.566406 Z M 99.90625 5.566406 "/>
<path style=" stroke:none;fill-rule:nonzero;fill:rgb(0%,0%,0%);fill-opacity:1;" d="M 107.417969 5.175781 C 106.597656 5.175781 105.972656 5.429688 105.425781 5.957031 C 104.546875 6.777344 103.980469 8.496094 103.980469 10.253906 C 103.980469 11.875 104.488281 13.632812 105.191406 14.472656 C 105.738281 15.117188 106.5 15.488281 107.359375 15.488281 C 108.121094 15.488281 108.765625 15.234375 109.3125 14.707031 C 110.171875 13.886719 110.738281 12.148438 110.738281 10.351562 C 110.738281 7.285156 109.390625 5.175781 107.417969 5.175781 Z M 107.378906 5.566406 C 108.628906 5.566406 109.3125 7.246094 109.3125 10.371094 C 109.3125 13.496094 108.648438 15.097656 107.359375 15.097656 C 106.070312 15.097656 105.425781 13.496094 105.425781 10.390625 C 105.425781 7.226562 106.089844 5.566406 107.378906 5.566406 Z M 107.378906 5.566406 "/>
<path style=" stroke:none;fill-rule:nonzero;fill:rgb(0%,0%,0%);fill-opacity:1;" d="M 114.890625 5.175781 C 114.070312 5.175781 113.445312 5.429688 112.898438 5.957031 C 112.019531 6.777344 111.453125 8.496094 111.453125 10.253906 C 111.453125 11.875 111.960938 13.632812 112.664062 14.472656 C 113.210938 15.117188 113.972656 15.488281 114.832031 15.488281 C 115.59375 15.488281 116.238281 15.234375 116.785156 14.707031 C 117.644531 13.886719 118.210938 12.148438 118.210938 10.351562 C 118.210938 7.285156 116.863281 5.175781 114.890625 5.175781 Z M 114.851562 5.566406 C 116.101562 5.566406 116.785156 7.246094 116.785156 10.371094 C 116.785156 13.496094 116.121094 15.097656 114.832031 15.097656 C 113.542969 15.097656 112.898438 13.496094 112.898438 10.390625 C 112.898438 7.226562 113.5625 5.566406 114.851562 5.566406 Z M 114.851562 5.566406 "/>
<path style=" stroke:none;fill-rule:nonzero;fill:rgb(0%,0%,0%);fill-opacity:1;" d="M 121.269531 6.5625 L 124.199219 6.5625 C 124.453125 6.5625 124.511719 6.523438 124.550781 6.425781 L 125.117188 5.097656 L 124.980469 5 C 124.765625 5.3125 124.609375 5.390625 124.296875 5.390625 L 121.171875 5.390625 L 119.550781 8.925781 C 119.53125 8.945312 119.53125 8.964844 119.53125 9.003906 C 119.53125 9.082031 119.589844 9.121094 119.707031 9.121094 C 120.195312 9.121094 120.78125 9.21875 121.40625 9.414062 C 123.125 9.960938 123.90625 10.898438 123.90625 12.382812 C 123.90625 13.808594 122.988281 14.921875 121.835938 14.921875 C 121.523438 14.921875 121.269531 14.824219 120.839844 14.492188 C 120.351562 14.160156 120 14.003906 119.6875 14.003906 C 119.257812 14.003906 119.042969 14.179688 119.042969 14.550781 C 119.042969 15.117188 119.746094 15.488281 120.878906 15.488281 C 122.128906 15.488281 123.203125 15.078125 123.945312 14.316406 C 124.648438 13.652344 124.960938 12.792969 124.960938 11.660156 C 124.960938 10.585938 124.667969 9.902344 123.925781 9.140625 C 123.261719 8.496094 122.421875 8.144531 120.644531 7.832031 Z M 121.269531 6.5625 "/>
<path style=" stroke:none;fill-rule:nonzero;fill:rgb(0%,0%,0%);fill-opacity:1;" d="M 136.871094 13.222656 L 136.675781 13.144531 C 136.128906 14.003906 135.933594 14.140625 135.269531 14.140625 L 131.695312 14.140625 L 134.195312 11.503906 C 135.542969 10.117188 136.109375 8.984375 136.109375 7.8125 C 136.109375 6.328125 134.898438 5.175781 133.355469 5.175781 C 132.535156 5.175781 131.753906 5.507812 131.207031 6.09375 C 130.71875 6.601562 130.503906 7.089844 130.25 8.144531 L 130.5625 8.222656 C 131.148438 6.757812 131.695312 6.269531 132.730469 6.269531 C 133.980469 6.269531 134.839844 7.128906 134.839844 8.378906 C 134.839844 9.550781 134.136719 10.9375 132.886719 12.265625 L 130.230469 15.097656 L 130.230469 15.273438 L 136.050781 15.273438 Z M 136.871094 13.222656 "/>
<path style=" stroke:none;fill-rule:nonzero;fill:rgb(0%,0%,0%);fill-opacity:1;" d="M 139.128906 13.789062 C 138.679688 13.789062 138.308594 14.160156 138.308594 14.628906 C 138.308594 15.058594 138.679688 15.429688 139.109375 15.429688 C 139.578125 15.429688 139.949219 15.058594 139.949219 14.628906 C 139.949219 14.160156 139.578125 13.789062 139.128906 13.789062 Z M 139.128906 13.789062 "/>
<path style=" stroke:none;fill-rule:nonzero;fill:rgb(0%,0%,0%);fill-opacity:1;" d="M 141.867188 15.605469 C 143.546875 15.410156 144.367188 15.117188 145.382812 14.394531 C 146.925781 13.261719 147.84375 11.40625 147.84375 9.394531 C 147.84375 6.914062 146.476562 5.175781 144.542969 5.175781 C 142.765625 5.175781 141.4375 6.679688 141.4375 8.691406 C 141.4375 10.527344 142.511719 11.738281 144.132812 11.738281 C 144.953125 11.738281 145.578125 11.484375 146.359375 10.878906 C 145.753906 13.320312 144.09375 14.921875 141.828125 15.3125 Z M 146.398438 9.960938 C 146.398438 10.273438 146.339844 10.410156 146.164062 10.527344 C 145.753906 10.898438 145.207031 11.09375 144.660156 11.09375 C 143.527344 11.09375 142.804688 9.960938 142.804688 8.183594 C 142.804688 7.34375 143.058594 6.445312 143.371094 6.054688 C 143.625 5.761719 143.996094 5.585938 144.425781 5.585938 C 145.734375 5.585938 146.398438 6.875 146.398438 9.394531 Z M 146.398438 9.960938 "/>
<path style=" stroke:none;fill-rule:nonzero;fill:rgb(0%,0%,0%);fill-opacity:1;" d="M 155.550781 13.222656 L 155.355469 13.144531 C 154.808594 14.003906 154.613281 14.140625 153.949219 14.140625 L 150.375 14.140625 L 152.875 11.503906 C 154.222656 10.117188 154.789062 8.984375 154.789062 7.8125 C 154.789062 6.328125 153.578125 5.175781 152.035156 5.175781 C 151.214844 5.175781 150.433594 5.507812 149.886719 6.09375 C 149.398438 6.601562 149.183594 7.089844 148.929688 8.144531 L 149.242188 8.222656 C 149.828125 6.757812 150.375 6.269531 151.410156 6.269531 C 152.660156 6.269531 153.519531 7.128906 153.519531 8.378906 C 153.519531 9.550781 152.816406 10.9375 151.566406 12.265625 L 148.910156 15.097656 L 148.910156 15.273438 L 154.730469 15.273438 Z M 155.550781 13.222656 "/>
<path style=" stroke:none;fill-rule:nonzero;fill:rgb(0%,0%,0%);fill-opacity:1;" d="M 161.542969 13.789062 C 161.09375 13.789062 160.722656 14.160156 160.722656 14.628906 C 160.722656 15.058594 161.09375 15.429688 161.523438 15.429688 C 161.992188 15.429688 162.363281 15.058594 162.363281 14.628906 C 162.363281 14.160156 161.992188 13.789062 161.542969 13.789062 Z M 161.542969 13.789062 "/>
<path style=" stroke:none;fill-rule:nonzero;fill:rgb(0%,0%,0%);fill-opacity:1;" d="M 167.195312 5.175781 C 166.375 5.175781 165.75 5.429688 165.203125 5.957031 C 164.324219 6.777344 163.757812 8.496094 163.757812 10.253906 C 163.757812 11.875 164.265625 13.632812 164.96875 14.472656 C 165.515625 15.117188 166.277344 15.488281 167.136719 15.488281 C 167.898438 15.488281 168.542969 15.234375 169.089844 14.707031 C 169.949219 13.886719 170.515625 12.148438 170.515625 10.351562 C 170.515625 7.285156 169.167969 5.175781 167.195312 5.175781 Z M 167.15625 5.566406 C 168.40625 5.566406 169.089844 7.246094 169.089844 10.371094 C 169.089844 13.496094 168.425781 15.097656 167.136719 15.097656 C 165.847656 15.097656 165.203125 13.496094 165.203125 10.390625 C 165.203125 7.226562 165.867188 5.566406 167.15625 5.566406 Z M 167.15625 5.566406 "/>
<path style=" stroke:none;fill-rule:nonzero;fill:rgb(0%,0%,0%);fill-opacity:1;" d="M 174.664062 5.175781 C 173.84375 5.175781 173.21875 5.429688 172.671875 5.957031 C 171.792969 6.777344 171.226562 8.496094 171.226562 10.253906 C 171.226562 11.875 171.734375 13.632812 172.4375 14.472656 C 172.984375 15.117188 173.746094 15.488281 174.605469 15.488281 C 175.367188 15.488281 176.011719 15.234375 176.558594 14.707031 C 177.417969 13.886719 177.984375 12.148438 177.984375 10.351562 C 177.984375 7.285156 176.636719 5.175781 174.664062 5.175781 Z M 174.625 5.566406 C 175.875 5.566406 176.558594 7.246094 176.558594 10.371094 C 176.558594 13.496094 175.894531 15.097656 174.605469 15.097656 C 173.316406 15.097656 172.671875 13.496094 172.671875 10.390625 C 172.671875 7.226562 173.335938 5.566406 174.625 5.566406 Z M 174.625 5.566406 "/>
<path style=" stroke:none;fill-rule:nonzero;fill:rgb(0%,0%,0%);fill-opacity:1;" d="M 185.4375 13.222656 L 185.242188 13.144531 C 184.695312 14.003906 184.5 14.140625 183.835938 14.140625 L 180.261719 14.140625 L 182.761719 11.503906 C 184.109375 10.117188 184.675781 8.984375 184.675781 7.8125 C 184.675781 6.328125 183.464844 5.175781 181.921875 5.175781 C 181.101562 5.175781 180.320312 5.507812 179.773438 6.09375 C 179.285156 6.601562 179.070312 7.089844 178.816406 8.144531 L 179.128906 8.222656 C 179.714844 6.757812 180.261719 6.269531 181.296875 6.269531 C 182.546875 6.269531 183.40625 7.128906 183.40625 8.378906 C 183.40625 9.550781 182.703125 10.9375 181.453125 12.265625 L 178.796875 15.097656 L 178.796875 15.273438 L 184.617188 15.273438 Z M 185.4375 13.222656 "/>
<path style=" stroke:none;fill-rule:nonzero;fill:rgb(0%,0%,0%);fill-opacity:1;" d="M 188.105469 10.351562 C 188.984375 10.351562 189.335938 10.371094 189.6875 10.507812 C 190.625 10.839844 191.191406 11.679688 191.191406 12.714844 C 191.191406 13.964844 190.351562 14.941406 189.238281 14.941406 C 188.847656 14.941406 188.535156 14.84375 187.988281 14.472656 C 187.539062 14.21875 187.285156 14.101562 187.03125 14.101562 C 186.679688 14.101562 186.464844 14.316406 186.464844 14.628906 C 186.464844 15.15625 187.109375 15.488281 188.144531 15.488281 C 189.296875 15.488281 190.488281 15.097656 191.191406 14.472656 C 191.894531 13.867188 192.265625 13.007812 192.265625 11.992188 C 192.265625 11.230469 192.03125 10.527344 191.601562 10.078125 C 191.308594 9.746094 191.015625 9.570312 190.371094 9.277344 C 191.386719 8.574219 191.757812 8.027344 191.757812 7.226562 C 191.757812 6.015625 190.820312 5.175781 189.433594 5.175781 C 188.691406 5.175781 188.027344 5.429688 187.5 5.898438 C 187.050781 6.308594 186.816406 6.699219 186.484375 7.597656 L 186.71875 7.65625 C 187.324219 6.5625 188.007812 6.074219 188.945312 6.074219 C 189.921875 6.074219 190.585938 6.71875 190.585938 7.675781 C 190.585938 8.203125 190.371094 8.75 189.980469 9.121094 C 189.53125 9.570312 189.121094 9.785156 188.105469 10.15625 Z M 188.105469 10.351562 "/>
<path style=" stroke:none;fill-rule:nonzero;fill:rgb(0%,0%,0%);fill-opacity:1;" d="M 204.117188 13.222656 L 203.921875 13.144531 C 203.375 14.003906 203.179688 14.140625 202.515625 14.140625 L 198.941406 14.140625 L 201.441406 11.503906 C 202.789062 10.117188 203.355469 8.984375 203.355469 7.8125 C 203.355469 6.328125 202.144531 5.175781 200.601562 5.175781 C 199.78125 5.175781 199 5.507812 198.453125 6.09375 C 197.964844 6.601562 197.75 7.089844 197.496094 8.144531 L 197.808594 8.222656 C 198.394531 6.757812 198.941406 6.269531 199.976562 6.269531 C 201.226562 6.269531 202.085938 7.128906 202.085938 8.378906 C 202.085938 9.550781 201.382812 10.9375 200.132812 12.265625 L 197.476562 15.097656 L 197.476562 15.273438 L 203.296875 15.273438 Z M 204.117188 13.222656 "/>
<path style=" stroke:none;fill-rule:nonzero;fill:rgb(0%,0%,0%);fill-opacity:1;" d="M 206.375 13.789062 C 205.925781 13.789062 205.554688 14.160156 205.554688 14.628906 C 205.554688 15.058594 205.925781 15.429688 206.355469 15.429688 C 206.824219 15.429688 207.195312 15.058594 207.195312 14.628906 C 207.195312 14.160156 206.824219 13.789062 206.375 13.789062 Z M 206.375 13.789062 "/>
<path style=" stroke:none;fill-rule:nonzero;fill:rgb(0%,0%,0%);fill-opacity:1;" d="M 212.574219 9.726562 C 214.058594 8.945312 214.566406 8.320312 214.566406 7.285156 C 214.566406 6.074219 213.492188 5.175781 212.007812 5.175781 C 210.367188 5.175781 209.15625 6.171875 209.15625 7.539062 C 209.15625 8.496094 209.449219 8.945312 211.011719 10.3125 C 209.410156 11.542969 209.078125 11.992188 209.078125 13.007812 C 209.078125 14.472656 210.25 15.488281 211.949219 15.488281 C 213.746094 15.488281 214.878906 14.492188 214.878906 12.949219 C 214.878906 11.816406 214.371094 11.074219 212.574219 9.726562 Z M 212.300781 11.269531 C 213.394531 12.050781 213.746094 12.578125 213.746094 13.417969 C 213.746094 14.394531 213.082031 15.058594 212.105469 15.058594 C 210.972656 15.058594 210.210938 14.199219 210.210938 12.890625 C 210.210938 11.933594 210.542969 11.308594 211.402344 10.605469 Z M 212.144531 9.453125 C 210.816406 8.59375 210.269531 7.910156 210.269531 7.070312 C 210.269531 6.210938 210.933594 5.585938 211.890625 5.585938 C 212.90625 5.585938 213.550781 6.25 213.550781 7.285156 C 213.550781 8.125 213.121094 8.808594 212.28125 9.375 C 212.203125 9.414062 212.203125 9.414062 212.144531 9.453125 Z M 212.144531 9.453125 "/>
<path style=" stroke:none;fill-rule:nonzero;fill:rgb(0%,0%,0%);fill-opacity:1;" d="M 220.042969 9.726562 C 221.527344 8.945312 222.035156 8.320312 222.035156 7.285156 C 222.035156 6.074219 220.960938 5.175781 219.476562 5.175781 C 217.835938 5.175781 216.625 6.171875 216.625 7.539062 C 216.625 8.496094 216.917969 8.945312 218.480469 10.3125 C 216.878906 11.542969 216.546875 11.992188 216.546875 13.007812 C 216.546875 14.472656 217.71875 15.488281 219.417969 15.488281 C 221.214844 15.488281 222.347656 14.492188 222.347656 12.949219 C 222.347656 11.816406 221.839844 11.074219 220.042969 9.726562 Z M 219.769531 11.269531 C 220.863281 12.050781 221.214844 12.578125 221.214844 13.417969 C 221.214844 14.394531 220.550781 15.058594 219.574219 15.058594 C 218.441406 15.058594 217.679688 14.199219 217.679688 12.890625 C 217.679688 11.933594 218.011719 11.308594 218.871094 10.605469 Z M 219.613281 9.453125 C 218.285156 8.59375 217.738281 7.910156 217.738281 7.070312 C 217.738281 6.210938 218.402344 5.585938 219.359375 5.585938 C 220.375 5.585938 221.019531 6.25 221.019531 7.285156 C 221.019531 8.125 220.589844 8.808594 219.75 9.375 C 219.671875 9.414062 219.671875 9.414062 219.613281 9.453125 Z M 219.613281 9.453125 "/>
<path style=" stroke:none;fill-rule:nonzero;fill:rgb(0%,0%,0%);fill-opacity:1;" d="M 228.792969 13.789062 C 228.34375 13.789062 227.972656 14.160156 227.972656 14.628906 C 227.972656 15.058594 228.34375 15.429688 228.773438 15.429688 C 229.242188 15.429688 229.613281 15.058594 229.613281 14.628906 C 229.613281 14.160156 229.242188 13.789062 228.792969 13.789062 Z M 228.792969 13.789062 "/>
<path style=" stroke:none;fill-rule:nonzero;fill:rgb(0%,0%,0%);fill-opacity:1;" d="M 234.441406 5.175781 C 233.621094 5.175781 232.996094 5.429688 232.449219 5.957031 C 231.570312 6.777344 231.003906 8.496094 231.003906 10.253906 C 231.003906 11.875 231.511719 13.632812 232.214844 14.472656 C 232.761719 15.117188 233.523438 15.488281 234.382812 15.488281 C 235.144531 15.488281 235.789062 15.234375 236.335938 14.707031 C 237.195312 13.886719 237.761719 12.148438 237.761719 10.351562 C 237.761719 7.285156 236.414062 5.175781 234.441406 5.175781 Z M 234.402344 5.566406 C 235.652344 5.566406 236.335938 7.246094 236.335938 10.371094 C 236.335938 13.496094 235.671875 15.097656 234.382812 15.097656 C 233.09375 15.097656 232.449219 13.496094 232.449219 10.390625 C 232.449219 7.226562 233.113281 5.566406 234.402344 5.566406 Z M 234.402344 5.566406 "/>
<path style=" stroke:none;fill-rule:nonzero;fill:rgb(0%,0%,0%);fill-opacity:1;" d="M 241.914062 5.175781 C 241.09375 5.175781 240.46875 5.429688 239.921875 5.957031 C 239.042969 6.777344 238.476562 8.496094 238.476562 10.253906 C 238.476562 11.875 238.984375 13.632812 239.6875 14.472656 C 240.234375 15.117188 240.996094 15.488281 241.855469 15.488281 C 242.617188 15.488281 243.261719 15.234375 243.808594 14.707031 C 244.667969 13.886719 245.234375 12.148438 245.234375 10.351562 C 245.234375 7.285156 243.886719 5.175781 241.914062 5.175781 Z M 241.875 5.566406 C 243.125 5.566406 243.808594 7.246094 243.808594 10.371094 C 243.808594 13.496094 243.144531 15.097656 241.855469 15.097656 C 240.566406 15.097656 239.921875 13.496094 239.921875 10.390625 C 239.921875 7.226562 240.585938 5.566406 241.875 5.566406 Z M 241.875 5.566406 "/>
<path style=" stroke:none;fill-rule:nonzero;fill:rgb(0%,0%,0%);fill-opacity:1;" d="M 252.296875 5.390625 L 246.769531 5.390625 L 245.890625 7.578125 L 246.144531 7.695312 C 246.789062 6.679688 247.0625 6.484375 247.882812 6.484375 L 251.125 6.484375 L 248.175781 15.390625 L 249.132812 15.390625 L 252.296875 5.625 Z M 252.296875 5.390625 "/>
<path style=" stroke:none;fill-rule:nonzero;fill:rgb(0%,0%,0%);fill-opacity:1;" d="M 253.949219 15.605469 C 255.628906 15.410156 256.449219 15.117188 257.464844 14.394531 C 259.007812 13.261719 259.925781 11.40625 259.925781 9.394531 C 259.925781 6.914062 258.558594 5.175781 256.625 5.175781 C 254.847656 5.175781 253.519531 6.679688 253.519531 8.691406 C 253.519531 10.527344 254.59375 11.738281 256.214844 11.738281 C 257.035156 11.738281 257.660156 11.484375 258.441406 10.878906 C 257.835938 13.320312 256.175781 14.921875 253.910156 15.3125 Z M 258.480469 9.960938 C 258.480469 10.273438 258.421875 10.410156 258.246094 10.527344 C 257.835938 10.898438 257.289062 11.09375 256.742188 11.09375 C 255.609375 11.09375 254.886719 9.960938 254.886719 8.183594 C 254.886719 7.34375 255.140625 6.445312 255.453125 6.054688 C 255.707031 5.761719 256.078125 5.585938 256.507812 5.585938 C 257.816406 5.585938 258.480469 6.875 258.480469 9.394531 Z M 258.480469 9.960938 "/>
<path style=" stroke:none;fill-rule:nonzero;fill:rgb(0%,0%,0%);fill-opacity:1;" d="M 271.367188 13.222656 L 271.171875 13.144531 C 270.625 14.003906 270.429688 14.140625 269.765625 14.140625 L 266.191406 14.140625 L 268.691406 11.503906 C 270.039062 10.117188 270.605469 8.984375 270.605469 7.8125 C 270.605469 6.328125 269.394531 5.175781 267.851562 5.175781 C 267.03125 5.175781 266.25 5.507812 265.703125 6.09375 C 265.214844 6.601562 265 7.089844 264.746094 8.144531 L 265.058594 8.222656 C 265.644531 6.757812 266.191406 6.269531 267.226562 6.269531 C 268.476562 6.269531 269.335938 7.128906 269.335938 8.378906 C 269.335938 9.550781 268.632812 10.9375 267.382812 12.265625 L 264.726562 15.097656 L 264.726562 15.273438 L 270.546875 15.273438 Z M 271.367188 13.222656 "/>
<path style=" stroke:none;fill-rule:nonzero;fill:rgb(0%,0%,0%);fill-opacity:1;" d="M 273.625 13.789062 C 273.175781 13.789062 272.804688 14.160156 272.804688 14.628906 C 272.804688 15.058594 273.175781 15.429688 273.605469 15.429688 C 274.074219 15.429688 274.445312 15.058594 274.445312 14.628906 C 274.445312 14.160156 274.074219 13.789062 273.625 13.789062 Z M 273.625 13.789062 "/>
<path style=" stroke:none;fill-rule:nonzero;fill:rgb(0%,0%,0%);fill-opacity:1;" d="M 279.820312 9.726562 C 281.304688 8.945312 281.8125 8.320312 281.8125 7.285156 C 281.8125 6.074219 280.738281 5.175781 279.253906 5.175781 C 277.613281 5.175781 276.402344 6.171875 276.402344 7.539062 C 276.402344 8.496094 276.695312 8.945312 278.257812 10.3125 C 276.65625 11.542969 276.324219 11.992188 276.324219 13.007812 C 276.324219 14.472656 277.496094 15.488281 279.195312 15.488281 C 280.992188 15.488281 282.125 14.492188 282.125 12.949219 C 282.125 11.816406 281.617188 11.074219 279.820312 9.726562 Z M 279.546875 11.269531 C 280.640625 12.050781 280.992188 12.578125 280.992188 13.417969 C 280.992188 14.394531 280.328125 15.058594 279.351562 15.058594 C 278.21875 15.058594 277.457031 14.199219 277.457031 12.890625 C 277.457031 11.933594 277.789062 11.308594 278.648438 10.605469 Z M 279.390625 9.453125 C 278.0625 8.59375 277.515625 7.910156 277.515625 7.070312 C 277.515625 6.210938 278.179688 5.585938 279.136719 5.585938 C 280.152344 5.585938 280.796875 6.25 280.796875 7.285156 C 280.796875 8.125 280.367188 8.808594 279.527344 9.375 C 279.449219 9.414062 279.449219 9.414062 279.390625 9.453125 Z M 279.390625 9.453125 "/>
<path style=" stroke:none;fill-rule:nonzero;fill:rgb(0%,0%,0%);fill-opacity:1;" d="M 290.007812 11.816406 L 288.484375 11.816406 L 288.484375 5.175781 L 287.820312 5.175781 L 283.132812 11.816406 L 283.132812 12.773438 L 287.332031 12.773438 L 287.332031 15.273438 L 288.484375 15.273438 L 288.484375 12.773438 L 290.007812 12.773438 Z M 287.3125 11.816406 L 283.738281 11.816406 L 287.3125 6.699219 Z M 287.3125 11.816406 "/>
<path style=" stroke:none;fill-rule:nonzero;fill:rgb(0%,0%,0%);fill-opacity:1;" d="M 296.039062 13.789062 C 295.589844 13.789062 295.21875 14.160156 295.21875 14.628906 C 295.21875 15.058594 295.589844 15.429688 296.019531 15.429688 C 296.488281 15.429688 296.859375 15.058594 296.859375 14.628906 C 296.859375 14.160156 296.488281 13.789062 296.039062 13.789062 Z M 296.039062 13.789062 "/>
<path style=" stroke:none;fill-rule:nonzero;fill:rgb(0%,0%,0%);fill-opacity:1;" d="M 301.691406 5.175781 C 300.871094 5.175781 300.246094 5.429688 299.699219 5.957031 C 298.820312 6.777344 298.253906 8.496094 298.253906 10.253906 C 298.253906 11.875 298.761719 13.632812 299.464844 14.472656 C 300.011719 15.117188 300.773438 15.488281 301.632812 15.488281 C 302.394531 15.488281 303.039062 15.234375 303.585938 14.707031 C 304.445312 13.886719 305.011719 12.148438 305.011719 10.351562 C 305.011719 7.285156 303.664062 5.175781 301.691406 5.175781 Z M 301.652344 5.566406 C 302.902344 5.566406 303.585938 7.246094 303.585938 10.371094 C 303.585938 13.496094 302.921875 15.097656 301.632812 15.097656 C 300.34375 15.097656 299.699219 13.496094 299.699219 10.390625 C 299.699219 7.226562 300.363281 5.566406 301.652344 5.566406 Z M 301.652344 5.566406 "/>
<path style=" stroke:none;fill-rule:nonzero;fill:rgb(0%,0%,0%);fill-opacity:1;" d="M 312.460938 13.222656 L 312.265625 13.144531 C 311.71875 14.003906 311.523438 14.140625 310.859375 14.140625 L 307.285156 14.140625 L 309.785156 11.503906 C 311.132812 10.117188 311.699219 8.984375 311.699219 7.8125 C 311.699219 6.328125 310.488281 5.175781 308.945312 5.175781 C 308.125 5.175781 307.34375 5.507812 306.796875 6.09375 C 306.308594 6.601562 306.09375 7.089844 305.839844 8.144531 L 306.152344 8.222656 C 306.738281 6.757812 307.285156 6.269531 308.320312 6.269531 C 309.570312 6.269531 310.429688 7.128906 310.429688 8.378906 C 310.429688 9.550781 309.726562 10.9375 308.476562 12.265625 L 305.820312 15.097656 L 305.820312 15.273438 L 311.640625 15.273438 Z M 312.460938 13.222656 "/>
<path style=" stroke:none;fill-rule:nonzero;fill:rgb(0%,0%,0%);fill-opacity:1;" d="M 319.933594 13.222656 L 319.738281 13.144531 C 319.191406 14.003906 318.996094 14.140625 318.332031 14.140625 L 314.757812 14.140625 L 317.257812 11.503906 C 318.605469 10.117188 319.171875 8.984375 319.171875 7.8125 C 319.171875 6.328125 317.960938 5.175781 316.417969 5.175781 C 315.597656 5.175781 314.816406 5.507812 314.269531 6.09375 C 313.78125 6.601562 313.566406 7.089844 313.3125 8.144531 L 313.625 8.222656 C 314.210938 6.757812 314.757812 6.269531 315.792969 6.269531 C 317.042969 6.269531 317.902344 7.128906 317.902344 8.378906 C 317.902344 9.550781 317.199219 10.9375 315.949219 12.265625 L 313.292969 15.097656 L 313.292969 15.273438 L 319.113281 15.273438 Z M 319.933594 13.222656 "/>
<path style=" stroke:none;fill-rule:nonzero;fill:rgb(0%,0%,0%);fill-opacity:1;" d="M 323.011719 6.5625 L 325.941406 6.5625 C 326.195312 6.5625 326.253906 6.523438 326.292969 6.425781 L 326.859375 5.097656 L 326.722656 5 C 326.507812 5.3125 326.351562 5.390625 326.039062 5.390625 L 322.914062 5.390625 L 321.292969 8.925781 C 321.273438 8.945312 321.273438 8.964844 321.273438 9.003906 C 321.273438 9.082031 321.332031 9.121094 321.449219 9.121094 C 321.9375 9.121094 322.523438 9.21875 323.148438 9.414062 C 324.867188 9.960938 325.648438 10.898438 325.648438 12.382812 C 325.648438 13.808594 324.730469 14.921875 323.578125 14.921875 C 323.265625 14.921875 323.011719 14.824219 322.582031 14.492188 C 322.09375 14.160156 321.742188 14.003906 321.429688 14.003906 C 321 14.003906 320.785156 14.179688 320.785156 14.550781 C 320.785156 15.117188 321.488281 15.488281 322.621094 15.488281 C 323.871094 15.488281 324.945312 15.078125 325.6875 14.316406 C 326.390625 13.652344 326.703125 12.792969 326.703125 11.660156 C 326.703125 10.585938 326.410156 9.902344 325.667969 9.140625 C 325.003906 8.496094 324.164062 8.144531 322.386719 7.832031 Z M 323.011719 6.5625 "/>
<path style=" stroke:none;fill-rule:nonzero;fill:rgb(0%,0%,0%);fill-opacity:1;" d="M 338.613281 13.222656 L 338.417969 13.144531 C 337.871094 14.003906 337.675781 14.140625 337.011719 14.140625 L 333.4375 14.140625 L 335.9375 11.503906 C 337.285156 10.117188 337.851562 8.984375 337.851562 7.8125 C 337.851562 6.328125 336.640625 5.175781 335.097656 5.175781 C 334.277344 5.175781 333.496094 5.507812 332.949219 6.09375 C 332.460938 6.601562 332.246094 7.089844 331.992188 8.144531 L 332.304688 8.222656 C 332.890625 6.757812 333.4375 6.269531 334.472656 6.269531 C 335.722656 6.269531 336.582031 7.128906 336.582031 8.378906 C 336.582031 9.550781 335.878906 10.9375 334.628906 12.265625 L 331.972656 15.097656 L 331.972656 15.273438 L 337.792969 15.273438 Z M 338.613281 13.222656 "/>
<path style=" stroke:none;fill-rule:nonzero;fill:rgb(0%,0%,0%);fill-opacity:1;" d="M 340.871094 13.789062 C 340.421875 13.789062 340.050781 14.160156 340.050781 14.628906 C 340.050781 15.058594 340.421875 15.429688 340.851562 15.429688 C 341.320312 15.429688 341.691406 15.058594 341.691406 14.628906 C 341.691406 14.160156 341.320312 13.789062 340.871094 13.789062 Z M 340.871094 13.789062 "/>
<path style=" stroke:none;fill-rule:nonzero;fill:rgb(0%,0%,0%);fill-opacity:1;" d="M 347.070312 9.726562 C 348.554688 8.945312 349.0625 8.320312 349.0625 7.285156 C 349.0625 6.074219 347.988281 5.175781 346.503906 5.175781 C 344.863281 5.175781 343.652344 6.171875 343.652344 7.539062 C 343.652344 8.496094 343.945312 8.945312 345.507812 10.3125 C 343.90625 11.542969 343.574219 11.992188 343.574219 13.007812 C 343.574219 14.472656 344.746094 15.488281 346.445312 15.488281 C 348.242188 15.488281 349.375 14.492188 349.375 12.949219 C 349.375 11.816406 348.867188 11.074219 347.070312 9.726562 Z M 346.796875 11.269531 C 347.890625 12.050781 348.242188 12.578125 348.242188 13.417969 C 348.242188 14.394531 347.578125 15.058594 346.601562 15.058594 C 345.46875 15.058594 344.707031 14.199219 344.707031 12.890625 C 344.707031 11.933594 345.039062 11.308594 345.898438 10.605469 Z M 346.640625 9.453125 C 345.3125 8.59375 344.765625 7.910156 344.765625 7.070312 C 344.765625 6.210938 345.429688 5.585938 346.386719 5.585938 C 347.402344 5.585938 348.046875 6.25 348.046875 7.285156 C 348.046875 8.125 347.617188 8.808594 346.777344 9.375 C 346.699219 9.414062 346.699219 9.414062 346.640625 9.453125 Z M 346.640625 9.453125 "/>
<path style=" stroke:none;fill-rule:nonzero;fill:rgb(0%,0%,0%);fill-opacity:1;" d="M 353.992188 5.175781 C 353.171875 5.175781 352.546875 5.429688 352 5.957031 C 351.121094 6.777344 350.554688 8.496094 350.554688 10.253906 C 350.554688 11.875 351.0625 13.632812 351.765625 14.472656 C 352.3125 15.117188 353.074219 15.488281 353.933594 15.488281 C 354.695312 15.488281 355.339844 15.234375 355.886719 14.707031 C 356.746094 13.886719 357.3125 12.148438 357.3125 10.351562 C 357.3125 7.285156 355.964844 5.175781 353.992188 5.175781 Z M 353.953125 5.566406 C 355.203125 5.566406 355.886719 7.246094 355.886719 10.371094 C 355.886719 13.496094 355.222656 15.097656 353.933594 15.097656 C 352.644531 15.097656 352 13.496094 352 10.390625 C 352 7.226562 352.664062 5.566406 353.953125 5.566406 Z M 353.953125 5.566406 "/>
<path style=" stroke:none;fill-rule:nonzero;fill:rgb(0%,0%,0%);fill-opacity:1;" d="M 363.289062 13.789062 C 362.839844 13.789062 362.46875 14.160156 362.46875 14.628906 C 362.46875 15.058594 362.839844 15.429688 363.269531 15.429688 C 363.738281 15.429688 364.109375 15.058594 364.109375 14.628906 C 364.109375 14.160156 363.738281 13.789062 363.289062 13.789062 Z M 363.289062 13.789062 "/>
<path style=" stroke:none;fill-rule:nonzero;fill:rgb(0%,0%,0%);fill-opacity:1;" d="M 368.9375 5.175781 C 368.117188 5.175781 367.492188 5.429688 366.945312 5.957031 C 366.066406 6.777344 365.5 8.496094 365.5 10.253906 C 365.5 11.875 366.007812 13.632812 366.710938 14.472656 C 367.257812 15.117188 368.019531 15.488281 368.878906 15.488281 C 369.640625 15.488281 370.285156 15.234375 370.832031 14.707031 C 371.691406 13.886719 372.257812 12.148438 372.257812 10.351562 C 372.257812 7.285156 370.910156 5.175781 368.9375 5.175781 Z M 368.898438 5.566406 C 370.148438 5.566406 370.832031 7.246094 370.832031 10.371094 C 370.832031 13.496094 370.167969 15.097656 368.878906 15.097656 C 367.589844 15.097656 366.945312 13.496094 366.945312 10.390625 C 366.945312 7.226562 367.609375 5.566406 368.898438 5.566406 Z M 368.898438 5.566406 "/>
<path style=" stroke:none;fill-rule:nonzero;fill:rgb(0%,0%,0%);fill-opacity:1;" d="M 375.316406 6.5625 L 378.246094 6.5625 C 378.5 6.5625 378.558594 6.523438 378.597656 6.425781 L 379.164062 5.097656 L 379.027344 5 C 378.8125 5.3125 378.65625 5.390625 378.34375 5.390625 L 375.21875 5.390625 L 373.597656 8.925781 C 373.578125 8.945312 373.578125 8.964844 373.578125 9.003906 C 373.578125 9.082031 373.636719 9.121094 373.753906 9.121094 C 374.242188 9.121094 374.828125 9.21875 375.453125 9.414062 C 377.171875 9.960938 377.953125 10.898438 377.953125 12.382812 C 377.953125 13.808594 377.035156 14.921875 375.882812 14.921875 C 375.570312 14.921875 375.316406 14.824219 374.886719 14.492188 C 374.398438 14.160156 374.046875 14.003906 373.734375 14.003906 C 373.304688 14.003906 373.089844 14.179688 373.089844 14.550781 C 373.089844 15.117188 373.792969 15.488281 374.925781 15.488281 C 376.175781 15.488281 377.25 15.078125 377.992188 14.316406 C 378.695312 13.652344 379.007812 12.792969 379.007812 11.660156 C 379.007812 10.585938 378.714844 9.902344 377.972656 9.140625 C 377.308594 8.496094 376.46875 8.144531 374.691406 7.832031 Z M 375.316406 6.5625 "/>
<path style=" stroke:none;fill-rule:nonzero;fill:rgb(0%,0%,0%);fill-opacity:1;" d="M 387.144531 11.816406 L 385.621094 11.816406 L 385.621094 5.175781 L 384.957031 5.175781 L 380.269531 11.816406 L 380.269531 12.773438 L 384.46875 12.773438 L 384.46875 15.273438 L 385.621094 15.273438 L 385.621094 12.773438 L 387.144531 12.773438 Z M 384.449219 11.816406 L 380.875 11.816406 L 384.449219 6.699219 Z M 384.449219 11.816406 "/>
<path style=" stroke:none;fill-rule:nonzero;fill:rgb(0%,0%,0%);fill-opacity:1;" d="M 390.261719 6.5625 L 393.191406 6.5625 C 393.445312 6.5625 393.503906 6.523438 393.542969 6.425781 L 394.109375 5.097656 L 393.972656 5 C 393.757812 5.3125 393.601562 5.390625 393.289062 5.390625 L 390.164062 5.390625 L 388.542969 8.925781 C 388.523438 8.945312 388.523438 8.964844 388.523438 9.003906 C 388.523438 9.082031 388.582031 9.121094 388.699219 9.121094 C 389.1875 9.121094 389.773438 9.21875 390.398438 9.414062 C 392.117188 9.960938 392.898438 10.898438 392.898438 12.382812 C 392.898438 13.808594 391.980469 14.921875 390.828125 14.921875 C 390.515625 14.921875 390.261719 14.824219 389.832031 14.492188 C 389.34375 14.160156 388.992188 14.003906 388.679688 14.003906 C 388.25 14.003906 388.035156 14.179688 388.035156 14.550781 C 388.035156 15.117188 388.738281 15.488281 389.871094 15.488281 C 391.121094 15.488281 392.195312 15.078125 392.9375 14.316406 C 393.640625 13.652344 393.953125 12.792969 393.953125 11.660156 C 393.953125 10.585938 393.660156 9.902344 392.917969 9.140625 C 392.253906 8.496094 391.414062 8.144531 389.636719 7.832031 Z M 390.261719 6.5625 "/>
<path style=" stroke:none;fill-rule:nonzero;fill:rgb(0%,0%,0%);fill-opacity:1;" d="M 405.863281 13.222656 L 405.667969 13.144531 C 405.121094 14.003906 404.925781 14.140625 404.261719 14.140625 L 400.6875 14.140625 L 403.1875 11.503906 C 404.535156 10.117188 405.101562 8.984375 405.101562 7.8125 C 405.101562 6.328125 403.890625 5.175781 402.347656 5.175781 C 401.527344 5.175781 400.746094 5.507812 400.199219 6.09375 C 399.710938 6.601562 399.496094 7.089844 399.242188 8.144531 L 399.554688 8.222656 C 400.140625 6.757812 400.6875 6.269531 401.722656 6.269531 C 402.972656 6.269531 403.832031 7.128906 403.832031 8.378906 C 403.832031 9.550781 403.128906 10.9375 401.878906 12.265625 L 399.222656 15.097656 L 399.222656 15.273438 L 405.042969 15.273438 Z M 405.863281 13.222656 "/>
<path style=" stroke:none;fill-rule:nonzero;fill:rgb(0%,0%,0%);fill-opacity:1;" d="M 408.121094 13.789062 C 407.671875 13.789062 407.300781 14.160156 407.300781 14.628906 C 407.300781 15.058594 407.671875 15.429688 408.101562 15.429688 C 408.570312 15.429688 408.941406 15.058594 408.941406 14.628906 C 408.941406 14.160156 408.570312 13.789062 408.121094 13.789062 Z M 408.121094 13.789062 "/>
<path style=" stroke:none;fill-rule:nonzero;fill:rgb(0%,0%,0%);fill-opacity:1;" d="M 416.679688 5.390625 L 411.152344 5.390625 L 410.273438 7.578125 L 410.527344 7.695312 C 411.171875 6.679688 411.445312 6.484375 412.265625 6.484375 L 415.507812 6.484375 L 412.558594 15.390625 L 413.515625 15.390625 L 416.679688 5.625 Z M 416.679688 5.390625 "/>
<path style=" stroke:none;fill-rule:nonzero;fill:rgb(0%,0%,0%);fill-opacity:1;" d="M 424.113281 5.058594 C 422.414062 5.195312 421.554688 5.488281 420.460938 6.25 C 418.839844 7.402344 417.960938 9.101562 417.960938 11.113281 C 417.960938 12.402344 418.371094 13.710938 419.015625 14.472656 C 419.582031 15.117188 420.382812 15.488281 421.300781 15.488281 C 423.15625 15.488281 424.445312 14.0625 424.445312 11.992188 C 424.445312 10.097656 423.351562 8.886719 421.632812 8.886719 C 420.988281 8.886719 420.65625 8.984375 419.71875 9.550781 C 420.128906 7.285156 421.808594 5.683594 424.152344 5.292969 Z M 421.066406 9.570312 C 422.355469 9.570312 423.097656 10.644531 423.097656 12.5 C 423.097656 14.160156 422.511719 15.058594 421.476562 15.058594 C 420.148438 15.058594 419.347656 13.652344 419.347656 11.347656 C 419.347656 10.585938 419.464844 10.15625 419.777344 9.941406 C 420.089844 9.707031 420.539062 9.570312 421.066406 9.570312 Z M 421.066406 9.570312 "/>
<path style=" stroke:none;fill-rule:nonzero;fill:rgb(0%,0%,0%);fill-opacity:1;" d="M 430.535156 13.789062 C 430.085938 13.789062 429.714844 14.160156 429.714844 14.628906 C 429.714844 15.058594 430.085938 15.429688 430.515625 15.429688 C 430.984375 15.429688 431.355469 15.058594 431.355469 14.628906 C 431.355469 14.160156 430.984375 13.789062 430.535156 13.789062 Z M 430.535156 13.789062 "/>
<path style=" stroke:none;fill-rule:nonzero;fill:rgb(0%,0%,0%);fill-opacity:1;" d="M 436.75 5.175781 L 434.054688 6.523438 L 434.054688 6.738281 C 434.230469 6.660156 434.40625 6.601562 434.464844 6.582031 C 434.71875 6.464844 434.972656 6.40625 435.128906 6.40625 C 435.441406 6.40625 435.578125 6.640625 435.578125 7.109375 L 435.578125 13.886719 C 435.578125 14.375 435.460938 14.726562 435.226562 14.863281 C 434.992188 14.980469 434.777344 15.039062 434.152344 15.058594 L 434.152344 15.273438 L 438.273438 15.273438 L 438.273438 15.058594 C 437.101562 15.039062 436.867188 14.882812 436.867188 14.160156 L 436.867188 5.195312 Z M 436.75 5.175781 "/>
<path style=" stroke:none;fill-rule:nonzero;fill:rgb(0%,0%,0%);fill-opacity:1;" d="M 444.222656 5.175781 L 441.527344 6.523438 L 441.527344 6.738281 C 441.703125 6.660156 441.878906 6.601562 441.9375 6.582031 C 442.191406 6.464844 442.445312 6.40625 442.601562 6.40625 C 442.914062 6.40625 443.050781 6.640625 443.050781 7.109375 L 443.050781 13.886719 C 443.050781 14.375 442.933594 14.726562 442.699219 14.863281 C 442.464844 14.980469 442.25 15.039062 441.625 15.058594 L 441.625 15.273438 L 445.746094 15.273438 L 445.746094 15.058594 C 444.574219 15.039062 444.339844 14.882812 444.339844 14.160156 L 444.339844 5.195312 Z M 444.222656 5.175781 "/>
<path style=" stroke:none;fill-rule:nonzero;fill:rgb(0%,0%,0%);fill-opacity:1;" d="M 454.390625 11.816406 L 452.867188 11.816406 L 452.867188 5.175781 L 452.203125 5.175781 L 447.515625 11.816406 L 447.515625 12.773438 L 451.714844 12.773438 L 451.714844 15.273438 L 452.867188 15.273438 L 452.867188 12.773438 L 454.390625 12.773438 Z M 451.695312 11.816406 L 448.121094 11.816406 L 451.695312 6.699219 Z M 451.695312 11.816406 "/>
<path style=" stroke:none;fill-rule:nonzero;fill:rgb(0%,0%,0%);fill-opacity:1;" d="M 461.511719 5.390625 L 455.984375 5.390625 L 455.105469 7.578125 L 455.359375 7.695312 C 456.003906 6.679688 456.277344 6.484375 457.097656 6.484375 L 460.339844 6.484375 L 457.390625 15.390625 L 458.347656 15.390625 L 461.511719 5.625 Z M 461.511719 5.390625 "/>
<path style=" stroke:none;fill-rule:nonzero;fill:rgb(0%,0%,0%);fill-opacity:1;" d="M 473.109375 13.222656 L 472.914062 13.144531 C 472.367188 14.003906 472.171875 14.140625 471.507812 14.140625 L 467.933594 14.140625 L 470.433594 11.503906 C 471.78125 10.117188 472.347656 8.984375 472.347656 7.8125 C 472.347656 6.328125 471.136719 5.175781 469.59375 5.175781 C 468.773438 5.175781 467.992188 5.507812 467.445312 6.09375 C 466.957031 6.601562 466.742188 7.089844 466.488281 8.144531 L 466.800781 8.222656 C 467.386719 6.757812 467.933594 6.269531 468.96875 6.269531 C 470.21875 6.269531 471.078125 7.128906 471.078125 8.378906 C 471.078125 9.550781 470.375 10.9375 469.125 12.265625 L 466.46875 15.097656 L 466.46875 15.273438 L 472.289062 15.273438 Z M 473.109375 13.222656 "/>
<path style=" stroke:none;fill-rule:nonzero;fill:rgb(0%,0%,0%);fill-opacity:1;" d="M 475.367188 13.789062 C 474.917969 13.789062 474.546875 14.160156 474.546875 14.628906 C 474.546875 15.058594 474.917969 15.429688 475.347656 15.429688 C 475.816406 15.429688 476.1875 15.058594 476.1875 14.628906 C 476.1875 14.160156 475.816406 13.789062 475.367188 13.789062 Z M 475.367188 13.789062 "/>
<path style=" stroke:none;fill-rule:nonzero;fill:rgb(0%,0%,0%);fill-opacity:1;" d="M 483.925781 5.390625 L 478.398438 5.390625 L 477.519531 7.578125 L 477.773438 7.695312 C 478.417969 6.679688 478.691406 6.484375 479.511719 6.484375 L 482.753906 6.484375 L 479.804688 15.390625 L 480.761719 15.390625 L 483.925781 5.625 Z M 483.925781 5.390625 "/>
<path style=" stroke:none;fill-rule:nonzero;fill:rgb(0%,0%,0%);fill-opacity:1;" d="M 491.789062 13.222656 L 491.59375 13.144531 C 491.046875 14.003906 490.851562 14.140625 490.1875 14.140625 L 486.613281 14.140625 L 489.113281 11.503906 C 490.460938 10.117188 491.027344 8.984375 491.027344 7.8125 C 491.027344 6.328125 489.816406 5.175781 488.273438 5.175781 C 487.453125 5.175781 486.671875 5.507812 486.125 6.09375 C 485.636719 6.601562 485.421875 7.089844 485.167969 8.144531 L 485.480469 8.222656 C 486.066406 6.757812 486.613281 6.269531 487.648438 6.269531 C 488.898438 6.269531 489.757812 7.128906 489.757812 8.378906 C 489.757812 9.550781 489.054688 10.9375 487.804688 12.265625 L 485.148438 15.097656 L 485.148438 15.273438 L 490.96875 15.273438 Z M 491.789062 13.222656 "/>
<path style=" stroke:none;fill-rule:nonzero;fill:rgb(0%,0%,0%);fill-opacity:1;" d="M 497.785156 13.789062 C 497.335938 13.789062 496.964844 14.160156 496.964844 14.628906 C 496.964844 15.058594 497.335938 15.429688 497.765625 15.429688 C 498.234375 15.429688 498.605469 15.058594 498.605469 14.628906 C 498.605469 14.160156 498.234375 13.789062 497.785156 13.789062 Z M 497.785156 13.789062 "/>
<path style=" stroke:none;fill-rule:nonzero;fill:rgb(0%,0%,0%);fill-opacity:1;" d="M 506.734375 13.222656 L 506.539062 13.144531 C 505.992188 14.003906 505.796875 14.140625 505.132812 14.140625 L 501.558594 14.140625 L 504.058594 11.503906 C 505.40625 10.117188 505.972656 8.984375 505.972656 7.8125 C 505.972656 6.328125 504.761719 5.175781 503.21875 5.175781 C 502.398438 5.175781 501.617188 5.507812 501.070312 6.09375 C 500.582031 6.601562 500.367188 7.089844 500.113281 8.144531 L 500.425781 8.222656 C 501.011719 6.757812 501.558594 6.269531 502.59375 6.269531 C 503.84375 6.269531 504.703125 7.128906 504.703125 8.378906 C 504.703125 9.550781 504 10.9375 502.75 12.265625 L 500.09375 15.097656 L 500.09375 15.273438 L 505.914062 15.273438 Z M 506.734375 13.222656 "/>
<path style=" stroke:none;fill-rule:nonzero;fill:rgb(0%,0%,0%);fill-opacity:1;" d="M 511.472656 5.175781 L 508.777344 6.523438 L 508.777344 6.738281 C 508.953125 6.660156 509.128906 6.601562 509.1875 6.582031 C 509.441406 6.464844 509.695312 6.40625 509.851562 6.40625 C 510.164062 6.40625 510.300781 6.640625 510.300781 7.109375 L 510.300781 13.886719 C 510.300781 14.375 510.183594 14.726562 509.949219 14.863281 C 509.714844 14.980469 509.5 15.039062 508.875 15.058594 L 508.875 15.273438 L 512.996094 15.273438 L 512.996094 15.058594 C 511.824219 15.039062 511.589844 14.882812 511.589844 14.160156 L 511.589844 5.195312 Z M 511.472656 5.175781 "/>
<path style=" stroke:none;fill-rule:nonzero;fill:rgb(0%,0%,0%);fill-opacity:1;" d="M 518.945312 5.175781 L 516.25 6.523438 L 516.25 6.738281 C 516.425781 6.660156 516.601562 6.601562 516.660156 6.582031 C 516.914062 6.464844 517.167969 6.40625 517.324219 6.40625 C 517.636719 6.40625 517.773438 6.640625 517.773438 7.109375 L 517.773438 13.886719 C 517.773438 14.375 517.65625 14.726562 517.421875 14.863281 C 517.1875 14.980469 516.972656 15.039062 516.347656 15.058594 L 516.347656 15.273438 L 520.46875 15.273438 L 520.46875 15.058594 C 519.296875 15.039062 519.0625 14.882812 519.0625 14.160156 L 519.0625 5.195312 Z M 518.945312 5.175781 "/>
<path style=" stroke:none;fill-rule:nonzero;fill:rgb(0%,0%,0%);fill-opacity:1;" d="M 524.753906 6.5625 L 527.683594 6.5625 C 527.9375 6.5625 527.996094 6.523438 528.035156 6.425781 L 528.601562 5.097656 L 528.464844 5 C 528.25 5.3125 528.09375 5.390625 527.78125 5.390625 L 524.65625 5.390625 L 523.035156 8.925781 C 523.015625 8.945312 523.015625 8.964844 523.015625 9.003906 C 523.015625 9.082031 523.074219 9.121094 523.191406 9.121094 C 523.679688 9.121094 524.265625 9.21875 524.890625 9.414062 C 526.609375 9.960938 527.390625 10.898438 527.390625 12.382812 C 527.390625 13.808594 526.472656 14.921875 525.320312 14.921875 C 525.007812 14.921875 524.753906 14.824219 524.324219 14.492188 C 523.835938 14.160156 523.484375 14.003906 523.171875 14.003906 C 522.742188 14.003906 522.527344 14.179688 522.527344 14.550781 C 522.527344 15.117188 523.230469 15.488281 524.363281 15.488281 C 525.613281 15.488281 526.6875 15.078125 527.429688 14.316406 C 528.132812 13.652344 528.445312 12.792969 528.445312 11.660156 C 528.445312 10.585938 528.152344 9.902344 527.410156 9.140625 C 526.746094 8.496094 525.90625 8.144531 524.128906 7.832031 Z M 524.753906 6.5625 "/>
<path style=" stroke:none;fill-rule:nonzero;fill:rgb(0%,0%,0%);fill-opacity:1;" d="M 540.359375 13.222656 L 540.164062 13.144531 C 539.617188 14.003906 539.421875 14.140625 538.757812 14.140625 L 535.183594 14.140625 L 537.683594 11.503906 C 539.03125 10.117188 539.597656 8.984375 539.597656 7.8125 C 539.597656 6.328125 538.386719 5.175781 536.84375 5.175781 C 536.023438 5.175781 535.242188 5.507812 534.695312 6.09375 C 534.207031 6.601562 533.992188 7.089844 533.738281 8.144531 L 534.050781 8.222656 C 534.636719 6.757812 535.183594 6.269531 536.21875 6.269531 C 537.46875 6.269531 538.328125 7.128906 538.328125 8.378906 C 538.328125 9.550781 537.625 10.9375 536.375 12.265625 L 533.71875 15.097656 L 533.71875 15.273438 L 539.539062 15.273438 Z M 540.359375 13.222656 "/>
<path style=" stroke:none;fill-rule:nonzero;fill:rgb(0%,0%,0%);fill-opacity:1;" d="M 542.617188 13.789062 C 542.167969 13.789062 541.796875 14.160156 541.796875 14.628906 C 541.796875 15.058594 542.167969 15.429688 542.597656 15.429688 C 543.066406 15.429688 543.4375 15.058594 543.4375 14.628906 C 543.4375 14.160156 543.066406 13.789062 542.617188 13.789062 Z M 542.617188 13.789062 "/>
<path style=" stroke:none;fill-rule:nonzero;fill:rgb(0%,0%,0%);fill-opacity:1;" d="M 551.136719 5.058594 C 549.4375 5.195312 548.578125 5.488281 547.484375 6.25 C 545.863281 7.402344 544.984375 9.101562 544.984375 11.113281 C 544.984375 12.402344 545.394531 13.710938 546.039062 14.472656 C 546.605469 15.117188 547.40625 15.488281 548.324219 15.488281 C 550.179688 15.488281 551.46875 14.0625 551.46875 11.992188 C 551.46875 10.097656 550.375 8.886719 548.65625 8.886719 C 548.011719 8.886719 547.679688 8.984375 546.742188 9.550781 C 547.152344 7.285156 548.832031 5.683594 551.175781 5.292969 Z M 548.089844 9.570312 C 549.378906 9.570312 550.121094 10.644531 550.121094 12.5 C 550.121094 14.160156 549.535156 15.058594 548.5 15.058594 C 547.171875 15.058594 546.371094 13.652344 546.371094 11.347656 C 546.371094 10.585938 546.488281 10.15625 546.800781 9.941406 C 547.113281 9.707031 547.5625 9.570312 548.089844 9.570312 Z M 548.089844 9.570312 "/>
<path style=" stroke:none;fill-rule:nonzero;fill:rgb(0%,0%,0%);fill-opacity:1;" d="M 556.285156 9.726562 C 557.769531 8.945312 558.277344 8.320312 558.277344 7.285156 C 558.277344 6.074219 557.203125 5.175781 555.71875 5.175781 C 554.078125 5.175781 552.867188 6.171875 552.867188 7.539062 C 552.867188 8.496094 553.160156 8.945312 554.722656 10.3125 C 553.121094 11.542969 552.789062 11.992188 552.789062 13.007812 C 552.789062 14.472656 553.960938 15.488281 555.660156 15.488281 C 557.457031 15.488281 558.589844 14.492188 558.589844 12.949219 C 558.589844 11.816406 558.082031 11.074219 556.285156 9.726562 Z M 556.011719 11.269531 C 557.105469 12.050781 557.457031 12.578125 557.457031 13.417969 C 557.457031 14.394531 556.792969 15.058594 555.816406 15.058594 C 554.683594 15.058594 553.921875 14.199219 553.921875 12.890625 C 553.921875 11.933594 554.253906 11.308594 555.113281 10.605469 Z M 555.855469 9.453125 C 554.527344 8.59375 553.980469 7.910156 553.980469 7.070312 C 553.980469 6.210938 554.644531 5.585938 555.601562 5.585938 C 556.617188 5.585938 557.261719 6.25 557.261719 7.285156 C 557.261719 8.125 556.832031 8.808594 555.992188 9.375 C 555.914062 9.414062 555.914062 9.414062 555.855469 9.453125 Z M 555.855469 9.453125 "/>
<path style=" stroke:none;fill-rule:nonzero;fill:rgb(0%,0%,0%);fill-opacity:1;" d="M 565.03125 13.789062 C 564.582031 13.789062 564.210938 14.160156 564.210938 14.628906 C 564.210938 15.058594 564.582031 15.429688 565.011719 15.429688 C 565.480469 15.429688 565.851562 15.058594 565.851562 14.628906 C 565.851562 14.160156 565.480469 13.789062 565.03125 13.789062 Z M 565.03125 13.789062 "/>
<path style=" stroke:none;fill-rule:nonzero;fill:rgb(0%,0%,0%);fill-opacity:1;" d="M 569.175781 10.351562 C 570.054688 10.351562 570.40625 10.371094 570.757812 10.507812 C 571.695312 10.839844 572.261719 11.679688 572.261719 12.714844 C 572.261719 13.964844 571.421875 14.941406 570.308594 14.941406 C 569.917969 14.941406 569.605469 14.84375 569.058594 14.472656 C 568.609375 14.21875 568.355469 14.101562 568.101562 14.101562 C 567.75 14.101562 567.535156 14.316406 567.535156 14.628906 C 567.535156 15.15625 568.179688 15.488281 569.214844 15.488281 C 570.367188 15.488281 571.558594 15.097656 572.261719 14.472656 C 572.964844 13.867188 573.335938 13.007812 573.335938 11.992188 C 573.335938 11.230469 573.101562 10.527344 572.671875 10.078125 C 572.378906 9.746094 572.085938 9.570312 571.441406 9.277344 C 572.457031 8.574219 572.828125 8.027344 572.828125 7.226562 C 572.828125 6.015625 571.890625 5.175781 570.503906 5.175781 C 569.761719 5.175781 569.097656 5.429688 568.570312 5.898438 C 568.121094 6.308594 567.886719 6.699219 567.554688 7.597656 L 567.789062 7.65625 C 568.394531 6.5625 569.078125 6.074219 570.015625 6.074219 C 570.992188 6.074219 571.65625 6.71875 571.65625 7.675781 C 571.65625 8.203125 571.441406 8.75 571.050781 9.121094 C 570.601562 9.570312 570.191406 9.785156 569.175781 10.15625 Z M 569.175781 10.351562 "/>
<path style=" stroke:none;fill-rule:nonzero;fill:rgb(0%,0%,0%);fill-opacity:1;" d="M 581.414062 11.816406 L 579.890625 11.816406 L 579.890625 5.175781 L 579.226562 5.175781 L 574.539062 11.816406 L 574.539062 12.773438 L 578.738281 12.773438 L 578.738281 15.273438 L 579.890625 15.273438 L 579.890625 12.773438 L 581.414062 12.773438 Z M 578.71875 11.816406 L 575.144531 11.816406 L 578.71875 6.699219 Z M 578.71875 11.816406 "/>
<path style=" stroke:none;fill-rule:nonzero;fill:rgb(0%,0%,0%);fill-opacity:1;" d="M 588.886719 11.816406 L 587.363281 11.816406 L 587.363281 5.175781 L 586.699219 5.175781 L 582.011719 11.816406 L 582.011719 12.773438 L 586.210938 12.773438 L 586.210938 15.273438 L 587.363281 15.273438 L 587.363281 12.773438 L 588.886719 12.773438 Z M 586.191406 11.816406 L 582.617188 11.816406 L 586.191406 6.699219 Z M 586.191406 11.816406 "/>
<path style=" stroke:none;fill-rule:nonzero;fill:rgb(0%,0%,0%);fill-opacity:1;" d="M 591.59375 10.351562 C 592.472656 10.351562 592.824219 10.371094 593.175781 10.507812 C 594.113281 10.839844 594.679688 11.679688 594.679688 12.714844 C 594.679688 13.964844 593.839844 14.941406 592.726562 14.941406 C 592.335938 14.941406 592.023438 14.84375 591.476562 14.472656 C 591.027344 14.21875 590.773438 14.101562 590.519531 14.101562 C 590.167969 14.101562 589.953125 14.316406 589.953125 14.628906 C 589.953125 15.15625 590.597656 15.488281 591.632812 15.488281 C 592.785156 15.488281 593.976562 15.097656 594.679688 14.472656 C 595.382812 13.867188 595.753906 13.007812 595.753906 11.992188 C 595.753906 11.230469 595.519531 10.527344 595.089844 10.078125 C 594.796875 9.746094 594.503906 9.570312 593.859375 9.277344 C 594.875 8.574219 595.246094 8.027344 595.246094 7.226562 C 595.246094 6.015625 594.308594 5.175781 592.921875 5.175781 C 592.179688 5.175781 591.515625 5.429688 590.988281 5.898438 C 590.539062 6.308594 590.304688 6.699219 589.972656 7.597656 L 590.207031 7.65625 C 590.8125 6.5625 591.496094 6.074219 592.433594 6.074219 C 593.410156 6.074219 594.074219 6.71875 594.074219 7.675781 C 594.074219 8.203125 593.859375 8.75 593.46875 9.121094 C 593.019531 9.570312 592.609375 9.785156 591.59375 10.15625 Z M 591.59375 10.351562 "/>
<path style=" stroke:none;fill-rule:nonzero;fill:rgb(0%,0%,0%);fill-opacity:1;" d="M 607.605469 13.222656 L 607.410156 13.144531 C 606.863281 14.003906 606.667969 14.140625 606.003906 14.140625 L 602.429688 14.140625 L 604.929688 11.503906 C 606.277344 10.117188 606.84375 8.984375 606.84375 7.8125 C 606.84375 6.328125 605.632812 5.175781 604.089844 5.175781 C 603.269531 5.175781 602.488281 5.507812 601.941406 6.09375 C 601.453125 6.601562 601.238281 7.089844 600.984375 8.144531 L 601.296875 8.222656 C 601.882812 6.757812 602.429688 6.269531 603.464844 6.269531 C 604.714844 6.269531 605.574219 7.128906 605.574219 8.378906 C 605.574219 9.550781 604.871094 10.9375 603.621094 12.265625 L 600.964844 15.097656 L 600.964844 15.273438 L 606.785156 15.273438 Z M 607.605469 13.222656 "/>
<path style=" stroke:none;fill-rule:nonzero;fill:rgb(0%,0%,0%);fill-opacity:1;" d="M 609.863281 13.789062 C 609.414062 13.789062 609.042969 14.160156 609.042969 14.628906 C 609.042969 15.058594 609.414062 15.429688 609.84375 15.429688 C 610.3125 15.429688 610.683594 15.058594 610.683594 14.628906 C 610.683594 14.160156 610.3125 13.789062 609.863281 13.789062 Z M 609.863281 13.789062 "/>
<path style=" stroke:none;fill-rule:nonzero;fill:rgb(0%,0%,0%);fill-opacity:1;" d="M 618.382812 5.058594 C 616.683594 5.195312 615.824219 5.488281 614.730469 6.25 C 613.109375 7.402344 612.230469 9.101562 612.230469 11.113281 C 612.230469 12.402344 612.640625 13.710938 613.285156 14.472656 C 613.851562 15.117188 614.652344 15.488281 615.570312 15.488281 C 617.425781 15.488281 618.714844 14.0625 618.714844 11.992188 C 618.714844 10.097656 617.621094 8.886719 615.902344 8.886719 C 615.257812 8.886719 614.925781 8.984375 613.988281 9.550781 C 614.398438 7.285156 616.078125 5.683594 618.421875 5.292969 Z M 615.335938 9.570312 C 616.625 9.570312 617.367188 10.644531 617.367188 12.5 C 617.367188 14.160156 616.78125 15.058594 615.746094 15.058594 C 614.417969 15.058594 613.617188 13.652344 613.617188 11.347656 C 613.617188 10.585938 613.734375 10.15625 614.046875 9.941406 C 614.359375 9.707031 614.808594 9.570312 615.335938 9.570312 Z M 615.335938 9.570312 "/>
<path style=" stroke:none;fill-rule:nonzero;fill:rgb(0%,0%,0%);fill-opacity:1;" d="M 626.246094 11.816406 L 624.722656 11.816406 L 624.722656 5.175781 L 624.058594 5.175781 L 619.371094 11.816406 L 619.371094 12.773438 L 623.570312 12.773438 L 623.570312 15.273438 L 624.722656 15.273438 L 624.722656 12.773438 L 626.246094 12.773438 Z M 623.550781 11.816406 L 619.976562 11.816406 L 623.550781 6.699219 Z M 623.550781 11.816406 "/>
<path style=" stroke:none;fill-rule:nonzero;fill:rgb(0%,0%,0%);fill-opacity:1;" d="M 632.28125 13.789062 C 631.832031 13.789062 631.460938 14.160156 631.460938 14.628906 C 631.460938 15.058594 631.832031 15.429688 632.261719 15.429688 C 632.730469 15.429688 633.101562 15.058594 633.101562 14.628906 C 633.101562 14.160156 632.730469 13.789062 632.28125 13.789062 Z M 632.28125 13.789062 "/>
<path style=" stroke:none;fill-rule:nonzero;fill:rgb(0%,0%,0%);fill-opacity:1;" d="M 641.191406 11.816406 L 639.667969 11.816406 L 639.667969 5.175781 L 639.003906 5.175781 L 634.316406 11.816406 L 634.316406 12.773438 L 638.515625 12.773438 L 638.515625 15.273438 L 639.667969 15.273438 L 639.667969 12.773438 L 641.191406 12.773438 Z M 638.496094 11.816406 L 634.921875 11.816406 L 638.496094 6.699219 Z M 638.496094 11.816406 "/>
<path style=" stroke:none;fill-rule:nonzero;fill:rgb(0%,0%,0%);fill-opacity:1;" d="M 642.492188 15.605469 C 644.171875 15.410156 644.992188 15.117188 646.007812 14.394531 C 647.550781 13.261719 648.46875 11.40625 648.46875 9.394531 C 648.46875 6.914062 647.101562 5.175781 645.167969 5.175781 C 643.390625 5.175781 642.0625 6.679688 642.0625 8.691406 C 642.0625 10.527344 643.136719 11.738281 644.757812 11.738281 C 645.578125 11.738281 646.203125 11.484375 646.984375 10.878906 C 646.378906 13.320312 644.71875 14.921875 642.453125 15.3125 Z M 647.023438 9.960938 C 647.023438 10.273438 646.964844 10.410156 646.789062 10.527344 C 646.378906 10.898438 645.832031 11.09375 645.285156 11.09375 C 644.152344 11.09375 643.429688 9.960938 643.429688 8.183594 C 643.429688 7.34375 643.683594 6.445312 643.996094 6.054688 C 644.25 5.761719 644.621094 5.585938 645.050781 5.585938 C 646.359375 5.585938 647.023438 6.875 647.023438 9.394531 Z M 647.023438 9.960938 "/>
<path style=" stroke:none;fill-rule:nonzero;fill:rgb(0%,0%,0%);fill-opacity:1;" d="M 649.964844 15.605469 C 651.644531 15.410156 652.464844 15.117188 653.480469 14.394531 C 655.023438 13.261719 655.941406 11.40625 655.941406 9.394531 C 655.941406 6.914062 654.574219 5.175781 652.640625 5.175781 C 650.863281 5.175781 649.535156 6.679688 649.535156 8.691406 C 649.535156 10.527344 650.609375 11.738281 652.230469 11.738281 C 653.050781 11.738281 653.675781 11.484375 654.457031 10.878906 C 653.851562 13.320312 652.191406 14.921875 649.925781 15.3125 Z M 654.496094 9.960938 C 654.496094 10.273438 654.4375 10.410156 654.261719 10.527344 C 653.851562 10.898438 653.304688 11.09375 652.757812 11.09375 C 651.625 11.09375 650.902344 9.960938 650.902344 8.183594 C 650.902344 7.34375 651.15625 6.445312 651.46875 6.054688 C 651.722656 5.761719 652.09375 5.585938 652.523438 5.585938 C 653.832031 5.585938 654.496094 6.875 654.496094 9.394531 Z M 654.496094 9.960938 "/>
<path style=" stroke:none;fill-rule:nonzero;fill:rgb(0%,0%,0%);fill-opacity:1;" d="M 660.890625 9.726562 C 662.375 8.945312 662.882812 8.320312 662.882812 7.285156 C 662.882812 6.074219 661.808594 5.175781 660.324219 5.175781 C 658.683594 5.175781 657.472656 6.171875 657.472656 7.539062 C 657.472656 8.496094 657.765625 8.945312 659.328125 10.3125 C 657.726562 11.542969 657.394531 11.992188 657.394531 13.007812 C 657.394531 14.472656 658.566406 15.488281 660.265625 15.488281 C 662.0625 15.488281 663.195312 14.492188 663.195312 12.949219 C 663.195312 11.816406 662.6875 11.074219 660.890625 9.726562 Z M 660.617188 11.269531 C 661.710938 12.050781 662.0625 12.578125 662.0625 13.417969 C 662.0625 14.394531 661.398438 15.058594 660.421875 15.058594 C 659.289062 15.058594 658.527344 14.199219 658.527344 12.890625 C 658.527344 11.933594 658.859375 11.308594 659.71875 10.605469 Z M 660.460938 9.453125 C 659.132812 8.59375 658.585938 7.910156 658.585938 7.070312 C 658.585938 6.210938 659.25 5.585938 660.207031 5.585938 C 661.222656 5.585938 661.867188 6.25 661.867188 7.285156 C 661.867188 8.125 661.4375 8.808594 660.597656 9.375 C 660.519531 9.414062 660.519531 9.414062 660.460938 9.453125 Z M 660.460938 9.453125 "/>
</g>
</svg>
