<?xml version="1.0" encoding="UTF-8"?>
<svg xmlns="http://www.w3.org/2000/svg" xmlns:xlink="http://www.w3.org/1999/xlink" width="672.93307pt" height="20.605469pt" viewBox="0 0 672.93307 20.605469" version="1.1">
<g id="surface465">
<path style=" stroke:none;fill-rule:nonzero;fill:rgb(0%,0%,0%);fill-opacity:1;" d="M 5 11.425781 L 5 12.382812 L 8.671875 12.382812 L 8.671875 11.425781 Z M 5 11.425781 "/>
<path style=" stroke:none;fill-rule:nonzero;fill:rgb(0%,0%,0%);fill-opacity:1;" d="M 13.746094 5.175781 L 11.050781 6.523438 L 11.050781 6.738281 C 11.226562 6.660156 11.402344 6.601562 11.460938 6.582031 C 11.714844 6.464844 11.96875 6.40625 12.125 6.40625 C 12.4375 6.40625 12.574219 6.640625 12.574219 7.109375 L 12.574219 13.886719 C 12.574219 14.375 12.457031 14.726562 12.222656 14.863281 C 11.988281 14.980469 11.773438 15.039062 11.148438 15.058594 L 11.148438 15.273438 L 15.269531 15.273438 L 15.269531 15.058594 C 14.097656 15.039062 13.863281 14.882812 13.863281 14.160156 L 13.863281 5.195312 Z M 13.746094 5.175781 "/>
<path style=" stroke:none;fill-rule:nonzero;fill:rgb(0%,0%,0%);fill-opacity:1;" d="M 18.738281 13.789062 C 18.289062 13.789062 17.917969 14.160156 17.917969 14.628906 C 17.917969 15.058594 18.289062 15.429688 18.71875 15.429688 C 19.1875 15.429688 19.558594 15.058594 19.558594 14.628906 C 19.558594 14.160156 19.1875 13.789062 18.738281 13.789062 Z M 18.738281 13.789062 "/>
<path style=" stroke:none;fill-rule:nonzero;fill:rgb(0%,0%,0%);fill-opacity:1;" d="M 27.648438 11.816406 L 26.125 11.816406 L 26.125 5.175781 L 25.460938 5.175781 L 20.773438 11.816406 L 20.773438 12.773438 L 24.972656 12.773438 L 24.972656 15.273438 L 26.125 15.273438 L 26.125 12.773438 L 27.648438 12.773438 Z M 24.953125 11.816406 L 21.378906 11.816406 L 24.953125 6.699219 Z M 24.953125 11.816406 "/>
<path style=" stroke:none;fill-rule:nonzero;fill:rgb(0%,0%,0%);fill-opacity:1;" d="M 32.390625 11.425781 L 32.390625 12.382812 L 36.0625 12.382812 L 36.0625 11.425781 Z M 32.390625 11.425781 "/>
<path style=" stroke:none;fill-rule:nonzero;fill:rgb(0%,0%,0%);fill-opacity:1;" d="M 39.476562 6.5625 L 42.40625 6.5625 C 42.660156 6.5625 42.71875 6.523438 42.757812 6.425781 L 43.324219 5.097656 L 43.1875 5 C 42.972656 5.3125 42.816406 5.390625 42.503906 5.390625 L 39.378906 5.390625 L 37.757812 8.925781 C 37.738281 8.945312 37.738281 8.964844 37.738281 9.003906 C 37.738281 9.082031 37.796875 9.121094 37.914062 9.121094 C 38.402344 9.121094 38.988281 9.21875 39.613281 9.414062 C 41.332031 9.960938 42.113281 10.898438 42.113281 12.382812 C 42.113281 13.808594 41.195312 14.921875 40.042969 14.921875 C 39.730469 14.921875 39.476562 14.824219 39.046875 14.492188 C 38.558594 14.160156 38.207031 14.003906 37.894531 14.003906 C 37.464844 14.003906 37.25 14.179688 37.25 14.550781 C 37.25 15.117188 37.953125 15.488281 39.085938 15.488281 C 40.335938 15.488281 41.410156 15.078125 42.152344 14.316406 C 42.855469 13.652344 43.167969 12.792969 43.167969 11.660156 C 43.167969 10.585938 42.875 9.902344 42.132812 9.140625 C 41.46875 8.496094 40.628906 8.144531 38.851562 7.832031 Z M 39.476562 6.5625 "/>
<path style=" stroke:none;fill-rule:nonzero;fill:rgb(0%,0%,0%);fill-opacity:1;" d="M 46.128906 13.789062 C 45.679688 13.789062 45.308594 14.160156 45.308594 14.628906 C 45.308594 15.058594 45.679688 15.429688 46.109375 15.429688 C 46.578125 15.429688 46.949219 15.058594 46.949219 14.628906 C 46.949219 14.160156 46.578125 13.789062 46.128906 13.789062 Z M 46.128906 13.789062 "/>
<path style=" stroke:none;fill-rule:nonzero;fill:rgb(0%,0%,0%);fill-opacity:1;" d="M 55.082031 13.222656 L 54.886719 13.144531 C 54.339844 14.003906 54.144531 14.140625 53.480469 14.140625 L 49.90625 14.140625 L 52.40625 11.503906 C 53.753906 10.117188 54.320312 8.984375 54.320312 7.8125 C 54.320312 6.328125 53.109375 5.175781 51.566406 5.175781 C 50.746094 5.175781 49.964844 5.507812 49.417969 6.09375 C 48.929688 6.601562 48.714844 7.089844 48.460938 8.144531 L 48.773438 8.222656 C 49.359375 6.757812 49.90625 6.269531 50.941406 6.269531 C 52.191406 6.269531 53.050781 7.128906 53.050781 8.378906 C 53.050781 9.550781 52.347656 10.9375 51.097656 12.265625 L 48.441406 15.097656 L 48.441406 15.273438 L 54.261719 15.273438 Z M 55.082031 13.222656 "/>
<path style=" stroke:none;fill-rule:nonzero;fill:rgb(0%,0%,0%);fill-opacity:1;" d="M 62.121094 5.058594 C 60.421875 5.195312 59.5625 5.488281 58.46875 6.25 C 56.847656 7.402344 55.96875 9.101562 55.96875 11.113281 C 55.96875 12.402344 56.378906 13.710938 57.023438 14.472656 C 57.589844 15.117188 58.390625 15.488281 59.308594 15.488281 C 61.164062 15.488281 62.453125 14.0625 62.453125 11.992188 C 62.453125 10.097656 61.359375 8.886719 59.640625 8.886719 C 58.996094 8.886719 58.664062 8.984375 57.726562 9.550781 C 58.136719 7.285156 59.816406 5.683594 62.160156 5.292969 Z M 59.074219 9.570312 C 60.363281 9.570312 61.105469 10.644531 61.105469 12.5 C 61.105469 14.160156 60.519531 15.058594 59.484375 15.058594 C 58.15625 15.058594 57.355469 13.652344 57.355469 11.347656 C 57.355469 10.585938 57.472656 10.15625 57.785156 9.941406 C 58.097656 9.707031 58.546875 9.570312 59.074219 9.570312 Z M 59.074219 9.570312 "/>
<path style=" stroke:none;fill-rule:nonzero;fill:rgb(0%,0%,0%);fill-opacity:1;" d="M 65.21875 10.351562 C 66.097656 10.351562 66.449219 10.371094 66.800781 10.507812 C 67.738281 10.839844 68.304688 11.679688 68.304688 12.714844 C 68.304688 13.964844 67.464844 14.941406 66.351562 14.941406 C 65.960938 14.941406 65.648438 14.84375 65.101562 14.472656 C 64.652344 14.21875 64.398438 14.101562 64.144531 14.101562 C 63.792969 14.101562 63.578125 14.316406 63.578125 14.628906 C 63.578125 15.15625 64.222656 15.488281 65.257812 15.488281 C 66.410156 15.488281 67.601562 15.097656 68.304688 14.472656 C 69.007812 13.867188 69.378906 13.007812 69.378906 11.992188 C 69.378906 11.230469 69.144531 10.527344 68.714844 10.078125 C 68.421875 9.746094 68.128906 9.570312 67.484375 9.277344 C 68.5 8.574219 68.871094 8.027344 68.871094 7.226562 C 68.871094 6.015625 67.933594 5.175781 66.546875 5.175781 C 65.804688 5.175781 65.140625 5.429688 64.613281 5.898438 C 64.164062 6.308594 63.929688 6.699219 63.597656 7.597656 L 63.832031 7.65625 C 64.4375 6.5625 65.121094 6.074219 66.058594 6.074219 C 67.035156 6.074219 67.699219 6.71875 67.699219 7.675781 C 67.699219 8.203125 67.484375 8.75 67.09375 9.121094 C 66.644531 9.570312 66.234375 9.785156 65.21875 10.15625 Z M 65.21875 10.351562 "/>
<path style=" stroke:none;fill-rule:nonzero;fill:rgb(0%,0%,0%);fill-opacity:1;" d="M 74.730469 11.425781 L 74.730469 12.382812 L 78.402344 12.382812 L 78.402344 11.425781 Z M 74.730469 11.425781 "/>
<path style=" stroke:none;fill-rule:nonzero;fill:rgb(0%,0%,0%);fill-opacity:1;" d="M 83.472656 5.175781 L 80.777344 6.523438 L 80.777344 6.738281 C 80.953125 6.660156 81.128906 6.601562 81.1875 6.582031 C 81.441406 6.464844 81.695312 6.40625 81.851562 6.40625 C 82.164062 6.40625 82.300781 6.640625 82.300781 7.109375 L 82.300781 13.886719 C 82.300781 14.375 82.183594 14.726562 81.949219 14.863281 C 81.714844 14.980469 81.5 15.039062 80.875 15.058594 L 80.875 15.273438 L 84.996094 15.273438 L 84.996094 15.058594 C 83.824219 15.039062 83.589844 14.882812 83.589844 14.160156 L 83.589844 5.195312 Z M 83.472656 5.175781 "/>
<path style=" stroke:none;fill-rule:nonzero;fill:rgb(0%,0%,0%);fill-opacity:1;" d="M 88.464844 13.789062 C 88.015625 13.789062 87.644531 14.160156 87.644531 14.628906 C 87.644531 15.058594 88.015625 15.429688 88.445312 15.429688 C 88.914062 15.429688 89.285156 15.058594 89.285156 14.628906 C 89.285156 14.160156 88.914062 13.789062 88.464844 13.789062 Z M 88.464844 13.789062 "/>
<path style=" stroke:none;fill-rule:nonzero;fill:rgb(0%,0%,0%);fill-opacity:1;" d="M 92.613281 10.351562 C 93.492188 10.351562 93.84375 10.371094 94.195312 10.507812 C 95.132812 10.839844 95.699219 11.679688 95.699219 12.714844 C 95.699219 13.964844 94.859375 14.941406 93.746094 14.941406 C 93.355469 14.941406 93.042969 14.84375 92.496094 14.472656 C 92.046875 14.21875 91.792969 14.101562 91.539062 14.101562 C 91.1875 14.101562 90.972656 14.316406 90.972656 14.628906 C 90.972656 15.15625 91.617188 15.488281 92.652344 15.488281 C 93.804688 15.488281 94.996094 15.097656 95.699219 14.472656 C 96.402344 13.867188 96.773438 13.007812 96.773438 11.992188 C 96.773438 11.230469 96.539062 10.527344 96.109375 10.078125 C 95.816406 9.746094 95.523438 9.570312 94.878906 9.277344 C 95.894531 8.574219 96.265625 8.027344 96.265625 7.226562 C 96.265625 6.015625 95.328125 5.175781 93.941406 5.175781 C 93.199219 5.175781 92.535156 5.429688 92.007812 5.898438 C 91.558594 6.308594 91.324219 6.699219 90.992188 7.597656 L 91.226562 7.65625 C 91.832031 6.5625 92.515625 6.074219 93.453125 6.074219 C 94.429688 6.074219 95.09375 6.71875 95.09375 7.675781 C 95.09375 8.203125 94.878906 8.75 94.488281 9.121094 C 94.039062 9.570312 93.628906 9.785156 92.613281 10.15625 Z M 92.613281 10.351562 "/>
<path style=" stroke:none;fill-rule:nonzero;fill:rgb(0%,0%,0%);fill-opacity:1;" d="M 102.121094 11.425781 L 102.121094 12.382812 L 105.792969 12.382812 L 105.792969 11.425781 Z M 102.121094 11.425781 "/>
<path style=" stroke:none;fill-rule:nonzero;fill:rgb(0%,0%,0%);fill-opacity:1;" d="M 113.601562 13.222656 L 113.40625 13.144531 C 112.859375 14.003906 112.664062 14.140625 112 14.140625 L 108.425781 14.140625 L 110.925781 11.503906 C 112.273438 10.117188 112.839844 8.984375 112.839844 7.8125 C 112.839844 6.328125 111.628906 5.175781 110.085938 5.175781 C 109.265625 5.175781 108.484375 5.507812 107.9375 6.09375 C 107.449219 6.601562 107.234375 7.089844 106.980469 8.144531 L 107.292969 8.222656 C 107.878906 6.757812 108.425781 6.269531 109.460938 6.269531 C 110.710938 6.269531 111.570312 7.128906 111.570312 8.378906 C 111.570312 9.550781 110.867188 10.9375 109.617188 12.265625 L 106.960938 15.097656 L 106.960938 15.273438 L 112.78125 15.273438 Z M 113.601562 13.222656 "/>
<path style=" stroke:none;fill-rule:nonzero;fill:rgb(0%,0%,0%);fill-opacity:1;" d="M 115.859375 13.789062 C 115.410156 13.789062 115.039062 14.160156 115.039062 14.628906 C 115.039062 15.058594 115.410156 15.429688 115.839844 15.429688 C 116.308594 15.429688 116.679688 15.058594 116.679688 14.628906 C 116.679688 14.160156 116.308594 13.789062 115.859375 13.789062 Z M 115.859375 13.789062 "/>
<path style=" stroke:none;fill-rule:nonzero;fill:rgb(0%,0%,0%);fill-opacity:1;" d="M 124.417969 5.390625 L 118.890625 5.390625 L 118.011719 7.578125 L 118.265625 7.695312 C 118.910156 6.679688 119.183594 6.484375 120.003906 6.484375 L 123.246094 6.484375 L 120.296875 15.390625 L 121.253906 15.390625 L 124.417969 5.625 Z M 124.417969 5.390625 "/>
<path style=" stroke:none;fill-rule:nonzero;fill:rgb(0%,0%,0%);fill-opacity:1;" d="M 131.890625 5.390625 L 126.363281 5.390625 L 125.484375 7.578125 L 125.738281 7.695312 C 126.382812 6.679688 126.65625 6.484375 127.476562 6.484375 L 130.71875 6.484375 L 127.769531 15.390625 L 128.726562 15.390625 L 131.890625 5.625 Z M 131.890625 5.390625 "/>
<path style=" stroke:none;fill-rule:nonzero;fill:rgb(0%,0%,0%);fill-opacity:1;" d="M 137 9.726562 C 138.484375 8.945312 138.992188 8.320312 138.992188 7.285156 C 138.992188 6.074219 137.917969 5.175781 136.433594 5.175781 C 134.792969 5.175781 133.582031 6.171875 133.582031 7.539062 C 133.582031 8.496094 133.875 8.945312 135.4375 10.3125 C 133.835938 11.542969 133.503906 11.992188 133.503906 13.007812 C 133.503906 14.472656 134.675781 15.488281 136.375 15.488281 C 138.171875 15.488281 139.304688 14.492188 139.304688 12.949219 C 139.304688 11.816406 138.796875 11.074219 137 9.726562 Z M 136.726562 11.269531 C 137.820312 12.050781 138.171875 12.578125 138.171875 13.417969 C 138.171875 14.394531 137.507812 15.058594 136.53125 15.058594 C 135.398438 15.058594 134.636719 14.199219 134.636719 12.890625 C 134.636719 11.933594 134.96875 11.308594 135.828125 10.605469 Z M 136.570312 9.453125 C 135.242188 8.59375 134.695312 7.910156 134.695312 7.070312 C 134.695312 6.210938 135.359375 5.585938 136.316406 5.585938 C 137.332031 5.585938 137.976562 6.25 137.976562 7.285156 C 137.976562 8.125 137.546875 8.808594 136.707031 9.375 C 136.628906 9.414062 136.628906 9.414062 136.570312 9.453125 Z M 136.570312 9.453125 "/>
<path style=" stroke:none;fill-rule:nonzero;fill:rgb(0%,0%,0%);fill-opacity:1;" d="M 144.457031 11.425781 L 144.457031 12.382812 L 148.128906 12.382812 L 148.128906 11.425781 Z M 144.457031 11.425781 "/>
<path style=" stroke:none;fill-rule:nonzero;fill:rgb(0%,0%,0%);fill-opacity:1;" d="M 153.203125 5.175781 L 150.507812 6.523438 L 150.507812 6.738281 C 150.683594 6.660156 150.859375 6.601562 150.917969 6.582031 C 151.171875 6.464844 151.425781 6.40625 151.582031 6.40625 C 151.894531 6.40625 152.03125 6.640625 152.03125 7.109375 L 152.03125 13.886719 C 152.03125 14.375 151.914062 14.726562 151.679688 14.863281 C 151.445312 14.980469 151.230469 15.039062 150.605469 15.058594 L 150.605469 15.273438 L 154.726562 15.273438 L 154.726562 15.058594 C 153.554688 15.039062 153.320312 14.882812 153.320312 14.160156 L 153.320312 5.195312 Z M 153.203125 5.175781 "/>
<path style=" stroke:none;fill-rule:nonzero;fill:rgb(0%,0%,0%);fill-opacity:1;" d="M 158.195312 13.789062 C 157.746094 13.789062 157.375 14.160156 157.375 14.628906 C 157.375 15.058594 157.746094 15.429688 158.175781 15.429688 C 158.644531 15.429688 159.015625 15.058594 159.015625 14.628906 C 159.015625 14.160156 158.644531 13.789062 158.195312 13.789062 Z M 158.195312 13.789062 "/>
<path style=" stroke:none;fill-rule:nonzero;fill:rgb(0%,0%,0%);fill-opacity:1;" d="M 167.144531 13.222656 L 166.949219 13.144531 C 166.402344 14.003906 166.207031 14.140625 165.542969 14.140625 L 161.96875 14.140625 L 164.46875 11.503906 C 165.816406 10.117188 166.382812 8.984375 166.382812 7.8125 C 166.382812 6.328125 165.171875 5.175781 163.628906 5.175781 C 162.808594 5.175781 162.027344 5.507812 161.480469 6.09375 C 160.992188 6.601562 160.777344 7.089844 160.523438 8.144531 L 160.835938 8.222656 C 161.421875 6.757812 161.96875 6.269531 163.003906 6.269531 C 164.253906 6.269531 165.113281 7.128906 165.113281 8.378906 C 165.113281 9.550781 164.410156 10.9375 163.160156 12.265625 L 160.503906 15.097656 L 160.503906 15.273438 L 166.324219 15.273438 Z M 167.144531 13.222656 "/>
<path style=" stroke:none;fill-rule:nonzero;fill:rgb(0%,0%,0%);fill-opacity:1;" d="M 171.851562 11.425781 L 171.851562 12.382812 L 175.523438 12.382812 L 175.523438 11.425781 Z M 171.851562 11.425781 "/>
<path style=" stroke:none;fill-rule:nonzero;fill:rgb(0%,0%,0%);fill-opacity:1;" d="M 180.59375 5.175781 L 177.898438 6.523438 L 177.898438 6.738281 C 178.074219 6.660156 178.25 6.601562 178.308594 6.582031 C 178.5625 6.464844 178.816406 6.40625 178.972656 6.40625 C 179.285156 6.40625 179.421875 6.640625 179.421875 7.109375 L 179.421875 13.886719 C 179.421875 14.375 179.304688 14.726562 179.070312 14.863281 C 178.835938 14.980469 178.621094 15.039062 177.996094 15.058594 L 177.996094 15.273438 L 182.117188 15.273438 L 182.117188 15.058594 C 180.945312 15.039062 180.710938 14.882812 180.710938 14.160156 L 180.710938 5.195312 Z M 180.59375 5.175781 "/>
<path style=" stroke:none;fill-rule:nonzero;fill:rgb(0%,0%,0%);fill-opacity:1;" d="M 185.585938 13.789062 C 185.136719 13.789062 184.765625 14.160156 184.765625 14.628906 C 184.765625 15.058594 185.136719 15.429688 185.566406 15.429688 C 186.035156 15.429688 186.40625 15.058594 186.40625 14.628906 C 186.40625 14.160156 186.035156 13.789062 185.585938 13.789062 Z M 185.585938 13.789062 "/>
<path style=" stroke:none;fill-rule:nonzero;fill:rgb(0%,0%,0%);fill-opacity:1;" d="M 188.328125 15.605469 C 190.007812 15.410156 190.828125 15.117188 191.84375 14.394531 C 193.386719 13.261719 194.304688 11.40625 194.304688 9.394531 C 194.304688 6.914062 192.9375 5.175781 191.003906 5.175781 C 189.226562 5.175781 187.898438 6.679688 187.898438 8.691406 C 187.898438 10.527344 188.972656 11.738281 190.59375 11.738281 C 191.414062 11.738281 192.039062 11.484375 192.820312 10.878906 C 192.214844 13.320312 190.554688 14.921875 188.289062 15.3125 Z M 192.859375 9.960938 C 192.859375 10.273438 192.800781 10.410156 192.625 10.527344 C 192.214844 10.898438 191.667969 11.09375 191.121094 11.09375 C 189.988281 11.09375 189.265625 9.960938 189.265625 8.183594 C 189.265625 7.34375 189.519531 6.445312 189.832031 6.054688 C 190.085938 5.761719 190.457031 5.585938 190.886719 5.585938 C 192.195312 5.585938 192.859375 6.875 192.859375 9.394531 Z M 192.859375 9.960938 "/>
<path style=" stroke:none;fill-rule:nonzero;fill:rgb(0%,0%,0%);fill-opacity:1;" d="M 201.582031 5.058594 C 199.882812 5.195312 199.023438 5.488281 197.929688 6.25 C 196.308594 7.402344 195.429688 9.101562 195.429688 11.113281 C 195.429688 12.402344 195.839844 13.710938 196.484375 14.472656 C 197.050781 15.117188 197.851562 15.488281 198.769531 15.488281 C 200.625 15.488281 201.914062 14.0625 201.914062 11.992188 C 201.914062 10.097656 200.820312 8.886719 199.101562 8.886719 C 198.457031 8.886719 198.125 8.984375 197.1875 9.550781 C 197.597656 7.285156 199.277344 5.683594 201.621094 5.292969 Z M 198.535156 9.570312 C 199.824219 9.570312 200.566406 10.644531 200.566406 12.5 C 200.566406 14.160156 199.980469 15.058594 198.945312 15.058594 C 197.617188 15.058594 196.816406 13.652344 196.816406 11.347656 C 196.816406 10.585938 196.933594 10.15625 197.246094 9.941406 C 197.558594 9.707031 198.007812 9.570312 198.535156 9.570312 Z M 198.535156 9.570312 "/>
<path style=" stroke:none;fill-rule:nonzero;fill:rgb(0%,0%,0%);fill-opacity:1;" d="M 206.746094 5.175781 L 204.050781 6.523438 L 204.050781 6.738281 C 204.226562 6.660156 204.402344 6.601562 204.460938 6.582031 C 204.714844 6.464844 204.96875 6.40625 205.125 6.40625 C 205.4375 6.40625 205.574219 6.640625 205.574219 7.109375 L 205.574219 13.886719 C 205.574219 14.375 205.457031 14.726562 205.222656 14.863281 C 204.988281 14.980469 204.773438 15.039062 204.148438 15.058594 L 204.148438 15.273438 L 208.269531 15.273438 L 208.269531 15.058594 C 207.097656 15.039062 206.863281 14.882812 206.863281 14.160156 L 206.863281 5.195312 Z M 206.746094 5.175781 "/>
<path style=" stroke:none;fill-rule:nonzero;fill:rgb(0%,0%,0%);fill-opacity:1;" d="M 214.1875 11.425781 L 214.1875 12.382812 L 217.859375 12.382812 L 217.859375 11.425781 Z M 214.1875 11.425781 "/>
<path style=" stroke:none;fill-rule:nonzero;fill:rgb(0%,0%,0%);fill-opacity:1;" d="M 222.933594 5.175781 L 220.238281 6.523438 L 220.238281 6.738281 C 220.414062 6.660156 220.589844 6.601562 220.648438 6.582031 C 220.902344 6.464844 221.15625 6.40625 221.3125 6.40625 C 221.625 6.40625 221.761719 6.640625 221.761719 7.109375 L 221.761719 13.886719 C 221.761719 14.375 221.644531 14.726562 221.410156 14.863281 C 221.175781 14.980469 220.960938 15.039062 220.335938 15.058594 L 220.335938 15.273438 L 224.457031 15.273438 L 224.457031 15.058594 C 223.285156 15.039062 223.050781 14.882812 223.050781 14.160156 L 223.050781 5.195312 Z M 222.933594 5.175781 "/>
<path style=" stroke:none;fill-rule:nonzero;fill:rgb(0%,0%,0%);fill-opacity:1;" d="M 227.921875 13.789062 C 227.472656 13.789062 227.101562 14.160156 227.101562 14.628906 C 227.101562 15.058594 227.472656 15.429688 227.902344 15.429688 C 228.371094 15.429688 228.742188 15.058594 228.742188 14.628906 C 228.742188 14.160156 228.371094 13.789062 227.921875 13.789062 Z M 227.921875 13.789062 "/>
<path style=" stroke:none;fill-rule:nonzero;fill:rgb(0%,0%,0%);fill-opacity:1;" d="M 234.140625 5.175781 L 231.445312 6.523438 L 231.445312 6.738281 C 231.621094 6.660156 231.796875 6.601562 231.855469 6.582031 C 232.109375 6.464844 232.363281 6.40625 232.519531 6.40625 C 232.832031 6.40625 232.96875 6.640625 232.96875 7.109375 L 232.96875 13.886719 C 232.96875 14.375 232.851562 14.726562 232.617188 14.863281 C 232.382812 14.980469 232.167969 15.039062 231.542969 15.058594 L 231.542969 15.273438 L 235.664062 15.273438 L 235.664062 15.058594 C 234.492188 15.039062 234.257812 14.882812 234.257812 14.160156 L 234.257812 5.195312 Z M 234.140625 5.175781 "/>
<path style=" stroke:none;fill-rule:nonzero;fill:rgb(0%,0%,0%);fill-opacity:1;" d="M 241.578125 11.425781 L 241.578125 12.382812 L 245.25 12.382812 L 245.25 11.425781 Z M 241.578125 11.425781 "/>
<path style=" stroke:none;fill-rule:nonzero;fill:rgb(0%,0%,0%);fill-opacity:1;" d="M 250.324219 5.175781 L 247.628906 6.523438 L 247.628906 6.738281 C 247.804688 6.660156 247.980469 6.601562 248.039062 6.582031 C 248.292969 6.464844 248.546875 6.40625 248.703125 6.40625 C 249.015625 6.40625 249.152344 6.640625 249.152344 7.109375 L 249.152344 13.886719 C 249.152344 14.375 249.035156 14.726562 248.800781 14.863281 C 248.566406 14.980469 248.351562 15.039062 247.726562 15.058594 L 247.726562 15.273438 L 251.847656 15.273438 L 251.847656 15.058594 C 250.675781 15.039062 250.441406 14.882812 250.441406 14.160156 L 250.441406 5.195312 Z M 250.324219 5.175781 "/>
<path style=" stroke:none;fill-rule:nonzero;fill:rgb(0%,0%,0%);fill-opacity:1;" d="M 255.316406 13.789062 C 254.867188 13.789062 254.496094 14.160156 254.496094 14.628906 C 254.496094 15.058594 254.867188 15.429688 255.296875 15.429688 C 255.765625 15.429688 256.136719 15.058594 256.136719 14.628906 C 256.136719 14.160156 255.765625 13.789062 255.316406 13.789062 Z M 255.316406 13.789062 "/>
<path style=" stroke:none;fill-rule:nonzero;fill:rgb(0%,0%,0%);fill-opacity:1;" d="M 259.871094 6.5625 L 262.800781 6.5625 C 263.054688 6.5625 263.113281 6.523438 263.152344 6.425781 L 263.71875 5.097656 L 263.582031 5 C 263.367188 5.3125 263.210938 5.390625 262.898438 5.390625 L 259.773438 5.390625 L 258.152344 8.925781 C 258.132812 8.945312 258.132812 8.964844 258.132812 9.003906 C 258.132812 9.082031 258.191406 9.121094 258.308594 9.121094 C 258.796875 9.121094 259.382812 9.21875 260.007812 9.414062 C 261.726562 9.960938 262.507812 10.898438 262.507812 12.382812 C 262.507812 13.808594 261.589844 14.921875 260.4375 14.921875 C 260.125 14.921875 259.871094 14.824219 259.441406 14.492188 C 258.953125 14.160156 258.601562 14.003906 258.289062 14.003906 C 257.859375 14.003906 257.644531 14.179688 257.644531 14.550781 C 257.644531 15.117188 258.347656 15.488281 259.480469 15.488281 C 260.730469 15.488281 261.804688 15.078125 262.546875 14.316406 C 263.25 13.652344 263.5625 12.792969 263.5625 11.660156 C 263.5625 10.585938 263.269531 9.902344 262.527344 9.140625 C 261.863281 8.496094 261.023438 8.144531 259.246094 7.832031 Z M 259.871094 6.5625 "/>
<path style=" stroke:none;fill-rule:nonzero;fill:rgb(0%,0%,0%);fill-opacity:1;" d="M 271.308594 5.058594 C 269.609375 5.195312 268.75 5.488281 267.65625 6.25 C 266.035156 7.402344 265.15625 9.101562 265.15625 11.113281 C 265.15625 12.402344 265.566406 13.710938 266.210938 14.472656 C 266.777344 15.117188 267.578125 15.488281 268.496094 15.488281 C 270.351562 15.488281 271.640625 14.0625 271.640625 11.992188 C 271.640625 10.097656 270.546875 8.886719 268.828125 8.886719 C 268.183594 8.886719 267.851562 8.984375 266.914062 9.550781 C 267.324219 7.285156 269.003906 5.683594 271.347656 5.292969 Z M 268.261719 9.570312 C 269.550781 9.570312 270.292969 10.644531 270.292969 12.5 C 270.292969 14.160156 269.707031 15.058594 268.671875 15.058594 C 267.34375 15.058594 266.542969 13.652344 266.542969 11.347656 C 266.542969 10.585938 266.660156 10.15625 266.972656 9.941406 C 267.285156 9.707031 267.734375 9.570312 268.261719 9.570312 Z M 268.261719 9.570312 "/>
<path style=" stroke:none;fill-rule:nonzero;fill:rgb(0%,0%,0%);fill-opacity:1;" d="M 274.40625 10.351562 C 275.285156 10.351562 275.636719 10.371094 275.988281 10.507812 C 276.925781 10.839844 277.492188 11.679688 277.492188 12.714844 C 277.492188 13.964844 276.652344 14.941406 275.539062 14.941406 C 275.148438 14.941406 274.835938 14.84375 274.289062 14.472656 C 273.839844 14.21875 273.585938 14.101562 273.332031 14.101562 C 272.980469 14.101562 272.765625 14.316406 272.765625 14.628906 C 272.765625 15.15625 273.410156 15.488281 274.445312 15.488281 C 275.597656 15.488281 276.789062 15.097656 277.492188 14.472656 C 278.195312 13.867188 278.566406 13.007812 278.566406 11.992188 C 278.566406 11.230469 278.332031 10.527344 277.902344 10.078125 C 277.609375 9.746094 277.316406 9.570312 276.671875 9.277344 C 277.6875 8.574219 278.058594 8.027344 278.058594 7.226562 C 278.058594 6.015625 277.121094 5.175781 275.734375 5.175781 C 274.992188 5.175781 274.328125 5.429688 273.800781 5.898438 C 273.351562 6.308594 273.117188 6.699219 272.785156 7.597656 L 273.019531 7.65625 C 273.625 6.5625 274.308594 6.074219 275.246094 6.074219 C 276.222656 6.074219 276.886719 6.71875 276.886719 7.675781 C 276.886719 8.203125 276.671875 8.75 276.28125 9.121094 C 275.832031 9.570312 275.421875 9.785156 274.40625 10.15625 Z M 274.40625 10.351562 "/>
<path style=" stroke:none;fill-rule:nonzero;fill:rgb(0%,0%,0%);fill-opacity:1;" d="M 283.914062 11.425781 L 283.914062 12.382812 L 287.585938 12.382812 L 287.585938 11.425781 Z M 283.914062 11.425781 "/>
<path style=" stroke:none;fill-rule:nonzero;fill:rgb(0%,0%,0%);fill-opacity:1;" d="M 292.660156 5.175781 L 289.964844 6.523438 L 289.964844 6.738281 C 290.140625 6.660156 290.316406 6.601562 290.375 6.582031 C 290.628906 6.464844 290.882812 6.40625 291.039062 6.40625 C 291.351562 6.40625 291.488281 6.640625 291.488281 7.109375 L 291.488281 13.886719 C 291.488281 14.375 291.371094 14.726562 291.136719 14.863281 C 290.902344 14.980469 290.6875 15.039062 290.0625 15.058594 L 290.0625 15.273438 L 294.183594 15.273438 L 294.183594 15.058594 C 293.011719 15.039062 292.777344 14.882812 292.777344 14.160156 L 292.777344 5.195312 Z M 292.660156 5.175781 "/>
<path style=" stroke:none;fill-rule:nonzero;fill:rgb(0%,0%,0%);fill-opacity:1;" d="M 297.652344 13.789062 C 297.203125 13.789062 296.832031 14.160156 296.832031 14.628906 C 296.832031 15.058594 297.203125 15.429688 297.632812 15.429688 C 298.101562 15.429688 298.472656 15.058594 298.472656 14.628906 C 298.472656 14.160156 298.101562 13.789062 297.652344 13.789062 Z M 297.652344 13.789062 "/>
<path style=" stroke:none;fill-rule:nonzero;fill:rgb(0%,0%,0%);fill-opacity:1;" d="M 304.730469 11.425781 L 304.730469 12.382812 L 308.402344 12.382812 L 308.402344 11.425781 Z M 304.730469 11.425781 "/>
<path style=" stroke:none;fill-rule:nonzero;fill:rgb(0%,0%,0%);fill-opacity:1;" d="M 313.476562 5.175781 L 310.78125 6.523438 L 310.78125 6.738281 C 310.957031 6.660156 311.132812 6.601562 311.191406 6.582031 C 311.445312 6.464844 311.699219 6.40625 311.855469 6.40625 C 312.167969 6.40625 312.304688 6.640625 312.304688 7.109375 L 312.304688 13.886719 C 312.304688 14.375 312.1875 14.726562 311.953125 14.863281 C 311.71875 14.980469 311.503906 15.039062 310.878906 15.058594 L 310.878906 15.273438 L 315 15.273438 L 315 15.058594 C 313.828125 15.039062 313.59375 14.882812 313.59375 14.160156 L 313.59375 5.195312 Z M 313.476562 5.175781 "/>
<path style=" stroke:none;fill-rule:nonzero;fill:rgb(0%,0%,0%);fill-opacity:1;" d="M 318.46875 13.789062 C 318.019531 13.789062 317.648438 14.160156 317.648438 14.628906 C 317.648438 15.058594 318.019531 15.429688 318.449219 15.429688 C 318.917969 15.429688 319.289062 15.058594 319.289062 14.628906 C 319.289062 14.160156 318.917969 13.789062 318.46875 13.789062 Z M 318.46875 13.789062 "/>
<path style=" stroke:none;fill-rule:nonzero;fill:rgb(0%,0%,0%);fill-opacity:1;" d="M 322.617188 10.351562 C 323.496094 10.351562 323.847656 10.371094 324.199219 10.507812 C 325.136719 10.839844 325.703125 11.679688 325.703125 12.714844 C 325.703125 13.964844 324.863281 14.941406 323.75 14.941406 C 323.359375 14.941406 323.046875 14.84375 322.5 14.472656 C 322.050781 14.21875 321.796875 14.101562 321.542969 14.101562 C 321.191406 14.101562 320.976562 14.316406 320.976562 14.628906 C 320.976562 15.15625 321.621094 15.488281 322.65625 15.488281 C 323.808594 15.488281 325 15.097656 325.703125 14.472656 C 326.40625 13.867188 326.777344 13.007812 326.777344 11.992188 C 326.777344 11.230469 326.542969 10.527344 326.113281 10.078125 C 325.820312 9.746094 325.527344 9.570312 324.882812 9.277344 C 325.898438 8.574219 326.269531 8.027344 326.269531 7.226562 C 326.269531 6.015625 325.332031 5.175781 323.945312 5.175781 C 323.203125 5.175781 322.539062 5.429688 322.011719 5.898438 C 321.5625 6.308594 321.328125 6.699219 320.996094 7.597656 L 321.230469 7.65625 C 321.835938 6.5625 322.519531 6.074219 323.457031 6.074219 C 324.433594 6.074219 325.097656 6.71875 325.097656 7.675781 C 325.097656 8.203125 324.882812 8.75 324.492188 9.121094 C 324.042969 9.570312 323.632812 9.785156 322.617188 10.15625 Z M 322.617188 10.351562 "/>
<path style=" stroke:none;fill-rule:nonzero;fill:rgb(0%,0%,0%);fill-opacity:1;" d="M 330.085938 10.351562 C 330.964844 10.351562 331.316406 10.371094 331.667969 10.507812 C 332.605469 10.839844 333.171875 11.679688 333.171875 12.714844 C 333.171875 13.964844 332.332031 14.941406 331.21875 14.941406 C 330.828125 14.941406 330.515625 14.84375 329.96875 14.472656 C 329.519531 14.21875 329.265625 14.101562 329.011719 14.101562 C 328.660156 14.101562 328.445312 14.316406 328.445312 14.628906 C 328.445312 15.15625 329.089844 15.488281 330.125 15.488281 C 331.277344 15.488281 332.46875 15.097656 333.171875 14.472656 C 333.875 13.867188 334.246094 13.007812 334.246094 11.992188 C 334.246094 11.230469 334.011719 10.527344 333.582031 10.078125 C 333.289062 9.746094 332.996094 9.570312 332.351562 9.277344 C 333.367188 8.574219 333.738281 8.027344 333.738281 7.226562 C 333.738281 6.015625 332.800781 5.175781 331.414062 5.175781 C 330.671875 5.175781 330.007812 5.429688 329.480469 5.898438 C 329.03125 6.308594 328.796875 6.699219 328.464844 7.597656 L 328.699219 7.65625 C 329.304688 6.5625 329.988281 6.074219 330.925781 6.074219 C 331.902344 6.074219 332.566406 6.71875 332.566406 7.675781 C 332.566406 8.203125 332.351562 8.75 331.960938 9.121094 C 331.511719 9.570312 331.101562 9.785156 330.085938 10.15625 Z M 330.085938 10.351562 "/>
<path style=" stroke:none;fill-rule:nonzero;fill:rgb(0%,0%,0%);fill-opacity:1;" d="M 337.558594 10.351562 C 338.4375 10.351562 338.789062 10.371094 339.140625 10.507812 C 340.078125 10.839844 340.644531 11.679688 340.644531 12.714844 C 340.644531 13.964844 339.804688 14.941406 338.691406 14.941406 C 338.300781 14.941406 337.988281 14.84375 337.441406 14.472656 C 336.992188 14.21875 336.738281 14.101562 336.484375 14.101562 C 336.132812 14.101562 335.917969 14.316406 335.917969 14.628906 C 335.917969 15.15625 336.5625 15.488281 337.597656 15.488281 C 338.75 15.488281 339.941406 15.097656 340.644531 14.472656 C 341.347656 13.867188 341.71875 13.007812 341.71875 11.992188 C 341.71875 11.230469 341.484375 10.527344 341.054688 10.078125 C 340.761719 9.746094 340.46875 9.570312 339.824219 9.277344 C 340.839844 8.574219 341.210938 8.027344 341.210938 7.226562 C 341.210938 6.015625 340.273438 5.175781 338.886719 5.175781 C 338.144531 5.175781 337.480469 5.429688 336.953125 5.898438 C 336.503906 6.308594 336.269531 6.699219 335.9375 7.597656 L 336.171875 7.65625 C 336.777344 6.5625 337.460938 6.074219 338.398438 6.074219 C 339.375 6.074219 340.039062 6.71875 340.039062 7.675781 C 340.039062 8.203125 339.824219 8.75 339.433594 9.121094 C 338.984375 9.570312 338.574219 9.785156 337.558594 10.15625 Z M 337.558594 10.351562 "/>
<path style=" stroke:none;fill-rule:nonzero;fill:rgb(0%,0%,0%);fill-opacity:1;" d="M 347.066406 11.425781 L 347.066406 12.382812 L 350.738281 12.382812 L 350.738281 11.425781 Z M 347.066406 11.425781 "/>
<path style=" stroke:none;fill-rule:nonzero;fill:rgb(0%,0%,0%);fill-opacity:1;" d="M 353.332031 13.789062 C 352.882812 13.789062 352.511719 14.160156 352.511719 14.628906 C 352.511719 15.058594 352.882812 15.429688 353.3125 15.429688 C 353.78125 15.429688 354.152344 15.058594 354.152344 14.628906 C 354.152344 14.160156 353.78125 13.789062 353.332031 13.789062 Z M 353.332031 13.789062 "/>
<path style=" stroke:none;fill-rule:nonzero;fill:rgb(0%,0%,0%);fill-opacity:1;" d="M 356.074219 15.605469 C 357.753906 15.410156 358.574219 15.117188 359.589844 14.394531 C 361.132812 13.261719 362.050781 11.40625 362.050781 9.394531 C 362.050781 6.914062 360.683594 5.175781 358.75 5.175781 C 356.972656 5.175781 355.644531 6.679688 355.644531 8.691406 C 355.644531 10.527344 356.71875 11.738281 358.339844 11.738281 C 359.160156 11.738281 359.785156 11.484375 360.566406 10.878906 C 359.960938 13.320312 358.300781 14.921875 356.035156 15.3125 Z M 360.605469 9.960938 C 360.605469 10.273438 360.546875 10.410156 360.371094 10.527344 C 359.960938 10.898438 359.414062 11.09375 358.867188 11.09375 C 357.734375 11.09375 357.011719 9.960938 357.011719 8.183594 C 357.011719 7.34375 357.265625 6.445312 357.578125 6.054688 C 357.832031 5.761719 358.203125 5.585938 358.632812 5.585938 C 359.941406 5.585938 360.605469 6.875 360.605469 9.394531 Z M 360.605469 9.960938 "/>
<path style=" stroke:none;fill-rule:nonzero;fill:rgb(0%,0%,0%);fill-opacity:1;" d="M 366.457031 5.175781 C 365.636719 5.175781 365.011719 5.429688 364.464844 5.957031 C 363.585938 6.777344 363.019531 8.496094 363.019531 10.253906 C 363.019531 11.875 363.527344 13.632812 364.230469 14.472656 C 364.777344 15.117188 365.539062 15.488281 366.398438 15.488281 C 367.160156 15.488281 367.804688 15.234375 368.351562 14.707031 C 369.210938 13.886719 369.777344 12.148438 369.777344 10.351562 C 369.777344 7.285156 368.429688 5.175781 366.457031 5.175781 Z M 366.417969 5.566406 C 367.667969 5.566406 368.351562 7.246094 368.351562 10.371094 C 368.351562 13.496094 367.6875 15.097656 366.398438 15.097656 C 365.109375 15.097656 364.464844 13.496094 364.464844 10.390625 C 364.464844 7.226562 365.128906 5.566406 366.417969 5.566406 Z M 366.417969 5.566406 "/>
<path style=" stroke:none;fill-rule:nonzero;fill:rgb(0%,0%,0%);fill-opacity:1;" d="M 374.460938 11.425781 L 374.460938 12.382812 L 378.132812 12.382812 L 378.132812 11.425781 Z M 374.460938 11.425781 "/>
<path style=" stroke:none;fill-rule:nonzero;fill:rgb(0%,0%,0%);fill-opacity:1;" d="M 383.207031 5.175781 L 380.511719 6.523438 L 380.511719 6.738281 C 380.6875 6.660156 380.863281 6.601562 380.921875 6.582031 C 381.175781 6.464844 381.429688 6.40625 381.585938 6.40625 C 381.898438 6.40625 382.035156 6.640625 382.035156 7.109375 L 382.035156 13.886719 C 382.035156 14.375 381.917969 14.726562 381.683594 14.863281 C 381.449219 14.980469 381.234375 15.039062 380.609375 15.058594 L 380.609375 15.273438 L 384.730469 15.273438 L 384.730469 15.058594 C 383.558594 15.039062 383.324219 14.882812 383.324219 14.160156 L 383.324219 5.195312 Z M 383.207031 5.175781 "/>
<path style=" stroke:none;fill-rule:nonzero;fill:rgb(0%,0%,0%);fill-opacity:1;" d="M 388.199219 13.789062 C 387.75 13.789062 387.378906 14.160156 387.378906 14.628906 C 387.378906 15.058594 387.75 15.429688 388.179688 15.429688 C 388.648438 15.429688 389.019531 15.058594 389.019531 14.628906 C 389.019531 14.160156 388.648438 13.789062 388.199219 13.789062 Z M 388.199219 13.789062 "/>
<path style=" stroke:none;fill-rule:nonzero;fill:rgb(0%,0%,0%);fill-opacity:1;" d="M 394.414062 5.175781 L 391.71875 6.523438 L 391.71875 6.738281 C 391.894531 6.660156 392.070312 6.601562 392.128906 6.582031 C 392.382812 6.464844 392.636719 6.40625 392.792969 6.40625 C 393.105469 6.40625 393.242188 6.640625 393.242188 7.109375 L 393.242188 13.886719 C 393.242188 14.375 393.125 14.726562 392.890625 14.863281 C 392.65625 14.980469 392.441406 15.039062 391.816406 15.058594 L 391.816406 15.273438 L 395.9375 15.273438 L 395.9375 15.058594 C 394.765625 15.039062 394.53125 14.882812 394.53125 14.160156 L 394.53125 5.195312 Z M 394.414062 5.175781 "/>
<path style=" stroke:none;fill-rule:nonzero;fill:rgb(0%,0%,0%);fill-opacity:1;" d="M 398.410156 15.605469 C 400.089844 15.410156 400.910156 15.117188 401.925781 14.394531 C 403.46875 13.261719 404.386719 11.40625 404.386719 9.394531 C 404.386719 6.914062 403.019531 5.175781 401.085938 5.175781 C 399.308594 5.175781 397.980469 6.679688 397.980469 8.691406 C 397.980469 10.527344 399.054688 11.738281 400.675781 11.738281 C 401.496094 11.738281 402.121094 11.484375 402.902344 10.878906 C 402.296875 13.320312 400.636719 14.921875 398.371094 15.3125 Z M 402.941406 9.960938 C 402.941406 10.273438 402.882812 10.410156 402.707031 10.527344 C 402.296875 10.898438 401.75 11.09375 401.203125 11.09375 C 400.070312 11.09375 399.347656 9.960938 399.347656 8.183594 C 399.347656 7.34375 399.601562 6.445312 399.914062 6.054688 C 400.167969 5.761719 400.539062 5.585938 400.96875 5.585938 C 402.277344 5.585938 402.941406 6.875 402.941406 9.394531 Z M 402.941406 9.960938 "/>
<path style=" stroke:none;fill-rule:nonzero;fill:rgb(0%,0%,0%);fill-opacity:1;" d="M 408.792969 5.175781 C 407.972656 5.175781 407.347656 5.429688 406.800781 5.957031 C 405.921875 6.777344 405.355469 8.496094 405.355469 10.253906 C 405.355469 11.875 405.863281 13.632812 406.566406 14.472656 C 407.113281 15.117188 407.875 15.488281 408.734375 15.488281 C 409.496094 15.488281 410.140625 15.234375 410.6875 14.707031 C 411.546875 13.886719 412.113281 12.148438 412.113281 10.351562 C 412.113281 7.285156 410.765625 5.175781 408.792969 5.175781 Z M 408.753906 5.566406 C 410.003906 5.566406 410.6875 7.246094 410.6875 10.371094 C 410.6875 13.496094 410.023438 15.097656 408.734375 15.097656 C 407.445312 15.097656 406.800781 13.496094 406.800781 10.390625 C 406.800781 7.226562 407.464844 5.566406 408.753906 5.566406 Z M 408.753906 5.566406 "/>
<path style=" stroke:none;fill-rule:nonzero;fill:rgb(0%,0%,0%);fill-opacity:1;" d="M 416.796875 11.425781 L 416.796875 12.382812 L 420.46875 12.382812 L 420.46875 11.425781 Z M 416.796875 11.425781 "/>
<path style=" stroke:none;fill-rule:nonzero;fill:rgb(0%,0%,0%);fill-opacity:1;" d="M 423.0625 13.789062 C 422.613281 13.789062 422.242188 14.160156 422.242188 14.628906 C 422.242188 15.058594 422.613281 15.429688 423.042969 15.429688 C 423.511719 15.429688 423.882812 15.058594 423.882812 14.628906 C 423.882812 14.160156 423.511719 13.789062 423.0625 13.789062 Z M 423.0625 13.789062 "/>
<path style=" stroke:none;fill-rule:nonzero;fill:rgb(0%,0%,0%);fill-opacity:1;" d="M 429.257812 9.726562 C 430.742188 8.945312 431.25 8.320312 431.25 7.285156 C 431.25 6.074219 430.175781 5.175781 428.691406 5.175781 C 427.050781 5.175781 425.839844 6.171875 425.839844 7.539062 C 425.839844 8.496094 426.132812 8.945312 427.695312 10.3125 C 426.09375 11.542969 425.761719 11.992188 425.761719 13.007812 C 425.761719 14.472656 426.933594 15.488281 428.632812 15.488281 C 430.429688 15.488281 431.5625 14.492188 431.5625 12.949219 C 431.5625 11.816406 431.054688 11.074219 429.257812 9.726562 Z M 428.984375 11.269531 C 430.078125 12.050781 430.429688 12.578125 430.429688 13.417969 C 430.429688 14.394531 429.765625 15.058594 428.789062 15.058594 C 427.65625 15.058594 426.894531 14.199219 426.894531 12.890625 C 426.894531 11.933594 427.226562 11.308594 428.085938 10.605469 Z M 428.828125 9.453125 C 427.5 8.59375 426.953125 7.910156 426.953125 7.070312 C 426.953125 6.210938 427.617188 5.585938 428.574219 5.585938 C 429.589844 5.585938 430.234375 6.25 430.234375 7.285156 C 430.234375 8.125 429.804688 8.808594 428.964844 9.375 C 428.886719 9.414062 428.886719 9.414062 428.828125 9.453125 Z M 428.828125 9.453125 "/>
<path style=" stroke:none;fill-rule:nonzero;fill:rgb(0%,0%,0%);fill-opacity:1;" d="M 436.183594 5.175781 C 435.363281 5.175781 434.738281 5.429688 434.191406 5.957031 C 433.3125 6.777344 432.746094 8.496094 432.746094 10.253906 C 432.746094 11.875 433.253906 13.632812 433.957031 14.472656 C 434.503906 15.117188 435.265625 15.488281 436.125 15.488281 C 436.886719 15.488281 437.53125 15.234375 438.078125 14.707031 C 438.9375 13.886719 439.503906 12.148438 439.503906 10.351562 C 439.503906 7.285156 438.15625 5.175781 436.183594 5.175781 Z M 436.144531 5.566406 C 437.394531 5.566406 438.078125 7.246094 438.078125 10.371094 C 438.078125 13.496094 437.414062 15.097656 436.125 15.097656 C 434.835938 15.097656 434.191406 13.496094 434.191406 10.390625 C 434.191406 7.226562 434.855469 5.566406 436.144531 5.566406 Z M 436.144531 5.566406 "/>
<path style=" stroke:none;fill-rule:nonzero;fill:rgb(0%,0%,0%);fill-opacity:1;" d="M 444.1875 11.425781 L 444.1875 12.382812 L 447.859375 12.382812 L 447.859375 11.425781 Z M 444.1875 11.425781 "/>
<path style=" stroke:none;fill-rule:nonzero;fill:rgb(0%,0%,0%);fill-opacity:1;" d="M 452.933594 5.175781 L 450.238281 6.523438 L 450.238281 6.738281 C 450.414062 6.660156 450.589844 6.601562 450.648438 6.582031 C 450.902344 6.464844 451.15625 6.40625 451.3125 6.40625 C 451.625 6.40625 451.761719 6.640625 451.761719 7.109375 L 451.761719 13.886719 C 451.761719 14.375 451.644531 14.726562 451.410156 14.863281 C 451.175781 14.980469 450.960938 15.039062 450.335938 15.058594 L 450.335938 15.273438 L 454.457031 15.273438 L 454.457031 15.058594 C 453.285156 15.039062 453.050781 14.882812 453.050781 14.160156 L 453.050781 5.195312 Z M 452.933594 5.175781 "/>
<path style=" stroke:none;fill-rule:nonzero;fill:rgb(0%,0%,0%);fill-opacity:1;" d="M 457.925781 13.789062 C 457.476562 13.789062 457.105469 14.160156 457.105469 14.628906 C 457.105469 15.058594 457.476562 15.429688 457.90625 15.429688 C 458.375 15.429688 458.746094 15.058594 458.746094 14.628906 C 458.746094 14.160156 458.375 13.789062 457.925781 13.789062 Z M 457.925781 13.789062 "/>
<path style=" stroke:none;fill-rule:nonzero;fill:rgb(0%,0%,0%);fill-opacity:1;" d="M 463.578125 5.175781 C 462.757812 5.175781 462.132812 5.429688 461.585938 5.957031 C 460.707031 6.777344 460.140625 8.496094 460.140625 10.253906 C 460.140625 11.875 460.648438 13.632812 461.351562 14.472656 C 461.898438 15.117188 462.660156 15.488281 463.519531 15.488281 C 464.28125 15.488281 464.925781 15.234375 465.472656 14.707031 C 466.332031 13.886719 466.898438 12.148438 466.898438 10.351562 C 466.898438 7.285156 465.550781 5.175781 463.578125 5.175781 Z M 463.539062 5.566406 C 464.789062 5.566406 465.472656 7.246094 465.472656 10.371094 C 465.472656 13.496094 464.808594 15.097656 463.519531 15.097656 C 462.230469 15.097656 461.585938 13.496094 461.585938 10.390625 C 461.585938 7.226562 462.25 5.566406 463.539062 5.566406 Z M 463.539062 5.566406 "/>
<path style=" stroke:none;fill-rule:nonzero;fill:rgb(0%,0%,0%);fill-opacity:1;" d="M 468.136719 15.605469 C 469.816406 15.410156 470.636719 15.117188 471.652344 14.394531 C 473.195312 13.261719 474.113281 11.40625 474.113281 9.394531 C 474.113281 6.914062 472.746094 5.175781 470.8125 5.175781 C 469.035156 5.175781 467.707031 6.679688 467.707031 8.691406 C 467.707031 10.527344 468.78125 11.738281 470.402344 11.738281 C 471.222656 11.738281 471.847656 11.484375 472.628906 10.878906 C 472.023438 13.320312 470.363281 14.921875 468.097656 15.3125 Z M 472.667969 9.960938 C 472.667969 10.273438 472.609375 10.410156 472.433594 10.527344 C 472.023438 10.898438 471.476562 11.09375 470.929688 11.09375 C 469.796875 11.09375 469.074219 9.960938 469.074219 8.183594 C 469.074219 7.34375 469.328125 6.445312 469.640625 6.054688 C 469.894531 5.761719 470.265625 5.585938 470.695312 5.585938 C 472.003906 5.585938 472.667969 6.875 472.667969 9.394531 Z M 472.667969 9.960938 "/>
<path style=" stroke:none;fill-rule:nonzero;fill:rgb(0%,0%,0%);fill-opacity:1;" d="M 475.609375 15.605469 C 477.289062 15.410156 478.109375 15.117188 479.125 14.394531 C 480.667969 13.261719 481.585938 11.40625 481.585938 9.394531 C 481.585938 6.914062 480.21875 5.175781 478.285156 5.175781 C 476.507812 5.175781 475.179688 6.679688 475.179688 8.691406 C 475.179688 10.527344 476.253906 11.738281 477.875 11.738281 C 478.695312 11.738281 479.320312 11.484375 480.101562 10.878906 C 479.496094 13.320312 477.835938 14.921875 475.570312 15.3125 Z M 480.140625 9.960938 C 480.140625 10.273438 480.082031 10.410156 479.90625 10.527344 C 479.496094 10.898438 478.949219 11.09375 478.402344 11.09375 C 477.269531 11.09375 476.546875 9.960938 476.546875 8.183594 C 476.546875 7.34375 476.800781 6.445312 477.113281 6.054688 C 477.367188 5.761719 477.738281 5.585938 478.167969 5.585938 C 479.476562 5.585938 480.140625 6.875 480.140625 9.394531 Z M 480.140625 9.960938 "/>
<path style=" stroke:none;fill-rule:nonzero;fill:rgb(0%,0%,0%);fill-opacity:1;" d="M 486.527344 11.425781 L 486.527344 12.382812 L 490.199219 12.382812 L 490.199219 11.425781 Z M 486.527344 11.425781 "/>
<path style=" stroke:none;fill-rule:nonzero;fill:rgb(0%,0%,0%);fill-opacity:1;" d="M 492.789062 13.789062 C 492.339844 13.789062 491.96875 14.160156 491.96875 14.628906 C 491.96875 15.058594 492.339844 15.429688 492.769531 15.429688 C 493.238281 15.429688 493.609375 15.058594 493.609375 14.628906 C 493.609375 14.160156 493.238281 13.789062 492.789062 13.789062 Z M 492.789062 13.789062 "/>
<path style=" stroke:none;fill-rule:nonzero;fill:rgb(0%,0%,0%);fill-opacity:1;" d="M 501.351562 5.390625 L 495.824219 5.390625 L 494.945312 7.578125 L 495.199219 7.695312 C 495.84375 6.679688 496.117188 6.484375 496.9375 6.484375 L 500.179688 6.484375 L 497.230469 15.390625 L 498.1875 15.390625 L 501.351562 5.625 Z M 501.351562 5.390625 "/>
<path style=" stroke:none;fill-rule:nonzero;fill:rgb(0%,0%,0%);fill-opacity:1;" d="M 505.914062 5.175781 C 505.09375 5.175781 504.46875 5.429688 503.921875 5.957031 C 503.042969 6.777344 502.476562 8.496094 502.476562 10.253906 C 502.476562 11.875 502.984375 13.632812 503.6875 14.472656 C 504.234375 15.117188 504.996094 15.488281 505.855469 15.488281 C 506.617188 15.488281 507.261719 15.234375 507.808594 14.707031 C 508.667969 13.886719 509.234375 12.148438 509.234375 10.351562 C 509.234375 7.285156 507.886719 5.175781 505.914062 5.175781 Z M 505.875 5.566406 C 507.125 5.566406 507.808594 7.246094 507.808594 10.371094 C 507.808594 13.496094 507.144531 15.097656 505.855469 15.097656 C 504.566406 15.097656 503.921875 13.496094 503.921875 10.390625 C 503.921875 7.226562 504.585938 5.566406 505.875 5.566406 Z M 505.875 5.566406 "/>
<path style=" stroke:none;fill-rule:nonzero;fill:rgb(0%,0%,0%);fill-opacity:1;" d="M 513.917969 11.425781 L 513.917969 12.382812 L 517.589844 12.382812 L 517.589844 11.425781 Z M 513.917969 11.425781 "/>
<path style=" stroke:none;fill-rule:nonzero;fill:rgb(0%,0%,0%);fill-opacity:1;" d="M 522.664062 5.175781 L 519.96875 6.523438 L 519.96875 6.738281 C 520.144531 6.660156 520.320312 6.601562 520.378906 6.582031 C 520.632812 6.464844 520.886719 6.40625 521.042969 6.40625 C 521.355469 6.40625 521.492188 6.640625 521.492188 7.109375 L 521.492188 13.886719 C 521.492188 14.375 521.375 14.726562 521.140625 14.863281 C 520.90625 14.980469 520.691406 15.039062 520.066406 15.058594 L 520.066406 15.273438 L 524.1875 15.273438 L 524.1875 15.058594 C 523.015625 15.039062 522.78125 14.882812 522.78125 14.160156 L 522.78125 5.195312 Z M 522.664062 5.175781 "/>
<path style=" stroke:none;fill-rule:nonzero;fill:rgb(0%,0%,0%);fill-opacity:1;" d="M 527.65625 13.789062 C 527.207031 13.789062 526.835938 14.160156 526.835938 14.628906 C 526.835938 15.058594 527.207031 15.429688 527.636719 15.429688 C 528.105469 15.429688 528.476562 15.058594 528.476562 14.628906 C 528.476562 14.160156 528.105469 13.789062 527.65625 13.789062 Z M 527.65625 13.789062 "/>
<path style=" stroke:none;fill-rule:nonzero;fill:rgb(0%,0%,0%);fill-opacity:1;" d="M 533.304688 5.175781 C 532.484375 5.175781 531.859375 5.429688 531.3125 5.957031 C 530.433594 6.777344 529.867188 8.496094 529.867188 10.253906 C 529.867188 11.875 530.375 13.632812 531.078125 14.472656 C 531.625 15.117188 532.386719 15.488281 533.246094 15.488281 C 534.007812 15.488281 534.652344 15.234375 535.199219 14.707031 C 536.058594 13.886719 536.625 12.148438 536.625 10.351562 C 536.625 7.285156 535.277344 5.175781 533.304688 5.175781 Z M 533.265625 5.566406 C 534.515625 5.566406 535.199219 7.246094 535.199219 10.371094 C 535.199219 13.496094 534.535156 15.097656 533.246094 15.097656 C 531.957031 15.097656 531.3125 13.496094 531.3125 10.390625 C 531.3125 7.226562 531.976562 5.566406 533.265625 5.566406 Z M 533.265625 5.566406 "/>
<path style=" stroke:none;fill-rule:nonzero;fill:rgb(0%,0%,0%);fill-opacity:1;" d="M 544.039062 11.816406 L 542.515625 11.816406 L 542.515625 5.175781 L 541.851562 5.175781 L 537.164062 11.816406 L 537.164062 12.773438 L 541.363281 12.773438 L 541.363281 15.273438 L 542.515625 15.273438 L 542.515625 12.773438 L 544.039062 12.773438 Z M 541.34375 11.816406 L 537.769531 11.816406 L 541.34375 6.699219 Z M 541.34375 11.816406 "/>
<path style=" stroke:none;fill-rule:nonzero;fill:rgb(0%,0%,0%);fill-opacity:1;" d="M 551.550781 13.222656 L 551.355469 13.144531 C 550.808594 14.003906 550.613281 14.140625 549.949219 14.140625 L 546.375 14.140625 L 548.875 11.503906 C 550.222656 10.117188 550.789062 8.984375 550.789062 7.8125 C 550.789062 6.328125 549.578125 5.175781 548.035156 5.175781 C 547.214844 5.175781 546.433594 5.507812 545.886719 6.09375 C 545.398438 6.601562 545.183594 7.089844 544.929688 8.144531 L 545.242188 8.222656 C 545.828125 6.757812 546.375 6.269531 547.410156 6.269531 C 548.660156 6.269531 549.519531 7.128906 549.519531 8.378906 C 549.519531 9.550781 548.816406 10.9375 547.566406 12.265625 L 544.910156 15.097656 L 544.910156 15.273438 L 550.730469 15.273438 Z M 551.550781 13.222656 "/>
<path style=" stroke:none;fill-rule:nonzero;fill:rgb(0%,0%,0%);fill-opacity:1;" d="M 556.253906 11.425781 L 556.253906 12.382812 L 559.925781 12.382812 L 559.925781 11.425781 Z M 556.253906 11.425781 "/>
<path style=" stroke:none;fill-rule:nonzero;fill:rgb(0%,0%,0%);fill-opacity:1;" d="M 562.519531 13.789062 C 562.070312 13.789062 561.699219 14.160156 561.699219 14.628906 C 561.699219 15.058594 562.070312 15.429688 562.5 15.429688 C 562.96875 15.429688 563.339844 15.058594 563.339844 14.628906 C 563.339844 14.160156 562.96875 13.789062 562.519531 13.789062 Z M 562.519531 13.789062 "/>
<path style=" stroke:none;fill-rule:nonzero;fill:rgb(0%,0%,0%);fill-opacity:1;" d="M 571.039062 5.058594 C 569.339844 5.195312 568.480469 5.488281 567.386719 6.25 C 565.765625 7.402344 564.886719 9.101562 564.886719 11.113281 C 564.886719 12.402344 565.296875 13.710938 565.941406 14.472656 C 566.507812 15.117188 567.308594 15.488281 568.226562 15.488281 C 570.082031 15.488281 571.371094 14.0625 571.371094 11.992188 C 571.371094 10.097656 570.277344 8.886719 568.558594 8.886719 C 567.914062 8.886719 567.582031 8.984375 566.644531 9.550781 C 567.054688 7.285156 568.734375 5.683594 571.078125 5.292969 Z M 567.992188 9.570312 C 569.28125 9.570312 570.023438 10.644531 570.023438 12.5 C 570.023438 14.160156 569.4375 15.058594 568.402344 15.058594 C 567.074219 15.058594 566.273438 13.652344 566.273438 11.347656 C 566.273438 10.585938 566.390625 10.15625 566.703125 9.941406 C 567.015625 9.707031 567.464844 9.570312 567.992188 9.570312 Z M 567.992188 9.570312 "/>
<path style=" stroke:none;fill-rule:nonzero;fill:rgb(0%,0%,0%);fill-opacity:1;" d="M 575.640625 5.175781 C 574.820312 5.175781 574.195312 5.429688 573.648438 5.957031 C 572.769531 6.777344 572.203125 8.496094 572.203125 10.253906 C 572.203125 11.875 572.710938 13.632812 573.414062 14.472656 C 573.960938 15.117188 574.722656 15.488281 575.582031 15.488281 C 576.34375 15.488281 576.988281 15.234375 577.535156 14.707031 C 578.394531 13.886719 578.960938 12.148438 578.960938 10.351562 C 578.960938 7.285156 577.613281 5.175781 575.640625 5.175781 Z M 575.601562 5.566406 C 576.851562 5.566406 577.535156 7.246094 577.535156 10.371094 C 577.535156 13.496094 576.871094 15.097656 575.582031 15.097656 C 574.292969 15.097656 573.648438 13.496094 573.648438 10.390625 C 573.648438 7.226562 574.3125 5.566406 575.601562 5.566406 Z M 575.601562 5.566406 "/>
<path style=" stroke:none;fill-rule:nonzero;fill:rgb(0%,0%,0%);fill-opacity:1;" d="M 583.648438 11.425781 L 583.648438 12.382812 L 587.320312 12.382812 L 587.320312 11.425781 Z M 583.648438 11.425781 "/>
<path style=" stroke:none;fill-rule:nonzero;fill:rgb(0%,0%,0%);fill-opacity:1;" d="M 592.390625 5.175781 L 589.695312 6.523438 L 589.695312 6.738281 C 589.871094 6.660156 590.046875 6.601562 590.105469 6.582031 C 590.359375 6.464844 590.613281 6.40625 590.769531 6.40625 C 591.082031 6.40625 591.21875 6.640625 591.21875 7.109375 L 591.21875 13.886719 C 591.21875 14.375 591.101562 14.726562 590.867188 14.863281 C 590.632812 14.980469 590.417969 15.039062 589.792969 15.058594 L 589.792969 15.273438 L 593.914062 15.273438 L 593.914062 15.058594 C 592.742188 15.039062 592.507812 14.882812 592.507812 14.160156 L 592.507812 5.195312 Z M 592.390625 5.175781 "/>
<path style=" stroke:none;fill-rule:nonzero;fill:rgb(0%,0%,0%);fill-opacity:1;" d="M 597.382812 13.789062 C 596.933594 13.789062 596.5625 14.160156 596.5625 14.628906 C 596.5625 15.058594 596.933594 15.429688 597.363281 15.429688 C 597.832031 15.429688 598.203125 15.058594 598.203125 14.628906 C 598.203125 14.160156 597.832031 13.789062 597.382812 13.789062 Z M 597.382812 13.789062 "/>
<path style=" stroke:none;fill-rule:nonzero;fill:rgb(0%,0%,0%);fill-opacity:1;" d="M 603.035156 5.175781 C 602.214844 5.175781 601.589844 5.429688 601.042969 5.957031 C 600.164062 6.777344 599.597656 8.496094 599.597656 10.253906 C 599.597656 11.875 600.105469 13.632812 600.808594 14.472656 C 601.355469 15.117188 602.117188 15.488281 602.976562 15.488281 C 603.738281 15.488281 604.382812 15.234375 604.929688 14.707031 C 605.789062 13.886719 606.355469 12.148438 606.355469 10.351562 C 606.355469 7.285156 605.007812 5.175781 603.035156 5.175781 Z M 602.996094 5.566406 C 604.246094 5.566406 604.929688 7.246094 604.929688 10.371094 C 604.929688 13.496094 604.265625 15.097656 602.976562 15.097656 C 601.6875 15.097656 601.042969 13.496094 601.042969 10.390625 C 601.042969 7.226562 601.707031 5.566406 602.996094 5.566406 Z M 602.996094 5.566406 "/>
<path style=" stroke:none;fill-rule:nonzero;fill:rgb(0%,0%,0%);fill-opacity:1;" d="M 611.074219 5.175781 L 608.378906 6.523438 L 608.378906 6.738281 C 608.554688 6.660156 608.730469 6.601562 608.789062 6.582031 C 609.042969 6.464844 609.296875 6.40625 609.453125 6.40625 C 609.765625 6.40625 609.902344 6.640625 609.902344 7.109375 L 609.902344 13.886719 C 609.902344 14.375 609.785156 14.726562 609.550781 14.863281 C 609.316406 14.980469 609.101562 15.039062 608.476562 15.058594 L 608.476562 15.273438 L 612.597656 15.273438 L 612.597656 15.058594 C 611.425781 15.039062 611.191406 14.882812 611.191406 14.160156 L 611.191406 5.195312 Z M 611.074219 5.175781 "/>
<path style=" stroke:none;fill-rule:nonzero;fill:rgb(0%,0%,0%);fill-opacity:1;" d="M 617.976562 5.175781 C 617.15625 5.175781 616.53125 5.429688 615.984375 5.957031 C 615.105469 6.777344 614.539062 8.496094 614.539062 10.253906 C 614.539062 11.875 615.046875 13.632812 615.75 14.472656 C 616.296875 15.117188 617.058594 15.488281 617.917969 15.488281 C 618.679688 15.488281 619.324219 15.234375 619.871094 14.707031 C 620.730469 13.886719 621.296875 12.148438 621.296875 10.351562 C 621.296875 7.285156 619.949219 5.175781 617.976562 5.175781 Z M 617.9375 5.566406 C 619.1875 5.566406 619.871094 7.246094 619.871094 10.371094 C 619.871094 13.496094 619.207031 15.097656 617.917969 15.097656 C 616.628906 15.097656 615.984375 13.496094 615.984375 10.390625 C 615.984375 7.226562 616.648438 5.566406 617.9375 5.566406 Z M 617.9375 5.566406 "/>
<path style=" stroke:none;fill-rule:nonzero;fill:rgb(0%,0%,0%);fill-opacity:1;" d="M 625.984375 11.425781 L 625.984375 12.382812 L 629.65625 12.382812 L 629.65625 11.425781 Z M 625.984375 11.425781 "/>
<path style=" stroke:none;fill-rule:nonzero;fill:rgb(0%,0%,0%);fill-opacity:1;" d="M 632.25 13.789062 C 631.800781 13.789062 631.429688 14.160156 631.429688 14.628906 C 631.429688 15.058594 631.800781 15.429688 632.230469 15.429688 C 632.699219 15.429688 633.070312 15.058594 633.070312 14.628906 C 633.070312 14.160156 632.699219 13.789062 632.25 13.789062 Z M 632.25 13.789062 "/>
<path style=" stroke:none;fill-rule:nonzero;fill:rgb(0%,0%,0%);fill-opacity:1;" d="M 636.804688 6.5625 L 639.734375 6.5625 C 639.988281 6.5625 640.046875 6.523438 640.085938 6.425781 L 640.652344 5.097656 L 640.515625 5 C 640.300781 5.3125 640.144531 5.390625 639.832031 5.390625 L 636.707031 5.390625 L 635.085938 8.925781 C 635.066406 8.945312 635.066406 8.964844 635.066406 9.003906 C 635.066406 9.082031 635.125 9.121094 635.242188 9.121094 C 635.730469 9.121094 636.316406 9.21875 636.941406 9.414062 C 638.660156 9.960938 639.441406 10.898438 639.441406 12.382812 C 639.441406 13.808594 638.523438 14.921875 637.371094 14.921875 C 637.058594 14.921875 636.804688 14.824219 636.375 14.492188 C 635.886719 14.160156 635.535156 14.003906 635.222656 14.003906 C 634.792969 14.003906 634.578125 14.179688 634.578125 14.550781 C 634.578125 15.117188 635.28125 15.488281 636.414062 15.488281 C 637.664062 15.488281 638.738281 15.078125 639.480469 14.316406 C 640.183594 13.652344 640.496094 12.792969 640.496094 11.660156 C 640.496094 10.585938 640.203125 9.902344 639.460938 9.140625 C 638.796875 8.496094 637.957031 8.144531 636.179688 7.832031 Z M 636.804688 6.5625 "/>
<path style=" stroke:none;fill-rule:nonzero;fill:rgb(0%,0%,0%);fill-opacity:1;" d="M 645.371094 5.175781 C 644.550781 5.175781 643.925781 5.429688 643.378906 5.957031 C 642.5 6.777344 641.933594 8.496094 641.933594 10.253906 C 641.933594 11.875 642.441406 13.632812 643.144531 14.472656 C 643.691406 15.117188 644.453125 15.488281 645.3125 15.488281 C 646.074219 15.488281 646.71875 15.234375 647.265625 14.707031 C 648.125 13.886719 648.691406 12.148438 648.691406 10.351562 C 648.691406 7.285156 647.34375 5.175781 645.371094 5.175781 Z M 645.332031 5.566406 C 646.582031 5.566406 647.265625 7.246094 647.265625 10.371094 C 647.265625 13.496094 646.601562 15.097656 645.3125 15.097656 C 644.023438 15.097656 643.378906 13.496094 643.378906 10.390625 C 643.378906 7.226562 644.042969 5.566406 645.332031 5.566406 Z M 645.332031 5.566406 "/>
<path style=" stroke:none;fill-rule:nonzero;fill:rgb(0%,0%,0%);fill-opacity:1;" d="M 653.375 11.425781 L 653.375 12.382812 L 657.046875 12.382812 L 657.046875 11.425781 Z M 653.375 11.425781 "/>
<path style=" stroke:none;fill-rule:nonzero;fill:rgb(0%,0%,0%);fill-opacity:1;" d="M 662.121094 5.175781 L 659.425781 6.523438 L 659.425781 6.738281 C 659.601562 6.660156 659.777344 6.601562 659.835938 6.582031 C 660.089844 6.464844 660.34375 6.40625 660.5 6.40625 C 660.8125 6.40625 660.949219 6.640625 660.949219 7.109375 L 660.949219 13.886719 C 660.949219 14.375 660.832031 14.726562 660.597656 14.863281 C 660.363281 14.980469 660.148438 15.039062 659.523438 15.058594 L 659.523438 15.273438 L 663.644531 15.273438 L 663.644531 15.058594 C 662.472656 15.039062 662.238281 14.882812 662.238281 14.160156 L 662.238281 5.195312 Z M 662.121094 5.175781 "/>
<path style=" stroke:none;fill-rule:nonzero;fill:rgb(0%,0%,0%);fill-opacity:1;" d="M 667.113281 13.789062 C 666.664062 13.789062 666.292969 14.160156 666.292969 14.628906 C 666.292969 15.058594 666.664062 15.429688 667.09375 15.429688 C 667.5625 15.429688 667.933594 15.058594 667.933594 14.628906 C 667.933594 14.160156 667.5625 13.789062 667.113281 13.789062 Z M 667.113281 13.789062 "/>
</g>
</svg>
