<?xml version="1.0" encoding="UTF-8"?>
<svg xmlns="http://www.w3.org/2000/svg" xmlns:xlink="http://www.w3.org/1999/xlink" width="679.3819pt" height="20.605469pt" viewBox="0 0 679.3819 20.605469" version="1.1">
<g id="surface729">
<path style=" stroke:none;fill-rule:nonzero;fill:rgb(0%,0%,0%);fill-opacity:1;" d="M 5 11.425781 L 5 12.382812 L 8.671875 12.382812 L 8.671875 11.425781 Z M 5 11.425781 "/>
<path style=" stroke:none;fill-rule:nonzero;fill:rgb(0%,0%,0%);fill-opacity:1;" d="M 11.675781 10.351562 C 12.554688 10.351562 12.90625 10.371094 13.257812 10.507812 C 14.195312 10.839844 14.761719 11.679688 14.761719 12.714844 C 14.761719 13.964844 13.921875 14.941406 12.808594 14.941406 C 12.417969 14.941406 12.105469 14.84375 11.558594 14.472656 C 11.109375 14.21875 10.855469 14.101562 10.601562 14.101562 C 10.25 14.101562 10.035156 14.316406 10.035156 14.628906 C 10.035156 15.15625 10.679688 15.488281 11.714844 15.488281 C 12.867188 15.488281 14.058594 15.097656 14.761719 14.472656 C 15.464844 13.867188 15.835938 13.007812 15.835938 11.992188 C 15.835938 11.230469 15.601562 10.527344 15.171875 10.078125 C 14.878906 9.746094 14.585938 9.570312 13.941406 9.277344 C 14.957031 8.574219 15.328125 8.027344 15.328125 7.226562 C 15.328125 6.015625 14.390625 5.175781 13.003906 5.175781 C 12.261719 5.175781 11.597656 5.429688 11.070312 5.898438 C 10.621094 6.308594 10.386719 6.699219 10.054688 7.597656 L 10.289062 7.65625 C 10.894531 6.5625 11.578125 6.074219 12.515625 6.074219 C 13.492188 6.074219 14.15625 6.71875 14.15625 7.675781 C 14.15625 8.203125 13.941406 8.75 13.550781 9.121094 C 13.101562 9.570312 12.691406 9.785156 11.675781 10.15625 Z M 11.675781 10.351562 "/>
<path style=" stroke:none;fill-rule:nonzero;fill:rgb(0%,0%,0%);fill-opacity:1;" d="M 18.738281 13.789062 C 18.289062 13.789062 17.917969 14.160156 17.917969 14.628906 C 17.917969 15.058594 18.289062 15.429688 18.71875 15.429688 C 19.1875 15.429688 19.558594 15.058594 19.558594 14.628906 C 19.558594 14.160156 19.1875 13.789062 18.738281 13.789062 Z M 18.738281 13.789062 "/>
<path style=" stroke:none;fill-rule:nonzero;fill:rgb(0%,0%,0%);fill-opacity:1;" d="M 25.816406 11.425781 L 25.816406 12.382812 L 29.488281 12.382812 L 29.488281 11.425781 Z M 25.816406 11.425781 "/>
<path style=" stroke:none;fill-rule:nonzero;fill:rgb(0%,0%,0%);fill-opacity:1;" d="M 33.996094 5.175781 C 33.175781 5.175781 32.550781 5.429688 32.003906 5.957031 C 31.125 6.777344 30.558594 8.496094 30.558594 10.253906 C 30.558594 11.875 31.066406 13.632812 31.769531 14.472656 C 32.316406 15.117188 33.078125 15.488281 33.9375 15.488281 C 34.699219 15.488281 35.34375 15.234375 35.890625 14.707031 C 36.75 13.886719 37.316406 12.148438 37.316406 10.351562 C 37.316406 7.285156 35.96875 5.175781 33.996094 5.175781 Z M 33.957031 5.566406 C 35.207031 5.566406 35.890625 7.246094 35.890625 10.371094 C 35.890625 13.496094 35.226562 15.097656 33.9375 15.097656 C 32.648438 15.097656 32.003906 13.496094 32.003906 10.390625 C 32.003906 7.226562 32.667969 5.566406 33.957031 5.566406 Z M 33.957031 5.566406 "/>
<path style=" stroke:none;fill-rule:nonzero;fill:rgb(0%,0%,0%);fill-opacity:1;" d="M 39.554688 13.789062 C 39.105469 13.789062 38.734375 14.160156 38.734375 14.628906 C 38.734375 15.058594 39.105469 15.429688 39.535156 15.429688 C 40.003906 15.429688 40.375 15.058594 40.375 14.628906 C 40.375 14.160156 40.003906 13.789062 39.554688 13.789062 Z M 39.554688 13.789062 "/>
<path style=" stroke:none;fill-rule:nonzero;fill:rgb(0%,0%,0%);fill-opacity:1;" d="M 45.203125 5.175781 C 44.382812 5.175781 43.757812 5.429688 43.210938 5.957031 C 42.332031 6.777344 41.765625 8.496094 41.765625 10.253906 C 41.765625 11.875 42.273438 13.632812 42.976562 14.472656 C 43.523438 15.117188 44.285156 15.488281 45.144531 15.488281 C 45.90625 15.488281 46.550781 15.234375 47.097656 14.707031 C 47.957031 13.886719 48.523438 12.148438 48.523438 10.351562 C 48.523438 7.285156 47.175781 5.175781 45.203125 5.175781 Z M 45.164062 5.566406 C 46.414062 5.566406 47.097656 7.246094 47.097656 10.371094 C 47.097656 13.496094 46.433594 15.097656 45.144531 15.097656 C 43.855469 15.097656 43.210938 13.496094 43.210938 10.390625 C 43.210938 7.226562 43.875 5.566406 45.164062 5.566406 Z M 45.164062 5.566406 "/>
<path style=" stroke:none;fill-rule:nonzero;fill:rgb(0%,0%,0%);fill-opacity:1;" d="M 55.9375 11.816406 L 54.414062 11.816406 L 54.414062 5.175781 L 53.75 5.175781 L 49.0625 11.816406 L 49.0625 12.773438 L 53.261719 12.773438 L 53.261719 15.273438 L 54.414062 15.273438 L 54.414062 12.773438 L 55.9375 12.773438 Z M 53.242188 11.816406 L 49.667969 11.816406 L 53.242188 6.699219 Z M 53.242188 11.816406 "/>
<path style=" stroke:none;fill-rule:nonzero;fill:rgb(0%,0%,0%);fill-opacity:1;" d="M 57.238281 15.605469 C 58.917969 15.410156 59.738281 15.117188 60.753906 14.394531 C 62.296875 13.261719 63.214844 11.40625 63.214844 9.394531 C 63.214844 6.914062 61.847656 5.175781 59.914062 5.175781 C 58.136719 5.175781 56.808594 6.679688 56.808594 8.691406 C 56.808594 10.527344 57.882812 11.738281 59.503906 11.738281 C 60.324219 11.738281 60.949219 11.484375 61.730469 10.878906 C 61.125 13.320312 59.464844 14.921875 57.199219 15.3125 Z M 61.769531 9.960938 C 61.769531 10.273438 61.710938 10.410156 61.535156 10.527344 C 61.125 10.898438 60.578125 11.09375 60.03125 11.09375 C 58.898438 11.09375 58.175781 9.960938 58.175781 8.183594 C 58.175781 7.34375 58.429688 6.445312 58.742188 6.054688 C 58.996094 5.761719 59.367188 5.585938 59.796875 5.585938 C 61.105469 5.585938 61.769531 6.875 61.769531 9.394531 Z M 61.769531 9.960938 "/>
<path style=" stroke:none;fill-rule:nonzero;fill:rgb(0%,0%,0%);fill-opacity:1;" d="M 70.53125 5.390625 L 65.003906 5.390625 L 64.125 7.578125 L 64.378906 7.695312 C 65.023438 6.679688 65.296875 6.484375 66.117188 6.484375 L 69.359375 6.484375 L 66.410156 15.390625 L 67.367188 15.390625 L 70.53125 5.625 Z M 70.53125 5.390625 "/>
<path style=" stroke:none;fill-rule:nonzero;fill:rgb(0%,0%,0%);fill-opacity:1;" d="M 72.183594 15.605469 C 73.863281 15.410156 74.683594 15.117188 75.699219 14.394531 C 77.242188 13.261719 78.160156 11.40625 78.160156 9.394531 C 78.160156 6.914062 76.792969 5.175781 74.859375 5.175781 C 73.082031 5.175781 71.753906 6.679688 71.753906 8.691406 C 71.753906 10.527344 72.828125 11.738281 74.449219 11.738281 C 75.269531 11.738281 75.894531 11.484375 76.675781 10.878906 C 76.070312 13.320312 74.410156 14.921875 72.144531 15.3125 Z M 76.714844 9.960938 C 76.714844 10.273438 76.65625 10.410156 76.480469 10.527344 C 76.070312 10.898438 75.523438 11.09375 74.976562 11.09375 C 73.84375 11.09375 73.121094 9.960938 73.121094 8.183594 C 73.121094 7.34375 73.375 6.445312 73.6875 6.054688 C 73.941406 5.761719 74.3125 5.585938 74.742188 5.585938 C 76.050781 5.585938 76.714844 6.875 76.714844 9.394531 Z M 76.714844 9.960938 "/>
<path style=" stroke:none;fill-rule:nonzero;fill:rgb(0%,0%,0%);fill-opacity:1;" d="M 83.097656 11.425781 L 83.097656 12.382812 L 86.769531 12.382812 L 86.769531 11.425781 Z M 83.097656 11.425781 "/>
<path style=" stroke:none;fill-rule:nonzero;fill:rgb(0%,0%,0%);fill-opacity:1;" d="M 94.578125 13.222656 L 94.382812 13.144531 C 93.835938 14.003906 93.640625 14.140625 92.976562 14.140625 L 89.402344 14.140625 L 91.902344 11.503906 C 93.25 10.117188 93.816406 8.984375 93.816406 7.8125 C 93.816406 6.328125 92.605469 5.175781 91.0625 5.175781 C 90.242188 5.175781 89.460938 5.507812 88.914062 6.09375 C 88.425781 6.601562 88.210938 7.089844 87.957031 8.144531 L 88.269531 8.222656 C 88.855469 6.757812 89.402344 6.269531 90.4375 6.269531 C 91.6875 6.269531 92.546875 7.128906 92.546875 8.378906 C 92.546875 9.550781 91.84375 10.9375 90.59375 12.265625 L 87.9375 15.097656 L 87.9375 15.273438 L 93.757812 15.273438 Z M 94.578125 13.222656 "/>
<path style=" stroke:none;fill-rule:nonzero;fill:rgb(0%,0%,0%);fill-opacity:1;" d="M 96.835938 13.789062 C 96.386719 13.789062 96.015625 14.160156 96.015625 14.628906 C 96.015625 15.058594 96.386719 15.429688 96.816406 15.429688 C 97.285156 15.429688 97.65625 15.058594 97.65625 14.628906 C 97.65625 14.160156 97.285156 13.789062 96.835938 13.789062 Z M 96.835938 13.789062 "/>
<path style=" stroke:none;fill-rule:nonzero;fill:rgb(0%,0%,0%);fill-opacity:1;" d="M 103.03125 9.726562 C 104.515625 8.945312 105.023438 8.320312 105.023438 7.285156 C 105.023438 6.074219 103.949219 5.175781 102.464844 5.175781 C 100.824219 5.175781 99.613281 6.171875 99.613281 7.539062 C 99.613281 8.496094 99.90625 8.945312 101.46875 10.3125 C 99.867188 11.542969 99.535156 11.992188 99.535156 13.007812 C 99.535156 14.472656 100.707031 15.488281 102.40625 15.488281 C 104.203125 15.488281 105.335938 14.492188 105.335938 12.949219 C 105.335938 11.816406 104.828125 11.074219 103.03125 9.726562 Z M 102.757812 11.269531 C 103.851562 12.050781 104.203125 12.578125 104.203125 13.417969 C 104.203125 14.394531 103.539062 15.058594 102.5625 15.058594 C 101.429688 15.058594 100.667969 14.199219 100.667969 12.890625 C 100.667969 11.933594 101 11.308594 101.859375 10.605469 Z M 102.601562 9.453125 C 101.273438 8.59375 100.726562 7.910156 100.726562 7.070312 C 100.726562 6.210938 101.390625 5.585938 102.347656 5.585938 C 103.363281 5.585938 104.007812 6.25 104.007812 7.285156 C 104.007812 8.125 103.578125 8.808594 102.738281 9.375 C 102.660156 9.414062 102.660156 9.414062 102.601562 9.453125 Z M 102.601562 9.453125 "/>
<path style=" stroke:none;fill-rule:nonzero;fill:rgb(0%,0%,0%);fill-opacity:1;" d="M 110.488281 11.425781 L 110.488281 12.382812 L 114.160156 12.382812 L 114.160156 11.425781 Z M 110.488281 11.425781 "/>
<path style=" stroke:none;fill-rule:nonzero;fill:rgb(0%,0%,0%);fill-opacity:1;" d="M 118.667969 5.175781 C 117.847656 5.175781 117.222656 5.429688 116.675781 5.957031 C 115.796875 6.777344 115.230469 8.496094 115.230469 10.253906 C 115.230469 11.875 115.738281 13.632812 116.441406 14.472656 C 116.988281 15.117188 117.75 15.488281 118.609375 15.488281 C 119.371094 15.488281 120.015625 15.234375 120.5625 14.707031 C 121.421875 13.886719 121.988281 12.148438 121.988281 10.351562 C 121.988281 7.285156 120.640625 5.175781 118.667969 5.175781 Z M 118.628906 5.566406 C 119.878906 5.566406 120.5625 7.246094 120.5625 10.371094 C 120.5625 13.496094 119.898438 15.097656 118.609375 15.097656 C 117.320312 15.097656 116.675781 13.496094 116.675781 10.390625 C 116.675781 7.226562 117.339844 5.566406 118.628906 5.566406 Z M 118.628906 5.566406 "/>
<path style=" stroke:none;fill-rule:nonzero;fill:rgb(0%,0%,0%);fill-opacity:1;" d="M 124.226562 13.789062 C 123.777344 13.789062 123.40625 14.160156 123.40625 14.628906 C 123.40625 15.058594 123.777344 15.429688 124.207031 15.429688 C 124.675781 15.429688 125.046875 15.058594 125.046875 14.628906 C 125.046875 14.160156 124.675781 13.789062 124.226562 13.789062 Z M 124.226562 13.789062 "/>
<path style=" stroke:none;fill-rule:nonzero;fill:rgb(0%,0%,0%);fill-opacity:1;" d="M 129.878906 5.175781 C 129.058594 5.175781 128.433594 5.429688 127.886719 5.957031 C 127.007812 6.777344 126.441406 8.496094 126.441406 10.253906 C 126.441406 11.875 126.949219 13.632812 127.652344 14.472656 C 128.199219 15.117188 128.960938 15.488281 129.820312 15.488281 C 130.582031 15.488281 131.226562 15.234375 131.773438 14.707031 C 132.632812 13.886719 133.199219 12.148438 133.199219 10.351562 C 133.199219 7.285156 131.851562 5.175781 129.878906 5.175781 Z M 129.839844 5.566406 C 131.089844 5.566406 131.773438 7.246094 131.773438 10.371094 C 131.773438 13.496094 131.109375 15.097656 129.820312 15.097656 C 128.53125 15.097656 127.886719 13.496094 127.886719 10.390625 C 127.886719 7.226562 128.550781 5.566406 129.839844 5.566406 Z M 129.839844 5.566406 "/>
<path style=" stroke:none;fill-rule:nonzero;fill:rgb(0%,0%,0%);fill-opacity:1;" d="M 140.21875 5.058594 C 138.519531 5.195312 137.660156 5.488281 136.566406 6.25 C 134.945312 7.402344 134.066406 9.101562 134.066406 11.113281 C 134.066406 12.402344 134.476562 13.710938 135.121094 14.472656 C 135.6875 15.117188 136.488281 15.488281 137.40625 15.488281 C 139.261719 15.488281 140.550781 14.0625 140.550781 11.992188 C 140.550781 10.097656 139.457031 8.886719 137.738281 8.886719 C 137.09375 8.886719 136.761719 8.984375 135.824219 9.550781 C 136.234375 7.285156 137.914062 5.683594 140.257812 5.292969 Z M 137.171875 9.570312 C 138.460938 9.570312 139.203125 10.644531 139.203125 12.5 C 139.203125 14.160156 138.617188 15.058594 137.582031 15.058594 C 136.253906 15.058594 135.453125 13.652344 135.453125 11.347656 C 135.453125 10.585938 135.570312 10.15625 135.882812 9.941406 C 136.195312 9.707031 136.644531 9.570312 137.171875 9.570312 Z M 137.171875 9.570312 "/>
<path style=" stroke:none;fill-rule:nonzero;fill:rgb(0%,0%,0%);fill-opacity:1;" d="M 144.820312 5.175781 C 144 5.175781 143.375 5.429688 142.828125 5.957031 C 141.949219 6.777344 141.382812 8.496094 141.382812 10.253906 C 141.382812 11.875 141.890625 13.632812 142.59375 14.472656 C 143.140625 15.117188 143.902344 15.488281 144.761719 15.488281 C 145.523438 15.488281 146.167969 15.234375 146.714844 14.707031 C 147.574219 13.886719 148.140625 12.148438 148.140625 10.351562 C 148.140625 7.285156 146.792969 5.175781 144.820312 5.175781 Z M 144.78125 5.566406 C 146.03125 5.566406 146.714844 7.246094 146.714844 10.371094 C 146.714844 13.496094 146.050781 15.097656 144.761719 15.097656 C 143.472656 15.097656 142.828125 13.496094 142.828125 10.390625 C 142.828125 7.226562 143.492188 5.566406 144.78125 5.566406 Z M 144.78125 5.566406 "/>
<path style=" stroke:none;fill-rule:nonzero;fill:rgb(0%,0%,0%);fill-opacity:1;" d="M 152.839844 9.726562 C 154.324219 8.945312 154.832031 8.320312 154.832031 7.285156 C 154.832031 6.074219 153.757812 5.175781 152.273438 5.175781 C 150.632812 5.175781 149.421875 6.171875 149.421875 7.539062 C 149.421875 8.496094 149.714844 8.945312 151.277344 10.3125 C 149.675781 11.542969 149.34375 11.992188 149.34375 13.007812 C 149.34375 14.472656 150.515625 15.488281 152.214844 15.488281 C 154.011719 15.488281 155.144531 14.492188 155.144531 12.949219 C 155.144531 11.816406 154.636719 11.074219 152.839844 9.726562 Z M 152.566406 11.269531 C 153.660156 12.050781 154.011719 12.578125 154.011719 13.417969 C 154.011719 14.394531 153.347656 15.058594 152.371094 15.058594 C 151.238281 15.058594 150.476562 14.199219 150.476562 12.890625 C 150.476562 11.933594 150.808594 11.308594 151.667969 10.605469 Z M 152.410156 9.453125 C 151.082031 8.59375 150.535156 7.910156 150.535156 7.070312 C 150.535156 6.210938 151.199219 5.585938 152.15625 5.585938 C 153.171875 5.585938 153.816406 6.25 153.816406 7.285156 C 153.816406 8.125 153.386719 8.808594 152.546875 9.375 C 152.46875 9.414062 152.46875 9.414062 152.410156 9.453125 Z M 152.410156 9.453125 "/>
<path style=" stroke:none;fill-rule:nonzero;fill:rgb(0%,0%,0%);fill-opacity:1;" d="M 160.332031 5.175781 L 157.636719 6.523438 L 157.636719 6.738281 C 157.8125 6.660156 157.988281 6.601562 158.046875 6.582031 C 158.300781 6.464844 158.554688 6.40625 158.710938 6.40625 C 159.023438 6.40625 159.160156 6.640625 159.160156 7.109375 L 159.160156 13.886719 C 159.160156 14.375 159.042969 14.726562 158.808594 14.863281 C 158.574219 14.980469 158.359375 15.039062 157.734375 15.058594 L 157.734375 15.273438 L 161.855469 15.273438 L 161.855469 15.058594 C 160.683594 15.039062 160.449219 14.882812 160.449219 14.160156 L 160.449219 5.195312 Z M 160.332031 5.175781 "/>
<path style=" stroke:none;fill-rule:nonzero;fill:rgb(0%,0%,0%);fill-opacity:1;" d="M 167.769531 11.425781 L 167.769531 12.382812 L 171.441406 12.382812 L 171.441406 11.425781 Z M 167.769531 11.425781 "/>
<path style=" stroke:none;fill-rule:nonzero;fill:rgb(0%,0%,0%);fill-opacity:1;" d="M 179.25 13.222656 L 179.054688 13.144531 C 178.507812 14.003906 178.3125 14.140625 177.648438 14.140625 L 174.074219 14.140625 L 176.574219 11.503906 C 177.921875 10.117188 178.488281 8.984375 178.488281 7.8125 C 178.488281 6.328125 177.277344 5.175781 175.734375 5.175781 C 174.914062 5.175781 174.132812 5.507812 173.585938 6.09375 C 173.097656 6.601562 172.882812 7.089844 172.628906 8.144531 L 172.941406 8.222656 C 173.527344 6.757812 174.074219 6.269531 175.109375 6.269531 C 176.359375 6.269531 177.21875 7.128906 177.21875 8.378906 C 177.21875 9.550781 176.515625 10.9375 175.265625 12.265625 L 172.609375 15.097656 L 172.609375 15.273438 L 178.429688 15.273438 Z M 179.25 13.222656 "/>
<path style=" stroke:none;fill-rule:nonzero;fill:rgb(0%,0%,0%);fill-opacity:1;" d="M 181.507812 13.789062 C 181.058594 13.789062 180.6875 14.160156 180.6875 14.628906 C 180.6875 15.058594 181.058594 15.429688 181.488281 15.429688 C 181.957031 15.429688 182.328125 15.058594 182.328125 14.628906 C 182.328125 14.160156 181.957031 13.789062 181.507812 13.789062 Z M 181.507812 13.789062 "/>
<path style=" stroke:none;fill-rule:nonzero;fill:rgb(0%,0%,0%);fill-opacity:1;" d="M 190.027344 5.058594 C 188.328125 5.195312 187.46875 5.488281 186.375 6.25 C 184.753906 7.402344 183.875 9.101562 183.875 11.113281 C 183.875 12.402344 184.285156 13.710938 184.929688 14.472656 C 185.496094 15.117188 186.296875 15.488281 187.214844 15.488281 C 189.070312 15.488281 190.359375 14.0625 190.359375 11.992188 C 190.359375 10.097656 189.265625 8.886719 187.546875 8.886719 C 186.902344 8.886719 186.570312 8.984375 185.632812 9.550781 C 186.042969 7.285156 187.722656 5.683594 190.066406 5.292969 Z M 186.980469 9.570312 C 188.269531 9.570312 189.011719 10.644531 189.011719 12.5 C 189.011719 14.160156 188.425781 15.058594 187.390625 15.058594 C 186.0625 15.058594 185.261719 13.652344 185.261719 11.347656 C 185.261719 10.585938 185.378906 10.15625 185.691406 9.941406 C 186.003906 9.707031 186.453125 9.570312 186.980469 9.570312 Z M 186.980469 9.570312 "/>
<path style=" stroke:none;fill-rule:nonzero;fill:rgb(0%,0%,0%);fill-opacity:1;" d="M 195.164062 11.425781 L 195.164062 12.382812 L 198.835938 12.382812 L 198.835938 11.425781 Z M 195.164062 11.425781 "/>
<path style=" stroke:none;fill-rule:nonzero;fill:rgb(0%,0%,0%);fill-opacity:1;" d="M 203.34375 5.175781 C 202.523438 5.175781 201.898438 5.429688 201.351562 5.957031 C 200.472656 6.777344 199.90625 8.496094 199.90625 10.253906 C 199.90625 11.875 200.414062 13.632812 201.117188 14.472656 C 201.664062 15.117188 202.425781 15.488281 203.285156 15.488281 C 204.046875 15.488281 204.691406 15.234375 205.238281 14.707031 C 206.097656 13.886719 206.664062 12.148438 206.664062 10.351562 C 206.664062 7.285156 205.316406 5.175781 203.34375 5.175781 Z M 203.304688 5.566406 C 204.554688 5.566406 205.238281 7.246094 205.238281 10.371094 C 205.238281 13.496094 204.574219 15.097656 203.285156 15.097656 C 201.996094 15.097656 201.351562 13.496094 201.351562 10.390625 C 201.351562 7.226562 202.015625 5.566406 203.304688 5.566406 Z M 203.304688 5.566406 "/>
<path style=" stroke:none;fill-rule:nonzero;fill:rgb(0%,0%,0%);fill-opacity:1;" d="M 208.898438 13.789062 C 208.449219 13.789062 208.078125 14.160156 208.078125 14.628906 C 208.078125 15.058594 208.449219 15.429688 208.878906 15.429688 C 209.347656 15.429688 209.71875 15.058594 209.71875 14.628906 C 209.71875 14.160156 209.347656 13.789062 208.898438 13.789062 Z M 208.898438 13.789062 "/>
<path style=" stroke:none;fill-rule:nonzero;fill:rgb(0%,0%,0%);fill-opacity:1;" d="M 214.550781 5.175781 C 213.730469 5.175781 213.105469 5.429688 212.558594 5.957031 C 211.679688 6.777344 211.113281 8.496094 211.113281 10.253906 C 211.113281 11.875 211.621094 13.632812 212.324219 14.472656 C 212.871094 15.117188 213.632812 15.488281 214.492188 15.488281 C 215.253906 15.488281 215.898438 15.234375 216.445312 14.707031 C 217.304688 13.886719 217.871094 12.148438 217.871094 10.351562 C 217.871094 7.285156 216.523438 5.175781 214.550781 5.175781 Z M 214.511719 5.566406 C 215.761719 5.566406 216.445312 7.246094 216.445312 10.371094 C 216.445312 13.496094 215.78125 15.097656 214.492188 15.097656 C 213.203125 15.097656 212.558594 13.496094 212.558594 10.390625 C 212.558594 7.226562 213.222656 5.566406 214.511719 5.566406 Z M 214.511719 5.566406 "/>
<path style=" stroke:none;fill-rule:nonzero;fill:rgb(0%,0%,0%);fill-opacity:1;" d="M 224.933594 5.390625 L 219.40625 5.390625 L 218.527344 7.578125 L 218.78125 7.695312 C 219.425781 6.679688 219.699219 6.484375 220.519531 6.484375 L 223.761719 6.484375 L 220.8125 15.390625 L 221.769531 15.390625 L 224.933594 5.625 Z M 224.933594 5.390625 "/>
<path style=" stroke:none;fill-rule:nonzero;fill:rgb(0%,0%,0%);fill-opacity:1;" d="M 232.753906 11.816406 L 231.230469 11.816406 L 231.230469 5.175781 L 230.566406 5.175781 L 225.878906 11.816406 L 225.878906 12.773438 L 230.078125 12.773438 L 230.078125 15.273438 L 231.230469 15.273438 L 231.230469 12.773438 L 232.753906 12.773438 Z M 230.058594 11.816406 L 226.484375 11.816406 L 230.058594 6.699219 Z M 230.058594 11.816406 "/>
<path style=" stroke:none;fill-rule:nonzero;fill:rgb(0%,0%,0%);fill-opacity:1;" d="M 240.265625 13.222656 L 240.070312 13.144531 C 239.523438 14.003906 239.328125 14.140625 238.664062 14.140625 L 235.089844 14.140625 L 237.589844 11.503906 C 238.9375 10.117188 239.503906 8.984375 239.503906 7.8125 C 239.503906 6.328125 238.292969 5.175781 236.75 5.175781 C 235.929688 5.175781 235.148438 5.507812 234.601562 6.09375 C 234.113281 6.601562 233.898438 7.089844 233.644531 8.144531 L 233.957031 8.222656 C 234.542969 6.757812 235.089844 6.269531 236.125 6.269531 C 237.375 6.269531 238.234375 7.128906 238.234375 8.378906 C 238.234375 9.550781 237.53125 10.9375 236.28125 12.265625 L 233.625 15.097656 L 233.625 15.273438 L 239.445312 15.273438 Z M 240.265625 13.222656 "/>
<path style=" stroke:none;fill-rule:nonzero;fill:rgb(0%,0%,0%);fill-opacity:1;" d="M 247.347656 5.390625 L 241.820312 5.390625 L 240.941406 7.578125 L 241.195312 7.695312 C 241.839844 6.679688 242.113281 6.484375 242.933594 6.484375 L 246.175781 6.484375 L 243.226562 15.390625 L 244.183594 15.390625 L 247.347656 5.625 Z M 247.347656 5.390625 "/>
<path style=" stroke:none;fill-rule:nonzero;fill:rgb(0%,0%,0%);fill-opacity:1;" d="M 252.441406 11.425781 L 252.441406 12.382812 L 256.113281 12.382812 L 256.113281 11.425781 Z M 252.441406 11.425781 "/>
<path style=" stroke:none;fill-rule:nonzero;fill:rgb(0%,0%,0%);fill-opacity:1;" d="M 263.921875 13.222656 L 263.726562 13.144531 C 263.179688 14.003906 262.984375 14.140625 262.320312 14.140625 L 258.746094 14.140625 L 261.246094 11.503906 C 262.59375 10.117188 263.160156 8.984375 263.160156 7.8125 C 263.160156 6.328125 261.949219 5.175781 260.40625 5.175781 C 259.585938 5.175781 258.804688 5.507812 258.257812 6.09375 C 257.769531 6.601562 257.554688 7.089844 257.300781 8.144531 L 257.613281 8.222656 C 258.199219 6.757812 258.746094 6.269531 259.78125 6.269531 C 261.03125 6.269531 261.890625 7.128906 261.890625 8.378906 C 261.890625 9.550781 261.1875 10.9375 259.9375 12.265625 L 257.28125 15.097656 L 257.28125 15.273438 L 263.101562 15.273438 Z M 263.921875 13.222656 "/>
<path style=" stroke:none;fill-rule:nonzero;fill:rgb(0%,0%,0%);fill-opacity:1;" d="M 266.179688 13.789062 C 265.730469 13.789062 265.359375 14.160156 265.359375 14.628906 C 265.359375 15.058594 265.730469 15.429688 266.160156 15.429688 C 266.628906 15.429688 267 15.058594 267 14.628906 C 267 14.160156 266.628906 13.789062 266.179688 13.789062 Z M 266.179688 13.789062 "/>
<path style=" stroke:none;fill-rule:nonzero;fill:rgb(0%,0%,0%);fill-opacity:1;" d="M 275.09375 11.816406 L 273.570312 11.816406 L 273.570312 5.175781 L 272.90625 5.175781 L 268.21875 11.816406 L 268.21875 12.773438 L 272.417969 12.773438 L 272.417969 15.273438 L 273.570312 15.273438 L 273.570312 12.773438 L 275.09375 12.773438 Z M 272.398438 11.816406 L 268.824219 11.816406 L 272.398438 6.699219 Z M 272.398438 11.816406 "/>
<path style=" stroke:none;fill-rule:nonzero;fill:rgb(0%,0%,0%);fill-opacity:1;" d="M 279.835938 11.425781 L 279.835938 12.382812 L 283.507812 12.382812 L 283.507812 11.425781 Z M 279.835938 11.425781 "/>
<path style=" stroke:none;fill-rule:nonzero;fill:rgb(0%,0%,0%);fill-opacity:1;" d="M 288.015625 5.175781 C 287.195312 5.175781 286.570312 5.429688 286.023438 5.957031 C 285.144531 6.777344 284.578125 8.496094 284.578125 10.253906 C 284.578125 11.875 285.085938 13.632812 285.789062 14.472656 C 286.335938 15.117188 287.097656 15.488281 287.957031 15.488281 C 288.71875 15.488281 289.363281 15.234375 289.910156 14.707031 C 290.769531 13.886719 291.335938 12.148438 291.335938 10.351562 C 291.335938 7.285156 289.988281 5.175781 288.015625 5.175781 Z M 287.976562 5.566406 C 289.226562 5.566406 289.910156 7.246094 289.910156 10.371094 C 289.910156 13.496094 289.246094 15.097656 287.957031 15.097656 C 286.667969 15.097656 286.023438 13.496094 286.023438 10.390625 C 286.023438 7.226562 286.6875 5.566406 287.976562 5.566406 Z M 287.976562 5.566406 "/>
<path style=" stroke:none;fill-rule:nonzero;fill:rgb(0%,0%,0%);fill-opacity:1;" d="M 293.574219 13.789062 C 293.125 13.789062 292.753906 14.160156 292.753906 14.628906 C 292.753906 15.058594 293.125 15.429688 293.554688 15.429688 C 294.023438 15.429688 294.394531 15.058594 294.394531 14.628906 C 294.394531 14.160156 294.023438 13.789062 293.574219 13.789062 Z M 293.574219 13.789062 "/>
<path style=" stroke:none;fill-rule:nonzero;fill:rgb(0%,0%,0%);fill-opacity:1;" d="M 299.222656 5.175781 C 298.402344 5.175781 297.777344 5.429688 297.230469 5.957031 C 296.351562 6.777344 295.785156 8.496094 295.785156 10.253906 C 295.785156 11.875 296.292969 13.632812 296.996094 14.472656 C 297.542969 15.117188 298.304688 15.488281 299.164062 15.488281 C 299.925781 15.488281 300.570312 15.234375 301.117188 14.707031 C 301.976562 13.886719 302.542969 12.148438 302.542969 10.351562 C 302.542969 7.285156 301.195312 5.175781 299.222656 5.175781 Z M 299.183594 5.566406 C 300.433594 5.566406 301.117188 7.246094 301.117188 10.371094 C 301.117188 13.496094 300.453125 15.097656 299.164062 15.097656 C 297.875 15.097656 297.230469 13.496094 297.230469 10.390625 C 297.230469 7.226562 297.894531 5.566406 299.183594 5.566406 Z M 299.183594 5.566406 "/>
<path style=" stroke:none;fill-rule:nonzero;fill:rgb(0%,0%,0%);fill-opacity:1;" d="M 303.785156 15.605469 C 305.464844 15.410156 306.285156 15.117188 307.300781 14.394531 C 308.84375 13.261719 309.761719 11.40625 309.761719 9.394531 C 309.761719 6.914062 308.394531 5.175781 306.460938 5.175781 C 304.683594 5.175781 303.355469 6.679688 303.355469 8.691406 C 303.355469 10.527344 304.429688 11.738281 306.050781 11.738281 C 306.871094 11.738281 307.496094 11.484375 308.277344 10.878906 C 307.671875 13.320312 306.011719 14.921875 303.746094 15.3125 Z M 308.316406 9.960938 C 308.316406 10.273438 308.257812 10.410156 308.082031 10.527344 C 307.671875 10.898438 307.125 11.09375 306.578125 11.09375 C 305.445312 11.09375 304.722656 9.960938 304.722656 8.183594 C 304.722656 7.34375 304.976562 6.445312 305.289062 6.054688 C 305.542969 5.761719 305.914062 5.585938 306.34375 5.585938 C 307.652344 5.585938 308.316406 6.875 308.316406 9.394531 Z M 308.316406 9.960938 "/>
<path style=" stroke:none;fill-rule:nonzero;fill:rgb(0%,0%,0%);fill-opacity:1;" d="M 314.167969 5.175781 C 313.347656 5.175781 312.722656 5.429688 312.175781 5.957031 C 311.296875 6.777344 310.730469 8.496094 310.730469 10.253906 C 310.730469 11.875 311.238281 13.632812 311.941406 14.472656 C 312.488281 15.117188 313.25 15.488281 314.109375 15.488281 C 314.871094 15.488281 315.515625 15.234375 316.0625 14.707031 C 316.921875 13.886719 317.488281 12.148438 317.488281 10.351562 C 317.488281 7.285156 316.140625 5.175781 314.167969 5.175781 Z M 314.128906 5.566406 C 315.378906 5.566406 316.0625 7.246094 316.0625 10.371094 C 316.0625 13.496094 315.398438 15.097656 314.109375 15.097656 C 312.820312 15.097656 312.175781 13.496094 312.175781 10.390625 C 312.175781 7.226562 312.839844 5.566406 314.128906 5.566406 Z M 314.128906 5.566406 "/>
<path style=" stroke:none;fill-rule:nonzero;fill:rgb(0%,0%,0%);fill-opacity:1;" d="M 324.546875 5.390625 L 319.019531 5.390625 L 318.140625 7.578125 L 318.394531 7.695312 C 319.039062 6.679688 319.3125 6.484375 320.132812 6.484375 L 323.375 6.484375 L 320.425781 15.390625 L 321.382812 15.390625 L 324.546875 5.625 Z M 324.546875 5.390625 "/>
<path style=" stroke:none;fill-rule:nonzero;fill:rgb(0%,0%,0%);fill-opacity:1;" d="M 332.410156 13.222656 L 332.214844 13.144531 C 331.667969 14.003906 331.472656 14.140625 330.808594 14.140625 L 327.234375 14.140625 L 329.734375 11.503906 C 331.082031 10.117188 331.648438 8.984375 331.648438 7.8125 C 331.648438 6.328125 330.4375 5.175781 328.894531 5.175781 C 328.074219 5.175781 327.292969 5.507812 326.746094 6.09375 C 326.257812 6.601562 326.042969 7.089844 325.789062 8.144531 L 326.101562 8.222656 C 326.6875 6.757812 327.234375 6.269531 328.269531 6.269531 C 329.519531 6.269531 330.378906 7.128906 330.378906 8.378906 C 330.378906 9.550781 329.675781 10.9375 328.425781 12.265625 L 325.769531 15.097656 L 325.769531 15.273438 L 331.589844 15.273438 Z M 332.410156 13.222656 "/>
<path style=" stroke:none;fill-rule:nonzero;fill:rgb(0%,0%,0%);fill-opacity:1;" d="M 337.117188 11.425781 L 337.117188 12.382812 L 340.789062 12.382812 L 340.789062 11.425781 Z M 337.117188 11.425781 "/>
<path style=" stroke:none;fill-rule:nonzero;fill:rgb(0%,0%,0%);fill-opacity:1;" d="M 348.597656 13.222656 L 348.402344 13.144531 C 347.855469 14.003906 347.660156 14.140625 346.996094 14.140625 L 343.421875 14.140625 L 345.921875 11.503906 C 347.269531 10.117188 347.835938 8.984375 347.835938 7.8125 C 347.835938 6.328125 346.625 5.175781 345.082031 5.175781 C 344.261719 5.175781 343.480469 5.507812 342.933594 6.09375 C 342.445312 6.601562 342.230469 7.089844 341.976562 8.144531 L 342.289062 8.222656 C 342.875 6.757812 343.421875 6.269531 344.457031 6.269531 C 345.707031 6.269531 346.566406 7.128906 346.566406 8.378906 C 346.566406 9.550781 345.863281 10.9375 344.613281 12.265625 L 341.957031 15.097656 L 341.957031 15.273438 L 347.777344 15.273438 Z M 348.597656 13.222656 "/>
<path style=" stroke:none;fill-rule:nonzero;fill:rgb(0%,0%,0%);fill-opacity:1;" d="M 350.851562 13.789062 C 350.402344 13.789062 350.03125 14.160156 350.03125 14.628906 C 350.03125 15.058594 350.402344 15.429688 350.832031 15.429688 C 351.300781 15.429688 351.671875 15.058594 351.671875 14.628906 C 351.671875 14.160156 351.300781 13.789062 350.851562 13.789062 Z M 350.851562 13.789062 "/>
<path style=" stroke:none;fill-rule:nonzero;fill:rgb(0%,0%,0%);fill-opacity:1;" d="M 359.804688 13.222656 L 359.609375 13.144531 C 359.0625 14.003906 358.867188 14.140625 358.203125 14.140625 L 354.628906 14.140625 L 357.128906 11.503906 C 358.476562 10.117188 359.042969 8.984375 359.042969 7.8125 C 359.042969 6.328125 357.832031 5.175781 356.289062 5.175781 C 355.46875 5.175781 354.6875 5.507812 354.140625 6.09375 C 353.652344 6.601562 353.4375 7.089844 353.183594 8.144531 L 353.496094 8.222656 C 354.082031 6.757812 354.628906 6.269531 355.664062 6.269531 C 356.914062 6.269531 357.773438 7.128906 357.773438 8.378906 C 357.773438 9.550781 357.070312 10.9375 355.820312 12.265625 L 353.164062 15.097656 L 353.164062 15.273438 L 358.984375 15.273438 Z M 359.804688 13.222656 "/>
<path style=" stroke:none;fill-rule:nonzero;fill:rgb(0%,0%,0%);fill-opacity:1;" d="M 364.507812 11.425781 L 364.507812 12.382812 L 368.179688 12.382812 L 368.179688 11.425781 Z M 364.507812 11.425781 "/>
<path style=" stroke:none;fill-rule:nonzero;fill:rgb(0%,0%,0%);fill-opacity:1;" d="M 370.773438 13.789062 C 370.324219 13.789062 369.953125 14.160156 369.953125 14.628906 C 369.953125 15.058594 370.324219 15.429688 370.753906 15.429688 C 371.222656 15.429688 371.59375 15.058594 371.59375 14.628906 C 371.59375 14.160156 371.222656 13.789062 370.773438 13.789062 Z M 370.773438 13.789062 "/>
<path style=" stroke:none;fill-rule:nonzero;fill:rgb(0%,0%,0%);fill-opacity:1;" d="M 376.988281 5.175781 L 374.292969 6.523438 L 374.292969 6.738281 C 374.46875 6.660156 374.644531 6.601562 374.703125 6.582031 C 374.957031 6.464844 375.210938 6.40625 375.367188 6.40625 C 375.679688 6.40625 375.816406 6.640625 375.816406 7.109375 L 375.816406 13.886719 C 375.816406 14.375 375.699219 14.726562 375.464844 14.863281 C 375.230469 14.980469 375.015625 15.039062 374.390625 15.058594 L 374.390625 15.273438 L 378.511719 15.273438 L 378.511719 15.058594 C 377.339844 15.039062 377.105469 14.882812 377.105469 14.160156 L 377.105469 5.195312 Z M 376.988281 5.175781 "/>
<path style=" stroke:none;fill-rule:nonzero;fill:rgb(0%,0%,0%);fill-opacity:1;" d="M 384.460938 5.175781 L 381.765625 6.523438 L 381.765625 6.738281 C 381.941406 6.660156 382.117188 6.601562 382.175781 6.582031 C 382.429688 6.464844 382.683594 6.40625 382.839844 6.40625 C 383.152344 6.40625 383.289062 6.640625 383.289062 7.109375 L 383.289062 13.886719 C 383.289062 14.375 383.171875 14.726562 382.9375 14.863281 C 382.703125 14.980469 382.488281 15.039062 381.863281 15.058594 L 381.863281 15.273438 L 385.984375 15.273438 L 385.984375 15.058594 C 384.8125 15.039062 384.578125 14.882812 384.578125 14.160156 L 384.578125 5.195312 Z M 384.460938 5.175781 "/>
<path style=" stroke:none;fill-rule:nonzero;fill:rgb(0%,0%,0%);fill-opacity:1;" d="M 391.367188 5.175781 C 390.546875 5.175781 389.921875 5.429688 389.375 5.957031 C 388.496094 6.777344 387.929688 8.496094 387.929688 10.253906 C 387.929688 11.875 388.4375 13.632812 389.140625 14.472656 C 389.6875 15.117188 390.449219 15.488281 391.308594 15.488281 C 392.070312 15.488281 392.714844 15.234375 393.261719 14.707031 C 394.121094 13.886719 394.6875 12.148438 394.6875 10.351562 C 394.6875 7.285156 393.339844 5.175781 391.367188 5.175781 Z M 391.328125 5.566406 C 392.578125 5.566406 393.261719 7.246094 393.261719 10.371094 C 393.261719 13.496094 392.597656 15.097656 391.308594 15.097656 C 390.019531 15.097656 389.375 13.496094 389.375 10.390625 C 389.375 7.226562 390.039062 5.566406 391.328125 5.566406 Z M 391.328125 5.566406 "/>
<path style=" stroke:none;fill-rule:nonzero;fill:rgb(0%,0%,0%);fill-opacity:1;" d="M 399.386719 9.726562 C 400.871094 8.945312 401.378906 8.320312 401.378906 7.285156 C 401.378906 6.074219 400.304688 5.175781 398.820312 5.175781 C 397.179688 5.175781 395.96875 6.171875 395.96875 7.539062 C 395.96875 8.496094 396.261719 8.945312 397.824219 10.3125 C 396.222656 11.542969 395.890625 11.992188 395.890625 13.007812 C 395.890625 14.472656 397.0625 15.488281 398.761719 15.488281 C 400.558594 15.488281 401.691406 14.492188 401.691406 12.949219 C 401.691406 11.816406 401.183594 11.074219 399.386719 9.726562 Z M 399.113281 11.269531 C 400.207031 12.050781 400.558594 12.578125 400.558594 13.417969 C 400.558594 14.394531 399.894531 15.058594 398.917969 15.058594 C 397.785156 15.058594 397.023438 14.199219 397.023438 12.890625 C 397.023438 11.933594 397.355469 11.308594 398.214844 10.605469 Z M 398.957031 9.453125 C 397.628906 8.59375 397.082031 7.910156 397.082031 7.070312 C 397.082031 6.210938 397.746094 5.585938 398.703125 5.585938 C 399.71875 5.585938 400.363281 6.25 400.363281 7.285156 C 400.363281 8.125 399.933594 8.808594 399.09375 9.375 C 399.015625 9.414062 399.015625 9.414062 398.957031 9.453125 Z M 398.957031 9.453125 "/>
<path style=" stroke:none;fill-rule:nonzero;fill:rgb(0%,0%,0%);fill-opacity:1;" d="M 406.84375 11.425781 L 406.84375 12.382812 L 410.515625 12.382812 L 410.515625 11.425781 Z M 406.84375 11.425781 "/>
<path style=" stroke:none;fill-rule:nonzero;fill:rgb(0%,0%,0%);fill-opacity:1;" d="M 418.324219 13.222656 L 418.128906 13.144531 C 417.582031 14.003906 417.386719 14.140625 416.722656 14.140625 L 413.148438 14.140625 L 415.648438 11.503906 C 416.996094 10.117188 417.5625 8.984375 417.5625 7.8125 C 417.5625 6.328125 416.351562 5.175781 414.808594 5.175781 C 413.988281 5.175781 413.207031 5.507812 412.660156 6.09375 C 412.171875 6.601562 411.957031 7.089844 411.703125 8.144531 L 412.015625 8.222656 C 412.601562 6.757812 413.148438 6.269531 414.183594 6.269531 C 415.433594 6.269531 416.292969 7.128906 416.292969 8.378906 C 416.292969 9.550781 415.589844 10.9375 414.339844 12.265625 L 411.683594 15.097656 L 411.683594 15.273438 L 417.503906 15.273438 Z M 418.324219 13.222656 "/>
<path style=" stroke:none;fill-rule:nonzero;fill:rgb(0%,0%,0%);fill-opacity:1;" d="M 420.582031 13.789062 C 420.132812 13.789062 419.761719 14.160156 419.761719 14.628906 C 419.761719 15.058594 420.132812 15.429688 420.5625 15.429688 C 421.03125 15.429688 421.402344 15.058594 421.402344 14.628906 C 421.402344 14.160156 421.03125 13.789062 420.582031 13.789062 Z M 420.582031 13.789062 "/>
<path style=" stroke:none;fill-rule:nonzero;fill:rgb(0%,0%,0%);fill-opacity:1;" d="M 427.660156 11.425781 L 427.660156 12.382812 L 431.332031 12.382812 L 431.332031 11.425781 Z M 427.660156 11.425781 "/>
<path style=" stroke:none;fill-rule:nonzero;fill:rgb(0%,0%,0%);fill-opacity:1;" d="M 433.925781 13.789062 C 433.476562 13.789062 433.105469 14.160156 433.105469 14.628906 C 433.105469 15.058594 433.476562 15.429688 433.90625 15.429688 C 434.375 15.429688 434.746094 15.058594 434.746094 14.628906 C 434.746094 14.160156 434.375 13.789062 433.925781 13.789062 Z M 433.925781 13.789062 "/>
<path style=" stroke:none;fill-rule:nonzero;fill:rgb(0%,0%,0%);fill-opacity:1;" d="M 440.144531 5.175781 L 437.449219 6.523438 L 437.449219 6.738281 C 437.625 6.660156 437.800781 6.601562 437.859375 6.582031 C 438.113281 6.464844 438.367188 6.40625 438.523438 6.40625 C 438.835938 6.40625 438.972656 6.640625 438.972656 7.109375 L 438.972656 13.886719 C 438.972656 14.375 438.855469 14.726562 438.621094 14.863281 C 438.386719 14.980469 438.171875 15.039062 437.546875 15.058594 L 437.546875 15.273438 L 441.667969 15.273438 L 441.667969 15.058594 C 440.496094 15.039062 440.261719 14.882812 440.261719 14.160156 L 440.261719 5.195312 Z M 440.144531 5.175781 "/>
<path style=" stroke:none;fill-rule:nonzero;fill:rgb(0%,0%,0%);fill-opacity:1;" d="M 445.542969 10.351562 C 446.421875 10.351562 446.773438 10.371094 447.125 10.507812 C 448.0625 10.839844 448.628906 11.679688 448.628906 12.714844 C 448.628906 13.964844 447.789062 14.941406 446.675781 14.941406 C 446.285156 14.941406 445.972656 14.84375 445.425781 14.472656 C 444.976562 14.21875 444.722656 14.101562 444.46875 14.101562 C 444.117188 14.101562 443.902344 14.316406 443.902344 14.628906 C 443.902344 15.15625 444.546875 15.488281 445.582031 15.488281 C 446.734375 15.488281 447.925781 15.097656 448.628906 14.472656 C 449.332031 13.867188 449.703125 13.007812 449.703125 11.992188 C 449.703125 11.230469 449.46875 10.527344 449.039062 10.078125 C 448.746094 9.746094 448.453125 9.570312 447.808594 9.277344 C 448.824219 8.574219 449.195312 8.027344 449.195312 7.226562 C 449.195312 6.015625 448.257812 5.175781 446.871094 5.175781 C 446.128906 5.175781 445.464844 5.429688 444.9375 5.898438 C 444.488281 6.308594 444.253906 6.699219 443.921875 7.597656 L 444.15625 7.65625 C 444.761719 6.5625 445.445312 6.074219 446.382812 6.074219 C 447.359375 6.074219 448.023438 6.71875 448.023438 7.675781 C 448.023438 8.203125 447.808594 8.75 447.417969 9.121094 C 446.96875 9.570312 446.558594 9.785156 445.542969 10.15625 Z M 445.542969 10.351562 "/>
<path style=" stroke:none;fill-rule:nonzero;fill:rgb(0%,0%,0%);fill-opacity:1;" d="M 453.425781 6.5625 L 456.355469 6.5625 C 456.609375 6.5625 456.667969 6.523438 456.707031 6.425781 L 457.273438 5.097656 L 457.136719 5 C 456.921875 5.3125 456.765625 5.390625 456.453125 5.390625 L 453.328125 5.390625 L 451.707031 8.925781 C 451.6875 8.945312 451.6875 8.964844 451.6875 9.003906 C 451.6875 9.082031 451.746094 9.121094 451.863281 9.121094 C 452.351562 9.121094 452.9375 9.21875 453.5625 9.414062 C 455.28125 9.960938 456.0625 10.898438 456.0625 12.382812 C 456.0625 13.808594 455.144531 14.921875 453.992188 14.921875 C 453.679688 14.921875 453.425781 14.824219 452.996094 14.492188 C 452.507812 14.160156 452.15625 14.003906 451.84375 14.003906 C 451.414062 14.003906 451.199219 14.179688 451.199219 14.550781 C 451.199219 15.117188 451.902344 15.488281 453.035156 15.488281 C 454.285156 15.488281 455.359375 15.078125 456.101562 14.316406 C 456.804688 13.652344 457.117188 12.792969 457.117188 11.660156 C 457.117188 10.585938 456.824219 9.902344 456.082031 9.140625 C 455.417969 8.496094 454.578125 8.144531 452.800781 7.832031 Z M 453.425781 6.5625 "/>
<path style=" stroke:none;fill-rule:nonzero;fill:rgb(0%,0%,0%);fill-opacity:1;" d="M 460.488281 10.351562 C 461.367188 10.351562 461.71875 10.371094 462.070312 10.507812 C 463.007812 10.839844 463.574219 11.679688 463.574219 12.714844 C 463.574219 13.964844 462.734375 14.941406 461.621094 14.941406 C 461.230469 14.941406 460.917969 14.84375 460.371094 14.472656 C 459.921875 14.21875 459.667969 14.101562 459.414062 14.101562 C 459.0625 14.101562 458.847656 14.316406 458.847656 14.628906 C 458.847656 15.15625 459.492188 15.488281 460.527344 15.488281 C 461.679688 15.488281 462.871094 15.097656 463.574219 14.472656 C 464.277344 13.867188 464.648438 13.007812 464.648438 11.992188 C 464.648438 11.230469 464.414062 10.527344 463.984375 10.078125 C 463.691406 9.746094 463.398438 9.570312 462.753906 9.277344 C 463.769531 8.574219 464.140625 8.027344 464.140625 7.226562 C 464.140625 6.015625 463.203125 5.175781 461.816406 5.175781 C 461.074219 5.175781 460.410156 5.429688 459.882812 5.898438 C 459.433594 6.308594 459.199219 6.699219 458.867188 7.597656 L 459.101562 7.65625 C 459.707031 6.5625 460.390625 6.074219 461.328125 6.074219 C 462.304688 6.074219 462.96875 6.71875 462.96875 7.675781 C 462.96875 8.203125 462.753906 8.75 462.363281 9.121094 C 461.914062 9.570312 461.503906 9.785156 460.488281 10.15625 Z M 460.488281 10.351562 "/>
<path style=" stroke:none;fill-rule:nonzero;fill:rgb(0%,0%,0%);fill-opacity:1;" d="M 469.996094 11.425781 L 469.996094 12.382812 L 473.667969 12.382812 L 473.667969 11.425781 Z M 469.996094 11.425781 "/>
<path style=" stroke:none;fill-rule:nonzero;fill:rgb(0%,0%,0%);fill-opacity:1;" d="M 478.742188 5.175781 L 476.046875 6.523438 L 476.046875 6.738281 C 476.222656 6.660156 476.398438 6.601562 476.457031 6.582031 C 476.710938 6.464844 476.964844 6.40625 477.121094 6.40625 C 477.433594 6.40625 477.570312 6.640625 477.570312 7.109375 L 477.570312 13.886719 C 477.570312 14.375 477.453125 14.726562 477.21875 14.863281 C 476.984375 14.980469 476.769531 15.039062 476.144531 15.058594 L 476.144531 15.273438 L 480.265625 15.273438 L 480.265625 15.058594 C 479.09375 15.039062 478.859375 14.882812 478.859375 14.160156 L 478.859375 5.195312 Z M 478.742188 5.175781 "/>
<path style=" stroke:none;fill-rule:nonzero;fill:rgb(0%,0%,0%);fill-opacity:1;" d="M 483.734375 13.789062 C 483.285156 13.789062 482.914062 14.160156 482.914062 14.628906 C 482.914062 15.058594 483.285156 15.429688 483.714844 15.429688 C 484.183594 15.429688 484.554688 15.058594 484.554688 14.628906 C 484.554688 14.160156 484.183594 13.789062 483.734375 13.789062 Z M 483.734375 13.789062 "/>
<path style=" stroke:none;fill-rule:nonzero;fill:rgb(0%,0%,0%);fill-opacity:1;" d="M 489.933594 9.726562 C 491.417969 8.945312 491.925781 8.320312 491.925781 7.285156 C 491.925781 6.074219 490.851562 5.175781 489.367188 5.175781 C 487.726562 5.175781 486.515625 6.171875 486.515625 7.539062 C 486.515625 8.496094 486.808594 8.945312 488.371094 10.3125 C 486.769531 11.542969 486.4375 11.992188 486.4375 13.007812 C 486.4375 14.472656 487.609375 15.488281 489.308594 15.488281 C 491.105469 15.488281 492.238281 14.492188 492.238281 12.949219 C 492.238281 11.816406 491.730469 11.074219 489.933594 9.726562 Z M 489.660156 11.269531 C 490.753906 12.050781 491.105469 12.578125 491.105469 13.417969 C 491.105469 14.394531 490.441406 15.058594 489.464844 15.058594 C 488.332031 15.058594 487.570312 14.199219 487.570312 12.890625 C 487.570312 11.933594 487.902344 11.308594 488.761719 10.605469 Z M 489.503906 9.453125 C 488.175781 8.59375 487.628906 7.910156 487.628906 7.070312 C 487.628906 6.210938 488.292969 5.585938 489.25 5.585938 C 490.265625 5.585938 490.910156 6.25 490.910156 7.285156 C 490.910156 8.125 490.480469 8.808594 489.640625 9.375 C 489.5625 9.414062 489.5625 9.414062 489.503906 9.453125 Z M 489.503906 9.453125 "/>
<path style=" stroke:none;fill-rule:nonzero;fill:rgb(0%,0%,0%);fill-opacity:1;" d="M 497.390625 11.425781 L 497.390625 12.382812 L 501.0625 12.382812 L 501.0625 11.425781 Z M 497.390625 11.425781 "/>
<path style=" stroke:none;fill-rule:nonzero;fill:rgb(0%,0%,0%);fill-opacity:1;" d="M 503.65625 13.789062 C 503.207031 13.789062 502.835938 14.160156 502.835938 14.628906 C 502.835938 15.058594 503.207031 15.429688 503.636719 15.429688 C 504.105469 15.429688 504.476562 15.058594 504.476562 14.628906 C 504.476562 14.160156 504.105469 13.789062 503.65625 13.789062 Z M 503.65625 13.789062 "/>
<path style=" stroke:none;fill-rule:nonzero;fill:rgb(0%,0%,0%);fill-opacity:1;" d="M 509.871094 5.175781 L 507.175781 6.523438 L 507.175781 6.738281 C 507.351562 6.660156 507.527344 6.601562 507.585938 6.582031 C 507.839844 6.464844 508.09375 6.40625 508.25 6.40625 C 508.5625 6.40625 508.699219 6.640625 508.699219 7.109375 L 508.699219 13.886719 C 508.699219 14.375 508.582031 14.726562 508.347656 14.863281 C 508.113281 14.980469 507.898438 15.039062 507.273438 15.058594 L 507.273438 15.273438 L 511.394531 15.273438 L 511.394531 15.058594 C 510.222656 15.039062 509.988281 14.882812 509.988281 14.160156 L 509.988281 5.195312 Z M 509.871094 5.175781 "/>
<path style=" stroke:none;fill-rule:nonzero;fill:rgb(0%,0%,0%);fill-opacity:1;" d="M 519.648438 5.058594 C 517.949219 5.195312 517.089844 5.488281 515.996094 6.25 C 514.375 7.402344 513.496094 9.101562 513.496094 11.113281 C 513.496094 12.402344 513.90625 13.710938 514.550781 14.472656 C 515.117188 15.117188 515.917969 15.488281 516.835938 15.488281 C 518.691406 15.488281 519.980469 14.0625 519.980469 11.992188 C 519.980469 10.097656 518.886719 8.886719 517.167969 8.886719 C 516.523438 8.886719 516.191406 8.984375 515.253906 9.550781 C 515.664062 7.285156 517.34375 5.683594 519.6875 5.292969 Z M 516.601562 9.570312 C 517.890625 9.570312 518.632812 10.644531 518.632812 12.5 C 518.632812 14.160156 518.046875 15.058594 517.011719 15.058594 C 515.683594 15.058594 514.882812 13.652344 514.882812 11.347656 C 514.882812 10.585938 515 10.15625 515.3125 9.941406 C 515.625 9.707031 516.074219 9.570312 516.601562 9.570312 Z M 516.601562 9.570312 "/>
<path style=" stroke:none;fill-rule:nonzero;fill:rgb(0%,0%,0%);fill-opacity:1;" d="M 523.15625 6.5625 L 526.085938 6.5625 C 526.339844 6.5625 526.398438 6.523438 526.4375 6.425781 L 527.003906 5.097656 L 526.867188 5 C 526.652344 5.3125 526.496094 5.390625 526.183594 5.390625 L 523.058594 5.390625 L 521.4375 8.925781 C 521.417969 8.945312 521.417969 8.964844 521.417969 9.003906 C 521.417969 9.082031 521.476562 9.121094 521.59375 9.121094 C 522.082031 9.121094 522.667969 9.21875 523.292969 9.414062 C 525.011719 9.960938 525.792969 10.898438 525.792969 12.382812 C 525.792969 13.808594 524.875 14.921875 523.722656 14.921875 C 523.410156 14.921875 523.15625 14.824219 522.726562 14.492188 C 522.238281 14.160156 521.886719 14.003906 521.574219 14.003906 C 521.144531 14.003906 520.929688 14.179688 520.929688 14.550781 C 520.929688 15.117188 521.632812 15.488281 522.765625 15.488281 C 524.015625 15.488281 525.089844 15.078125 525.832031 14.316406 C 526.535156 13.652344 526.847656 12.792969 526.847656 11.660156 C 526.847656 10.585938 526.554688 9.902344 525.8125 9.140625 C 525.148438 8.496094 524.308594 8.144531 522.53125 7.832031 Z M 523.15625 6.5625 "/>
<path style=" stroke:none;fill-rule:nonzero;fill:rgb(0%,0%,0%);fill-opacity:1;" d="M 530.21875 10.351562 C 531.097656 10.351562 531.449219 10.371094 531.800781 10.507812 C 532.738281 10.839844 533.304688 11.679688 533.304688 12.714844 C 533.304688 13.964844 532.464844 14.941406 531.351562 14.941406 C 530.960938 14.941406 530.648438 14.84375 530.101562 14.472656 C 529.652344 14.21875 529.398438 14.101562 529.144531 14.101562 C 528.792969 14.101562 528.578125 14.316406 528.578125 14.628906 C 528.578125 15.15625 529.222656 15.488281 530.257812 15.488281 C 531.410156 15.488281 532.601562 15.097656 533.304688 14.472656 C 534.007812 13.867188 534.378906 13.007812 534.378906 11.992188 C 534.378906 11.230469 534.144531 10.527344 533.714844 10.078125 C 533.421875 9.746094 533.128906 9.570312 532.484375 9.277344 C 533.5 8.574219 533.871094 8.027344 533.871094 7.226562 C 533.871094 6.015625 532.933594 5.175781 531.546875 5.175781 C 530.804688 5.175781 530.140625 5.429688 529.613281 5.898438 C 529.164062 6.308594 528.929688 6.699219 528.597656 7.597656 L 528.832031 7.65625 C 529.4375 6.5625 530.121094 6.074219 531.058594 6.074219 C 532.035156 6.074219 532.699219 6.71875 532.699219 7.675781 C 532.699219 8.203125 532.484375 8.75 532.09375 9.121094 C 531.644531 9.570312 531.234375 9.785156 530.21875 10.15625 Z M 530.21875 10.351562 "/>
<path style=" stroke:none;fill-rule:nonzero;fill:rgb(0%,0%,0%);fill-opacity:1;" d="M 539.726562 11.425781 L 539.726562 12.382812 L 543.398438 12.382812 L 543.398438 11.425781 Z M 539.726562 11.425781 "/>
<path style=" stroke:none;fill-rule:nonzero;fill:rgb(0%,0%,0%);fill-opacity:1;" d="M 548.472656 5.175781 L 545.777344 6.523438 L 545.777344 6.738281 C 545.953125 6.660156 546.128906 6.601562 546.1875 6.582031 C 546.441406 6.464844 546.695312 6.40625 546.851562 6.40625 C 547.164062 6.40625 547.300781 6.640625 547.300781 7.109375 L 547.300781 13.886719 C 547.300781 14.375 547.183594 14.726562 546.949219 14.863281 C 546.714844 14.980469 546.5 15.039062 545.875 15.058594 L 545.875 15.273438 L 549.996094 15.273438 L 549.996094 15.058594 C 548.824219 15.039062 548.589844 14.882812 548.589844 14.160156 L 548.589844 5.195312 Z M 548.472656 5.175781 "/>
<path style=" stroke:none;fill-rule:nonzero;fill:rgb(0%,0%,0%);fill-opacity:1;" d="M 553.464844 13.789062 C 553.015625 13.789062 552.644531 14.160156 552.644531 14.628906 C 552.644531 15.058594 553.015625 15.429688 553.445312 15.429688 C 553.914062 15.429688 554.285156 15.058594 554.285156 14.628906 C 554.285156 14.160156 553.914062 13.789062 553.464844 13.789062 Z M 553.464844 13.789062 "/>
<path style=" stroke:none;fill-rule:nonzero;fill:rgb(0%,0%,0%);fill-opacity:1;" d="M 561.984375 5.058594 C 560.285156 5.195312 559.425781 5.488281 558.332031 6.25 C 556.710938 7.402344 555.832031 9.101562 555.832031 11.113281 C 555.832031 12.402344 556.242188 13.710938 556.886719 14.472656 C 557.453125 15.117188 558.253906 15.488281 559.171875 15.488281 C 561.027344 15.488281 562.316406 14.0625 562.316406 11.992188 C 562.316406 10.097656 561.222656 8.886719 559.503906 8.886719 C 558.859375 8.886719 558.527344 8.984375 557.589844 9.550781 C 558 7.285156 559.679688 5.683594 562.023438 5.292969 Z M 558.9375 9.570312 C 560.226562 9.570312 560.96875 10.644531 560.96875 12.5 C 560.96875 14.160156 560.382812 15.058594 559.347656 15.058594 C 558.019531 15.058594 557.21875 13.652344 557.21875 11.347656 C 557.21875 10.585938 557.335938 10.15625 557.648438 9.941406 C 557.960938 9.707031 558.410156 9.570312 558.9375 9.570312 Z M 558.9375 9.570312 "/>
<path style=" stroke:none;fill-rule:nonzero;fill:rgb(0%,0%,0%);fill-opacity:1;" d="M 567.117188 11.425781 L 567.117188 12.382812 L 570.789062 12.382812 L 570.789062 11.425781 Z M 567.117188 11.425781 "/>
<path style=" stroke:none;fill-rule:nonzero;fill:rgb(0%,0%,0%);fill-opacity:1;" d="M 573.382812 13.789062 C 572.933594 13.789062 572.5625 14.160156 572.5625 14.628906 C 572.5625 15.058594 572.933594 15.429688 573.363281 15.429688 C 573.832031 15.429688 574.203125 15.058594 574.203125 14.628906 C 574.203125 14.160156 573.832031 13.789062 573.382812 13.789062 Z M 573.382812 13.789062 "/>
<path style=" stroke:none;fill-rule:nonzero;fill:rgb(0%,0%,0%);fill-opacity:1;" d="M 582.335938 13.222656 L 582.140625 13.144531 C 581.59375 14.003906 581.398438 14.140625 580.734375 14.140625 L 577.160156 14.140625 L 579.660156 11.503906 C 581.007812 10.117188 581.574219 8.984375 581.574219 7.8125 C 581.574219 6.328125 580.363281 5.175781 578.820312 5.175781 C 578 5.175781 577.21875 5.507812 576.671875 6.09375 C 576.183594 6.601562 575.96875 7.089844 575.714844 8.144531 L 576.027344 8.222656 C 576.613281 6.757812 577.160156 6.269531 578.195312 6.269531 C 579.445312 6.269531 580.304688 7.128906 580.304688 8.378906 C 580.304688 9.550781 579.601562 10.9375 578.351562 12.265625 L 575.695312 15.097656 L 575.695312 15.273438 L 581.515625 15.273438 Z M 582.335938 13.222656 "/>
<path style=" stroke:none;fill-rule:nonzero;fill:rgb(0%,0%,0%);fill-opacity:1;" d="M 586.507812 5.175781 C 585.6875 5.175781 585.0625 5.429688 584.515625 5.957031 C 583.636719 6.777344 583.070312 8.496094 583.070312 10.253906 C 583.070312 11.875 583.578125 13.632812 584.28125 14.472656 C 584.828125 15.117188 585.589844 15.488281 586.449219 15.488281 C 587.210938 15.488281 587.855469 15.234375 588.402344 14.707031 C 589.261719 13.886719 589.828125 12.148438 589.828125 10.351562 C 589.828125 7.285156 588.480469 5.175781 586.507812 5.175781 Z M 586.46875 5.566406 C 587.71875 5.566406 588.402344 7.246094 588.402344 10.371094 C 588.402344 13.496094 587.738281 15.097656 586.449219 15.097656 C 585.160156 15.097656 584.515625 13.496094 584.515625 10.390625 C 584.515625 7.226562 585.179688 5.566406 586.46875 5.566406 Z M 586.46875 5.566406 "/>
<path style=" stroke:none;fill-rule:nonzero;fill:rgb(0%,0%,0%);fill-opacity:1;" d="M 594.542969 5.175781 L 591.847656 6.523438 L 591.847656 6.738281 C 592.023438 6.660156 592.199219 6.601562 592.257812 6.582031 C 592.511719 6.464844 592.765625 6.40625 592.921875 6.40625 C 593.234375 6.40625 593.371094 6.640625 593.371094 7.109375 L 593.371094 13.886719 C 593.371094 14.375 593.253906 14.726562 593.019531 14.863281 C 592.785156 14.980469 592.570312 15.039062 591.945312 15.058594 L 591.945312 15.273438 L 596.066406 15.273438 L 596.066406 15.058594 C 594.894531 15.039062 594.660156 14.882812 594.660156 14.160156 L 594.660156 5.195312 Z M 594.542969 5.175781 "/>
<path style=" stroke:none;fill-rule:nonzero;fill:rgb(0%,0%,0%);fill-opacity:1;" d="M 598.539062 15.605469 C 600.21875 15.410156 601.039062 15.117188 602.054688 14.394531 C 603.597656 13.261719 604.515625 11.40625 604.515625 9.394531 C 604.515625 6.914062 603.148438 5.175781 601.214844 5.175781 C 599.4375 5.175781 598.109375 6.679688 598.109375 8.691406 C 598.109375 10.527344 599.183594 11.738281 600.804688 11.738281 C 601.625 11.738281 602.25 11.484375 603.03125 10.878906 C 602.425781 13.320312 600.765625 14.921875 598.5 15.3125 Z M 603.070312 9.960938 C 603.070312 10.273438 603.011719 10.410156 602.835938 10.527344 C 602.425781 10.898438 601.878906 11.09375 601.332031 11.09375 C 600.199219 11.09375 599.476562 9.960938 599.476562 8.183594 C 599.476562 7.34375 599.730469 6.445312 600.042969 6.054688 C 600.296875 5.761719 600.667969 5.585938 601.097656 5.585938 C 602.40625 5.585938 603.070312 6.875 603.070312 9.394531 Z M 603.070312 9.960938 "/>
<path style=" stroke:none;fill-rule:nonzero;fill:rgb(0%,0%,0%);fill-opacity:1;" d="M 609.453125 11.425781 L 609.453125 12.382812 L 613.125 12.382812 L 613.125 11.425781 Z M 609.453125 11.425781 "/>
<path style=" stroke:none;fill-rule:nonzero;fill:rgb(0%,0%,0%);fill-opacity:1;" d="M 618.199219 5.175781 L 615.503906 6.523438 L 615.503906 6.738281 C 615.679688 6.660156 615.855469 6.601562 615.914062 6.582031 C 616.167969 6.464844 616.421875 6.40625 616.578125 6.40625 C 616.890625 6.40625 617.027344 6.640625 617.027344 7.109375 L 617.027344 13.886719 C 617.027344 14.375 616.910156 14.726562 616.675781 14.863281 C 616.441406 14.980469 616.226562 15.039062 615.601562 15.058594 L 615.601562 15.273438 L 619.722656 15.273438 L 619.722656 15.058594 C 618.550781 15.039062 618.316406 14.882812 618.316406 14.160156 L 618.316406 5.195312 Z M 618.199219 5.175781 "/>
<path style=" stroke:none;fill-rule:nonzero;fill:rgb(0%,0%,0%);fill-opacity:1;" d="M 623.191406 13.789062 C 622.742188 13.789062 622.371094 14.160156 622.371094 14.628906 C 622.371094 15.058594 622.742188 15.429688 623.171875 15.429688 C 623.640625 15.429688 624.011719 15.058594 624.011719 14.628906 C 624.011719 14.160156 623.640625 13.789062 623.191406 13.789062 Z M 623.191406 13.789062 "/>
<path style=" stroke:none;fill-rule:nonzero;fill:rgb(0%,0%,0%);fill-opacity:1;" d="M 632.105469 11.816406 L 630.582031 11.816406 L 630.582031 5.175781 L 629.917969 5.175781 L 625.230469 11.816406 L 625.230469 12.773438 L 629.429688 12.773438 L 629.429688 15.273438 L 630.582031 15.273438 L 630.582031 12.773438 L 632.105469 12.773438 Z M 629.410156 11.816406 L 625.835938 11.816406 L 629.410156 6.699219 Z M 629.410156 11.816406 "/>
<path style=" stroke:none;fill-rule:nonzero;fill:rgb(0%,0%,0%);fill-opacity:1;" d="M 636.847656 11.425781 L 636.847656 12.382812 L 640.519531 12.382812 L 640.519531 11.425781 Z M 636.847656 11.425781 "/>
<path style=" stroke:none;fill-rule:nonzero;fill:rgb(0%,0%,0%);fill-opacity:1;" d="M 643.113281 13.789062 C 642.664062 13.789062 642.292969 14.160156 642.292969 14.628906 C 642.292969 15.058594 642.664062 15.429688 643.09375 15.429688 C 643.5625 15.429688 643.933594 15.058594 643.933594 14.628906 C 643.933594 14.160156 643.5625 13.789062 643.113281 13.789062 Z M 643.113281 13.789062 "/>
<path style=" stroke:none;fill-rule:nonzero;fill:rgb(0%,0%,0%);fill-opacity:1;" d="M 652.0625 13.222656 L 651.867188 13.144531 C 651.320312 14.003906 651.125 14.140625 650.460938 14.140625 L 646.886719 14.140625 L 649.386719 11.503906 C 650.734375 10.117188 651.300781 8.984375 651.300781 7.8125 C 651.300781 6.328125 650.089844 5.175781 648.546875 5.175781 C 647.726562 5.175781 646.945312 5.507812 646.398438 6.09375 C 645.910156 6.601562 645.695312 7.089844 645.441406 8.144531 L 645.753906 8.222656 C 646.339844 6.757812 646.886719 6.269531 647.921875 6.269531 C 649.171875 6.269531 650.03125 7.128906 650.03125 8.378906 C 650.03125 9.550781 649.328125 10.9375 648.078125 12.265625 L 645.421875 15.097656 L 645.421875 15.273438 L 651.242188 15.273438 Z M 652.0625 13.222656 "/>
<path style=" stroke:none;fill-rule:nonzero;fill:rgb(0%,0%,0%);fill-opacity:1;" d="M 659.496094 11.816406 L 657.972656 11.816406 L 657.972656 5.175781 L 657.308594 5.175781 L 652.621094 11.816406 L 652.621094 12.773438 L 656.820312 12.773438 L 656.820312 15.273438 L 657.972656 15.273438 L 657.972656 12.773438 L 659.496094 12.773438 Z M 656.800781 11.816406 L 653.226562 11.816406 L 656.800781 6.699219 Z M 656.800781 11.816406 "/>
<path style=" stroke:none;fill-rule:nonzero;fill:rgb(0%,0%,0%);fill-opacity:1;" d="M 666.578125 5.058594 C 664.878906 5.195312 664.019531 5.488281 662.925781 6.25 C 661.304688 7.402344 660.425781 9.101562 660.425781 11.113281 C 660.425781 12.402344 660.835938 13.710938 661.480469 14.472656 C 662.046875 15.117188 662.847656 15.488281 663.765625 15.488281 C 665.621094 15.488281 666.910156 14.0625 666.910156 11.992188 C 666.910156 10.097656 665.816406 8.886719 664.097656 8.886719 C 663.453125 8.886719 663.121094 8.984375 662.183594 9.550781 C 662.59375 7.285156 664.273438 5.683594 666.617188 5.292969 Z M 663.53125 9.570312 C 664.820312 9.570312 665.5625 10.644531 665.5625 12.5 C 665.5625 14.160156 664.976562 15.058594 663.941406 15.058594 C 662.613281 15.058594 661.8125 13.652344 661.8125 11.347656 C 661.8125 10.585938 661.929688 10.15625 662.242188 9.941406 C 662.554688 9.707031 663.003906 9.570312 663.53125 9.570312 Z M 663.53125 9.570312 "/>
<path style=" stroke:none;fill-rule:nonzero;fill:rgb(0%,0%,0%);fill-opacity:1;" d="M 674.050781 5.058594 C 672.351562 5.195312 671.492188 5.488281 670.398438 6.25 C 668.777344 7.402344 667.898438 9.101562 667.898438 11.113281 C 667.898438 12.402344 668.308594 13.710938 668.953125 14.472656 C 669.519531 15.117188 670.320312 15.488281 671.238281 15.488281 C 673.09375 15.488281 674.382812 14.0625 674.382812 11.992188 C 674.382812 10.097656 673.289062 8.886719 671.570312 8.886719 C 670.925781 8.886719 670.59375 8.984375 669.65625 9.550781 C 670.066406 7.285156 671.746094 5.683594 674.089844 5.292969 Z M 671.003906 9.570312 C 672.292969 9.570312 673.035156 10.644531 673.035156 12.5 C 673.035156 14.160156 672.449219 15.058594 671.414062 15.058594 C 670.085938 15.058594 669.285156 13.652344 669.285156 11.347656 C 669.285156 10.585938 669.402344 10.15625 669.714844 9.941406 C 670.027344 9.707031 670.476562 9.570312 671.003906 9.570312 Z M 671.003906 9.570312 "/>
</g>
</svg>
