<?xml version="1.0" encoding="UTF-8"?>
<svg xmlns="http://www.w3.org/2000/svg" xmlns:xlink="http://www.w3.org/1999/xlink" width="671.32945pt" height="20.605469pt" viewBox="0 0 671.32945 20.605469" version="1.1">
<g id="surface793">
<path style=" stroke:none;fill-rule:nonzero;fill:rgb(0%,0%,0%);fill-opacity:1;" d="M 8.4375 5.175781 C 7.617188 5.175781 6.992188 5.429688 6.445312 5.957031 C 5.566406 6.777344 5 8.496094 5 10.253906 C 5 11.875 5.507812 13.632812 6.210938 14.472656 C 6.757812 15.117188 7.519531 15.488281 8.378906 15.488281 C 9.140625 15.488281 9.785156 15.234375 10.332031 14.707031 C 11.191406 13.886719 11.757812 12.148438 11.757812 10.351562 C 11.757812 7.285156 10.410156 5.175781 8.4375 5.175781 Z M 8.398438 5.566406 C 9.648438 5.566406 10.332031 7.246094 10.332031 10.371094 C 10.332031 13.496094 9.667969 15.097656 8.378906 15.097656 C 7.089844 15.097656 6.445312 13.496094 6.445312 10.390625 C 6.445312 7.226562 7.109375 5.566406 8.398438 5.566406 Z M 8.398438 5.566406 "/>
<path style=" stroke:none;fill-rule:nonzero;fill:rgb(0%,0%,0%);fill-opacity:1;" d="M 16.441406 11.425781 L 16.441406 12.382812 L 20.113281 12.382812 L 20.113281 11.425781 Z M 16.441406 11.425781 "/>
<path style=" stroke:none;fill-rule:nonzero;fill:rgb(0%,0%,0%);fill-opacity:1;" d="M 22.707031 13.789062 C 22.257812 13.789062 21.886719 14.160156 21.886719 14.628906 C 21.886719 15.058594 22.257812 15.429688 22.6875 15.429688 C 23.15625 15.429688 23.527344 15.058594 23.527344 14.628906 C 23.527344 14.160156 23.15625 13.789062 22.707031 13.789062 Z M 22.707031 13.789062 "/>
<path style=" stroke:none;fill-rule:nonzero;fill:rgb(0%,0%,0%);fill-opacity:1;" d="M 28.359375 5.175781 C 27.539062 5.175781 26.914062 5.429688 26.367188 5.957031 C 25.488281 6.777344 24.921875 8.496094 24.921875 10.253906 C 24.921875 11.875 25.429688 13.632812 26.132812 14.472656 C 26.679688 15.117188 27.441406 15.488281 28.300781 15.488281 C 29.0625 15.488281 29.707031 15.234375 30.253906 14.707031 C 31.113281 13.886719 31.679688 12.148438 31.679688 10.351562 C 31.679688 7.285156 30.332031 5.175781 28.359375 5.175781 Z M 28.320312 5.566406 C 29.570312 5.566406 30.253906 7.246094 30.253906 10.371094 C 30.253906 13.496094 29.589844 15.097656 28.300781 15.097656 C 27.011719 15.097656 26.367188 13.496094 26.367188 10.390625 C 26.367188 7.226562 27.03125 5.566406 28.320312 5.566406 Z M 28.320312 5.566406 "/>
<path style=" stroke:none;fill-rule:nonzero;fill:rgb(0%,0%,0%);fill-opacity:1;" d="M 35.828125 5.175781 C 35.007812 5.175781 34.382812 5.429688 33.835938 5.957031 C 32.957031 6.777344 32.390625 8.496094 32.390625 10.253906 C 32.390625 11.875 32.898438 13.632812 33.601562 14.472656 C 34.148438 15.117188 34.910156 15.488281 35.769531 15.488281 C 36.53125 15.488281 37.175781 15.234375 37.722656 14.707031 C 38.582031 13.886719 39.148438 12.148438 39.148438 10.351562 C 39.148438 7.285156 37.800781 5.175781 35.828125 5.175781 Z M 35.789062 5.566406 C 37.039062 5.566406 37.722656 7.246094 37.722656 10.371094 C 37.722656 13.496094 37.058594 15.097656 35.769531 15.097656 C 34.480469 15.097656 33.835938 13.496094 33.835938 10.390625 C 33.835938 7.226562 34.5 5.566406 35.789062 5.566406 Z M 35.789062 5.566406 "/>
<path style=" stroke:none;fill-rule:nonzero;fill:rgb(0%,0%,0%);fill-opacity:1;" d="M 43.300781 5.175781 C 42.480469 5.175781 41.855469 5.429688 41.308594 5.957031 C 40.429688 6.777344 39.863281 8.496094 39.863281 10.253906 C 39.863281 11.875 40.371094 13.632812 41.074219 14.472656 C 41.621094 15.117188 42.382812 15.488281 43.242188 15.488281 C 44.003906 15.488281 44.648438 15.234375 45.195312 14.707031 C 46.054688 13.886719 46.621094 12.148438 46.621094 10.351562 C 46.621094 7.285156 45.273438 5.175781 43.300781 5.175781 Z M 43.261719 5.566406 C 44.511719 5.566406 45.195312 7.246094 45.195312 10.371094 C 45.195312 13.496094 44.53125 15.097656 43.242188 15.097656 C 41.953125 15.097656 41.308594 13.496094 41.308594 10.390625 C 41.308594 7.226562 41.972656 5.566406 43.261719 5.566406 Z M 43.261719 5.566406 "/>
<path style=" stroke:none;fill-rule:nonzero;fill:rgb(0%,0%,0%);fill-opacity:1;" d="M 51.339844 5.175781 L 48.644531 6.523438 L 48.644531 6.738281 C 48.820312 6.660156 48.996094 6.601562 49.054688 6.582031 C 49.308594 6.464844 49.5625 6.40625 49.71875 6.40625 C 50.03125 6.40625 50.167969 6.640625 50.167969 7.109375 L 50.167969 13.886719 C 50.167969 14.375 50.050781 14.726562 49.816406 14.863281 C 49.582031 14.980469 49.367188 15.039062 48.742188 15.058594 L 48.742188 15.273438 L 52.863281 15.273438 L 52.863281 15.058594 C 51.691406 15.039062 51.457031 14.882812 51.457031 14.160156 L 51.457031 5.195312 Z M 51.339844 5.175781 "/>
<path style=" stroke:none;fill-rule:nonzero;fill:rgb(0%,0%,0%);fill-opacity:1;" d="M 60.066406 13.789062 C 59.617188 13.789062 59.246094 14.160156 59.246094 14.628906 C 59.246094 15.058594 59.617188 15.429688 60.046875 15.429688 C 60.515625 15.429688 60.886719 15.058594 60.886719 14.628906 C 60.886719 14.160156 60.515625 13.789062 60.066406 13.789062 Z M 60.066406 13.789062 "/>
<path style=" stroke:none;fill-rule:nonzero;fill:rgb(0%,0%,0%);fill-opacity:1;" d="M 65.71875 5.175781 C 64.898438 5.175781 64.273438 5.429688 63.726562 5.957031 C 62.847656 6.777344 62.28125 8.496094 62.28125 10.253906 C 62.28125 11.875 62.789062 13.632812 63.492188 14.472656 C 64.039062 15.117188 64.800781 15.488281 65.660156 15.488281 C 66.421875 15.488281 67.066406 15.234375 67.613281 14.707031 C 68.472656 13.886719 69.039062 12.148438 69.039062 10.351562 C 69.039062 7.285156 67.691406 5.175781 65.71875 5.175781 Z M 65.679688 5.566406 C 66.929688 5.566406 67.613281 7.246094 67.613281 10.371094 C 67.613281 13.496094 66.949219 15.097656 65.660156 15.097656 C 64.371094 15.097656 63.726562 13.496094 63.726562 10.390625 C 63.726562 7.226562 64.390625 5.566406 65.679688 5.566406 Z M 65.679688 5.566406 "/>
<path style=" stroke:none;fill-rule:nonzero;fill:rgb(0%,0%,0%);fill-opacity:1;" d="M 76.453125 11.816406 L 74.929688 11.816406 L 74.929688 5.175781 L 74.265625 5.175781 L 69.578125 11.816406 L 69.578125 12.773438 L 73.777344 12.773438 L 73.777344 15.273438 L 74.929688 15.273438 L 74.929688 12.773438 L 76.453125 12.773438 Z M 73.757812 11.816406 L 70.183594 11.816406 L 73.757812 6.699219 Z M 73.757812 11.816406 "/>
<path style=" stroke:none;fill-rule:nonzero;fill:rgb(0%,0%,0%);fill-opacity:1;" d="M 80.660156 5.175781 C 79.839844 5.175781 79.214844 5.429688 78.667969 5.957031 C 77.789062 6.777344 77.222656 8.496094 77.222656 10.253906 C 77.222656 11.875 77.730469 13.632812 78.433594 14.472656 C 78.980469 15.117188 79.742188 15.488281 80.601562 15.488281 C 81.363281 15.488281 82.007812 15.234375 82.554688 14.707031 C 83.414062 13.886719 83.980469 12.148438 83.980469 10.351562 C 83.980469 7.285156 82.632812 5.175781 80.660156 5.175781 Z M 80.621094 5.566406 C 81.871094 5.566406 82.554688 7.246094 82.554688 10.371094 C 82.554688 13.496094 81.890625 15.097656 80.601562 15.097656 C 79.3125 15.097656 78.667969 13.496094 78.667969 10.390625 C 78.667969 7.226562 79.332031 5.566406 80.621094 5.566406 Z M 80.621094 5.566406 "/>
<path style=" stroke:none;fill-rule:nonzero;fill:rgb(0%,0%,0%);fill-opacity:1;" d="M 89.957031 13.789062 C 89.507812 13.789062 89.136719 14.160156 89.136719 14.628906 C 89.136719 15.058594 89.507812 15.429688 89.9375 15.429688 C 90.40625 15.429688 90.777344 15.058594 90.777344 14.628906 C 90.777344 14.160156 90.40625 13.789062 89.957031 13.789062 Z M 89.957031 13.789062 "/>
<path style=" stroke:none;fill-rule:nonzero;fill:rgb(0%,0%,0%);fill-opacity:1;" d="M 95.605469 5.175781 C 94.785156 5.175781 94.160156 5.429688 93.613281 5.957031 C 92.734375 6.777344 92.167969 8.496094 92.167969 10.253906 C 92.167969 11.875 92.675781 13.632812 93.378906 14.472656 C 93.925781 15.117188 94.6875 15.488281 95.546875 15.488281 C 96.308594 15.488281 96.953125 15.234375 97.5 14.707031 C 98.359375 13.886719 98.925781 12.148438 98.925781 10.351562 C 98.925781 7.285156 97.578125 5.175781 95.605469 5.175781 Z M 95.566406 5.566406 C 96.816406 5.566406 97.5 7.246094 97.5 10.371094 C 97.5 13.496094 96.835938 15.097656 95.546875 15.097656 C 94.257812 15.097656 93.613281 13.496094 93.613281 10.390625 C 93.613281 7.226562 94.277344 5.566406 95.566406 5.566406 Z M 95.566406 5.566406 "/>
<path style=" stroke:none;fill-rule:nonzero;fill:rgb(0%,0%,0%);fill-opacity:1;" d="M 103.078125 5.175781 C 102.257812 5.175781 101.632812 5.429688 101.085938 5.957031 C 100.207031 6.777344 99.640625 8.496094 99.640625 10.253906 C 99.640625 11.875 100.148438 13.632812 100.851562 14.472656 C 101.398438 15.117188 102.160156 15.488281 103.019531 15.488281 C 103.78125 15.488281 104.425781 15.234375 104.972656 14.707031 C 105.832031 13.886719 106.398438 12.148438 106.398438 10.351562 C 106.398438 7.285156 105.050781 5.175781 103.078125 5.175781 Z M 103.039062 5.566406 C 104.289062 5.566406 104.972656 7.246094 104.972656 10.371094 C 104.972656 13.496094 104.308594 15.097656 103.019531 15.097656 C 101.730469 15.097656 101.085938 13.496094 101.085938 10.390625 C 101.085938 7.226562 101.75 5.566406 103.039062 5.566406 Z M 103.039062 5.566406 "/>
<path style=" stroke:none;fill-rule:nonzero;fill:rgb(0%,0%,0%);fill-opacity:1;" d="M 110.550781 5.175781 C 109.730469 5.175781 109.105469 5.429688 108.558594 5.957031 C 107.679688 6.777344 107.113281 8.496094 107.113281 10.253906 C 107.113281 11.875 107.621094 13.632812 108.324219 14.472656 C 108.871094 15.117188 109.632812 15.488281 110.492188 15.488281 C 111.253906 15.488281 111.898438 15.234375 112.445312 14.707031 C 113.304688 13.886719 113.871094 12.148438 113.871094 10.351562 C 113.871094 7.285156 112.523438 5.175781 110.550781 5.175781 Z M 110.511719 5.566406 C 111.761719 5.566406 112.445312 7.246094 112.445312 10.371094 C 112.445312 13.496094 111.78125 15.097656 110.492188 15.097656 C 109.203125 15.097656 108.558594 13.496094 108.558594 10.390625 C 108.558594 7.226562 109.222656 5.566406 110.511719 5.566406 Z M 110.511719 5.566406 "/>
<path style=" stroke:none;fill-rule:nonzero;fill:rgb(0%,0%,0%);fill-opacity:1;" d="M 116.929688 6.5625 L 119.859375 6.5625 C 120.113281 6.5625 120.171875 6.523438 120.210938 6.425781 L 120.777344 5.097656 L 120.640625 5 C 120.425781 5.3125 120.269531 5.390625 119.957031 5.390625 L 116.832031 5.390625 L 115.210938 8.925781 C 115.191406 8.945312 115.191406 8.964844 115.191406 9.003906 C 115.191406 9.082031 115.25 9.121094 115.367188 9.121094 C 115.855469 9.121094 116.441406 9.21875 117.066406 9.414062 C 118.785156 9.960938 119.566406 10.898438 119.566406 12.382812 C 119.566406 13.808594 118.648438 14.921875 117.496094 14.921875 C 117.183594 14.921875 116.929688 14.824219 116.5 14.492188 C 116.011719 14.160156 115.660156 14.003906 115.347656 14.003906 C 114.917969 14.003906 114.703125 14.179688 114.703125 14.550781 C 114.703125 15.117188 115.40625 15.488281 116.539062 15.488281 C 117.789062 15.488281 118.863281 15.078125 119.605469 14.316406 C 120.308594 13.652344 120.621094 12.792969 120.621094 11.660156 C 120.621094 10.585938 120.328125 9.902344 119.585938 9.140625 C 118.921875 8.496094 118.082031 8.144531 116.304688 7.832031 Z M 116.929688 6.5625 "/>
<path style=" stroke:none;fill-rule:nonzero;fill:rgb(0%,0%,0%);fill-opacity:1;" d="M 127.316406 13.789062 C 126.867188 13.789062 126.496094 14.160156 126.496094 14.628906 C 126.496094 15.058594 126.867188 15.429688 127.296875 15.429688 C 127.765625 15.429688 128.136719 15.058594 128.136719 14.628906 C 128.136719 14.160156 127.765625 13.789062 127.316406 13.789062 Z M 127.316406 13.789062 "/>
<path style=" stroke:none;fill-rule:nonzero;fill:rgb(0%,0%,0%);fill-opacity:1;" d="M 132.964844 5.175781 C 132.144531 5.175781 131.519531 5.429688 130.972656 5.957031 C 130.09375 6.777344 129.527344 8.496094 129.527344 10.253906 C 129.527344 11.875 130.035156 13.632812 130.738281 14.472656 C 131.285156 15.117188 132.046875 15.488281 132.90625 15.488281 C 133.667969 15.488281 134.3125 15.234375 134.859375 14.707031 C 135.71875 13.886719 136.285156 12.148438 136.285156 10.351562 C 136.285156 7.285156 134.9375 5.175781 132.964844 5.175781 Z M 132.925781 5.566406 C 134.175781 5.566406 134.859375 7.246094 134.859375 10.371094 C 134.859375 13.496094 134.195312 15.097656 132.90625 15.097656 C 131.617188 15.097656 130.972656 13.496094 130.972656 10.390625 C 130.972656 7.226562 131.636719 5.566406 132.925781 5.566406 Z M 132.925781 5.566406 "/>
<path style=" stroke:none;fill-rule:nonzero;fill:rgb(0%,0%,0%);fill-opacity:1;" d="M 140.984375 9.726562 C 142.46875 8.945312 142.976562 8.320312 142.976562 7.285156 C 142.976562 6.074219 141.902344 5.175781 140.417969 5.175781 C 138.777344 5.175781 137.566406 6.171875 137.566406 7.539062 C 137.566406 8.496094 137.859375 8.945312 139.421875 10.3125 C 137.820312 11.542969 137.488281 11.992188 137.488281 13.007812 C 137.488281 14.472656 138.660156 15.488281 140.359375 15.488281 C 142.15625 15.488281 143.289062 14.492188 143.289062 12.949219 C 143.289062 11.816406 142.78125 11.074219 140.984375 9.726562 Z M 140.710938 11.269531 C 141.804688 12.050781 142.15625 12.578125 142.15625 13.417969 C 142.15625 14.394531 141.492188 15.058594 140.515625 15.058594 C 139.382812 15.058594 138.621094 14.199219 138.621094 12.890625 C 138.621094 11.933594 138.953125 11.308594 139.8125 10.605469 Z M 140.554688 9.453125 C 139.226562 8.59375 138.679688 7.910156 138.679688 7.070312 C 138.679688 6.210938 139.34375 5.585938 140.300781 5.585938 C 141.316406 5.585938 141.960938 6.25 141.960938 7.285156 C 141.960938 8.125 141.53125 8.808594 140.691406 9.375 C 140.613281 9.414062 140.613281 9.414062 140.554688 9.453125 Z M 140.554688 9.453125 "/>
<path style=" stroke:none;fill-rule:nonzero;fill:rgb(0%,0%,0%);fill-opacity:1;" d="M 147.910156 5.175781 C 147.089844 5.175781 146.464844 5.429688 145.917969 5.957031 C 145.039062 6.777344 144.472656 8.496094 144.472656 10.253906 C 144.472656 11.875 144.980469 13.632812 145.683594 14.472656 C 146.230469 15.117188 146.992188 15.488281 147.851562 15.488281 C 148.613281 15.488281 149.257812 15.234375 149.804688 14.707031 C 150.664062 13.886719 151.230469 12.148438 151.230469 10.351562 C 151.230469 7.285156 149.882812 5.175781 147.910156 5.175781 Z M 147.871094 5.566406 C 149.121094 5.566406 149.804688 7.246094 149.804688 10.371094 C 149.804688 13.496094 149.140625 15.097656 147.851562 15.097656 C 146.5625 15.097656 145.917969 13.496094 145.917969 10.390625 C 145.917969 7.226562 146.582031 5.566406 147.871094 5.566406 Z M 147.871094 5.566406 "/>
<path style=" stroke:none;fill-rule:nonzero;fill:rgb(0%,0%,0%);fill-opacity:1;" d="M 157.203125 13.789062 C 156.753906 13.789062 156.382812 14.160156 156.382812 14.628906 C 156.382812 15.058594 156.753906 15.429688 157.183594 15.429688 C 157.652344 15.429688 158.023438 15.058594 158.023438 14.628906 C 158.023438 14.160156 157.652344 13.789062 157.203125 13.789062 Z M 157.203125 13.789062 "/>
<path style=" stroke:none;fill-rule:nonzero;fill:rgb(0%,0%,0%);fill-opacity:1;" d="M 162.855469 5.175781 C 162.035156 5.175781 161.410156 5.429688 160.863281 5.957031 C 159.984375 6.777344 159.417969 8.496094 159.417969 10.253906 C 159.417969 11.875 159.925781 13.632812 160.628906 14.472656 C 161.175781 15.117188 161.9375 15.488281 162.796875 15.488281 C 163.558594 15.488281 164.203125 15.234375 164.75 14.707031 C 165.609375 13.886719 166.175781 12.148438 166.175781 10.351562 C 166.175781 7.285156 164.828125 5.175781 162.855469 5.175781 Z M 162.816406 5.566406 C 164.066406 5.566406 164.75 7.246094 164.75 10.371094 C 164.75 13.496094 164.085938 15.097656 162.796875 15.097656 C 161.507812 15.097656 160.863281 13.496094 160.863281 10.390625 C 160.863281 7.226562 161.527344 5.566406 162.816406 5.566406 Z M 162.816406 5.566406 "/>
<path style=" stroke:none;fill-rule:nonzero;fill:rgb(0%,0%,0%);fill-opacity:1;" d="M 170.324219 5.175781 C 169.503906 5.175781 168.878906 5.429688 168.332031 5.957031 C 167.453125 6.777344 166.886719 8.496094 166.886719 10.253906 C 166.886719 11.875 167.394531 13.632812 168.097656 14.472656 C 168.644531 15.117188 169.40625 15.488281 170.265625 15.488281 C 171.027344 15.488281 171.671875 15.234375 172.21875 14.707031 C 173.078125 13.886719 173.644531 12.148438 173.644531 10.351562 C 173.644531 7.285156 172.296875 5.175781 170.324219 5.175781 Z M 170.285156 5.566406 C 171.535156 5.566406 172.21875 7.246094 172.21875 10.371094 C 172.21875 13.496094 171.554688 15.097656 170.265625 15.097656 C 168.976562 15.097656 168.332031 13.496094 168.332031 10.390625 C 168.332031 7.226562 168.996094 5.566406 170.285156 5.566406 Z M 170.285156 5.566406 "/>
<path style=" stroke:none;fill-rule:nonzero;fill:rgb(0%,0%,0%);fill-opacity:1;" d="M 181.097656 13.222656 L 180.902344 13.144531 C 180.355469 14.003906 180.160156 14.140625 179.496094 14.140625 L 175.921875 14.140625 L 178.421875 11.503906 C 179.769531 10.117188 180.335938 8.984375 180.335938 7.8125 C 180.335938 6.328125 179.125 5.175781 177.582031 5.175781 C 176.761719 5.175781 175.980469 5.507812 175.433594 6.09375 C 174.945312 6.601562 174.730469 7.089844 174.476562 8.144531 L 174.789062 8.222656 C 175.375 6.757812 175.921875 6.269531 176.957031 6.269531 C 178.207031 6.269531 179.066406 7.128906 179.066406 8.378906 C 179.066406 9.550781 178.363281 10.9375 177.113281 12.265625 L 174.457031 15.097656 L 174.457031 15.273438 L 180.277344 15.273438 Z M 181.097656 13.222656 "/>
<path style=" stroke:none;fill-rule:nonzero;fill:rgb(0%,0%,0%);fill-opacity:1;" d="M 183.765625 10.351562 C 184.644531 10.351562 184.996094 10.371094 185.347656 10.507812 C 186.285156 10.839844 186.851562 11.679688 186.851562 12.714844 C 186.851562 13.964844 186.011719 14.941406 184.898438 14.941406 C 184.507812 14.941406 184.195312 14.84375 183.648438 14.472656 C 183.199219 14.21875 182.945312 14.101562 182.691406 14.101562 C 182.339844 14.101562 182.125 14.316406 182.125 14.628906 C 182.125 15.15625 182.769531 15.488281 183.804688 15.488281 C 184.957031 15.488281 186.148438 15.097656 186.851562 14.472656 C 187.554688 13.867188 187.925781 13.007812 187.925781 11.992188 C 187.925781 11.230469 187.691406 10.527344 187.261719 10.078125 C 186.96875 9.746094 186.675781 9.570312 186.03125 9.277344 C 187.046875 8.574219 187.417969 8.027344 187.417969 7.226562 C 187.417969 6.015625 186.480469 5.175781 185.09375 5.175781 C 184.351562 5.175781 183.6875 5.429688 183.160156 5.898438 C 182.710938 6.308594 182.476562 6.699219 182.144531 7.597656 L 182.378906 7.65625 C 182.984375 6.5625 183.667969 6.074219 184.605469 6.074219 C 185.582031 6.074219 186.246094 6.71875 186.246094 7.675781 C 186.246094 8.203125 186.03125 8.75 185.640625 9.121094 C 185.191406 9.570312 184.78125 9.785156 183.765625 10.15625 Z M 183.765625 10.351562 "/>
<path style=" stroke:none;fill-rule:nonzero;fill:rgb(0%,0%,0%);fill-opacity:1;" d="M 194.5625 13.789062 C 194.113281 13.789062 193.742188 14.160156 193.742188 14.628906 C 193.742188 15.058594 194.113281 15.429688 194.542969 15.429688 C 195.011719 15.429688 195.382812 15.058594 195.382812 14.628906 C 195.382812 14.160156 195.011719 13.789062 194.5625 13.789062 Z M 194.5625 13.789062 "/>
<path style=" stroke:none;fill-rule:nonzero;fill:rgb(0%,0%,0%);fill-opacity:1;" d="M 200.78125 5.175781 L 198.085938 6.523438 L 198.085938 6.738281 C 198.261719 6.660156 198.4375 6.601562 198.496094 6.582031 C 198.75 6.464844 199.003906 6.40625 199.160156 6.40625 C 199.472656 6.40625 199.609375 6.640625 199.609375 7.109375 L 199.609375 13.886719 C 199.609375 14.375 199.492188 14.726562 199.257812 14.863281 C 199.023438 14.980469 198.808594 15.039062 198.183594 15.058594 L 198.183594 15.273438 L 202.304688 15.273438 L 202.304688 15.058594 C 201.132812 15.039062 200.898438 14.882812 200.898438 14.160156 L 200.898438 5.195312 Z M 200.78125 5.175781 "/>
<path style=" stroke:none;fill-rule:nonzero;fill:rgb(0%,0%,0%);fill-opacity:1;" d="M 210.988281 13.222656 L 210.792969 13.144531 C 210.246094 14.003906 210.050781 14.140625 209.386719 14.140625 L 205.8125 14.140625 L 208.3125 11.503906 C 209.660156 10.117188 210.226562 8.984375 210.226562 7.8125 C 210.226562 6.328125 209.015625 5.175781 207.472656 5.175781 C 206.652344 5.175781 205.871094 5.507812 205.324219 6.09375 C 204.835938 6.601562 204.621094 7.089844 204.367188 8.144531 L 204.679688 8.222656 C 205.265625 6.757812 205.8125 6.269531 206.847656 6.269531 C 208.097656 6.269531 208.957031 7.128906 208.957031 8.378906 C 208.957031 9.550781 208.253906 10.9375 207.003906 12.265625 L 204.347656 15.097656 L 204.347656 15.273438 L 210.167969 15.273438 Z M 210.988281 13.222656 "/>
<path style=" stroke:none;fill-rule:nonzero;fill:rgb(0%,0%,0%);fill-opacity:1;" d="M 216.980469 13.789062 C 216.53125 13.789062 216.160156 14.160156 216.160156 14.628906 C 216.160156 15.058594 216.53125 15.429688 216.960938 15.429688 C 217.429688 15.429688 217.800781 15.058594 217.800781 14.628906 C 217.800781 14.160156 217.429688 13.789062 216.980469 13.789062 Z M 216.980469 13.789062 "/>
<path style=" stroke:none;fill-rule:nonzero;fill:rgb(0%,0%,0%);fill-opacity:1;" d="M 222.628906 5.175781 C 221.808594 5.175781 221.183594 5.429688 220.636719 5.957031 C 219.757812 6.777344 219.191406 8.496094 219.191406 10.253906 C 219.191406 11.875 219.699219 13.632812 220.402344 14.472656 C 220.949219 15.117188 221.710938 15.488281 222.570312 15.488281 C 223.332031 15.488281 223.976562 15.234375 224.523438 14.707031 C 225.382812 13.886719 225.949219 12.148438 225.949219 10.351562 C 225.949219 7.285156 224.601562 5.175781 222.628906 5.175781 Z M 222.589844 5.566406 C 223.839844 5.566406 224.523438 7.246094 224.523438 10.371094 C 224.523438 13.496094 223.859375 15.097656 222.570312 15.097656 C 221.28125 15.097656 220.636719 13.496094 220.636719 10.390625 C 220.636719 7.226562 221.300781 5.566406 222.589844 5.566406 Z M 222.589844 5.566406 "/>
<path style=" stroke:none;fill-rule:nonzero;fill:rgb(0%,0%,0%);fill-opacity:1;" d="M 230.101562 5.175781 C 229.28125 5.175781 228.65625 5.429688 228.109375 5.957031 C 227.230469 6.777344 226.664062 8.496094 226.664062 10.253906 C 226.664062 11.875 227.171875 13.632812 227.875 14.472656 C 228.421875 15.117188 229.183594 15.488281 230.042969 15.488281 C 230.804688 15.488281 231.449219 15.234375 231.996094 14.707031 C 232.855469 13.886719 233.421875 12.148438 233.421875 10.351562 C 233.421875 7.285156 232.074219 5.175781 230.101562 5.175781 Z M 230.0625 5.566406 C 231.3125 5.566406 231.996094 7.246094 231.996094 10.371094 C 231.996094 13.496094 231.332031 15.097656 230.042969 15.097656 C 228.753906 15.097656 228.109375 13.496094 228.109375 10.390625 C 228.109375 7.226562 228.773438 5.566406 230.0625 5.566406 Z M 230.0625 5.566406 "/>
<path style=" stroke:none;fill-rule:nonzero;fill:rgb(0%,0%,0%);fill-opacity:1;" d="M 240.484375 5.390625 L 234.957031 5.390625 L 234.078125 7.578125 L 234.332031 7.695312 C 234.976562 6.679688 235.25 6.484375 236.070312 6.484375 L 239.3125 6.484375 L 236.363281 15.390625 L 237.320312 15.390625 L 240.484375 5.625 Z M 240.484375 5.390625 "/>
<path style=" stroke:none;fill-rule:nonzero;fill:rgb(0%,0%,0%);fill-opacity:1;" d="M 242.136719 15.605469 C 243.816406 15.410156 244.636719 15.117188 245.652344 14.394531 C 247.195312 13.261719 248.113281 11.40625 248.113281 9.394531 C 248.113281 6.914062 246.746094 5.175781 244.8125 5.175781 C 243.035156 5.175781 241.707031 6.679688 241.707031 8.691406 C 241.707031 10.527344 242.78125 11.738281 244.402344 11.738281 C 245.222656 11.738281 245.847656 11.484375 246.628906 10.878906 C 246.023438 13.320312 244.363281 14.921875 242.097656 15.3125 Z M 246.667969 9.960938 C 246.667969 10.273438 246.609375 10.410156 246.433594 10.527344 C 246.023438 10.898438 245.476562 11.09375 244.929688 11.09375 C 243.796875 11.09375 243.074219 9.960938 243.074219 8.183594 C 243.074219 7.34375 243.328125 6.445312 243.640625 6.054688 C 243.894531 5.761719 244.265625 5.585938 244.695312 5.585938 C 246.003906 5.585938 246.667969 6.875 246.667969 9.394531 Z M 246.667969 9.960938 "/>
<path style=" stroke:none;fill-rule:nonzero;fill:rgb(0%,0%,0%);fill-opacity:1;" d="M 254.339844 13.789062 C 253.890625 13.789062 253.519531 14.160156 253.519531 14.628906 C 253.519531 15.058594 253.890625 15.429688 254.320312 15.429688 C 254.789062 15.429688 255.160156 15.058594 255.160156 14.628906 C 255.160156 14.160156 254.789062 13.789062 254.339844 13.789062 Z M 254.339844 13.789062 "/>
<path style=" stroke:none;fill-rule:nonzero;fill:rgb(0%,0%,0%);fill-opacity:1;" d="M 260.554688 5.175781 L 257.859375 6.523438 L 257.859375 6.738281 C 258.035156 6.660156 258.210938 6.601562 258.269531 6.582031 C 258.523438 6.464844 258.777344 6.40625 258.933594 6.40625 C 259.246094 6.40625 259.382812 6.640625 259.382812 7.109375 L 259.382812 13.886719 C 259.382812 14.375 259.265625 14.726562 259.03125 14.863281 C 258.796875 14.980469 258.582031 15.039062 257.957031 15.058594 L 257.957031 15.273438 L 262.078125 15.273438 L 262.078125 15.058594 C 260.90625 15.039062 260.671875 14.882812 260.671875 14.160156 L 260.671875 5.195312 Z M 260.554688 5.175781 "/>
<path style=" stroke:none;fill-rule:nonzero;fill:rgb(0%,0%,0%);fill-opacity:1;" d="M 270.332031 5.058594 C 268.632812 5.195312 267.773438 5.488281 266.679688 6.25 C 265.058594 7.402344 264.179688 9.101562 264.179688 11.113281 C 264.179688 12.402344 264.589844 13.710938 265.234375 14.472656 C 265.800781 15.117188 266.601562 15.488281 267.519531 15.488281 C 269.375 15.488281 270.664062 14.0625 270.664062 11.992188 C 270.664062 10.097656 269.570312 8.886719 267.851562 8.886719 C 267.207031 8.886719 266.875 8.984375 265.9375 9.550781 C 266.347656 7.285156 268.027344 5.683594 270.371094 5.292969 Z M 267.285156 9.570312 C 268.574219 9.570312 269.316406 10.644531 269.316406 12.5 C 269.316406 14.160156 268.730469 15.058594 267.695312 15.058594 C 266.367188 15.058594 265.566406 13.652344 265.566406 11.347656 C 265.566406 10.585938 265.683594 10.15625 265.996094 9.941406 C 266.308594 9.707031 266.757812 9.570312 267.285156 9.570312 Z M 267.285156 9.570312 "/>
<path style=" stroke:none;fill-rule:nonzero;fill:rgb(0%,0%,0%);fill-opacity:1;" d="M 276.753906 13.789062 C 276.304688 13.789062 275.933594 14.160156 275.933594 14.628906 C 275.933594 15.058594 276.304688 15.429688 276.734375 15.429688 C 277.203125 15.429688 277.574219 15.058594 277.574219 14.628906 C 277.574219 14.160156 277.203125 13.789062 276.753906 13.789062 Z M 276.753906 13.789062 "/>
<path style=" stroke:none;fill-rule:nonzero;fill:rgb(0%,0%,0%);fill-opacity:1;" d="M 282.40625 5.175781 C 281.585938 5.175781 280.960938 5.429688 280.414062 5.957031 C 279.535156 6.777344 278.96875 8.496094 278.96875 10.253906 C 278.96875 11.875 279.476562 13.632812 280.179688 14.472656 C 280.726562 15.117188 281.488281 15.488281 282.347656 15.488281 C 283.109375 15.488281 283.753906 15.234375 284.300781 14.707031 C 285.160156 13.886719 285.726562 12.148438 285.726562 10.351562 C 285.726562 7.285156 284.378906 5.175781 282.40625 5.175781 Z M 282.367188 5.566406 C 283.617188 5.566406 284.300781 7.246094 284.300781 10.371094 C 284.300781 13.496094 283.636719 15.097656 282.347656 15.097656 C 281.058594 15.097656 280.414062 13.496094 280.414062 10.390625 C 280.414062 7.226562 281.078125 5.566406 282.367188 5.566406 Z M 282.367188 5.566406 "/>
<path style=" stroke:none;fill-rule:nonzero;fill:rgb(0%,0%,0%);fill-opacity:1;" d="M 293.179688 13.222656 L 292.984375 13.144531 C 292.4375 14.003906 292.242188 14.140625 291.578125 14.140625 L 288.003906 14.140625 L 290.503906 11.503906 C 291.851562 10.117188 292.417969 8.984375 292.417969 7.8125 C 292.417969 6.328125 291.207031 5.175781 289.664062 5.175781 C 288.84375 5.175781 288.0625 5.507812 287.515625 6.09375 C 287.027344 6.601562 286.8125 7.089844 286.558594 8.144531 L 286.871094 8.222656 C 287.457031 6.757812 288.003906 6.269531 289.039062 6.269531 C 290.289062 6.269531 291.148438 7.128906 291.148438 8.378906 C 291.148438 9.550781 290.445312 10.9375 289.195312 12.265625 L 286.539062 15.097656 L 286.539062 15.273438 L 292.359375 15.273438 Z M 293.179688 13.222656 "/>
<path style=" stroke:none;fill-rule:nonzero;fill:rgb(0%,0%,0%);fill-opacity:1;" d="M 300.652344 13.222656 L 300.457031 13.144531 C 299.910156 14.003906 299.714844 14.140625 299.050781 14.140625 L 295.476562 14.140625 L 297.976562 11.503906 C 299.324219 10.117188 299.890625 8.984375 299.890625 7.8125 C 299.890625 6.328125 298.679688 5.175781 297.136719 5.175781 C 296.316406 5.175781 295.535156 5.507812 294.988281 6.09375 C 294.5 6.601562 294.285156 7.089844 294.03125 8.144531 L 294.34375 8.222656 C 294.929688 6.757812 295.476562 6.269531 296.511719 6.269531 C 297.761719 6.269531 298.621094 7.128906 298.621094 8.378906 C 298.621094 9.550781 297.917969 10.9375 296.667969 12.265625 L 294.011719 15.097656 L 294.011719 15.273438 L 299.832031 15.273438 Z M 300.652344 13.222656 "/>
<path style=" stroke:none;fill-rule:nonzero;fill:rgb(0%,0%,0%);fill-opacity:1;" d="M 303.726562 6.5625 L 306.65625 6.5625 C 306.910156 6.5625 306.96875 6.523438 307.007812 6.425781 L 307.574219 5.097656 L 307.4375 5 C 307.222656 5.3125 307.066406 5.390625 306.753906 5.390625 L 303.628906 5.390625 L 302.007812 8.925781 C 301.988281 8.945312 301.988281 8.964844 301.988281 9.003906 C 301.988281 9.082031 302.046875 9.121094 302.164062 9.121094 C 302.652344 9.121094 303.238281 9.21875 303.863281 9.414062 C 305.582031 9.960938 306.363281 10.898438 306.363281 12.382812 C 306.363281 13.808594 305.445312 14.921875 304.292969 14.921875 C 303.980469 14.921875 303.726562 14.824219 303.296875 14.492188 C 302.808594 14.160156 302.457031 14.003906 302.144531 14.003906 C 301.714844 14.003906 301.5 14.179688 301.5 14.550781 C 301.5 15.117188 302.203125 15.488281 303.335938 15.488281 C 304.585938 15.488281 305.660156 15.078125 306.402344 14.316406 C 307.105469 13.652344 307.417969 12.792969 307.417969 11.660156 C 307.417969 10.585938 307.125 9.902344 306.382812 9.140625 C 305.71875 8.496094 304.878906 8.144531 303.101562 7.832031 Z M 303.726562 6.5625 "/>
<path style=" stroke:none;fill-rule:nonzero;fill:rgb(0%,0%,0%);fill-opacity:1;" d="M 314.117188 13.789062 C 313.667969 13.789062 313.296875 14.160156 313.296875 14.628906 C 313.296875 15.058594 313.667969 15.429688 314.097656 15.429688 C 314.566406 15.429688 314.9375 15.058594 314.9375 14.628906 C 314.9375 14.160156 314.566406 13.789062 314.117188 13.789062 Z M 314.117188 13.789062 "/>
<path style=" stroke:none;fill-rule:nonzero;fill:rgb(0%,0%,0%);fill-opacity:1;" d="M 323.066406 13.222656 L 322.871094 13.144531 C 322.324219 14.003906 322.128906 14.140625 321.464844 14.140625 L 317.890625 14.140625 L 320.390625 11.503906 C 321.738281 10.117188 322.304688 8.984375 322.304688 7.8125 C 322.304688 6.328125 321.09375 5.175781 319.550781 5.175781 C 318.730469 5.175781 317.949219 5.507812 317.402344 6.09375 C 316.914062 6.601562 316.699219 7.089844 316.445312 8.144531 L 316.757812 8.222656 C 317.34375 6.757812 317.890625 6.269531 318.925781 6.269531 C 320.175781 6.269531 321.035156 7.128906 321.035156 8.378906 C 321.035156 9.550781 320.332031 10.9375 319.082031 12.265625 L 316.425781 15.097656 L 316.425781 15.273438 L 322.246094 15.273438 Z M 323.066406 13.222656 "/>
<path style=" stroke:none;fill-rule:nonzero;fill:rgb(0%,0%,0%);fill-opacity:1;" d="M 327.238281 5.175781 C 326.417969 5.175781 325.792969 5.429688 325.246094 5.957031 C 324.367188 6.777344 323.800781 8.496094 323.800781 10.253906 C 323.800781 11.875 324.308594 13.632812 325.011719 14.472656 C 325.558594 15.117188 326.320312 15.488281 327.179688 15.488281 C 327.941406 15.488281 328.585938 15.234375 329.132812 14.707031 C 329.992188 13.886719 330.558594 12.148438 330.558594 10.351562 C 330.558594 7.285156 329.210938 5.175781 327.238281 5.175781 Z M 327.199219 5.566406 C 328.449219 5.566406 329.132812 7.246094 329.132812 10.371094 C 329.132812 13.496094 328.46875 15.097656 327.179688 15.097656 C 325.890625 15.097656 325.246094 13.496094 325.246094 10.390625 C 325.246094 7.226562 325.910156 5.566406 327.199219 5.566406 Z M 327.199219 5.566406 "/>
<path style=" stroke:none;fill-rule:nonzero;fill:rgb(0%,0%,0%);fill-opacity:1;" d="M 336.53125 13.789062 C 336.082031 13.789062 335.710938 14.160156 335.710938 14.628906 C 335.710938 15.058594 336.082031 15.429688 336.511719 15.429688 C 336.980469 15.429688 337.351562 15.058594 337.351562 14.628906 C 337.351562 14.160156 336.980469 13.789062 336.53125 13.789062 Z M 336.53125 13.789062 "/>
<path style=" stroke:none;fill-rule:nonzero;fill:rgb(0%,0%,0%);fill-opacity:1;" d="M 342.183594 5.175781 C 341.363281 5.175781 340.738281 5.429688 340.191406 5.957031 C 339.3125 6.777344 338.746094 8.496094 338.746094 10.253906 C 338.746094 11.875 339.253906 13.632812 339.957031 14.472656 C 340.503906 15.117188 341.265625 15.488281 342.125 15.488281 C 342.886719 15.488281 343.53125 15.234375 344.078125 14.707031 C 344.9375 13.886719 345.503906 12.148438 345.503906 10.351562 C 345.503906 7.285156 344.15625 5.175781 342.183594 5.175781 Z M 342.144531 5.566406 C 343.394531 5.566406 344.078125 7.246094 344.078125 10.371094 C 344.078125 13.496094 343.414062 15.097656 342.125 15.097656 C 340.835938 15.097656 340.191406 13.496094 340.191406 10.390625 C 340.191406 7.226562 340.855469 5.566406 342.144531 5.566406 Z M 342.144531 5.566406 "/>
<path style=" stroke:none;fill-rule:nonzero;fill:rgb(0%,0%,0%);fill-opacity:1;" d="M 348.558594 6.5625 L 351.488281 6.5625 C 351.742188 6.5625 351.800781 6.523438 351.839844 6.425781 L 352.40625 5.097656 L 352.269531 5 C 352.054688 5.3125 351.898438 5.390625 351.585938 5.390625 L 348.460938 5.390625 L 346.839844 8.925781 C 346.820312 8.945312 346.820312 8.964844 346.820312 9.003906 C 346.820312 9.082031 346.878906 9.121094 346.996094 9.121094 C 347.484375 9.121094 348.070312 9.21875 348.695312 9.414062 C 350.414062 9.960938 351.195312 10.898438 351.195312 12.382812 C 351.195312 13.808594 350.277344 14.921875 349.125 14.921875 C 348.8125 14.921875 348.558594 14.824219 348.128906 14.492188 C 347.640625 14.160156 347.289062 14.003906 346.976562 14.003906 C 346.546875 14.003906 346.332031 14.179688 346.332031 14.550781 C 346.332031 15.117188 347.035156 15.488281 348.167969 15.488281 C 349.417969 15.488281 350.492188 15.078125 351.234375 14.316406 C 351.9375 13.652344 352.25 12.792969 352.25 11.660156 C 352.25 10.585938 351.957031 9.902344 351.214844 9.140625 C 350.550781 8.496094 349.710938 8.144531 347.933594 7.832031 Z M 348.558594 6.5625 "/>
<path style=" stroke:none;fill-rule:nonzero;fill:rgb(0%,0%,0%);fill-opacity:1;" d="M 360.386719 11.816406 L 358.863281 11.816406 L 358.863281 5.175781 L 358.199219 5.175781 L 353.511719 11.816406 L 353.511719 12.773438 L 357.710938 12.773438 L 357.710938 15.273438 L 358.863281 15.273438 L 358.863281 12.773438 L 360.386719 12.773438 Z M 357.691406 11.816406 L 354.117188 11.816406 L 357.691406 6.699219 Z M 357.691406 11.816406 "/>
<path style=" stroke:none;fill-rule:nonzero;fill:rgb(0%,0%,0%);fill-opacity:1;" d="M 363.503906 6.5625 L 366.433594 6.5625 C 366.6875 6.5625 366.746094 6.523438 366.785156 6.425781 L 367.351562 5.097656 L 367.214844 5 C 367 5.3125 366.84375 5.390625 366.53125 5.390625 L 363.40625 5.390625 L 361.785156 8.925781 C 361.765625 8.945312 361.765625 8.964844 361.765625 9.003906 C 361.765625 9.082031 361.824219 9.121094 361.941406 9.121094 C 362.429688 9.121094 363.015625 9.21875 363.640625 9.414062 C 365.359375 9.960938 366.140625 10.898438 366.140625 12.382812 C 366.140625 13.808594 365.222656 14.921875 364.070312 14.921875 C 363.757812 14.921875 363.503906 14.824219 363.074219 14.492188 C 362.585938 14.160156 362.234375 14.003906 361.921875 14.003906 C 361.492188 14.003906 361.277344 14.179688 361.277344 14.550781 C 361.277344 15.117188 361.980469 15.488281 363.113281 15.488281 C 364.363281 15.488281 365.4375 15.078125 366.179688 14.316406 C 366.882812 13.652344 367.195312 12.792969 367.195312 11.660156 C 367.195312 10.585938 366.902344 9.902344 366.160156 9.140625 C 365.496094 8.496094 364.65625 8.144531 362.878906 7.832031 Z M 363.503906 6.5625 "/>
<path style=" stroke:none;fill-rule:nonzero;fill:rgb(0%,0%,0%);fill-opacity:1;" d="M 373.890625 13.789062 C 373.441406 13.789062 373.070312 14.160156 373.070312 14.628906 C 373.070312 15.058594 373.441406 15.429688 373.871094 15.429688 C 374.339844 15.429688 374.710938 15.058594 374.710938 14.628906 C 374.710938 14.160156 374.339844 13.789062 373.890625 13.789062 Z M 373.890625 13.789062 "/>
<path style=" stroke:none;fill-rule:nonzero;fill:rgb(0%,0%,0%);fill-opacity:1;" d="M 382.84375 13.222656 L 382.648438 13.144531 C 382.101562 14.003906 381.90625 14.140625 381.242188 14.140625 L 377.667969 14.140625 L 380.167969 11.503906 C 381.515625 10.117188 382.082031 8.984375 382.082031 7.8125 C 382.082031 6.328125 380.871094 5.175781 379.328125 5.175781 C 378.507812 5.175781 377.726562 5.507812 377.179688 6.09375 C 376.691406 6.601562 376.476562 7.089844 376.222656 8.144531 L 376.535156 8.222656 C 377.121094 6.757812 377.667969 6.269531 378.703125 6.269531 C 379.953125 6.269531 380.8125 7.128906 380.8125 8.378906 C 380.8125 9.550781 380.109375 10.9375 378.859375 12.265625 L 376.203125 15.097656 L 376.203125 15.273438 L 382.023438 15.273438 Z M 382.84375 13.222656 "/>
<path style=" stroke:none;fill-rule:nonzero;fill:rgb(0%,0%,0%);fill-opacity:1;" d="M 390.277344 11.816406 L 388.753906 11.816406 L 388.753906 5.175781 L 388.089844 5.175781 L 383.402344 11.816406 L 383.402344 12.773438 L 387.601562 12.773438 L 387.601562 15.273438 L 388.753906 15.273438 L 388.753906 12.773438 L 390.277344 12.773438 Z M 387.582031 11.816406 L 384.007812 11.816406 L 387.582031 6.699219 Z M 387.582031 11.816406 "/>
<path style=" stroke:none;fill-rule:nonzero;fill:rgb(0%,0%,0%);fill-opacity:1;" d="M 396.308594 13.789062 C 395.859375 13.789062 395.488281 14.160156 395.488281 14.628906 C 395.488281 15.058594 395.859375 15.429688 396.289062 15.429688 C 396.757812 15.429688 397.128906 15.058594 397.128906 14.628906 C 397.128906 14.160156 396.757812 13.789062 396.308594 13.789062 Z M 396.308594 13.789062 "/>
<path style=" stroke:none;fill-rule:nonzero;fill:rgb(0%,0%,0%);fill-opacity:1;" d="M 402.523438 5.175781 L 399.828125 6.523438 L 399.828125 6.738281 C 400.003906 6.660156 400.179688 6.601562 400.238281 6.582031 C 400.492188 6.464844 400.746094 6.40625 400.902344 6.40625 C 401.214844 6.40625 401.351562 6.640625 401.351562 7.109375 L 401.351562 13.886719 C 401.351562 14.375 401.234375 14.726562 401 14.863281 C 400.765625 14.980469 400.550781 15.039062 399.925781 15.058594 L 399.925781 15.273438 L 404.046875 15.273438 L 404.046875 15.058594 C 402.875 15.039062 402.640625 14.882812 402.640625 14.160156 L 402.640625 5.195312 Z M 402.523438 5.175781 "/>
<path style=" stroke:none;fill-rule:nonzero;fill:rgb(0%,0%,0%);fill-opacity:1;" d="M 409.996094 5.175781 L 407.300781 6.523438 L 407.300781 6.738281 C 407.476562 6.660156 407.652344 6.601562 407.710938 6.582031 C 407.964844 6.464844 408.21875 6.40625 408.375 6.40625 C 408.6875 6.40625 408.824219 6.640625 408.824219 7.109375 L 408.824219 13.886719 C 408.824219 14.375 408.707031 14.726562 408.472656 14.863281 C 408.238281 14.980469 408.023438 15.039062 407.398438 15.058594 L 407.398438 15.273438 L 411.519531 15.273438 L 411.519531 15.058594 C 410.347656 15.039062 410.113281 14.882812 410.113281 14.160156 L 410.113281 5.195312 Z M 409.996094 5.175781 "/>
<path style=" stroke:none;fill-rule:nonzero;fill:rgb(0%,0%,0%);fill-opacity:1;" d="M 420.164062 11.816406 L 418.640625 11.816406 L 418.640625 5.175781 L 417.976562 5.175781 L 413.289062 11.816406 L 413.289062 12.773438 L 417.488281 12.773438 L 417.488281 15.273438 L 418.640625 15.273438 L 418.640625 12.773438 L 420.164062 12.773438 Z M 417.46875 11.816406 L 413.894531 11.816406 L 417.46875 6.699219 Z M 417.46875 11.816406 "/>
<path style=" stroke:none;fill-rule:nonzero;fill:rgb(0%,0%,0%);fill-opacity:1;" d="M 427.285156 5.390625 L 421.757812 5.390625 L 420.878906 7.578125 L 421.132812 7.695312 C 421.777344 6.679688 422.050781 6.484375 422.871094 6.484375 L 426.113281 6.484375 L 423.164062 15.390625 L 424.121094 15.390625 L 427.285156 5.625 Z M 427.285156 5.390625 "/>
<path style=" stroke:none;fill-rule:nonzero;fill:rgb(0%,0%,0%);fill-opacity:1;" d="M 433.667969 13.789062 C 433.21875 13.789062 432.847656 14.160156 432.847656 14.628906 C 432.847656 15.058594 433.21875 15.429688 433.648438 15.429688 C 434.117188 15.429688 434.488281 15.058594 434.488281 14.628906 C 434.488281 14.160156 434.117188 13.789062 433.667969 13.789062 Z M 433.667969 13.789062 "/>
<path style=" stroke:none;fill-rule:nonzero;fill:rgb(0%,0%,0%);fill-opacity:1;" d="M 442.617188 13.222656 L 442.421875 13.144531 C 441.875 14.003906 441.679688 14.140625 441.015625 14.140625 L 437.441406 14.140625 L 439.941406 11.503906 C 441.289062 10.117188 441.855469 8.984375 441.855469 7.8125 C 441.855469 6.328125 440.644531 5.175781 439.101562 5.175781 C 438.28125 5.175781 437.5 5.507812 436.953125 6.09375 C 436.464844 6.601562 436.25 7.089844 435.996094 8.144531 L 436.308594 8.222656 C 436.894531 6.757812 437.441406 6.269531 438.476562 6.269531 C 439.726562 6.269531 440.585938 7.128906 440.585938 8.378906 C 440.585938 9.550781 439.882812 10.9375 438.632812 12.265625 L 435.976562 15.097656 L 435.976562 15.273438 L 441.796875 15.273438 Z M 442.617188 13.222656 "/>
<path style=" stroke:none;fill-rule:nonzero;fill:rgb(0%,0%,0%);fill-opacity:1;" d="M 447.335938 9.726562 C 448.820312 8.945312 449.328125 8.320312 449.328125 7.285156 C 449.328125 6.074219 448.253906 5.175781 446.769531 5.175781 C 445.128906 5.175781 443.917969 6.171875 443.917969 7.539062 C 443.917969 8.496094 444.210938 8.945312 445.773438 10.3125 C 444.171875 11.542969 443.839844 11.992188 443.839844 13.007812 C 443.839844 14.472656 445.011719 15.488281 446.710938 15.488281 C 448.507812 15.488281 449.640625 14.492188 449.640625 12.949219 C 449.640625 11.816406 449.132812 11.074219 447.335938 9.726562 Z M 447.0625 11.269531 C 448.15625 12.050781 448.507812 12.578125 448.507812 13.417969 C 448.507812 14.394531 447.84375 15.058594 446.867188 15.058594 C 445.734375 15.058594 444.972656 14.199219 444.972656 12.890625 C 444.972656 11.933594 445.304688 11.308594 446.164062 10.605469 Z M 446.90625 9.453125 C 445.578125 8.59375 445.03125 7.910156 445.03125 7.070312 C 445.03125 6.210938 445.695312 5.585938 446.652344 5.585938 C 447.667969 5.585938 448.3125 6.25 448.3125 7.285156 C 448.3125 8.125 447.882812 8.808594 447.042969 9.375 C 446.964844 9.414062 446.964844 9.414062 446.90625 9.453125 Z M 446.90625 9.453125 "/>
<path style=" stroke:none;fill-rule:nonzero;fill:rgb(0%,0%,0%);fill-opacity:1;" d="M 456.082031 13.789062 C 455.632812 13.789062 455.261719 14.160156 455.261719 14.628906 C 455.261719 15.058594 455.632812 15.429688 456.0625 15.429688 C 456.53125 15.429688 456.902344 15.058594 456.902344 14.628906 C 456.902344 14.160156 456.53125 13.789062 456.082031 13.789062 Z M 456.082031 13.789062 "/>
<path style=" stroke:none;fill-rule:nonzero;fill:rgb(0%,0%,0%);fill-opacity:1;" d="M 465.035156 13.222656 L 464.839844 13.144531 C 464.292969 14.003906 464.097656 14.140625 463.433594 14.140625 L 459.859375 14.140625 L 462.359375 11.503906 C 463.707031 10.117188 464.273438 8.984375 464.273438 7.8125 C 464.273438 6.328125 463.0625 5.175781 461.519531 5.175781 C 460.699219 5.175781 459.917969 5.507812 459.371094 6.09375 C 458.882812 6.601562 458.667969 7.089844 458.414062 8.144531 L 458.726562 8.222656 C 459.3125 6.757812 459.859375 6.269531 460.894531 6.269531 C 462.144531 6.269531 463.003906 7.128906 463.003906 8.378906 C 463.003906 9.550781 462.300781 10.9375 461.050781 12.265625 L 458.394531 15.097656 L 458.394531 15.273438 L 464.214844 15.273438 Z M 465.035156 13.222656 "/>
<path style=" stroke:none;fill-rule:nonzero;fill:rgb(0%,0%,0%);fill-opacity:1;" d="M 469.773438 5.175781 L 467.078125 6.523438 L 467.078125 6.738281 C 467.253906 6.660156 467.429688 6.601562 467.488281 6.582031 C 467.742188 6.464844 467.996094 6.40625 468.152344 6.40625 C 468.464844 6.40625 468.601562 6.640625 468.601562 7.109375 L 468.601562 13.886719 C 468.601562 14.375 468.484375 14.726562 468.25 14.863281 C 468.015625 14.980469 467.800781 15.039062 467.175781 15.058594 L 467.175781 15.273438 L 471.296875 15.273438 L 471.296875 15.058594 C 470.125 15.039062 469.890625 14.882812 469.890625 14.160156 L 469.890625 5.195312 Z M 469.773438 5.175781 "/>
<path style=" stroke:none;fill-rule:nonzero;fill:rgb(0%,0%,0%);fill-opacity:1;" d="M 477.246094 5.175781 L 474.550781 6.523438 L 474.550781 6.738281 C 474.726562 6.660156 474.902344 6.601562 474.960938 6.582031 C 475.214844 6.464844 475.46875 6.40625 475.625 6.40625 C 475.9375 6.40625 476.074219 6.640625 476.074219 7.109375 L 476.074219 13.886719 C 476.074219 14.375 475.957031 14.726562 475.722656 14.863281 C 475.488281 14.980469 475.273438 15.039062 474.648438 15.058594 L 474.648438 15.273438 L 478.769531 15.273438 L 478.769531 15.058594 C 477.597656 15.039062 477.363281 14.882812 477.363281 14.160156 L 477.363281 5.195312 Z M 477.246094 5.175781 "/>
<path style=" stroke:none;fill-rule:nonzero;fill:rgb(0%,0%,0%);fill-opacity:1;" d="M 483.054688 6.5625 L 485.984375 6.5625 C 486.238281 6.5625 486.296875 6.523438 486.335938 6.425781 L 486.902344 5.097656 L 486.765625 5 C 486.550781 5.3125 486.394531 5.390625 486.082031 5.390625 L 482.957031 5.390625 L 481.335938 8.925781 C 481.316406 8.945312 481.316406 8.964844 481.316406 9.003906 C 481.316406 9.082031 481.375 9.121094 481.492188 9.121094 C 481.980469 9.121094 482.566406 9.21875 483.191406 9.414062 C 484.910156 9.960938 485.691406 10.898438 485.691406 12.382812 C 485.691406 13.808594 484.773438 14.921875 483.621094 14.921875 C 483.308594 14.921875 483.054688 14.824219 482.625 14.492188 C 482.136719 14.160156 481.785156 14.003906 481.472656 14.003906 C 481.042969 14.003906 480.828125 14.179688 480.828125 14.550781 C 480.828125 15.117188 481.53125 15.488281 482.664062 15.488281 C 483.914062 15.488281 484.988281 15.078125 485.730469 14.316406 C 486.433594 13.652344 486.746094 12.792969 486.746094 11.660156 C 486.746094 10.585938 486.453125 9.902344 485.710938 9.140625 C 485.046875 8.496094 484.207031 8.144531 482.429688 7.832031 Z M 483.054688 6.5625 "/>
<path style=" stroke:none;fill-rule:nonzero;fill:rgb(0%,0%,0%);fill-opacity:1;" d="M 493.445312 13.789062 C 492.996094 13.789062 492.625 14.160156 492.625 14.628906 C 492.625 15.058594 492.996094 15.429688 493.425781 15.429688 C 493.894531 15.429688 494.265625 15.058594 494.265625 14.628906 C 494.265625 14.160156 493.894531 13.789062 493.445312 13.789062 Z M 493.445312 13.789062 "/>
<path style=" stroke:none;fill-rule:nonzero;fill:rgb(0%,0%,0%);fill-opacity:1;" d="M 497.589844 10.351562 C 498.46875 10.351562 498.820312 10.371094 499.171875 10.507812 C 500.109375 10.839844 500.675781 11.679688 500.675781 12.714844 C 500.675781 13.964844 499.835938 14.941406 498.722656 14.941406 C 498.332031 14.941406 498.019531 14.84375 497.472656 14.472656 C 497.023438 14.21875 496.769531 14.101562 496.515625 14.101562 C 496.164062 14.101562 495.949219 14.316406 495.949219 14.628906 C 495.949219 15.15625 496.59375 15.488281 497.628906 15.488281 C 498.78125 15.488281 499.972656 15.097656 500.675781 14.472656 C 501.378906 13.867188 501.75 13.007812 501.75 11.992188 C 501.75 11.230469 501.515625 10.527344 501.085938 10.078125 C 500.792969 9.746094 500.5 9.570312 499.855469 9.277344 C 500.871094 8.574219 501.242188 8.027344 501.242188 7.226562 C 501.242188 6.015625 500.304688 5.175781 498.917969 5.175781 C 498.175781 5.175781 497.511719 5.429688 496.984375 5.898438 C 496.535156 6.308594 496.300781 6.699219 495.96875 7.597656 L 496.203125 7.65625 C 496.808594 6.5625 497.492188 6.074219 498.429688 6.074219 C 499.40625 6.074219 500.070312 6.71875 500.070312 7.675781 C 500.070312 8.203125 499.855469 8.75 499.464844 9.121094 C 499.015625 9.570312 498.605469 9.785156 497.589844 10.15625 Z M 497.589844 10.351562 "/>
<path style=" stroke:none;fill-rule:nonzero;fill:rgb(0%,0%,0%);fill-opacity:1;" d="M 509.867188 13.222656 L 509.671875 13.144531 C 509.125 14.003906 508.929688 14.140625 508.265625 14.140625 L 504.691406 14.140625 L 507.191406 11.503906 C 508.539062 10.117188 509.105469 8.984375 509.105469 7.8125 C 509.105469 6.328125 507.894531 5.175781 506.351562 5.175781 C 505.53125 5.175781 504.75 5.507812 504.203125 6.09375 C 503.714844 6.601562 503.5 7.089844 503.246094 8.144531 L 503.558594 8.222656 C 504.144531 6.757812 504.691406 6.269531 505.726562 6.269531 C 506.976562 6.269531 507.835938 7.128906 507.835938 8.378906 C 507.835938 9.550781 507.132812 10.9375 505.882812 12.265625 L 503.226562 15.097656 L 503.226562 15.273438 L 509.046875 15.273438 Z M 509.867188 13.222656 "/>
<path style=" stroke:none;fill-rule:nonzero;fill:rgb(0%,0%,0%);fill-opacity:1;" d="M 515.859375 13.789062 C 515.410156 13.789062 515.039062 14.160156 515.039062 14.628906 C 515.039062 15.058594 515.410156 15.429688 515.839844 15.429688 C 516.308594 15.429688 516.679688 15.058594 516.679688 14.628906 C 516.679688 14.160156 516.308594 13.789062 515.859375 13.789062 Z M 515.859375 13.789062 "/>
<path style=" stroke:none;fill-rule:nonzero;fill:rgb(0%,0%,0%);fill-opacity:1;" d="M 520.007812 10.351562 C 520.886719 10.351562 521.238281 10.371094 521.589844 10.507812 C 522.527344 10.839844 523.09375 11.679688 523.09375 12.714844 C 523.09375 13.964844 522.253906 14.941406 521.140625 14.941406 C 520.75 14.941406 520.4375 14.84375 519.890625 14.472656 C 519.441406 14.21875 519.1875 14.101562 518.933594 14.101562 C 518.582031 14.101562 518.367188 14.316406 518.367188 14.628906 C 518.367188 15.15625 519.011719 15.488281 520.046875 15.488281 C 521.199219 15.488281 522.390625 15.097656 523.09375 14.472656 C 523.796875 13.867188 524.167969 13.007812 524.167969 11.992188 C 524.167969 11.230469 523.933594 10.527344 523.503906 10.078125 C 523.210938 9.746094 522.917969 9.570312 522.273438 9.277344 C 523.289062 8.574219 523.660156 8.027344 523.660156 7.226562 C 523.660156 6.015625 522.722656 5.175781 521.335938 5.175781 C 520.59375 5.175781 519.929688 5.429688 519.402344 5.898438 C 518.953125 6.308594 518.71875 6.699219 518.386719 7.597656 L 518.621094 7.65625 C 519.226562 6.5625 519.910156 6.074219 520.847656 6.074219 C 521.824219 6.074219 522.488281 6.71875 522.488281 7.675781 C 522.488281 8.203125 522.273438 8.75 521.882812 9.121094 C 521.433594 9.570312 521.023438 9.785156 520.007812 10.15625 Z M 520.007812 10.351562 "/>
<path style=" stroke:none;fill-rule:nonzero;fill:rgb(0%,0%,0%);fill-opacity:1;" d="M 532.242188 11.816406 L 530.71875 11.816406 L 530.71875 5.175781 L 530.054688 5.175781 L 525.367188 11.816406 L 525.367188 12.773438 L 529.566406 12.773438 L 529.566406 15.273438 L 530.71875 15.273438 L 530.71875 12.773438 L 532.242188 12.773438 Z M 529.546875 11.816406 L 525.972656 11.816406 L 529.546875 6.699219 Z M 529.546875 11.816406 "/>
<path style=" stroke:none;fill-rule:nonzero;fill:rgb(0%,0%,0%);fill-opacity:1;" d="M 539.714844 11.816406 L 538.191406 11.816406 L 538.191406 5.175781 L 537.527344 5.175781 L 532.839844 11.816406 L 532.839844 12.773438 L 537.039062 12.773438 L 537.039062 15.273438 L 538.191406 15.273438 L 538.191406 12.773438 L 539.714844 12.773438 Z M 537.019531 11.816406 L 533.445312 11.816406 L 537.019531 6.699219 Z M 537.019531 11.816406 "/>
<path style=" stroke:none;fill-rule:nonzero;fill:rgb(0%,0%,0%);fill-opacity:1;" d="M 542.421875 10.351562 C 543.300781 10.351562 543.652344 10.371094 544.003906 10.507812 C 544.941406 10.839844 545.507812 11.679688 545.507812 12.714844 C 545.507812 13.964844 544.667969 14.941406 543.554688 14.941406 C 543.164062 14.941406 542.851562 14.84375 542.304688 14.472656 C 541.855469 14.21875 541.601562 14.101562 541.347656 14.101562 C 540.996094 14.101562 540.78125 14.316406 540.78125 14.628906 C 540.78125 15.15625 541.425781 15.488281 542.460938 15.488281 C 543.613281 15.488281 544.804688 15.097656 545.507812 14.472656 C 546.210938 13.867188 546.582031 13.007812 546.582031 11.992188 C 546.582031 11.230469 546.347656 10.527344 545.917969 10.078125 C 545.625 9.746094 545.332031 9.570312 544.6875 9.277344 C 545.703125 8.574219 546.074219 8.027344 546.074219 7.226562 C 546.074219 6.015625 545.136719 5.175781 543.75 5.175781 C 543.007812 5.175781 542.34375 5.429688 541.816406 5.898438 C 541.367188 6.308594 541.132812 6.699219 540.800781 7.597656 L 541.035156 7.65625 C 541.640625 6.5625 542.324219 6.074219 543.261719 6.074219 C 544.238281 6.074219 544.902344 6.71875 544.902344 7.675781 C 544.902344 8.203125 544.6875 8.75 544.296875 9.121094 C 543.847656 9.570312 543.4375 9.785156 542.421875 10.15625 Z M 542.421875 10.351562 "/>
<path style=" stroke:none;fill-rule:nonzero;fill:rgb(0%,0%,0%);fill-opacity:1;" d="M 553.21875 13.789062 C 552.769531 13.789062 552.398438 14.160156 552.398438 14.628906 C 552.398438 15.058594 552.769531 15.429688 553.199219 15.429688 C 553.667969 15.429688 554.039062 15.058594 554.039062 14.628906 C 554.039062 14.160156 553.667969 13.789062 553.21875 13.789062 Z M 553.21875 13.789062 "/>
<path style=" stroke:none;fill-rule:nonzero;fill:rgb(0%,0%,0%);fill-opacity:1;" d="M 557.367188 10.351562 C 558.246094 10.351562 558.597656 10.371094 558.949219 10.507812 C 559.886719 10.839844 560.453125 11.679688 560.453125 12.714844 C 560.453125 13.964844 559.613281 14.941406 558.5 14.941406 C 558.109375 14.941406 557.796875 14.84375 557.25 14.472656 C 556.800781 14.21875 556.546875 14.101562 556.292969 14.101562 C 555.941406 14.101562 555.726562 14.316406 555.726562 14.628906 C 555.726562 15.15625 556.371094 15.488281 557.40625 15.488281 C 558.558594 15.488281 559.75 15.097656 560.453125 14.472656 C 561.15625 13.867188 561.527344 13.007812 561.527344 11.992188 C 561.527344 11.230469 561.292969 10.527344 560.863281 10.078125 C 560.570312 9.746094 560.277344 9.570312 559.632812 9.277344 C 560.648438 8.574219 561.019531 8.027344 561.019531 7.226562 C 561.019531 6.015625 560.082031 5.175781 558.695312 5.175781 C 557.953125 5.175781 557.289062 5.429688 556.761719 5.898438 C 556.3125 6.308594 556.078125 6.699219 555.746094 7.597656 L 555.980469 7.65625 C 556.585938 6.5625 557.269531 6.074219 558.207031 6.074219 C 559.183594 6.074219 559.847656 6.71875 559.847656 7.675781 C 559.847656 8.203125 559.632812 8.75 559.242188 9.121094 C 558.792969 9.570312 558.382812 9.785156 557.367188 10.15625 Z M 557.367188 10.351562 "/>
<path style=" stroke:none;fill-rule:nonzero;fill:rgb(0%,0%,0%);fill-opacity:1;" d="M 569.214844 5.058594 C 567.515625 5.195312 566.65625 5.488281 565.5625 6.25 C 563.941406 7.402344 563.0625 9.101562 563.0625 11.113281 C 563.0625 12.402344 563.472656 13.710938 564.117188 14.472656 C 564.683594 15.117188 565.484375 15.488281 566.402344 15.488281 C 568.257812 15.488281 569.546875 14.0625 569.546875 11.992188 C 569.546875 10.097656 568.453125 8.886719 566.734375 8.886719 C 566.089844 8.886719 565.757812 8.984375 564.820312 9.550781 C 565.230469 7.285156 566.910156 5.683594 569.253906 5.292969 Z M 566.167969 9.570312 C 567.457031 9.570312 568.199219 10.644531 568.199219 12.5 C 568.199219 14.160156 567.613281 15.058594 566.578125 15.058594 C 565.25 15.058594 564.449219 13.652344 564.449219 11.347656 C 564.449219 10.585938 564.566406 10.15625 564.878906 9.941406 C 565.191406 9.707031 565.640625 9.570312 566.167969 9.570312 Z M 566.167969 9.570312 "/>
<path style=" stroke:none;fill-rule:nonzero;fill:rgb(0%,0%,0%);fill-opacity:1;" d="M 575.636719 13.789062 C 575.1875 13.789062 574.816406 14.160156 574.816406 14.628906 C 574.816406 15.058594 575.1875 15.429688 575.617188 15.429688 C 576.085938 15.429688 576.457031 15.058594 576.457031 14.628906 C 576.457031 14.160156 576.085938 13.789062 575.636719 13.789062 Z M 575.636719 13.789062 "/>
<path style=" stroke:none;fill-rule:nonzero;fill:rgb(0%,0%,0%);fill-opacity:1;" d="M 584.546875 11.816406 L 583.023438 11.816406 L 583.023438 5.175781 L 582.359375 5.175781 L 577.671875 11.816406 L 577.671875 12.773438 L 581.871094 12.773438 L 581.871094 15.273438 L 583.023438 15.273438 L 583.023438 12.773438 L 584.546875 12.773438 Z M 581.851562 11.816406 L 578.277344 11.816406 L 581.851562 6.699219 Z M 581.851562 11.816406 "/>
<path style=" stroke:none;fill-rule:nonzero;fill:rgb(0%,0%,0%);fill-opacity:1;" d="M 585.847656 15.605469 C 587.527344 15.410156 588.347656 15.117188 589.363281 14.394531 C 590.90625 13.261719 591.824219 11.40625 591.824219 9.394531 C 591.824219 6.914062 590.457031 5.175781 588.523438 5.175781 C 586.746094 5.175781 585.417969 6.679688 585.417969 8.691406 C 585.417969 10.527344 586.492188 11.738281 588.113281 11.738281 C 588.933594 11.738281 589.558594 11.484375 590.339844 10.878906 C 589.734375 13.320312 588.074219 14.921875 585.808594 15.3125 Z M 590.378906 9.960938 C 590.378906 10.273438 590.320312 10.410156 590.144531 10.527344 C 589.734375 10.898438 589.1875 11.09375 588.640625 11.09375 C 587.507812 11.09375 586.785156 9.960938 586.785156 8.183594 C 586.785156 7.34375 587.039062 6.445312 587.351562 6.054688 C 587.605469 5.761719 587.976562 5.585938 588.40625 5.585938 C 589.714844 5.585938 590.378906 6.875 590.378906 9.394531 Z M 590.378906 9.960938 "/>
<path style=" stroke:none;fill-rule:nonzero;fill:rgb(0%,0%,0%);fill-opacity:1;" d="M 593.320312 15.605469 C 595 15.410156 595.820312 15.117188 596.835938 14.394531 C 598.378906 13.261719 599.296875 11.40625 599.296875 9.394531 C 599.296875 6.914062 597.929688 5.175781 595.996094 5.175781 C 594.21875 5.175781 592.890625 6.679688 592.890625 8.691406 C 592.890625 10.527344 593.964844 11.738281 595.585938 11.738281 C 596.40625 11.738281 597.03125 11.484375 597.8125 10.878906 C 597.207031 13.320312 595.546875 14.921875 593.28125 15.3125 Z M 597.851562 9.960938 C 597.851562 10.273438 597.792969 10.410156 597.617188 10.527344 C 597.207031 10.898438 596.660156 11.09375 596.113281 11.09375 C 594.980469 11.09375 594.257812 9.960938 594.257812 8.183594 C 594.257812 7.34375 594.511719 6.445312 594.824219 6.054688 C 595.078125 5.761719 595.449219 5.585938 595.878906 5.585938 C 597.1875 5.585938 597.851562 6.875 597.851562 9.394531 Z M 597.851562 9.960938 "/>
<path style=" stroke:none;fill-rule:nonzero;fill:rgb(0%,0%,0%);fill-opacity:1;" d="M 604.25 9.726562 C 605.734375 8.945312 606.242188 8.320312 606.242188 7.285156 C 606.242188 6.074219 605.167969 5.175781 603.683594 5.175781 C 602.042969 5.175781 600.832031 6.171875 600.832031 7.539062 C 600.832031 8.496094 601.125 8.945312 602.6875 10.3125 C 601.085938 11.542969 600.753906 11.992188 600.753906 13.007812 C 600.753906 14.472656 601.925781 15.488281 603.625 15.488281 C 605.421875 15.488281 606.554688 14.492188 606.554688 12.949219 C 606.554688 11.816406 606.046875 11.074219 604.25 9.726562 Z M 603.976562 11.269531 C 605.070312 12.050781 605.421875 12.578125 605.421875 13.417969 C 605.421875 14.394531 604.757812 15.058594 603.78125 15.058594 C 602.648438 15.058594 601.886719 14.199219 601.886719 12.890625 C 601.886719 11.933594 602.21875 11.308594 603.078125 10.605469 Z M 603.820312 9.453125 C 602.492188 8.59375 601.945312 7.910156 601.945312 7.070312 C 601.945312 6.210938 602.609375 5.585938 603.566406 5.585938 C 604.582031 5.585938 605.226562 6.25 605.226562 7.285156 C 605.226562 8.125 604.796875 8.808594 603.957031 9.375 C 603.878906 9.414062 603.878906 9.414062 603.820312 9.453125 Z M 603.820312 9.453125 "/>
<path style=" stroke:none;fill-rule:nonzero;fill:rgb(0%,0%,0%);fill-opacity:1;" d="M 612.996094 13.789062 C 612.546875 13.789062 612.175781 14.160156 612.175781 14.628906 C 612.175781 15.058594 612.546875 15.429688 612.976562 15.429688 C 613.445312 15.429688 613.816406 15.058594 613.816406 14.628906 C 613.816406 14.160156 613.445312 13.789062 612.996094 13.789062 Z M 612.996094 13.789062 "/>
<path style=" stroke:none;fill-rule:nonzero;fill:rgb(0%,0%,0%);fill-opacity:1;" d="M 621.90625 11.816406 L 620.382812 11.816406 L 620.382812 5.175781 L 619.71875 5.175781 L 615.03125 11.816406 L 615.03125 12.773438 L 619.230469 12.773438 L 619.230469 15.273438 L 620.382812 15.273438 L 620.382812 12.773438 L 621.90625 12.773438 Z M 619.210938 11.816406 L 615.636719 11.816406 L 619.210938 6.699219 Z M 619.210938 11.816406 "/>
<path style=" stroke:none;fill-rule:nonzero;fill:rgb(0%,0%,0%);fill-opacity:1;" d="M 626.117188 5.175781 C 625.296875 5.175781 624.671875 5.429688 624.125 5.957031 C 623.246094 6.777344 622.679688 8.496094 622.679688 10.253906 C 622.679688 11.875 623.1875 13.632812 623.890625 14.472656 C 624.4375 15.117188 625.199219 15.488281 626.058594 15.488281 C 626.820312 15.488281 627.464844 15.234375 628.011719 14.707031 C 628.871094 13.886719 629.4375 12.148438 629.4375 10.351562 C 629.4375 7.285156 628.089844 5.175781 626.117188 5.175781 Z M 626.078125 5.566406 C 627.328125 5.566406 628.011719 7.246094 628.011719 10.371094 C 628.011719 13.496094 627.347656 15.097656 626.058594 15.097656 C 624.769531 15.097656 624.125 13.496094 624.125 10.390625 C 624.125 7.226562 624.789062 5.566406 626.078125 5.566406 Z M 626.078125 5.566406 "/>
<path style=" stroke:none;fill-rule:nonzero;fill:rgb(0%,0%,0%);fill-opacity:1;" d="M 635.410156 13.789062 C 634.960938 13.789062 634.589844 14.160156 634.589844 14.628906 C 634.589844 15.058594 634.960938 15.429688 635.390625 15.429688 C 635.859375 15.429688 636.230469 15.058594 636.230469 14.628906 C 636.230469 14.160156 635.859375 13.789062 635.410156 13.789062 Z M 635.410156 13.789062 "/>
<path style=" stroke:none;fill-rule:nonzero;fill:rgb(0%,0%,0%);fill-opacity:1;" d="M 643.933594 5.058594 C 642.234375 5.195312 641.375 5.488281 640.28125 6.25 C 638.660156 7.402344 637.78125 9.101562 637.78125 11.113281 C 637.78125 12.402344 638.191406 13.710938 638.835938 14.472656 C 639.402344 15.117188 640.203125 15.488281 641.121094 15.488281 C 642.976562 15.488281 644.265625 14.0625 644.265625 11.992188 C 644.265625 10.097656 643.171875 8.886719 641.453125 8.886719 C 640.808594 8.886719 640.476562 8.984375 639.539062 9.550781 C 639.949219 7.285156 641.628906 5.683594 643.972656 5.292969 Z M 640.886719 9.570312 C 642.175781 9.570312 642.917969 10.644531 642.917969 12.5 C 642.917969 14.160156 642.332031 15.058594 641.296875 15.058594 C 639.96875 15.058594 639.167969 13.652344 639.167969 11.347656 C 639.167969 10.585938 639.285156 10.15625 639.597656 9.941406 C 639.910156 9.707031 640.359375 9.570312 640.886719 9.570312 Z M 640.886719 9.570312 "/>
<path style=" stroke:none;fill-rule:nonzero;fill:rgb(0%,0%,0%);fill-opacity:1;" d="M 647.441406 6.5625 L 650.371094 6.5625 C 650.625 6.5625 650.683594 6.523438 650.722656 6.425781 L 651.289062 5.097656 L 651.152344 5 C 650.9375 5.3125 650.78125 5.390625 650.46875 5.390625 L 647.34375 5.390625 L 645.722656 8.925781 C 645.703125 8.945312 645.703125 8.964844 645.703125 9.003906 C 645.703125 9.082031 645.761719 9.121094 645.878906 9.121094 C 646.367188 9.121094 646.953125 9.21875 647.578125 9.414062 C 649.296875 9.960938 650.078125 10.898438 650.078125 12.382812 C 650.078125 13.808594 649.160156 14.921875 648.007812 14.921875 C 647.695312 14.921875 647.441406 14.824219 647.011719 14.492188 C 646.523438 14.160156 646.171875 14.003906 645.859375 14.003906 C 645.429688 14.003906 645.214844 14.179688 645.214844 14.550781 C 645.214844 15.117188 645.917969 15.488281 647.050781 15.488281 C 648.300781 15.488281 649.375 15.078125 650.117188 14.316406 C 650.820312 13.652344 651.132812 12.792969 651.132812 11.660156 C 651.132812 10.585938 650.839844 9.902344 650.097656 9.140625 C 649.433594 8.496094 648.59375 8.144531 646.816406 7.832031 Z M 647.441406 6.5625 "/>
<path style=" stroke:none;fill-rule:nonzero;fill:rgb(0%,0%,0%);fill-opacity:1;" d="M 659.265625 11.816406 L 657.742188 11.816406 L 657.742188 5.175781 L 657.078125 5.175781 L 652.390625 11.816406 L 652.390625 12.773438 L 656.589844 12.773438 L 656.589844 15.273438 L 657.742188 15.273438 L 657.742188 12.773438 L 659.265625 12.773438 Z M 656.570312 11.816406 L 652.996094 11.816406 L 656.570312 6.699219 Z M 656.570312 11.816406 "/>
<path style=" stroke:none;fill-rule:nonzero;fill:rgb(0%,0%,0%);fill-opacity:1;" d="M 664.023438 9.726562 C 665.507812 8.945312 666.015625 8.320312 666.015625 7.285156 C 666.015625 6.074219 664.941406 5.175781 663.457031 5.175781 C 661.816406 5.175781 660.605469 6.171875 660.605469 7.539062 C 660.605469 8.496094 660.898438 8.945312 662.460938 10.3125 C 660.859375 11.542969 660.527344 11.992188 660.527344 13.007812 C 660.527344 14.472656 661.699219 15.488281 663.398438 15.488281 C 665.195312 15.488281 666.328125 14.492188 666.328125 12.949219 C 666.328125 11.816406 665.820312 11.074219 664.023438 9.726562 Z M 663.75 11.269531 C 664.84375 12.050781 665.195312 12.578125 665.195312 13.417969 C 665.195312 14.394531 664.53125 15.058594 663.554688 15.058594 C 662.421875 15.058594 661.660156 14.199219 661.660156 12.890625 C 661.660156 11.933594 661.992188 11.308594 662.851562 10.605469 Z M 663.59375 9.453125 C 662.265625 8.59375 661.71875 7.910156 661.71875 7.070312 C 661.71875 6.210938 662.382812 5.585938 663.339844 5.585938 C 664.355469 5.585938 665 6.25 665 7.285156 C 665 8.125 664.570312 8.808594 663.730469 9.375 C 663.652344 9.414062 663.652344 9.414062 663.59375 9.453125 Z M 663.59375 9.453125 "/>
</g>
</svg>
