<?xml version="1.0" encoding="UTF-8"?>
<svg xmlns="http://www.w3.org/2000/svg" xmlns:xlink="http://www.w3.org/1999/xlink" width="696.70978pt" height="20.605469pt" viewBox="0 0 696.70978 20.605469" version="1.1">
<g id="surface105">
<path style=" stroke:none;fill-rule:nonzero;fill:rgb(0%,0%,0%);fill-opacity:1;" d="M 8.4375 5.175781 C 7.617188 5.175781 6.992188 5.429688 6.445312 5.957031 C 5.566406 6.777344 5 8.496094 5 10.253906 C 5 11.875 5.507812 13.632812 6.210938 14.472656 C 6.757812 15.117188 7.519531 15.488281 8.378906 15.488281 C 9.140625 15.488281 9.785156 15.234375 10.332031 14.707031 C 11.191406 13.886719 11.757812 12.148438 11.757812 10.351562 C 11.757812 7.285156 10.410156 5.175781 8.4375 5.175781 Z M 8.398438 5.566406 C 9.648438 5.566406 10.332031 7.246094 10.332031 10.371094 C 10.332031 13.496094 9.667969 15.097656 8.378906 15.097656 C 7.089844 15.097656 6.445312 13.496094 6.445312 10.390625 C 6.445312 7.226562 7.109375 5.566406 8.398438 5.566406 Z M 8.398438 5.566406 "/>
<path style=" stroke:none;fill-rule:nonzero;fill:rgb(0%,0%,0%);fill-opacity:1;" d="M 17.730469 13.789062 C 17.28125 13.789062 16.910156 14.160156 16.910156 14.628906 C 16.910156 15.058594 17.28125 15.429688 17.710938 15.429688 C 18.179688 15.429688 18.550781 15.058594 18.550781 14.628906 C 18.550781 14.160156 18.179688 13.789062 17.730469 13.789062 Z M 17.730469 13.789062 "/>
<path style=" stroke:none;fill-rule:nonzero;fill:rgb(0%,0%,0%);fill-opacity:1;" d="M 23.382812 5.175781 C 22.5625 5.175781 21.9375 5.429688 21.390625 5.957031 C 20.511719 6.777344 19.945312 8.496094 19.945312 10.253906 C 19.945312 11.875 20.453125 13.632812 21.15625 14.472656 C 21.703125 15.117188 22.464844 15.488281 23.324219 15.488281 C 24.085938 15.488281 24.730469 15.234375 25.277344 14.707031 C 26.136719 13.886719 26.703125 12.148438 26.703125 10.351562 C 26.703125 7.285156 25.355469 5.175781 23.382812 5.175781 Z M 23.34375 5.566406 C 24.59375 5.566406 25.277344 7.246094 25.277344 10.371094 C 25.277344 13.496094 24.613281 15.097656 23.324219 15.097656 C 22.035156 15.097656 21.390625 13.496094 21.390625 10.390625 C 21.390625 7.226562 22.054688 5.566406 23.34375 5.566406 Z M 23.34375 5.566406 "/>
<path style=" stroke:none;fill-rule:nonzero;fill:rgb(0%,0%,0%);fill-opacity:1;" d="M 30.851562 5.175781 C 30.03125 5.175781 29.40625 5.429688 28.859375 5.957031 C 27.980469 6.777344 27.414062 8.496094 27.414062 10.253906 C 27.414062 11.875 27.921875 13.632812 28.625 14.472656 C 29.171875 15.117188 29.933594 15.488281 30.792969 15.488281 C 31.554688 15.488281 32.199219 15.234375 32.746094 14.707031 C 33.605469 13.886719 34.171875 12.148438 34.171875 10.351562 C 34.171875 7.285156 32.824219 5.175781 30.851562 5.175781 Z M 30.8125 5.566406 C 32.0625 5.566406 32.746094 7.246094 32.746094 10.371094 C 32.746094 13.496094 32.082031 15.097656 30.792969 15.097656 C 29.503906 15.097656 28.859375 13.496094 28.859375 10.390625 C 28.859375 7.226562 29.523438 5.566406 30.8125 5.566406 Z M 30.8125 5.566406 "/>
<path style=" stroke:none;fill-rule:nonzero;fill:rgb(0%,0%,0%);fill-opacity:1;" d="M 41.195312 5.058594 C 39.496094 5.195312 38.636719 5.488281 37.542969 6.25 C 35.921875 7.402344 35.042969 9.101562 35.042969 11.113281 C 35.042969 12.402344 35.453125 13.710938 36.097656 14.472656 C 36.664062 15.117188 37.464844 15.488281 38.382812 15.488281 C 40.238281 15.488281 41.527344 14.0625 41.527344 11.992188 C 41.527344 10.097656 40.433594 8.886719 38.714844 8.886719 C 38.070312 8.886719 37.738281 8.984375 36.800781 9.550781 C 37.210938 7.285156 38.890625 5.683594 41.234375 5.292969 Z M 38.148438 9.570312 C 39.4375 9.570312 40.179688 10.644531 40.179688 12.5 C 40.179688 14.160156 39.59375 15.058594 38.558594 15.058594 C 37.230469 15.058594 36.429688 13.652344 36.429688 11.347656 C 36.429688 10.585938 36.546875 10.15625 36.859375 9.941406 C 37.171875 9.707031 37.621094 9.570312 38.148438 9.570312 Z M 38.148438 9.570312 "/>
<path style=" stroke:none;fill-rule:nonzero;fill:rgb(0%,0%,0%);fill-opacity:1;" d="M 46.363281 5.175781 L 43.667969 6.523438 L 43.667969 6.738281 C 43.84375 6.660156 44.019531 6.601562 44.078125 6.582031 C 44.332031 6.464844 44.585938 6.40625 44.742188 6.40625 C 45.054688 6.40625 45.191406 6.640625 45.191406 7.109375 L 45.191406 13.886719 C 45.191406 14.375 45.074219 14.726562 44.839844 14.863281 C 44.605469 14.980469 44.390625 15.039062 43.765625 15.058594 L 43.765625 15.273438 L 47.886719 15.273438 L 47.886719 15.058594 C 46.714844 15.039062 46.480469 14.882812 46.480469 14.160156 L 46.480469 5.195312 Z M 46.363281 5.175781 "/>
<path style=" stroke:none;fill-rule:nonzero;fill:rgb(0%,0%,0%);fill-opacity:1;" d="M 53.835938 5.175781 L 51.140625 6.523438 L 51.140625 6.738281 C 51.316406 6.660156 51.492188 6.601562 51.550781 6.582031 C 51.804688 6.464844 52.058594 6.40625 52.214844 6.40625 C 52.527344 6.40625 52.664062 6.640625 52.664062 7.109375 L 52.664062 13.886719 C 52.664062 14.375 52.546875 14.726562 52.3125 14.863281 C 52.078125 14.980469 51.863281 15.039062 51.238281 15.058594 L 51.238281 15.273438 L 55.359375 15.273438 L 55.359375 15.058594 C 54.1875 15.039062 53.953125 14.882812 53.953125 14.160156 L 53.953125 5.195312 Z M 53.835938 5.175781 "/>
<path style=" stroke:none;fill-rule:nonzero;fill:rgb(0%,0%,0%);fill-opacity:1;" d="M 57.832031 15.605469 C 59.511719 15.410156 60.332031 15.117188 61.347656 14.394531 C 62.890625 13.261719 63.808594 11.40625 63.808594 9.394531 C 63.808594 6.914062 62.441406 5.175781 60.507812 5.175781 C 58.730469 5.175781 57.402344 6.679688 57.402344 8.691406 C 57.402344 10.527344 58.476562 11.738281 60.097656 11.738281 C 60.917969 11.738281 61.542969 11.484375 62.324219 10.878906 C 61.71875 13.320312 60.058594 14.921875 57.792969 15.3125 Z M 62.363281 9.960938 C 62.363281 10.273438 62.304688 10.410156 62.128906 10.527344 C 61.71875 10.898438 61.171875 11.09375 60.625 11.09375 C 59.492188 11.09375 58.769531 9.960938 58.769531 8.183594 C 58.769531 7.34375 59.023438 6.445312 59.335938 6.054688 C 59.589844 5.761719 59.960938 5.585938 60.390625 5.585938 C 61.699219 5.585938 62.363281 6.875 62.363281 9.394531 Z M 62.363281 9.960938 "/>
<path style=" stroke:none;fill-rule:nonzero;fill:rgb(0%,0%,0%);fill-opacity:1;" d="M 70.035156 13.789062 C 69.585938 13.789062 69.214844 14.160156 69.214844 14.628906 C 69.214844 15.058594 69.585938 15.429688 70.015625 15.429688 C 70.484375 15.429688 70.855469 15.058594 70.855469 14.628906 C 70.855469 14.160156 70.484375 13.789062 70.035156 13.789062 Z M 70.035156 13.789062 "/>
<path style=" stroke:none;fill-rule:nonzero;fill:rgb(0%,0%,0%);fill-opacity:1;" d="M 75.683594 5.175781 C 74.863281 5.175781 74.238281 5.429688 73.691406 5.957031 C 72.8125 6.777344 72.246094 8.496094 72.246094 10.253906 C 72.246094 11.875 72.753906 13.632812 73.457031 14.472656 C 74.003906 15.117188 74.765625 15.488281 75.625 15.488281 C 76.386719 15.488281 77.03125 15.234375 77.578125 14.707031 C 78.4375 13.886719 79.003906 12.148438 79.003906 10.351562 C 79.003906 7.285156 77.65625 5.175781 75.683594 5.175781 Z M 75.644531 5.566406 C 76.894531 5.566406 77.578125 7.246094 77.578125 10.371094 C 77.578125 13.496094 76.914062 15.097656 75.625 15.097656 C 74.335938 15.097656 73.691406 13.496094 73.691406 10.390625 C 73.691406 7.226562 74.355469 5.566406 75.644531 5.566406 Z M 75.644531 5.566406 "/>
<path style=" stroke:none;fill-rule:nonzero;fill:rgb(0%,0%,0%);fill-opacity:1;" d="M 86.417969 11.816406 L 84.894531 11.816406 L 84.894531 5.175781 L 84.230469 5.175781 L 79.542969 11.816406 L 79.542969 12.773438 L 83.742188 12.773438 L 83.742188 15.273438 L 84.894531 15.273438 L 84.894531 12.773438 L 86.417969 12.773438 Z M 83.722656 11.816406 L 80.148438 11.816406 L 83.722656 6.699219 Z M 83.722656 11.816406 "/>
<path style=" stroke:none;fill-rule:nonzero;fill:rgb(0%,0%,0%);fill-opacity:1;" d="M 90.628906 5.175781 C 89.808594 5.175781 89.183594 5.429688 88.636719 5.957031 C 87.757812 6.777344 87.191406 8.496094 87.191406 10.253906 C 87.191406 11.875 87.699219 13.632812 88.402344 14.472656 C 88.949219 15.117188 89.710938 15.488281 90.570312 15.488281 C 91.332031 15.488281 91.976562 15.234375 92.523438 14.707031 C 93.382812 13.886719 93.949219 12.148438 93.949219 10.351562 C 93.949219 7.285156 92.601562 5.175781 90.628906 5.175781 Z M 90.589844 5.566406 C 91.839844 5.566406 92.523438 7.246094 92.523438 10.371094 C 92.523438 13.496094 91.859375 15.097656 90.570312 15.097656 C 89.28125 15.097656 88.636719 13.496094 88.636719 10.390625 C 88.636719 7.226562 89.300781 5.566406 90.589844 5.566406 Z M 90.589844 5.566406 "/>
<path style=" stroke:none;fill-rule:nonzero;fill:rgb(0%,0%,0%);fill-opacity:1;" d="M 99.921875 13.789062 C 99.472656 13.789062 99.101562 14.160156 99.101562 14.628906 C 99.101562 15.058594 99.472656 15.429688 99.902344 15.429688 C 100.371094 15.429688 100.742188 15.058594 100.742188 14.628906 C 100.742188 14.160156 100.371094 13.789062 99.921875 13.789062 Z M 99.921875 13.789062 "/>
<path style=" stroke:none;fill-rule:nonzero;fill:rgb(0%,0%,0%);fill-opacity:1;" d="M 105.574219 5.175781 C 104.753906 5.175781 104.128906 5.429688 103.582031 5.957031 C 102.703125 6.777344 102.136719 8.496094 102.136719 10.253906 C 102.136719 11.875 102.644531 13.632812 103.347656 14.472656 C 103.894531 15.117188 104.65625 15.488281 105.515625 15.488281 C 106.277344 15.488281 106.921875 15.234375 107.46875 14.707031 C 108.328125 13.886719 108.894531 12.148438 108.894531 10.351562 C 108.894531 7.285156 107.546875 5.175781 105.574219 5.175781 Z M 105.535156 5.566406 C 106.785156 5.566406 107.46875 7.246094 107.46875 10.371094 C 107.46875 13.496094 106.804688 15.097656 105.515625 15.097656 C 104.226562 15.097656 103.582031 13.496094 103.582031 10.390625 C 103.582031 7.226562 104.246094 5.566406 105.535156 5.566406 Z M 105.535156 5.566406 "/>
<path style=" stroke:none;fill-rule:nonzero;fill:rgb(0%,0%,0%);fill-opacity:1;" d="M 116.347656 13.222656 L 116.152344 13.144531 C 115.605469 14.003906 115.410156 14.140625 114.746094 14.140625 L 111.171875 14.140625 L 113.671875 11.503906 C 115.019531 10.117188 115.585938 8.984375 115.585938 7.8125 C 115.585938 6.328125 114.375 5.175781 112.832031 5.175781 C 112.011719 5.175781 111.230469 5.507812 110.683594 6.09375 C 110.195312 6.601562 109.980469 7.089844 109.726562 8.144531 L 110.039062 8.222656 C 110.625 6.757812 111.171875 6.269531 112.207031 6.269531 C 113.457031 6.269531 114.316406 7.128906 114.316406 8.378906 C 114.316406 9.550781 113.613281 10.9375 112.363281 12.265625 L 109.707031 15.097656 L 109.707031 15.273438 L 115.527344 15.273438 Z M 116.347656 13.222656 "/>
<path style=" stroke:none;fill-rule:nonzero;fill:rgb(0%,0%,0%);fill-opacity:1;" d="M 119.011719 10.351562 C 119.890625 10.351562 120.242188 10.371094 120.59375 10.507812 C 121.53125 10.839844 122.097656 11.679688 122.097656 12.714844 C 122.097656 13.964844 121.257812 14.941406 120.144531 14.941406 C 119.753906 14.941406 119.441406 14.84375 118.894531 14.472656 C 118.445312 14.21875 118.191406 14.101562 117.9375 14.101562 C 117.585938 14.101562 117.371094 14.316406 117.371094 14.628906 C 117.371094 15.15625 118.015625 15.488281 119.050781 15.488281 C 120.203125 15.488281 121.394531 15.097656 122.097656 14.472656 C 122.800781 13.867188 123.171875 13.007812 123.171875 11.992188 C 123.171875 11.230469 122.9375 10.527344 122.507812 10.078125 C 122.214844 9.746094 121.921875 9.570312 121.277344 9.277344 C 122.292969 8.574219 122.664062 8.027344 122.664062 7.226562 C 122.664062 6.015625 121.726562 5.175781 120.339844 5.175781 C 119.597656 5.175781 118.933594 5.429688 118.40625 5.898438 C 117.957031 6.308594 117.722656 6.699219 117.390625 7.597656 L 117.625 7.65625 C 118.230469 6.5625 118.914062 6.074219 119.851562 6.074219 C 120.828125 6.074219 121.492188 6.71875 121.492188 7.675781 C 121.492188 8.203125 121.277344 8.75 120.886719 9.121094 C 120.4375 9.570312 120.027344 9.785156 119.011719 10.15625 Z M 119.011719 10.351562 "/>
<path style=" stroke:none;fill-rule:nonzero;fill:rgb(0%,0%,0%);fill-opacity:1;" d="M 128.535156 9.726562 C 130.019531 8.945312 130.527344 8.320312 130.527344 7.285156 C 130.527344 6.074219 129.453125 5.175781 127.96875 5.175781 C 126.328125 5.175781 125.117188 6.171875 125.117188 7.539062 C 125.117188 8.496094 125.410156 8.945312 126.972656 10.3125 C 125.371094 11.542969 125.039062 11.992188 125.039062 13.007812 C 125.039062 14.472656 126.210938 15.488281 127.910156 15.488281 C 129.707031 15.488281 130.839844 14.492188 130.839844 12.949219 C 130.839844 11.816406 130.332031 11.074219 128.535156 9.726562 Z M 128.261719 11.269531 C 129.355469 12.050781 129.707031 12.578125 129.707031 13.417969 C 129.707031 14.394531 129.042969 15.058594 128.066406 15.058594 C 126.933594 15.058594 126.171875 14.199219 126.171875 12.890625 C 126.171875 11.933594 126.503906 11.308594 127.363281 10.605469 Z M 128.105469 9.453125 C 126.777344 8.59375 126.230469 7.910156 126.230469 7.070312 C 126.230469 6.210938 126.894531 5.585938 127.851562 5.585938 C 128.867188 5.585938 129.511719 6.25 129.511719 7.285156 C 129.511719 8.125 129.082031 8.808594 128.242188 9.375 C 128.164062 9.414062 128.164062 9.414062 128.105469 9.453125 Z M 128.105469 9.453125 "/>
<path style=" stroke:none;fill-rule:nonzero;fill:rgb(0%,0%,0%);fill-opacity:1;" d="M 133.957031 10.351562 C 134.835938 10.351562 135.1875 10.371094 135.539062 10.507812 C 136.476562 10.839844 137.042969 11.679688 137.042969 12.714844 C 137.042969 13.964844 136.203125 14.941406 135.089844 14.941406 C 134.699219 14.941406 134.386719 14.84375 133.839844 14.472656 C 133.390625 14.21875 133.136719 14.101562 132.882812 14.101562 C 132.53125 14.101562 132.316406 14.316406 132.316406 14.628906 C 132.316406 15.15625 132.960938 15.488281 133.996094 15.488281 C 135.148438 15.488281 136.339844 15.097656 137.042969 14.472656 C 137.746094 13.867188 138.117188 13.007812 138.117188 11.992188 C 138.117188 11.230469 137.882812 10.527344 137.453125 10.078125 C 137.160156 9.746094 136.867188 9.570312 136.222656 9.277344 C 137.238281 8.574219 137.609375 8.027344 137.609375 7.226562 C 137.609375 6.015625 136.671875 5.175781 135.285156 5.175781 C 134.542969 5.175781 133.878906 5.429688 133.351562 5.898438 C 132.902344 6.308594 132.667969 6.699219 132.335938 7.597656 L 132.570312 7.65625 C 133.175781 6.5625 133.859375 6.074219 134.796875 6.074219 C 135.773438 6.074219 136.4375 6.71875 136.4375 7.675781 C 136.4375 8.203125 136.222656 8.75 135.832031 9.121094 C 135.382812 9.570312 134.972656 9.785156 133.957031 10.15625 Z M 133.957031 10.351562 "/>
<path style=" stroke:none;fill-rule:nonzero;fill:rgb(0%,0%,0%);fill-opacity:1;" d="M 144.753906 13.789062 C 144.304688 13.789062 143.933594 14.160156 143.933594 14.628906 C 143.933594 15.058594 144.304688 15.429688 144.734375 15.429688 C 145.203125 15.429688 145.574219 15.058594 145.574219 14.628906 C 145.574219 14.160156 145.203125 13.789062 144.753906 13.789062 Z M 144.753906 13.789062 "/>
<path style=" stroke:none;fill-rule:nonzero;fill:rgb(0%,0%,0%);fill-opacity:1;" d="M 150.40625 5.175781 C 149.585938 5.175781 148.960938 5.429688 148.414062 5.957031 C 147.535156 6.777344 146.96875 8.496094 146.96875 10.253906 C 146.96875 11.875 147.476562 13.632812 148.179688 14.472656 C 148.726562 15.117188 149.488281 15.488281 150.347656 15.488281 C 151.109375 15.488281 151.753906 15.234375 152.300781 14.707031 C 153.160156 13.886719 153.726562 12.148438 153.726562 10.351562 C 153.726562 7.285156 152.378906 5.175781 150.40625 5.175781 Z M 150.367188 5.566406 C 151.617188 5.566406 152.300781 7.246094 152.300781 10.371094 C 152.300781 13.496094 151.636719 15.097656 150.347656 15.097656 C 149.058594 15.097656 148.414062 13.496094 148.414062 10.390625 C 148.414062 7.226562 149.078125 5.566406 150.367188 5.566406 Z M 150.367188 5.566406 "/>
<path style=" stroke:none;fill-rule:nonzero;fill:rgb(0%,0%,0%);fill-opacity:1;" d="M 158.425781 9.726562 C 159.910156 8.945312 160.417969 8.320312 160.417969 7.285156 C 160.417969 6.074219 159.34375 5.175781 157.859375 5.175781 C 156.21875 5.175781 155.007812 6.171875 155.007812 7.539062 C 155.007812 8.496094 155.300781 8.945312 156.863281 10.3125 C 155.261719 11.542969 154.929688 11.992188 154.929688 13.007812 C 154.929688 14.472656 156.101562 15.488281 157.800781 15.488281 C 159.597656 15.488281 160.730469 14.492188 160.730469 12.949219 C 160.730469 11.816406 160.222656 11.074219 158.425781 9.726562 Z M 158.152344 11.269531 C 159.246094 12.050781 159.597656 12.578125 159.597656 13.417969 C 159.597656 14.394531 158.933594 15.058594 157.957031 15.058594 C 156.824219 15.058594 156.0625 14.199219 156.0625 12.890625 C 156.0625 11.933594 156.394531 11.308594 157.253906 10.605469 Z M 157.996094 9.453125 C 156.667969 8.59375 156.121094 7.910156 156.121094 7.070312 C 156.121094 6.210938 156.785156 5.585938 157.742188 5.585938 C 158.757812 5.585938 159.402344 6.25 159.402344 7.285156 C 159.402344 8.125 158.972656 8.808594 158.132812 9.375 C 158.054688 9.414062 158.054688 9.414062 157.996094 9.453125 Z M 157.996094 9.453125 "/>
<path style=" stroke:none;fill-rule:nonzero;fill:rgb(0%,0%,0%);fill-opacity:1;" d="M 165.347656 5.175781 C 164.527344 5.175781 163.902344 5.429688 163.355469 5.957031 C 162.476562 6.777344 161.910156 8.496094 161.910156 10.253906 C 161.910156 11.875 162.417969 13.632812 163.121094 14.472656 C 163.667969 15.117188 164.429688 15.488281 165.289062 15.488281 C 166.050781 15.488281 166.695312 15.234375 167.242188 14.707031 C 168.101562 13.886719 168.667969 12.148438 168.667969 10.351562 C 168.667969 7.285156 167.320312 5.175781 165.347656 5.175781 Z M 165.308594 5.566406 C 166.558594 5.566406 167.242188 7.246094 167.242188 10.371094 C 167.242188 13.496094 166.578125 15.097656 165.289062 15.097656 C 164 15.097656 163.355469 13.496094 163.355469 10.390625 C 163.355469 7.226562 164.019531 5.566406 165.308594 5.566406 Z M 165.308594 5.566406 "/>
<path style=" stroke:none;fill-rule:nonzero;fill:rgb(0%,0%,0%);fill-opacity:1;" d="M 174.644531 13.789062 C 174.195312 13.789062 173.824219 14.160156 173.824219 14.628906 C 173.824219 15.058594 174.195312 15.429688 174.625 15.429688 C 175.09375 15.429688 175.464844 15.058594 175.464844 14.628906 C 175.464844 14.160156 175.09375 13.789062 174.644531 13.789062 Z M 174.644531 13.789062 "/>
<path style=" stroke:none;fill-rule:nonzero;fill:rgb(0%,0%,0%);fill-opacity:1;" d="M 180.292969 5.175781 C 179.472656 5.175781 178.847656 5.429688 178.300781 5.957031 C 177.421875 6.777344 176.855469 8.496094 176.855469 10.253906 C 176.855469 11.875 177.363281 13.632812 178.066406 14.472656 C 178.613281 15.117188 179.375 15.488281 180.234375 15.488281 C 180.996094 15.488281 181.640625 15.234375 182.1875 14.707031 C 183.046875 13.886719 183.613281 12.148438 183.613281 10.351562 C 183.613281 7.285156 182.265625 5.175781 180.292969 5.175781 Z M 180.253906 5.566406 C 181.503906 5.566406 182.1875 7.246094 182.1875 10.371094 C 182.1875 13.496094 181.523438 15.097656 180.234375 15.097656 C 178.945312 15.097656 178.300781 13.496094 178.300781 10.390625 C 178.300781 7.226562 178.964844 5.566406 180.253906 5.566406 Z M 180.253906 5.566406 "/>
<path style=" stroke:none;fill-rule:nonzero;fill:rgb(0%,0%,0%);fill-opacity:1;" d="M 190.675781 5.390625 L 185.148438 5.390625 L 184.269531 7.578125 L 184.523438 7.695312 C 185.167969 6.679688 185.441406 6.484375 186.261719 6.484375 L 189.503906 6.484375 L 186.554688 15.390625 L 187.511719 15.390625 L 190.675781 5.625 Z M 190.675781 5.390625 "/>
<path style=" stroke:none;fill-rule:nonzero;fill:rgb(0%,0%,0%);fill-opacity:1;" d="M 192.328125 15.605469 C 194.007812 15.410156 194.828125 15.117188 195.84375 14.394531 C 197.386719 13.261719 198.304688 11.40625 198.304688 9.394531 C 198.304688 6.914062 196.9375 5.175781 195.003906 5.175781 C 193.226562 5.175781 191.898438 6.679688 191.898438 8.691406 C 191.898438 10.527344 192.972656 11.738281 194.59375 11.738281 C 195.414062 11.738281 196.039062 11.484375 196.820312 10.878906 C 196.214844 13.320312 194.554688 14.921875 192.289062 15.3125 Z M 196.859375 9.960938 C 196.859375 10.273438 196.800781 10.410156 196.625 10.527344 C 196.214844 10.898438 195.667969 11.09375 195.121094 11.09375 C 193.988281 11.09375 193.265625 9.960938 193.265625 8.183594 C 193.265625 7.34375 193.519531 6.445312 193.832031 6.054688 C 194.085938 5.761719 194.457031 5.585938 194.886719 5.585938 C 196.195312 5.585938 196.859375 6.875 196.859375 9.394531 Z M 196.859375 9.960938 "/>
<path style=" stroke:none;fill-rule:nonzero;fill:rgb(0%,0%,0%);fill-opacity:1;" d="M 203.277344 5.175781 L 200.582031 6.523438 L 200.582031 6.738281 C 200.757812 6.660156 200.933594 6.601562 200.992188 6.582031 C 201.246094 6.464844 201.5 6.40625 201.65625 6.40625 C 201.96875 6.40625 202.105469 6.640625 202.105469 7.109375 L 202.105469 13.886719 C 202.105469 14.375 201.988281 14.726562 201.753906 14.863281 C 201.519531 14.980469 201.304688 15.039062 200.679688 15.058594 L 200.679688 15.273438 L 204.800781 15.273438 L 204.800781 15.058594 C 203.628906 15.039062 203.394531 14.882812 203.394531 14.160156 L 203.394531 5.195312 Z M 203.277344 5.175781 "/>
<path style=" stroke:none;fill-rule:nonzero;fill:rgb(0%,0%,0%);fill-opacity:1;" d="M 208.675781 10.351562 C 209.554688 10.351562 209.90625 10.371094 210.257812 10.507812 C 211.195312 10.839844 211.761719 11.679688 211.761719 12.714844 C 211.761719 13.964844 210.921875 14.941406 209.808594 14.941406 C 209.417969 14.941406 209.105469 14.84375 208.558594 14.472656 C 208.109375 14.21875 207.855469 14.101562 207.601562 14.101562 C 207.25 14.101562 207.035156 14.316406 207.035156 14.628906 C 207.035156 15.15625 207.679688 15.488281 208.714844 15.488281 C 209.867188 15.488281 211.058594 15.097656 211.761719 14.472656 C 212.464844 13.867188 212.835938 13.007812 212.835938 11.992188 C 212.835938 11.230469 212.601562 10.527344 212.171875 10.078125 C 211.878906 9.746094 211.585938 9.570312 210.941406 9.277344 C 211.957031 8.574219 212.328125 8.027344 212.328125 7.226562 C 212.328125 6.015625 211.390625 5.175781 210.003906 5.175781 C 209.261719 5.175781 208.597656 5.429688 208.070312 5.898438 C 207.621094 6.308594 207.386719 6.699219 207.054688 7.597656 L 207.289062 7.65625 C 207.894531 6.5625 208.578125 6.074219 209.515625 6.074219 C 210.492188 6.074219 211.15625 6.71875 211.15625 7.675781 C 211.15625 8.203125 210.941406 8.75 210.550781 9.121094 C 210.101562 9.570312 209.691406 9.785156 208.675781 10.15625 Z M 208.675781 10.351562 "/>
<path style=" stroke:none;fill-rule:nonzero;fill:rgb(0%,0%,0%);fill-opacity:1;" d="M 219.476562 13.789062 C 219.027344 13.789062 218.65625 14.160156 218.65625 14.628906 C 218.65625 15.058594 219.027344 15.429688 219.457031 15.429688 C 219.925781 15.429688 220.296875 15.058594 220.296875 14.628906 C 220.296875 14.160156 219.925781 13.789062 219.476562 13.789062 Z M 219.476562 13.789062 "/>
<path style=" stroke:none;fill-rule:nonzero;fill:rgb(0%,0%,0%);fill-opacity:1;" d="M 225.691406 5.175781 L 222.996094 6.523438 L 222.996094 6.738281 C 223.171875 6.660156 223.347656 6.601562 223.40625 6.582031 C 223.660156 6.464844 223.914062 6.40625 224.070312 6.40625 C 224.382812 6.40625 224.519531 6.640625 224.519531 7.109375 L 224.519531 13.886719 C 224.519531 14.375 224.402344 14.726562 224.167969 14.863281 C 223.933594 14.980469 223.71875 15.039062 223.09375 15.058594 L 223.09375 15.273438 L 227.214844 15.273438 L 227.214844 15.058594 C 226.042969 15.039062 225.808594 14.882812 225.808594 14.160156 L 225.808594 5.195312 Z M 225.691406 5.175781 "/>
<path style=" stroke:none;fill-rule:nonzero;fill:rgb(0%,0%,0%);fill-opacity:1;" d="M 235.898438 13.222656 L 235.703125 13.144531 C 235.15625 14.003906 234.960938 14.140625 234.296875 14.140625 L 230.722656 14.140625 L 233.222656 11.503906 C 234.570312 10.117188 235.136719 8.984375 235.136719 7.8125 C 235.136719 6.328125 233.925781 5.175781 232.382812 5.175781 C 231.5625 5.175781 230.78125 5.507812 230.234375 6.09375 C 229.746094 6.601562 229.53125 7.089844 229.277344 8.144531 L 229.589844 8.222656 C 230.175781 6.757812 230.722656 6.269531 231.757812 6.269531 C 233.007812 6.269531 233.867188 7.128906 233.867188 8.378906 C 233.867188 9.550781 233.164062 10.9375 231.914062 12.265625 L 229.257812 15.097656 L 229.257812 15.273438 L 235.078125 15.273438 Z M 235.898438 13.222656 "/>
<path style=" stroke:none;fill-rule:nonzero;fill:rgb(0%,0%,0%);fill-opacity:1;" d="M 241.890625 13.789062 C 241.441406 13.789062 241.070312 14.160156 241.070312 14.628906 C 241.070312 15.058594 241.441406 15.429688 241.871094 15.429688 C 242.339844 15.429688 242.710938 15.058594 242.710938 14.628906 C 242.710938 14.160156 242.339844 13.789062 241.890625 13.789062 Z M 241.890625 13.789062 "/>
<path style=" stroke:none;fill-rule:nonzero;fill:rgb(0%,0%,0%);fill-opacity:1;" d="M 250.84375 13.222656 L 250.648438 13.144531 C 250.101562 14.003906 249.90625 14.140625 249.242188 14.140625 L 245.667969 14.140625 L 248.167969 11.503906 C 249.515625 10.117188 250.082031 8.984375 250.082031 7.8125 C 250.082031 6.328125 248.871094 5.175781 247.328125 5.175781 C 246.507812 5.175781 245.726562 5.507812 245.179688 6.09375 C 244.691406 6.601562 244.476562 7.089844 244.222656 8.144531 L 244.535156 8.222656 C 245.121094 6.757812 245.667969 6.269531 246.703125 6.269531 C 247.953125 6.269531 248.8125 7.128906 248.8125 8.378906 C 248.8125 9.550781 248.109375 10.9375 246.859375 12.265625 L 244.203125 15.097656 L 244.203125 15.273438 L 250.023438 15.273438 Z M 250.84375 13.222656 "/>
<path style=" stroke:none;fill-rule:nonzero;fill:rgb(0%,0%,0%);fill-opacity:1;" d="M 258.3125 13.222656 L 258.117188 13.144531 C 257.570312 14.003906 257.375 14.140625 256.710938 14.140625 L 253.136719 14.140625 L 255.636719 11.503906 C 256.984375 10.117188 257.550781 8.984375 257.550781 7.8125 C 257.550781 6.328125 256.339844 5.175781 254.796875 5.175781 C 253.976562 5.175781 253.195312 5.507812 252.648438 6.09375 C 252.160156 6.601562 251.945312 7.089844 251.691406 8.144531 L 252.003906 8.222656 C 252.589844 6.757812 253.136719 6.269531 254.171875 6.269531 C 255.421875 6.269531 256.28125 7.128906 256.28125 8.378906 C 256.28125 9.550781 255.578125 10.9375 254.328125 12.265625 L 251.671875 15.097656 L 251.671875 15.273438 L 257.492188 15.273438 Z M 258.3125 13.222656 "/>
<path style=" stroke:none;fill-rule:nonzero;fill:rgb(0%,0%,0%);fill-opacity:1;" d="M 260.980469 10.351562 C 261.859375 10.351562 262.210938 10.371094 262.5625 10.507812 C 263.5 10.839844 264.066406 11.679688 264.066406 12.714844 C 264.066406 13.964844 263.226562 14.941406 262.113281 14.941406 C 261.722656 14.941406 261.410156 14.84375 260.863281 14.472656 C 260.414062 14.21875 260.160156 14.101562 259.90625 14.101562 C 259.554688 14.101562 259.339844 14.316406 259.339844 14.628906 C 259.339844 15.15625 259.984375 15.488281 261.019531 15.488281 C 262.171875 15.488281 263.363281 15.097656 264.066406 14.472656 C 264.769531 13.867188 265.140625 13.007812 265.140625 11.992188 C 265.140625 11.230469 264.90625 10.527344 264.476562 10.078125 C 264.183594 9.746094 263.890625 9.570312 263.246094 9.277344 C 264.261719 8.574219 264.632812 8.027344 264.632812 7.226562 C 264.632812 6.015625 263.695312 5.175781 262.308594 5.175781 C 261.566406 5.175781 260.902344 5.429688 260.375 5.898438 C 259.925781 6.308594 259.691406 6.699219 259.359375 7.597656 L 259.59375 7.65625 C 260.199219 6.5625 260.882812 6.074219 261.820312 6.074219 C 262.796875 6.074219 263.460938 6.71875 263.460938 7.675781 C 263.460938 8.203125 263.246094 8.75 262.855469 9.121094 C 262.40625 9.570312 261.996094 9.785156 260.980469 10.15625 Z M 260.980469 10.351562 "/>
<path style=" stroke:none;fill-rule:nonzero;fill:rgb(0%,0%,0%);fill-opacity:1;" d="M 267.046875 15.605469 C 268.726562 15.410156 269.546875 15.117188 270.5625 14.394531 C 272.105469 13.261719 273.023438 11.40625 273.023438 9.394531 C 273.023438 6.914062 271.65625 5.175781 269.722656 5.175781 C 267.945312 5.175781 266.617188 6.679688 266.617188 8.691406 C 266.617188 10.527344 267.691406 11.738281 269.3125 11.738281 C 270.132812 11.738281 270.757812 11.484375 271.539062 10.878906 C 270.933594 13.320312 269.273438 14.921875 267.007812 15.3125 Z M 271.578125 9.960938 C 271.578125 10.273438 271.519531 10.410156 271.34375 10.527344 C 270.933594 10.898438 270.386719 11.09375 269.839844 11.09375 C 268.707031 11.09375 267.984375 9.960938 267.984375 8.183594 C 267.984375 7.34375 268.238281 6.445312 268.550781 6.054688 C 268.804688 5.761719 269.175781 5.585938 269.605469 5.585938 C 270.914062 5.585938 271.578125 6.875 271.578125 9.394531 Z M 271.578125 9.960938 "/>
<path style=" stroke:none;fill-rule:nonzero;fill:rgb(0%,0%,0%);fill-opacity:1;" d="M 279.25 13.789062 C 278.800781 13.789062 278.429688 14.160156 278.429688 14.628906 C 278.429688 15.058594 278.800781 15.429688 279.230469 15.429688 C 279.699219 15.429688 280.070312 15.058594 280.070312 14.628906 C 280.070312 14.160156 279.699219 13.789062 279.25 13.789062 Z M 279.25 13.789062 "/>
<path style=" stroke:none;fill-rule:nonzero;fill:rgb(0%,0%,0%);fill-opacity:1;" d="M 285.46875 5.175781 L 282.773438 6.523438 L 282.773438 6.738281 C 282.949219 6.660156 283.125 6.601562 283.183594 6.582031 C 283.4375 6.464844 283.691406 6.40625 283.847656 6.40625 C 284.160156 6.40625 284.296875 6.640625 284.296875 7.109375 L 284.296875 13.886719 C 284.296875 14.375 284.179688 14.726562 283.945312 14.863281 C 283.710938 14.980469 283.496094 15.039062 282.871094 15.058594 L 282.871094 15.273438 L 286.992188 15.273438 L 286.992188 15.058594 C 285.820312 15.039062 285.585938 14.882812 285.585938 14.160156 L 285.585938 5.195312 Z M 285.46875 5.175781 "/>
<path style=" stroke:none;fill-rule:nonzero;fill:rgb(0%,0%,0%);fill-opacity:1;" d="M 295.246094 5.058594 C 293.546875 5.195312 292.6875 5.488281 291.59375 6.25 C 289.972656 7.402344 289.09375 9.101562 289.09375 11.113281 C 289.09375 12.402344 289.503906 13.710938 290.148438 14.472656 C 290.714844 15.117188 291.515625 15.488281 292.433594 15.488281 C 294.289062 15.488281 295.578125 14.0625 295.578125 11.992188 C 295.578125 10.097656 294.484375 8.886719 292.765625 8.886719 C 292.121094 8.886719 291.789062 8.984375 290.851562 9.550781 C 291.261719 7.285156 292.941406 5.683594 295.285156 5.292969 Z M 292.199219 9.570312 C 293.488281 9.570312 294.230469 10.644531 294.230469 12.5 C 294.230469 14.160156 293.644531 15.058594 292.609375 15.058594 C 291.28125 15.058594 290.480469 13.652344 290.480469 11.347656 C 290.480469 10.585938 290.597656 10.15625 290.910156 9.941406 C 291.222656 9.707031 291.671875 9.570312 292.199219 9.570312 Z M 292.199219 9.570312 "/>
<path style=" stroke:none;fill-rule:nonzero;fill:rgb(0%,0%,0%);fill-opacity:1;" d="M 301.667969 13.789062 C 301.21875 13.789062 300.847656 14.160156 300.847656 14.628906 C 300.847656 15.058594 301.21875 15.429688 301.648438 15.429688 C 302.117188 15.429688 302.488281 15.058594 302.488281 14.628906 C 302.488281 14.160156 302.117188 13.789062 301.667969 13.789062 Z M 301.667969 13.789062 "/>
<path style=" stroke:none;fill-rule:nonzero;fill:rgb(0%,0%,0%);fill-opacity:1;" d="M 306.222656 6.5625 L 309.152344 6.5625 C 309.40625 6.5625 309.464844 6.523438 309.503906 6.425781 L 310.070312 5.097656 L 309.933594 5 C 309.71875 5.3125 309.5625 5.390625 309.25 5.390625 L 306.125 5.390625 L 304.503906 8.925781 C 304.484375 8.945312 304.484375 8.964844 304.484375 9.003906 C 304.484375 9.082031 304.542969 9.121094 304.660156 9.121094 C 305.148438 9.121094 305.734375 9.21875 306.359375 9.414062 C 308.078125 9.960938 308.859375 10.898438 308.859375 12.382812 C 308.859375 13.808594 307.941406 14.921875 306.789062 14.921875 C 306.476562 14.921875 306.222656 14.824219 305.792969 14.492188 C 305.304688 14.160156 304.953125 14.003906 304.640625 14.003906 C 304.210938 14.003906 303.996094 14.179688 303.996094 14.550781 C 303.996094 15.117188 304.699219 15.488281 305.832031 15.488281 C 307.082031 15.488281 308.15625 15.078125 308.898438 14.316406 C 309.601562 13.652344 309.914062 12.792969 309.914062 11.660156 C 309.914062 10.585938 309.621094 9.902344 308.878906 9.140625 C 308.214844 8.496094 307.375 8.144531 305.597656 7.832031 Z M 306.222656 6.5625 "/>
<path style=" stroke:none;fill-rule:nonzero;fill:rgb(0%,0%,0%);fill-opacity:1;" d="M 313.285156 10.351562 C 314.164062 10.351562 314.515625 10.371094 314.867188 10.507812 C 315.804688 10.839844 316.371094 11.679688 316.371094 12.714844 C 316.371094 13.964844 315.53125 14.941406 314.417969 14.941406 C 314.027344 14.941406 313.714844 14.84375 313.167969 14.472656 C 312.71875 14.21875 312.464844 14.101562 312.210938 14.101562 C 311.859375 14.101562 311.644531 14.316406 311.644531 14.628906 C 311.644531 15.15625 312.289062 15.488281 313.324219 15.488281 C 314.476562 15.488281 315.667969 15.097656 316.371094 14.472656 C 317.074219 13.867188 317.445312 13.007812 317.445312 11.992188 C 317.445312 11.230469 317.210938 10.527344 316.78125 10.078125 C 316.488281 9.746094 316.195312 9.570312 315.550781 9.277344 C 316.566406 8.574219 316.9375 8.027344 316.9375 7.226562 C 316.9375 6.015625 316 5.175781 314.613281 5.175781 C 313.871094 5.175781 313.207031 5.429688 312.679688 5.898438 C 312.230469 6.308594 311.996094 6.699219 311.664062 7.597656 L 311.898438 7.65625 C 312.503906 6.5625 313.1875 6.074219 314.125 6.074219 C 315.101562 6.074219 315.765625 6.71875 315.765625 7.675781 C 315.765625 8.203125 315.550781 8.75 315.160156 9.121094 C 314.710938 9.570312 314.300781 9.785156 313.285156 10.15625 Z M 313.285156 10.351562 "/>
<path style=" stroke:none;fill-rule:nonzero;fill:rgb(0%,0%,0%);fill-opacity:1;" d="M 319.351562 15.605469 C 321.03125 15.410156 321.851562 15.117188 322.867188 14.394531 C 324.410156 13.261719 325.328125 11.40625 325.328125 9.394531 C 325.328125 6.914062 323.960938 5.175781 322.027344 5.175781 C 320.25 5.175781 318.921875 6.679688 318.921875 8.691406 C 318.921875 10.527344 319.996094 11.738281 321.617188 11.738281 C 322.4375 11.738281 323.0625 11.484375 323.84375 10.878906 C 323.238281 13.320312 321.578125 14.921875 319.3125 15.3125 Z M 323.882812 9.960938 C 323.882812 10.273438 323.824219 10.410156 323.648438 10.527344 C 323.238281 10.898438 322.691406 11.09375 322.144531 11.09375 C 321.011719 11.09375 320.289062 9.960938 320.289062 8.183594 C 320.289062 7.34375 320.542969 6.445312 320.855469 6.054688 C 321.109375 5.761719 321.480469 5.585938 321.910156 5.585938 C 323.21875 5.585938 323.882812 6.875 323.882812 9.394531 Z M 323.882812 9.960938 "/>
<path style=" stroke:none;fill-rule:nonzero;fill:rgb(0%,0%,0%);fill-opacity:1;" d="M 328.640625 6.5625 L 331.570312 6.5625 C 331.824219 6.5625 331.882812 6.523438 331.921875 6.425781 L 332.488281 5.097656 L 332.351562 5 C 332.136719 5.3125 331.980469 5.390625 331.667969 5.390625 L 328.542969 5.390625 L 326.921875 8.925781 C 326.902344 8.945312 326.902344 8.964844 326.902344 9.003906 C 326.902344 9.082031 326.960938 9.121094 327.078125 9.121094 C 327.566406 9.121094 328.152344 9.21875 328.777344 9.414062 C 330.496094 9.960938 331.277344 10.898438 331.277344 12.382812 C 331.277344 13.808594 330.359375 14.921875 329.207031 14.921875 C 328.894531 14.921875 328.640625 14.824219 328.210938 14.492188 C 327.722656 14.160156 327.371094 14.003906 327.058594 14.003906 C 326.628906 14.003906 326.414062 14.179688 326.414062 14.550781 C 326.414062 15.117188 327.117188 15.488281 328.25 15.488281 C 329.5 15.488281 330.574219 15.078125 331.316406 14.316406 C 332.019531 13.652344 332.332031 12.792969 332.332031 11.660156 C 332.332031 10.585938 332.039062 9.902344 331.296875 9.140625 C 330.632812 8.496094 329.792969 8.144531 328.015625 7.832031 Z M 328.640625 6.5625 "/>
<path style=" stroke:none;fill-rule:nonzero;fill:rgb(0%,0%,0%);fill-opacity:1;" d="M 339.027344 13.789062 C 338.578125 13.789062 338.207031 14.160156 338.207031 14.628906 C 338.207031 15.058594 338.578125 15.429688 339.007812 15.429688 C 339.476562 15.429688 339.847656 15.058594 339.847656 14.628906 C 339.847656 14.160156 339.476562 13.789062 339.027344 13.789062 Z M 339.027344 13.789062 "/>
<path style=" stroke:none;fill-rule:nonzero;fill:rgb(0%,0%,0%);fill-opacity:1;" d="M 347.976562 13.222656 L 347.78125 13.144531 C 347.234375 14.003906 347.039062 14.140625 346.375 14.140625 L 342.800781 14.140625 L 345.300781 11.503906 C 346.648438 10.117188 347.214844 8.984375 347.214844 7.8125 C 347.214844 6.328125 346.003906 5.175781 344.460938 5.175781 C 343.640625 5.175781 342.859375 5.507812 342.3125 6.09375 C 341.824219 6.601562 341.609375 7.089844 341.355469 8.144531 L 341.667969 8.222656 C 342.253906 6.757812 342.800781 6.269531 343.835938 6.269531 C 345.085938 6.269531 345.945312 7.128906 345.945312 8.378906 C 345.945312 9.550781 345.242188 10.9375 343.992188 12.265625 L 341.335938 15.097656 L 341.335938 15.273438 L 347.15625 15.273438 Z M 347.976562 13.222656 "/>
<path style=" stroke:none;fill-rule:nonzero;fill:rgb(0%,0%,0%);fill-opacity:1;" d="M 352.148438 5.175781 C 351.328125 5.175781 350.703125 5.429688 350.15625 5.957031 C 349.277344 6.777344 348.710938 8.496094 348.710938 10.253906 C 348.710938 11.875 349.21875 13.632812 349.921875 14.472656 C 350.46875 15.117188 351.230469 15.488281 352.089844 15.488281 C 352.851562 15.488281 353.496094 15.234375 354.042969 14.707031 C 354.902344 13.886719 355.46875 12.148438 355.46875 10.351562 C 355.46875 7.285156 354.121094 5.175781 352.148438 5.175781 Z M 352.109375 5.566406 C 353.359375 5.566406 354.042969 7.246094 354.042969 10.371094 C 354.042969 13.496094 353.378906 15.097656 352.089844 15.097656 C 350.800781 15.097656 350.15625 13.496094 350.15625 10.390625 C 350.15625 7.226562 350.820312 5.566406 352.109375 5.566406 Z M 352.109375 5.566406 "/>
<path style=" stroke:none;fill-rule:nonzero;fill:rgb(0%,0%,0%);fill-opacity:1;" d="M 363.925781 5.175781 L 361.230469 6.523438 L 361.230469 6.738281 C 361.40625 6.660156 361.582031 6.601562 361.640625 6.582031 C 361.894531 6.464844 362.148438 6.40625 362.304688 6.40625 C 362.617188 6.40625 362.753906 6.640625 362.753906 7.109375 L 362.753906 13.886719 C 362.753906 14.375 362.636719 14.726562 362.402344 14.863281 C 362.167969 14.980469 361.953125 15.039062 361.328125 15.058594 L 361.328125 15.273438 L 365.449219 15.273438 L 365.449219 15.058594 C 364.277344 15.039062 364.042969 14.882812 364.042969 14.160156 L 364.042969 5.195312 Z M 363.925781 5.175781 "/>
<path style=" stroke:none;fill-rule:nonzero;fill:rgb(0%,0%,0%);fill-opacity:1;" d="M 368.914062 13.789062 C 368.464844 13.789062 368.09375 14.160156 368.09375 14.628906 C 368.09375 15.058594 368.464844 15.429688 368.894531 15.429688 C 369.363281 15.429688 369.734375 15.058594 369.734375 14.628906 C 369.734375 14.160156 369.363281 13.789062 368.914062 13.789062 Z M 368.914062 13.789062 "/>
<path style=" stroke:none;fill-rule:nonzero;fill:rgb(0%,0%,0%);fill-opacity:1;" d="M 375.132812 5.175781 L 372.4375 6.523438 L 372.4375 6.738281 C 372.613281 6.660156 372.789062 6.601562 372.847656 6.582031 C 373.101562 6.464844 373.355469 6.40625 373.511719 6.40625 C 373.824219 6.40625 373.960938 6.640625 373.960938 7.109375 L 373.960938 13.886719 C 373.960938 14.375 373.84375 14.726562 373.609375 14.863281 C 373.375 14.980469 373.160156 15.039062 372.535156 15.058594 L 372.535156 15.273438 L 376.65625 15.273438 L 376.65625 15.058594 C 375.484375 15.039062 375.25 14.882812 375.25 14.160156 L 375.25 5.195312 Z M 375.132812 5.175781 "/>
<path style=" stroke:none;fill-rule:nonzero;fill:rgb(0%,0%,0%);fill-opacity:1;" d="M 382.039062 5.175781 C 381.21875 5.175781 380.59375 5.429688 380.046875 5.957031 C 379.167969 6.777344 378.601562 8.496094 378.601562 10.253906 C 378.601562 11.875 379.109375 13.632812 379.8125 14.472656 C 380.359375 15.117188 381.121094 15.488281 381.980469 15.488281 C 382.742188 15.488281 383.386719 15.234375 383.933594 14.707031 C 384.792969 13.886719 385.359375 12.148438 385.359375 10.351562 C 385.359375 7.285156 384.011719 5.175781 382.039062 5.175781 Z M 382 5.566406 C 383.25 5.566406 383.933594 7.246094 383.933594 10.371094 C 383.933594 13.496094 383.269531 15.097656 381.980469 15.097656 C 380.691406 15.097656 380.046875 13.496094 380.046875 10.390625 C 380.046875 7.226562 380.710938 5.566406 382 5.566406 Z M 382 5.566406 "/>
<path style=" stroke:none;fill-rule:nonzero;fill:rgb(0%,0%,0%);fill-opacity:1;" d="M 386.597656 15.605469 C 388.277344 15.410156 389.097656 15.117188 390.113281 14.394531 C 391.65625 13.261719 392.574219 11.40625 392.574219 9.394531 C 392.574219 6.914062 391.207031 5.175781 389.273438 5.175781 C 387.496094 5.175781 386.167969 6.679688 386.167969 8.691406 C 386.167969 10.527344 387.242188 11.738281 388.863281 11.738281 C 389.683594 11.738281 390.308594 11.484375 391.089844 10.878906 C 390.484375 13.320312 388.824219 14.921875 386.558594 15.3125 Z M 391.128906 9.960938 C 391.128906 10.273438 391.070312 10.410156 390.894531 10.527344 C 390.484375 10.898438 389.9375 11.09375 389.390625 11.09375 C 388.257812 11.09375 387.535156 9.960938 387.535156 8.183594 C 387.535156 7.34375 387.789062 6.445312 388.101562 6.054688 C 388.355469 5.761719 388.726562 5.585938 389.15625 5.585938 C 390.464844 5.585938 391.128906 6.875 391.128906 9.394531 Z M 391.128906 9.960938 "/>
<path style=" stroke:none;fill-rule:nonzero;fill:rgb(0%,0%,0%);fill-opacity:1;" d="M 398.804688 13.789062 C 398.355469 13.789062 397.984375 14.160156 397.984375 14.628906 C 397.984375 15.058594 398.355469 15.429688 398.785156 15.429688 C 399.253906 15.429688 399.625 15.058594 399.625 14.628906 C 399.625 14.160156 399.253906 13.789062 398.804688 13.789062 Z M 398.804688 13.789062 "/>
<path style=" stroke:none;fill-rule:nonzero;fill:rgb(0%,0%,0%);fill-opacity:1;" d="M 407.753906 13.222656 L 407.558594 13.144531 C 407.011719 14.003906 406.816406 14.140625 406.152344 14.140625 L 402.578125 14.140625 L 405.078125 11.503906 C 406.425781 10.117188 406.992188 8.984375 406.992188 7.8125 C 406.992188 6.328125 405.78125 5.175781 404.238281 5.175781 C 403.417969 5.175781 402.636719 5.507812 402.089844 6.09375 C 401.601562 6.601562 401.386719 7.089844 401.132812 8.144531 L 401.445312 8.222656 C 402.03125 6.757812 402.578125 6.269531 403.613281 6.269531 C 404.863281 6.269531 405.722656 7.128906 405.722656 8.378906 C 405.722656 9.550781 405.019531 10.9375 403.769531 12.265625 L 401.113281 15.097656 L 401.113281 15.273438 L 406.933594 15.273438 Z M 407.753906 13.222656 "/>
<path style=" stroke:none;fill-rule:nonzero;fill:rgb(0%,0%,0%);fill-opacity:1;" d="M 415.1875 11.816406 L 413.664062 11.816406 L 413.664062 5.175781 L 413 5.175781 L 408.3125 11.816406 L 408.3125 12.773438 L 412.511719 12.773438 L 412.511719 15.273438 L 413.664062 15.273438 L 413.664062 12.773438 L 415.1875 12.773438 Z M 412.492188 11.816406 L 408.917969 11.816406 L 412.492188 6.699219 Z M 412.492188 11.816406 "/>
<path style=" stroke:none;fill-rule:nonzero;fill:rgb(0%,0%,0%);fill-opacity:1;" d="M 423.699219 5.175781 L 421.003906 6.523438 L 421.003906 6.738281 C 421.179688 6.660156 421.355469 6.601562 421.414062 6.582031 C 421.667969 6.464844 421.921875 6.40625 422.078125 6.40625 C 422.390625 6.40625 422.527344 6.640625 422.527344 7.109375 L 422.527344 13.886719 C 422.527344 14.375 422.410156 14.726562 422.175781 14.863281 C 421.941406 14.980469 421.726562 15.039062 421.101562 15.058594 L 421.101562 15.273438 L 425.222656 15.273438 L 425.222656 15.058594 C 424.050781 15.039062 423.816406 14.882812 423.816406 14.160156 L 423.816406 5.195312 Z M 423.699219 5.175781 "/>
<path style=" stroke:none;fill-rule:nonzero;fill:rgb(0%,0%,0%);fill-opacity:1;" d="M 428.691406 13.789062 C 428.242188 13.789062 427.871094 14.160156 427.871094 14.628906 C 427.871094 15.058594 428.242188 15.429688 428.671875 15.429688 C 429.140625 15.429688 429.511719 15.058594 429.511719 14.628906 C 429.511719 14.160156 429.140625 13.789062 428.691406 13.789062 Z M 428.691406 13.789062 "/>
<path style=" stroke:none;fill-rule:nonzero;fill:rgb(0%,0%,0%);fill-opacity:1;" d="M 431.429688 15.605469 C 433.109375 15.410156 433.929688 15.117188 434.945312 14.394531 C 436.488281 13.261719 437.40625 11.40625 437.40625 9.394531 C 437.40625 6.914062 436.039062 5.175781 434.105469 5.175781 C 432.328125 5.175781 431 6.679688 431 8.691406 C 431 10.527344 432.074219 11.738281 433.695312 11.738281 C 434.515625 11.738281 435.140625 11.484375 435.921875 10.878906 C 435.316406 13.320312 433.65625 14.921875 431.390625 15.3125 Z M 435.960938 9.960938 C 435.960938 10.273438 435.902344 10.410156 435.726562 10.527344 C 435.316406 10.898438 434.769531 11.09375 434.222656 11.09375 C 433.089844 11.09375 432.367188 9.960938 432.367188 8.183594 C 432.367188 7.34375 432.621094 6.445312 432.933594 6.054688 C 433.1875 5.761719 433.558594 5.585938 433.988281 5.585938 C 435.296875 5.585938 435.960938 6.875 435.960938 9.394531 Z M 435.960938 9.960938 "/>
<path style=" stroke:none;fill-rule:nonzero;fill:rgb(0%,0%,0%);fill-opacity:1;" d="M 445.074219 11.816406 L 443.550781 11.816406 L 443.550781 5.175781 L 442.886719 5.175781 L 438.199219 11.816406 L 438.199219 12.773438 L 442.398438 12.773438 L 442.398438 15.273438 L 443.550781 15.273438 L 443.550781 12.773438 L 445.074219 12.773438 Z M 442.378906 11.816406 L 438.804688 11.816406 L 442.378906 6.699219 Z M 442.378906 11.816406 "/>
<path style=" stroke:none;fill-rule:nonzero;fill:rgb(0%,0%,0%);fill-opacity:1;" d="M 449.851562 5.175781 L 447.15625 6.523438 L 447.15625 6.738281 C 447.332031 6.660156 447.507812 6.601562 447.566406 6.582031 C 447.820312 6.464844 448.074219 6.40625 448.230469 6.40625 C 448.542969 6.40625 448.679688 6.640625 448.679688 7.109375 L 448.679688 13.886719 C 448.679688 14.375 448.5625 14.726562 448.328125 14.863281 C 448.09375 14.980469 447.878906 15.039062 447.253906 15.058594 L 447.253906 15.273438 L 451.375 15.273438 L 451.375 15.058594 C 450.203125 15.039062 449.96875 14.882812 449.96875 14.160156 L 449.96875 5.195312 Z M 449.851562 5.175781 "/>
<path style=" stroke:none;fill-rule:nonzero;fill:rgb(0%,0%,0%);fill-opacity:1;" d="M 458.578125 13.789062 C 458.128906 13.789062 457.757812 14.160156 457.757812 14.628906 C 457.757812 15.058594 458.128906 15.429688 458.558594 15.429688 C 459.027344 15.429688 459.398438 15.058594 459.398438 14.628906 C 459.398438 14.160156 459.027344 13.789062 458.578125 13.789062 Z M 458.578125 13.789062 "/>
<path style=" stroke:none;fill-rule:nonzero;fill:rgb(0%,0%,0%);fill-opacity:1;" d="M 467.53125 13.222656 L 467.335938 13.144531 C 466.789062 14.003906 466.59375 14.140625 465.929688 14.140625 L 462.355469 14.140625 L 464.855469 11.503906 C 466.203125 10.117188 466.769531 8.984375 466.769531 7.8125 C 466.769531 6.328125 465.558594 5.175781 464.015625 5.175781 C 463.195312 5.175781 462.414062 5.507812 461.867188 6.09375 C 461.378906 6.601562 461.164062 7.089844 460.910156 8.144531 L 461.222656 8.222656 C 461.808594 6.757812 462.355469 6.269531 463.390625 6.269531 C 464.640625 6.269531 465.5 7.128906 465.5 8.378906 C 465.5 9.550781 464.796875 10.9375 463.546875 12.265625 L 460.890625 15.097656 L 460.890625 15.273438 L 466.710938 15.273438 Z M 467.53125 13.222656 "/>
<path style=" stroke:none;fill-rule:nonzero;fill:rgb(0%,0%,0%);fill-opacity:1;" d="M 472.25 9.726562 C 473.734375 8.945312 474.242188 8.320312 474.242188 7.285156 C 474.242188 6.074219 473.167969 5.175781 471.683594 5.175781 C 470.042969 5.175781 468.832031 6.171875 468.832031 7.539062 C 468.832031 8.496094 469.125 8.945312 470.6875 10.3125 C 469.085938 11.542969 468.753906 11.992188 468.753906 13.007812 C 468.753906 14.472656 469.925781 15.488281 471.625 15.488281 C 473.421875 15.488281 474.554688 14.492188 474.554688 12.949219 C 474.554688 11.816406 474.046875 11.074219 472.25 9.726562 Z M 471.976562 11.269531 C 473.070312 12.050781 473.421875 12.578125 473.421875 13.417969 C 473.421875 14.394531 472.757812 15.058594 471.78125 15.058594 C 470.648438 15.058594 469.886719 14.199219 469.886719 12.890625 C 469.886719 11.933594 470.21875 11.308594 471.078125 10.605469 Z M 471.820312 9.453125 C 470.492188 8.59375 469.945312 7.910156 469.945312 7.070312 C 469.945312 6.210938 470.609375 5.585938 471.566406 5.585938 C 472.582031 5.585938 473.226562 6.25 473.226562 7.285156 C 473.226562 8.125 472.796875 8.808594 471.957031 9.375 C 471.878906 9.414062 471.878906 9.414062 471.820312 9.453125 Z M 471.820312 9.453125 "/>
<path style=" stroke:none;fill-rule:nonzero;fill:rgb(0%,0%,0%);fill-opacity:1;" d="M 486.210938 13.222656 L 486.015625 13.144531 C 485.46875 14.003906 485.273438 14.140625 484.609375 14.140625 L 481.035156 14.140625 L 483.535156 11.503906 C 484.882812 10.117188 485.449219 8.984375 485.449219 7.8125 C 485.449219 6.328125 484.238281 5.175781 482.695312 5.175781 C 481.875 5.175781 481.09375 5.507812 480.546875 6.09375 C 480.058594 6.601562 479.84375 7.089844 479.589844 8.144531 L 479.902344 8.222656 C 480.488281 6.757812 481.035156 6.269531 482.070312 6.269531 C 483.320312 6.269531 484.179688 7.128906 484.179688 8.378906 C 484.179688 9.550781 483.476562 10.9375 482.226562 12.265625 L 479.570312 15.097656 L 479.570312 15.273438 L 485.390625 15.273438 Z M 486.210938 13.222656 "/>
<path style=" stroke:none;fill-rule:nonzero;fill:rgb(0%,0%,0%);fill-opacity:1;" d="M 488.46875 13.789062 C 488.019531 13.789062 487.648438 14.160156 487.648438 14.628906 C 487.648438 15.058594 488.019531 15.429688 488.449219 15.429688 C 488.917969 15.429688 489.289062 15.058594 489.289062 14.628906 C 489.289062 14.160156 488.917969 13.789062 488.46875 13.789062 Z M 488.46875 13.789062 "/>
<path style=" stroke:none;fill-rule:nonzero;fill:rgb(0%,0%,0%);fill-opacity:1;" d="M 494.664062 9.726562 C 496.148438 8.945312 496.65625 8.320312 496.65625 7.285156 C 496.65625 6.074219 495.582031 5.175781 494.097656 5.175781 C 492.457031 5.175781 491.246094 6.171875 491.246094 7.539062 C 491.246094 8.496094 491.539062 8.945312 493.101562 10.3125 C 491.5 11.542969 491.167969 11.992188 491.167969 13.007812 C 491.167969 14.472656 492.339844 15.488281 494.039062 15.488281 C 495.835938 15.488281 496.96875 14.492188 496.96875 12.949219 C 496.96875 11.816406 496.460938 11.074219 494.664062 9.726562 Z M 494.390625 11.269531 C 495.484375 12.050781 495.835938 12.578125 495.835938 13.417969 C 495.835938 14.394531 495.171875 15.058594 494.195312 15.058594 C 493.0625 15.058594 492.300781 14.199219 492.300781 12.890625 C 492.300781 11.933594 492.632812 11.308594 493.492188 10.605469 Z M 494.234375 9.453125 C 492.90625 8.59375 492.359375 7.910156 492.359375 7.070312 C 492.359375 6.210938 493.023438 5.585938 493.980469 5.585938 C 494.996094 5.585938 495.640625 6.25 495.640625 7.285156 C 495.640625 8.125 495.210938 8.808594 494.371094 9.375 C 494.292969 9.414062 494.292969 9.414062 494.234375 9.453125 Z M 494.234375 9.453125 "/>
<path style=" stroke:none;fill-rule:nonzero;fill:rgb(0%,0%,0%);fill-opacity:1;" d="M 498.679688 15.605469 C 500.359375 15.410156 501.179688 15.117188 502.195312 14.394531 C 503.738281 13.261719 504.65625 11.40625 504.65625 9.394531 C 504.65625 6.914062 503.289062 5.175781 501.355469 5.175781 C 499.578125 5.175781 498.25 6.679688 498.25 8.691406 C 498.25 10.527344 499.324219 11.738281 500.945312 11.738281 C 501.765625 11.738281 502.390625 11.484375 503.171875 10.878906 C 502.566406 13.320312 500.90625 14.921875 498.640625 15.3125 Z M 503.210938 9.960938 C 503.210938 10.273438 503.152344 10.410156 502.976562 10.527344 C 502.566406 10.898438 502.019531 11.09375 501.472656 11.09375 C 500.339844 11.09375 499.617188 9.960938 499.617188 8.183594 C 499.617188 7.34375 499.871094 6.445312 500.183594 6.054688 C 500.4375 5.761719 500.808594 5.585938 501.238281 5.585938 C 502.546875 5.585938 503.210938 6.875 503.210938 9.394531 Z M 503.210938 9.960938 "/>
<path style=" stroke:none;fill-rule:nonzero;fill:rgb(0%,0%,0%);fill-opacity:1;" d="M 511.933594 5.058594 C 510.234375 5.195312 509.375 5.488281 508.28125 6.25 C 506.660156 7.402344 505.78125 9.101562 505.78125 11.113281 C 505.78125 12.402344 506.191406 13.710938 506.835938 14.472656 C 507.402344 15.117188 508.203125 15.488281 509.121094 15.488281 C 510.976562 15.488281 512.265625 14.0625 512.265625 11.992188 C 512.265625 10.097656 511.171875 8.886719 509.453125 8.886719 C 508.808594 8.886719 508.476562 8.984375 507.539062 9.550781 C 507.949219 7.285156 509.628906 5.683594 511.972656 5.292969 Z M 508.886719 9.570312 C 510.175781 9.570312 510.917969 10.644531 510.917969 12.5 C 510.917969 14.160156 510.332031 15.058594 509.296875 15.058594 C 507.96875 15.058594 507.167969 13.652344 507.167969 11.347656 C 507.167969 10.585938 507.285156 10.15625 507.597656 9.941406 C 507.910156 9.707031 508.359375 9.570312 508.886719 9.570312 Z M 508.886719 9.570312 "/>
<path style=" stroke:none;fill-rule:nonzero;fill:rgb(0%,0%,0%);fill-opacity:1;" d="M 518.355469 13.789062 C 517.90625 13.789062 517.535156 14.160156 517.535156 14.628906 C 517.535156 15.058594 517.90625 15.429688 518.335938 15.429688 C 518.804688 15.429688 519.175781 15.058594 519.175781 14.628906 C 519.175781 14.160156 518.804688 13.789062 518.355469 13.789062 Z M 518.355469 13.789062 "/>
<path style=" stroke:none;fill-rule:nonzero;fill:rgb(0%,0%,0%);fill-opacity:1;" d="M 522.5 10.351562 C 523.378906 10.351562 523.730469 10.371094 524.082031 10.507812 C 525.019531 10.839844 525.585938 11.679688 525.585938 12.714844 C 525.585938 13.964844 524.746094 14.941406 523.632812 14.941406 C 523.242188 14.941406 522.929688 14.84375 522.382812 14.472656 C 521.933594 14.21875 521.679688 14.101562 521.425781 14.101562 C 521.074219 14.101562 520.859375 14.316406 520.859375 14.628906 C 520.859375 15.15625 521.503906 15.488281 522.539062 15.488281 C 523.691406 15.488281 524.882812 15.097656 525.585938 14.472656 C 526.289062 13.867188 526.660156 13.007812 526.660156 11.992188 C 526.660156 11.230469 526.425781 10.527344 525.996094 10.078125 C 525.703125 9.746094 525.410156 9.570312 524.765625 9.277344 C 525.78125 8.574219 526.152344 8.027344 526.152344 7.226562 C 526.152344 6.015625 525.214844 5.175781 523.828125 5.175781 C 523.085938 5.175781 522.421875 5.429688 521.894531 5.898438 C 521.445312 6.308594 521.210938 6.699219 520.878906 7.597656 L 521.113281 7.65625 C 521.71875 6.5625 522.402344 6.074219 523.339844 6.074219 C 524.316406 6.074219 524.980469 6.71875 524.980469 7.675781 C 524.980469 8.203125 524.765625 8.75 524.375 9.121094 C 523.925781 9.570312 523.515625 9.785156 522.5 10.15625 Z M 522.5 10.351562 "/>
<path style=" stroke:none;fill-rule:nonzero;fill:rgb(0%,0%,0%);fill-opacity:1;" d="M 534.777344 13.222656 L 534.582031 13.144531 C 534.035156 14.003906 533.839844 14.140625 533.175781 14.140625 L 529.601562 14.140625 L 532.101562 11.503906 C 533.449219 10.117188 534.015625 8.984375 534.015625 7.8125 C 534.015625 6.328125 532.804688 5.175781 531.261719 5.175781 C 530.441406 5.175781 529.660156 5.507812 529.113281 6.09375 C 528.625 6.601562 528.410156 7.089844 528.15625 8.144531 L 528.46875 8.222656 C 529.054688 6.757812 529.601562 6.269531 530.636719 6.269531 C 531.886719 6.269531 532.746094 7.128906 532.746094 8.378906 C 532.746094 9.550781 532.042969 10.9375 530.792969 12.265625 L 528.136719 15.097656 L 528.136719 15.273438 L 533.957031 15.273438 Z M 534.777344 13.222656 "/>
<path style=" stroke:none;fill-rule:nonzero;fill:rgb(0%,0%,0%);fill-opacity:1;" d="M 541.179688 10.351562 C 542.058594 10.351562 542.410156 10.371094 542.761719 10.507812 C 543.699219 10.839844 544.265625 11.679688 544.265625 12.714844 C 544.265625 13.964844 543.425781 14.941406 542.3125 14.941406 C 541.921875 14.941406 541.609375 14.84375 541.0625 14.472656 C 540.613281 14.21875 540.359375 14.101562 540.105469 14.101562 C 539.753906 14.101562 539.539062 14.316406 539.539062 14.628906 C 539.539062 15.15625 540.183594 15.488281 541.21875 15.488281 C 542.371094 15.488281 543.5625 15.097656 544.265625 14.472656 C 544.96875 13.867188 545.339844 13.007812 545.339844 11.992188 C 545.339844 11.230469 545.105469 10.527344 544.675781 10.078125 C 544.382812 9.746094 544.089844 9.570312 543.445312 9.277344 C 544.460938 8.574219 544.832031 8.027344 544.832031 7.226562 C 544.832031 6.015625 543.894531 5.175781 542.507812 5.175781 C 541.765625 5.175781 541.101562 5.429688 540.574219 5.898438 C 540.125 6.308594 539.890625 6.699219 539.558594 7.597656 L 539.792969 7.65625 C 540.398438 6.5625 541.082031 6.074219 542.019531 6.074219 C 542.996094 6.074219 543.660156 6.71875 543.660156 7.675781 C 543.660156 8.203125 543.445312 8.75 543.054688 9.121094 C 542.605469 9.570312 542.195312 9.785156 541.179688 10.15625 Z M 541.179688 10.351562 "/>
<path style=" stroke:none;fill-rule:nonzero;fill:rgb(0%,0%,0%);fill-opacity:1;" d="M 548.242188 13.789062 C 547.792969 13.789062 547.421875 14.160156 547.421875 14.628906 C 547.421875 15.058594 547.792969 15.429688 548.222656 15.429688 C 548.691406 15.429688 549.0625 15.058594 549.0625 14.628906 C 549.0625 14.160156 548.691406 13.789062 548.242188 13.789062 Z M 548.242188 13.789062 "/>
<path style=" stroke:none;fill-rule:nonzero;fill:rgb(0%,0%,0%);fill-opacity:1;" d="M 556.765625 5.058594 C 555.066406 5.195312 554.207031 5.488281 553.113281 6.25 C 551.492188 7.402344 550.613281 9.101562 550.613281 11.113281 C 550.613281 12.402344 551.023438 13.710938 551.667969 14.472656 C 552.234375 15.117188 553.035156 15.488281 553.953125 15.488281 C 555.808594 15.488281 557.097656 14.0625 557.097656 11.992188 C 557.097656 10.097656 556.003906 8.886719 554.285156 8.886719 C 553.640625 8.886719 553.308594 8.984375 552.371094 9.550781 C 552.78125 7.285156 554.460938 5.683594 556.804688 5.292969 Z M 553.71875 9.570312 C 555.007812 9.570312 555.75 10.644531 555.75 12.5 C 555.75 14.160156 555.164062 15.058594 554.128906 15.058594 C 552.800781 15.058594 552 13.652344 552 11.347656 C 552 10.585938 552.117188 10.15625 552.429688 9.941406 C 552.742188 9.707031 553.191406 9.570312 553.71875 9.570312 Z M 553.71875 9.570312 "/>
<path style=" stroke:none;fill-rule:nonzero;fill:rgb(0%,0%,0%);fill-opacity:1;" d="M 561.914062 9.726562 C 563.398438 8.945312 563.90625 8.320312 563.90625 7.285156 C 563.90625 6.074219 562.832031 5.175781 561.347656 5.175781 C 559.707031 5.175781 558.496094 6.171875 558.496094 7.539062 C 558.496094 8.496094 558.789062 8.945312 560.351562 10.3125 C 558.75 11.542969 558.417969 11.992188 558.417969 13.007812 C 558.417969 14.472656 559.589844 15.488281 561.289062 15.488281 C 563.085938 15.488281 564.21875 14.492188 564.21875 12.949219 C 564.21875 11.816406 563.710938 11.074219 561.914062 9.726562 Z M 561.640625 11.269531 C 562.734375 12.050781 563.085938 12.578125 563.085938 13.417969 C 563.085938 14.394531 562.421875 15.058594 561.445312 15.058594 C 560.3125 15.058594 559.550781 14.199219 559.550781 12.890625 C 559.550781 11.933594 559.882812 11.308594 560.742188 10.605469 Z M 561.484375 9.453125 C 560.15625 8.59375 559.609375 7.910156 559.609375 7.070312 C 559.609375 6.210938 560.273438 5.585938 561.230469 5.585938 C 562.246094 5.585938 562.890625 6.25 562.890625 7.285156 C 562.890625 8.125 562.460938 8.808594 561.621094 9.375 C 561.542969 9.414062 561.542969 9.414062 561.484375 9.453125 Z M 561.484375 9.453125 "/>
<path style=" stroke:none;fill-rule:nonzero;fill:rgb(0%,0%,0%);fill-opacity:1;" d="M 568.835938 5.175781 C 568.015625 5.175781 567.390625 5.429688 566.84375 5.957031 C 565.964844 6.777344 565.398438 8.496094 565.398438 10.253906 C 565.398438 11.875 565.90625 13.632812 566.609375 14.472656 C 567.15625 15.117188 567.917969 15.488281 568.777344 15.488281 C 569.539062 15.488281 570.183594 15.234375 570.730469 14.707031 C 571.589844 13.886719 572.15625 12.148438 572.15625 10.351562 C 572.15625 7.285156 570.808594 5.175781 568.835938 5.175781 Z M 568.796875 5.566406 C 570.046875 5.566406 570.730469 7.246094 570.730469 10.371094 C 570.730469 13.496094 570.066406 15.097656 568.777344 15.097656 C 567.488281 15.097656 566.84375 13.496094 566.84375 10.390625 C 566.84375 7.226562 567.507812 5.566406 568.796875 5.566406 Z M 568.796875 5.566406 "/>
<path style=" stroke:none;fill-rule:nonzero;fill:rgb(0%,0%,0%);fill-opacity:1;" d="M 578.132812 13.789062 C 577.683594 13.789062 577.3125 14.160156 577.3125 14.628906 C 577.3125 15.058594 577.683594 15.429688 578.113281 15.429688 C 578.582031 15.429688 578.953125 15.058594 578.953125 14.628906 C 578.953125 14.160156 578.582031 13.789062 578.132812 13.789062 Z M 578.132812 13.789062 "/>
<path style=" stroke:none;fill-rule:nonzero;fill:rgb(0%,0%,0%);fill-opacity:1;" d="M 582.277344 10.351562 C 583.15625 10.351562 583.507812 10.371094 583.859375 10.507812 C 584.796875 10.839844 585.363281 11.679688 585.363281 12.714844 C 585.363281 13.964844 584.523438 14.941406 583.410156 14.941406 C 583.019531 14.941406 582.707031 14.84375 582.160156 14.472656 C 581.710938 14.21875 581.457031 14.101562 581.203125 14.101562 C 580.851562 14.101562 580.636719 14.316406 580.636719 14.628906 C 580.636719 15.15625 581.28125 15.488281 582.316406 15.488281 C 583.46875 15.488281 584.660156 15.097656 585.363281 14.472656 C 586.066406 13.867188 586.4375 13.007812 586.4375 11.992188 C 586.4375 11.230469 586.203125 10.527344 585.773438 10.078125 C 585.480469 9.746094 585.1875 9.570312 584.542969 9.277344 C 585.558594 8.574219 585.929688 8.027344 585.929688 7.226562 C 585.929688 6.015625 584.992188 5.175781 583.605469 5.175781 C 582.863281 5.175781 582.199219 5.429688 581.671875 5.898438 C 581.222656 6.308594 580.988281 6.699219 580.65625 7.597656 L 580.890625 7.65625 C 581.496094 6.5625 582.179688 6.074219 583.117188 6.074219 C 584.09375 6.074219 584.757812 6.71875 584.757812 7.675781 C 584.757812 8.203125 584.542969 8.75 584.152344 9.121094 C 583.703125 9.570312 583.292969 9.785156 582.277344 10.15625 Z M 582.277344 10.351562 "/>
<path style=" stroke:none;fill-rule:nonzero;fill:rgb(0%,0%,0%);fill-opacity:1;" d="M 594.125 5.058594 C 592.425781 5.195312 591.566406 5.488281 590.472656 6.25 C 588.851562 7.402344 587.972656 9.101562 587.972656 11.113281 C 587.972656 12.402344 588.382812 13.710938 589.027344 14.472656 C 589.59375 15.117188 590.394531 15.488281 591.3125 15.488281 C 593.167969 15.488281 594.457031 14.0625 594.457031 11.992188 C 594.457031 10.097656 593.363281 8.886719 591.644531 8.886719 C 591 8.886719 590.667969 8.984375 589.730469 9.550781 C 590.140625 7.285156 591.820312 5.683594 594.164062 5.292969 Z M 591.078125 9.570312 C 592.367188 9.570312 593.109375 10.644531 593.109375 12.5 C 593.109375 14.160156 592.523438 15.058594 591.488281 15.058594 C 590.160156 15.058594 589.359375 13.652344 589.359375 11.347656 C 589.359375 10.585938 589.476562 10.15625 589.789062 9.941406 C 590.101562 9.707031 590.550781 9.570312 591.078125 9.570312 Z M 591.078125 9.570312 "/>
<path style=" stroke:none;fill-rule:nonzero;fill:rgb(0%,0%,0%);fill-opacity:1;" d="M 600.957031 10.351562 C 601.835938 10.351562 602.1875 10.371094 602.539062 10.507812 C 603.476562 10.839844 604.042969 11.679688 604.042969 12.714844 C 604.042969 13.964844 603.203125 14.941406 602.089844 14.941406 C 601.699219 14.941406 601.386719 14.84375 600.839844 14.472656 C 600.390625 14.21875 600.136719 14.101562 599.882812 14.101562 C 599.53125 14.101562 599.316406 14.316406 599.316406 14.628906 C 599.316406 15.15625 599.960938 15.488281 600.996094 15.488281 C 602.148438 15.488281 603.339844 15.097656 604.042969 14.472656 C 604.746094 13.867188 605.117188 13.007812 605.117188 11.992188 C 605.117188 11.230469 604.882812 10.527344 604.453125 10.078125 C 604.160156 9.746094 603.867188 9.570312 603.222656 9.277344 C 604.238281 8.574219 604.609375 8.027344 604.609375 7.226562 C 604.609375 6.015625 603.671875 5.175781 602.285156 5.175781 C 601.542969 5.175781 600.878906 5.429688 600.351562 5.898438 C 599.902344 6.308594 599.667969 6.699219 599.335938 7.597656 L 599.570312 7.65625 C 600.175781 6.5625 600.859375 6.074219 601.796875 6.074219 C 602.773438 6.074219 603.4375 6.71875 603.4375 7.675781 C 603.4375 8.203125 603.222656 8.75 602.832031 9.121094 C 602.382812 9.570312 601.972656 9.785156 600.957031 10.15625 Z M 600.957031 10.351562 "/>
<path style=" stroke:none;fill-rule:nonzero;fill:rgb(0%,0%,0%);fill-opacity:1;" d="M 608.019531 13.789062 C 607.570312 13.789062 607.199219 14.160156 607.199219 14.628906 C 607.199219 15.058594 607.570312 15.429688 608 15.429688 C 608.46875 15.429688 608.839844 15.058594 608.839844 14.628906 C 608.839844 14.160156 608.46875 13.789062 608.019531 13.789062 Z M 608.019531 13.789062 "/>
<path style=" stroke:none;fill-rule:nonzero;fill:rgb(0%,0%,0%);fill-opacity:1;" d="M 610.757812 15.605469 C 612.4375 15.410156 613.257812 15.117188 614.273438 14.394531 C 615.816406 13.261719 616.734375 11.40625 616.734375 9.394531 C 616.734375 6.914062 615.367188 5.175781 613.433594 5.175781 C 611.65625 5.175781 610.328125 6.679688 610.328125 8.691406 C 610.328125 10.527344 611.402344 11.738281 613.023438 11.738281 C 613.84375 11.738281 614.46875 11.484375 615.25 10.878906 C 614.644531 13.320312 612.984375 14.921875 610.71875 15.3125 Z M 615.289062 9.960938 C 615.289062 10.273438 615.230469 10.410156 615.054688 10.527344 C 614.644531 10.898438 614.097656 11.09375 613.550781 11.09375 C 612.417969 11.09375 611.695312 9.960938 611.695312 8.183594 C 611.695312 7.34375 611.949219 6.445312 612.261719 6.054688 C 612.515625 5.761719 612.886719 5.585938 613.316406 5.585938 C 614.625 5.585938 615.289062 6.875 615.289062 9.394531 Z M 615.289062 9.960938 "/>
<path style=" stroke:none;fill-rule:nonzero;fill:rgb(0%,0%,0%);fill-opacity:1;" d="M 621.6875 9.726562 C 623.171875 8.945312 623.679688 8.320312 623.679688 7.285156 C 623.679688 6.074219 622.605469 5.175781 621.121094 5.175781 C 619.480469 5.175781 618.269531 6.171875 618.269531 7.539062 C 618.269531 8.496094 618.5625 8.945312 620.125 10.3125 C 618.523438 11.542969 618.191406 11.992188 618.191406 13.007812 C 618.191406 14.472656 619.363281 15.488281 621.0625 15.488281 C 622.859375 15.488281 623.992188 14.492188 623.992188 12.949219 C 623.992188 11.816406 623.484375 11.074219 621.6875 9.726562 Z M 621.414062 11.269531 C 622.507812 12.050781 622.859375 12.578125 622.859375 13.417969 C 622.859375 14.394531 622.195312 15.058594 621.21875 15.058594 C 620.085938 15.058594 619.324219 14.199219 619.324219 12.890625 C 619.324219 11.933594 619.65625 11.308594 620.515625 10.605469 Z M 621.257812 9.453125 C 619.929688 8.59375 619.382812 7.910156 619.382812 7.070312 C 619.382812 6.210938 620.046875 5.585938 621.003906 5.585938 C 622.019531 5.585938 622.664062 6.25 622.664062 7.285156 C 622.664062 8.125 622.234375 8.808594 621.394531 9.375 C 621.316406 9.414062 621.316406 9.414062 621.257812 9.453125 Z M 621.257812 9.453125 "/>
<path style=" stroke:none;fill-rule:nonzero;fill:rgb(0%,0%,0%);fill-opacity:1;" d="M 631.523438 5.390625 L 625.996094 5.390625 L 625.117188 7.578125 L 625.371094 7.695312 C 626.015625 6.679688 626.289062 6.484375 627.109375 6.484375 L 630.351562 6.484375 L 627.402344 15.390625 L 628.359375 15.390625 L 631.523438 5.625 Z M 631.523438 5.390625 "/>
<path style=" stroke:none;fill-rule:nonzero;fill:rgb(0%,0%,0%);fill-opacity:1;" d="M 637.90625 13.789062 C 637.457031 13.789062 637.085938 14.160156 637.085938 14.628906 C 637.085938 15.058594 637.457031 15.429688 637.886719 15.429688 C 638.355469 15.429688 638.726562 15.058594 638.726562 14.628906 C 638.726562 14.160156 638.355469 13.789062 637.90625 13.789062 Z M 637.90625 13.789062 "/>
<path style=" stroke:none;fill-rule:nonzero;fill:rgb(0%,0%,0%);fill-opacity:1;" d="M 646.820312 11.816406 L 645.296875 11.816406 L 645.296875 5.175781 L 644.632812 5.175781 L 639.945312 11.816406 L 639.945312 12.773438 L 644.144531 12.773438 L 644.144531 15.273438 L 645.296875 15.273438 L 645.296875 12.773438 L 646.820312 12.773438 Z M 644.125 11.816406 L 640.550781 11.816406 L 644.125 6.699219 Z M 644.125 11.816406 "/>
<path style=" stroke:none;fill-rule:nonzero;fill:rgb(0%,0%,0%);fill-opacity:1;" d="M 651.03125 5.175781 C 650.210938 5.175781 649.585938 5.429688 649.039062 5.957031 C 648.160156 6.777344 647.59375 8.496094 647.59375 10.253906 C 647.59375 11.875 648.101562 13.632812 648.804688 14.472656 C 649.351562 15.117188 650.113281 15.488281 650.972656 15.488281 C 651.734375 15.488281 652.378906 15.234375 652.925781 14.707031 C 653.785156 13.886719 654.351562 12.148438 654.351562 10.351562 C 654.351562 7.285156 653.003906 5.175781 651.03125 5.175781 Z M 650.992188 5.566406 C 652.242188 5.566406 652.925781 7.246094 652.925781 10.371094 C 652.925781 13.496094 652.261719 15.097656 650.972656 15.097656 C 649.683594 15.097656 649.039062 13.496094 649.039062 10.390625 C 649.039062 7.226562 649.703125 5.566406 650.992188 5.566406 Z M 650.992188 5.566406 "/>
<path style=" stroke:none;fill-rule:nonzero;fill:rgb(0%,0%,0%);fill-opacity:1;" d="M 660.734375 10.351562 C 661.613281 10.351562 661.964844 10.371094 662.316406 10.507812 C 663.253906 10.839844 663.820312 11.679688 663.820312 12.714844 C 663.820312 13.964844 662.980469 14.941406 661.867188 14.941406 C 661.476562 14.941406 661.164062 14.84375 660.617188 14.472656 C 660.167969 14.21875 659.914062 14.101562 659.660156 14.101562 C 659.308594 14.101562 659.09375 14.316406 659.09375 14.628906 C 659.09375 15.15625 659.738281 15.488281 660.773438 15.488281 C 661.925781 15.488281 663.117188 15.097656 663.820312 14.472656 C 664.523438 13.867188 664.894531 13.007812 664.894531 11.992188 C 664.894531 11.230469 664.660156 10.527344 664.230469 10.078125 C 663.9375 9.746094 663.644531 9.570312 663 9.277344 C 664.015625 8.574219 664.386719 8.027344 664.386719 7.226562 C 664.386719 6.015625 663.449219 5.175781 662.0625 5.175781 C 661.320312 5.175781 660.65625 5.429688 660.128906 5.898438 C 659.679688 6.308594 659.445312 6.699219 659.113281 7.597656 L 659.347656 7.65625 C 659.953125 6.5625 660.636719 6.074219 661.574219 6.074219 C 662.550781 6.074219 663.214844 6.71875 663.214844 7.675781 C 663.214844 8.203125 663 8.75 662.609375 9.121094 C 662.160156 9.570312 661.75 9.785156 660.734375 10.15625 Z M 660.734375 10.351562 "/>
<path style=" stroke:none;fill-rule:nonzero;fill:rgb(0%,0%,0%);fill-opacity:1;" d="M 667.796875 13.789062 C 667.347656 13.789062 666.976562 14.160156 666.976562 14.628906 C 666.976562 15.058594 667.347656 15.429688 667.777344 15.429688 C 668.246094 15.429688 668.617188 15.058594 668.617188 14.628906 C 668.617188 14.160156 668.246094 13.789062 667.796875 13.789062 Z M 667.796875 13.789062 "/>
<path style=" stroke:none;fill-rule:nonzero;fill:rgb(0%,0%,0%);fill-opacity:1;" d="M 676.316406 5.058594 C 674.617188 5.195312 673.757812 5.488281 672.664062 6.25 C 671.042969 7.402344 670.164062 9.101562 670.164062 11.113281 C 670.164062 12.402344 670.574219 13.710938 671.21875 14.472656 C 671.785156 15.117188 672.585938 15.488281 673.503906 15.488281 C 675.359375 15.488281 676.648438 14.0625 676.648438 11.992188 C 676.648438 10.097656 675.554688 8.886719 673.835938 8.886719 C 673.191406 8.886719 672.859375 8.984375 671.921875 9.550781 C 672.332031 7.285156 674.011719 5.683594 676.355469 5.292969 Z M 673.269531 9.570312 C 674.558594 9.570312 675.300781 10.644531 675.300781 12.5 C 675.300781 14.160156 674.714844 15.058594 673.679688 15.058594 C 672.351562 15.058594 671.550781 13.652344 671.550781 11.347656 C 671.550781 10.585938 671.667969 10.15625 671.980469 9.941406 C 672.292969 9.707031 672.742188 9.570312 673.269531 9.570312 Z M 673.269531 9.570312 "/>
<path style=" stroke:none;fill-rule:nonzero;fill:rgb(0%,0%,0%);fill-opacity:1;" d="M 681.464844 9.726562 C 682.949219 8.945312 683.457031 8.320312 683.457031 7.285156 C 683.457031 6.074219 682.382812 5.175781 680.898438 5.175781 C 679.257812 5.175781 678.046875 6.171875 678.046875 7.539062 C 678.046875 8.496094 678.339844 8.945312 679.902344 10.3125 C 678.300781 11.542969 677.96875 11.992188 677.96875 13.007812 C 677.96875 14.472656 679.140625 15.488281 680.839844 15.488281 C 682.636719 15.488281 683.769531 14.492188 683.769531 12.949219 C 683.769531 11.816406 683.261719 11.074219 681.464844 9.726562 Z M 681.191406 11.269531 C 682.285156 12.050781 682.636719 12.578125 682.636719 13.417969 C 682.636719 14.394531 681.972656 15.058594 680.996094 15.058594 C 679.863281 15.058594 679.101562 14.199219 679.101562 12.890625 C 679.101562 11.933594 679.433594 11.308594 680.292969 10.605469 Z M 681.035156 9.453125 C 679.707031 8.59375 679.160156 7.910156 679.160156 7.070312 C 679.160156 6.210938 679.824219 5.585938 680.78125 5.585938 C 681.796875 5.585938 682.441406 6.25 682.441406 7.285156 C 682.441406 8.125 682.011719 8.808594 681.171875 9.375 C 681.09375 9.414062 681.09375 9.414062 681.035156 9.453125 Z M 681.035156 9.453125 "/>
<path style=" stroke:none;fill-rule:nonzero;fill:rgb(0%,0%,0%);fill-opacity:1;" d="M 688.390625 5.175781 C 687.570312 5.175781 686.945312 5.429688 686.398438 5.957031 C 685.519531 6.777344 684.953125 8.496094 684.953125 10.253906 C 684.953125 11.875 685.460938 13.632812 686.164062 14.472656 C 686.710938 15.117188 687.472656 15.488281 688.332031 15.488281 C 689.09375 15.488281 689.738281 15.234375 690.285156 14.707031 C 691.144531 13.886719 691.710938 12.148438 691.710938 10.351562 C 691.710938 7.285156 690.363281 5.175781 688.390625 5.175781 Z M 688.351562 5.566406 C 689.601562 5.566406 690.285156 7.246094 690.285156 10.371094 C 690.285156 13.496094 689.621094 15.097656 688.332031 15.097656 C 687.042969 15.097656 686.398438 13.496094 686.398438 10.390625 C 686.398438 7.226562 687.0625 5.566406 688.351562 5.566406 Z M 688.351562 5.566406 "/>
</g>
</svg>
