<?xml version="1.0" encoding="UTF-8"?>
<svg xmlns="http://www.w3.org/2000/svg" xmlns:xlink="http://www.w3.org/1999/xlink" width="686.76196pt" height="20.605469pt" viewBox="0 0 686.76196 20.605469" version="1.1">
<g id="surface513">
<path style=" stroke:none;fill-rule:nonzero;fill:rgb(0%,0%,0%);fill-opacity:1;" d="M 5 11.425781 L 5 12.382812 L 8.671875 12.382812 L 8.671875 11.425781 Z M 5 11.425781 "/>
<path style=" stroke:none;fill-rule:nonzero;fill:rgb(0%,0%,0%);fill-opacity:1;" d="M 11.675781 10.351562 C 12.554688 10.351562 12.90625 10.371094 13.257812 10.507812 C 14.195312 10.839844 14.761719 11.679688 14.761719 12.714844 C 14.761719 13.964844 13.921875 14.941406 12.808594 14.941406 C 12.417969 14.941406 12.105469 14.84375 11.558594 14.472656 C 11.109375 14.21875 10.855469 14.101562 10.601562 14.101562 C 10.25 14.101562 10.035156 14.316406 10.035156 14.628906 C 10.035156 15.15625 10.679688 15.488281 11.714844 15.488281 C 12.867188 15.488281 14.058594 15.097656 14.761719 14.472656 C 15.464844 13.867188 15.835938 13.007812 15.835938 11.992188 C 15.835938 11.230469 15.601562 10.527344 15.171875 10.078125 C 14.878906 9.746094 14.585938 9.570312 13.941406 9.277344 C 14.957031 8.574219 15.328125 8.027344 15.328125 7.226562 C 15.328125 6.015625 14.390625 5.175781 13.003906 5.175781 C 12.261719 5.175781 11.597656 5.429688 11.070312 5.898438 C 10.621094 6.308594 10.386719 6.699219 10.054688 7.597656 L 10.289062 7.65625 C 10.894531 6.5625 11.578125 6.074219 12.515625 6.074219 C 13.492188 6.074219 14.15625 6.71875 14.15625 7.675781 C 14.15625 8.203125 13.941406 8.75 13.550781 9.121094 C 13.101562 9.570312 12.691406 9.785156 11.675781 10.15625 Z M 11.675781 10.351562 "/>
<path style=" stroke:none;fill-rule:nonzero;fill:rgb(0%,0%,0%);fill-opacity:1;" d="M 18.738281 13.789062 C 18.289062 13.789062 17.917969 14.160156 17.917969 14.628906 C 17.917969 15.058594 18.289062 15.429688 18.71875 15.429688 C 19.1875 15.429688 19.558594 15.058594 19.558594 14.628906 C 19.558594 14.160156 19.1875 13.789062 18.738281 13.789062 Z M 18.738281 13.789062 "/>
<path style=" stroke:none;fill-rule:nonzero;fill:rgb(0%,0%,0%);fill-opacity:1;" d="M 27.105469 13.789062 C 26.65625 13.789062 26.285156 14.160156 26.285156 14.628906 C 26.285156 15.058594 26.65625 15.429688 27.085938 15.429688 C 27.554688 15.429688 27.925781 15.058594 27.925781 14.628906 C 27.925781 14.160156 27.554688 13.789062 27.105469 13.789062 Z M 27.105469 13.789062 "/>
<path style=" stroke:none;fill-rule:nonzero;fill:rgb(0%,0%,0%);fill-opacity:1;" d="M 32.757812 5.175781 C 31.9375 5.175781 31.3125 5.429688 30.765625 5.957031 C 29.886719 6.777344 29.320312 8.496094 29.320312 10.253906 C 29.320312 11.875 29.828125 13.632812 30.53125 14.472656 C 31.078125 15.117188 31.839844 15.488281 32.699219 15.488281 C 33.460938 15.488281 34.105469 15.234375 34.652344 14.707031 C 35.511719 13.886719 36.078125 12.148438 36.078125 10.351562 C 36.078125 7.285156 34.730469 5.175781 32.757812 5.175781 Z M 32.71875 5.566406 C 33.96875 5.566406 34.652344 7.246094 34.652344 10.371094 C 34.652344 13.496094 33.988281 15.097656 32.699219 15.097656 C 31.410156 15.097656 30.765625 13.496094 30.765625 10.390625 C 30.765625 7.226562 31.429688 5.566406 32.71875 5.566406 Z M 32.71875 5.566406 "/>
<path style=" stroke:none;fill-rule:nonzero;fill:rgb(0%,0%,0%);fill-opacity:1;" d="M 40.226562 5.175781 C 39.40625 5.175781 38.78125 5.429688 38.234375 5.957031 C 37.355469 6.777344 36.789062 8.496094 36.789062 10.253906 C 36.789062 11.875 37.296875 13.632812 38 14.472656 C 38.546875 15.117188 39.308594 15.488281 40.167969 15.488281 C 40.929688 15.488281 41.574219 15.234375 42.121094 14.707031 C 42.980469 13.886719 43.546875 12.148438 43.546875 10.351562 C 43.546875 7.285156 42.199219 5.175781 40.226562 5.175781 Z M 40.1875 5.566406 C 41.4375 5.566406 42.121094 7.246094 42.121094 10.371094 C 42.121094 13.496094 41.457031 15.097656 40.167969 15.097656 C 38.878906 15.097656 38.234375 13.496094 38.234375 10.390625 C 38.234375 7.226562 38.898438 5.566406 40.1875 5.566406 Z M 40.1875 5.566406 "/>
<path style=" stroke:none;fill-rule:nonzero;fill:rgb(0%,0%,0%);fill-opacity:1;" d="M 47.699219 5.175781 C 46.878906 5.175781 46.253906 5.429688 45.707031 5.957031 C 44.828125 6.777344 44.261719 8.496094 44.261719 10.253906 C 44.261719 11.875 44.769531 13.632812 45.472656 14.472656 C 46.019531 15.117188 46.78125 15.488281 47.640625 15.488281 C 48.402344 15.488281 49.046875 15.234375 49.59375 14.707031 C 50.453125 13.886719 51.019531 12.148438 51.019531 10.351562 C 51.019531 7.285156 49.671875 5.175781 47.699219 5.175781 Z M 47.660156 5.566406 C 48.910156 5.566406 49.59375 7.246094 49.59375 10.371094 C 49.59375 13.496094 48.929688 15.097656 47.640625 15.097656 C 46.351562 15.097656 45.707031 13.496094 45.707031 10.390625 C 45.707031 7.226562 46.371094 5.566406 47.660156 5.566406 Z M 47.660156 5.566406 "/>
<path style=" stroke:none;fill-rule:nonzero;fill:rgb(0%,0%,0%);fill-opacity:1;" d="M 55.738281 5.175781 L 53.042969 6.523438 L 53.042969 6.738281 C 53.21875 6.660156 53.394531 6.601562 53.453125 6.582031 C 53.707031 6.464844 53.960938 6.40625 54.117188 6.40625 C 54.429688 6.40625 54.566406 6.640625 54.566406 7.109375 L 54.566406 13.886719 C 54.566406 14.375 54.449219 14.726562 54.214844 14.863281 C 53.980469 14.980469 53.765625 15.039062 53.140625 15.058594 L 53.140625 15.273438 L 57.261719 15.273438 L 57.261719 15.058594 C 56.089844 15.039062 55.855469 14.882812 55.855469 14.160156 L 55.855469 5.195312 Z M 55.738281 5.175781 "/>
<path style=" stroke:none;fill-rule:nonzero;fill:rgb(0%,0%,0%);fill-opacity:1;" d="M 65.945312 13.222656 L 65.75 13.144531 C 65.203125 14.003906 65.007812 14.140625 64.34375 14.140625 L 60.769531 14.140625 L 63.269531 11.503906 C 64.617188 10.117188 65.183594 8.984375 65.183594 7.8125 C 65.183594 6.328125 63.972656 5.175781 62.429688 5.175781 C 61.609375 5.175781 60.828125 5.507812 60.28125 6.09375 C 59.792969 6.601562 59.578125 7.089844 59.324219 8.144531 L 59.636719 8.222656 C 60.222656 6.757812 60.769531 6.269531 61.804688 6.269531 C 63.054688 6.269531 63.914062 7.128906 63.914062 8.378906 C 63.914062 9.550781 63.210938 10.9375 61.960938 12.265625 L 59.304688 15.097656 L 59.304688 15.273438 L 65.125 15.273438 Z M 65.945312 13.222656 "/>
<path style=" stroke:none;fill-rule:nonzero;fill:rgb(0%,0%,0%);fill-opacity:1;" d="M 68.613281 10.351562 C 69.492188 10.351562 69.84375 10.371094 70.195312 10.507812 C 71.132812 10.839844 71.699219 11.679688 71.699219 12.714844 C 71.699219 13.964844 70.859375 14.941406 69.746094 14.941406 C 69.355469 14.941406 69.042969 14.84375 68.496094 14.472656 C 68.046875 14.21875 67.792969 14.101562 67.539062 14.101562 C 67.1875 14.101562 66.972656 14.316406 66.972656 14.628906 C 66.972656 15.15625 67.617188 15.488281 68.652344 15.488281 C 69.804688 15.488281 70.996094 15.097656 71.699219 14.472656 C 72.402344 13.867188 72.773438 13.007812 72.773438 11.992188 C 72.773438 11.230469 72.539062 10.527344 72.109375 10.078125 C 71.816406 9.746094 71.523438 9.570312 70.878906 9.277344 C 71.894531 8.574219 72.265625 8.027344 72.265625 7.226562 C 72.265625 6.015625 71.328125 5.175781 69.941406 5.175781 C 69.199219 5.175781 68.535156 5.429688 68.007812 5.898438 C 67.558594 6.308594 67.324219 6.699219 66.992188 7.597656 L 67.226562 7.65625 C 67.832031 6.5625 68.515625 6.074219 69.453125 6.074219 C 70.429688 6.074219 71.09375 6.71875 71.09375 7.675781 C 71.09375 8.203125 70.878906 8.75 70.488281 9.121094 C 70.039062 9.570312 69.628906 9.785156 68.613281 10.15625 Z M 68.613281 10.351562 "/>
<path style=" stroke:none;fill-rule:nonzero;fill:rgb(0%,0%,0%);fill-opacity:1;" d="M 80.851562 11.816406 L 79.328125 11.816406 L 79.328125 5.175781 L 78.664062 5.175781 L 73.976562 11.816406 L 73.976562 12.773438 L 78.175781 12.773438 L 78.175781 15.273438 L 79.328125 15.273438 L 79.328125 12.773438 L 80.851562 12.773438 Z M 78.15625 11.816406 L 74.582031 11.816406 L 78.15625 6.699219 Z M 78.15625 11.816406 "/>
<path style=" stroke:none;fill-rule:nonzero;fill:rgb(0%,0%,0%);fill-opacity:1;" d="M 85.59375 11.425781 L 85.59375 12.382812 L 89.265625 12.382812 L 89.265625 11.425781 Z M 85.59375 11.425781 "/>
<path style=" stroke:none;fill-rule:nonzero;fill:rgb(0%,0%,0%);fill-opacity:1;" d="M 97.074219 13.222656 L 96.878906 13.144531 C 96.332031 14.003906 96.136719 14.140625 95.472656 14.140625 L 91.898438 14.140625 L 94.398438 11.503906 C 95.746094 10.117188 96.3125 8.984375 96.3125 7.8125 C 96.3125 6.328125 95.101562 5.175781 93.558594 5.175781 C 92.738281 5.175781 91.957031 5.507812 91.410156 6.09375 C 90.921875 6.601562 90.707031 7.089844 90.453125 8.144531 L 90.765625 8.222656 C 91.351562 6.757812 91.898438 6.269531 92.933594 6.269531 C 94.183594 6.269531 95.042969 7.128906 95.042969 8.378906 C 95.042969 9.550781 94.339844 10.9375 93.089844 12.265625 L 90.433594 15.097656 L 90.433594 15.273438 L 96.253906 15.273438 Z M 97.074219 13.222656 "/>
<path style=" stroke:none;fill-rule:nonzero;fill:rgb(0%,0%,0%);fill-opacity:1;" d="M 99.332031 13.789062 C 98.882812 13.789062 98.511719 14.160156 98.511719 14.628906 C 98.511719 15.058594 98.882812 15.429688 99.3125 15.429688 C 99.78125 15.429688 100.152344 15.058594 100.152344 14.628906 C 100.152344 14.160156 99.78125 13.789062 99.332031 13.789062 Z M 99.332031 13.789062 "/>
<path style=" stroke:none;fill-rule:nonzero;fill:rgb(0%,0%,0%);fill-opacity:1;" d="M 105.527344 9.726562 C 107.011719 8.945312 107.519531 8.320312 107.519531 7.285156 C 107.519531 6.074219 106.445312 5.175781 104.960938 5.175781 C 103.320312 5.175781 102.109375 6.171875 102.109375 7.539062 C 102.109375 8.496094 102.402344 8.945312 103.964844 10.3125 C 102.363281 11.542969 102.03125 11.992188 102.03125 13.007812 C 102.03125 14.472656 103.203125 15.488281 104.902344 15.488281 C 106.699219 15.488281 107.832031 14.492188 107.832031 12.949219 C 107.832031 11.816406 107.324219 11.074219 105.527344 9.726562 Z M 105.253906 11.269531 C 106.347656 12.050781 106.699219 12.578125 106.699219 13.417969 C 106.699219 14.394531 106.035156 15.058594 105.058594 15.058594 C 103.925781 15.058594 103.164062 14.199219 103.164062 12.890625 C 103.164062 11.933594 103.496094 11.308594 104.355469 10.605469 Z M 105.097656 9.453125 C 103.769531 8.59375 103.222656 7.910156 103.222656 7.070312 C 103.222656 6.210938 103.886719 5.585938 104.84375 5.585938 C 105.859375 5.585938 106.503906 6.25 106.503906 7.285156 C 106.503906 8.125 106.074219 8.808594 105.234375 9.375 C 105.15625 9.414062 105.15625 9.414062 105.097656 9.453125 Z M 105.097656 9.453125 "/>
<path style=" stroke:none;fill-rule:nonzero;fill:rgb(0%,0%,0%);fill-opacity:1;" d="M 114.273438 13.789062 C 113.824219 13.789062 113.453125 14.160156 113.453125 14.628906 C 113.453125 15.058594 113.824219 15.429688 114.253906 15.429688 C 114.722656 15.429688 115.09375 15.058594 115.09375 14.628906 C 115.09375 14.160156 114.722656 13.789062 114.273438 13.789062 Z M 114.273438 13.789062 "/>
<path style=" stroke:none;fill-rule:nonzero;fill:rgb(0%,0%,0%);fill-opacity:1;" d="M 119.925781 5.175781 C 119.105469 5.175781 118.480469 5.429688 117.933594 5.957031 C 117.054688 6.777344 116.488281 8.496094 116.488281 10.253906 C 116.488281 11.875 116.996094 13.632812 117.699219 14.472656 C 118.246094 15.117188 119.007812 15.488281 119.867188 15.488281 C 120.628906 15.488281 121.273438 15.234375 121.820312 14.707031 C 122.679688 13.886719 123.246094 12.148438 123.246094 10.351562 C 123.246094 7.285156 121.898438 5.175781 119.925781 5.175781 Z M 119.886719 5.566406 C 121.136719 5.566406 121.820312 7.246094 121.820312 10.371094 C 121.820312 13.496094 121.15625 15.097656 119.867188 15.097656 C 118.578125 15.097656 117.933594 13.496094 117.933594 10.390625 C 117.933594 7.226562 118.597656 5.566406 119.886719 5.566406 Z M 119.886719 5.566406 "/>
<path style=" stroke:none;fill-rule:nonzero;fill:rgb(0%,0%,0%);fill-opacity:1;" d="M 127.394531 5.175781 C 126.574219 5.175781 125.949219 5.429688 125.402344 5.957031 C 124.523438 6.777344 123.957031 8.496094 123.957031 10.253906 C 123.957031 11.875 124.464844 13.632812 125.167969 14.472656 C 125.714844 15.117188 126.476562 15.488281 127.335938 15.488281 C 128.097656 15.488281 128.742188 15.234375 129.289062 14.707031 C 130.148438 13.886719 130.714844 12.148438 130.714844 10.351562 C 130.714844 7.285156 129.367188 5.175781 127.394531 5.175781 Z M 127.355469 5.566406 C 128.605469 5.566406 129.289062 7.246094 129.289062 10.371094 C 129.289062 13.496094 128.625 15.097656 127.335938 15.097656 C 126.046875 15.097656 125.402344 13.496094 125.402344 10.390625 C 125.402344 7.226562 126.066406 5.566406 127.355469 5.566406 Z M 127.355469 5.566406 "/>
<path style=" stroke:none;fill-rule:nonzero;fill:rgb(0%,0%,0%);fill-opacity:1;" d="M 134.867188 5.175781 C 134.046875 5.175781 133.421875 5.429688 132.875 5.957031 C 131.996094 6.777344 131.429688 8.496094 131.429688 10.253906 C 131.429688 11.875 131.9375 13.632812 132.640625 14.472656 C 133.1875 15.117188 133.949219 15.488281 134.808594 15.488281 C 135.570312 15.488281 136.214844 15.234375 136.761719 14.707031 C 137.621094 13.886719 138.1875 12.148438 138.1875 10.351562 C 138.1875 7.285156 136.839844 5.175781 134.867188 5.175781 Z M 134.828125 5.566406 C 136.078125 5.566406 136.761719 7.246094 136.761719 10.371094 C 136.761719 13.496094 136.097656 15.097656 134.808594 15.097656 C 133.519531 15.097656 132.875 13.496094 132.875 10.390625 C 132.875 7.226562 133.539062 5.566406 134.828125 5.566406 Z M 134.828125 5.566406 "/>
<path style=" stroke:none;fill-rule:nonzero;fill:rgb(0%,0%,0%);fill-opacity:1;" d="M 140.835938 10.351562 C 141.714844 10.351562 142.066406 10.371094 142.417969 10.507812 C 143.355469 10.839844 143.921875 11.679688 143.921875 12.714844 C 143.921875 13.964844 143.082031 14.941406 141.96875 14.941406 C 141.578125 14.941406 141.265625 14.84375 140.71875 14.472656 C 140.269531 14.21875 140.015625 14.101562 139.761719 14.101562 C 139.410156 14.101562 139.195312 14.316406 139.195312 14.628906 C 139.195312 15.15625 139.839844 15.488281 140.875 15.488281 C 142.027344 15.488281 143.21875 15.097656 143.921875 14.472656 C 144.625 13.867188 144.996094 13.007812 144.996094 11.992188 C 144.996094 11.230469 144.761719 10.527344 144.332031 10.078125 C 144.039062 9.746094 143.746094 9.570312 143.101562 9.277344 C 144.117188 8.574219 144.488281 8.027344 144.488281 7.226562 C 144.488281 6.015625 143.550781 5.175781 142.164062 5.175781 C 141.421875 5.175781 140.757812 5.429688 140.230469 5.898438 C 139.78125 6.308594 139.546875 6.699219 139.214844 7.597656 L 139.449219 7.65625 C 140.054688 6.5625 140.738281 6.074219 141.675781 6.074219 C 142.652344 6.074219 143.316406 6.71875 143.316406 7.675781 C 143.316406 8.203125 143.101562 8.75 142.710938 9.121094 C 142.261719 9.570312 141.851562 9.785156 140.835938 10.15625 Z M 140.835938 10.351562 "/>
<path style=" stroke:none;fill-rule:nonzero;fill:rgb(0%,0%,0%);fill-opacity:1;" d="M 146.902344 15.605469 C 148.582031 15.410156 149.402344 15.117188 150.417969 14.394531 C 151.960938 13.261719 152.878906 11.40625 152.878906 9.394531 C 152.878906 6.914062 151.511719 5.175781 149.578125 5.175781 C 147.800781 5.175781 146.472656 6.679688 146.472656 8.691406 C 146.472656 10.527344 147.546875 11.738281 149.167969 11.738281 C 149.988281 11.738281 150.613281 11.484375 151.394531 10.878906 C 150.789062 13.320312 149.128906 14.921875 146.863281 15.3125 Z M 151.433594 9.960938 C 151.433594 10.273438 151.375 10.410156 151.199219 10.527344 C 150.789062 10.898438 150.242188 11.09375 149.695312 11.09375 C 148.5625 11.09375 147.839844 9.960938 147.839844 8.183594 C 147.839844 7.34375 148.09375 6.445312 148.40625 6.054688 C 148.660156 5.761719 149.03125 5.585938 149.460938 5.585938 C 150.769531 5.585938 151.433594 6.875 151.433594 9.394531 Z M 151.433594 9.960938 "/>
<path style=" stroke:none;fill-rule:nonzero;fill:rgb(0%,0%,0%);fill-opacity:1;" d="M 155.78125 10.351562 C 156.660156 10.351562 157.011719 10.371094 157.363281 10.507812 C 158.300781 10.839844 158.867188 11.679688 158.867188 12.714844 C 158.867188 13.964844 158.027344 14.941406 156.914062 14.941406 C 156.523438 14.941406 156.210938 14.84375 155.664062 14.472656 C 155.214844 14.21875 154.960938 14.101562 154.707031 14.101562 C 154.355469 14.101562 154.140625 14.316406 154.140625 14.628906 C 154.140625 15.15625 154.785156 15.488281 155.820312 15.488281 C 156.972656 15.488281 158.164062 15.097656 158.867188 14.472656 C 159.570312 13.867188 159.941406 13.007812 159.941406 11.992188 C 159.941406 11.230469 159.707031 10.527344 159.277344 10.078125 C 158.984375 9.746094 158.691406 9.570312 158.046875 9.277344 C 159.0625 8.574219 159.433594 8.027344 159.433594 7.226562 C 159.433594 6.015625 158.496094 5.175781 157.109375 5.175781 C 156.367188 5.175781 155.703125 5.429688 155.175781 5.898438 C 154.726562 6.308594 154.492188 6.699219 154.160156 7.597656 L 154.394531 7.65625 C 155 6.5625 155.683594 6.074219 156.621094 6.074219 C 157.597656 6.074219 158.261719 6.71875 158.261719 7.675781 C 158.261719 8.203125 158.046875 8.75 157.65625 9.121094 C 157.207031 9.570312 156.796875 9.785156 155.78125 10.15625 Z M 155.78125 10.351562 "/>
<path style=" stroke:none;fill-rule:nonzero;fill:rgb(0%,0%,0%);fill-opacity:1;" d="M 167.667969 5.390625 L 162.140625 5.390625 L 161.261719 7.578125 L 161.515625 7.695312 C 162.160156 6.679688 162.433594 6.484375 163.253906 6.484375 L 166.496094 6.484375 L 163.546875 15.390625 L 164.503906 15.390625 L 167.667969 5.625 Z M 167.667969 5.390625 "/>
<path style=" stroke:none;fill-rule:nonzero;fill:rgb(0%,0%,0%);fill-opacity:1;" d="M 172.761719 11.425781 L 172.761719 12.382812 L 176.433594 12.382812 L 176.433594 11.425781 Z M 172.761719 11.425781 "/>
<path style=" stroke:none;fill-rule:nonzero;fill:rgb(0%,0%,0%);fill-opacity:1;" d="M 184.242188 13.222656 L 184.046875 13.144531 C 183.5 14.003906 183.304688 14.140625 182.640625 14.140625 L 179.066406 14.140625 L 181.566406 11.503906 C 182.914062 10.117188 183.480469 8.984375 183.480469 7.8125 C 183.480469 6.328125 182.269531 5.175781 180.726562 5.175781 C 179.90625 5.175781 179.125 5.507812 178.578125 6.09375 C 178.089844 6.601562 177.875 7.089844 177.621094 8.144531 L 177.933594 8.222656 C 178.519531 6.757812 179.066406 6.269531 180.101562 6.269531 C 181.351562 6.269531 182.210938 7.128906 182.210938 8.378906 C 182.210938 9.550781 181.507812 10.9375 180.257812 12.265625 L 177.601562 15.097656 L 177.601562 15.273438 L 183.421875 15.273438 Z M 184.242188 13.222656 "/>
<path style=" stroke:none;fill-rule:nonzero;fill:rgb(0%,0%,0%);fill-opacity:1;" d="M 186.5 13.789062 C 186.050781 13.789062 185.679688 14.160156 185.679688 14.628906 C 185.679688 15.058594 186.050781 15.429688 186.480469 15.429688 C 186.949219 15.429688 187.320312 15.058594 187.320312 14.628906 C 187.320312 14.160156 186.949219 13.789062 186.5 13.789062 Z M 186.5 13.789062 "/>
<path style=" stroke:none;fill-rule:nonzero;fill:rgb(0%,0%,0%);fill-opacity:1;" d="M 195.019531 5.058594 C 193.320312 5.195312 192.460938 5.488281 191.367188 6.25 C 189.746094 7.402344 188.867188 9.101562 188.867188 11.113281 C 188.867188 12.402344 189.277344 13.710938 189.921875 14.472656 C 190.488281 15.117188 191.289062 15.488281 192.207031 15.488281 C 194.0625 15.488281 195.351562 14.0625 195.351562 11.992188 C 195.351562 10.097656 194.257812 8.886719 192.539062 8.886719 C 191.894531 8.886719 191.5625 8.984375 190.625 9.550781 C 191.035156 7.285156 192.714844 5.683594 195.058594 5.292969 Z M 191.972656 9.570312 C 193.261719 9.570312 194.003906 10.644531 194.003906 12.5 C 194.003906 14.160156 193.417969 15.058594 192.382812 15.058594 C 191.054688 15.058594 190.253906 13.652344 190.253906 11.347656 C 190.253906 10.585938 190.371094 10.15625 190.683594 9.941406 C 190.996094 9.707031 191.445312 9.570312 191.972656 9.570312 Z M 191.972656 9.570312 "/>
<path style=" stroke:none;fill-rule:nonzero;fill:rgb(0%,0%,0%);fill-opacity:1;" d="M 201.441406 13.789062 C 200.992188 13.789062 200.621094 14.160156 200.621094 14.628906 C 200.621094 15.058594 200.992188 15.429688 201.421875 15.429688 C 201.890625 15.429688 202.261719 15.058594 202.261719 14.628906 C 202.261719 14.160156 201.890625 13.789062 201.441406 13.789062 Z M 201.441406 13.789062 "/>
<path style=" stroke:none;fill-rule:nonzero;fill:rgb(0%,0%,0%);fill-opacity:1;" d="M 207.09375 5.175781 C 206.273438 5.175781 205.648438 5.429688 205.101562 5.957031 C 204.222656 6.777344 203.65625 8.496094 203.65625 10.253906 C 203.65625 11.875 204.164062 13.632812 204.867188 14.472656 C 205.414062 15.117188 206.175781 15.488281 207.035156 15.488281 C 207.796875 15.488281 208.441406 15.234375 208.988281 14.707031 C 209.847656 13.886719 210.414062 12.148438 210.414062 10.351562 C 210.414062 7.285156 209.066406 5.175781 207.09375 5.175781 Z M 207.054688 5.566406 C 208.304688 5.566406 208.988281 7.246094 208.988281 10.371094 C 208.988281 13.496094 208.324219 15.097656 207.035156 15.097656 C 205.746094 15.097656 205.101562 13.496094 205.101562 10.390625 C 205.101562 7.226562 205.765625 5.566406 207.054688 5.566406 Z M 207.054688 5.566406 "/>
<path style=" stroke:none;fill-rule:nonzero;fill:rgb(0%,0%,0%);fill-opacity:1;" d="M 214.566406 5.175781 C 213.746094 5.175781 213.121094 5.429688 212.574219 5.957031 C 211.695312 6.777344 211.128906 8.496094 211.128906 10.253906 C 211.128906 11.875 211.636719 13.632812 212.339844 14.472656 C 212.886719 15.117188 213.648438 15.488281 214.507812 15.488281 C 215.269531 15.488281 215.914062 15.234375 216.460938 14.707031 C 217.320312 13.886719 217.886719 12.148438 217.886719 10.351562 C 217.886719 7.285156 216.539062 5.175781 214.566406 5.175781 Z M 214.527344 5.566406 C 215.777344 5.566406 216.460938 7.246094 216.460938 10.371094 C 216.460938 13.496094 215.796875 15.097656 214.507812 15.097656 C 213.21875 15.097656 212.574219 13.496094 212.574219 10.390625 C 212.574219 7.226562 213.238281 5.566406 214.527344 5.566406 Z M 214.527344 5.566406 "/>
<path style=" stroke:none;fill-rule:nonzero;fill:rgb(0%,0%,0%);fill-opacity:1;" d="M 222.601562 5.175781 L 219.90625 6.523438 L 219.90625 6.738281 C 220.082031 6.660156 220.257812 6.601562 220.316406 6.582031 C 220.570312 6.464844 220.824219 6.40625 220.980469 6.40625 C 221.292969 6.40625 221.429688 6.640625 221.429688 7.109375 L 221.429688 13.886719 C 221.429688 14.375 221.3125 14.726562 221.078125 14.863281 C 220.84375 14.980469 220.628906 15.039062 220.003906 15.058594 L 220.003906 15.273438 L 224.125 15.273438 L 224.125 15.058594 C 222.953125 15.039062 222.71875 14.882812 222.71875 14.160156 L 222.71875 5.195312 Z M 222.601562 5.175781 "/>
<path style=" stroke:none;fill-rule:nonzero;fill:rgb(0%,0%,0%);fill-opacity:1;" d="M 230.074219 5.175781 L 227.378906 6.523438 L 227.378906 6.738281 C 227.554688 6.660156 227.730469 6.601562 227.789062 6.582031 C 228.042969 6.464844 228.296875 6.40625 228.453125 6.40625 C 228.765625 6.40625 228.902344 6.640625 228.902344 7.109375 L 228.902344 13.886719 C 228.902344 14.375 228.785156 14.726562 228.550781 14.863281 C 228.316406 14.980469 228.101562 15.039062 227.476562 15.058594 L 227.476562 15.273438 L 231.597656 15.273438 L 231.597656 15.058594 C 230.425781 15.039062 230.191406 14.882812 230.191406 14.160156 L 230.191406 5.195312 Z M 230.074219 5.175781 "/>
<path style=" stroke:none;fill-rule:nonzero;fill:rgb(0%,0%,0%);fill-opacity:1;" d="M 235.886719 6.5625 L 238.816406 6.5625 C 239.070312 6.5625 239.128906 6.523438 239.167969 6.425781 L 239.734375 5.097656 L 239.597656 5 C 239.382812 5.3125 239.226562 5.390625 238.914062 5.390625 L 235.789062 5.390625 L 234.167969 8.925781 C 234.148438 8.945312 234.148438 8.964844 234.148438 9.003906 C 234.148438 9.082031 234.207031 9.121094 234.324219 9.121094 C 234.8125 9.121094 235.398438 9.21875 236.023438 9.414062 C 237.742188 9.960938 238.523438 10.898438 238.523438 12.382812 C 238.523438 13.808594 237.605469 14.921875 236.453125 14.921875 C 236.140625 14.921875 235.886719 14.824219 235.457031 14.492188 C 234.96875 14.160156 234.617188 14.003906 234.304688 14.003906 C 233.875 14.003906 233.660156 14.179688 233.660156 14.550781 C 233.660156 15.117188 234.363281 15.488281 235.496094 15.488281 C 236.746094 15.488281 237.820312 15.078125 238.5625 14.316406 C 239.265625 13.652344 239.578125 12.792969 239.578125 11.660156 C 239.578125 10.585938 239.285156 9.902344 238.542969 9.140625 C 237.878906 8.496094 237.039062 8.144531 235.261719 7.832031 Z M 235.886719 6.5625 "/>
<path style=" stroke:none;fill-rule:nonzero;fill:rgb(0%,0%,0%);fill-opacity:1;" d="M 241.542969 15.605469 C 243.222656 15.410156 244.042969 15.117188 245.058594 14.394531 C 246.601562 13.261719 247.519531 11.40625 247.519531 9.394531 C 247.519531 6.914062 246.152344 5.175781 244.21875 5.175781 C 242.441406 5.175781 241.113281 6.679688 241.113281 8.691406 C 241.113281 10.527344 242.1875 11.738281 243.808594 11.738281 C 244.628906 11.738281 245.253906 11.484375 246.035156 10.878906 C 245.429688 13.320312 243.769531 14.921875 241.503906 15.3125 Z M 246.074219 9.960938 C 246.074219 10.273438 246.015625 10.410156 245.839844 10.527344 C 245.429688 10.898438 244.882812 11.09375 244.335938 11.09375 C 243.203125 11.09375 242.480469 9.960938 242.480469 8.183594 C 242.480469 7.34375 242.734375 6.445312 243.046875 6.054688 C 243.300781 5.761719 243.671875 5.585938 244.101562 5.585938 C 245.410156 5.585938 246.074219 6.875 246.074219 9.394531 Z M 246.074219 9.960938 "/>
<path style=" stroke:none;fill-rule:nonzero;fill:rgb(0%,0%,0%);fill-opacity:1;" d="M 252.457031 11.425781 L 252.457031 12.382812 L 256.128906 12.382812 L 256.128906 11.425781 Z M 252.457031 11.425781 "/>
<path style=" stroke:none;fill-rule:nonzero;fill:rgb(0%,0%,0%);fill-opacity:1;" d="M 263.9375 13.222656 L 263.742188 13.144531 C 263.195312 14.003906 263 14.140625 262.335938 14.140625 L 258.761719 14.140625 L 261.261719 11.503906 C 262.609375 10.117188 263.175781 8.984375 263.175781 7.8125 C 263.175781 6.328125 261.964844 5.175781 260.421875 5.175781 C 259.601562 5.175781 258.820312 5.507812 258.273438 6.09375 C 257.785156 6.601562 257.570312 7.089844 257.316406 8.144531 L 257.628906 8.222656 C 258.214844 6.757812 258.761719 6.269531 259.796875 6.269531 C 261.046875 6.269531 261.90625 7.128906 261.90625 8.378906 C 261.90625 9.550781 261.203125 10.9375 259.953125 12.265625 L 257.296875 15.097656 L 257.296875 15.273438 L 263.117188 15.273438 Z M 263.9375 13.222656 "/>
<path style=" stroke:none;fill-rule:nonzero;fill:rgb(0%,0%,0%);fill-opacity:1;" d="M 266.195312 13.789062 C 265.746094 13.789062 265.375 14.160156 265.375 14.628906 C 265.375 15.058594 265.746094 15.429688 266.175781 15.429688 C 266.644531 15.429688 267.015625 15.058594 267.015625 14.628906 C 267.015625 14.160156 266.644531 13.789062 266.195312 13.789062 Z M 266.195312 13.789062 "/>
<path style=" stroke:none;fill-rule:nonzero;fill:rgb(0%,0%,0%);fill-opacity:1;" d="M 275.105469 11.816406 L 273.582031 11.816406 L 273.582031 5.175781 L 272.917969 5.175781 L 268.230469 11.816406 L 268.230469 12.773438 L 272.429688 12.773438 L 272.429688 15.273438 L 273.582031 15.273438 L 273.582031 12.773438 L 275.105469 12.773438 Z M 272.410156 11.816406 L 268.835938 11.816406 L 272.410156 6.699219 Z M 272.410156 11.816406 "/>
<path style=" stroke:none;fill-rule:nonzero;fill:rgb(0%,0%,0%);fill-opacity:1;" d="M 281.140625 13.789062 C 280.691406 13.789062 280.320312 14.160156 280.320312 14.628906 C 280.320312 15.058594 280.691406 15.429688 281.121094 15.429688 C 281.589844 15.429688 281.960938 15.058594 281.960938 14.628906 C 281.960938 14.160156 281.589844 13.789062 281.140625 13.789062 Z M 281.140625 13.789062 "/>
<path style=" stroke:none;fill-rule:nonzero;fill:rgb(0%,0%,0%);fill-opacity:1;" d="M 286.789062 5.175781 C 285.96875 5.175781 285.34375 5.429688 284.796875 5.957031 C 283.917969 6.777344 283.351562 8.496094 283.351562 10.253906 C 283.351562 11.875 283.859375 13.632812 284.5625 14.472656 C 285.109375 15.117188 285.871094 15.488281 286.730469 15.488281 C 287.492188 15.488281 288.136719 15.234375 288.683594 14.707031 C 289.542969 13.886719 290.109375 12.148438 290.109375 10.351562 C 290.109375 7.285156 288.761719 5.175781 286.789062 5.175781 Z M 286.75 5.566406 C 288 5.566406 288.683594 7.246094 288.683594 10.371094 C 288.683594 13.496094 288.019531 15.097656 286.730469 15.097656 C 285.441406 15.097656 284.796875 13.496094 284.796875 10.390625 C 284.796875 7.226562 285.460938 5.566406 286.75 5.566406 Z M 286.75 5.566406 "/>
<path style=" stroke:none;fill-rule:nonzero;fill:rgb(0%,0%,0%);fill-opacity:1;" d="M 294.261719 5.175781 C 293.441406 5.175781 292.816406 5.429688 292.269531 5.957031 C 291.390625 6.777344 290.824219 8.496094 290.824219 10.253906 C 290.824219 11.875 291.332031 13.632812 292.035156 14.472656 C 292.582031 15.117188 293.34375 15.488281 294.203125 15.488281 C 294.964844 15.488281 295.609375 15.234375 296.15625 14.707031 C 297.015625 13.886719 297.582031 12.148438 297.582031 10.351562 C 297.582031 7.285156 296.234375 5.175781 294.261719 5.175781 Z M 294.222656 5.566406 C 295.472656 5.566406 296.15625 7.246094 296.15625 10.371094 C 296.15625 13.496094 295.492188 15.097656 294.203125 15.097656 C 292.914062 15.097656 292.269531 13.496094 292.269531 10.390625 C 292.269531 7.226562 292.933594 5.566406 294.222656 5.566406 Z M 294.222656 5.566406 "/>
<path style=" stroke:none;fill-rule:nonzero;fill:rgb(0%,0%,0%);fill-opacity:1;" d="M 300.230469 10.351562 C 301.109375 10.351562 301.460938 10.371094 301.8125 10.507812 C 302.75 10.839844 303.316406 11.679688 303.316406 12.714844 C 303.316406 13.964844 302.476562 14.941406 301.363281 14.941406 C 300.972656 14.941406 300.660156 14.84375 300.113281 14.472656 C 299.664062 14.21875 299.410156 14.101562 299.15625 14.101562 C 298.804688 14.101562 298.589844 14.316406 298.589844 14.628906 C 298.589844 15.15625 299.234375 15.488281 300.269531 15.488281 C 301.421875 15.488281 302.613281 15.097656 303.316406 14.472656 C 304.019531 13.867188 304.390625 13.007812 304.390625 11.992188 C 304.390625 11.230469 304.15625 10.527344 303.726562 10.078125 C 303.433594 9.746094 303.140625 9.570312 302.496094 9.277344 C 303.511719 8.574219 303.882812 8.027344 303.882812 7.226562 C 303.882812 6.015625 302.945312 5.175781 301.558594 5.175781 C 300.816406 5.175781 300.152344 5.429688 299.625 5.898438 C 299.175781 6.308594 298.941406 6.699219 298.609375 7.597656 L 298.84375 7.65625 C 299.449219 6.5625 300.132812 6.074219 301.070312 6.074219 C 302.046875 6.074219 302.710938 6.71875 302.710938 7.675781 C 302.710938 8.203125 302.496094 8.75 302.105469 9.121094 C 301.65625 9.570312 301.246094 9.785156 300.230469 10.15625 Z M 300.230469 10.351562 "/>
<path style=" stroke:none;fill-rule:nonzero;fill:rgb(0%,0%,0%);fill-opacity:1;" d="M 309.773438 5.175781 L 307.078125 6.523438 L 307.078125 6.738281 C 307.253906 6.660156 307.429688 6.601562 307.488281 6.582031 C 307.742188 6.464844 307.996094 6.40625 308.152344 6.40625 C 308.464844 6.40625 308.601562 6.640625 308.601562 7.109375 L 308.601562 13.886719 C 308.601562 14.375 308.484375 14.726562 308.25 14.863281 C 308.015625 14.980469 307.800781 15.039062 307.175781 15.058594 L 307.175781 15.273438 L 311.296875 15.273438 L 311.296875 15.058594 C 310.125 15.039062 309.890625 14.882812 309.890625 14.160156 L 309.890625 5.195312 Z M 309.773438 5.175781 "/>
<path style=" stroke:none;fill-rule:nonzero;fill:rgb(0%,0%,0%);fill-opacity:1;" d="M 315.582031 6.5625 L 318.511719 6.5625 C 318.765625 6.5625 318.824219 6.523438 318.863281 6.425781 L 319.429688 5.097656 L 319.292969 5 C 319.078125 5.3125 318.921875 5.390625 318.609375 5.390625 L 315.484375 5.390625 L 313.863281 8.925781 C 313.84375 8.945312 313.84375 8.964844 313.84375 9.003906 C 313.84375 9.082031 313.902344 9.121094 314.019531 9.121094 C 314.507812 9.121094 315.09375 9.21875 315.71875 9.414062 C 317.4375 9.960938 318.21875 10.898438 318.21875 12.382812 C 318.21875 13.808594 317.300781 14.921875 316.148438 14.921875 C 315.835938 14.921875 315.582031 14.824219 315.152344 14.492188 C 314.664062 14.160156 314.3125 14.003906 314 14.003906 C 313.570312 14.003906 313.355469 14.179688 313.355469 14.550781 C 313.355469 15.117188 314.058594 15.488281 315.191406 15.488281 C 316.441406 15.488281 317.515625 15.078125 318.257812 14.316406 C 318.960938 13.652344 319.273438 12.792969 319.273438 11.660156 C 319.273438 10.585938 318.980469 9.902344 318.238281 9.140625 C 317.574219 8.496094 316.734375 8.144531 314.957031 7.832031 Z M 315.582031 6.5625 "/>
<path style=" stroke:none;fill-rule:nonzero;fill:rgb(0%,0%,0%);fill-opacity:1;" d="M 324.714844 5.175781 L 322.019531 6.523438 L 322.019531 6.738281 C 322.195312 6.660156 322.371094 6.601562 322.429688 6.582031 C 322.683594 6.464844 322.9375 6.40625 323.09375 6.40625 C 323.40625 6.40625 323.542969 6.640625 323.542969 7.109375 L 323.542969 13.886719 C 323.542969 14.375 323.425781 14.726562 323.191406 14.863281 C 322.957031 14.980469 322.742188 15.039062 322.117188 15.058594 L 322.117188 15.273438 L 326.238281 15.273438 L 326.238281 15.058594 C 325.066406 15.039062 324.832031 14.882812 324.832031 14.160156 L 324.832031 5.195312 Z M 324.714844 5.175781 "/>
<path style=" stroke:none;fill-rule:nonzero;fill:rgb(0%,0%,0%);fill-opacity:1;" d="M 332.152344 11.425781 L 332.152344 12.382812 L 335.824219 12.382812 L 335.824219 11.425781 Z M 332.152344 11.425781 "/>
<path style=" stroke:none;fill-rule:nonzero;fill:rgb(0%,0%,0%);fill-opacity:1;" d="M 343.632812 13.222656 L 343.4375 13.144531 C 342.890625 14.003906 342.695312 14.140625 342.03125 14.140625 L 338.457031 14.140625 L 340.957031 11.503906 C 342.304688 10.117188 342.871094 8.984375 342.871094 7.8125 C 342.871094 6.328125 341.660156 5.175781 340.117188 5.175781 C 339.296875 5.175781 338.515625 5.507812 337.96875 6.09375 C 337.480469 6.601562 337.265625 7.089844 337.011719 8.144531 L 337.324219 8.222656 C 337.910156 6.757812 338.457031 6.269531 339.492188 6.269531 C 340.742188 6.269531 341.601562 7.128906 341.601562 8.378906 C 341.601562 9.550781 340.898438 10.9375 339.648438 12.265625 L 336.992188 15.097656 L 336.992188 15.273438 L 342.8125 15.273438 Z M 343.632812 13.222656 "/>
<path style=" stroke:none;fill-rule:nonzero;fill:rgb(0%,0%,0%);fill-opacity:1;" d="M 345.890625 13.789062 C 345.441406 13.789062 345.070312 14.160156 345.070312 14.628906 C 345.070312 15.058594 345.441406 15.429688 345.871094 15.429688 C 346.339844 15.429688 346.710938 15.058594 346.710938 14.628906 C 346.710938 14.160156 346.339844 13.789062 345.890625 13.789062 Z M 345.890625 13.789062 "/>
<path style=" stroke:none;fill-rule:nonzero;fill:rgb(0%,0%,0%);fill-opacity:1;" d="M 354.84375 13.222656 L 354.648438 13.144531 C 354.101562 14.003906 353.90625 14.140625 353.242188 14.140625 L 349.667969 14.140625 L 352.167969 11.503906 C 353.515625 10.117188 354.082031 8.984375 354.082031 7.8125 C 354.082031 6.328125 352.871094 5.175781 351.328125 5.175781 C 350.507812 5.175781 349.726562 5.507812 349.179688 6.09375 C 348.691406 6.601562 348.476562 7.089844 348.222656 8.144531 L 348.535156 8.222656 C 349.121094 6.757812 349.667969 6.269531 350.703125 6.269531 C 351.953125 6.269531 352.8125 7.128906 352.8125 8.378906 C 352.8125 9.550781 352.109375 10.9375 350.859375 12.265625 L 348.203125 15.097656 L 348.203125 15.273438 L 354.023438 15.273438 Z M 354.84375 13.222656 "/>
<path style=" stroke:none;fill-rule:nonzero;fill:rgb(0%,0%,0%);fill-opacity:1;" d="M 360.835938 13.789062 C 360.386719 13.789062 360.015625 14.160156 360.015625 14.628906 C 360.015625 15.058594 360.386719 15.429688 360.816406 15.429688 C 361.285156 15.429688 361.65625 15.058594 361.65625 14.628906 C 361.65625 14.160156 361.285156 13.789062 360.835938 13.789062 Z M 360.835938 13.789062 "/>
<path style=" stroke:none;fill-rule:nonzero;fill:rgb(0%,0%,0%);fill-opacity:1;" d="M 366.484375 5.175781 C 365.664062 5.175781 365.039062 5.429688 364.492188 5.957031 C 363.613281 6.777344 363.046875 8.496094 363.046875 10.253906 C 363.046875 11.875 363.554688 13.632812 364.257812 14.472656 C 364.804688 15.117188 365.566406 15.488281 366.425781 15.488281 C 367.1875 15.488281 367.832031 15.234375 368.378906 14.707031 C 369.238281 13.886719 369.804688 12.148438 369.804688 10.351562 C 369.804688 7.285156 368.457031 5.175781 366.484375 5.175781 Z M 366.445312 5.566406 C 367.695312 5.566406 368.378906 7.246094 368.378906 10.371094 C 368.378906 13.496094 367.714844 15.097656 366.425781 15.097656 C 365.136719 15.097656 364.492188 13.496094 364.492188 10.390625 C 364.492188 7.226562 365.15625 5.566406 366.445312 5.566406 Z M 366.445312 5.566406 "/>
<path style=" stroke:none;fill-rule:nonzero;fill:rgb(0%,0%,0%);fill-opacity:1;" d="M 373.957031 5.175781 C 373.136719 5.175781 372.511719 5.429688 371.964844 5.957031 C 371.085938 6.777344 370.519531 8.496094 370.519531 10.253906 C 370.519531 11.875 371.027344 13.632812 371.730469 14.472656 C 372.277344 15.117188 373.039062 15.488281 373.898438 15.488281 C 374.660156 15.488281 375.304688 15.234375 375.851562 14.707031 C 376.710938 13.886719 377.277344 12.148438 377.277344 10.351562 C 377.277344 7.285156 375.929688 5.175781 373.957031 5.175781 Z M 373.917969 5.566406 C 375.167969 5.566406 375.851562 7.246094 375.851562 10.371094 C 375.851562 13.496094 375.1875 15.097656 373.898438 15.097656 C 372.609375 15.097656 371.964844 13.496094 371.964844 10.390625 C 371.964844 7.226562 372.628906 5.566406 373.917969 5.566406 Z M 373.917969 5.566406 "/>
<path style=" stroke:none;fill-rule:nonzero;fill:rgb(0%,0%,0%);fill-opacity:1;" d="M 384.339844 5.390625 L 378.8125 5.390625 L 377.933594 7.578125 L 378.1875 7.695312 C 378.832031 6.679688 379.105469 6.484375 379.925781 6.484375 L 383.167969 6.484375 L 380.21875 15.390625 L 381.175781 15.390625 L 384.339844 5.625 Z M 384.339844 5.390625 "/>
<path style=" stroke:none;fill-rule:nonzero;fill:rgb(0%,0%,0%);fill-opacity:1;" d="M 385.992188 15.605469 C 387.671875 15.410156 388.492188 15.117188 389.507812 14.394531 C 391.050781 13.261719 391.96875 11.40625 391.96875 9.394531 C 391.96875 6.914062 390.601562 5.175781 388.667969 5.175781 C 386.890625 5.175781 385.5625 6.679688 385.5625 8.691406 C 385.5625 10.527344 386.636719 11.738281 388.257812 11.738281 C 389.078125 11.738281 389.703125 11.484375 390.484375 10.878906 C 389.878906 13.320312 388.21875 14.921875 385.953125 15.3125 Z M 390.523438 9.960938 C 390.523438 10.273438 390.464844 10.410156 390.289062 10.527344 C 389.878906 10.898438 389.332031 11.09375 388.785156 11.09375 C 387.652344 11.09375 386.929688 9.960938 386.929688 8.183594 C 386.929688 7.34375 387.183594 6.445312 387.496094 6.054688 C 387.75 5.761719 388.121094 5.585938 388.550781 5.585938 C 389.859375 5.585938 390.523438 6.875 390.523438 9.394531 Z M 390.523438 9.960938 "/>
<path style=" stroke:none;fill-rule:nonzero;fill:rgb(0%,0%,0%);fill-opacity:1;" d="M 396.375 5.175781 C 395.554688 5.175781 394.929688 5.429688 394.382812 5.957031 C 393.503906 6.777344 392.9375 8.496094 392.9375 10.253906 C 392.9375 11.875 393.445312 13.632812 394.148438 14.472656 C 394.695312 15.117188 395.457031 15.488281 396.316406 15.488281 C 397.078125 15.488281 397.722656 15.234375 398.269531 14.707031 C 399.128906 13.886719 399.695312 12.148438 399.695312 10.351562 C 399.695312 7.285156 398.347656 5.175781 396.375 5.175781 Z M 396.335938 5.566406 C 397.585938 5.566406 398.269531 7.246094 398.269531 10.371094 C 398.269531 13.496094 397.605469 15.097656 396.316406 15.097656 C 395.027344 15.097656 394.382812 13.496094 394.382812 10.390625 C 394.382812 7.226562 395.046875 5.566406 396.335938 5.566406 Z M 396.335938 5.566406 "/>
<path style=" stroke:none;fill-rule:nonzero;fill:rgb(0%,0%,0%);fill-opacity:1;" d="M 406.753906 5.390625 L 401.226562 5.390625 L 400.347656 7.578125 L 400.601562 7.695312 C 401.246094 6.679688 401.519531 6.484375 402.339844 6.484375 L 405.582031 6.484375 L 402.632812 15.390625 L 403.589844 15.390625 L 406.753906 5.625 Z M 406.753906 5.390625 "/>
<path style=" stroke:none;fill-rule:nonzero;fill:rgb(0%,0%,0%);fill-opacity:1;" d="M 411.851562 11.425781 L 411.851562 12.382812 L 415.523438 12.382812 L 415.523438 11.425781 Z M 411.851562 11.425781 "/>
<path style=" stroke:none;fill-rule:nonzero;fill:rgb(0%,0%,0%);fill-opacity:1;" d="M 423.332031 13.222656 L 423.136719 13.144531 C 422.589844 14.003906 422.394531 14.140625 421.730469 14.140625 L 418.15625 14.140625 L 420.65625 11.503906 C 422.003906 10.117188 422.570312 8.984375 422.570312 7.8125 C 422.570312 6.328125 421.359375 5.175781 419.816406 5.175781 C 418.996094 5.175781 418.214844 5.507812 417.667969 6.09375 C 417.179688 6.601562 416.964844 7.089844 416.710938 8.144531 L 417.023438 8.222656 C 417.609375 6.757812 418.15625 6.269531 419.191406 6.269531 C 420.441406 6.269531 421.300781 7.128906 421.300781 8.378906 C 421.300781 9.550781 420.597656 10.9375 419.347656 12.265625 L 416.691406 15.097656 L 416.691406 15.273438 L 422.511719 15.273438 Z M 423.332031 13.222656 "/>
<path style=" stroke:none;fill-rule:nonzero;fill:rgb(0%,0%,0%);fill-opacity:1;" d="M 425.585938 13.789062 C 425.136719 13.789062 424.765625 14.160156 424.765625 14.628906 C 424.765625 15.058594 425.136719 15.429688 425.566406 15.429688 C 426.035156 15.429688 426.40625 15.058594 426.40625 14.628906 C 426.40625 14.160156 426.035156 13.789062 425.585938 13.789062 Z M 425.585938 13.789062 "/>
<path style=" stroke:none;fill-rule:nonzero;fill:rgb(0%,0%,0%);fill-opacity:1;" d="M 433.957031 13.789062 C 433.507812 13.789062 433.136719 14.160156 433.136719 14.628906 C 433.136719 15.058594 433.507812 15.429688 433.9375 15.429688 C 434.40625 15.429688 434.777344 15.058594 434.777344 14.628906 C 434.777344 14.160156 434.40625 13.789062 433.957031 13.789062 Z M 433.957031 13.789062 "/>
<path style=" stroke:none;fill-rule:nonzero;fill:rgb(0%,0%,0%);fill-opacity:1;" d="M 439.605469 5.175781 C 438.785156 5.175781 438.160156 5.429688 437.613281 5.957031 C 436.734375 6.777344 436.167969 8.496094 436.167969 10.253906 C 436.167969 11.875 436.675781 13.632812 437.378906 14.472656 C 437.925781 15.117188 438.6875 15.488281 439.546875 15.488281 C 440.308594 15.488281 440.953125 15.234375 441.5 14.707031 C 442.359375 13.886719 442.925781 12.148438 442.925781 10.351562 C 442.925781 7.285156 441.578125 5.175781 439.605469 5.175781 Z M 439.566406 5.566406 C 440.816406 5.566406 441.5 7.246094 441.5 10.371094 C 441.5 13.496094 440.835938 15.097656 439.546875 15.097656 C 438.257812 15.097656 437.613281 13.496094 437.613281 10.390625 C 437.613281 7.226562 438.277344 5.566406 439.566406 5.566406 Z M 439.566406 5.566406 "/>
<path style=" stroke:none;fill-rule:nonzero;fill:rgb(0%,0%,0%);fill-opacity:1;" d="M 447.644531 5.175781 L 444.949219 6.523438 L 444.949219 6.738281 C 445.125 6.660156 445.300781 6.601562 445.359375 6.582031 C 445.613281 6.464844 445.867188 6.40625 446.023438 6.40625 C 446.335938 6.40625 446.472656 6.640625 446.472656 7.109375 L 446.472656 13.886719 C 446.472656 14.375 446.355469 14.726562 446.121094 14.863281 C 445.886719 14.980469 445.671875 15.039062 445.046875 15.058594 L 445.046875 15.273438 L 449.167969 15.273438 L 449.167969 15.058594 C 447.996094 15.039062 447.761719 14.882812 447.761719 14.160156 L 447.761719 5.195312 Z M 447.644531 5.175781 "/>
<path style=" stroke:none;fill-rule:nonzero;fill:rgb(0%,0%,0%);fill-opacity:1;" d="M 455.097656 9.726562 C 456.582031 8.945312 457.089844 8.320312 457.089844 7.285156 C 457.089844 6.074219 456.015625 5.175781 454.53125 5.175781 C 452.890625 5.175781 451.679688 6.171875 451.679688 7.539062 C 451.679688 8.496094 451.972656 8.945312 453.535156 10.3125 C 451.933594 11.542969 451.601562 11.992188 451.601562 13.007812 C 451.601562 14.472656 452.773438 15.488281 454.472656 15.488281 C 456.269531 15.488281 457.402344 14.492188 457.402344 12.949219 C 457.402344 11.816406 456.894531 11.074219 455.097656 9.726562 Z M 454.824219 11.269531 C 455.917969 12.050781 456.269531 12.578125 456.269531 13.417969 C 456.269531 14.394531 455.605469 15.058594 454.628906 15.058594 C 453.496094 15.058594 452.734375 14.199219 452.734375 12.890625 C 452.734375 11.933594 453.066406 11.308594 453.925781 10.605469 Z M 454.667969 9.453125 C 453.339844 8.59375 452.792969 7.910156 452.792969 7.070312 C 452.792969 6.210938 453.457031 5.585938 454.414062 5.585938 C 455.429688 5.585938 456.074219 6.25 456.074219 7.285156 C 456.074219 8.125 455.644531 8.808594 454.804688 9.375 C 454.726562 9.414062 454.726562 9.414062 454.667969 9.453125 Z M 454.667969 9.453125 "/>
<path style=" stroke:none;fill-rule:nonzero;fill:rgb(0%,0%,0%);fill-opacity:1;" d="M 460.519531 10.351562 C 461.398438 10.351562 461.75 10.371094 462.101562 10.507812 C 463.039062 10.839844 463.605469 11.679688 463.605469 12.714844 C 463.605469 13.964844 462.765625 14.941406 461.652344 14.941406 C 461.261719 14.941406 460.949219 14.84375 460.402344 14.472656 C 459.953125 14.21875 459.699219 14.101562 459.445312 14.101562 C 459.09375 14.101562 458.878906 14.316406 458.878906 14.628906 C 458.878906 15.15625 459.523438 15.488281 460.558594 15.488281 C 461.710938 15.488281 462.902344 15.097656 463.605469 14.472656 C 464.308594 13.867188 464.679688 13.007812 464.679688 11.992188 C 464.679688 11.230469 464.445312 10.527344 464.015625 10.078125 C 463.722656 9.746094 463.429688 9.570312 462.785156 9.277344 C 463.800781 8.574219 464.171875 8.027344 464.171875 7.226562 C 464.171875 6.015625 463.234375 5.175781 461.847656 5.175781 C 461.105469 5.175781 460.441406 5.429688 459.914062 5.898438 C 459.464844 6.308594 459.230469 6.699219 458.898438 7.597656 L 459.132812 7.65625 C 459.738281 6.5625 460.421875 6.074219 461.359375 6.074219 C 462.335938 6.074219 463 6.71875 463 7.675781 C 463 8.203125 462.785156 8.75 462.394531 9.121094 C 461.945312 9.570312 461.535156 9.785156 460.519531 10.15625 Z M 460.519531 10.351562 "/>
<path style=" stroke:none;fill-rule:nonzero;fill:rgb(0%,0%,0%);fill-opacity:1;" d="M 472.796875 13.222656 L 472.601562 13.144531 C 472.054688 14.003906 471.859375 14.140625 471.195312 14.140625 L 467.621094 14.140625 L 470.121094 11.503906 C 471.46875 10.117188 472.035156 8.984375 472.035156 7.8125 C 472.035156 6.328125 470.824219 5.175781 469.28125 5.175781 C 468.460938 5.175781 467.679688 5.507812 467.132812 6.09375 C 466.644531 6.601562 466.429688 7.089844 466.175781 8.144531 L 466.488281 8.222656 C 467.074219 6.757812 467.621094 6.269531 468.65625 6.269531 C 469.90625 6.269531 470.765625 7.128906 470.765625 8.378906 C 470.765625 9.550781 470.0625 10.9375 468.8125 12.265625 L 466.15625 15.097656 L 466.15625 15.273438 L 471.976562 15.273438 Z M 472.796875 13.222656 "/>
<path style=" stroke:none;fill-rule:nonzero;fill:rgb(0%,0%,0%);fill-opacity:1;" d="M 477.5 11.425781 L 477.5 12.382812 L 481.171875 12.382812 L 481.171875 11.425781 Z M 477.5 11.425781 "/>
<path style=" stroke:none;fill-rule:nonzero;fill:rgb(0%,0%,0%);fill-opacity:1;" d="M 486.246094 5.175781 L 483.550781 6.523438 L 483.550781 6.738281 C 483.726562 6.660156 483.902344 6.601562 483.960938 6.582031 C 484.214844 6.464844 484.46875 6.40625 484.625 6.40625 C 484.9375 6.40625 485.074219 6.640625 485.074219 7.109375 L 485.074219 13.886719 C 485.074219 14.375 484.957031 14.726562 484.722656 14.863281 C 484.488281 14.980469 484.273438 15.039062 483.648438 15.058594 L 483.648438 15.273438 L 487.769531 15.273438 L 487.769531 15.058594 C 486.597656 15.039062 486.363281 14.882812 486.363281 14.160156 L 486.363281 5.195312 Z M 486.246094 5.175781 "/>
<path style=" stroke:none;fill-rule:nonzero;fill:rgb(0%,0%,0%);fill-opacity:1;" d="M 491.238281 13.789062 C 490.789062 13.789062 490.417969 14.160156 490.417969 14.628906 C 490.417969 15.058594 490.789062 15.429688 491.21875 15.429688 C 491.6875 15.429688 492.058594 15.058594 492.058594 14.628906 C 492.058594 14.160156 491.6875 13.789062 491.238281 13.789062 Z M 491.238281 13.789062 "/>
<path style=" stroke:none;fill-rule:nonzero;fill:rgb(0%,0%,0%);fill-opacity:1;" d="M 497.433594 9.726562 C 498.917969 8.945312 499.425781 8.320312 499.425781 7.285156 C 499.425781 6.074219 498.351562 5.175781 496.867188 5.175781 C 495.226562 5.175781 494.015625 6.171875 494.015625 7.539062 C 494.015625 8.496094 494.308594 8.945312 495.871094 10.3125 C 494.269531 11.542969 493.9375 11.992188 493.9375 13.007812 C 493.9375 14.472656 495.109375 15.488281 496.808594 15.488281 C 498.605469 15.488281 499.738281 14.492188 499.738281 12.949219 C 499.738281 11.816406 499.230469 11.074219 497.433594 9.726562 Z M 497.160156 11.269531 C 498.253906 12.050781 498.605469 12.578125 498.605469 13.417969 C 498.605469 14.394531 497.941406 15.058594 496.964844 15.058594 C 495.832031 15.058594 495.070312 14.199219 495.070312 12.890625 C 495.070312 11.933594 495.402344 11.308594 496.261719 10.605469 Z M 497.003906 9.453125 C 495.675781 8.59375 495.128906 7.910156 495.128906 7.070312 C 495.128906 6.210938 495.792969 5.585938 496.75 5.585938 C 497.765625 5.585938 498.410156 6.25 498.410156 7.285156 C 498.410156 8.125 497.980469 8.808594 497.140625 9.375 C 497.0625 9.414062 497.0625 9.414062 497.003906 9.453125 Z M 497.003906 9.453125 "/>
<path style=" stroke:none;fill-rule:nonzero;fill:rgb(0%,0%,0%);fill-opacity:1;" d="M 506.179688 13.789062 C 505.730469 13.789062 505.359375 14.160156 505.359375 14.628906 C 505.359375 15.058594 505.730469 15.429688 506.160156 15.429688 C 506.628906 15.429688 507 15.058594 507 14.628906 C 507 14.160156 506.628906 13.789062 506.179688 13.789062 Z M 506.179688 13.789062 "/>
<path style=" stroke:none;fill-rule:nonzero;fill:rgb(0%,0%,0%);fill-opacity:1;" d="M 511.832031 5.175781 C 511.011719 5.175781 510.386719 5.429688 509.839844 5.957031 C 508.960938 6.777344 508.394531 8.496094 508.394531 10.253906 C 508.394531 11.875 508.902344 13.632812 509.605469 14.472656 C 510.152344 15.117188 510.914062 15.488281 511.773438 15.488281 C 512.535156 15.488281 513.179688 15.234375 513.726562 14.707031 C 514.585938 13.886719 515.152344 12.148438 515.152344 10.351562 C 515.152344 7.285156 513.804688 5.175781 511.832031 5.175781 Z M 511.792969 5.566406 C 513.042969 5.566406 513.726562 7.246094 513.726562 10.371094 C 513.726562 13.496094 513.0625 15.097656 511.773438 15.097656 C 510.484375 15.097656 509.839844 13.496094 509.839844 10.390625 C 509.839844 7.226562 510.503906 5.566406 511.792969 5.566406 Z M 511.792969 5.566406 "/>
<path style=" stroke:none;fill-rule:nonzero;fill:rgb(0%,0%,0%);fill-opacity:1;" d="M 517.800781 10.351562 C 518.679688 10.351562 519.03125 10.371094 519.382812 10.507812 C 520.320312 10.839844 520.886719 11.679688 520.886719 12.714844 C 520.886719 13.964844 520.046875 14.941406 518.933594 14.941406 C 518.542969 14.941406 518.230469 14.84375 517.683594 14.472656 C 517.234375 14.21875 516.980469 14.101562 516.726562 14.101562 C 516.375 14.101562 516.160156 14.316406 516.160156 14.628906 C 516.160156 15.15625 516.804688 15.488281 517.839844 15.488281 C 518.992188 15.488281 520.183594 15.097656 520.886719 14.472656 C 521.589844 13.867188 521.960938 13.007812 521.960938 11.992188 C 521.960938 11.230469 521.726562 10.527344 521.296875 10.078125 C 521.003906 9.746094 520.710938 9.570312 520.066406 9.277344 C 521.082031 8.574219 521.453125 8.027344 521.453125 7.226562 C 521.453125 6.015625 520.515625 5.175781 519.128906 5.175781 C 518.386719 5.175781 517.722656 5.429688 517.195312 5.898438 C 516.746094 6.308594 516.511719 6.699219 516.179688 7.597656 L 516.414062 7.65625 C 517.019531 6.5625 517.703125 6.074219 518.640625 6.074219 C 519.617188 6.074219 520.28125 6.71875 520.28125 7.675781 C 520.28125 8.203125 520.066406 8.75 519.675781 9.121094 C 519.226562 9.570312 518.816406 9.785156 517.800781 10.15625 Z M 517.800781 10.351562 "/>
<path style=" stroke:none;fill-rule:nonzero;fill:rgb(0%,0%,0%);fill-opacity:1;" d="M 523.863281 15.605469 C 525.542969 15.410156 526.363281 15.117188 527.378906 14.394531 C 528.921875 13.261719 529.839844 11.40625 529.839844 9.394531 C 529.839844 6.914062 528.472656 5.175781 526.539062 5.175781 C 524.761719 5.175781 523.433594 6.679688 523.433594 8.691406 C 523.433594 10.527344 524.507812 11.738281 526.128906 11.738281 C 526.949219 11.738281 527.574219 11.484375 528.355469 10.878906 C 527.75 13.320312 526.089844 14.921875 523.824219 15.3125 Z M 528.394531 9.960938 C 528.394531 10.273438 528.335938 10.410156 528.160156 10.527344 C 527.75 10.898438 527.203125 11.09375 526.65625 11.09375 C 525.523438 11.09375 524.800781 9.960938 524.800781 8.183594 C 524.800781 7.34375 525.054688 6.445312 525.367188 6.054688 C 525.621094 5.761719 525.992188 5.585938 526.421875 5.585938 C 527.730469 5.585938 528.394531 6.875 528.394531 9.394531 Z M 528.394531 9.960938 "/>
<path style=" stroke:none;fill-rule:nonzero;fill:rgb(0%,0%,0%);fill-opacity:1;" d="M 534.8125 5.175781 L 532.117188 6.523438 L 532.117188 6.738281 C 532.292969 6.660156 532.46875 6.601562 532.527344 6.582031 C 532.78125 6.464844 533.035156 6.40625 533.191406 6.40625 C 533.503906 6.40625 533.640625 6.640625 533.640625 7.109375 L 533.640625 13.886719 C 533.640625 14.375 533.523438 14.726562 533.289062 14.863281 C 533.054688 14.980469 532.839844 15.039062 532.214844 15.058594 L 532.214844 15.273438 L 536.335938 15.273438 L 536.335938 15.058594 C 535.164062 15.039062 534.929688 14.882812 534.929688 14.160156 L 534.929688 5.195312 Z M 534.8125 5.175781 "/>
<path style=" stroke:none;fill-rule:nonzero;fill:rgb(0%,0%,0%);fill-opacity:1;" d="M 544.589844 5.058594 C 542.890625 5.195312 542.03125 5.488281 540.9375 6.25 C 539.316406 7.402344 538.4375 9.101562 538.4375 11.113281 C 538.4375 12.402344 538.847656 13.710938 539.492188 14.472656 C 540.058594 15.117188 540.859375 15.488281 541.777344 15.488281 C 543.632812 15.488281 544.921875 14.0625 544.921875 11.992188 C 544.921875 10.097656 543.828125 8.886719 542.109375 8.886719 C 541.464844 8.886719 541.132812 8.984375 540.195312 9.550781 C 540.605469 7.285156 542.285156 5.683594 544.628906 5.292969 Z M 541.542969 9.570312 C 542.832031 9.570312 543.574219 10.644531 543.574219 12.5 C 543.574219 14.160156 542.988281 15.058594 541.953125 15.058594 C 540.625 15.058594 539.824219 13.652344 539.824219 11.347656 C 539.824219 10.585938 539.941406 10.15625 540.253906 9.941406 C 540.566406 9.707031 541.015625 9.570312 541.542969 9.570312 Z M 541.542969 9.570312 "/>
<path style=" stroke:none;fill-rule:nonzero;fill:rgb(0%,0%,0%);fill-opacity:1;" d="M 549.722656 11.425781 L 549.722656 12.382812 L 553.394531 12.382812 L 553.394531 11.425781 Z M 549.722656 11.425781 "/>
<path style=" stroke:none;fill-rule:nonzero;fill:rgb(0%,0%,0%);fill-opacity:1;" d="M 558.46875 5.175781 L 555.773438 6.523438 L 555.773438 6.738281 C 555.949219 6.660156 556.125 6.601562 556.183594 6.582031 C 556.4375 6.464844 556.691406 6.40625 556.847656 6.40625 C 557.160156 6.40625 557.296875 6.640625 557.296875 7.109375 L 557.296875 13.886719 C 557.296875 14.375 557.179688 14.726562 556.945312 14.863281 C 556.710938 14.980469 556.496094 15.039062 555.871094 15.058594 L 555.871094 15.273438 L 559.992188 15.273438 L 559.992188 15.058594 C 558.820312 15.039062 558.585938 14.882812 558.585938 14.160156 L 558.585938 5.195312 Z M 558.46875 5.175781 "/>
<path style=" stroke:none;fill-rule:nonzero;fill:rgb(0%,0%,0%);fill-opacity:1;" d="M 563.460938 13.789062 C 563.011719 13.789062 562.640625 14.160156 562.640625 14.628906 C 562.640625 15.058594 563.011719 15.429688 563.441406 15.429688 C 563.910156 15.429688 564.28125 15.058594 564.28125 14.628906 C 564.28125 14.160156 563.910156 13.789062 563.460938 13.789062 Z M 563.460938 13.789062 "/>
<path style=" stroke:none;fill-rule:nonzero;fill:rgb(0%,0%,0%);fill-opacity:1;" d="M 571.980469 5.058594 C 570.28125 5.195312 569.421875 5.488281 568.328125 6.25 C 566.707031 7.402344 565.828125 9.101562 565.828125 11.113281 C 565.828125 12.402344 566.238281 13.710938 566.882812 14.472656 C 567.449219 15.117188 568.25 15.488281 569.167969 15.488281 C 571.023438 15.488281 572.3125 14.0625 572.3125 11.992188 C 572.3125 10.097656 571.21875 8.886719 569.5 8.886719 C 568.855469 8.886719 568.523438 8.984375 567.585938 9.550781 C 567.996094 7.285156 569.675781 5.683594 572.019531 5.292969 Z M 568.933594 9.570312 C 570.222656 9.570312 570.964844 10.644531 570.964844 12.5 C 570.964844 14.160156 570.378906 15.058594 569.34375 15.058594 C 568.015625 15.058594 567.214844 13.652344 567.214844 11.347656 C 567.214844 10.585938 567.332031 10.15625 567.644531 9.941406 C 567.957031 9.707031 568.40625 9.570312 568.933594 9.570312 Z M 568.933594 9.570312 "/>
<path style=" stroke:none;fill-rule:nonzero;fill:rgb(0%,0%,0%);fill-opacity:1;" d="M 578.40625 13.789062 C 577.957031 13.789062 577.585938 14.160156 577.585938 14.628906 C 577.585938 15.058594 577.957031 15.429688 578.386719 15.429688 C 578.855469 15.429688 579.226562 15.058594 579.226562 14.628906 C 579.226562 14.160156 578.855469 13.789062 578.40625 13.789062 Z M 578.40625 13.789062 "/>
<path style=" stroke:none;fill-rule:nonzero;fill:rgb(0%,0%,0%);fill-opacity:1;" d="M 584.054688 5.175781 C 583.234375 5.175781 582.609375 5.429688 582.0625 5.957031 C 581.183594 6.777344 580.617188 8.496094 580.617188 10.253906 C 580.617188 11.875 581.125 13.632812 581.828125 14.472656 C 582.375 15.117188 583.136719 15.488281 583.996094 15.488281 C 584.757812 15.488281 585.402344 15.234375 585.949219 14.707031 C 586.808594 13.886719 587.375 12.148438 587.375 10.351562 C 587.375 7.285156 586.027344 5.175781 584.054688 5.175781 Z M 584.015625 5.566406 C 585.265625 5.566406 585.949219 7.246094 585.949219 10.371094 C 585.949219 13.496094 585.285156 15.097656 583.996094 15.097656 C 582.707031 15.097656 582.0625 13.496094 582.0625 10.390625 C 582.0625 7.226562 582.726562 5.566406 584.015625 5.566406 Z M 584.015625 5.566406 "/>
<path style=" stroke:none;fill-rule:nonzero;fill:rgb(0%,0%,0%);fill-opacity:1;" d="M 594.4375 5.390625 L 588.910156 5.390625 L 588.03125 7.578125 L 588.285156 7.695312 C 588.929688 6.679688 589.203125 6.484375 590.023438 6.484375 L 593.265625 6.484375 L 590.316406 15.390625 L 591.273438 15.390625 L 594.4375 5.625 Z M 594.4375 5.390625 "/>
<path style=" stroke:none;fill-rule:nonzero;fill:rgb(0%,0%,0%);fill-opacity:1;" d="M 601.910156 5.390625 L 596.382812 5.390625 L 595.503906 7.578125 L 595.757812 7.695312 C 596.402344 6.679688 596.675781 6.484375 597.496094 6.484375 L 600.738281 6.484375 L 597.789062 15.390625 L 598.746094 15.390625 L 601.910156 5.625 Z M 601.910156 5.390625 "/>
<path style=" stroke:none;fill-rule:nonzero;fill:rgb(0%,0%,0%);fill-opacity:1;" d="M 604.96875 10.351562 C 605.847656 10.351562 606.199219 10.371094 606.550781 10.507812 C 607.488281 10.839844 608.054688 11.679688 608.054688 12.714844 C 608.054688 13.964844 607.214844 14.941406 606.101562 14.941406 C 605.710938 14.941406 605.398438 14.84375 604.851562 14.472656 C 604.402344 14.21875 604.148438 14.101562 603.894531 14.101562 C 603.542969 14.101562 603.328125 14.316406 603.328125 14.628906 C 603.328125 15.15625 603.972656 15.488281 605.007812 15.488281 C 606.160156 15.488281 607.351562 15.097656 608.054688 14.472656 C 608.757812 13.867188 609.128906 13.007812 609.128906 11.992188 C 609.128906 11.230469 608.894531 10.527344 608.464844 10.078125 C 608.171875 9.746094 607.878906 9.570312 607.234375 9.277344 C 608.25 8.574219 608.621094 8.027344 608.621094 7.226562 C 608.621094 6.015625 607.683594 5.175781 606.296875 5.175781 C 605.554688 5.175781 604.890625 5.429688 604.363281 5.898438 C 603.914062 6.308594 603.679688 6.699219 603.347656 7.597656 L 603.582031 7.65625 C 604.1875 6.5625 604.871094 6.074219 605.808594 6.074219 C 606.785156 6.074219 607.449219 6.71875 607.449219 7.675781 C 607.449219 8.203125 607.234375 8.75 606.84375 9.121094 C 606.394531 9.570312 605.984375 9.785156 604.96875 10.15625 Z M 604.96875 10.351562 "/>
<path style=" stroke:none;fill-rule:nonzero;fill:rgb(0%,0%,0%);fill-opacity:1;" d="M 613.941406 5.175781 C 613.121094 5.175781 612.496094 5.429688 611.949219 5.957031 C 611.070312 6.777344 610.503906 8.496094 610.503906 10.253906 C 610.503906 11.875 611.011719 13.632812 611.714844 14.472656 C 612.261719 15.117188 613.023438 15.488281 613.882812 15.488281 C 614.644531 15.488281 615.289062 15.234375 615.835938 14.707031 C 616.695312 13.886719 617.261719 12.148438 617.261719 10.351562 C 617.261719 7.285156 615.914062 5.175781 613.941406 5.175781 Z M 613.902344 5.566406 C 615.152344 5.566406 615.835938 7.246094 615.835938 10.371094 C 615.835938 13.496094 615.171875 15.097656 613.882812 15.097656 C 612.59375 15.097656 611.949219 13.496094 611.949219 10.390625 C 611.949219 7.226562 612.613281 5.566406 613.902344 5.566406 Z M 613.902344 5.566406 "/>
<path style=" stroke:none;fill-rule:nonzero;fill:rgb(0%,0%,0%);fill-opacity:1;" d="M 621.949219 11.425781 L 621.949219 12.382812 L 625.621094 12.382812 L 625.621094 11.425781 Z M 621.949219 11.425781 "/>
<path style=" stroke:none;fill-rule:nonzero;fill:rgb(0%,0%,0%);fill-opacity:1;" d="M 630.695312 5.175781 L 628 6.523438 L 628 6.738281 C 628.175781 6.660156 628.351562 6.601562 628.410156 6.582031 C 628.664062 6.464844 628.917969 6.40625 629.074219 6.40625 C 629.386719 6.40625 629.523438 6.640625 629.523438 7.109375 L 629.523438 13.886719 C 629.523438 14.375 629.40625 14.726562 629.171875 14.863281 C 628.9375 14.980469 628.722656 15.039062 628.097656 15.058594 L 628.097656 15.273438 L 632.21875 15.273438 L 632.21875 15.058594 C 631.046875 15.039062 630.8125 14.882812 630.8125 14.160156 L 630.8125 5.195312 Z M 630.695312 5.175781 "/>
<path style=" stroke:none;fill-rule:nonzero;fill:rgb(0%,0%,0%);fill-opacity:1;" d="M 635.683594 13.789062 C 635.234375 13.789062 634.863281 14.160156 634.863281 14.628906 C 634.863281 15.058594 635.234375 15.429688 635.664062 15.429688 C 636.132812 15.429688 636.503906 15.058594 636.503906 14.628906 C 636.503906 14.160156 636.132812 13.789062 635.683594 13.789062 Z M 635.683594 13.789062 "/>
<path style=" stroke:none;fill-rule:nonzero;fill:rgb(0%,0%,0%);fill-opacity:1;" d="M 644.597656 11.816406 L 643.074219 11.816406 L 643.074219 5.175781 L 642.410156 5.175781 L 637.722656 11.816406 L 637.722656 12.773438 L 641.921875 12.773438 L 641.921875 15.273438 L 643.074219 15.273438 L 643.074219 12.773438 L 644.597656 12.773438 Z M 641.902344 11.816406 L 638.328125 11.816406 L 641.902344 6.699219 Z M 641.902344 11.816406 "/>
<path style=" stroke:none;fill-rule:nonzero;fill:rgb(0%,0%,0%);fill-opacity:1;" d="M 650.628906 13.789062 C 650.179688 13.789062 649.808594 14.160156 649.808594 14.628906 C 649.808594 15.058594 650.179688 15.429688 650.609375 15.429688 C 651.078125 15.429688 651.449219 15.058594 651.449219 14.628906 C 651.449219 14.160156 651.078125 13.789062 650.628906 13.789062 Z M 650.628906 13.789062 "/>
<path style=" stroke:none;fill-rule:nonzero;fill:rgb(0%,0%,0%);fill-opacity:1;" d="M 656.847656 5.175781 L 654.152344 6.523438 L 654.152344 6.738281 C 654.328125 6.660156 654.503906 6.601562 654.5625 6.582031 C 654.816406 6.464844 655.070312 6.40625 655.226562 6.40625 C 655.539062 6.40625 655.675781 6.640625 655.675781 7.109375 L 655.675781 13.886719 C 655.675781 14.375 655.558594 14.726562 655.324219 14.863281 C 655.089844 14.980469 654.875 15.039062 654.25 15.058594 L 654.25 15.273438 L 658.371094 15.273438 L 658.371094 15.058594 C 657.199219 15.039062 656.964844 14.882812 656.964844 14.160156 L 656.964844 5.195312 Z M 656.847656 5.175781 "/>
<path style=" stroke:none;fill-rule:nonzero;fill:rgb(0%,0%,0%);fill-opacity:1;" d="M 667.011719 11.816406 L 665.488281 11.816406 L 665.488281 5.175781 L 664.824219 5.175781 L 660.136719 11.816406 L 660.136719 12.773438 L 664.335938 12.773438 L 664.335938 15.273438 L 665.488281 15.273438 L 665.488281 12.773438 L 667.011719 12.773438 Z M 664.316406 11.816406 L 660.742188 11.816406 L 664.316406 6.699219 Z M 664.316406 11.816406 "/>
<path style=" stroke:none;fill-rule:nonzero;fill:rgb(0%,0%,0%);fill-opacity:1;" d="M 671.222656 5.175781 C 670.402344 5.175781 669.777344 5.429688 669.230469 5.957031 C 668.351562 6.777344 667.785156 8.496094 667.785156 10.253906 C 667.785156 11.875 668.292969 13.632812 668.996094 14.472656 C 669.542969 15.117188 670.304688 15.488281 671.164062 15.488281 C 671.925781 15.488281 672.570312 15.234375 673.117188 14.707031 C 673.976562 13.886719 674.542969 12.148438 674.542969 10.351562 C 674.542969 7.285156 673.195312 5.175781 671.222656 5.175781 Z M 671.183594 5.566406 C 672.433594 5.566406 673.117188 7.246094 673.117188 10.371094 C 673.117188 13.496094 672.453125 15.097656 671.164062 15.097656 C 669.875 15.097656 669.230469 13.496094 669.230469 10.390625 C 669.230469 7.226562 669.894531 5.566406 671.183594 5.566406 Z M 671.183594 5.566406 "/>
<path style=" stroke:none;fill-rule:nonzero;fill:rgb(0%,0%,0%);fill-opacity:1;" d="M 675.785156 15.605469 C 677.464844 15.410156 678.285156 15.117188 679.300781 14.394531 C 680.84375 13.261719 681.761719 11.40625 681.761719 9.394531 C 681.761719 6.914062 680.394531 5.175781 678.460938 5.175781 C 676.683594 5.175781 675.355469 6.679688 675.355469 8.691406 C 675.355469 10.527344 676.429688 11.738281 678.050781 11.738281 C 678.871094 11.738281 679.496094 11.484375 680.277344 10.878906 C 679.671875 13.320312 678.011719 14.921875 675.746094 15.3125 Z M 680.316406 9.960938 C 680.316406 10.273438 680.257812 10.410156 680.082031 10.527344 C 679.671875 10.898438 679.125 11.09375 678.578125 11.09375 C 677.445312 11.09375 676.722656 9.960938 676.722656 8.183594 C 676.722656 7.34375 676.976562 6.445312 677.289062 6.054688 C 677.542969 5.761719 677.914062 5.585938 678.34375 5.585938 C 679.652344 5.585938 680.316406 6.875 680.316406 9.394531 Z M 680.316406 9.960938 "/>
</g>
</svg>
