<?xml version="1.0" encoding="UTF-8"?>
<svg xmlns="http://www.w3.org/2000/svg" xmlns:xlink="http://www.w3.org/1999/xlink" width="698.18027pt" height="20.605469pt" viewBox="0 0 698.18027 20.605469" version="1.1">
<g id="surface681">
<path style=" stroke:none;fill-rule:nonzero;fill:rgb(0%,0%,0%);fill-opacity:1;" d="M 5 11.425781 L 5 12.382812 L 8.671875 12.382812 L 8.671875 11.425781 Z M 5 11.425781 "/>
<path style=" stroke:none;fill-rule:nonzero;fill:rgb(0%,0%,0%);fill-opacity:1;" d="M 11.265625 13.789062 C 10.816406 13.789062 10.445312 14.160156 10.445312 14.628906 C 10.445312 15.058594 10.816406 15.429688 11.246094 15.429688 C 11.714844 15.429688 12.085938 15.058594 12.085938 14.628906 C 12.085938 14.160156 11.714844 13.789062 11.265625 13.789062 Z M 11.265625 13.789062 "/>
<path style=" stroke:none;fill-rule:nonzero;fill:rgb(0%,0%,0%);fill-opacity:1;" d="M 19.785156 5.058594 C 18.085938 5.195312 17.226562 5.488281 16.132812 6.25 C 14.511719 7.402344 13.632812 9.101562 13.632812 11.113281 C 13.632812 12.402344 14.042969 13.710938 14.6875 14.472656 C 15.253906 15.117188 16.054688 15.488281 16.972656 15.488281 C 18.828125 15.488281 20.117188 14.0625 20.117188 11.992188 C 20.117188 10.097656 19.023438 8.886719 17.304688 8.886719 C 16.660156 8.886719 16.328125 8.984375 15.390625 9.550781 C 15.800781 7.285156 17.480469 5.683594 19.824219 5.292969 Z M 16.738281 9.570312 C 18.027344 9.570312 18.769531 10.644531 18.769531 12.5 C 18.769531 14.160156 18.183594 15.058594 17.148438 15.058594 C 15.820312 15.058594 15.019531 13.652344 15.019531 11.347656 C 15.019531 10.585938 15.136719 10.15625 15.449219 9.941406 C 15.761719 9.707031 16.210938 9.570312 16.738281 9.570312 Z M 16.738281 9.570312 "/>
<path style=" stroke:none;fill-rule:nonzero;fill:rgb(0%,0%,0%);fill-opacity:1;" d="M 24.386719 5.175781 C 23.566406 5.175781 22.941406 5.429688 22.394531 5.957031 C 21.515625 6.777344 20.949219 8.496094 20.949219 10.253906 C 20.949219 11.875 21.457031 13.632812 22.160156 14.472656 C 22.707031 15.117188 23.46875 15.488281 24.328125 15.488281 C 25.089844 15.488281 25.734375 15.234375 26.28125 14.707031 C 27.140625 13.886719 27.707031 12.148438 27.707031 10.351562 C 27.707031 7.285156 26.359375 5.175781 24.386719 5.175781 Z M 24.347656 5.566406 C 25.597656 5.566406 26.28125 7.246094 26.28125 10.371094 C 26.28125 13.496094 25.617188 15.097656 24.328125 15.097656 C 23.039062 15.097656 22.394531 13.496094 22.394531 10.390625 C 22.394531 7.226562 23.058594 5.566406 24.347656 5.566406 Z M 24.347656 5.566406 "/>
<path style=" stroke:none;fill-rule:nonzero;fill:rgb(0%,0%,0%);fill-opacity:1;" d="M 38.464844 5.058594 C 36.765625 5.195312 35.90625 5.488281 34.8125 6.25 C 33.191406 7.402344 32.3125 9.101562 32.3125 11.113281 C 32.3125 12.402344 32.722656 13.710938 33.367188 14.472656 C 33.933594 15.117188 34.734375 15.488281 35.652344 15.488281 C 37.507812 15.488281 38.796875 14.0625 38.796875 11.992188 C 38.796875 10.097656 37.703125 8.886719 35.984375 8.886719 C 35.339844 8.886719 35.007812 8.984375 34.070312 9.550781 C 34.480469 7.285156 36.160156 5.683594 38.503906 5.292969 Z M 35.417969 9.570312 C 36.707031 9.570312 37.449219 10.644531 37.449219 12.5 C 37.449219 14.160156 36.863281 15.058594 35.828125 15.058594 C 34.5 15.058594 33.699219 13.652344 33.699219 11.347656 C 33.699219 10.585938 33.816406 10.15625 34.128906 9.941406 C 34.441406 9.707031 34.890625 9.570312 35.417969 9.570312 Z M 35.417969 9.570312 "/>
<path style=" stroke:none;fill-rule:nonzero;fill:rgb(0%,0%,0%);fill-opacity:1;" d="M 41.152344 13.789062 C 40.703125 13.789062 40.332031 14.160156 40.332031 14.628906 C 40.332031 15.058594 40.703125 15.429688 41.132812 15.429688 C 41.601562 15.429688 41.972656 15.058594 41.972656 14.628906 C 41.972656 14.160156 41.601562 13.789062 41.152344 13.789062 Z M 41.152344 13.789062 "/>
<path style=" stroke:none;fill-rule:nonzero;fill:rgb(0%,0%,0%);fill-opacity:1;" d="M 50.105469 13.222656 L 49.910156 13.144531 C 49.363281 14.003906 49.167969 14.140625 48.503906 14.140625 L 44.929688 14.140625 L 47.429688 11.503906 C 48.777344 10.117188 49.34375 8.984375 49.34375 7.8125 C 49.34375 6.328125 48.132812 5.175781 46.589844 5.175781 C 45.769531 5.175781 44.988281 5.507812 44.441406 6.09375 C 43.953125 6.601562 43.738281 7.089844 43.484375 8.144531 L 43.796875 8.222656 C 44.382812 6.757812 44.929688 6.269531 45.964844 6.269531 C 47.214844 6.269531 48.074219 7.128906 48.074219 8.378906 C 48.074219 9.550781 47.371094 10.9375 46.121094 12.265625 L 43.464844 15.097656 L 43.464844 15.273438 L 49.285156 15.273438 Z M 50.105469 13.222656 "/>
<path style=" stroke:none;fill-rule:nonzero;fill:rgb(0%,0%,0%);fill-opacity:1;" d="M 53.183594 6.5625 L 56.113281 6.5625 C 56.367188 6.5625 56.425781 6.523438 56.464844 6.425781 L 57.03125 5.097656 L 56.894531 5 C 56.679688 5.3125 56.523438 5.390625 56.210938 5.390625 L 53.085938 5.390625 L 51.464844 8.925781 C 51.445312 8.945312 51.445312 8.964844 51.445312 9.003906 C 51.445312 9.082031 51.503906 9.121094 51.621094 9.121094 C 52.109375 9.121094 52.695312 9.21875 53.320312 9.414062 C 55.039062 9.960938 55.820312 10.898438 55.820312 12.382812 C 55.820312 13.808594 54.902344 14.921875 53.75 14.921875 C 53.4375 14.921875 53.183594 14.824219 52.753906 14.492188 C 52.265625 14.160156 51.914062 14.003906 51.601562 14.003906 C 51.171875 14.003906 50.957031 14.179688 50.957031 14.550781 C 50.957031 15.117188 51.660156 15.488281 52.792969 15.488281 C 54.042969 15.488281 55.117188 15.078125 55.859375 14.316406 C 56.5625 13.652344 56.875 12.792969 56.875 11.660156 C 56.875 10.585938 56.582031 9.902344 55.839844 9.140625 C 55.175781 8.496094 54.335938 8.144531 52.558594 7.832031 Z M 53.183594 6.5625 "/>
<path style=" stroke:none;fill-rule:nonzero;fill:rgb(0%,0%,0%);fill-opacity:1;" d="M 61.746094 5.175781 C 60.925781 5.175781 60.300781 5.429688 59.753906 5.957031 C 58.875 6.777344 58.308594 8.496094 58.308594 10.253906 C 58.308594 11.875 58.816406 13.632812 59.519531 14.472656 C 60.066406 15.117188 60.828125 15.488281 61.6875 15.488281 C 62.449219 15.488281 63.09375 15.234375 63.640625 14.707031 C 64.5 13.886719 65.066406 12.148438 65.066406 10.351562 C 65.066406 7.285156 63.71875 5.175781 61.746094 5.175781 Z M 61.707031 5.566406 C 62.957031 5.566406 63.640625 7.246094 63.640625 10.371094 C 63.640625 13.496094 62.976562 15.097656 61.6875 15.097656 C 60.398438 15.097656 59.753906 13.496094 59.753906 10.390625 C 59.753906 7.226562 60.417969 5.566406 61.707031 5.566406 Z M 61.707031 5.566406 "/>
<path style=" stroke:none;fill-rule:nonzero;fill:rgb(0%,0%,0%);fill-opacity:1;" d="M 69.753906 11.425781 L 69.753906 12.382812 L 73.425781 12.382812 L 73.425781 11.425781 Z M 69.753906 11.425781 "/>
<path style=" stroke:none;fill-rule:nonzero;fill:rgb(0%,0%,0%);fill-opacity:1;" d="M 76.019531 13.789062 C 75.570312 13.789062 75.199219 14.160156 75.199219 14.628906 C 75.199219 15.058594 75.570312 15.429688 76 15.429688 C 76.46875 15.429688 76.839844 15.058594 76.839844 14.628906 C 76.839844 14.160156 76.46875 13.789062 76.019531 13.789062 Z M 76.019531 13.789062 "/>
<path style=" stroke:none;fill-rule:nonzero;fill:rgb(0%,0%,0%);fill-opacity:1;" d="M 80.574219 6.5625 L 83.503906 6.5625 C 83.757812 6.5625 83.816406 6.523438 83.855469 6.425781 L 84.421875 5.097656 L 84.285156 5 C 84.070312 5.3125 83.914062 5.390625 83.601562 5.390625 L 80.476562 5.390625 L 78.855469 8.925781 C 78.835938 8.945312 78.835938 8.964844 78.835938 9.003906 C 78.835938 9.082031 78.894531 9.121094 79.011719 9.121094 C 79.5 9.121094 80.085938 9.21875 80.710938 9.414062 C 82.429688 9.960938 83.210938 10.898438 83.210938 12.382812 C 83.210938 13.808594 82.292969 14.921875 81.140625 14.921875 C 80.828125 14.921875 80.574219 14.824219 80.144531 14.492188 C 79.65625 14.160156 79.304688 14.003906 78.992188 14.003906 C 78.5625 14.003906 78.347656 14.179688 78.347656 14.550781 C 78.347656 15.117188 79.050781 15.488281 80.183594 15.488281 C 81.433594 15.488281 82.507812 15.078125 83.25 14.316406 C 83.953125 13.652344 84.265625 12.792969 84.265625 11.660156 C 84.265625 10.585938 83.972656 9.902344 83.230469 9.140625 C 82.566406 8.496094 81.726562 8.144531 79.949219 7.832031 Z M 80.574219 6.5625 "/>
<path style=" stroke:none;fill-rule:nonzero;fill:rgb(0%,0%,0%);fill-opacity:1;" d="M 89.140625 5.175781 C 88.320312 5.175781 87.695312 5.429688 87.148438 5.957031 C 86.269531 6.777344 85.703125 8.496094 85.703125 10.253906 C 85.703125 11.875 86.210938 13.632812 86.914062 14.472656 C 87.460938 15.117188 88.222656 15.488281 89.082031 15.488281 C 89.84375 15.488281 90.488281 15.234375 91.035156 14.707031 C 91.894531 13.886719 92.460938 12.148438 92.460938 10.351562 C 92.460938 7.285156 91.113281 5.175781 89.140625 5.175781 Z M 89.101562 5.566406 C 90.351562 5.566406 91.035156 7.246094 91.035156 10.371094 C 91.035156 13.496094 90.371094 15.097656 89.082031 15.097656 C 87.792969 15.097656 87.148438 13.496094 87.148438 10.390625 C 87.148438 7.226562 87.8125 5.566406 89.101562 5.566406 Z M 89.101562 5.566406 "/>
<path style=" stroke:none;fill-rule:nonzero;fill:rgb(0%,0%,0%);fill-opacity:1;" d="M 103.609375 11.816406 L 102.085938 11.816406 L 102.085938 5.175781 L 101.421875 5.175781 L 96.734375 11.816406 L 96.734375 12.773438 L 100.933594 12.773438 L 100.933594 15.273438 L 102.085938 15.273438 L 102.085938 12.773438 L 103.609375 12.773438 Z M 100.914062 11.816406 L 97.339844 11.816406 L 100.914062 6.699219 Z M 100.914062 11.816406 "/>
<path style=" stroke:none;fill-rule:nonzero;fill:rgb(0%,0%,0%);fill-opacity:1;" d="M 105.90625 13.789062 C 105.457031 13.789062 105.085938 14.160156 105.085938 14.628906 C 105.085938 15.058594 105.457031 15.429688 105.886719 15.429688 C 106.355469 15.429688 106.726562 15.058594 106.726562 14.628906 C 106.726562 14.160156 106.355469 13.789062 105.90625 13.789062 Z M 105.90625 13.789062 "/>
<path style=" stroke:none;fill-rule:nonzero;fill:rgb(0%,0%,0%);fill-opacity:1;" d="M 112.984375 11.425781 L 112.984375 12.382812 L 116.65625 12.382812 L 116.65625 11.425781 Z M 112.984375 11.425781 "/>
<path style=" stroke:none;fill-rule:nonzero;fill:rgb(0%,0%,0%);fill-opacity:1;" d="M 119.25 13.789062 C 118.800781 13.789062 118.429688 14.160156 118.429688 14.628906 C 118.429688 15.058594 118.800781 15.429688 119.230469 15.429688 C 119.699219 15.429688 120.070312 15.058594 120.070312 14.628906 C 120.070312 14.160156 119.699219 13.789062 119.25 13.789062 Z M 119.25 13.789062 "/>
<path style=" stroke:none;fill-rule:nonzero;fill:rgb(0%,0%,0%);fill-opacity:1;" d="M 128.164062 11.816406 L 126.640625 11.816406 L 126.640625 5.175781 L 125.976562 5.175781 L 121.289062 11.816406 L 121.289062 12.773438 L 125.488281 12.773438 L 125.488281 15.273438 L 126.640625 15.273438 L 126.640625 12.773438 L 128.164062 12.773438 Z M 125.46875 11.816406 L 121.894531 11.816406 L 125.46875 6.699219 Z M 125.46875 11.816406 "/>
<path style=" stroke:none;fill-rule:nonzero;fill:rgb(0%,0%,0%);fill-opacity:1;" d="M 132.371094 5.175781 C 131.550781 5.175781 130.925781 5.429688 130.378906 5.957031 C 129.5 6.777344 128.933594 8.496094 128.933594 10.253906 C 128.933594 11.875 129.441406 13.632812 130.144531 14.472656 C 130.691406 15.117188 131.453125 15.488281 132.3125 15.488281 C 133.074219 15.488281 133.71875 15.234375 134.265625 14.707031 C 135.125 13.886719 135.691406 12.148438 135.691406 10.351562 C 135.691406 7.285156 134.34375 5.175781 132.371094 5.175781 Z M 132.332031 5.566406 C 133.582031 5.566406 134.265625 7.246094 134.265625 10.371094 C 134.265625 13.496094 133.601562 15.097656 132.3125 15.097656 C 131.023438 15.097656 130.378906 13.496094 130.378906 10.390625 C 130.378906 7.226562 131.042969 5.566406 132.332031 5.566406 Z M 132.332031 5.566406 "/>
<path style=" stroke:none;fill-rule:nonzero;fill:rgb(0%,0%,0%);fill-opacity:1;" d="M 146.882812 13.222656 L 146.6875 13.144531 C 146.140625 14.003906 145.945312 14.140625 145.28125 14.140625 L 141.707031 14.140625 L 144.207031 11.503906 C 145.554688 10.117188 146.121094 8.984375 146.121094 7.8125 C 146.121094 6.328125 144.910156 5.175781 143.367188 5.175781 C 142.546875 5.175781 141.765625 5.507812 141.21875 6.09375 C 140.730469 6.601562 140.515625 7.089844 140.261719 8.144531 L 140.574219 8.222656 C 141.160156 6.757812 141.707031 6.269531 142.742188 6.269531 C 143.992188 6.269531 144.851562 7.128906 144.851562 8.378906 C 144.851562 9.550781 144.148438 10.9375 142.898438 12.265625 L 140.242188 15.097656 L 140.242188 15.273438 L 146.0625 15.273438 Z M 146.882812 13.222656 "/>
<path style=" stroke:none;fill-rule:nonzero;fill:rgb(0%,0%,0%);fill-opacity:1;" d="M 149.140625 13.789062 C 148.691406 13.789062 148.320312 14.160156 148.320312 14.628906 C 148.320312 15.058594 148.691406 15.429688 149.121094 15.429688 C 149.589844 15.429688 149.960938 15.058594 149.960938 14.628906 C 149.960938 14.160156 149.589844 13.789062 149.140625 13.789062 Z M 149.140625 13.789062 "/>
<path style=" stroke:none;fill-rule:nonzero;fill:rgb(0%,0%,0%);fill-opacity:1;" d="M 157.699219 5.390625 L 152.171875 5.390625 L 151.292969 7.578125 L 151.546875 7.695312 C 152.191406 6.679688 152.464844 6.484375 153.285156 6.484375 L 156.527344 6.484375 L 153.578125 15.390625 L 154.535156 15.390625 L 157.699219 5.625 Z M 157.699219 5.390625 "/>
<path style=" stroke:none;fill-rule:nonzero;fill:rgb(0%,0%,0%);fill-opacity:1;" d="M 165.171875 5.390625 L 159.644531 5.390625 L 158.765625 7.578125 L 159.019531 7.695312 C 159.664062 6.679688 159.9375 6.484375 160.757812 6.484375 L 164 6.484375 L 161.050781 15.390625 L 162.007812 15.390625 L 165.171875 5.625 Z M 165.171875 5.390625 "/>
<path style=" stroke:none;fill-rule:nonzero;fill:rgb(0%,0%,0%);fill-opacity:1;" d="M 170.28125 9.726562 C 171.765625 8.945312 172.273438 8.320312 172.273438 7.285156 C 172.273438 6.074219 171.199219 5.175781 169.714844 5.175781 C 168.074219 5.175781 166.863281 6.171875 166.863281 7.539062 C 166.863281 8.496094 167.15625 8.945312 168.71875 10.3125 C 167.117188 11.542969 166.785156 11.992188 166.785156 13.007812 C 166.785156 14.472656 167.957031 15.488281 169.65625 15.488281 C 171.453125 15.488281 172.585938 14.492188 172.585938 12.949219 C 172.585938 11.816406 172.078125 11.074219 170.28125 9.726562 Z M 170.007812 11.269531 C 171.101562 12.050781 171.453125 12.578125 171.453125 13.417969 C 171.453125 14.394531 170.789062 15.058594 169.8125 15.058594 C 168.679688 15.058594 167.917969 14.199219 167.917969 12.890625 C 167.917969 11.933594 168.25 11.308594 169.109375 10.605469 Z M 169.851562 9.453125 C 168.523438 8.59375 167.976562 7.910156 167.976562 7.070312 C 167.976562 6.210938 168.640625 5.585938 169.597656 5.585938 C 170.613281 5.585938 171.257812 6.25 171.257812 7.285156 C 171.257812 8.125 170.828125 8.808594 169.988281 9.375 C 169.910156 9.414062 169.910156 9.414062 169.851562 9.453125 Z M 169.851562 9.453125 "/>
<path style=" stroke:none;fill-rule:nonzero;fill:rgb(0%,0%,0%);fill-opacity:1;" d="M 177.738281 11.425781 L 177.738281 12.382812 L 181.410156 12.382812 L 181.410156 11.425781 Z M 177.738281 11.425781 "/>
<path style=" stroke:none;fill-rule:nonzero;fill:rgb(0%,0%,0%);fill-opacity:1;" d="M 184.003906 13.789062 C 183.554688 13.789062 183.183594 14.160156 183.183594 14.628906 C 183.183594 15.058594 183.554688 15.429688 183.984375 15.429688 C 184.453125 15.429688 184.824219 15.058594 184.824219 14.628906 C 184.824219 14.160156 184.453125 13.789062 184.003906 13.789062 Z M 184.003906 13.789062 "/>
<path style=" stroke:none;fill-rule:nonzero;fill:rgb(0%,0%,0%);fill-opacity:1;" d="M 188.148438 10.351562 C 189.027344 10.351562 189.378906 10.371094 189.730469 10.507812 C 190.667969 10.839844 191.234375 11.679688 191.234375 12.714844 C 191.234375 13.964844 190.394531 14.941406 189.28125 14.941406 C 188.890625 14.941406 188.578125 14.84375 188.03125 14.472656 C 187.582031 14.21875 187.328125 14.101562 187.074219 14.101562 C 186.722656 14.101562 186.507812 14.316406 186.507812 14.628906 C 186.507812 15.15625 187.152344 15.488281 188.1875 15.488281 C 189.339844 15.488281 190.53125 15.097656 191.234375 14.472656 C 191.9375 13.867188 192.308594 13.007812 192.308594 11.992188 C 192.308594 11.230469 192.074219 10.527344 191.644531 10.078125 C 191.351562 9.746094 191.058594 9.570312 190.414062 9.277344 C 191.429688 8.574219 191.800781 8.027344 191.800781 7.226562 C 191.800781 6.015625 190.863281 5.175781 189.476562 5.175781 C 188.734375 5.175781 188.070312 5.429688 187.542969 5.898438 C 187.09375 6.308594 186.859375 6.699219 186.527344 7.597656 L 186.761719 7.65625 C 187.367188 6.5625 188.050781 6.074219 188.988281 6.074219 C 189.964844 6.074219 190.628906 6.71875 190.628906 7.675781 C 190.628906 8.203125 190.414062 8.75 190.023438 9.121094 C 189.574219 9.570312 189.164062 9.785156 188.148438 10.15625 Z M 188.148438 10.351562 "/>
<path style=" stroke:none;fill-rule:nonzero;fill:rgb(0%,0%,0%);fill-opacity:1;" d="M 197.125 5.175781 C 196.304688 5.175781 195.679688 5.429688 195.132812 5.957031 C 194.253906 6.777344 193.6875 8.496094 193.6875 10.253906 C 193.6875 11.875 194.195312 13.632812 194.898438 14.472656 C 195.445312 15.117188 196.207031 15.488281 197.066406 15.488281 C 197.828125 15.488281 198.472656 15.234375 199.019531 14.707031 C 199.878906 13.886719 200.445312 12.148438 200.445312 10.351562 C 200.445312 7.285156 199.097656 5.175781 197.125 5.175781 Z M 197.085938 5.566406 C 198.335938 5.566406 199.019531 7.246094 199.019531 10.371094 C 199.019531 13.496094 198.355469 15.097656 197.066406 15.097656 C 195.777344 15.097656 195.132812 13.496094 195.132812 10.390625 C 195.132812 7.226562 195.796875 5.566406 197.085938 5.566406 Z M 197.085938 5.566406 "/>
<path style=" stroke:none;fill-rule:nonzero;fill:rgb(0%,0%,0%);fill-opacity:1;" d="M 211.632812 13.222656 L 211.4375 13.144531 C 210.890625 14.003906 210.695312 14.140625 210.03125 14.140625 L 206.457031 14.140625 L 208.957031 11.503906 C 210.304688 10.117188 210.871094 8.984375 210.871094 7.8125 C 210.871094 6.328125 209.660156 5.175781 208.117188 5.175781 C 207.296875 5.175781 206.515625 5.507812 205.96875 6.09375 C 205.480469 6.601562 205.265625 7.089844 205.011719 8.144531 L 205.324219 8.222656 C 205.910156 6.757812 206.457031 6.269531 207.492188 6.269531 C 208.742188 6.269531 209.601562 7.128906 209.601562 8.378906 C 209.601562 9.550781 208.898438 10.9375 207.648438 12.265625 L 204.992188 15.097656 L 204.992188 15.273438 L 210.8125 15.273438 Z M 211.632812 13.222656 "/>
<path style=" stroke:none;fill-rule:nonzero;fill:rgb(0%,0%,0%);fill-opacity:1;" d="M 213.890625 13.789062 C 213.441406 13.789062 213.070312 14.160156 213.070312 14.628906 C 213.070312 15.058594 213.441406 15.429688 213.871094 15.429688 C 214.339844 15.429688 214.710938 15.058594 214.710938 14.628906 C 214.710938 14.160156 214.339844 13.789062 213.890625 13.789062 Z M 213.890625 13.789062 "/>
<path style=" stroke:none;fill-rule:nonzero;fill:rgb(0%,0%,0%);fill-opacity:1;" d="M 219.542969 5.175781 C 218.722656 5.175781 218.097656 5.429688 217.550781 5.957031 C 216.671875 6.777344 216.105469 8.496094 216.105469 10.253906 C 216.105469 11.875 216.613281 13.632812 217.316406 14.472656 C 217.863281 15.117188 218.625 15.488281 219.484375 15.488281 C 220.246094 15.488281 220.890625 15.234375 221.4375 14.707031 C 222.296875 13.886719 222.863281 12.148438 222.863281 10.351562 C 222.863281 7.285156 221.515625 5.175781 219.542969 5.175781 Z M 219.503906 5.566406 C 220.753906 5.566406 221.4375 7.246094 221.4375 10.371094 C 221.4375 13.496094 220.773438 15.097656 219.484375 15.097656 C 218.195312 15.097656 217.550781 13.496094 217.550781 10.390625 C 217.550781 7.226562 218.214844 5.566406 219.503906 5.566406 Z M 219.503906 5.566406 "/>
<path style=" stroke:none;fill-rule:nonzero;fill:rgb(0%,0%,0%);fill-opacity:1;" d="M 230.273438 11.816406 L 228.75 11.816406 L 228.75 5.175781 L 228.085938 5.175781 L 223.398438 11.816406 L 223.398438 12.773438 L 227.597656 12.773438 L 227.597656 15.273438 L 228.75 15.273438 L 228.75 12.773438 L 230.273438 12.773438 Z M 227.578125 11.816406 L 224.003906 11.816406 L 227.578125 6.699219 Z M 227.578125 11.816406 "/>
<path style=" stroke:none;fill-rule:nonzero;fill:rgb(0%,0%,0%);fill-opacity:1;" d="M 235.050781 5.175781 L 232.355469 6.523438 L 232.355469 6.738281 C 232.53125 6.660156 232.707031 6.601562 232.765625 6.582031 C 233.019531 6.464844 233.273438 6.40625 233.429688 6.40625 C 233.742188 6.40625 233.878906 6.640625 233.878906 7.109375 L 233.878906 13.886719 C 233.878906 14.375 233.761719 14.726562 233.527344 14.863281 C 233.292969 14.980469 233.078125 15.039062 232.453125 15.058594 L 232.453125 15.273438 L 236.574219 15.273438 L 236.574219 15.058594 C 235.402344 15.039062 235.167969 14.882812 235.167969 14.160156 L 235.167969 5.195312 Z M 235.050781 5.175781 "/>
<path style=" stroke:none;fill-rule:nonzero;fill:rgb(0%,0%,0%);fill-opacity:1;" d="M 242.488281 11.425781 L 242.488281 12.382812 L 246.160156 12.382812 L 246.160156 11.425781 Z M 242.488281 11.425781 "/>
<path style=" stroke:none;fill-rule:nonzero;fill:rgb(0%,0%,0%);fill-opacity:1;" d="M 248.753906 13.789062 C 248.304688 13.789062 247.933594 14.160156 247.933594 14.628906 C 247.933594 15.058594 248.304688 15.429688 248.734375 15.429688 C 249.203125 15.429688 249.574219 15.058594 249.574219 14.628906 C 249.574219 14.160156 249.203125 13.789062 248.753906 13.789062 Z M 248.753906 13.789062 "/>
<path style=" stroke:none;fill-rule:nonzero;fill:rgb(0%,0%,0%);fill-opacity:1;" d="M 257.707031 13.222656 L 257.511719 13.144531 C 256.964844 14.003906 256.769531 14.140625 256.105469 14.140625 L 252.53125 14.140625 L 255.03125 11.503906 C 256.378906 10.117188 256.945312 8.984375 256.945312 7.8125 C 256.945312 6.328125 255.734375 5.175781 254.191406 5.175781 C 253.371094 5.175781 252.589844 5.507812 252.042969 6.09375 C 251.554688 6.601562 251.339844 7.089844 251.085938 8.144531 L 251.398438 8.222656 C 251.984375 6.757812 252.53125 6.269531 253.566406 6.269531 C 254.816406 6.269531 255.675781 7.128906 255.675781 8.378906 C 255.675781 9.550781 254.972656 10.9375 253.722656 12.265625 L 251.066406 15.097656 L 251.066406 15.273438 L 256.886719 15.273438 Z M 257.707031 13.222656 "/>
<path style=" stroke:none;fill-rule:nonzero;fill:rgb(0%,0%,0%);fill-opacity:1;" d="M 261.878906 5.175781 C 261.058594 5.175781 260.433594 5.429688 259.886719 5.957031 C 259.007812 6.777344 258.441406 8.496094 258.441406 10.253906 C 258.441406 11.875 258.949219 13.632812 259.652344 14.472656 C 260.199219 15.117188 260.960938 15.488281 261.820312 15.488281 C 262.582031 15.488281 263.226562 15.234375 263.773438 14.707031 C 264.632812 13.886719 265.199219 12.148438 265.199219 10.351562 C 265.199219 7.285156 263.851562 5.175781 261.878906 5.175781 Z M 261.839844 5.566406 C 263.089844 5.566406 263.773438 7.246094 263.773438 10.371094 C 263.773438 13.496094 263.109375 15.097656 261.820312 15.097656 C 260.53125 15.097656 259.886719 13.496094 259.886719 10.390625 C 259.886719 7.226562 260.550781 5.566406 261.839844 5.566406 Z M 261.839844 5.566406 "/>
<path style=" stroke:none;fill-rule:nonzero;fill:rgb(0%,0%,0%);fill-opacity:1;" d="M 273.652344 5.175781 L 270.957031 6.523438 L 270.957031 6.738281 C 271.132812 6.660156 271.308594 6.601562 271.367188 6.582031 C 271.621094 6.464844 271.875 6.40625 272.03125 6.40625 C 272.34375 6.40625 272.480469 6.640625 272.480469 7.109375 L 272.480469 13.886719 C 272.480469 14.375 272.363281 14.726562 272.128906 14.863281 C 271.894531 14.980469 271.679688 15.039062 271.054688 15.058594 L 271.054688 15.273438 L 275.175781 15.273438 L 275.175781 15.058594 C 274.003906 15.039062 273.769531 14.882812 273.769531 14.160156 L 273.769531 5.195312 Z M 273.652344 5.175781 "/>
<path style=" stroke:none;fill-rule:nonzero;fill:rgb(0%,0%,0%);fill-opacity:1;" d="M 278.644531 13.789062 C 278.195312 13.789062 277.824219 14.160156 277.824219 14.628906 C 277.824219 15.058594 278.195312 15.429688 278.625 15.429688 C 279.09375 15.429688 279.464844 15.058594 279.464844 14.628906 C 279.464844 14.160156 279.09375 13.789062 278.644531 13.789062 Z M 278.644531 13.789062 "/>
<path style=" stroke:none;fill-rule:nonzero;fill:rgb(0%,0%,0%);fill-opacity:1;" d="M 283.199219 6.5625 L 286.128906 6.5625 C 286.382812 6.5625 286.441406 6.523438 286.480469 6.425781 L 287.046875 5.097656 L 286.910156 5 C 286.695312 5.3125 286.539062 5.390625 286.226562 5.390625 L 283.101562 5.390625 L 281.480469 8.925781 C 281.460938 8.945312 281.460938 8.964844 281.460938 9.003906 C 281.460938 9.082031 281.519531 9.121094 281.636719 9.121094 C 282.125 9.121094 282.710938 9.21875 283.335938 9.414062 C 285.054688 9.960938 285.835938 10.898438 285.835938 12.382812 C 285.835938 13.808594 284.917969 14.921875 283.765625 14.921875 C 283.453125 14.921875 283.199219 14.824219 282.769531 14.492188 C 282.28125 14.160156 281.929688 14.003906 281.617188 14.003906 C 281.1875 14.003906 280.972656 14.179688 280.972656 14.550781 C 280.972656 15.117188 281.675781 15.488281 282.808594 15.488281 C 284.058594 15.488281 285.132812 15.078125 285.875 14.316406 C 286.578125 13.652344 286.890625 12.792969 286.890625 11.660156 C 286.890625 10.585938 286.597656 9.902344 285.855469 9.140625 C 285.191406 8.496094 284.351562 8.144531 282.574219 7.832031 Z M 283.199219 6.5625 "/>
<path style=" stroke:none;fill-rule:nonzero;fill:rgb(0%,0%,0%);fill-opacity:1;" d="M 294.636719 5.058594 C 292.9375 5.195312 292.078125 5.488281 290.984375 6.25 C 289.363281 7.402344 288.484375 9.101562 288.484375 11.113281 C 288.484375 12.402344 288.894531 13.710938 289.539062 14.472656 C 290.105469 15.117188 290.90625 15.488281 291.824219 15.488281 C 293.679688 15.488281 294.96875 14.0625 294.96875 11.992188 C 294.96875 10.097656 293.875 8.886719 292.15625 8.886719 C 291.511719 8.886719 291.179688 8.984375 290.242188 9.550781 C 290.652344 7.285156 292.332031 5.683594 294.675781 5.292969 Z M 291.589844 9.570312 C 292.878906 9.570312 293.621094 10.644531 293.621094 12.5 C 293.621094 14.160156 293.035156 15.058594 292 15.058594 C 290.671875 15.058594 289.871094 13.652344 289.871094 11.347656 C 289.871094 10.585938 289.988281 10.15625 290.300781 9.941406 C 290.613281 9.707031 291.0625 9.570312 291.589844 9.570312 Z M 291.589844 9.570312 "/>
<path style=" stroke:none;fill-rule:nonzero;fill:rgb(0%,0%,0%);fill-opacity:1;" d="M 297.734375 10.351562 C 298.613281 10.351562 298.964844 10.371094 299.316406 10.507812 C 300.253906 10.839844 300.820312 11.679688 300.820312 12.714844 C 300.820312 13.964844 299.980469 14.941406 298.867188 14.941406 C 298.476562 14.941406 298.164062 14.84375 297.617188 14.472656 C 297.167969 14.21875 296.914062 14.101562 296.660156 14.101562 C 296.308594 14.101562 296.09375 14.316406 296.09375 14.628906 C 296.09375 15.15625 296.738281 15.488281 297.773438 15.488281 C 298.925781 15.488281 300.117188 15.097656 300.820312 14.472656 C 301.523438 13.867188 301.894531 13.007812 301.894531 11.992188 C 301.894531 11.230469 301.660156 10.527344 301.230469 10.078125 C 300.9375 9.746094 300.644531 9.570312 300 9.277344 C 301.015625 8.574219 301.386719 8.027344 301.386719 7.226562 C 301.386719 6.015625 300.449219 5.175781 299.0625 5.175781 C 298.320312 5.175781 297.65625 5.429688 297.128906 5.898438 C 296.679688 6.308594 296.445312 6.699219 296.113281 7.597656 L 296.347656 7.65625 C 296.953125 6.5625 297.636719 6.074219 298.574219 6.074219 C 299.550781 6.074219 300.214844 6.71875 300.214844 7.675781 C 300.214844 8.203125 300 8.75 299.609375 9.121094 C 299.160156 9.570312 298.75 9.785156 297.734375 10.15625 Z M 297.734375 10.351562 "/>
<path style=" stroke:none;fill-rule:nonzero;fill:rgb(0%,0%,0%);fill-opacity:1;" d="M 307.242188 11.425781 L 307.242188 12.382812 L 310.914062 12.382812 L 310.914062 11.425781 Z M 307.242188 11.425781 "/>
<path style=" stroke:none;fill-rule:nonzero;fill:rgb(0%,0%,0%);fill-opacity:1;" d="M 313.507812 13.789062 C 313.058594 13.789062 312.6875 14.160156 312.6875 14.628906 C 312.6875 15.058594 313.058594 15.429688 313.488281 15.429688 C 313.957031 15.429688 314.328125 15.058594 314.328125 14.628906 C 314.328125 14.160156 313.957031 13.789062 313.507812 13.789062 Z M 313.507812 13.789062 "/>
<path style=" stroke:none;fill-rule:nonzero;fill:rgb(0%,0%,0%);fill-opacity:1;" d="M 319.722656 5.175781 L 317.027344 6.523438 L 317.027344 6.738281 C 317.203125 6.660156 317.378906 6.601562 317.4375 6.582031 C 317.691406 6.464844 317.945312 6.40625 318.101562 6.40625 C 318.414062 6.40625 318.550781 6.640625 318.550781 7.109375 L 318.550781 13.886719 C 318.550781 14.375 318.433594 14.726562 318.199219 14.863281 C 317.964844 14.980469 317.75 15.039062 317.125 15.058594 L 317.125 15.273438 L 321.246094 15.273438 L 321.246094 15.058594 C 320.074219 15.039062 319.839844 14.882812 319.839844 14.160156 L 319.839844 5.195312 Z M 319.722656 5.175781 "/>
<path style=" stroke:none;fill-rule:nonzero;fill:rgb(0%,0%,0%);fill-opacity:1;" d="M 326.628906 5.175781 C 325.808594 5.175781 325.183594 5.429688 324.636719 5.957031 C 323.757812 6.777344 323.191406 8.496094 323.191406 10.253906 C 323.191406 11.875 323.699219 13.632812 324.402344 14.472656 C 324.949219 15.117188 325.710938 15.488281 326.570312 15.488281 C 327.332031 15.488281 327.976562 15.234375 328.523438 14.707031 C 329.382812 13.886719 329.949219 12.148438 329.949219 10.351562 C 329.949219 7.285156 328.601562 5.175781 326.628906 5.175781 Z M 326.589844 5.566406 C 327.839844 5.566406 328.523438 7.246094 328.523438 10.371094 C 328.523438 13.496094 327.859375 15.097656 326.570312 15.097656 C 325.28125 15.097656 324.636719 13.496094 324.636719 10.390625 C 324.636719 7.226562 325.300781 5.566406 326.589844 5.566406 Z M 326.589844 5.566406 "/>
<path style=" stroke:none;fill-rule:nonzero;fill:rgb(0%,0%,0%);fill-opacity:1;" d="M 338.402344 5.175781 L 335.707031 6.523438 L 335.707031 6.738281 C 335.882812 6.660156 336.058594 6.601562 336.117188 6.582031 C 336.371094 6.464844 336.625 6.40625 336.78125 6.40625 C 337.09375 6.40625 337.230469 6.640625 337.230469 7.109375 L 337.230469 13.886719 C 337.230469 14.375 337.113281 14.726562 336.878906 14.863281 C 336.644531 14.980469 336.429688 15.039062 335.804688 15.058594 L 335.804688 15.273438 L 339.925781 15.273438 L 339.925781 15.058594 C 338.753906 15.039062 338.519531 14.882812 338.519531 14.160156 L 338.519531 5.195312 Z M 338.402344 5.175781 "/>
<path style=" stroke:none;fill-rule:nonzero;fill:rgb(0%,0%,0%);fill-opacity:1;" d="M 343.394531 13.789062 C 342.945312 13.789062 342.574219 14.160156 342.574219 14.628906 C 342.574219 15.058594 342.945312 15.429688 343.375 15.429688 C 343.84375 15.429688 344.214844 15.058594 344.214844 14.628906 C 344.214844 14.160156 343.84375 13.789062 343.394531 13.789062 Z M 343.394531 13.789062 "/>
<path style=" stroke:none;fill-rule:nonzero;fill:rgb(0%,0%,0%);fill-opacity:1;" d="M 352.347656 13.222656 L 352.152344 13.144531 C 351.605469 14.003906 351.410156 14.140625 350.746094 14.140625 L 347.171875 14.140625 L 349.671875 11.503906 C 351.019531 10.117188 351.585938 8.984375 351.585938 7.8125 C 351.585938 6.328125 350.375 5.175781 348.832031 5.175781 C 348.011719 5.175781 347.230469 5.507812 346.683594 6.09375 C 346.195312 6.601562 345.980469 7.089844 345.726562 8.144531 L 346.039062 8.222656 C 346.625 6.757812 347.171875 6.269531 348.207031 6.269531 C 349.457031 6.269531 350.316406 7.128906 350.316406 8.378906 C 350.316406 9.550781 349.613281 10.9375 348.363281 12.265625 L 345.707031 15.097656 L 345.707031 15.273438 L 351.527344 15.273438 Z M 352.347656 13.222656 "/>
<path style=" stroke:none;fill-rule:nonzero;fill:rgb(0%,0%,0%);fill-opacity:1;" d="M 355.015625 10.351562 C 355.894531 10.351562 356.246094 10.371094 356.597656 10.507812 C 357.535156 10.839844 358.101562 11.679688 358.101562 12.714844 C 358.101562 13.964844 357.261719 14.941406 356.148438 14.941406 C 355.757812 14.941406 355.445312 14.84375 354.898438 14.472656 C 354.449219 14.21875 354.195312 14.101562 353.941406 14.101562 C 353.589844 14.101562 353.375 14.316406 353.375 14.628906 C 353.375 15.15625 354.019531 15.488281 355.054688 15.488281 C 356.207031 15.488281 357.398438 15.097656 358.101562 14.472656 C 358.804688 13.867188 359.175781 13.007812 359.175781 11.992188 C 359.175781 11.230469 358.941406 10.527344 358.511719 10.078125 C 358.21875 9.746094 357.925781 9.570312 357.28125 9.277344 C 358.296875 8.574219 358.667969 8.027344 358.667969 7.226562 C 358.667969 6.015625 357.730469 5.175781 356.34375 5.175781 C 355.601562 5.175781 354.9375 5.429688 354.410156 5.898438 C 353.960938 6.308594 353.726562 6.699219 353.394531 7.597656 L 353.628906 7.65625 C 354.234375 6.5625 354.917969 6.074219 355.855469 6.074219 C 356.832031 6.074219 357.496094 6.71875 357.496094 7.675781 C 357.496094 8.203125 357.28125 8.75 356.890625 9.121094 C 356.441406 9.570312 356.03125 9.785156 355.015625 10.15625 Z M 355.015625 10.351562 "/>
<path style=" stroke:none;fill-rule:nonzero;fill:rgb(0%,0%,0%);fill-opacity:1;" d="M 362.894531 6.5625 L 365.824219 6.5625 C 366.078125 6.5625 366.136719 6.523438 366.175781 6.425781 L 366.742188 5.097656 L 366.605469 5 C 366.390625 5.3125 366.234375 5.390625 365.921875 5.390625 L 362.796875 5.390625 L 361.175781 8.925781 C 361.15625 8.945312 361.15625 8.964844 361.15625 9.003906 C 361.15625 9.082031 361.214844 9.121094 361.332031 9.121094 C 361.820312 9.121094 362.40625 9.21875 363.03125 9.414062 C 364.75 9.960938 365.53125 10.898438 365.53125 12.382812 C 365.53125 13.808594 364.613281 14.921875 363.460938 14.921875 C 363.148438 14.921875 362.894531 14.824219 362.464844 14.492188 C 361.976562 14.160156 361.625 14.003906 361.3125 14.003906 C 360.882812 14.003906 360.667969 14.179688 360.667969 14.550781 C 360.667969 15.117188 361.371094 15.488281 362.503906 15.488281 C 363.753906 15.488281 364.828125 15.078125 365.570312 14.316406 C 366.273438 13.652344 366.585938 12.792969 366.585938 11.660156 C 366.585938 10.585938 366.292969 9.902344 365.550781 9.140625 C 364.886719 8.496094 364.046875 8.144531 362.269531 7.832031 Z M 362.894531 6.5625 "/>
<path style=" stroke:none;fill-rule:nonzero;fill:rgb(0%,0%,0%);fill-opacity:1;" d="M 375.199219 5.175781 C 374.378906 5.175781 373.753906 5.429688 373.207031 5.957031 C 372.328125 6.777344 371.761719 8.496094 371.761719 10.253906 C 371.761719 11.875 372.269531 13.632812 372.972656 14.472656 C 373.519531 15.117188 374.28125 15.488281 375.140625 15.488281 C 375.902344 15.488281 376.546875 15.234375 377.09375 14.707031 C 377.953125 13.886719 378.519531 12.148438 378.519531 10.351562 C 378.519531 7.285156 377.171875 5.175781 375.199219 5.175781 Z M 375.160156 5.566406 C 376.410156 5.566406 377.09375 7.246094 377.09375 10.371094 C 377.09375 13.496094 376.429688 15.097656 375.140625 15.097656 C 373.851562 15.097656 373.207031 13.496094 373.207031 10.390625 C 373.207031 7.226562 373.871094 5.566406 375.160156 5.566406 Z M 375.160156 5.566406 "/>
<path style=" stroke:none;fill-rule:nonzero;fill:rgb(0%,0%,0%);fill-opacity:1;" d="M 386.972656 5.175781 L 384.277344 6.523438 L 384.277344 6.738281 C 384.453125 6.660156 384.628906 6.601562 384.6875 6.582031 C 384.941406 6.464844 385.195312 6.40625 385.351562 6.40625 C 385.664062 6.40625 385.800781 6.640625 385.800781 7.109375 L 385.800781 13.886719 C 385.800781 14.375 385.683594 14.726562 385.449219 14.863281 C 385.214844 14.980469 385 15.039062 384.375 15.058594 L 384.375 15.273438 L 388.496094 15.273438 L 388.496094 15.058594 C 387.324219 15.039062 387.089844 14.882812 387.089844 14.160156 L 387.089844 5.195312 Z M 386.972656 5.175781 "/>
<path style=" stroke:none;fill-rule:nonzero;fill:rgb(0%,0%,0%);fill-opacity:1;" d="M 391.964844 13.789062 C 391.515625 13.789062 391.144531 14.160156 391.144531 14.628906 C 391.144531 15.058594 391.515625 15.429688 391.945312 15.429688 C 392.414062 15.429688 392.785156 15.058594 392.785156 14.628906 C 392.785156 14.160156 392.414062 13.789062 391.964844 13.789062 Z M 391.964844 13.789062 "/>
<path style=" stroke:none;fill-rule:nonzero;fill:rgb(0%,0%,0%);fill-opacity:1;" d="M 400.332031 13.789062 C 399.882812 13.789062 399.511719 14.160156 399.511719 14.628906 C 399.511719 15.058594 399.882812 15.429688 400.3125 15.429688 C 400.78125 15.429688 401.152344 15.058594 401.152344 14.628906 C 401.152344 14.160156 400.78125 13.789062 400.332031 13.789062 Z M 400.332031 13.789062 "/>
<path style=" stroke:none;fill-rule:nonzero;fill:rgb(0%,0%,0%);fill-opacity:1;" d="M 406.550781 5.175781 L 403.855469 6.523438 L 403.855469 6.738281 C 404.03125 6.660156 404.207031 6.601562 404.265625 6.582031 C 404.519531 6.464844 404.773438 6.40625 404.929688 6.40625 C 405.242188 6.40625 405.378906 6.640625 405.378906 7.109375 L 405.378906 13.886719 C 405.378906 14.375 405.261719 14.726562 405.027344 14.863281 C 404.792969 14.980469 404.578125 15.039062 403.953125 15.058594 L 403.953125 15.273438 L 408.074219 15.273438 L 408.074219 15.058594 C 406.902344 15.039062 406.667969 14.882812 406.667969 14.160156 L 406.667969 5.195312 Z M 406.550781 5.175781 "/>
<path style=" stroke:none;fill-rule:nonzero;fill:rgb(0%,0%,0%);fill-opacity:1;" d="M 413.453125 5.175781 C 412.632812 5.175781 412.007812 5.429688 411.460938 5.957031 C 410.582031 6.777344 410.015625 8.496094 410.015625 10.253906 C 410.015625 11.875 410.523438 13.632812 411.226562 14.472656 C 411.773438 15.117188 412.535156 15.488281 413.394531 15.488281 C 414.15625 15.488281 414.800781 15.234375 415.347656 14.707031 C 416.207031 13.886719 416.773438 12.148438 416.773438 10.351562 C 416.773438 7.285156 415.425781 5.175781 413.453125 5.175781 Z M 413.414062 5.566406 C 414.664062 5.566406 415.347656 7.246094 415.347656 10.371094 C 415.347656 13.496094 414.683594 15.097656 413.394531 15.097656 C 412.105469 15.097656 411.460938 13.496094 411.460938 10.390625 C 411.460938 7.226562 412.125 5.566406 413.414062 5.566406 Z M 413.414062 5.566406 "/>
<path style=" stroke:none;fill-rule:nonzero;fill:rgb(0%,0%,0%);fill-opacity:1;" d="M 422.75 13.789062 C 422.300781 13.789062 421.929688 14.160156 421.929688 14.628906 C 421.929688 15.058594 422.300781 15.429688 422.730469 15.429688 C 423.199219 15.429688 423.570312 15.058594 423.570312 14.628906 C 423.570312 14.160156 423.199219 13.789062 422.75 13.789062 Z M 422.75 13.789062 "/>
<path style=" stroke:none;fill-rule:nonzero;fill:rgb(0%,0%,0%);fill-opacity:1;" d="M 428.945312 9.726562 C 430.429688 8.945312 430.9375 8.320312 430.9375 7.285156 C 430.9375 6.074219 429.863281 5.175781 428.378906 5.175781 C 426.738281 5.175781 425.527344 6.171875 425.527344 7.539062 C 425.527344 8.496094 425.820312 8.945312 427.382812 10.3125 C 425.78125 11.542969 425.449219 11.992188 425.449219 13.007812 C 425.449219 14.472656 426.621094 15.488281 428.320312 15.488281 C 430.117188 15.488281 431.25 14.492188 431.25 12.949219 C 431.25 11.816406 430.742188 11.074219 428.945312 9.726562 Z M 428.671875 11.269531 C 429.765625 12.050781 430.117188 12.578125 430.117188 13.417969 C 430.117188 14.394531 429.453125 15.058594 428.476562 15.058594 C 427.34375 15.058594 426.582031 14.199219 426.582031 12.890625 C 426.582031 11.933594 426.914062 11.308594 427.773438 10.605469 Z M 428.515625 9.453125 C 427.1875 8.59375 426.640625 7.910156 426.640625 7.070312 C 426.640625 6.210938 427.304688 5.585938 428.261719 5.585938 C 429.277344 5.585938 429.921875 6.25 429.921875 7.285156 C 429.921875 8.125 429.492188 8.808594 428.652344 9.375 C 428.574219 9.414062 428.574219 9.414062 428.515625 9.453125 Z M 428.515625 9.453125 "/>
<path style=" stroke:none;fill-rule:nonzero;fill:rgb(0%,0%,0%);fill-opacity:1;" d="M 439.171875 13.222656 L 438.976562 13.144531 C 438.429688 14.003906 438.234375 14.140625 437.570312 14.140625 L 433.996094 14.140625 L 436.496094 11.503906 C 437.84375 10.117188 438.410156 8.984375 438.410156 7.8125 C 438.410156 6.328125 437.199219 5.175781 435.65625 5.175781 C 434.835938 5.175781 434.054688 5.507812 433.507812 6.09375 C 433.019531 6.601562 432.804688 7.089844 432.550781 8.144531 L 432.863281 8.222656 C 433.449219 6.757812 433.996094 6.269531 435.03125 6.269531 C 436.28125 6.269531 437.140625 7.128906 437.140625 8.378906 C 437.140625 9.550781 436.4375 10.9375 435.1875 12.265625 L 432.53125 15.097656 L 432.53125 15.273438 L 438.351562 15.273438 Z M 439.171875 13.222656 "/>
<path style=" stroke:none;fill-rule:nonzero;fill:rgb(0%,0%,0%);fill-opacity:1;" d="M 446.214844 5.058594 C 444.515625 5.195312 443.65625 5.488281 442.5625 6.25 C 440.941406 7.402344 440.0625 9.101562 440.0625 11.113281 C 440.0625 12.402344 440.472656 13.710938 441.117188 14.472656 C 441.683594 15.117188 442.484375 15.488281 443.402344 15.488281 C 445.257812 15.488281 446.546875 14.0625 446.546875 11.992188 C 446.546875 10.097656 445.453125 8.886719 443.734375 8.886719 C 443.089844 8.886719 442.757812 8.984375 441.820312 9.550781 C 442.230469 7.285156 443.910156 5.683594 446.253906 5.292969 Z M 443.167969 9.570312 C 444.457031 9.570312 445.199219 10.644531 445.199219 12.5 C 445.199219 14.160156 444.613281 15.058594 443.578125 15.058594 C 442.25 15.058594 441.449219 13.652344 441.449219 11.347656 C 441.449219 10.585938 441.566406 10.15625 441.878906 9.941406 C 442.191406 9.707031 442.640625 9.570312 443.167969 9.570312 Z M 443.167969 9.570312 "/>
<path style=" stroke:none;fill-rule:nonzero;fill:rgb(0%,0%,0%);fill-opacity:1;" d="M 454.078125 11.816406 L 452.554688 11.816406 L 452.554688 5.175781 L 451.890625 5.175781 L 447.203125 11.816406 L 447.203125 12.773438 L 451.402344 12.773438 L 451.402344 15.273438 L 452.554688 15.273438 L 452.554688 12.773438 L 454.078125 12.773438 Z M 451.382812 11.816406 L 447.808594 11.816406 L 451.382812 6.699219 Z M 451.382812 11.816406 "/>
<path style=" stroke:none;fill-rule:nonzero;fill:rgb(0%,0%,0%);fill-opacity:1;" d="M 460.109375 13.789062 C 459.660156 13.789062 459.289062 14.160156 459.289062 14.628906 C 459.289062 15.058594 459.660156 15.429688 460.089844 15.429688 C 460.558594 15.429688 460.929688 15.058594 460.929688 14.628906 C 460.929688 14.160156 460.558594 13.789062 460.109375 13.789062 Z M 460.109375 13.789062 "/>
<path style=" stroke:none;fill-rule:nonzero;fill:rgb(0%,0%,0%);fill-opacity:1;" d="M 469.058594 13.222656 L 468.863281 13.144531 C 468.316406 14.003906 468.121094 14.140625 467.457031 14.140625 L 463.882812 14.140625 L 466.382812 11.503906 C 467.730469 10.117188 468.296875 8.984375 468.296875 7.8125 C 468.296875 6.328125 467.085938 5.175781 465.542969 5.175781 C 464.722656 5.175781 463.941406 5.507812 463.394531 6.09375 C 462.90625 6.601562 462.691406 7.089844 462.4375 8.144531 L 462.75 8.222656 C 463.335938 6.757812 463.882812 6.269531 464.917969 6.269531 C 466.167969 6.269531 467.027344 7.128906 467.027344 8.378906 C 467.027344 9.550781 466.324219 10.9375 465.074219 12.265625 L 462.417969 15.097656 L 462.417969 15.273438 L 468.238281 15.273438 Z M 469.058594 13.222656 "/>
<path style=" stroke:none;fill-rule:nonzero;fill:rgb(0%,0%,0%);fill-opacity:1;" d="M 473.230469 5.175781 C 472.410156 5.175781 471.785156 5.429688 471.238281 5.957031 C 470.359375 6.777344 469.792969 8.496094 469.792969 10.253906 C 469.792969 11.875 470.300781 13.632812 471.003906 14.472656 C 471.550781 15.117188 472.3125 15.488281 473.171875 15.488281 C 473.933594 15.488281 474.578125 15.234375 475.125 14.707031 C 475.984375 13.886719 476.550781 12.148438 476.550781 10.351562 C 476.550781 7.285156 475.203125 5.175781 473.230469 5.175781 Z M 473.191406 5.566406 C 474.441406 5.566406 475.125 7.246094 475.125 10.371094 C 475.125 13.496094 474.460938 15.097656 473.171875 15.097656 C 471.882812 15.097656 471.238281 13.496094 471.238281 10.390625 C 471.238281 7.226562 471.902344 5.566406 473.191406 5.566406 Z M 473.191406 5.566406 "/>
<path style=" stroke:none;fill-rule:nonzero;fill:rgb(0%,0%,0%);fill-opacity:1;" d="M 482.523438 13.789062 C 482.074219 13.789062 481.703125 14.160156 481.703125 14.628906 C 481.703125 15.058594 482.074219 15.429688 482.503906 15.429688 C 482.972656 15.429688 483.34375 15.058594 483.34375 14.628906 C 483.34375 14.160156 482.972656 13.789062 482.523438 13.789062 Z M 482.523438 13.789062 "/>
<path style=" stroke:none;fill-rule:nonzero;fill:rgb(0%,0%,0%);fill-opacity:1;" d="M 491.046875 5.058594 C 489.347656 5.195312 488.488281 5.488281 487.394531 6.25 C 485.773438 7.402344 484.894531 9.101562 484.894531 11.113281 C 484.894531 12.402344 485.304688 13.710938 485.949219 14.472656 C 486.515625 15.117188 487.316406 15.488281 488.234375 15.488281 C 490.089844 15.488281 491.378906 14.0625 491.378906 11.992188 C 491.378906 10.097656 490.285156 8.886719 488.566406 8.886719 C 487.921875 8.886719 487.589844 8.984375 486.652344 9.550781 C 487.0625 7.285156 488.742188 5.683594 491.085938 5.292969 Z M 488 9.570312 C 489.289062 9.570312 490.03125 10.644531 490.03125 12.5 C 490.03125 14.160156 489.445312 15.058594 488.410156 15.058594 C 487.082031 15.058594 486.28125 13.652344 486.28125 11.347656 C 486.28125 10.585938 486.398438 10.15625 486.710938 9.941406 C 487.023438 9.707031 487.472656 9.570312 488 9.570312 Z M 488 9.570312 "/>
<path style=" stroke:none;fill-rule:nonzero;fill:rgb(0%,0%,0%);fill-opacity:1;" d="M 492.738281 15.605469 C 494.417969 15.410156 495.238281 15.117188 496.253906 14.394531 C 497.796875 13.261719 498.714844 11.40625 498.714844 9.394531 C 498.714844 6.914062 497.347656 5.175781 495.414062 5.175781 C 493.636719 5.175781 492.308594 6.679688 492.308594 8.691406 C 492.308594 10.527344 493.382812 11.738281 495.003906 11.738281 C 495.824219 11.738281 496.449219 11.484375 497.230469 10.878906 C 496.625 13.320312 494.964844 14.921875 492.699219 15.3125 Z M 497.269531 9.960938 C 497.269531 10.273438 497.210938 10.410156 497.035156 10.527344 C 496.625 10.898438 496.078125 11.09375 495.53125 11.09375 C 494.398438 11.09375 493.675781 9.960938 493.675781 8.183594 C 493.675781 7.34375 493.929688 6.445312 494.242188 6.054688 C 494.496094 5.761719 494.867188 5.585938 495.296875 5.585938 C 496.605469 5.585938 497.269531 6.875 497.269531 9.394531 Z M 497.269531 9.960938 "/>
<path style=" stroke:none;fill-rule:nonzero;fill:rgb(0%,0%,0%);fill-opacity:1;" d="M 506.378906 11.816406 L 504.855469 11.816406 L 504.855469 5.175781 L 504.191406 5.175781 L 499.503906 11.816406 L 499.503906 12.773438 L 503.703125 12.773438 L 503.703125 15.273438 L 504.855469 15.273438 L 504.855469 12.773438 L 506.378906 12.773438 Z M 503.683594 11.816406 L 500.109375 11.816406 L 503.683594 6.699219 Z M 503.683594 11.816406 "/>
<path style=" stroke:none;fill-rule:nonzero;fill:rgb(0%,0%,0%);fill-opacity:1;" d="M 513.851562 11.816406 L 512.328125 11.816406 L 512.328125 5.175781 L 511.664062 5.175781 L 506.976562 11.816406 L 506.976562 12.773438 L 511.175781 12.773438 L 511.175781 15.273438 L 512.328125 15.273438 L 512.328125 12.773438 L 513.851562 12.773438 Z M 511.15625 11.816406 L 507.582031 11.816406 L 511.15625 6.699219 Z M 511.15625 11.816406 "/>
<path style=" stroke:none;fill-rule:nonzero;fill:rgb(0%,0%,0%);fill-opacity:1;" d="M 519.882812 13.789062 C 519.433594 13.789062 519.0625 14.160156 519.0625 14.628906 C 519.0625 15.058594 519.433594 15.429688 519.863281 15.429688 C 520.332031 15.429688 520.703125 15.058594 520.703125 14.628906 C 520.703125 14.160156 520.332031 13.789062 519.882812 13.789062 Z M 519.882812 13.789062 "/>
<path style=" stroke:none;fill-rule:nonzero;fill:rgb(0%,0%,0%);fill-opacity:1;" d="M 524.03125 10.351562 C 524.910156 10.351562 525.261719 10.371094 525.613281 10.507812 C 526.550781 10.839844 527.117188 11.679688 527.117188 12.714844 C 527.117188 13.964844 526.277344 14.941406 525.164062 14.941406 C 524.773438 14.941406 524.460938 14.84375 523.914062 14.472656 C 523.464844 14.21875 523.210938 14.101562 522.957031 14.101562 C 522.605469 14.101562 522.390625 14.316406 522.390625 14.628906 C 522.390625 15.15625 523.035156 15.488281 524.070312 15.488281 C 525.222656 15.488281 526.414062 15.097656 527.117188 14.472656 C 527.820312 13.867188 528.191406 13.007812 528.191406 11.992188 C 528.191406 11.230469 527.957031 10.527344 527.527344 10.078125 C 527.234375 9.746094 526.941406 9.570312 526.296875 9.277344 C 527.3125 8.574219 527.683594 8.027344 527.683594 7.226562 C 527.683594 6.015625 526.746094 5.175781 525.359375 5.175781 C 524.617188 5.175781 523.953125 5.429688 523.425781 5.898438 C 522.976562 6.308594 522.742188 6.699219 522.410156 7.597656 L 522.644531 7.65625 C 523.25 6.5625 523.933594 6.074219 524.871094 6.074219 C 525.847656 6.074219 526.511719 6.71875 526.511719 7.675781 C 526.511719 8.203125 526.296875 8.75 525.90625 9.121094 C 525.457031 9.570312 525.046875 9.785156 524.03125 10.15625 Z M 524.03125 10.351562 "/>
<path style=" stroke:none;fill-rule:nonzero;fill:rgb(0%,0%,0%);fill-opacity:1;" d="M 533.007812 5.175781 C 532.1875 5.175781 531.5625 5.429688 531.015625 5.957031 C 530.136719 6.777344 529.570312 8.496094 529.570312 10.253906 C 529.570312 11.875 530.078125 13.632812 530.78125 14.472656 C 531.328125 15.117188 532.089844 15.488281 532.949219 15.488281 C 533.710938 15.488281 534.355469 15.234375 534.902344 14.707031 C 535.761719 13.886719 536.328125 12.148438 536.328125 10.351562 C 536.328125 7.285156 534.980469 5.175781 533.007812 5.175781 Z M 532.96875 5.566406 C 534.21875 5.566406 534.902344 7.246094 534.902344 10.371094 C 534.902344 13.496094 534.238281 15.097656 532.949219 15.097656 C 531.660156 15.097656 531.015625 13.496094 531.015625 10.390625 C 531.015625 7.226562 531.679688 5.566406 532.96875 5.566406 Z M 532.96875 5.566406 "/>
<path style=" stroke:none;fill-rule:nonzero;fill:rgb(0%,0%,0%);fill-opacity:1;" d="M 542.300781 13.789062 C 541.851562 13.789062 541.480469 14.160156 541.480469 14.628906 C 541.480469 15.058594 541.851562 15.429688 542.28125 15.429688 C 542.75 15.429688 543.121094 15.058594 543.121094 14.628906 C 543.121094 14.160156 542.75 13.789062 542.300781 13.789062 Z M 542.300781 13.789062 "/>
<path style=" stroke:none;fill-rule:nonzero;fill:rgb(0%,0%,0%);fill-opacity:1;" d="M 546.855469 6.5625 L 549.785156 6.5625 C 550.039062 6.5625 550.097656 6.523438 550.136719 6.425781 L 550.703125 5.097656 L 550.566406 5 C 550.351562 5.3125 550.195312 5.390625 549.882812 5.390625 L 546.757812 5.390625 L 545.136719 8.925781 C 545.117188 8.945312 545.117188 8.964844 545.117188 9.003906 C 545.117188 9.082031 545.175781 9.121094 545.292969 9.121094 C 545.78125 9.121094 546.367188 9.21875 546.992188 9.414062 C 548.710938 9.960938 549.492188 10.898438 549.492188 12.382812 C 549.492188 13.808594 548.574219 14.921875 547.421875 14.921875 C 547.109375 14.921875 546.855469 14.824219 546.425781 14.492188 C 545.9375 14.160156 545.585938 14.003906 545.273438 14.003906 C 544.84375 14.003906 544.628906 14.179688 544.628906 14.550781 C 544.628906 15.117188 545.332031 15.488281 546.464844 15.488281 C 547.714844 15.488281 548.789062 15.078125 549.53125 14.316406 C 550.234375 13.652344 550.546875 12.792969 550.546875 11.660156 C 550.546875 10.585938 550.253906 9.902344 549.511719 9.140625 C 548.847656 8.496094 548.007812 8.144531 546.230469 7.832031 Z M 546.855469 6.5625 "/>
<path style=" stroke:none;fill-rule:nonzero;fill:rgb(0%,0%,0%);fill-opacity:1;" d="M 552.511719 15.605469 C 554.191406 15.410156 555.011719 15.117188 556.027344 14.394531 C 557.570312 13.261719 558.488281 11.40625 558.488281 9.394531 C 558.488281 6.914062 557.121094 5.175781 555.1875 5.175781 C 553.410156 5.175781 552.082031 6.679688 552.082031 8.691406 C 552.082031 10.527344 553.15625 11.738281 554.777344 11.738281 C 555.597656 11.738281 556.222656 11.484375 557.003906 10.878906 C 556.398438 13.320312 554.738281 14.921875 552.472656 15.3125 Z M 557.042969 9.960938 C 557.042969 10.273438 556.984375 10.410156 556.808594 10.527344 C 556.398438 10.898438 555.851562 11.09375 555.304688 11.09375 C 554.171875 11.09375 553.449219 9.960938 553.449219 8.183594 C 553.449219 7.34375 553.703125 6.445312 554.015625 6.054688 C 554.269531 5.761719 554.640625 5.585938 555.070312 5.585938 C 556.378906 5.585938 557.042969 6.875 557.042969 9.394531 Z M 557.042969 9.960938 "/>
<path style=" stroke:none;fill-rule:nonzero;fill:rgb(0%,0%,0%);fill-opacity:1;" d="M 563.460938 5.175781 L 560.765625 6.523438 L 560.765625 6.738281 C 560.941406 6.660156 561.117188 6.601562 561.175781 6.582031 C 561.429688 6.464844 561.683594 6.40625 561.839844 6.40625 C 562.152344 6.40625 562.289062 6.640625 562.289062 7.109375 L 562.289062 13.886719 C 562.289062 14.375 562.171875 14.726562 561.9375 14.863281 C 561.703125 14.980469 561.488281 15.039062 560.863281 15.058594 L 560.863281 15.273438 L 564.984375 15.273438 L 564.984375 15.058594 C 563.8125 15.039062 563.578125 14.882812 563.578125 14.160156 L 563.578125 5.195312 Z M 563.460938 5.175781 "/>
<path style=" stroke:none;fill-rule:nonzero;fill:rgb(0%,0%,0%);fill-opacity:1;" d="M 573.277344 5.390625 L 567.75 5.390625 L 566.871094 7.578125 L 567.125 7.695312 C 567.769531 6.679688 568.042969 6.484375 568.863281 6.484375 L 572.105469 6.484375 L 569.15625 15.390625 L 570.113281 15.390625 L 573.277344 5.625 Z M 573.277344 5.390625 "/>
<path style=" stroke:none;fill-rule:nonzero;fill:rgb(0%,0%,0%);fill-opacity:1;" d="M 579.660156 13.789062 C 579.210938 13.789062 578.839844 14.160156 578.839844 14.628906 C 578.839844 15.058594 579.210938 15.429688 579.640625 15.429688 C 580.109375 15.429688 580.480469 15.058594 580.480469 14.628906 C 580.480469 14.160156 580.109375 13.789062 579.660156 13.789062 Z M 579.660156 13.789062 "/>
<path style=" stroke:none;fill-rule:nonzero;fill:rgb(0%,0%,0%);fill-opacity:1;" d="M 588.570312 11.816406 L 587.046875 11.816406 L 587.046875 5.175781 L 586.382812 5.175781 L 581.695312 11.816406 L 581.695312 12.773438 L 585.894531 12.773438 L 585.894531 15.273438 L 587.046875 15.273438 L 587.046875 12.773438 L 588.570312 12.773438 Z M 585.875 11.816406 L 582.300781 11.816406 L 585.875 6.699219 Z M 585.875 11.816406 "/>
<path style=" stroke:none;fill-rule:nonzero;fill:rgb(0%,0%,0%);fill-opacity:1;" d="M 592.78125 5.175781 C 591.960938 5.175781 591.335938 5.429688 590.789062 5.957031 C 589.910156 6.777344 589.34375 8.496094 589.34375 10.253906 C 589.34375 11.875 589.851562 13.632812 590.554688 14.472656 C 591.101562 15.117188 591.863281 15.488281 592.722656 15.488281 C 593.484375 15.488281 594.128906 15.234375 594.675781 14.707031 C 595.535156 13.886719 596.101562 12.148438 596.101562 10.351562 C 596.101562 7.285156 594.753906 5.175781 592.78125 5.175781 Z M 592.742188 5.566406 C 593.992188 5.566406 594.675781 7.246094 594.675781 10.371094 C 594.675781 13.496094 594.011719 15.097656 592.722656 15.097656 C 591.433594 15.097656 590.789062 13.496094 590.789062 10.390625 C 590.789062 7.226562 591.453125 5.566406 592.742188 5.566406 Z M 592.742188 5.566406 "/>
<path style=" stroke:none;fill-rule:nonzero;fill:rgb(0%,0%,0%);fill-opacity:1;" d="M 602.078125 13.789062 C 601.628906 13.789062 601.257812 14.160156 601.257812 14.628906 C 601.257812 15.058594 601.628906 15.429688 602.058594 15.429688 C 602.527344 15.429688 602.898438 15.058594 602.898438 14.628906 C 602.898438 14.160156 602.527344 13.789062 602.078125 13.789062 Z M 602.078125 13.789062 "/>
<path style=" stroke:none;fill-rule:nonzero;fill:rgb(0%,0%,0%);fill-opacity:1;" d="M 606.632812 6.5625 L 609.5625 6.5625 C 609.816406 6.5625 609.875 6.523438 609.914062 6.425781 L 610.480469 5.097656 L 610.34375 5 C 610.128906 5.3125 609.972656 5.390625 609.660156 5.390625 L 606.535156 5.390625 L 604.914062 8.925781 C 604.894531 8.945312 604.894531 8.964844 604.894531 9.003906 C 604.894531 9.082031 604.953125 9.121094 605.070312 9.121094 C 605.558594 9.121094 606.144531 9.21875 606.769531 9.414062 C 608.488281 9.960938 609.269531 10.898438 609.269531 12.382812 C 609.269531 13.808594 608.351562 14.921875 607.199219 14.921875 C 606.886719 14.921875 606.632812 14.824219 606.203125 14.492188 C 605.714844 14.160156 605.363281 14.003906 605.050781 14.003906 C 604.621094 14.003906 604.40625 14.179688 604.40625 14.550781 C 604.40625 15.117188 605.109375 15.488281 606.242188 15.488281 C 607.492188 15.488281 608.566406 15.078125 609.308594 14.316406 C 610.011719 13.652344 610.324219 12.792969 610.324219 11.660156 C 610.324219 10.585938 610.03125 9.902344 609.289062 9.140625 C 608.625 8.496094 607.785156 8.144531 606.007812 7.832031 Z M 606.632812 6.5625 "/>
<path style=" stroke:none;fill-rule:nonzero;fill:rgb(0%,0%,0%);fill-opacity:1;" d="M 615.765625 5.175781 L 613.070312 6.523438 L 613.070312 6.738281 C 613.246094 6.660156 613.421875 6.601562 613.480469 6.582031 C 613.734375 6.464844 613.988281 6.40625 614.144531 6.40625 C 614.457031 6.40625 614.59375 6.640625 614.59375 7.109375 L 614.59375 13.886719 C 614.59375 14.375 614.476562 14.726562 614.242188 14.863281 C 614.007812 14.980469 613.792969 15.039062 613.167969 15.058594 L 613.167969 15.273438 L 617.289062 15.273438 L 617.289062 15.058594 C 616.117188 15.039062 615.882812 14.882812 615.882812 14.160156 L 615.882812 5.195312 Z M 615.765625 5.175781 "/>
<path style=" stroke:none;fill-rule:nonzero;fill:rgb(0%,0%,0%);fill-opacity:1;" d="M 622.671875 5.175781 C 621.851562 5.175781 621.226562 5.429688 620.679688 5.957031 C 619.800781 6.777344 619.234375 8.496094 619.234375 10.253906 C 619.234375 11.875 619.742188 13.632812 620.445312 14.472656 C 620.992188 15.117188 621.753906 15.488281 622.613281 15.488281 C 623.375 15.488281 624.019531 15.234375 624.566406 14.707031 C 625.425781 13.886719 625.992188 12.148438 625.992188 10.351562 C 625.992188 7.285156 624.644531 5.175781 622.671875 5.175781 Z M 622.632812 5.566406 C 623.882812 5.566406 624.566406 7.246094 624.566406 10.371094 C 624.566406 13.496094 623.902344 15.097656 622.613281 15.097656 C 621.324219 15.097656 620.679688 13.496094 620.679688 10.390625 C 620.679688 7.226562 621.34375 5.566406 622.632812 5.566406 Z M 622.632812 5.566406 "/>
<path style=" stroke:none;fill-rule:nonzero;fill:rgb(0%,0%,0%);fill-opacity:1;" d="M 633.441406 13.222656 L 633.246094 13.144531 C 632.699219 14.003906 632.503906 14.140625 631.839844 14.140625 L 628.265625 14.140625 L 630.765625 11.503906 C 632.113281 10.117188 632.679688 8.984375 632.679688 7.8125 C 632.679688 6.328125 631.46875 5.175781 629.925781 5.175781 C 629.105469 5.175781 628.324219 5.507812 627.777344 6.09375 C 627.289062 6.601562 627.074219 7.089844 626.820312 8.144531 L 627.132812 8.222656 C 627.71875 6.757812 628.265625 6.269531 629.300781 6.269531 C 630.550781 6.269531 631.410156 7.128906 631.410156 8.378906 C 631.410156 9.550781 630.707031 10.9375 629.457031 12.265625 L 626.800781 15.097656 L 626.800781 15.273438 L 632.621094 15.273438 Z M 633.441406 13.222656 "/>
<path style=" stroke:none;fill-rule:nonzero;fill:rgb(0%,0%,0%);fill-opacity:1;" d="M 639.4375 13.789062 C 638.988281 13.789062 638.617188 14.160156 638.617188 14.628906 C 638.617188 15.058594 638.988281 15.429688 639.417969 15.429688 C 639.886719 15.429688 640.257812 15.058594 640.257812 14.628906 C 640.257812 14.160156 639.886719 13.789062 639.4375 13.789062 Z M 639.4375 13.789062 "/>
<path style=" stroke:none;fill-rule:nonzero;fill:rgb(0%,0%,0%);fill-opacity:1;" d="M 643.992188 6.5625 L 646.921875 6.5625 C 647.175781 6.5625 647.234375 6.523438 647.273438 6.425781 L 647.839844 5.097656 L 647.703125 5 C 647.488281 5.3125 647.332031 5.390625 647.019531 5.390625 L 643.894531 5.390625 L 642.273438 8.925781 C 642.253906 8.945312 642.253906 8.964844 642.253906 9.003906 C 642.253906 9.082031 642.3125 9.121094 642.429688 9.121094 C 642.917969 9.121094 643.503906 9.21875 644.128906 9.414062 C 645.847656 9.960938 646.628906 10.898438 646.628906 12.382812 C 646.628906 13.808594 645.710938 14.921875 644.558594 14.921875 C 644.246094 14.921875 643.992188 14.824219 643.5625 14.492188 C 643.074219 14.160156 642.722656 14.003906 642.410156 14.003906 C 641.980469 14.003906 641.765625 14.179688 641.765625 14.550781 C 641.765625 15.117188 642.46875 15.488281 643.601562 15.488281 C 644.851562 15.488281 645.925781 15.078125 646.667969 14.316406 C 647.371094 13.652344 647.683594 12.792969 647.683594 11.660156 C 647.683594 10.585938 647.390625 9.902344 646.648438 9.140625 C 645.984375 8.496094 645.144531 8.144531 643.367188 7.832031 Z M 643.992188 6.5625 "/>
<path style=" stroke:none;fill-rule:nonzero;fill:rgb(0%,0%,0%);fill-opacity:1;" d="M 652.558594 5.175781 C 651.738281 5.175781 651.113281 5.429688 650.566406 5.957031 C 649.6875 6.777344 649.121094 8.496094 649.121094 10.253906 C 649.121094 11.875 649.628906 13.632812 650.332031 14.472656 C 650.878906 15.117188 651.640625 15.488281 652.5 15.488281 C 653.261719 15.488281 653.90625 15.234375 654.453125 14.707031 C 655.3125 13.886719 655.878906 12.148438 655.878906 10.351562 C 655.878906 7.285156 654.53125 5.175781 652.558594 5.175781 Z M 652.519531 5.566406 C 653.769531 5.566406 654.453125 7.246094 654.453125 10.371094 C 654.453125 13.496094 653.789062 15.097656 652.5 15.097656 C 651.210938 15.097656 650.566406 13.496094 650.566406 10.390625 C 650.566406 7.226562 651.230469 5.566406 652.519531 5.566406 Z M 652.519531 5.566406 "/>
<path style=" stroke:none;fill-rule:nonzero;fill:rgb(0%,0%,0%);fill-opacity:1;" d="M 661.851562 13.789062 C 661.402344 13.789062 661.03125 14.160156 661.03125 14.628906 C 661.03125 15.058594 661.402344 15.429688 661.832031 15.429688 C 662.300781 15.429688 662.671875 15.058594 662.671875 14.628906 C 662.671875 14.160156 662.300781 13.789062 661.851562 13.789062 Z M 661.851562 13.789062 "/>
<path style=" stroke:none;fill-rule:nonzero;fill:rgb(0%,0%,0%);fill-opacity:1;" d="M 670.765625 11.816406 L 669.242188 11.816406 L 669.242188 5.175781 L 668.578125 5.175781 L 663.890625 11.816406 L 663.890625 12.773438 L 668.089844 12.773438 L 668.089844 15.273438 L 669.242188 15.273438 L 669.242188 12.773438 L 670.765625 12.773438 Z M 668.070312 11.816406 L 664.496094 11.816406 L 668.070312 6.699219 Z M 668.070312 11.816406 "/>
<path style=" stroke:none;fill-rule:nonzero;fill:rgb(0%,0%,0%);fill-opacity:1;" d="M 678.234375 11.816406 L 676.710938 11.816406 L 676.710938 5.175781 L 676.046875 5.175781 L 671.359375 11.816406 L 671.359375 12.773438 L 675.558594 12.773438 L 675.558594 15.273438 L 676.710938 15.273438 L 676.710938 12.773438 L 678.234375 12.773438 Z M 675.539062 11.816406 L 671.964844 11.816406 L 675.539062 6.699219 Z M 675.539062 11.816406 "/>
<path style=" stroke:none;fill-rule:nonzero;fill:rgb(0%,0%,0%);fill-opacity:1;" d="M 685.707031 11.816406 L 684.183594 11.816406 L 684.183594 5.175781 L 683.519531 5.175781 L 678.832031 11.816406 L 678.832031 12.773438 L 683.03125 12.773438 L 683.03125 15.273438 L 684.183594 15.273438 L 684.183594 12.773438 L 685.707031 12.773438 Z M 683.011719 11.816406 L 679.4375 11.816406 L 683.011719 6.699219 Z M 683.011719 11.816406 "/>
<path style=" stroke:none;fill-rule:nonzero;fill:rgb(0%,0%,0%);fill-opacity:1;" d="M 693.179688 11.816406 L 691.65625 11.816406 L 691.65625 5.175781 L 690.992188 5.175781 L 686.304688 11.816406 L 686.304688 12.773438 L 690.503906 12.773438 L 690.503906 15.273438 L 691.65625 15.273438 L 691.65625 12.773438 L 693.179688 12.773438 Z M 690.484375 11.816406 L 686.910156 11.816406 L 690.484375 6.699219 Z M 690.484375 11.816406 "/>
</g>
</svg>
