<?xml version="1.0" encoding="UTF-8"?>
<svg xmlns="http://www.w3.org/2000/svg" xmlns:xlink="http://www.w3.org/1999/xlink" width="665.50586pt" height="20.605469pt" viewBox="0 0 665.50586 20.605469" version="1.1">
<g id="surface313">
<path style=" stroke:none;fill-rule:nonzero;fill:rgb(0%,0%,0%);fill-opacity:1;" d="M 5 11.425781 L 5 12.382812 L 8.671875 12.382812 L 8.671875 11.425781 Z M 5 11.425781 "/>
<path style=" stroke:none;fill-rule:nonzero;fill:rgb(0%,0%,0%);fill-opacity:1;" d="M 11.675781 10.351562 C 12.554688 10.351562 12.90625 10.371094 13.257812 10.507812 C 14.195312 10.839844 14.761719 11.679688 14.761719 12.714844 C 14.761719 13.964844 13.921875 14.941406 12.808594 14.941406 C 12.417969 14.941406 12.105469 14.84375 11.558594 14.472656 C 11.109375 14.21875 10.855469 14.101562 10.601562 14.101562 C 10.25 14.101562 10.035156 14.316406 10.035156 14.628906 C 10.035156 15.15625 10.679688 15.488281 11.714844 15.488281 C 12.867188 15.488281 14.058594 15.097656 14.761719 14.472656 C 15.464844 13.867188 15.835938 13.007812 15.835938 11.992188 C 15.835938 11.230469 15.601562 10.527344 15.171875 10.078125 C 14.878906 9.746094 14.585938 9.570312 13.941406 9.277344 C 14.957031 8.574219 15.328125 8.027344 15.328125 7.226562 C 15.328125 6.015625 14.390625 5.175781 13.003906 5.175781 C 12.261719 5.175781 11.597656 5.429688 11.070312 5.898438 C 10.621094 6.308594 10.386719 6.699219 10.054688 7.597656 L 10.289062 7.65625 C 10.894531 6.5625 11.578125 6.074219 12.515625 6.074219 C 13.492188 6.074219 14.15625 6.71875 14.15625 7.675781 C 14.15625 8.203125 13.941406 8.75 13.550781 9.121094 C 13.101562 9.570312 12.691406 9.785156 11.675781 10.15625 Z M 11.675781 10.351562 "/>
<path style=" stroke:none;fill-rule:nonzero;fill:rgb(0%,0%,0%);fill-opacity:1;" d="M 18.738281 13.789062 C 18.289062 13.789062 17.917969 14.160156 17.917969 14.628906 C 17.917969 15.058594 18.289062 15.429688 18.71875 15.429688 C 19.1875 15.429688 19.558594 15.058594 19.558594 14.628906 C 19.558594 14.160156 19.1875 13.789062 18.738281 13.789062 Z M 18.738281 13.789062 "/>
<path style=" stroke:none;fill-rule:nonzero;fill:rgb(0%,0%,0%);fill-opacity:1;" d="M 27.105469 13.789062 C 26.65625 13.789062 26.285156 14.160156 26.285156 14.628906 C 26.285156 15.058594 26.65625 15.429688 27.085938 15.429688 C 27.554688 15.429688 27.925781 15.058594 27.925781 14.628906 C 27.925781 14.160156 27.554688 13.789062 27.105469 13.789062 Z M 27.105469 13.789062 "/>
<path style=" stroke:none;fill-rule:nonzero;fill:rgb(0%,0%,0%);fill-opacity:1;" d="M 36.058594 13.222656 L 35.863281 13.144531 C 35.316406 14.003906 35.121094 14.140625 34.457031 14.140625 L 30.882812 14.140625 L 33.382812 11.503906 C 34.730469 10.117188 35.296875 8.984375 35.296875 7.8125 C 35.296875 6.328125 34.085938 5.175781 32.542969 5.175781 C 31.722656 5.175781 30.941406 5.507812 30.394531 6.09375 C 29.90625 6.601562 29.691406 7.089844 29.4375 8.144531 L 29.75 8.222656 C 30.335938 6.757812 30.882812 6.269531 31.917969 6.269531 C 33.167969 6.269531 34.027344 7.128906 34.027344 8.378906 C 34.027344 9.550781 33.324219 10.9375 32.074219 12.265625 L 29.417969 15.097656 L 29.417969 15.273438 L 35.238281 15.273438 Z M 36.058594 13.222656 "/>
<path style=" stroke:none;fill-rule:nonzero;fill:rgb(0%,0%,0%);fill-opacity:1;" d="M 39.132812 6.5625 L 42.0625 6.5625 C 42.316406 6.5625 42.375 6.523438 42.414062 6.425781 L 42.980469 5.097656 L 42.84375 5 C 42.628906 5.3125 42.472656 5.390625 42.160156 5.390625 L 39.035156 5.390625 L 37.414062 8.925781 C 37.394531 8.945312 37.394531 8.964844 37.394531 9.003906 C 37.394531 9.082031 37.453125 9.121094 37.570312 9.121094 C 38.058594 9.121094 38.644531 9.21875 39.269531 9.414062 C 40.988281 9.960938 41.769531 10.898438 41.769531 12.382812 C 41.769531 13.808594 40.851562 14.921875 39.699219 14.921875 C 39.386719 14.921875 39.132812 14.824219 38.703125 14.492188 C 38.214844 14.160156 37.863281 14.003906 37.550781 14.003906 C 37.121094 14.003906 36.90625 14.179688 36.90625 14.550781 C 36.90625 15.117188 37.609375 15.488281 38.742188 15.488281 C 39.992188 15.488281 41.066406 15.078125 41.808594 14.316406 C 42.511719 13.652344 42.824219 12.792969 42.824219 11.660156 C 42.824219 10.585938 42.53125 9.902344 41.789062 9.140625 C 41.125 8.496094 40.285156 8.144531 38.507812 7.832031 Z M 39.132812 6.5625 "/>
<path style=" stroke:none;fill-rule:nonzero;fill:rgb(0%,0%,0%);fill-opacity:1;" d="M 47.699219 5.175781 C 46.878906 5.175781 46.253906 5.429688 45.707031 5.957031 C 44.828125 6.777344 44.261719 8.496094 44.261719 10.253906 C 44.261719 11.875 44.769531 13.632812 45.472656 14.472656 C 46.019531 15.117188 46.78125 15.488281 47.640625 15.488281 C 48.402344 15.488281 49.046875 15.234375 49.59375 14.707031 C 50.453125 13.886719 51.019531 12.148438 51.019531 10.351562 C 51.019531 7.285156 49.671875 5.175781 47.699219 5.175781 Z M 47.660156 5.566406 C 48.910156 5.566406 49.59375 7.246094 49.59375 10.371094 C 49.59375 13.496094 48.929688 15.097656 47.640625 15.097656 C 46.351562 15.097656 45.707031 13.496094 45.707031 10.390625 C 45.707031 7.226562 46.371094 5.566406 47.660156 5.566406 Z M 47.660156 5.566406 "/>
<path style=" stroke:none;fill-rule:nonzero;fill:rgb(0%,0%,0%);fill-opacity:1;" d="M 55.171875 5.175781 C 54.351562 5.175781 53.726562 5.429688 53.179688 5.957031 C 52.300781 6.777344 51.734375 8.496094 51.734375 10.253906 C 51.734375 11.875 52.242188 13.632812 52.945312 14.472656 C 53.492188 15.117188 54.253906 15.488281 55.113281 15.488281 C 55.875 15.488281 56.519531 15.234375 57.066406 14.707031 C 57.925781 13.886719 58.492188 12.148438 58.492188 10.351562 C 58.492188 7.285156 57.144531 5.175781 55.171875 5.175781 Z M 55.132812 5.566406 C 56.382812 5.566406 57.066406 7.246094 57.066406 10.371094 C 57.066406 13.496094 56.402344 15.097656 55.113281 15.097656 C 53.824219 15.097656 53.179688 13.496094 53.179688 10.390625 C 53.179688 7.226562 53.84375 5.566406 55.132812 5.566406 Z M 55.132812 5.566406 "/>
<path style=" stroke:none;fill-rule:nonzero;fill:rgb(0%,0%,0%);fill-opacity:1;" d="M 63.175781 11.425781 L 63.175781 12.382812 L 66.847656 12.382812 L 66.847656 11.425781 Z M 63.175781 11.425781 "/>
<path style=" stroke:none;fill-rule:nonzero;fill:rgb(0%,0%,0%);fill-opacity:1;" d="M 74.65625 13.222656 L 74.460938 13.144531 C 73.914062 14.003906 73.71875 14.140625 73.054688 14.140625 L 69.480469 14.140625 L 71.980469 11.503906 C 73.328125 10.117188 73.894531 8.984375 73.894531 7.8125 C 73.894531 6.328125 72.683594 5.175781 71.140625 5.175781 C 70.320312 5.175781 69.539062 5.507812 68.992188 6.09375 C 68.503906 6.601562 68.289062 7.089844 68.035156 8.144531 L 68.347656 8.222656 C 68.933594 6.757812 69.480469 6.269531 70.515625 6.269531 C 71.765625 6.269531 72.625 7.128906 72.625 8.378906 C 72.625 9.550781 71.921875 10.9375 70.671875 12.265625 L 68.015625 15.097656 L 68.015625 15.273438 L 73.835938 15.273438 Z M 74.65625 13.222656 "/>
<path style=" stroke:none;fill-rule:nonzero;fill:rgb(0%,0%,0%);fill-opacity:1;" d="M 76.914062 13.789062 C 76.464844 13.789062 76.09375 14.160156 76.09375 14.628906 C 76.09375 15.058594 76.464844 15.429688 76.894531 15.429688 C 77.363281 15.429688 77.734375 15.058594 77.734375 14.628906 C 77.734375 14.160156 77.363281 13.789062 76.914062 13.789062 Z M 76.914062 13.789062 "/>
<path style=" stroke:none;fill-rule:nonzero;fill:rgb(0%,0%,0%);fill-opacity:1;" d="M 79.65625 15.605469 C 81.335938 15.410156 82.15625 15.117188 83.171875 14.394531 C 84.714844 13.261719 85.632812 11.40625 85.632812 9.394531 C 85.632812 6.914062 84.265625 5.175781 82.332031 5.175781 C 80.554688 5.175781 79.226562 6.679688 79.226562 8.691406 C 79.226562 10.527344 80.300781 11.738281 81.921875 11.738281 C 82.742188 11.738281 83.367188 11.484375 84.148438 10.878906 C 83.542969 13.320312 81.882812 14.921875 79.617188 15.3125 Z M 84.1875 9.960938 C 84.1875 10.273438 84.128906 10.410156 83.953125 10.527344 C 83.542969 10.898438 82.996094 11.09375 82.449219 11.09375 C 81.316406 11.09375 80.59375 9.960938 80.59375 8.183594 C 80.59375 7.34375 80.847656 6.445312 81.160156 6.054688 C 81.414062 5.761719 81.785156 5.585938 82.214844 5.585938 C 83.523438 5.585938 84.1875 6.875 84.1875 9.394531 Z M 84.1875 9.960938 "/>
<path style=" stroke:none;fill-rule:nonzero;fill:rgb(0%,0%,0%);fill-opacity:1;" d="M 91.859375 13.789062 C 91.410156 13.789062 91.039062 14.160156 91.039062 14.628906 C 91.039062 15.058594 91.410156 15.429688 91.839844 15.429688 C 92.308594 15.429688 92.679688 15.058594 92.679688 14.628906 C 92.679688 14.160156 92.308594 13.789062 91.859375 13.789062 Z M 91.859375 13.789062 "/>
<path style=" stroke:none;fill-rule:nonzero;fill:rgb(0%,0%,0%);fill-opacity:1;" d="M 100.808594 13.222656 L 100.613281 13.144531 C 100.066406 14.003906 99.871094 14.140625 99.207031 14.140625 L 95.632812 14.140625 L 98.132812 11.503906 C 99.480469 10.117188 100.046875 8.984375 100.046875 7.8125 C 100.046875 6.328125 98.835938 5.175781 97.292969 5.175781 C 96.472656 5.175781 95.691406 5.507812 95.144531 6.09375 C 94.65625 6.601562 94.441406 7.089844 94.1875 8.144531 L 94.5 8.222656 C 95.085938 6.757812 95.632812 6.269531 96.667969 6.269531 C 97.917969 6.269531 98.777344 7.128906 98.777344 8.378906 C 98.777344 9.550781 98.074219 10.9375 96.824219 12.265625 L 94.167969 15.097656 L 94.167969 15.273438 L 99.988281 15.273438 Z M 100.808594 13.222656 "/>
<path style=" stroke:none;fill-rule:nonzero;fill:rgb(0%,0%,0%);fill-opacity:1;" d="M 107.890625 5.390625 L 102.363281 5.390625 L 101.484375 7.578125 L 101.738281 7.695312 C 102.382812 6.679688 102.65625 6.484375 103.476562 6.484375 L 106.71875 6.484375 L 103.769531 15.390625 L 104.726562 15.390625 L 107.890625 5.625 Z M 107.890625 5.390625 "/>
<path style=" stroke:none;fill-rule:nonzero;fill:rgb(0%,0%,0%);fill-opacity:1;" d="M 115.363281 5.390625 L 109.835938 5.390625 L 108.957031 7.578125 L 109.210938 7.695312 C 109.855469 6.679688 110.128906 6.484375 110.949219 6.484375 L 114.191406 6.484375 L 111.242188 15.390625 L 112.199219 15.390625 L 115.363281 5.625 Z M 115.363281 5.390625 "/>
<path style=" stroke:none;fill-rule:nonzero;fill:rgb(0%,0%,0%);fill-opacity:1;" d="M 119.925781 5.175781 C 119.105469 5.175781 118.480469 5.429688 117.933594 5.957031 C 117.054688 6.777344 116.488281 8.496094 116.488281 10.253906 C 116.488281 11.875 116.996094 13.632812 117.699219 14.472656 C 118.246094 15.117188 119.007812 15.488281 119.867188 15.488281 C 120.628906 15.488281 121.273438 15.234375 121.820312 14.707031 C 122.679688 13.886719 123.246094 12.148438 123.246094 10.351562 C 123.246094 7.285156 121.898438 5.175781 119.925781 5.175781 Z M 119.886719 5.566406 C 121.136719 5.566406 121.820312 7.246094 121.820312 10.371094 C 121.820312 13.496094 121.15625 15.097656 119.867188 15.097656 C 118.578125 15.097656 117.933594 13.496094 117.933594 10.390625 C 117.933594 7.226562 118.597656 5.566406 119.886719 5.566406 Z M 119.886719 5.566406 "/>
<path style=" stroke:none;fill-rule:nonzero;fill:rgb(0%,0%,0%);fill-opacity:1;" d="M 127.929688 11.425781 L 127.929688 12.382812 L 131.601562 12.382812 L 131.601562 11.425781 Z M 127.929688 11.425781 "/>
<path style=" stroke:none;fill-rule:nonzero;fill:rgb(0%,0%,0%);fill-opacity:1;" d="M 139.410156 13.222656 L 139.214844 13.144531 C 138.667969 14.003906 138.472656 14.140625 137.808594 14.140625 L 134.234375 14.140625 L 136.734375 11.503906 C 138.082031 10.117188 138.648438 8.984375 138.648438 7.8125 C 138.648438 6.328125 137.4375 5.175781 135.894531 5.175781 C 135.074219 5.175781 134.292969 5.507812 133.746094 6.09375 C 133.257812 6.601562 133.042969 7.089844 132.789062 8.144531 L 133.101562 8.222656 C 133.6875 6.757812 134.234375 6.269531 135.269531 6.269531 C 136.519531 6.269531 137.378906 7.128906 137.378906 8.378906 C 137.378906 9.550781 136.675781 10.9375 135.425781 12.265625 L 132.769531 15.097656 L 132.769531 15.273438 L 138.589844 15.273438 Z M 139.410156 13.222656 "/>
<path style=" stroke:none;fill-rule:nonzero;fill:rgb(0%,0%,0%);fill-opacity:1;" d="M 141.667969 13.789062 C 141.21875 13.789062 140.847656 14.160156 140.847656 14.628906 C 140.847656 15.058594 141.21875 15.429688 141.648438 15.429688 C 142.117188 15.429688 142.488281 15.058594 142.488281 14.628906 C 142.488281 14.160156 142.117188 13.789062 141.667969 13.789062 Z M 141.667969 13.789062 "/>
<path style=" stroke:none;fill-rule:nonzero;fill:rgb(0%,0%,0%);fill-opacity:1;" d="M 147.863281 9.726562 C 149.347656 8.945312 149.855469 8.320312 149.855469 7.285156 C 149.855469 6.074219 148.78125 5.175781 147.296875 5.175781 C 145.65625 5.175781 144.445312 6.171875 144.445312 7.539062 C 144.445312 8.496094 144.738281 8.945312 146.300781 10.3125 C 144.699219 11.542969 144.367188 11.992188 144.367188 13.007812 C 144.367188 14.472656 145.539062 15.488281 147.238281 15.488281 C 149.035156 15.488281 150.167969 14.492188 150.167969 12.949219 C 150.167969 11.816406 149.660156 11.074219 147.863281 9.726562 Z M 147.589844 11.269531 C 148.683594 12.050781 149.035156 12.578125 149.035156 13.417969 C 149.035156 14.394531 148.371094 15.058594 147.394531 15.058594 C 146.261719 15.058594 145.5 14.199219 145.5 12.890625 C 145.5 11.933594 145.832031 11.308594 146.691406 10.605469 Z M 147.433594 9.453125 C 146.105469 8.59375 145.558594 7.910156 145.558594 7.070312 C 145.558594 6.210938 146.222656 5.585938 147.179688 5.585938 C 148.195312 5.585938 148.839844 6.25 148.839844 7.285156 C 148.839844 8.125 148.410156 8.808594 147.570312 9.375 C 147.492188 9.414062 147.492188 9.414062 147.433594 9.453125 Z M 147.433594 9.453125 "/>
<path style=" stroke:none;fill-rule:nonzero;fill:rgb(0%,0%,0%);fill-opacity:1;" d="M 156.609375 13.789062 C 156.160156 13.789062 155.789062 14.160156 155.789062 14.628906 C 155.789062 15.058594 156.160156 15.429688 156.589844 15.429688 C 157.058594 15.429688 157.429688 15.058594 157.429688 14.628906 C 157.429688 14.160156 157.058594 13.789062 156.609375 13.789062 Z M 156.609375 13.789062 "/>
<path style=" stroke:none;fill-rule:nonzero;fill:rgb(0%,0%,0%);fill-opacity:1;" d="M 160.757812 10.351562 C 161.636719 10.351562 161.988281 10.371094 162.339844 10.507812 C 163.277344 10.839844 163.84375 11.679688 163.84375 12.714844 C 163.84375 13.964844 163.003906 14.941406 161.890625 14.941406 C 161.5 14.941406 161.1875 14.84375 160.640625 14.472656 C 160.191406 14.21875 159.9375 14.101562 159.683594 14.101562 C 159.332031 14.101562 159.117188 14.316406 159.117188 14.628906 C 159.117188 15.15625 159.761719 15.488281 160.796875 15.488281 C 161.949219 15.488281 163.140625 15.097656 163.84375 14.472656 C 164.546875 13.867188 164.917969 13.007812 164.917969 11.992188 C 164.917969 11.230469 164.683594 10.527344 164.253906 10.078125 C 163.960938 9.746094 163.667969 9.570312 163.023438 9.277344 C 164.039062 8.574219 164.410156 8.027344 164.410156 7.226562 C 164.410156 6.015625 163.472656 5.175781 162.085938 5.175781 C 161.34375 5.175781 160.679688 5.429688 160.152344 5.898438 C 159.703125 6.308594 159.46875 6.699219 159.136719 7.597656 L 159.371094 7.65625 C 159.976562 6.5625 160.660156 6.074219 161.597656 6.074219 C 162.574219 6.074219 163.238281 6.71875 163.238281 7.675781 C 163.238281 8.203125 163.023438 8.75 162.632812 9.121094 C 162.183594 9.570312 161.773438 9.785156 160.757812 10.15625 Z M 160.757812 10.351562 "/>
<path style=" stroke:none;fill-rule:nonzero;fill:rgb(0%,0%,0%);fill-opacity:1;" d="M 169.734375 5.175781 C 168.914062 5.175781 168.289062 5.429688 167.742188 5.957031 C 166.863281 6.777344 166.296875 8.496094 166.296875 10.253906 C 166.296875 11.875 166.804688 13.632812 167.507812 14.472656 C 168.054688 15.117188 168.816406 15.488281 169.675781 15.488281 C 170.4375 15.488281 171.082031 15.234375 171.628906 14.707031 C 172.488281 13.886719 173.054688 12.148438 173.054688 10.351562 C 173.054688 7.285156 171.707031 5.175781 169.734375 5.175781 Z M 169.695312 5.566406 C 170.945312 5.566406 171.628906 7.246094 171.628906 10.371094 C 171.628906 13.496094 170.964844 15.097656 169.675781 15.097656 C 168.386719 15.097656 167.742188 13.496094 167.742188 10.390625 C 167.742188 7.226562 168.40625 5.566406 169.695312 5.566406 Z M 169.695312 5.566406 "/>
<path style=" stroke:none;fill-rule:nonzero;fill:rgb(0%,0%,0%);fill-opacity:1;" d="M 177.75 9.726562 C 179.234375 8.945312 179.742188 8.320312 179.742188 7.285156 C 179.742188 6.074219 178.667969 5.175781 177.183594 5.175781 C 175.542969 5.175781 174.332031 6.171875 174.332031 7.539062 C 174.332031 8.496094 174.625 8.945312 176.1875 10.3125 C 174.585938 11.542969 174.253906 11.992188 174.253906 13.007812 C 174.253906 14.472656 175.425781 15.488281 177.125 15.488281 C 178.921875 15.488281 180.054688 14.492188 180.054688 12.949219 C 180.054688 11.816406 179.546875 11.074219 177.75 9.726562 Z M 177.476562 11.269531 C 178.570312 12.050781 178.921875 12.578125 178.921875 13.417969 C 178.921875 14.394531 178.257812 15.058594 177.28125 15.058594 C 176.148438 15.058594 175.386719 14.199219 175.386719 12.890625 C 175.386719 11.933594 175.71875 11.308594 176.578125 10.605469 Z M 177.320312 9.453125 C 175.992188 8.59375 175.445312 7.910156 175.445312 7.070312 C 175.445312 6.210938 176.109375 5.585938 177.066406 5.585938 C 178.082031 5.585938 178.726562 6.25 178.726562 7.285156 C 178.726562 8.125 178.296875 8.808594 177.457031 9.375 C 177.378906 9.414062 177.378906 9.414062 177.320312 9.453125 Z M 177.320312 9.453125 "/>
<path style=" stroke:none;fill-rule:nonzero;fill:rgb(0%,0%,0%);fill-opacity:1;" d="M 187.546875 5.058594 C 185.847656 5.195312 184.988281 5.488281 183.894531 6.25 C 182.273438 7.402344 181.394531 9.101562 181.394531 11.113281 C 181.394531 12.402344 181.804688 13.710938 182.449219 14.472656 C 183.015625 15.117188 183.816406 15.488281 184.734375 15.488281 C 186.589844 15.488281 187.878906 14.0625 187.878906 11.992188 C 187.878906 10.097656 186.785156 8.886719 185.066406 8.886719 C 184.421875 8.886719 184.089844 8.984375 183.152344 9.550781 C 183.5625 7.285156 185.242188 5.683594 187.585938 5.292969 Z M 184.5 9.570312 C 185.789062 9.570312 186.53125 10.644531 186.53125 12.5 C 186.53125 14.160156 185.945312 15.058594 184.910156 15.058594 C 183.582031 15.058594 182.78125 13.652344 182.78125 11.347656 C 182.78125 10.585938 182.898438 10.15625 183.210938 9.941406 C 183.523438 9.707031 183.972656 9.570312 184.5 9.570312 Z M 184.5 9.570312 "/>
<path style=" stroke:none;fill-rule:nonzero;fill:rgb(0%,0%,0%);fill-opacity:1;" d="M 192.683594 11.425781 L 192.683594 12.382812 L 196.355469 12.382812 L 196.355469 11.425781 Z M 192.683594 11.425781 "/>
<path style=" stroke:none;fill-rule:nonzero;fill:rgb(0%,0%,0%);fill-opacity:1;" d="M 204.160156 13.222656 L 203.964844 13.144531 C 203.417969 14.003906 203.222656 14.140625 202.558594 14.140625 L 198.984375 14.140625 L 201.484375 11.503906 C 202.832031 10.117188 203.398438 8.984375 203.398438 7.8125 C 203.398438 6.328125 202.1875 5.175781 200.644531 5.175781 C 199.824219 5.175781 199.042969 5.507812 198.496094 6.09375 C 198.007812 6.601562 197.792969 7.089844 197.539062 8.144531 L 197.851562 8.222656 C 198.4375 6.757812 198.984375 6.269531 200.019531 6.269531 C 201.269531 6.269531 202.128906 7.128906 202.128906 8.378906 C 202.128906 9.550781 201.425781 10.9375 200.175781 12.265625 L 197.519531 15.097656 L 197.519531 15.273438 L 203.339844 15.273438 Z M 204.160156 13.222656 "/>
<path style=" stroke:none;fill-rule:nonzero;fill:rgb(0%,0%,0%);fill-opacity:1;" d="M 206.417969 13.789062 C 205.96875 13.789062 205.597656 14.160156 205.597656 14.628906 C 205.597656 15.058594 205.96875 15.429688 206.398438 15.429688 C 206.867188 15.429688 207.238281 15.058594 207.238281 14.628906 C 207.238281 14.160156 206.867188 13.789062 206.417969 13.789062 Z M 206.417969 13.789062 "/>
<path style=" stroke:none;fill-rule:nonzero;fill:rgb(0%,0%,0%);fill-opacity:1;" d="M 214.980469 5.390625 L 209.453125 5.390625 L 208.574219 7.578125 L 208.828125 7.695312 C 209.472656 6.679688 209.746094 6.484375 210.566406 6.484375 L 213.808594 6.484375 L 210.859375 15.390625 L 211.816406 15.390625 L 214.980469 5.625 Z M 214.980469 5.390625 "/>
<path style=" stroke:none;fill-rule:nonzero;fill:rgb(0%,0%,0%);fill-opacity:1;" d="M 221.363281 13.789062 C 220.914062 13.789062 220.542969 14.160156 220.542969 14.628906 C 220.542969 15.058594 220.914062 15.429688 221.34375 15.429688 C 221.8125 15.429688 222.183594 15.058594 222.183594 14.628906 C 222.183594 14.160156 221.8125 13.789062 221.363281 13.789062 Z M 221.363281 13.789062 "/>
<path style=" stroke:none;fill-rule:nonzero;fill:rgb(0%,0%,0%);fill-opacity:1;" d="M 225.507812 10.351562 C 226.386719 10.351562 226.738281 10.371094 227.089844 10.507812 C 228.027344 10.839844 228.59375 11.679688 228.59375 12.714844 C 228.59375 13.964844 227.753906 14.941406 226.640625 14.941406 C 226.25 14.941406 225.9375 14.84375 225.390625 14.472656 C 224.941406 14.21875 224.6875 14.101562 224.433594 14.101562 C 224.082031 14.101562 223.867188 14.316406 223.867188 14.628906 C 223.867188 15.15625 224.511719 15.488281 225.546875 15.488281 C 226.699219 15.488281 227.890625 15.097656 228.59375 14.472656 C 229.296875 13.867188 229.667969 13.007812 229.667969 11.992188 C 229.667969 11.230469 229.433594 10.527344 229.003906 10.078125 C 228.710938 9.746094 228.417969 9.570312 227.773438 9.277344 C 228.789062 8.574219 229.160156 8.027344 229.160156 7.226562 C 229.160156 6.015625 228.222656 5.175781 226.835938 5.175781 C 226.09375 5.175781 225.429688 5.429688 224.902344 5.898438 C 224.453125 6.308594 224.21875 6.699219 223.886719 7.597656 L 224.121094 7.65625 C 224.726562 6.5625 225.410156 6.074219 226.347656 6.074219 C 227.324219 6.074219 227.988281 6.71875 227.988281 7.675781 C 227.988281 8.203125 227.773438 8.75 227.382812 9.121094 C 226.933594 9.570312 226.523438 9.785156 225.507812 10.15625 Z M 225.507812 10.351562 "/>
<path style=" stroke:none;fill-rule:nonzero;fill:rgb(0%,0%,0%);fill-opacity:1;" d="M 237.746094 11.816406 L 236.222656 11.816406 L 236.222656 5.175781 L 235.558594 5.175781 L 230.871094 11.816406 L 230.871094 12.773438 L 235.070312 12.773438 L 235.070312 15.273438 L 236.222656 15.273438 L 236.222656 12.773438 L 237.746094 12.773438 Z M 235.050781 11.816406 L 231.476562 11.816406 L 235.050781 6.699219 Z M 235.050781 11.816406 "/>
<path style=" stroke:none;fill-rule:nonzero;fill:rgb(0%,0%,0%);fill-opacity:1;" d="M 244.828125 5.058594 C 243.128906 5.195312 242.269531 5.488281 241.175781 6.25 C 239.554688 7.402344 238.675781 9.101562 238.675781 11.113281 C 238.675781 12.402344 239.085938 13.710938 239.730469 14.472656 C 240.296875 15.117188 241.097656 15.488281 242.015625 15.488281 C 243.871094 15.488281 245.160156 14.0625 245.160156 11.992188 C 245.160156 10.097656 244.066406 8.886719 242.347656 8.886719 C 241.703125 8.886719 241.371094 8.984375 240.433594 9.550781 C 240.84375 7.285156 242.523438 5.683594 244.867188 5.292969 Z M 241.78125 9.570312 C 243.070312 9.570312 243.8125 10.644531 243.8125 12.5 C 243.8125 14.160156 243.226562 15.058594 242.191406 15.058594 C 240.863281 15.058594 240.0625 13.652344 240.0625 11.347656 C 240.0625 10.585938 240.179688 10.15625 240.492188 9.941406 C 240.804688 9.707031 241.253906 9.570312 241.78125 9.570312 Z M 241.78125 9.570312 "/>
<path style=" stroke:none;fill-rule:nonzero;fill:rgb(0%,0%,0%);fill-opacity:1;" d="M 249.429688 5.175781 C 248.609375 5.175781 247.984375 5.429688 247.4375 5.957031 C 246.558594 6.777344 245.992188 8.496094 245.992188 10.253906 C 245.992188 11.875 246.5 13.632812 247.203125 14.472656 C 247.75 15.117188 248.511719 15.488281 249.371094 15.488281 C 250.132812 15.488281 250.777344 15.234375 251.324219 14.707031 C 252.183594 13.886719 252.75 12.148438 252.75 10.351562 C 252.75 7.285156 251.402344 5.175781 249.429688 5.175781 Z M 249.390625 5.566406 C 250.640625 5.566406 251.324219 7.246094 251.324219 10.371094 C 251.324219 13.496094 250.660156 15.097656 249.371094 15.097656 C 248.082031 15.097656 247.4375 13.496094 247.4375 10.390625 C 247.4375 7.226562 248.101562 5.566406 249.390625 5.566406 Z M 249.390625 5.566406 "/>
<path style=" stroke:none;fill-rule:nonzero;fill:rgb(0%,0%,0%);fill-opacity:1;" d="M 257.433594 11.425781 L 257.433594 12.382812 L 261.105469 12.382812 L 261.105469 11.425781 Z M 257.433594 11.425781 "/>
<path style=" stroke:none;fill-rule:nonzero;fill:rgb(0%,0%,0%);fill-opacity:1;" d="M 268.914062 13.222656 L 268.71875 13.144531 C 268.171875 14.003906 267.976562 14.140625 267.3125 14.140625 L 263.738281 14.140625 L 266.238281 11.503906 C 267.585938 10.117188 268.152344 8.984375 268.152344 7.8125 C 268.152344 6.328125 266.941406 5.175781 265.398438 5.175781 C 264.578125 5.175781 263.796875 5.507812 263.25 6.09375 C 262.761719 6.601562 262.546875 7.089844 262.292969 8.144531 L 262.605469 8.222656 C 263.191406 6.757812 263.738281 6.269531 264.773438 6.269531 C 266.023438 6.269531 266.882812 7.128906 266.882812 8.378906 C 266.882812 9.550781 266.179688 10.9375 264.929688 12.265625 L 262.273438 15.097656 L 262.273438 15.273438 L 268.09375 15.273438 Z M 268.914062 13.222656 "/>
<path style=" stroke:none;fill-rule:nonzero;fill:rgb(0%,0%,0%);fill-opacity:1;" d="M 271.171875 13.789062 C 270.722656 13.789062 270.351562 14.160156 270.351562 14.628906 C 270.351562 15.058594 270.722656 15.429688 271.152344 15.429688 C 271.621094 15.429688 271.992188 15.058594 271.992188 14.628906 C 271.992188 14.160156 271.621094 13.789062 271.171875 13.789062 Z M 271.171875 13.789062 "/>
<path style=" stroke:none;fill-rule:nonzero;fill:rgb(0%,0%,0%);fill-opacity:1;" d="M 279.691406 5.058594 C 277.992188 5.195312 277.132812 5.488281 276.039062 6.25 C 274.417969 7.402344 273.539062 9.101562 273.539062 11.113281 C 273.539062 12.402344 273.949219 13.710938 274.59375 14.472656 C 275.160156 15.117188 275.960938 15.488281 276.878906 15.488281 C 278.734375 15.488281 280.023438 14.0625 280.023438 11.992188 C 280.023438 10.097656 278.929688 8.886719 277.210938 8.886719 C 276.566406 8.886719 276.234375 8.984375 275.296875 9.550781 C 275.707031 7.285156 277.386719 5.683594 279.730469 5.292969 Z M 276.644531 9.570312 C 277.933594 9.570312 278.675781 10.644531 278.675781 12.5 C 278.675781 14.160156 278.089844 15.058594 277.054688 15.058594 C 275.726562 15.058594 274.925781 13.652344 274.925781 11.347656 C 274.925781 10.585938 275.042969 10.15625 275.355469 9.941406 C 275.667969 9.707031 276.117188 9.570312 276.644531 9.570312 Z M 276.644531 9.570312 "/>
<path style=" stroke:none;fill-rule:nonzero;fill:rgb(0%,0%,0%);fill-opacity:1;" d="M 286.117188 13.789062 C 285.667969 13.789062 285.296875 14.160156 285.296875 14.628906 C 285.296875 15.058594 285.667969 15.429688 286.097656 15.429688 C 286.566406 15.429688 286.9375 15.058594 286.9375 14.628906 C 286.9375 14.160156 286.566406 13.789062 286.117188 13.789062 Z M 286.117188 13.789062 "/>
<path style=" stroke:none;fill-rule:nonzero;fill:rgb(0%,0%,0%);fill-opacity:1;" d="M 290.261719 10.351562 C 291.140625 10.351562 291.492188 10.371094 291.84375 10.507812 C 292.78125 10.839844 293.347656 11.679688 293.347656 12.714844 C 293.347656 13.964844 292.507812 14.941406 291.394531 14.941406 C 291.003906 14.941406 290.691406 14.84375 290.144531 14.472656 C 289.695312 14.21875 289.441406 14.101562 289.1875 14.101562 C 288.835938 14.101562 288.621094 14.316406 288.621094 14.628906 C 288.621094 15.15625 289.265625 15.488281 290.300781 15.488281 C 291.453125 15.488281 292.644531 15.097656 293.347656 14.472656 C 294.050781 13.867188 294.421875 13.007812 294.421875 11.992188 C 294.421875 11.230469 294.1875 10.527344 293.757812 10.078125 C 293.464844 9.746094 293.171875 9.570312 292.527344 9.277344 C 293.542969 8.574219 293.914062 8.027344 293.914062 7.226562 C 293.914062 6.015625 292.976562 5.175781 291.589844 5.175781 C 290.847656 5.175781 290.183594 5.429688 289.65625 5.898438 C 289.207031 6.308594 288.972656 6.699219 288.640625 7.597656 L 288.875 7.65625 C 289.480469 6.5625 290.164062 6.074219 291.101562 6.074219 C 292.078125 6.074219 292.742188 6.71875 292.742188 7.675781 C 292.742188 8.203125 292.527344 8.75 292.136719 9.121094 C 291.6875 9.570312 291.277344 9.785156 290.261719 10.15625 Z M 290.261719 10.351562 "/>
<path style=" stroke:none;fill-rule:nonzero;fill:rgb(0%,0%,0%);fill-opacity:1;" d="M 296.328125 15.605469 C 298.007812 15.410156 298.828125 15.117188 299.84375 14.394531 C 301.386719 13.261719 302.304688 11.40625 302.304688 9.394531 C 302.304688 6.914062 300.9375 5.175781 299.003906 5.175781 C 297.226562 5.175781 295.898438 6.679688 295.898438 8.691406 C 295.898438 10.527344 296.972656 11.738281 298.59375 11.738281 C 299.414062 11.738281 300.039062 11.484375 300.820312 10.878906 C 300.214844 13.320312 298.554688 14.921875 296.289062 15.3125 Z M 300.859375 9.960938 C 300.859375 10.273438 300.800781 10.410156 300.625 10.527344 C 300.214844 10.898438 299.667969 11.09375 299.121094 11.09375 C 297.988281 11.09375 297.265625 9.960938 297.265625 8.183594 C 297.265625 7.34375 297.519531 6.445312 297.832031 6.054688 C 298.085938 5.761719 298.457031 5.585938 298.886719 5.585938 C 300.195312 5.585938 300.859375 6.875 300.859375 9.394531 Z M 300.859375 9.960938 "/>
<path style=" stroke:none;fill-rule:nonzero;fill:rgb(0%,0%,0%);fill-opacity:1;" d="M 306.710938 5.175781 C 305.890625 5.175781 305.265625 5.429688 304.71875 5.957031 C 303.839844 6.777344 303.273438 8.496094 303.273438 10.253906 C 303.273438 11.875 303.78125 13.632812 304.484375 14.472656 C 305.03125 15.117188 305.792969 15.488281 306.652344 15.488281 C 307.414062 15.488281 308.058594 15.234375 308.605469 14.707031 C 309.464844 13.886719 310.03125 12.148438 310.03125 10.351562 C 310.03125 7.285156 308.683594 5.175781 306.710938 5.175781 Z M 306.671875 5.566406 C 307.921875 5.566406 308.605469 7.246094 308.605469 10.371094 C 308.605469 13.496094 307.941406 15.097656 306.652344 15.097656 C 305.363281 15.097656 304.71875 13.496094 304.71875 10.390625 C 304.71875 7.226562 305.382812 5.566406 306.671875 5.566406 Z M 306.671875 5.566406 "/>
<path style=" stroke:none;fill-rule:nonzero;fill:rgb(0%,0%,0%);fill-opacity:1;" d="M 317.050781 5.058594 C 315.351562 5.195312 314.492188 5.488281 313.398438 6.25 C 311.777344 7.402344 310.898438 9.101562 310.898438 11.113281 C 310.898438 12.402344 311.308594 13.710938 311.953125 14.472656 C 312.519531 15.117188 313.320312 15.488281 314.238281 15.488281 C 316.09375 15.488281 317.382812 14.0625 317.382812 11.992188 C 317.382812 10.097656 316.289062 8.886719 314.570312 8.886719 C 313.925781 8.886719 313.59375 8.984375 312.65625 9.550781 C 313.066406 7.285156 314.746094 5.683594 317.089844 5.292969 Z M 314.003906 9.570312 C 315.292969 9.570312 316.035156 10.644531 316.035156 12.5 C 316.035156 14.160156 315.449219 15.058594 314.414062 15.058594 C 313.085938 15.058594 312.285156 13.652344 312.285156 11.347656 C 312.285156 10.585938 312.402344 10.15625 312.714844 9.941406 C 313.027344 9.707031 313.476562 9.570312 314.003906 9.570312 Z M 314.003906 9.570312 "/>
<path style=" stroke:none;fill-rule:nonzero;fill:rgb(0%,0%,0%);fill-opacity:1;" d="M 322.1875 11.425781 L 322.1875 12.382812 L 325.859375 12.382812 L 325.859375 11.425781 Z M 322.1875 11.425781 "/>
<path style=" stroke:none;fill-rule:nonzero;fill:rgb(0%,0%,0%);fill-opacity:1;" d="M 333.667969 13.222656 L 333.472656 13.144531 C 332.925781 14.003906 332.730469 14.140625 332.066406 14.140625 L 328.492188 14.140625 L 330.992188 11.503906 C 332.339844 10.117188 332.90625 8.984375 332.90625 7.8125 C 332.90625 6.328125 331.695312 5.175781 330.152344 5.175781 C 329.332031 5.175781 328.550781 5.507812 328.003906 6.09375 C 327.515625 6.601562 327.300781 7.089844 327.046875 8.144531 L 327.359375 8.222656 C 327.945312 6.757812 328.492188 6.269531 329.527344 6.269531 C 330.777344 6.269531 331.636719 7.128906 331.636719 8.378906 C 331.636719 9.550781 330.933594 10.9375 329.683594 12.265625 L 327.027344 15.097656 L 327.027344 15.273438 L 332.847656 15.273438 Z M 333.667969 13.222656 "/>
<path style=" stroke:none;fill-rule:nonzero;fill:rgb(0%,0%,0%);fill-opacity:1;" d="M 335.921875 13.789062 C 335.472656 13.789062 335.101562 14.160156 335.101562 14.628906 C 335.101562 15.058594 335.472656 15.429688 335.902344 15.429688 C 336.371094 15.429688 336.742188 15.058594 336.742188 14.628906 C 336.742188 14.160156 336.371094 13.789062 335.921875 13.789062 Z M 335.921875 13.789062 "/>
<path style=" stroke:none;fill-rule:nonzero;fill:rgb(0%,0%,0%);fill-opacity:1;" d="M 340.480469 6.5625 L 343.410156 6.5625 C 343.664062 6.5625 343.722656 6.523438 343.761719 6.425781 L 344.328125 5.097656 L 344.191406 5 C 343.976562 5.3125 343.820312 5.390625 343.507812 5.390625 L 340.382812 5.390625 L 338.761719 8.925781 C 338.742188 8.945312 338.742188 8.964844 338.742188 9.003906 C 338.742188 9.082031 338.800781 9.121094 338.917969 9.121094 C 339.40625 9.121094 339.992188 9.21875 340.617188 9.414062 C 342.335938 9.960938 343.117188 10.898438 343.117188 12.382812 C 343.117188 13.808594 342.199219 14.921875 341.046875 14.921875 C 340.734375 14.921875 340.480469 14.824219 340.050781 14.492188 C 339.5625 14.160156 339.210938 14.003906 338.898438 14.003906 C 338.46875 14.003906 338.253906 14.179688 338.253906 14.550781 C 338.253906 15.117188 338.957031 15.488281 340.089844 15.488281 C 341.339844 15.488281 342.414062 15.078125 343.15625 14.316406 C 343.859375 13.652344 344.171875 12.792969 344.171875 11.660156 C 344.171875 10.585938 343.878906 9.902344 343.136719 9.140625 C 342.472656 8.496094 341.632812 8.144531 339.855469 7.832031 Z M 340.480469 6.5625 "/>
<path style=" stroke:none;fill-rule:nonzero;fill:rgb(0%,0%,0%);fill-opacity:1;" d="M 350.867188 13.789062 C 350.417969 13.789062 350.046875 14.160156 350.046875 14.628906 C 350.046875 15.058594 350.417969 15.429688 350.847656 15.429688 C 351.316406 15.429688 351.6875 15.058594 351.6875 14.628906 C 351.6875 14.160156 351.316406 13.789062 350.867188 13.789062 Z M 350.867188 13.789062 "/>
<path style=" stroke:none;fill-rule:nonzero;fill:rgb(0%,0%,0%);fill-opacity:1;" d="M 359.78125 11.816406 L 358.257812 11.816406 L 358.257812 5.175781 L 357.59375 5.175781 L 352.90625 11.816406 L 352.90625 12.773438 L 357.105469 12.773438 L 357.105469 15.273438 L 358.257812 15.273438 L 358.257812 12.773438 L 359.78125 12.773438 Z M 357.085938 11.816406 L 353.511719 11.816406 L 357.085938 6.699219 Z M 357.085938 11.816406 "/>
<path style=" stroke:none;fill-rule:nonzero;fill:rgb(0%,0%,0%);fill-opacity:1;" d="M 367.25 11.816406 L 365.726562 11.816406 L 365.726562 5.175781 L 365.0625 5.175781 L 360.375 11.816406 L 360.375 12.773438 L 364.574219 12.773438 L 364.574219 15.273438 L 365.726562 15.273438 L 365.726562 12.773438 L 367.25 12.773438 Z M 364.554688 11.816406 L 360.980469 11.816406 L 364.554688 6.699219 Z M 364.554688 11.816406 "/>
<path style=" stroke:none;fill-rule:nonzero;fill:rgb(0%,0%,0%);fill-opacity:1;" d="M 374.722656 11.816406 L 373.199219 11.816406 L 373.199219 5.175781 L 372.535156 5.175781 L 367.847656 11.816406 L 367.847656 12.773438 L 372.046875 12.773438 L 372.046875 15.273438 L 373.199219 15.273438 L 373.199219 12.773438 L 374.722656 12.773438 Z M 372.027344 11.816406 L 368.453125 11.816406 L 372.027344 6.699219 Z M 372.027344 11.816406 "/>
<path style=" stroke:none;fill-rule:nonzero;fill:rgb(0%,0%,0%);fill-opacity:1;" d="M 382.195312 11.816406 L 380.671875 11.816406 L 380.671875 5.175781 L 380.007812 5.175781 L 375.320312 11.816406 L 375.320312 12.773438 L 379.519531 12.773438 L 379.519531 15.273438 L 380.671875 15.273438 L 380.671875 12.773438 L 382.195312 12.773438 Z M 379.5 11.816406 L 375.925781 11.816406 L 379.5 6.699219 Z M 379.5 11.816406 "/>
<path style=" stroke:none;fill-rule:nonzero;fill:rgb(0%,0%,0%);fill-opacity:1;" d="M 386.9375 11.425781 L 386.9375 12.382812 L 390.609375 12.382812 L 390.609375 11.425781 Z M 386.9375 11.425781 "/>
<path style=" stroke:none;fill-rule:nonzero;fill:rgb(0%,0%,0%);fill-opacity:1;" d="M 398.417969 13.222656 L 398.222656 13.144531 C 397.675781 14.003906 397.480469 14.140625 396.816406 14.140625 L 393.242188 14.140625 L 395.742188 11.503906 C 397.089844 10.117188 397.65625 8.984375 397.65625 7.8125 C 397.65625 6.328125 396.445312 5.175781 394.902344 5.175781 C 394.082031 5.175781 393.300781 5.507812 392.753906 6.09375 C 392.265625 6.601562 392.050781 7.089844 391.796875 8.144531 L 392.109375 8.222656 C 392.695312 6.757812 393.242188 6.269531 394.277344 6.269531 C 395.527344 6.269531 396.386719 7.128906 396.386719 8.378906 C 396.386719 9.550781 395.683594 10.9375 394.433594 12.265625 L 391.777344 15.097656 L 391.777344 15.273438 L 397.597656 15.273438 Z M 398.417969 13.222656 "/>
<path style=" stroke:none;fill-rule:nonzero;fill:rgb(0%,0%,0%);fill-opacity:1;" d="M 400.675781 13.789062 C 400.226562 13.789062 399.855469 14.160156 399.855469 14.628906 C 399.855469 15.058594 400.226562 15.429688 400.65625 15.429688 C 401.125 15.429688 401.496094 15.058594 401.496094 14.628906 C 401.496094 14.160156 401.125 13.789062 400.675781 13.789062 Z M 400.675781 13.789062 "/>
<path style=" stroke:none;fill-rule:nonzero;fill:rgb(0%,0%,0%);fill-opacity:1;" d="M 409.589844 11.816406 L 408.066406 11.816406 L 408.066406 5.175781 L 407.402344 5.175781 L 402.714844 11.816406 L 402.714844 12.773438 L 406.914062 12.773438 L 406.914062 15.273438 L 408.066406 15.273438 L 408.066406 12.773438 L 409.589844 12.773438 Z M 406.894531 11.816406 L 403.320312 11.816406 L 406.894531 6.699219 Z M 406.894531 11.816406 "/>
<path style=" stroke:none;fill-rule:nonzero;fill:rgb(0%,0%,0%);fill-opacity:1;" d="M 415.621094 13.789062 C 415.171875 13.789062 414.800781 14.160156 414.800781 14.628906 C 414.800781 15.058594 415.171875 15.429688 415.601562 15.429688 C 416.070312 15.429688 416.441406 15.058594 416.441406 14.628906 C 416.441406 14.160156 416.070312 13.789062 415.621094 13.789062 Z M 415.621094 13.789062 "/>
<path style=" stroke:none;fill-rule:nonzero;fill:rgb(0%,0%,0%);fill-opacity:1;" d="M 420.175781 6.5625 L 423.105469 6.5625 C 423.359375 6.5625 423.417969 6.523438 423.457031 6.425781 L 424.023438 5.097656 L 423.886719 5 C 423.671875 5.3125 423.515625 5.390625 423.203125 5.390625 L 420.078125 5.390625 L 418.457031 8.925781 C 418.4375 8.945312 418.4375 8.964844 418.4375 9.003906 C 418.4375 9.082031 418.496094 9.121094 418.613281 9.121094 C 419.101562 9.121094 419.6875 9.21875 420.3125 9.414062 C 422.03125 9.960938 422.8125 10.898438 422.8125 12.382812 C 422.8125 13.808594 421.894531 14.921875 420.742188 14.921875 C 420.429688 14.921875 420.175781 14.824219 419.746094 14.492188 C 419.257812 14.160156 418.90625 14.003906 418.59375 14.003906 C 418.164062 14.003906 417.949219 14.179688 417.949219 14.550781 C 417.949219 15.117188 418.652344 15.488281 419.785156 15.488281 C 421.035156 15.488281 422.109375 15.078125 422.851562 14.316406 C 423.554688 13.652344 423.867188 12.792969 423.867188 11.660156 C 423.867188 10.585938 423.574219 9.902344 422.832031 9.140625 C 422.167969 8.496094 421.328125 8.144531 419.550781 7.832031 Z M 420.175781 6.5625 "/>
<path style=" stroke:none;fill-rule:nonzero;fill:rgb(0%,0%,0%);fill-opacity:1;" d="M 429.308594 5.175781 L 426.613281 6.523438 L 426.613281 6.738281 C 426.789062 6.660156 426.964844 6.601562 427.023438 6.582031 C 427.277344 6.464844 427.53125 6.40625 427.6875 6.40625 C 428 6.40625 428.136719 6.640625 428.136719 7.109375 L 428.136719 13.886719 C 428.136719 14.375 428.019531 14.726562 427.785156 14.863281 C 427.550781 14.980469 427.335938 15.039062 426.710938 15.058594 L 426.710938 15.273438 L 430.832031 15.273438 L 430.832031 15.058594 C 429.660156 15.039062 429.425781 14.882812 429.425781 14.160156 L 429.425781 5.195312 Z M 429.308594 5.175781 "/>
<path style=" stroke:none;fill-rule:nonzero;fill:rgb(0%,0%,0%);fill-opacity:1;" d="M 436.214844 5.175781 C 435.394531 5.175781 434.769531 5.429688 434.222656 5.957031 C 433.34375 6.777344 432.777344 8.496094 432.777344 10.253906 C 432.777344 11.875 433.285156 13.632812 433.988281 14.472656 C 434.535156 15.117188 435.296875 15.488281 436.15625 15.488281 C 436.917969 15.488281 437.5625 15.234375 438.109375 14.707031 C 438.96875 13.886719 439.535156 12.148438 439.535156 10.351562 C 439.535156 7.285156 438.1875 5.175781 436.214844 5.175781 Z M 436.175781 5.566406 C 437.425781 5.566406 438.109375 7.246094 438.109375 10.371094 C 438.109375 13.496094 437.445312 15.097656 436.15625 15.097656 C 434.867188 15.097656 434.222656 13.496094 434.222656 10.390625 C 434.222656 7.226562 434.886719 5.566406 436.175781 5.566406 Z M 436.175781 5.566406 "/>
<path style=" stroke:none;fill-rule:nonzero;fill:rgb(0%,0%,0%);fill-opacity:1;" d="M 446.988281 13.222656 L 446.792969 13.144531 C 446.246094 14.003906 446.050781 14.140625 445.386719 14.140625 L 441.8125 14.140625 L 444.3125 11.503906 C 445.660156 10.117188 446.226562 8.984375 446.226562 7.8125 C 446.226562 6.328125 445.015625 5.175781 443.472656 5.175781 C 442.652344 5.175781 441.871094 5.507812 441.324219 6.09375 C 440.835938 6.601562 440.621094 7.089844 440.367188 8.144531 L 440.679688 8.222656 C 441.265625 6.757812 441.8125 6.269531 442.847656 6.269531 C 444.097656 6.269531 444.957031 7.128906 444.957031 8.378906 C 444.957031 9.550781 444.253906 10.9375 443.003906 12.265625 L 440.347656 15.097656 L 440.347656 15.273438 L 446.167969 15.273438 Z M 446.988281 13.222656 "/>
<path style=" stroke:none;fill-rule:nonzero;fill:rgb(0%,0%,0%);fill-opacity:1;" d="M 451.691406 11.425781 L 451.691406 12.382812 L 455.363281 12.382812 L 455.363281 11.425781 Z M 451.691406 11.425781 "/>
<path style=" stroke:none;fill-rule:nonzero;fill:rgb(0%,0%,0%);fill-opacity:1;" d="M 463.171875 13.222656 L 462.976562 13.144531 C 462.429688 14.003906 462.234375 14.140625 461.570312 14.140625 L 457.996094 14.140625 L 460.496094 11.503906 C 461.84375 10.117188 462.410156 8.984375 462.410156 7.8125 C 462.410156 6.328125 461.199219 5.175781 459.65625 5.175781 C 458.835938 5.175781 458.054688 5.507812 457.507812 6.09375 C 457.019531 6.601562 456.804688 7.089844 456.550781 8.144531 L 456.863281 8.222656 C 457.449219 6.757812 457.996094 6.269531 459.03125 6.269531 C 460.28125 6.269531 461.140625 7.128906 461.140625 8.378906 C 461.140625 9.550781 460.4375 10.9375 459.1875 12.265625 L 456.53125 15.097656 L 456.53125 15.273438 L 462.351562 15.273438 Z M 463.171875 13.222656 "/>
<path style=" stroke:none;fill-rule:nonzero;fill:rgb(0%,0%,0%);fill-opacity:1;" d="M 465.429688 13.789062 C 464.980469 13.789062 464.609375 14.160156 464.609375 14.628906 C 464.609375 15.058594 464.980469 15.429688 465.410156 15.429688 C 465.878906 15.429688 466.25 15.058594 466.25 14.628906 C 466.25 14.160156 465.878906 13.789062 465.429688 13.789062 Z M 465.429688 13.789062 "/>
<path style=" stroke:none;fill-rule:nonzero;fill:rgb(0%,0%,0%);fill-opacity:1;" d="M 469.574219 10.351562 C 470.453125 10.351562 470.804688 10.371094 471.15625 10.507812 C 472.09375 10.839844 472.660156 11.679688 472.660156 12.714844 C 472.660156 13.964844 471.820312 14.941406 470.707031 14.941406 C 470.316406 14.941406 470.003906 14.84375 469.457031 14.472656 C 469.007812 14.21875 468.753906 14.101562 468.5 14.101562 C 468.148438 14.101562 467.933594 14.316406 467.933594 14.628906 C 467.933594 15.15625 468.578125 15.488281 469.613281 15.488281 C 470.765625 15.488281 471.957031 15.097656 472.660156 14.472656 C 473.363281 13.867188 473.734375 13.007812 473.734375 11.992188 C 473.734375 11.230469 473.5 10.527344 473.070312 10.078125 C 472.777344 9.746094 472.484375 9.570312 471.839844 9.277344 C 472.855469 8.574219 473.226562 8.027344 473.226562 7.226562 C 473.226562 6.015625 472.289062 5.175781 470.902344 5.175781 C 470.160156 5.175781 469.496094 5.429688 468.96875 5.898438 C 468.519531 6.308594 468.285156 6.699219 467.953125 7.597656 L 468.1875 7.65625 C 468.792969 6.5625 469.476562 6.074219 470.414062 6.074219 C 471.390625 6.074219 472.054688 6.71875 472.054688 7.675781 C 472.054688 8.203125 471.839844 8.75 471.449219 9.121094 C 471 9.570312 470.589844 9.785156 469.574219 10.15625 Z M 469.574219 10.351562 "/>
<path style=" stroke:none;fill-rule:nonzero;fill:rgb(0%,0%,0%);fill-opacity:1;" d="M 480.371094 13.789062 C 479.921875 13.789062 479.550781 14.160156 479.550781 14.628906 C 479.550781 15.058594 479.921875 15.429688 480.351562 15.429688 C 480.820312 15.429688 481.191406 15.058594 481.191406 14.628906 C 481.191406 14.160156 480.820312 13.789062 480.371094 13.789062 Z M 480.371094 13.789062 "/>
<path style=" stroke:none;fill-rule:nonzero;fill:rgb(0%,0%,0%);fill-opacity:1;" d="M 484.929688 6.5625 L 487.859375 6.5625 C 488.113281 6.5625 488.171875 6.523438 488.210938 6.425781 L 488.777344 5.097656 L 488.640625 5 C 488.425781 5.3125 488.269531 5.390625 487.957031 5.390625 L 484.832031 5.390625 L 483.210938 8.925781 C 483.191406 8.945312 483.191406 8.964844 483.191406 9.003906 C 483.191406 9.082031 483.25 9.121094 483.367188 9.121094 C 483.855469 9.121094 484.441406 9.21875 485.066406 9.414062 C 486.785156 9.960938 487.566406 10.898438 487.566406 12.382812 C 487.566406 13.808594 486.648438 14.921875 485.496094 14.921875 C 485.183594 14.921875 484.929688 14.824219 484.5 14.492188 C 484.011719 14.160156 483.660156 14.003906 483.347656 14.003906 C 482.917969 14.003906 482.703125 14.179688 482.703125 14.550781 C 482.703125 15.117188 483.40625 15.488281 484.539062 15.488281 C 485.789062 15.488281 486.863281 15.078125 487.605469 14.316406 C 488.308594 13.652344 488.621094 12.792969 488.621094 11.660156 C 488.621094 10.585938 488.328125 9.902344 487.585938 9.140625 C 486.921875 8.496094 486.082031 8.144531 484.304688 7.832031 Z M 484.929688 6.5625 "/>
<path style=" stroke:none;fill-rule:nonzero;fill:rgb(0%,0%,0%);fill-opacity:1;" d="M 490.585938 15.605469 C 492.265625 15.410156 493.085938 15.117188 494.101562 14.394531 C 495.644531 13.261719 496.5625 11.40625 496.5625 9.394531 C 496.5625 6.914062 495.195312 5.175781 493.261719 5.175781 C 491.484375 5.175781 490.15625 6.679688 490.15625 8.691406 C 490.15625 10.527344 491.230469 11.738281 492.851562 11.738281 C 493.671875 11.738281 494.296875 11.484375 495.078125 10.878906 C 494.472656 13.320312 492.8125 14.921875 490.546875 15.3125 Z M 495.117188 9.960938 C 495.117188 10.273438 495.058594 10.410156 494.882812 10.527344 C 494.472656 10.898438 493.925781 11.09375 493.378906 11.09375 C 492.246094 11.09375 491.523438 9.960938 491.523438 8.183594 C 491.523438 7.34375 491.777344 6.445312 492.089844 6.054688 C 492.34375 5.761719 492.714844 5.585938 493.144531 5.585938 C 494.453125 5.585938 495.117188 6.875 495.117188 9.394531 Z M 495.117188 9.960938 "/>
<path style=" stroke:none;fill-rule:nonzero;fill:rgb(0%,0%,0%);fill-opacity:1;" d="M 501.53125 5.175781 L 498.835938 6.523438 L 498.835938 6.738281 C 499.011719 6.660156 499.1875 6.601562 499.246094 6.582031 C 499.5 6.464844 499.753906 6.40625 499.910156 6.40625 C 500.222656 6.40625 500.359375 6.640625 500.359375 7.109375 L 500.359375 13.886719 C 500.359375 14.375 500.242188 14.726562 500.007812 14.863281 C 499.773438 14.980469 499.558594 15.039062 498.933594 15.058594 L 498.933594 15.273438 L 503.054688 15.273438 L 503.054688 15.058594 C 501.882812 15.039062 501.648438 14.882812 501.648438 14.160156 L 501.648438 5.195312 Z M 501.53125 5.175781 "/>
<path style=" stroke:none;fill-rule:nonzero;fill:rgb(0%,0%,0%);fill-opacity:1;" d="M 511.347656 5.390625 L 505.820312 5.390625 L 504.941406 7.578125 L 505.195312 7.695312 C 505.839844 6.679688 506.113281 6.484375 506.933594 6.484375 L 510.175781 6.484375 L 507.226562 15.390625 L 508.183594 15.390625 L 511.347656 5.625 Z M 511.347656 5.390625 "/>
<path style=" stroke:none;fill-rule:nonzero;fill:rgb(0%,0%,0%);fill-opacity:1;" d="M 516.445312 11.425781 L 516.445312 12.382812 L 520.117188 12.382812 L 520.117188 11.425781 Z M 516.445312 11.425781 "/>
<path style=" stroke:none;fill-rule:nonzero;fill:rgb(0%,0%,0%);fill-opacity:1;" d="M 527.921875 13.222656 L 527.726562 13.144531 C 527.179688 14.003906 526.984375 14.140625 526.320312 14.140625 L 522.746094 14.140625 L 525.246094 11.503906 C 526.59375 10.117188 527.160156 8.984375 527.160156 7.8125 C 527.160156 6.328125 525.949219 5.175781 524.40625 5.175781 C 523.585938 5.175781 522.804688 5.507812 522.257812 6.09375 C 521.769531 6.601562 521.554688 7.089844 521.300781 8.144531 L 521.613281 8.222656 C 522.199219 6.757812 522.746094 6.269531 523.78125 6.269531 C 525.03125 6.269531 525.890625 7.128906 525.890625 8.378906 C 525.890625 9.550781 525.1875 10.9375 523.9375 12.265625 L 521.28125 15.097656 L 521.28125 15.273438 L 527.101562 15.273438 Z M 527.921875 13.222656 "/>
<path style=" stroke:none;fill-rule:nonzero;fill:rgb(0%,0%,0%);fill-opacity:1;" d="M 530.179688 13.789062 C 529.730469 13.789062 529.359375 14.160156 529.359375 14.628906 C 529.359375 15.058594 529.730469 15.429688 530.160156 15.429688 C 530.628906 15.429688 531 15.058594 531 14.628906 C 531 14.160156 530.628906 13.789062 530.179688 13.789062 Z M 530.179688 13.789062 "/>
<path style=" stroke:none;fill-rule:nonzero;fill:rgb(0%,0%,0%);fill-opacity:1;" d="M 539.132812 13.222656 L 538.9375 13.144531 C 538.390625 14.003906 538.195312 14.140625 537.53125 14.140625 L 533.957031 14.140625 L 536.457031 11.503906 C 537.804688 10.117188 538.371094 8.984375 538.371094 7.8125 C 538.371094 6.328125 537.160156 5.175781 535.617188 5.175781 C 534.796875 5.175781 534.015625 5.507812 533.46875 6.09375 C 532.980469 6.601562 532.765625 7.089844 532.511719 8.144531 L 532.824219 8.222656 C 533.410156 6.757812 533.957031 6.269531 534.992188 6.269531 C 536.242188 6.269531 537.101562 7.128906 537.101562 8.378906 C 537.101562 9.550781 536.398438 10.9375 535.148438 12.265625 L 532.492188 15.097656 L 532.492188 15.273438 L 538.3125 15.273438 Z M 539.132812 13.222656 "/>
<path style=" stroke:none;fill-rule:nonzero;fill:rgb(0%,0%,0%);fill-opacity:1;" d="M 545.125 13.789062 C 544.675781 13.789062 544.304688 14.160156 544.304688 14.628906 C 544.304688 15.058594 544.675781 15.429688 545.105469 15.429688 C 545.574219 15.429688 545.945312 15.058594 545.945312 14.628906 C 545.945312 14.160156 545.574219 13.789062 545.125 13.789062 Z M 545.125 13.789062 "/>
<path style=" stroke:none;fill-rule:nonzero;fill:rgb(0%,0%,0%);fill-opacity:1;" d="M 553.644531 5.058594 C 551.945312 5.195312 551.085938 5.488281 549.992188 6.25 C 548.371094 7.402344 547.492188 9.101562 547.492188 11.113281 C 547.492188 12.402344 547.902344 13.710938 548.546875 14.472656 C 549.113281 15.117188 549.914062 15.488281 550.832031 15.488281 C 552.6875 15.488281 553.976562 14.0625 553.976562 11.992188 C 553.976562 10.097656 552.882812 8.886719 551.164062 8.886719 C 550.519531 8.886719 550.1875 8.984375 549.25 9.550781 C 549.660156 7.285156 551.339844 5.683594 553.683594 5.292969 Z M 550.597656 9.570312 C 551.886719 9.570312 552.628906 10.644531 552.628906 12.5 C 552.628906 14.160156 552.042969 15.058594 551.007812 15.058594 C 549.679688 15.058594 548.878906 13.652344 548.878906 11.347656 C 548.878906 10.585938 548.996094 10.15625 549.308594 9.941406 C 549.621094 9.707031 550.070312 9.570312 550.597656 9.570312 Z M 550.597656 9.570312 "/>
<path style=" stroke:none;fill-rule:nonzero;fill:rgb(0%,0%,0%);fill-opacity:1;" d="M 555.335938 15.605469 C 557.015625 15.410156 557.835938 15.117188 558.851562 14.394531 C 560.394531 13.261719 561.3125 11.40625 561.3125 9.394531 C 561.3125 6.914062 559.945312 5.175781 558.011719 5.175781 C 556.234375 5.175781 554.90625 6.679688 554.90625 8.691406 C 554.90625 10.527344 555.980469 11.738281 557.601562 11.738281 C 558.421875 11.738281 559.046875 11.484375 559.828125 10.878906 C 559.222656 13.320312 557.5625 14.921875 555.296875 15.3125 Z M 559.867188 9.960938 C 559.867188 10.273438 559.808594 10.410156 559.632812 10.527344 C 559.222656 10.898438 558.675781 11.09375 558.128906 11.09375 C 556.996094 11.09375 556.273438 9.960938 556.273438 8.183594 C 556.273438 7.34375 556.527344 6.445312 556.839844 6.054688 C 557.09375 5.761719 557.464844 5.585938 557.894531 5.585938 C 559.203125 5.585938 559.867188 6.875 559.867188 9.394531 Z M 559.867188 9.960938 "/>
<path style=" stroke:none;fill-rule:nonzero;fill:rgb(0%,0%,0%);fill-opacity:1;" d="M 568.980469 11.816406 L 567.457031 11.816406 L 567.457031 5.175781 L 566.792969 5.175781 L 562.105469 11.816406 L 562.105469 12.773438 L 566.304688 12.773438 L 566.304688 15.273438 L 567.457031 15.273438 L 567.457031 12.773438 L 568.980469 12.773438 Z M 566.285156 11.816406 L 562.710938 11.816406 L 566.285156 6.699219 Z M 566.285156 11.816406 "/>
<path style=" stroke:none;fill-rule:nonzero;fill:rgb(0%,0%,0%);fill-opacity:1;" d="M 576.453125 11.816406 L 574.929688 11.816406 L 574.929688 5.175781 L 574.265625 5.175781 L 569.578125 11.816406 L 569.578125 12.773438 L 573.777344 12.773438 L 573.777344 15.273438 L 574.929688 15.273438 L 574.929688 12.773438 L 576.453125 12.773438 Z M 573.757812 11.816406 L 570.183594 11.816406 L 573.757812 6.699219 Z M 573.757812 11.816406 "/>
<path style=" stroke:none;fill-rule:nonzero;fill:rgb(0%,0%,0%);fill-opacity:1;" d="M 581.195312 11.425781 L 581.195312 12.382812 L 584.867188 12.382812 L 584.867188 11.425781 Z M 581.195312 11.425781 "/>
<path style=" stroke:none;fill-rule:nonzero;fill:rgb(0%,0%,0%);fill-opacity:1;" d="M 592.675781 13.222656 L 592.480469 13.144531 C 591.933594 14.003906 591.738281 14.140625 591.074219 14.140625 L 587.5 14.140625 L 590 11.503906 C 591.347656 10.117188 591.914062 8.984375 591.914062 7.8125 C 591.914062 6.328125 590.703125 5.175781 589.160156 5.175781 C 588.339844 5.175781 587.558594 5.507812 587.011719 6.09375 C 586.523438 6.601562 586.308594 7.089844 586.054688 8.144531 L 586.367188 8.222656 C 586.953125 6.757812 587.5 6.269531 588.535156 6.269531 C 589.785156 6.269531 590.644531 7.128906 590.644531 8.378906 C 590.644531 9.550781 589.941406 10.9375 588.691406 12.265625 L 586.035156 15.097656 L 586.035156 15.273438 L 591.855469 15.273438 Z M 592.675781 13.222656 "/>
<path style=" stroke:none;fill-rule:nonzero;fill:rgb(0%,0%,0%);fill-opacity:1;" d="M 594.933594 13.789062 C 594.484375 13.789062 594.113281 14.160156 594.113281 14.628906 C 594.113281 15.058594 594.484375 15.429688 594.914062 15.429688 C 595.382812 15.429688 595.753906 15.058594 595.753906 14.628906 C 595.753906 14.160156 595.382812 13.789062 594.933594 13.789062 Z M 594.933594 13.789062 "/>
<path style=" stroke:none;fill-rule:nonzero;fill:rgb(0%,0%,0%);fill-opacity:1;" d="M 601.148438 5.175781 L 598.453125 6.523438 L 598.453125 6.738281 C 598.628906 6.660156 598.804688 6.601562 598.863281 6.582031 C 599.117188 6.464844 599.371094 6.40625 599.527344 6.40625 C 599.839844 6.40625 599.976562 6.640625 599.976562 7.109375 L 599.976562 13.886719 C 599.976562 14.375 599.859375 14.726562 599.625 14.863281 C 599.390625 14.980469 599.175781 15.039062 598.550781 15.058594 L 598.550781 15.273438 L 602.671875 15.273438 L 602.671875 15.058594 C 601.5 15.039062 601.265625 14.882812 601.265625 14.160156 L 601.265625 5.195312 Z M 601.148438 5.175781 "/>
<path style=" stroke:none;fill-rule:nonzero;fill:rgb(0%,0%,0%);fill-opacity:1;" d="M 609.878906 13.789062 C 609.429688 13.789062 609.058594 14.160156 609.058594 14.628906 C 609.058594 15.058594 609.429688 15.429688 609.859375 15.429688 C 610.328125 15.429688 610.699219 15.058594 610.699219 14.628906 C 610.699219 14.160156 610.328125 13.789062 609.878906 13.789062 Z M 609.878906 13.789062 "/>
<path style=" stroke:none;fill-rule:nonzero;fill:rgb(0%,0%,0%);fill-opacity:1;" d="M 616.074219 9.726562 C 617.558594 8.945312 618.066406 8.320312 618.066406 7.285156 C 618.066406 6.074219 616.992188 5.175781 615.507812 5.175781 C 613.867188 5.175781 612.65625 6.171875 612.65625 7.539062 C 612.65625 8.496094 612.949219 8.945312 614.511719 10.3125 C 612.910156 11.542969 612.578125 11.992188 612.578125 13.007812 C 612.578125 14.472656 613.75 15.488281 615.449219 15.488281 C 617.246094 15.488281 618.378906 14.492188 618.378906 12.949219 C 618.378906 11.816406 617.871094 11.074219 616.074219 9.726562 Z M 615.800781 11.269531 C 616.894531 12.050781 617.246094 12.578125 617.246094 13.417969 C 617.246094 14.394531 616.582031 15.058594 615.605469 15.058594 C 614.472656 15.058594 613.710938 14.199219 613.710938 12.890625 C 613.710938 11.933594 614.042969 11.308594 614.902344 10.605469 Z M 615.644531 9.453125 C 614.316406 8.59375 613.769531 7.910156 613.769531 7.070312 C 613.769531 6.210938 614.433594 5.585938 615.390625 5.585938 C 616.40625 5.585938 617.050781 6.25 617.050781 7.285156 C 617.050781 8.125 616.621094 8.808594 615.78125 9.375 C 615.703125 9.414062 615.703125 9.414062 615.644531 9.453125 Z M 615.644531 9.453125 "/>
<path style=" stroke:none;fill-rule:nonzero;fill:rgb(0%,0%,0%);fill-opacity:1;" d="M 626.300781 13.222656 L 626.105469 13.144531 C 625.558594 14.003906 625.363281 14.140625 624.699219 14.140625 L 621.125 14.140625 L 623.625 11.503906 C 624.972656 10.117188 625.539062 8.984375 625.539062 7.8125 C 625.539062 6.328125 624.328125 5.175781 622.785156 5.175781 C 621.964844 5.175781 621.183594 5.507812 620.636719 6.09375 C 620.148438 6.601562 619.933594 7.089844 619.679688 8.144531 L 619.992188 8.222656 C 620.578125 6.757812 621.125 6.269531 622.160156 6.269531 C 623.410156 6.269531 624.269531 7.128906 624.269531 8.378906 C 624.269531 9.550781 623.566406 10.9375 622.316406 12.265625 L 619.660156 15.097656 L 619.660156 15.273438 L 625.480469 15.273438 Z M 626.300781 13.222656 "/>
<path style=" stroke:none;fill-rule:nonzero;fill:rgb(0%,0%,0%);fill-opacity:1;" d="M 633.34375 5.058594 C 631.644531 5.195312 630.785156 5.488281 629.691406 6.25 C 628.070312 7.402344 627.191406 9.101562 627.191406 11.113281 C 627.191406 12.402344 627.601562 13.710938 628.246094 14.472656 C 628.8125 15.117188 629.613281 15.488281 630.53125 15.488281 C 632.386719 15.488281 633.675781 14.0625 633.675781 11.992188 C 633.675781 10.097656 632.582031 8.886719 630.863281 8.886719 C 630.21875 8.886719 629.886719 8.984375 628.949219 9.550781 C 629.359375 7.285156 631.039062 5.683594 633.382812 5.292969 Z M 630.296875 9.570312 C 631.585938 9.570312 632.328125 10.644531 632.328125 12.5 C 632.328125 14.160156 631.742188 15.058594 630.707031 15.058594 C 629.378906 15.058594 628.578125 13.652344 628.578125 11.347656 C 628.578125 10.585938 628.695312 10.15625 629.007812 9.941406 C 629.320312 9.707031 629.769531 9.570312 630.296875 9.570312 Z M 630.296875 9.570312 "/>
<path style=" stroke:none;fill-rule:nonzero;fill:rgb(0%,0%,0%);fill-opacity:1;" d="M 641.203125 11.816406 L 639.679688 11.816406 L 639.679688 5.175781 L 639.015625 5.175781 L 634.328125 11.816406 L 634.328125 12.773438 L 638.527344 12.773438 L 638.527344 15.273438 L 639.679688 15.273438 L 639.679688 12.773438 L 641.203125 12.773438 Z M 638.507812 11.816406 L 634.933594 11.816406 L 638.507812 6.699219 Z M 638.507812 11.816406 "/>
<path style=" stroke:none;fill-rule:nonzero;fill:rgb(0%,0%,0%);fill-opacity:1;" d="M 645.949219 11.425781 L 645.949219 12.382812 L 649.621094 12.382812 L 649.621094 11.425781 Z M 645.949219 11.425781 "/>
<path style=" stroke:none;fill-rule:nonzero;fill:rgb(0%,0%,0%);fill-opacity:1;" d="M 657.429688 13.222656 L 657.234375 13.144531 C 656.6875 14.003906 656.492188 14.140625 655.828125 14.140625 L 652.253906 14.140625 L 654.753906 11.503906 C 656.101562 10.117188 656.667969 8.984375 656.667969 7.8125 C 656.667969 6.328125 655.457031 5.175781 653.914062 5.175781 C 653.09375 5.175781 652.3125 5.507812 651.765625 6.09375 C 651.277344 6.601562 651.0625 7.089844 650.808594 8.144531 L 651.121094 8.222656 C 651.707031 6.757812 652.253906 6.269531 653.289062 6.269531 C 654.539062 6.269531 655.398438 7.128906 655.398438 8.378906 C 655.398438 9.550781 654.695312 10.9375 653.445312 12.265625 L 650.789062 15.097656 L 650.789062 15.273438 L 656.609375 15.273438 Z M 657.429688 13.222656 "/>
<path style=" stroke:none;fill-rule:nonzero;fill:rgb(0%,0%,0%);fill-opacity:1;" d="M 659.6875 13.789062 C 659.238281 13.789062 658.867188 14.160156 658.867188 14.628906 C 658.867188 15.058594 659.238281 15.429688 659.667969 15.429688 C 660.136719 15.429688 660.507812 15.058594 660.507812 14.628906 C 660.507812 14.160156 660.136719 13.789062 659.6875 13.789062 Z M 659.6875 13.789062 "/>
</g>
</svg>
