<?xml version="1.0" encoding="UTF-8"?>
<svg xmlns="http://www.w3.org/2000/svg" xmlns:xlink="http://www.w3.org/1999/xlink" width="676.515pt" height="20.605469pt" viewBox="0 0 676.515 20.605469" version="1.1">
<g id="surface301">
<path style=" stroke:none;fill-rule:nonzero;fill:rgb(0%,0%,0%);fill-opacity:1;" d="M 8.4375 5.175781 C 7.617188 5.175781 6.992188 5.429688 6.445312 5.957031 C 5.566406 6.777344 5 8.496094 5 10.253906 C 5 11.875 5.507812 13.632812 6.210938 14.472656 C 6.757812 15.117188 7.519531 15.488281 8.378906 15.488281 C 9.140625 15.488281 9.785156 15.234375 10.332031 14.707031 C 11.191406 13.886719 11.757812 12.148438 11.757812 10.351562 C 11.757812 7.285156 10.410156 5.175781 8.4375 5.175781 Z M 8.398438 5.566406 C 9.648438 5.566406 10.332031 7.246094 10.332031 10.371094 C 10.332031 13.496094 9.667969 15.097656 8.378906 15.097656 C 7.089844 15.097656 6.445312 13.496094 6.445312 10.390625 C 6.445312 7.226562 7.109375 5.566406 8.398438 5.566406 Z M 8.398438 5.566406 "/>
<path style=" stroke:none;fill-rule:nonzero;fill:rgb(0%,0%,0%);fill-opacity:1;" d="M 20.210938 5.175781 L 17.515625 6.523438 L 17.515625 6.738281 C 17.691406 6.660156 17.867188 6.601562 17.925781 6.582031 C 18.179688 6.464844 18.433594 6.40625 18.589844 6.40625 C 18.902344 6.40625 19.039062 6.640625 19.039062 7.109375 L 19.039062 13.886719 C 19.039062 14.375 18.921875 14.726562 18.6875 14.863281 C 18.453125 14.980469 18.238281 15.039062 17.613281 15.058594 L 17.613281 15.273438 L 21.734375 15.273438 L 21.734375 15.058594 C 20.5625 15.039062 20.328125 14.882812 20.328125 14.160156 L 20.328125 5.195312 Z M 20.210938 5.175781 "/>
<path style=" stroke:none;fill-rule:nonzero;fill:rgb(0%,0%,0%);fill-opacity:1;" d="M 25.203125 13.789062 C 24.753906 13.789062 24.382812 14.160156 24.382812 14.628906 C 24.382812 15.058594 24.753906 15.429688 25.183594 15.429688 C 25.652344 15.429688 26.023438 15.058594 26.023438 14.628906 C 26.023438 14.160156 25.652344 13.789062 25.203125 13.789062 Z M 25.203125 13.789062 "/>
<path style=" stroke:none;fill-rule:nonzero;fill:rgb(0%,0%,0%);fill-opacity:1;" d="M 33.570312 13.789062 C 33.121094 13.789062 32.75 14.160156 32.75 14.628906 C 32.75 15.058594 33.121094 15.429688 33.550781 15.429688 C 34.019531 15.429688 34.390625 15.058594 34.390625 14.628906 C 34.390625 14.160156 34.019531 13.789062 33.570312 13.789062 Z M 33.570312 13.789062 "/>
<path style=" stroke:none;fill-rule:nonzero;fill:rgb(0%,0%,0%);fill-opacity:1;" d="M 42.523438 13.222656 L 42.328125 13.144531 C 41.78125 14.003906 41.585938 14.140625 40.921875 14.140625 L 37.347656 14.140625 L 39.847656 11.503906 C 41.195312 10.117188 41.761719 8.984375 41.761719 7.8125 C 41.761719 6.328125 40.550781 5.175781 39.007812 5.175781 C 38.1875 5.175781 37.40625 5.507812 36.859375 6.09375 C 36.371094 6.601562 36.15625 7.089844 35.902344 8.144531 L 36.214844 8.222656 C 36.800781 6.757812 37.347656 6.269531 38.382812 6.269531 C 39.632812 6.269531 40.492188 7.128906 40.492188 8.378906 C 40.492188 9.550781 39.789062 10.9375 38.539062 12.265625 L 35.882812 15.097656 L 35.882812 15.273438 L 41.703125 15.273438 Z M 42.523438 13.222656 "/>
<path style=" stroke:none;fill-rule:nonzero;fill:rgb(0%,0%,0%);fill-opacity:1;" d="M 46.695312 5.175781 C 45.875 5.175781 45.25 5.429688 44.703125 5.957031 C 43.824219 6.777344 43.257812 8.496094 43.257812 10.253906 C 43.257812 11.875 43.765625 13.632812 44.46875 14.472656 C 45.015625 15.117188 45.777344 15.488281 46.636719 15.488281 C 47.398438 15.488281 48.042969 15.234375 48.589844 14.707031 C 49.449219 13.886719 50.015625 12.148438 50.015625 10.351562 C 50.015625 7.285156 48.667969 5.175781 46.695312 5.175781 Z M 46.65625 5.566406 C 47.90625 5.566406 48.589844 7.246094 48.589844 10.371094 C 48.589844 13.496094 47.925781 15.097656 46.636719 15.097656 C 45.347656 15.097656 44.703125 13.496094 44.703125 10.390625 C 44.703125 7.226562 45.367188 5.566406 46.65625 5.566406 Z M 46.65625 5.566406 "/>
<path style=" stroke:none;fill-rule:nonzero;fill:rgb(0%,0%,0%);fill-opacity:1;" d="M 55.988281 13.789062 C 55.539062 13.789062 55.167969 14.160156 55.167969 14.628906 C 55.167969 15.058594 55.539062 15.429688 55.96875 15.429688 C 56.4375 15.429688 56.808594 15.058594 56.808594 14.628906 C 56.808594 14.160156 56.4375 13.789062 55.988281 13.789062 Z M 55.988281 13.789062 "/>
<path style=" stroke:none;fill-rule:nonzero;fill:rgb(0%,0%,0%);fill-opacity:1;" d="M 62.183594 9.726562 C 63.667969 8.945312 64.175781 8.320312 64.175781 7.285156 C 64.175781 6.074219 63.101562 5.175781 61.617188 5.175781 C 59.976562 5.175781 58.765625 6.171875 58.765625 7.539062 C 58.765625 8.496094 59.058594 8.945312 60.621094 10.3125 C 59.019531 11.542969 58.6875 11.992188 58.6875 13.007812 C 58.6875 14.472656 59.859375 15.488281 61.558594 15.488281 C 63.355469 15.488281 64.488281 14.492188 64.488281 12.949219 C 64.488281 11.816406 63.980469 11.074219 62.183594 9.726562 Z M 61.910156 11.269531 C 63.003906 12.050781 63.355469 12.578125 63.355469 13.417969 C 63.355469 14.394531 62.691406 15.058594 61.714844 15.058594 C 60.582031 15.058594 59.820312 14.199219 59.820312 12.890625 C 59.820312 11.933594 60.152344 11.308594 61.011719 10.605469 Z M 61.753906 9.453125 C 60.425781 8.59375 59.878906 7.910156 59.878906 7.070312 C 59.878906 6.210938 60.542969 5.585938 61.5 5.585938 C 62.515625 5.585938 63.160156 6.25 63.160156 7.285156 C 63.160156 8.125 62.730469 8.808594 61.890625 9.375 C 61.8125 9.414062 61.8125 9.414062 61.753906 9.453125 Z M 61.753906 9.453125 "/>
<path style=" stroke:none;fill-rule:nonzero;fill:rgb(0%,0%,0%);fill-opacity:1;" d="M 69.675781 5.175781 L 66.980469 6.523438 L 66.980469 6.738281 C 67.15625 6.660156 67.332031 6.601562 67.390625 6.582031 C 67.644531 6.464844 67.898438 6.40625 68.054688 6.40625 C 68.367188 6.40625 68.503906 6.640625 68.503906 7.109375 L 68.503906 13.886719 C 68.503906 14.375 68.386719 14.726562 68.152344 14.863281 C 67.917969 14.980469 67.703125 15.039062 67.078125 15.058594 L 67.078125 15.273438 L 71.199219 15.273438 L 71.199219 15.058594 C 70.027344 15.039062 69.792969 14.882812 69.792969 14.160156 L 69.792969 5.195312 Z M 69.675781 5.175781 "/>
<path style=" stroke:none;fill-rule:nonzero;fill:rgb(0%,0%,0%);fill-opacity:1;" d="M 77.128906 9.726562 C 78.613281 8.945312 79.121094 8.320312 79.121094 7.285156 C 79.121094 6.074219 78.046875 5.175781 76.5625 5.175781 C 74.921875 5.175781 73.710938 6.171875 73.710938 7.539062 C 73.710938 8.496094 74.003906 8.945312 75.566406 10.3125 C 73.964844 11.542969 73.632812 11.992188 73.632812 13.007812 C 73.632812 14.472656 74.804688 15.488281 76.503906 15.488281 C 78.300781 15.488281 79.433594 14.492188 79.433594 12.949219 C 79.433594 11.816406 78.925781 11.074219 77.128906 9.726562 Z M 76.855469 11.269531 C 77.949219 12.050781 78.300781 12.578125 78.300781 13.417969 C 78.300781 14.394531 77.636719 15.058594 76.660156 15.058594 C 75.527344 15.058594 74.765625 14.199219 74.765625 12.890625 C 74.765625 11.933594 75.097656 11.308594 75.957031 10.605469 Z M 76.699219 9.453125 C 75.371094 8.59375 74.824219 7.910156 74.824219 7.070312 C 74.824219 6.210938 75.488281 5.585938 76.445312 5.585938 C 77.460938 5.585938 78.105469 6.25 78.105469 7.285156 C 78.105469 8.125 77.675781 8.808594 76.835938 9.375 C 76.757812 9.414062 76.757812 9.414062 76.699219 9.453125 Z M 76.699219 9.453125 "/>
<path style=" stroke:none;fill-rule:nonzero;fill:rgb(0%,0%,0%);fill-opacity:1;" d="M 86.964844 5.390625 L 81.4375 5.390625 L 80.558594 7.578125 L 80.8125 7.695312 C 81.457031 6.679688 81.730469 6.484375 82.550781 6.484375 L 85.792969 6.484375 L 82.84375 15.390625 L 83.800781 15.390625 L 86.964844 5.625 Z M 86.964844 5.390625 "/>
<path style=" stroke:none;fill-rule:nonzero;fill:rgb(0%,0%,0%);fill-opacity:1;" d="M 93.347656 13.789062 C 92.898438 13.789062 92.527344 14.160156 92.527344 14.628906 C 92.527344 15.058594 92.898438 15.429688 93.328125 15.429688 C 93.796875 15.429688 94.167969 15.058594 94.167969 14.628906 C 94.167969 14.160156 93.796875 13.789062 93.347656 13.789062 Z M 93.347656 13.789062 "/>
<path style=" stroke:none;fill-rule:nonzero;fill:rgb(0%,0%,0%);fill-opacity:1;" d="M 102.261719 11.816406 L 100.738281 11.816406 L 100.738281 5.175781 L 100.074219 5.175781 L 95.386719 11.816406 L 95.386719 12.773438 L 99.585938 12.773438 L 99.585938 15.273438 L 100.738281 15.273438 L 100.738281 12.773438 L 102.261719 12.773438 Z M 99.566406 11.816406 L 95.992188 11.816406 L 99.566406 6.699219 Z M 99.566406 11.816406 "/>
<path style=" stroke:none;fill-rule:nonzero;fill:rgb(0%,0%,0%);fill-opacity:1;" d="M 106.46875 5.175781 C 105.648438 5.175781 105.023438 5.429688 104.476562 5.957031 C 103.597656 6.777344 103.03125 8.496094 103.03125 10.253906 C 103.03125 11.875 103.539062 13.632812 104.242188 14.472656 C 104.789062 15.117188 105.550781 15.488281 106.410156 15.488281 C 107.171875 15.488281 107.816406 15.234375 108.363281 14.707031 C 109.222656 13.886719 109.789062 12.148438 109.789062 10.351562 C 109.789062 7.285156 108.441406 5.175781 106.46875 5.175781 Z M 106.429688 5.566406 C 107.679688 5.566406 108.363281 7.246094 108.363281 10.371094 C 108.363281 13.496094 107.699219 15.097656 106.410156 15.097656 C 105.121094 15.097656 104.476562 13.496094 104.476562 10.390625 C 104.476562 7.226562 105.140625 5.566406 106.429688 5.566406 Z M 106.429688 5.566406 "/>
<path style=" stroke:none;fill-rule:nonzero;fill:rgb(0%,0%,0%);fill-opacity:1;" d="M 115.765625 13.789062 C 115.316406 13.789062 114.945312 14.160156 114.945312 14.628906 C 114.945312 15.058594 115.316406 15.429688 115.746094 15.429688 C 116.214844 15.429688 116.585938 15.058594 116.585938 14.628906 C 116.585938 14.160156 116.214844 13.789062 115.765625 13.789062 Z M 115.765625 13.789062 "/>
<path style=" stroke:none;fill-rule:nonzero;fill:rgb(0%,0%,0%);fill-opacity:1;" d="M 124.285156 5.058594 C 122.585938 5.195312 121.726562 5.488281 120.632812 6.25 C 119.011719 7.402344 118.132812 9.101562 118.132812 11.113281 C 118.132812 12.402344 118.542969 13.710938 119.1875 14.472656 C 119.753906 15.117188 120.554688 15.488281 121.472656 15.488281 C 123.328125 15.488281 124.617188 14.0625 124.617188 11.992188 C 124.617188 10.097656 123.523438 8.886719 121.804688 8.886719 C 121.160156 8.886719 120.828125 8.984375 119.890625 9.550781 C 120.300781 7.285156 121.980469 5.683594 124.324219 5.292969 Z M 121.238281 9.570312 C 122.527344 9.570312 123.269531 10.644531 123.269531 12.5 C 123.269531 14.160156 122.683594 15.058594 121.648438 15.058594 C 120.320312 15.058594 119.519531 13.652344 119.519531 11.347656 C 119.519531 10.585938 119.636719 10.15625 119.949219 9.941406 C 120.261719 9.707031 120.710938 9.570312 121.238281 9.570312 Z M 121.238281 9.570312 "/>
<path style=" stroke:none;fill-rule:nonzero;fill:rgb(0%,0%,0%);fill-opacity:1;" d="M 131.796875 5.390625 L 126.269531 5.390625 L 125.390625 7.578125 L 125.644531 7.695312 C 126.289062 6.679688 126.5625 6.484375 127.382812 6.484375 L 130.625 6.484375 L 127.675781 15.390625 L 128.632812 15.390625 L 131.796875 5.625 Z M 131.796875 5.390625 "/>
<path style=" stroke:none;fill-rule:nonzero;fill:rgb(0%,0%,0%);fill-opacity:1;" d="M 136.359375 5.175781 C 135.539062 5.175781 134.914062 5.429688 134.367188 5.957031 C 133.488281 6.777344 132.921875 8.496094 132.921875 10.253906 C 132.921875 11.875 133.429688 13.632812 134.132812 14.472656 C 134.679688 15.117188 135.441406 15.488281 136.300781 15.488281 C 137.0625 15.488281 137.707031 15.234375 138.253906 14.707031 C 139.113281 13.886719 139.679688 12.148438 139.679688 10.351562 C 139.679688 7.285156 138.332031 5.175781 136.359375 5.175781 Z M 136.320312 5.566406 C 137.570312 5.566406 138.253906 7.246094 138.253906 10.371094 C 138.253906 13.496094 137.589844 15.097656 136.300781 15.097656 C 135.011719 15.097656 134.367188 13.496094 134.367188 10.390625 C 134.367188 7.226562 135.03125 5.566406 136.320312 5.566406 Z M 136.320312 5.566406 "/>
<path style=" stroke:none;fill-rule:nonzero;fill:rgb(0%,0%,0%);fill-opacity:1;" d="M 142.328125 10.351562 C 143.207031 10.351562 143.558594 10.371094 143.910156 10.507812 C 144.847656 10.839844 145.414062 11.679688 145.414062 12.714844 C 145.414062 13.964844 144.574219 14.941406 143.460938 14.941406 C 143.070312 14.941406 142.757812 14.84375 142.210938 14.472656 C 141.761719 14.21875 141.507812 14.101562 141.253906 14.101562 C 140.902344 14.101562 140.6875 14.316406 140.6875 14.628906 C 140.6875 15.15625 141.332031 15.488281 142.367188 15.488281 C 143.519531 15.488281 144.710938 15.097656 145.414062 14.472656 C 146.117188 13.867188 146.488281 13.007812 146.488281 11.992188 C 146.488281 11.230469 146.253906 10.527344 145.824219 10.078125 C 145.53125 9.746094 145.238281 9.570312 144.59375 9.277344 C 145.609375 8.574219 145.980469 8.027344 145.980469 7.226562 C 145.980469 6.015625 145.042969 5.175781 143.65625 5.175781 C 142.914062 5.175781 142.25 5.429688 141.722656 5.898438 C 141.273438 6.308594 141.039062 6.699219 140.707031 7.597656 L 140.941406 7.65625 C 141.546875 6.5625 142.230469 6.074219 143.167969 6.074219 C 144.144531 6.074219 144.808594 6.71875 144.808594 7.675781 C 144.808594 8.203125 144.59375 8.75 144.203125 9.121094 C 143.753906 9.570312 143.34375 9.785156 142.328125 10.15625 Z M 142.328125 10.351562 "/>
<path style=" stroke:none;fill-rule:nonzero;fill:rgb(0%,0%,0%);fill-opacity:1;" d="M 153.125 13.789062 C 152.675781 13.789062 152.304688 14.160156 152.304688 14.628906 C 152.304688 15.058594 152.675781 15.429688 153.105469 15.429688 C 153.574219 15.429688 153.945312 15.058594 153.945312 14.628906 C 153.945312 14.160156 153.574219 13.789062 153.125 13.789062 Z M 153.125 13.789062 "/>
<path style=" stroke:none;fill-rule:nonzero;fill:rgb(0%,0%,0%);fill-opacity:1;" d="M 161.644531 5.058594 C 159.945312 5.195312 159.085938 5.488281 157.992188 6.25 C 156.371094 7.402344 155.492188 9.101562 155.492188 11.113281 C 155.492188 12.402344 155.902344 13.710938 156.546875 14.472656 C 157.113281 15.117188 157.914062 15.488281 158.832031 15.488281 C 160.6875 15.488281 161.976562 14.0625 161.976562 11.992188 C 161.976562 10.097656 160.882812 8.886719 159.164062 8.886719 C 158.519531 8.886719 158.1875 8.984375 157.25 9.550781 C 157.660156 7.285156 159.339844 5.683594 161.683594 5.292969 Z M 158.597656 9.570312 C 159.886719 9.570312 160.628906 10.644531 160.628906 12.5 C 160.628906 14.160156 160.042969 15.058594 159.007812 15.058594 C 157.679688 15.058594 156.878906 13.652344 156.878906 11.347656 C 156.878906 10.585938 156.996094 10.15625 157.308594 9.941406 C 157.621094 9.707031 158.070312 9.570312 158.597656 9.570312 Z M 158.597656 9.570312 "/>
<path style=" stroke:none;fill-rule:nonzero;fill:rgb(0%,0%,0%);fill-opacity:1;" d="M 166.246094 5.175781 C 165.425781 5.175781 164.800781 5.429688 164.253906 5.957031 C 163.375 6.777344 162.808594 8.496094 162.808594 10.253906 C 162.808594 11.875 163.316406 13.632812 164.019531 14.472656 C 164.566406 15.117188 165.328125 15.488281 166.1875 15.488281 C 166.949219 15.488281 167.59375 15.234375 168.140625 14.707031 C 169 13.886719 169.566406 12.148438 169.566406 10.351562 C 169.566406 7.285156 168.21875 5.175781 166.246094 5.175781 Z M 166.207031 5.566406 C 167.457031 5.566406 168.140625 7.246094 168.140625 10.371094 C 168.140625 13.496094 167.476562 15.097656 166.1875 15.097656 C 164.898438 15.097656 164.253906 13.496094 164.253906 10.390625 C 164.253906 7.226562 164.917969 5.566406 166.207031 5.566406 Z M 166.207031 5.566406 "/>
<path style=" stroke:none;fill-rule:nonzero;fill:rgb(0%,0%,0%);fill-opacity:1;" d="M 175.539062 13.789062 C 175.089844 13.789062 174.71875 14.160156 174.71875 14.628906 C 174.71875 15.058594 175.089844 15.429688 175.519531 15.429688 C 175.988281 15.429688 176.359375 15.058594 176.359375 14.628906 C 176.359375 14.160156 175.988281 13.789062 175.539062 13.789062 Z M 175.539062 13.789062 "/>
<path style=" stroke:none;fill-rule:nonzero;fill:rgb(0%,0%,0%);fill-opacity:1;" d="M 180.097656 6.5625 L 183.027344 6.5625 C 183.28125 6.5625 183.339844 6.523438 183.378906 6.425781 L 183.945312 5.097656 L 183.808594 5 C 183.59375 5.3125 183.4375 5.390625 183.125 5.390625 L 180 5.390625 L 178.378906 8.925781 C 178.359375 8.945312 178.359375 8.964844 178.359375 9.003906 C 178.359375 9.082031 178.417969 9.121094 178.535156 9.121094 C 179.023438 9.121094 179.609375 9.21875 180.234375 9.414062 C 181.953125 9.960938 182.734375 10.898438 182.734375 12.382812 C 182.734375 13.808594 181.816406 14.921875 180.664062 14.921875 C 180.351562 14.921875 180.097656 14.824219 179.667969 14.492188 C 179.179688 14.160156 178.828125 14.003906 178.515625 14.003906 C 178.085938 14.003906 177.871094 14.179688 177.871094 14.550781 C 177.871094 15.117188 178.574219 15.488281 179.707031 15.488281 C 180.957031 15.488281 182.03125 15.078125 182.773438 14.316406 C 183.476562 13.652344 183.789062 12.792969 183.789062 11.660156 C 183.789062 10.585938 183.496094 9.902344 182.753906 9.140625 C 182.089844 8.496094 181.25 8.144531 179.472656 7.832031 Z M 180.097656 6.5625 "/>
<path style=" stroke:none;fill-rule:nonzero;fill:rgb(0%,0%,0%);fill-opacity:1;" d="M 191.925781 11.816406 L 190.402344 11.816406 L 190.402344 5.175781 L 189.738281 5.175781 L 185.050781 11.816406 L 185.050781 12.773438 L 189.25 12.773438 L 189.25 15.273438 L 190.402344 15.273438 L 190.402344 12.773438 L 191.925781 12.773438 Z M 189.230469 11.816406 L 185.65625 11.816406 L 189.230469 6.699219 Z M 189.230469 11.816406 "/>
<path style=" stroke:none;fill-rule:nonzero;fill:rgb(0%,0%,0%);fill-opacity:1;" d="M 196.679688 9.726562 C 198.164062 8.945312 198.671875 8.320312 198.671875 7.285156 C 198.671875 6.074219 197.597656 5.175781 196.113281 5.175781 C 194.472656 5.175781 193.261719 6.171875 193.261719 7.539062 C 193.261719 8.496094 193.554688 8.945312 195.117188 10.3125 C 193.515625 11.542969 193.183594 11.992188 193.183594 13.007812 C 193.183594 14.472656 194.355469 15.488281 196.054688 15.488281 C 197.851562 15.488281 198.984375 14.492188 198.984375 12.949219 C 198.984375 11.816406 198.476562 11.074219 196.679688 9.726562 Z M 196.40625 11.269531 C 197.5 12.050781 197.851562 12.578125 197.851562 13.417969 C 197.851562 14.394531 197.1875 15.058594 196.210938 15.058594 C 195.078125 15.058594 194.316406 14.199219 194.316406 12.890625 C 194.316406 11.933594 194.648438 11.308594 195.507812 10.605469 Z M 196.25 9.453125 C 194.921875 8.59375 194.375 7.910156 194.375 7.070312 C 194.375 6.210938 195.039062 5.585938 195.996094 5.585938 C 197.011719 5.585938 197.65625 6.25 197.65625 7.285156 C 197.65625 8.125 197.226562 8.808594 196.386719 9.375 C 196.308594 9.414062 196.308594 9.414062 196.25 9.453125 Z M 196.25 9.453125 "/>
<path style=" stroke:none;fill-rule:nonzero;fill:rgb(0%,0%,0%);fill-opacity:1;" d="M 204.152344 9.726562 C 205.636719 8.945312 206.144531 8.320312 206.144531 7.285156 C 206.144531 6.074219 205.070312 5.175781 203.585938 5.175781 C 201.945312 5.175781 200.734375 6.171875 200.734375 7.539062 C 200.734375 8.496094 201.027344 8.945312 202.589844 10.3125 C 200.988281 11.542969 200.65625 11.992188 200.65625 13.007812 C 200.65625 14.472656 201.828125 15.488281 203.527344 15.488281 C 205.324219 15.488281 206.457031 14.492188 206.457031 12.949219 C 206.457031 11.816406 205.949219 11.074219 204.152344 9.726562 Z M 203.878906 11.269531 C 204.972656 12.050781 205.324219 12.578125 205.324219 13.417969 C 205.324219 14.394531 204.660156 15.058594 203.683594 15.058594 C 202.550781 15.058594 201.789062 14.199219 201.789062 12.890625 C 201.789062 11.933594 202.121094 11.308594 202.980469 10.605469 Z M 203.722656 9.453125 C 202.394531 8.59375 201.847656 7.910156 201.847656 7.070312 C 201.847656 6.210938 202.511719 5.585938 203.46875 5.585938 C 204.484375 5.585938 205.128906 6.25 205.128906 7.285156 C 205.128906 8.125 204.699219 8.808594 203.859375 9.375 C 203.78125 9.414062 203.78125 9.414062 203.722656 9.453125 Z M 203.722656 9.453125 "/>
<path style=" stroke:none;fill-rule:nonzero;fill:rgb(0%,0%,0%);fill-opacity:1;" d="M 212.898438 13.789062 C 212.449219 13.789062 212.078125 14.160156 212.078125 14.628906 C 212.078125 15.058594 212.449219 15.429688 212.878906 15.429688 C 213.347656 15.429688 213.71875 15.058594 213.71875 14.628906 C 213.71875 14.160156 213.347656 13.789062 212.898438 13.789062 Z M 212.898438 13.789062 "/>
<path style=" stroke:none;fill-rule:nonzero;fill:rgb(0%,0%,0%);fill-opacity:1;" d="M 219.097656 9.726562 C 220.582031 8.945312 221.089844 8.320312 221.089844 7.285156 C 221.089844 6.074219 220.015625 5.175781 218.53125 5.175781 C 216.890625 5.175781 215.679688 6.171875 215.679688 7.539062 C 215.679688 8.496094 215.972656 8.945312 217.535156 10.3125 C 215.933594 11.542969 215.601562 11.992188 215.601562 13.007812 C 215.601562 14.472656 216.773438 15.488281 218.472656 15.488281 C 220.269531 15.488281 221.402344 14.492188 221.402344 12.949219 C 221.402344 11.816406 220.894531 11.074219 219.097656 9.726562 Z M 218.824219 11.269531 C 219.917969 12.050781 220.269531 12.578125 220.269531 13.417969 C 220.269531 14.394531 219.605469 15.058594 218.628906 15.058594 C 217.496094 15.058594 216.734375 14.199219 216.734375 12.890625 C 216.734375 11.933594 217.066406 11.308594 217.925781 10.605469 Z M 218.667969 9.453125 C 217.339844 8.59375 216.792969 7.910156 216.792969 7.070312 C 216.792969 6.210938 217.457031 5.585938 218.414062 5.585938 C 219.429688 5.585938 220.074219 6.25 220.074219 7.285156 C 220.074219 8.125 219.644531 8.808594 218.804688 9.375 C 218.726562 9.414062 218.726562 9.414062 218.667969 9.453125 Z M 218.667969 9.453125 "/>
<path style=" stroke:none;fill-rule:nonzero;fill:rgb(0%,0%,0%);fill-opacity:1;" d="M 226.023438 5.175781 C 225.203125 5.175781 224.578125 5.429688 224.03125 5.957031 C 223.152344 6.777344 222.585938 8.496094 222.585938 10.253906 C 222.585938 11.875 223.09375 13.632812 223.796875 14.472656 C 224.34375 15.117188 225.105469 15.488281 225.964844 15.488281 C 226.726562 15.488281 227.371094 15.234375 227.917969 14.707031 C 228.777344 13.886719 229.34375 12.148438 229.34375 10.351562 C 229.34375 7.285156 227.996094 5.175781 226.023438 5.175781 Z M 225.984375 5.566406 C 227.234375 5.566406 227.917969 7.246094 227.917969 10.371094 C 227.917969 13.496094 227.253906 15.097656 225.964844 15.097656 C 224.675781 15.097656 224.03125 13.496094 224.03125 10.390625 C 224.03125 7.226562 224.695312 5.566406 225.984375 5.566406 Z M 225.984375 5.566406 "/>
<path style=" stroke:none;fill-rule:nonzero;fill:rgb(0%,0%,0%);fill-opacity:1;" d="M 235.316406 13.789062 C 234.867188 13.789062 234.496094 14.160156 234.496094 14.628906 C 234.496094 15.058594 234.867188 15.429688 235.296875 15.429688 C 235.765625 15.429688 236.136719 15.058594 236.136719 14.628906 C 236.136719 14.160156 235.765625 13.789062 235.316406 13.789062 Z M 235.316406 13.789062 "/>
<path style=" stroke:none;fill-rule:nonzero;fill:rgb(0%,0%,0%);fill-opacity:1;" d="M 244.226562 11.816406 L 242.703125 11.816406 L 242.703125 5.175781 L 242.039062 5.175781 L 237.351562 11.816406 L 237.351562 12.773438 L 241.550781 12.773438 L 241.550781 15.273438 L 242.703125 15.273438 L 242.703125 12.773438 L 244.226562 12.773438 Z M 241.53125 11.816406 L 237.957031 11.816406 L 241.53125 6.699219 Z M 241.53125 11.816406 "/>
<path style=" stroke:none;fill-rule:nonzero;fill:rgb(0%,0%,0%);fill-opacity:1;" d="M 251.699219 11.816406 L 250.175781 11.816406 L 250.175781 5.175781 L 249.511719 5.175781 L 244.824219 11.816406 L 244.824219 12.773438 L 249.023438 12.773438 L 249.023438 15.273438 L 250.175781 15.273438 L 250.175781 12.773438 L 251.699219 12.773438 Z M 249.003906 11.816406 L 245.429688 11.816406 L 249.003906 6.699219 Z M 249.003906 11.816406 "/>
<path style=" stroke:none;fill-rule:nonzero;fill:rgb(0%,0%,0%);fill-opacity:1;" d="M 253 15.605469 C 254.679688 15.410156 255.5 15.117188 256.515625 14.394531 C 258.058594 13.261719 258.976562 11.40625 258.976562 9.394531 C 258.976562 6.914062 257.609375 5.175781 255.675781 5.175781 C 253.898438 5.175781 252.570312 6.679688 252.570312 8.691406 C 252.570312 10.527344 253.644531 11.738281 255.265625 11.738281 C 256.085938 11.738281 256.710938 11.484375 257.492188 10.878906 C 256.886719 13.320312 255.226562 14.921875 252.960938 15.3125 Z M 257.53125 9.960938 C 257.53125 10.273438 257.472656 10.410156 257.296875 10.527344 C 256.886719 10.898438 256.339844 11.09375 255.792969 11.09375 C 254.660156 11.09375 253.9375 9.960938 253.9375 8.183594 C 253.9375 7.34375 254.191406 6.445312 254.503906 6.054688 C 254.757812 5.761719 255.128906 5.585938 255.558594 5.585938 C 256.867188 5.585938 257.53125 6.875 257.53125 9.394531 Z M 257.53125 9.960938 "/>
<path style=" stroke:none;fill-rule:nonzero;fill:rgb(0%,0%,0%);fill-opacity:1;" d="M 261.878906 10.351562 C 262.757812 10.351562 263.109375 10.371094 263.460938 10.507812 C 264.398438 10.839844 264.964844 11.679688 264.964844 12.714844 C 264.964844 13.964844 264.125 14.941406 263.011719 14.941406 C 262.621094 14.941406 262.308594 14.84375 261.761719 14.472656 C 261.3125 14.21875 261.058594 14.101562 260.804688 14.101562 C 260.453125 14.101562 260.238281 14.316406 260.238281 14.628906 C 260.238281 15.15625 260.882812 15.488281 261.917969 15.488281 C 263.070312 15.488281 264.261719 15.097656 264.964844 14.472656 C 265.667969 13.867188 266.039062 13.007812 266.039062 11.992188 C 266.039062 11.230469 265.804688 10.527344 265.375 10.078125 C 265.082031 9.746094 264.789062 9.570312 264.144531 9.277344 C 265.160156 8.574219 265.53125 8.027344 265.53125 7.226562 C 265.53125 6.015625 264.59375 5.175781 263.207031 5.175781 C 262.464844 5.175781 261.800781 5.429688 261.273438 5.898438 C 260.824219 6.308594 260.589844 6.699219 260.257812 7.597656 L 260.492188 7.65625 C 261.097656 6.5625 261.78125 6.074219 262.71875 6.074219 C 263.695312 6.074219 264.359375 6.71875 264.359375 7.675781 C 264.359375 8.203125 264.144531 8.75 263.753906 9.121094 C 263.304688 9.570312 262.894531 9.785156 261.878906 10.15625 Z M 261.878906 10.351562 "/>
<path style=" stroke:none;fill-rule:nonzero;fill:rgb(0%,0%,0%);fill-opacity:1;" d="M 275.15625 5.175781 L 272.460938 6.523438 L 272.460938 6.738281 C 272.636719 6.660156 272.8125 6.601562 272.871094 6.582031 C 273.125 6.464844 273.378906 6.40625 273.535156 6.40625 C 273.847656 6.40625 273.984375 6.640625 273.984375 7.109375 L 273.984375 13.886719 C 273.984375 14.375 273.867188 14.726562 273.632812 14.863281 C 273.398438 14.980469 273.183594 15.039062 272.558594 15.058594 L 272.558594 15.273438 L 276.679688 15.273438 L 276.679688 15.058594 C 275.507812 15.039062 275.273438 14.882812 275.273438 14.160156 L 275.273438 5.195312 Z M 275.15625 5.175781 "/>
<path style=" stroke:none;fill-rule:nonzero;fill:rgb(0%,0%,0%);fill-opacity:1;" d="M 280.148438 13.789062 C 279.699219 13.789062 279.328125 14.160156 279.328125 14.628906 C 279.328125 15.058594 279.699219 15.429688 280.128906 15.429688 C 280.597656 15.429688 280.96875 15.058594 280.96875 14.628906 C 280.96875 14.160156 280.597656 13.789062 280.148438 13.789062 Z M 280.148438 13.789062 "/>
<path style=" stroke:none;fill-rule:nonzero;fill:rgb(0%,0%,0%);fill-opacity:1;" d="M 288.515625 13.789062 C 288.066406 13.789062 287.695312 14.160156 287.695312 14.628906 C 287.695312 15.058594 288.066406 15.429688 288.496094 15.429688 C 288.964844 15.429688 289.335938 15.058594 289.335938 14.628906 C 289.335938 14.160156 288.964844 13.789062 288.515625 13.789062 Z M 288.515625 13.789062 "/>
<path style=" stroke:none;fill-rule:nonzero;fill:rgb(0%,0%,0%);fill-opacity:1;" d="M 292.664062 10.351562 C 293.542969 10.351562 293.894531 10.371094 294.246094 10.507812 C 295.183594 10.839844 295.75 11.679688 295.75 12.714844 C 295.75 13.964844 294.910156 14.941406 293.796875 14.941406 C 293.40625 14.941406 293.09375 14.84375 292.546875 14.472656 C 292.097656 14.21875 291.84375 14.101562 291.589844 14.101562 C 291.238281 14.101562 291.023438 14.316406 291.023438 14.628906 C 291.023438 15.15625 291.667969 15.488281 292.703125 15.488281 C 293.855469 15.488281 295.046875 15.097656 295.75 14.472656 C 296.453125 13.867188 296.824219 13.007812 296.824219 11.992188 C 296.824219 11.230469 296.589844 10.527344 296.160156 10.078125 C 295.867188 9.746094 295.574219 9.570312 294.929688 9.277344 C 295.945312 8.574219 296.316406 8.027344 296.316406 7.226562 C 296.316406 6.015625 295.378906 5.175781 293.992188 5.175781 C 293.25 5.175781 292.585938 5.429688 292.058594 5.898438 C 291.609375 6.308594 291.375 6.699219 291.042969 7.597656 L 291.277344 7.65625 C 291.882812 6.5625 292.566406 6.074219 293.503906 6.074219 C 294.480469 6.074219 295.144531 6.71875 295.144531 7.675781 C 295.144531 8.203125 294.929688 8.75 294.539062 9.121094 C 294.089844 9.570312 293.679688 9.785156 292.664062 10.15625 Z M 292.664062 10.351562 "/>
<path style=" stroke:none;fill-rule:nonzero;fill:rgb(0%,0%,0%);fill-opacity:1;" d="M 304.511719 5.058594 C 302.8125 5.195312 301.953125 5.488281 300.859375 6.25 C 299.238281 7.402344 298.359375 9.101562 298.359375 11.113281 C 298.359375 12.402344 298.769531 13.710938 299.414062 14.472656 C 299.980469 15.117188 300.78125 15.488281 301.699219 15.488281 C 303.554688 15.488281 304.84375 14.0625 304.84375 11.992188 C 304.84375 10.097656 303.75 8.886719 302.03125 8.886719 C 301.386719 8.886719 301.054688 8.984375 300.117188 9.550781 C 300.527344 7.285156 302.207031 5.683594 304.550781 5.292969 Z M 301.464844 9.570312 C 302.753906 9.570312 303.496094 10.644531 303.496094 12.5 C 303.496094 14.160156 302.910156 15.058594 301.875 15.058594 C 300.546875 15.058594 299.746094 13.652344 299.746094 11.347656 C 299.746094 10.585938 299.863281 10.15625 300.175781 9.941406 C 300.488281 9.707031 300.9375 9.570312 301.464844 9.570312 Z M 301.464844 9.570312 "/>
<path style=" stroke:none;fill-rule:nonzero;fill:rgb(0%,0%,0%);fill-opacity:1;" d="M 312.019531 5.390625 L 306.492188 5.390625 L 305.613281 7.578125 L 305.867188 7.695312 C 306.511719 6.679688 306.785156 6.484375 307.605469 6.484375 L 310.847656 6.484375 L 307.898438 15.390625 L 308.855469 15.390625 L 312.019531 5.625 Z M 312.019531 5.390625 "/>
<path style=" stroke:none;fill-rule:nonzero;fill:rgb(0%,0%,0%);fill-opacity:1;" d="M 313.671875 15.605469 C 315.351562 15.410156 316.171875 15.117188 317.1875 14.394531 C 318.730469 13.261719 319.648438 11.40625 319.648438 9.394531 C 319.648438 6.914062 318.28125 5.175781 316.347656 5.175781 C 314.570312 5.175781 313.242188 6.679688 313.242188 8.691406 C 313.242188 10.527344 314.316406 11.738281 315.9375 11.738281 C 316.757812 11.738281 317.382812 11.484375 318.164062 10.878906 C 317.558594 13.320312 315.898438 14.921875 313.632812 15.3125 Z M 318.203125 9.960938 C 318.203125 10.273438 318.144531 10.410156 317.96875 10.527344 C 317.558594 10.898438 317.011719 11.09375 316.464844 11.09375 C 315.332031 11.09375 314.609375 9.960938 314.609375 8.183594 C 314.609375 7.34375 314.863281 6.445312 315.175781 6.054688 C 315.429688 5.761719 315.800781 5.585938 316.230469 5.585938 C 317.539062 5.585938 318.203125 6.875 318.203125 9.394531 Z M 318.203125 9.960938 "/>
<path style=" stroke:none;fill-rule:nonzero;fill:rgb(0%,0%,0%);fill-opacity:1;" d="M 328.355469 5.175781 L 325.660156 6.523438 L 325.660156 6.738281 C 325.835938 6.660156 326.011719 6.601562 326.070312 6.582031 C 326.324219 6.464844 326.578125 6.40625 326.734375 6.40625 C 327.046875 6.40625 327.183594 6.640625 327.183594 7.109375 L 327.183594 13.886719 C 327.183594 14.375 327.066406 14.726562 326.832031 14.863281 C 326.597656 14.980469 326.382812 15.039062 325.757812 15.058594 L 325.757812 15.273438 L 329.878906 15.273438 L 329.878906 15.058594 C 328.707031 15.039062 328.472656 14.882812 328.472656 14.160156 L 328.472656 5.195312 Z M 328.355469 5.175781 "/>
<path style=" stroke:none;fill-rule:nonzero;fill:rgb(0%,0%,0%);fill-opacity:1;" d="M 333.347656 13.789062 C 332.898438 13.789062 332.527344 14.160156 332.527344 14.628906 C 332.527344 15.058594 332.898438 15.429688 333.328125 15.429688 C 333.796875 15.429688 334.167969 15.058594 334.167969 14.628906 C 334.167969 14.160156 333.796875 13.789062 333.347656 13.789062 Z M 333.347656 13.789062 "/>
<path style=" stroke:none;fill-rule:nonzero;fill:rgb(0%,0%,0%);fill-opacity:1;" d="M 342.300781 13.222656 L 342.105469 13.144531 C 341.558594 14.003906 341.363281 14.140625 340.699219 14.140625 L 337.125 14.140625 L 339.625 11.503906 C 340.972656 10.117188 341.539062 8.984375 341.539062 7.8125 C 341.539062 6.328125 340.328125 5.175781 338.785156 5.175781 C 337.964844 5.175781 337.183594 5.507812 336.636719 6.09375 C 336.148438 6.601562 335.933594 7.089844 335.679688 8.144531 L 335.992188 8.222656 C 336.578125 6.757812 337.125 6.269531 338.160156 6.269531 C 339.410156 6.269531 340.269531 7.128906 340.269531 8.378906 C 340.269531 9.550781 339.566406 10.9375 338.316406 12.265625 L 335.660156 15.097656 L 335.660156 15.273438 L 341.480469 15.273438 Z M 342.300781 13.222656 "/>
<path style=" stroke:none;fill-rule:nonzero;fill:rgb(0%,0%,0%);fill-opacity:1;" d="M 348.292969 13.789062 C 347.84375 13.789062 347.472656 14.160156 347.472656 14.628906 C 347.472656 15.058594 347.84375 15.429688 348.273438 15.429688 C 348.742188 15.429688 349.113281 15.058594 349.113281 14.628906 C 349.113281 14.160156 348.742188 13.789062 348.292969 13.789062 Z M 348.292969 13.789062 "/>
<path style=" stroke:none;fill-rule:nonzero;fill:rgb(0%,0%,0%);fill-opacity:1;" d="M 352.4375 10.351562 C 353.316406 10.351562 353.667969 10.371094 354.019531 10.507812 C 354.957031 10.839844 355.523438 11.679688 355.523438 12.714844 C 355.523438 13.964844 354.683594 14.941406 353.570312 14.941406 C 353.179688 14.941406 352.867188 14.84375 352.320312 14.472656 C 351.871094 14.21875 351.617188 14.101562 351.363281 14.101562 C 351.011719 14.101562 350.796875 14.316406 350.796875 14.628906 C 350.796875 15.15625 351.441406 15.488281 352.476562 15.488281 C 353.628906 15.488281 354.820312 15.097656 355.523438 14.472656 C 356.226562 13.867188 356.597656 13.007812 356.597656 11.992188 C 356.597656 11.230469 356.363281 10.527344 355.933594 10.078125 C 355.640625 9.746094 355.347656 9.570312 354.703125 9.277344 C 355.71875 8.574219 356.089844 8.027344 356.089844 7.226562 C 356.089844 6.015625 355.152344 5.175781 353.765625 5.175781 C 353.023438 5.175781 352.359375 5.429688 351.832031 5.898438 C 351.382812 6.308594 351.148438 6.699219 350.816406 7.597656 L 351.050781 7.65625 C 351.65625 6.5625 352.339844 6.074219 353.277344 6.074219 C 354.253906 6.074219 354.917969 6.71875 354.917969 7.675781 C 354.917969 8.203125 354.703125 8.75 354.3125 9.121094 C 353.863281 9.570312 353.453125 9.785156 352.4375 10.15625 Z M 352.4375 10.351562 "/>
<path style=" stroke:none;fill-rule:nonzero;fill:rgb(0%,0%,0%);fill-opacity:1;" d="M 361.414062 5.175781 C 360.59375 5.175781 359.96875 5.429688 359.421875 5.957031 C 358.542969 6.777344 357.976562 8.496094 357.976562 10.253906 C 357.976562 11.875 358.484375 13.632812 359.1875 14.472656 C 359.734375 15.117188 360.496094 15.488281 361.355469 15.488281 C 362.117188 15.488281 362.761719 15.234375 363.308594 14.707031 C 364.167969 13.886719 364.734375 12.148438 364.734375 10.351562 C 364.734375 7.285156 363.386719 5.175781 361.414062 5.175781 Z M 361.375 5.566406 C 362.625 5.566406 363.308594 7.246094 363.308594 10.371094 C 363.308594 13.496094 362.644531 15.097656 361.355469 15.097656 C 360.066406 15.097656 359.421875 13.496094 359.421875 10.390625 C 359.421875 7.226562 360.085938 5.566406 361.375 5.566406 Z M 361.375 5.566406 "/>
<path style=" stroke:none;fill-rule:nonzero;fill:rgb(0%,0%,0%);fill-opacity:1;" d="M 369.453125 5.175781 L 366.757812 6.523438 L 366.757812 6.738281 C 366.933594 6.660156 367.109375 6.601562 367.167969 6.582031 C 367.421875 6.464844 367.675781 6.40625 367.832031 6.40625 C 368.144531 6.40625 368.28125 6.640625 368.28125 7.109375 L 368.28125 13.886719 C 368.28125 14.375 368.164062 14.726562 367.929688 14.863281 C 367.695312 14.980469 367.480469 15.039062 366.855469 15.058594 L 366.855469 15.273438 L 370.976562 15.273438 L 370.976562 15.058594 C 369.804688 15.039062 369.570312 14.882812 369.570312 14.160156 L 369.570312 5.195312 Z M 369.453125 5.175781 "/>
<path style=" stroke:none;fill-rule:nonzero;fill:rgb(0%,0%,0%);fill-opacity:1;" d="M 379.660156 13.222656 L 379.464844 13.144531 C 378.917969 14.003906 378.722656 14.140625 378.058594 14.140625 L 374.484375 14.140625 L 376.984375 11.503906 C 378.332031 10.117188 378.898438 8.984375 378.898438 7.8125 C 378.898438 6.328125 377.6875 5.175781 376.144531 5.175781 C 375.324219 5.175781 374.542969 5.507812 373.996094 6.09375 C 373.507812 6.601562 373.292969 7.089844 373.039062 8.144531 L 373.351562 8.222656 C 373.9375 6.757812 374.484375 6.269531 375.519531 6.269531 C 376.769531 6.269531 377.628906 7.128906 377.628906 8.378906 C 377.628906 9.550781 376.925781 10.9375 375.675781 12.265625 L 373.019531 15.097656 L 373.019531 15.273438 L 378.839844 15.273438 Z M 379.660156 13.222656 "/>
<path style=" stroke:none;fill-rule:nonzero;fill:rgb(0%,0%,0%);fill-opacity:1;" d="M 388.132812 5.175781 L 385.4375 6.523438 L 385.4375 6.738281 C 385.613281 6.660156 385.789062 6.601562 385.847656 6.582031 C 386.101562 6.464844 386.355469 6.40625 386.511719 6.40625 C 386.824219 6.40625 386.960938 6.640625 386.960938 7.109375 L 386.960938 13.886719 C 386.960938 14.375 386.84375 14.726562 386.609375 14.863281 C 386.375 14.980469 386.160156 15.039062 385.535156 15.058594 L 385.535156 15.273438 L 389.65625 15.273438 L 389.65625 15.058594 C 388.484375 15.039062 388.25 14.882812 388.25 14.160156 L 388.25 5.195312 Z M 388.132812 5.175781 "/>
<path style=" stroke:none;fill-rule:nonzero;fill:rgb(0%,0%,0%);fill-opacity:1;" d="M 393.125 13.789062 C 392.675781 13.789062 392.304688 14.160156 392.304688 14.628906 C 392.304688 15.058594 392.675781 15.429688 393.105469 15.429688 C 393.574219 15.429688 393.945312 15.058594 393.945312 14.628906 C 393.945312 14.160156 393.574219 13.789062 393.125 13.789062 Z M 393.125 13.789062 "/>
<path style=" stroke:none;fill-rule:nonzero;fill:rgb(0%,0%,0%);fill-opacity:1;" d="M 402.035156 11.816406 L 400.511719 11.816406 L 400.511719 5.175781 L 399.847656 5.175781 L 395.160156 11.816406 L 395.160156 12.773438 L 399.359375 12.773438 L 399.359375 15.273438 L 400.511719 15.273438 L 400.511719 12.773438 L 402.035156 12.773438 Z M 399.339844 11.816406 L 395.765625 11.816406 L 399.339844 6.699219 Z M 399.339844 11.816406 "/>
<path style=" stroke:none;fill-rule:nonzero;fill:rgb(0%,0%,0%);fill-opacity:1;" d="M 408.070312 13.789062 C 407.621094 13.789062 407.25 14.160156 407.25 14.628906 C 407.25 15.058594 407.621094 15.429688 408.050781 15.429688 C 408.519531 15.429688 408.890625 15.058594 408.890625 14.628906 C 408.890625 14.160156 408.519531 13.789062 408.070312 13.789062 Z M 408.070312 13.789062 "/>
<path style=" stroke:none;fill-rule:nonzero;fill:rgb(0%,0%,0%);fill-opacity:1;" d="M 417.019531 13.222656 L 416.824219 13.144531 C 416.277344 14.003906 416.082031 14.140625 415.417969 14.140625 L 411.84375 14.140625 L 414.34375 11.503906 C 415.691406 10.117188 416.257812 8.984375 416.257812 7.8125 C 416.257812 6.328125 415.046875 5.175781 413.503906 5.175781 C 412.683594 5.175781 411.902344 5.507812 411.355469 6.09375 C 410.867188 6.601562 410.652344 7.089844 410.398438 8.144531 L 410.710938 8.222656 C 411.296875 6.757812 411.84375 6.269531 412.878906 6.269531 C 414.128906 6.269531 414.988281 7.128906 414.988281 8.378906 C 414.988281 9.550781 414.285156 10.9375 413.035156 12.265625 L 410.378906 15.097656 L 410.378906 15.273438 L 416.199219 15.273438 Z M 417.019531 13.222656 "/>
<path style=" stroke:none;fill-rule:nonzero;fill:rgb(0%,0%,0%);fill-opacity:1;" d="M 424.453125 11.816406 L 422.929688 11.816406 L 422.929688 5.175781 L 422.265625 5.175781 L 417.578125 11.816406 L 417.578125 12.773438 L 421.777344 12.773438 L 421.777344 15.273438 L 422.929688 15.273438 L 422.929688 12.773438 L 424.453125 12.773438 Z M 421.757812 11.816406 L 418.183594 11.816406 L 421.757812 6.699219 Z M 421.757812 11.816406 "/>
<path style=" stroke:none;fill-rule:nonzero;fill:rgb(0%,0%,0%);fill-opacity:1;" d="M 431.535156 5.058594 C 429.835938 5.195312 428.976562 5.488281 427.882812 6.25 C 426.261719 7.402344 425.382812 9.101562 425.382812 11.113281 C 425.382812 12.402344 425.792969 13.710938 426.4375 14.472656 C 427.003906 15.117188 427.804688 15.488281 428.722656 15.488281 C 430.578125 15.488281 431.867188 14.0625 431.867188 11.992188 C 431.867188 10.097656 430.773438 8.886719 429.054688 8.886719 C 428.410156 8.886719 428.078125 8.984375 427.140625 9.550781 C 427.550781 7.285156 429.230469 5.683594 431.574219 5.292969 Z M 428.488281 9.570312 C 429.777344 9.570312 430.519531 10.644531 430.519531 12.5 C 430.519531 14.160156 429.933594 15.058594 428.898438 15.058594 C 427.570312 15.058594 426.769531 13.652344 426.769531 11.347656 C 426.769531 10.585938 426.886719 10.15625 427.199219 9.941406 C 427.511719 9.707031 427.960938 9.570312 428.488281 9.570312 Z M 428.488281 9.570312 "/>
<path style=" stroke:none;fill-rule:nonzero;fill:rgb(0%,0%,0%);fill-opacity:1;" d="M 439.007812 5.058594 C 437.308594 5.195312 436.449219 5.488281 435.355469 6.25 C 433.734375 7.402344 432.855469 9.101562 432.855469 11.113281 C 432.855469 12.402344 433.265625 13.710938 433.910156 14.472656 C 434.476562 15.117188 435.277344 15.488281 436.195312 15.488281 C 438.050781 15.488281 439.339844 14.0625 439.339844 11.992188 C 439.339844 10.097656 438.246094 8.886719 436.527344 8.886719 C 435.882812 8.886719 435.550781 8.984375 434.613281 9.550781 C 435.023438 7.285156 436.703125 5.683594 439.046875 5.292969 Z M 435.960938 9.570312 C 437.25 9.570312 437.992188 10.644531 437.992188 12.5 C 437.992188 14.160156 437.40625 15.058594 436.371094 15.058594 C 435.042969 15.058594 434.242188 13.652344 434.242188 11.347656 C 434.242188 10.585938 434.359375 10.15625 434.671875 9.941406 C 434.984375 9.707031 435.433594 9.570312 435.960938 9.570312 Z M 435.960938 9.570312 "/>
<path style=" stroke:none;fill-rule:nonzero;fill:rgb(0%,0%,0%);fill-opacity:1;" d="M 447.910156 5.175781 L 445.214844 6.523438 L 445.214844 6.738281 C 445.390625 6.660156 445.566406 6.601562 445.625 6.582031 C 445.878906 6.464844 446.132812 6.40625 446.289062 6.40625 C 446.601562 6.40625 446.738281 6.640625 446.738281 7.109375 L 446.738281 13.886719 C 446.738281 14.375 446.621094 14.726562 446.386719 14.863281 C 446.152344 14.980469 445.9375 15.039062 445.3125 15.058594 L 445.3125 15.273438 L 449.433594 15.273438 L 449.433594 15.058594 C 448.261719 15.039062 448.027344 14.882812 448.027344 14.160156 L 448.027344 5.195312 Z M 447.910156 5.175781 "/>
<path style=" stroke:none;fill-rule:nonzero;fill:rgb(0%,0%,0%);fill-opacity:1;" d="M 452.902344 13.789062 C 452.453125 13.789062 452.082031 14.160156 452.082031 14.628906 C 452.082031 15.058594 452.453125 15.429688 452.882812 15.429688 C 453.351562 15.429688 453.722656 15.058594 453.722656 14.628906 C 453.722656 14.160156 453.351562 13.789062 452.902344 13.789062 Z M 452.902344 13.789062 "/>
<path style=" stroke:none;fill-rule:nonzero;fill:rgb(0%,0%,0%);fill-opacity:1;" d="M 461.421875 5.058594 C 459.722656 5.195312 458.863281 5.488281 457.769531 6.25 C 456.148438 7.402344 455.269531 9.101562 455.269531 11.113281 C 455.269531 12.402344 455.679688 13.710938 456.324219 14.472656 C 456.890625 15.117188 457.691406 15.488281 458.609375 15.488281 C 460.464844 15.488281 461.753906 14.0625 461.753906 11.992188 C 461.753906 10.097656 460.660156 8.886719 458.941406 8.886719 C 458.296875 8.886719 457.964844 8.984375 457.027344 9.550781 C 457.4375 7.285156 459.117188 5.683594 461.460938 5.292969 Z M 458.375 9.570312 C 459.664062 9.570312 460.40625 10.644531 460.40625 12.5 C 460.40625 14.160156 459.820312 15.058594 458.785156 15.058594 C 457.457031 15.058594 456.65625 13.652344 456.65625 11.347656 C 456.65625 10.585938 456.773438 10.15625 457.085938 9.941406 C 457.398438 9.707031 457.847656 9.570312 458.375 9.570312 Z M 458.375 9.570312 "/>
<path style=" stroke:none;fill-rule:nonzero;fill:rgb(0%,0%,0%);fill-opacity:1;" d="M 467.84375 13.789062 C 467.394531 13.789062 467.023438 14.160156 467.023438 14.628906 C 467.023438 15.058594 467.394531 15.429688 467.824219 15.429688 C 468.292969 15.429688 468.664062 15.058594 468.664062 14.628906 C 468.664062 14.160156 468.292969 13.789062 467.84375 13.789062 Z M 467.84375 13.789062 "/>
<path style=" stroke:none;fill-rule:nonzero;fill:rgb(0%,0%,0%);fill-opacity:1;" d="M 476.796875 13.222656 L 476.601562 13.144531 C 476.054688 14.003906 475.859375 14.140625 475.195312 14.140625 L 471.621094 14.140625 L 474.121094 11.503906 C 475.46875 10.117188 476.035156 8.984375 476.035156 7.8125 C 476.035156 6.328125 474.824219 5.175781 473.28125 5.175781 C 472.460938 5.175781 471.679688 5.507812 471.132812 6.09375 C 470.644531 6.601562 470.429688 7.089844 470.175781 8.144531 L 470.488281 8.222656 C 471.074219 6.757812 471.621094 6.269531 472.65625 6.269531 C 473.90625 6.269531 474.765625 7.128906 474.765625 8.378906 C 474.765625 9.550781 474.0625 10.9375 472.8125 12.265625 L 470.15625 15.097656 L 470.15625 15.273438 L 475.976562 15.273438 Z M 476.796875 13.222656 "/>
<path style=" stroke:none;fill-rule:nonzero;fill:rgb(0%,0%,0%);fill-opacity:1;" d="M 480.964844 5.175781 C 480.144531 5.175781 479.519531 5.429688 478.972656 5.957031 C 478.09375 6.777344 477.527344 8.496094 477.527344 10.253906 C 477.527344 11.875 478.035156 13.632812 478.738281 14.472656 C 479.285156 15.117188 480.046875 15.488281 480.90625 15.488281 C 481.667969 15.488281 482.3125 15.234375 482.859375 14.707031 C 483.71875 13.886719 484.285156 12.148438 484.285156 10.351562 C 484.285156 7.285156 482.9375 5.175781 480.964844 5.175781 Z M 480.925781 5.566406 C 482.175781 5.566406 482.859375 7.246094 482.859375 10.371094 C 482.859375 13.496094 482.195312 15.097656 480.90625 15.097656 C 479.617188 15.097656 478.972656 13.496094 478.972656 10.390625 C 478.972656 7.226562 479.636719 5.566406 480.925781 5.566406 Z M 480.925781 5.566406 "/>
<path style=" stroke:none;fill-rule:nonzero;fill:rgb(0%,0%,0%);fill-opacity:1;" d="M 489.003906 5.175781 L 486.308594 6.523438 L 486.308594 6.738281 C 486.484375 6.660156 486.660156 6.601562 486.71875 6.582031 C 486.972656 6.464844 487.226562 6.40625 487.382812 6.40625 C 487.695312 6.40625 487.832031 6.640625 487.832031 7.109375 L 487.832031 13.886719 C 487.832031 14.375 487.714844 14.726562 487.480469 14.863281 C 487.246094 14.980469 487.03125 15.039062 486.40625 15.058594 L 486.40625 15.273438 L 490.527344 15.273438 L 490.527344 15.058594 C 489.355469 15.039062 489.121094 14.882812 489.121094 14.160156 L 489.121094 5.195312 Z M 489.003906 5.175781 "/>
<path style=" stroke:none;fill-rule:nonzero;fill:rgb(0%,0%,0%);fill-opacity:1;" d="M 493 15.605469 C 494.679688 15.410156 495.5 15.117188 496.515625 14.394531 C 498.058594 13.261719 498.976562 11.40625 498.976562 9.394531 C 498.976562 6.914062 497.609375 5.175781 495.675781 5.175781 C 493.898438 5.175781 492.570312 6.679688 492.570312 8.691406 C 492.570312 10.527344 493.644531 11.738281 495.265625 11.738281 C 496.085938 11.738281 496.710938 11.484375 497.492188 10.878906 C 496.886719 13.320312 495.226562 14.921875 492.960938 15.3125 Z M 497.53125 9.960938 C 497.53125 10.273438 497.472656 10.410156 497.296875 10.527344 C 496.886719 10.898438 496.339844 11.09375 495.792969 11.09375 C 494.660156 11.09375 493.9375 9.960938 493.9375 8.183594 C 493.9375 7.34375 494.191406 6.445312 494.503906 6.054688 C 494.757812 5.761719 495.128906 5.585938 495.558594 5.585938 C 496.867188 5.585938 497.53125 6.875 497.53125 9.394531 Z M 497.53125 9.960938 "/>
<path style=" stroke:none;fill-rule:nonzero;fill:rgb(0%,0%,0%);fill-opacity:1;" d="M 507.683594 5.175781 L 504.988281 6.523438 L 504.988281 6.738281 C 505.164062 6.660156 505.339844 6.601562 505.398438 6.582031 C 505.652344 6.464844 505.90625 6.40625 506.0625 6.40625 C 506.375 6.40625 506.511719 6.640625 506.511719 7.109375 L 506.511719 13.886719 C 506.511719 14.375 506.394531 14.726562 506.160156 14.863281 C 505.925781 14.980469 505.710938 15.039062 505.085938 15.058594 L 505.085938 15.273438 L 509.207031 15.273438 L 509.207031 15.058594 C 508.035156 15.039062 507.800781 14.882812 507.800781 14.160156 L 507.800781 5.195312 Z M 507.683594 5.175781 "/>
<path style=" stroke:none;fill-rule:nonzero;fill:rgb(0%,0%,0%);fill-opacity:1;" d="M 512.675781 13.789062 C 512.226562 13.789062 511.855469 14.160156 511.855469 14.628906 C 511.855469 15.058594 512.226562 15.429688 512.65625 15.429688 C 513.125 15.429688 513.496094 15.058594 513.496094 14.628906 C 513.496094 14.160156 513.125 13.789062 512.675781 13.789062 Z M 512.675781 13.789062 "/>
<path style=" stroke:none;fill-rule:nonzero;fill:rgb(0%,0%,0%);fill-opacity:1;" d="M 518.875 9.726562 C 520.359375 8.945312 520.867188 8.320312 520.867188 7.285156 C 520.867188 6.074219 519.792969 5.175781 518.308594 5.175781 C 516.667969 5.175781 515.457031 6.171875 515.457031 7.539062 C 515.457031 8.496094 515.75 8.945312 517.3125 10.3125 C 515.710938 11.542969 515.378906 11.992188 515.378906 13.007812 C 515.378906 14.472656 516.550781 15.488281 518.25 15.488281 C 520.046875 15.488281 521.179688 14.492188 521.179688 12.949219 C 521.179688 11.816406 520.671875 11.074219 518.875 9.726562 Z M 518.601562 11.269531 C 519.695312 12.050781 520.046875 12.578125 520.046875 13.417969 C 520.046875 14.394531 519.382812 15.058594 518.40625 15.058594 C 517.273438 15.058594 516.511719 14.199219 516.511719 12.890625 C 516.511719 11.933594 516.84375 11.308594 517.703125 10.605469 Z M 518.445312 9.453125 C 517.117188 8.59375 516.570312 7.910156 516.570312 7.070312 C 516.570312 6.210938 517.234375 5.585938 518.191406 5.585938 C 519.207031 5.585938 519.851562 6.25 519.851562 7.285156 C 519.851562 8.125 519.421875 8.808594 518.582031 9.375 C 518.503906 9.414062 518.503906 9.414062 518.445312 9.453125 Z M 518.445312 9.453125 "/>
<path style=" stroke:none;fill-rule:nonzero;fill:rgb(0%,0%,0%);fill-opacity:1;" d="M 527.621094 13.789062 C 527.171875 13.789062 526.800781 14.160156 526.800781 14.628906 C 526.800781 15.058594 527.171875 15.429688 527.601562 15.429688 C 528.070312 15.429688 528.441406 15.058594 528.441406 14.628906 C 528.441406 14.160156 528.070312 13.789062 527.621094 13.789062 Z M 527.621094 13.789062 "/>
<path style=" stroke:none;fill-rule:nonzero;fill:rgb(0%,0%,0%);fill-opacity:1;" d="M 533.835938 5.175781 L 531.140625 6.523438 L 531.140625 6.738281 C 531.316406 6.660156 531.492188 6.601562 531.550781 6.582031 C 531.804688 6.464844 532.058594 6.40625 532.214844 6.40625 C 532.527344 6.40625 532.664062 6.640625 532.664062 7.109375 L 532.664062 13.886719 C 532.664062 14.375 532.546875 14.726562 532.3125 14.863281 C 532.078125 14.980469 531.863281 15.039062 531.238281 15.058594 L 531.238281 15.273438 L 535.359375 15.273438 L 535.359375 15.058594 C 534.1875 15.039062 533.953125 14.882812 533.953125 14.160156 L 533.953125 5.195312 Z M 533.835938 5.175781 "/>
<path style=" stroke:none;fill-rule:nonzero;fill:rgb(0%,0%,0%);fill-opacity:1;" d="M 543.613281 5.058594 C 541.914062 5.195312 541.054688 5.488281 539.960938 6.25 C 538.339844 7.402344 537.460938 9.101562 537.460938 11.113281 C 537.460938 12.402344 537.871094 13.710938 538.515625 14.472656 C 539.082031 15.117188 539.882812 15.488281 540.800781 15.488281 C 542.65625 15.488281 543.945312 14.0625 543.945312 11.992188 C 543.945312 10.097656 542.851562 8.886719 541.132812 8.886719 C 540.488281 8.886719 540.15625 8.984375 539.21875 9.550781 C 539.628906 7.285156 541.308594 5.683594 543.652344 5.292969 Z M 540.566406 9.570312 C 541.855469 9.570312 542.597656 10.644531 542.597656 12.5 C 542.597656 14.160156 542.011719 15.058594 540.976562 15.058594 C 539.648438 15.058594 538.847656 13.652344 538.847656 11.347656 C 538.847656 10.585938 538.964844 10.15625 539.277344 9.941406 C 539.589844 9.707031 540.039062 9.570312 540.566406 9.570312 Z M 540.566406 9.570312 "/>
<path style=" stroke:none;fill-rule:nonzero;fill:rgb(0%,0%,0%);fill-opacity:1;" d="M 547.121094 6.5625 L 550.050781 6.5625 C 550.304688 6.5625 550.363281 6.523438 550.402344 6.425781 L 550.96875 5.097656 L 550.832031 5 C 550.617188 5.3125 550.460938 5.390625 550.148438 5.390625 L 547.023438 5.390625 L 545.402344 8.925781 C 545.382812 8.945312 545.382812 8.964844 545.382812 9.003906 C 545.382812 9.082031 545.441406 9.121094 545.558594 9.121094 C 546.046875 9.121094 546.632812 9.21875 547.257812 9.414062 C 548.976562 9.960938 549.757812 10.898438 549.757812 12.382812 C 549.757812 13.808594 548.839844 14.921875 547.6875 14.921875 C 547.375 14.921875 547.121094 14.824219 546.691406 14.492188 C 546.203125 14.160156 545.851562 14.003906 545.539062 14.003906 C 545.109375 14.003906 544.894531 14.179688 544.894531 14.550781 C 544.894531 15.117188 545.597656 15.488281 546.730469 15.488281 C 547.980469 15.488281 549.054688 15.078125 549.796875 14.316406 C 550.5 13.652344 550.8125 12.792969 550.8125 11.660156 C 550.8125 10.585938 550.519531 9.902344 549.777344 9.140625 C 549.113281 8.496094 548.273438 8.144531 546.496094 7.832031 Z M 547.121094 6.5625 "/>
<path style=" stroke:none;fill-rule:nonzero;fill:rgb(0%,0%,0%);fill-opacity:1;" d="M 554.183594 10.351562 C 555.0625 10.351562 555.414062 10.371094 555.765625 10.507812 C 556.703125 10.839844 557.269531 11.679688 557.269531 12.714844 C 557.269531 13.964844 556.429688 14.941406 555.316406 14.941406 C 554.925781 14.941406 554.613281 14.84375 554.066406 14.472656 C 553.617188 14.21875 553.363281 14.101562 553.109375 14.101562 C 552.757812 14.101562 552.542969 14.316406 552.542969 14.628906 C 552.542969 15.15625 553.1875 15.488281 554.222656 15.488281 C 555.375 15.488281 556.566406 15.097656 557.269531 14.472656 C 557.972656 13.867188 558.34375 13.007812 558.34375 11.992188 C 558.34375 11.230469 558.109375 10.527344 557.679688 10.078125 C 557.386719 9.746094 557.09375 9.570312 556.449219 9.277344 C 557.464844 8.574219 557.835938 8.027344 557.835938 7.226562 C 557.835938 6.015625 556.898438 5.175781 555.511719 5.175781 C 554.769531 5.175781 554.105469 5.429688 553.578125 5.898438 C 553.128906 6.308594 552.894531 6.699219 552.5625 7.597656 L 552.796875 7.65625 C 553.402344 6.5625 554.085938 6.074219 555.023438 6.074219 C 556 6.074219 556.664062 6.71875 556.664062 7.675781 C 556.664062 8.203125 556.449219 8.75 556.058594 9.121094 C 555.609375 9.570312 555.199219 9.785156 554.183594 10.15625 Z M 554.183594 10.351562 "/>
<path style=" stroke:none;fill-rule:nonzero;fill:rgb(0%,0%,0%);fill-opacity:1;" d="M 570.195312 13.222656 L 570 13.144531 C 569.453125 14.003906 569.257812 14.140625 568.59375 14.140625 L 565.019531 14.140625 L 567.519531 11.503906 C 568.867188 10.117188 569.433594 8.984375 569.433594 7.8125 C 569.433594 6.328125 568.222656 5.175781 566.679688 5.175781 C 565.859375 5.175781 565.078125 5.507812 564.53125 6.09375 C 564.042969 6.601562 563.828125 7.089844 563.574219 8.144531 L 563.886719 8.222656 C 564.472656 6.757812 565.019531 6.269531 566.054688 6.269531 C 567.304688 6.269531 568.164062 7.128906 568.164062 8.378906 C 568.164062 9.550781 567.460938 10.9375 566.210938 12.265625 L 563.554688 15.097656 L 563.554688 15.273438 L 569.375 15.273438 Z M 570.195312 13.222656 "/>
<path style=" stroke:none;fill-rule:nonzero;fill:rgb(0%,0%,0%);fill-opacity:1;" d="M 572.453125 13.789062 C 572.003906 13.789062 571.632812 14.160156 571.632812 14.628906 C 571.632812 15.058594 572.003906 15.429688 572.433594 15.429688 C 572.902344 15.429688 573.273438 15.058594 573.273438 14.628906 C 573.273438 14.160156 572.902344 13.789062 572.453125 13.789062 Z M 572.453125 13.789062 "/>
<path style=" stroke:none;fill-rule:nonzero;fill:rgb(0%,0%,0%);fill-opacity:1;" d="M 580.820312 13.789062 C 580.371094 13.789062 580 14.160156 580 14.628906 C 580 15.058594 580.371094 15.429688 580.800781 15.429688 C 581.269531 15.429688 581.640625 15.058594 581.640625 14.628906 C 581.640625 14.160156 581.269531 13.789062 580.820312 13.789062 Z M 580.820312 13.789062 "/>
<path style=" stroke:none;fill-rule:nonzero;fill:rgb(0%,0%,0%);fill-opacity:1;" d="M 587.039062 5.175781 L 584.34375 6.523438 L 584.34375 6.738281 C 584.519531 6.660156 584.695312 6.601562 584.753906 6.582031 C 585.007812 6.464844 585.261719 6.40625 585.417969 6.40625 C 585.730469 6.40625 585.867188 6.640625 585.867188 7.109375 L 585.867188 13.886719 C 585.867188 14.375 585.75 14.726562 585.515625 14.863281 C 585.28125 14.980469 585.066406 15.039062 584.441406 15.058594 L 584.441406 15.273438 L 588.5625 15.273438 L 588.5625 15.058594 C 587.390625 15.039062 587.15625 14.882812 587.15625 14.160156 L 587.15625 5.195312 Z M 587.039062 5.175781 "/>
<path style=" stroke:none;fill-rule:nonzero;fill:rgb(0%,0%,0%);fill-opacity:1;" d="M 592.441406 10.351562 C 593.320312 10.351562 593.671875 10.371094 594.023438 10.507812 C 594.960938 10.839844 595.527344 11.679688 595.527344 12.714844 C 595.527344 13.964844 594.6875 14.941406 593.574219 14.941406 C 593.183594 14.941406 592.871094 14.84375 592.324219 14.472656 C 591.875 14.21875 591.621094 14.101562 591.367188 14.101562 C 591.015625 14.101562 590.800781 14.316406 590.800781 14.628906 C 590.800781 15.15625 591.445312 15.488281 592.480469 15.488281 C 593.632812 15.488281 594.824219 15.097656 595.527344 14.472656 C 596.230469 13.867188 596.601562 13.007812 596.601562 11.992188 C 596.601562 11.230469 596.367188 10.527344 595.9375 10.078125 C 595.644531 9.746094 595.351562 9.570312 594.707031 9.277344 C 595.722656 8.574219 596.09375 8.027344 596.09375 7.226562 C 596.09375 6.015625 595.15625 5.175781 593.769531 5.175781 C 593.027344 5.175781 592.363281 5.429688 591.835938 5.898438 C 591.386719 6.308594 591.152344 6.699219 590.820312 7.597656 L 591.054688 7.65625 C 591.660156 6.5625 592.34375 6.074219 593.28125 6.074219 C 594.257812 6.074219 594.921875 6.71875 594.921875 7.675781 C 594.921875 8.203125 594.707031 8.75 594.316406 9.121094 C 593.867188 9.570312 593.457031 9.785156 592.441406 10.15625 Z M 592.441406 10.351562 "/>
<path style=" stroke:none;fill-rule:nonzero;fill:rgb(0%,0%,0%);fill-opacity:1;" d="M 600.320312 6.5625 L 603.25 6.5625 C 603.503906 6.5625 603.5625 6.523438 603.601562 6.425781 L 604.167969 5.097656 L 604.03125 5 C 603.816406 5.3125 603.660156 5.390625 603.347656 5.390625 L 600.222656 5.390625 L 598.601562 8.925781 C 598.582031 8.945312 598.582031 8.964844 598.582031 9.003906 C 598.582031 9.082031 598.640625 9.121094 598.757812 9.121094 C 599.246094 9.121094 599.832031 9.21875 600.457031 9.414062 C 602.175781 9.960938 602.957031 10.898438 602.957031 12.382812 C 602.957031 13.808594 602.039062 14.921875 600.886719 14.921875 C 600.574219 14.921875 600.320312 14.824219 599.890625 14.492188 C 599.402344 14.160156 599.050781 14.003906 598.738281 14.003906 C 598.308594 14.003906 598.09375 14.179688 598.09375 14.550781 C 598.09375 15.117188 598.796875 15.488281 599.929688 15.488281 C 601.179688 15.488281 602.253906 15.078125 602.996094 14.316406 C 603.699219 13.652344 604.011719 12.792969 604.011719 11.660156 C 604.011719 10.585938 603.71875 9.902344 602.976562 9.140625 C 602.3125 8.496094 601.472656 8.144531 599.695312 7.832031 Z M 600.320312 6.5625 "/>
<path style=" stroke:none;fill-rule:nonzero;fill:rgb(0%,0%,0%);fill-opacity:1;" d="M 607.382812 10.351562 C 608.261719 10.351562 608.613281 10.371094 608.964844 10.507812 C 609.902344 10.839844 610.46875 11.679688 610.46875 12.714844 C 610.46875 13.964844 609.628906 14.941406 608.515625 14.941406 C 608.125 14.941406 607.8125 14.84375 607.265625 14.472656 C 606.816406 14.21875 606.5625 14.101562 606.308594 14.101562 C 605.957031 14.101562 605.742188 14.316406 605.742188 14.628906 C 605.742188 15.15625 606.386719 15.488281 607.421875 15.488281 C 608.574219 15.488281 609.765625 15.097656 610.46875 14.472656 C 611.171875 13.867188 611.542969 13.007812 611.542969 11.992188 C 611.542969 11.230469 611.308594 10.527344 610.878906 10.078125 C 610.585938 9.746094 610.292969 9.570312 609.648438 9.277344 C 610.664062 8.574219 611.035156 8.027344 611.035156 7.226562 C 611.035156 6.015625 610.097656 5.175781 608.710938 5.175781 C 607.96875 5.175781 607.304688 5.429688 606.777344 5.898438 C 606.328125 6.308594 606.09375 6.699219 605.761719 7.597656 L 605.996094 7.65625 C 606.601562 6.5625 607.285156 6.074219 608.222656 6.074219 C 609.199219 6.074219 609.863281 6.71875 609.863281 7.675781 C 609.863281 8.203125 609.648438 8.75 609.257812 9.121094 C 608.808594 9.570312 608.398438 9.785156 607.382812 10.15625 Z M 607.382812 10.351562 "/>
<path style=" stroke:none;fill-rule:nonzero;fill:rgb(0%,0%,0%);fill-opacity:1;" d="M 623.394531 13.222656 L 623.199219 13.144531 C 622.652344 14.003906 622.457031 14.140625 621.792969 14.140625 L 618.21875 14.140625 L 620.71875 11.503906 C 622.066406 10.117188 622.632812 8.984375 622.632812 7.8125 C 622.632812 6.328125 621.421875 5.175781 619.878906 5.175781 C 619.058594 5.175781 618.277344 5.507812 617.730469 6.09375 C 617.242188 6.601562 617.027344 7.089844 616.773438 8.144531 L 617.085938 8.222656 C 617.671875 6.757812 618.21875 6.269531 619.253906 6.269531 C 620.503906 6.269531 621.363281 7.128906 621.363281 8.378906 C 621.363281 9.550781 620.660156 10.9375 619.410156 12.265625 L 616.753906 15.097656 L 616.753906 15.273438 L 622.574219 15.273438 Z M 623.394531 13.222656 "/>
<path style=" stroke:none;fill-rule:nonzero;fill:rgb(0%,0%,0%);fill-opacity:1;" d="M 625.652344 13.789062 C 625.203125 13.789062 624.832031 14.160156 624.832031 14.628906 C 624.832031 15.058594 625.203125 15.429688 625.632812 15.429688 C 626.101562 15.429688 626.472656 15.058594 626.472656 14.628906 C 626.472656 14.160156 626.101562 13.789062 625.652344 13.789062 Z M 625.652344 13.789062 "/>
<path style=" stroke:none;fill-rule:nonzero;fill:rgb(0%,0%,0%);fill-opacity:1;" d="M 634.605469 13.222656 L 634.410156 13.144531 C 633.863281 14.003906 633.667969 14.140625 633.003906 14.140625 L 629.429688 14.140625 L 631.929688 11.503906 C 633.277344 10.117188 633.84375 8.984375 633.84375 7.8125 C 633.84375 6.328125 632.632812 5.175781 631.089844 5.175781 C 630.269531 5.175781 629.488281 5.507812 628.941406 6.09375 C 628.453125 6.601562 628.238281 7.089844 627.984375 8.144531 L 628.296875 8.222656 C 628.882812 6.757812 629.429688 6.269531 630.464844 6.269531 C 631.714844 6.269531 632.574219 7.128906 632.574219 8.378906 C 632.574219 9.550781 631.871094 10.9375 630.621094 12.265625 L 627.964844 15.097656 L 627.964844 15.273438 L 633.785156 15.273438 Z M 634.605469 13.222656 "/>
<path style=" stroke:none;fill-rule:nonzero;fill:rgb(0%,0%,0%);fill-opacity:1;" d="M 640.597656 13.789062 C 640.148438 13.789062 639.777344 14.160156 639.777344 14.628906 C 639.777344 15.058594 640.148438 15.429688 640.578125 15.429688 C 641.046875 15.429688 641.417969 15.058594 641.417969 14.628906 C 641.417969 14.160156 641.046875 13.789062 640.597656 13.789062 Z M 640.597656 13.789062 "/>
<path style=" stroke:none;fill-rule:nonzero;fill:rgb(0%,0%,0%);fill-opacity:1;" d="M 646.8125 5.175781 L 644.117188 6.523438 L 644.117188 6.738281 C 644.292969 6.660156 644.46875 6.601562 644.527344 6.582031 C 644.78125 6.464844 645.035156 6.40625 645.191406 6.40625 C 645.503906 6.40625 645.640625 6.640625 645.640625 7.109375 L 645.640625 13.886719 C 645.640625 14.375 645.523438 14.726562 645.289062 14.863281 C 645.054688 14.980469 644.839844 15.039062 644.214844 15.058594 L 644.214844 15.273438 L 648.335938 15.273438 L 648.335938 15.058594 C 647.164062 15.039062 646.929688 14.882812 646.929688 14.160156 L 646.929688 5.195312 Z M 646.8125 5.175781 "/>
<path style=" stroke:none;fill-rule:nonzero;fill:rgb(0%,0%,0%);fill-opacity:1;" d="M 654.285156 5.175781 L 651.589844 6.523438 L 651.589844 6.738281 C 651.765625 6.660156 651.941406 6.601562 652 6.582031 C 652.253906 6.464844 652.507812 6.40625 652.664062 6.40625 C 652.976562 6.40625 653.113281 6.640625 653.113281 7.109375 L 653.113281 13.886719 C 653.113281 14.375 652.996094 14.726562 652.761719 14.863281 C 652.527344 14.980469 652.3125 15.039062 651.6875 15.058594 L 651.6875 15.273438 L 655.808594 15.273438 L 655.808594 15.058594 C 654.636719 15.039062 654.402344 14.882812 654.402344 14.160156 L 654.402344 5.195312 Z M 654.285156 5.175781 "/>
<path style=" stroke:none;fill-rule:nonzero;fill:rgb(0%,0%,0%);fill-opacity:1;" d="M 661.191406 5.175781 C 660.371094 5.175781 659.746094 5.429688 659.199219 5.957031 C 658.320312 6.777344 657.753906 8.496094 657.753906 10.253906 C 657.753906 11.875 658.261719 13.632812 658.964844 14.472656 C 659.511719 15.117188 660.273438 15.488281 661.132812 15.488281 C 661.894531 15.488281 662.539062 15.234375 663.085938 14.707031 C 663.945312 13.886719 664.511719 12.148438 664.511719 10.351562 C 664.511719 7.285156 663.164062 5.175781 661.191406 5.175781 Z M 661.152344 5.566406 C 662.402344 5.566406 663.085938 7.246094 663.085938 10.371094 C 663.085938 13.496094 662.421875 15.097656 661.132812 15.097656 C 659.84375 15.097656 659.199219 13.496094 659.199219 10.390625 C 659.199219 7.226562 659.863281 5.566406 661.152344 5.566406 Z M 661.152344 5.566406 "/>
<path style=" stroke:none;fill-rule:nonzero;fill:rgb(0%,0%,0%);fill-opacity:1;" d="M 669.210938 9.726562 C 670.695312 8.945312 671.203125 8.320312 671.203125 7.285156 C 671.203125 6.074219 670.128906 5.175781 668.644531 5.175781 C 667.003906 5.175781 665.792969 6.171875 665.792969 7.539062 C 665.792969 8.496094 666.085938 8.945312 667.648438 10.3125 C 666.046875 11.542969 665.714844 11.992188 665.714844 13.007812 C 665.714844 14.472656 666.886719 15.488281 668.585938 15.488281 C 670.382812 15.488281 671.515625 14.492188 671.515625 12.949219 C 671.515625 11.816406 671.007812 11.074219 669.210938 9.726562 Z M 668.9375 11.269531 C 670.03125 12.050781 670.382812 12.578125 670.382812 13.417969 C 670.382812 14.394531 669.71875 15.058594 668.742188 15.058594 C 667.609375 15.058594 666.847656 14.199219 666.847656 12.890625 C 666.847656 11.933594 667.179688 11.308594 668.039062 10.605469 Z M 668.78125 9.453125 C 667.453125 8.59375 666.90625 7.910156 666.90625 7.070312 C 666.90625 6.210938 667.570312 5.585938 668.527344 5.585938 C 669.542969 5.585938 670.1875 6.25 670.1875 7.285156 C 670.1875 8.125 669.757812 8.808594 668.917969 9.375 C 668.839844 9.414062 668.839844 9.414062 668.78125 9.453125 Z M 668.78125 9.453125 "/>
</g>
</svg>
