<?xml version="1.0" encoding="UTF-8"?>
<svg xmlns="http://www.w3.org/2000/svg" xmlns:xlink="http://www.w3.org/1999/xlink" width="689.84027pt" height="20.605469pt" viewBox="0 0 689.84027 20.605469" version="1.1">
<g id="surface277">
<path style=" stroke:none;fill-rule:nonzero;fill:rgb(0%,0%,0%);fill-opacity:1;" d="M 5 11.425781 L 5 12.382812 L 8.671875 12.382812 L 8.671875 11.425781 Z M 5 11.425781 "/>
<path style=" stroke:none;fill-rule:nonzero;fill:rgb(0%,0%,0%);fill-opacity:1;" d="M 13.746094 5.175781 L 11.050781 6.523438 L 11.050781 6.738281 C 11.226562 6.660156 11.402344 6.601562 11.460938 6.582031 C 11.714844 6.464844 11.96875 6.40625 12.125 6.40625 C 12.4375 6.40625 12.574219 6.640625 12.574219 7.109375 L 12.574219 13.886719 C 12.574219 14.375 12.457031 14.726562 12.222656 14.863281 C 11.988281 14.980469 11.773438 15.039062 11.148438 15.058594 L 11.148438 15.273438 L 15.269531 15.273438 L 15.269531 15.058594 C 14.097656 15.039062 13.863281 14.882812 13.863281 14.160156 L 13.863281 5.195312 Z M 13.746094 5.175781 "/>
<path style=" stroke:none;fill-rule:nonzero;fill:rgb(0%,0%,0%);fill-opacity:1;" d="M 18.738281 13.789062 C 18.289062 13.789062 17.917969 14.160156 17.917969 14.628906 C 17.917969 15.058594 18.289062 15.429688 18.71875 15.429688 C 19.1875 15.429688 19.558594 15.058594 19.558594 14.628906 C 19.558594 14.160156 19.1875 13.789062 18.738281 13.789062 Z M 18.738281 13.789062 "/>
<path style=" stroke:none;fill-rule:nonzero;fill:rgb(0%,0%,0%);fill-opacity:1;" d="M 27.648438 11.816406 L 26.125 11.816406 L 26.125 5.175781 L 25.460938 5.175781 L 20.773438 11.816406 L 20.773438 12.773438 L 24.972656 12.773438 L 24.972656 15.273438 L 26.125 15.273438 L 26.125 12.773438 L 27.648438 12.773438 Z M 24.953125 11.816406 L 21.378906 11.816406 L 24.953125 6.699219 Z M 24.953125 11.816406 "/>
<path style=" stroke:none;fill-rule:nonzero;fill:rgb(0%,0%,0%);fill-opacity:1;" d="M 38.855469 11.816406 L 37.332031 11.816406 L 37.332031 5.175781 L 36.667969 5.175781 L 31.980469 11.816406 L 31.980469 12.773438 L 36.179688 12.773438 L 36.179688 15.273438 L 37.332031 15.273438 L 37.332031 12.773438 L 38.855469 12.773438 Z M 36.160156 11.816406 L 32.585938 11.816406 L 36.160156 6.699219 Z M 36.160156 11.816406 "/>
<path style=" stroke:none;fill-rule:nonzero;fill:rgb(0%,0%,0%);fill-opacity:1;" d="M 41.152344 13.789062 C 40.703125 13.789062 40.332031 14.160156 40.332031 14.628906 C 40.332031 15.058594 40.703125 15.429688 41.132812 15.429688 C 41.601562 15.429688 41.972656 15.058594 41.972656 14.628906 C 41.972656 14.160156 41.601562 13.789062 41.152344 13.789062 Z M 41.152344 13.789062 "/>
<path style=" stroke:none;fill-rule:nonzero;fill:rgb(0%,0%,0%);fill-opacity:1;" d="M 49.714844 5.390625 L 44.1875 5.390625 L 43.308594 7.578125 L 43.5625 7.695312 C 44.207031 6.679688 44.480469 6.484375 45.300781 6.484375 L 48.542969 6.484375 L 45.59375 15.390625 L 46.550781 15.390625 L 49.714844 5.625 Z M 49.714844 5.390625 "/>
<path style=" stroke:none;fill-rule:nonzero;fill:rgb(0%,0%,0%);fill-opacity:1;" d="M 52.773438 10.351562 C 53.652344 10.351562 54.003906 10.371094 54.355469 10.507812 C 55.292969 10.839844 55.859375 11.679688 55.859375 12.714844 C 55.859375 13.964844 55.019531 14.941406 53.90625 14.941406 C 53.515625 14.941406 53.203125 14.84375 52.65625 14.472656 C 52.207031 14.21875 51.953125 14.101562 51.699219 14.101562 C 51.347656 14.101562 51.132812 14.316406 51.132812 14.628906 C 51.132812 15.15625 51.777344 15.488281 52.8125 15.488281 C 53.964844 15.488281 55.15625 15.097656 55.859375 14.472656 C 56.5625 13.867188 56.933594 13.007812 56.933594 11.992188 C 56.933594 11.230469 56.699219 10.527344 56.269531 10.078125 C 55.976562 9.746094 55.683594 9.570312 55.039062 9.277344 C 56.054688 8.574219 56.425781 8.027344 56.425781 7.226562 C 56.425781 6.015625 55.488281 5.175781 54.101562 5.175781 C 53.359375 5.175781 52.695312 5.429688 52.167969 5.898438 C 51.71875 6.308594 51.484375 6.699219 51.152344 7.597656 L 51.386719 7.65625 C 51.992188 6.5625 52.675781 6.074219 53.613281 6.074219 C 54.589844 6.074219 55.253906 6.71875 55.253906 7.675781 C 55.253906 8.203125 55.039062 8.75 54.648438 9.121094 C 54.199219 9.570312 53.789062 9.785156 52.773438 10.15625 Z M 52.773438 10.351562 "/>
<path style=" stroke:none;fill-rule:nonzero;fill:rgb(0%,0%,0%);fill-opacity:1;" d="M 64.65625 5.390625 L 59.128906 5.390625 L 58.25 7.578125 L 58.503906 7.695312 C 59.148438 6.679688 59.421875 6.484375 60.242188 6.484375 L 63.484375 6.484375 L 60.535156 15.390625 L 61.492188 15.390625 L 64.65625 5.625 Z M 64.65625 5.390625 "/>
<path style=" stroke:none;fill-rule:nonzero;fill:rgb(0%,0%,0%);fill-opacity:1;" d="M 69.753906 11.425781 L 69.753906 12.382812 L 73.425781 12.382812 L 73.425781 11.425781 Z M 69.753906 11.425781 "/>
<path style=" stroke:none;fill-rule:nonzero;fill:rgb(0%,0%,0%);fill-opacity:1;" d="M 78.5 5.175781 L 75.804688 6.523438 L 75.804688 6.738281 C 75.980469 6.660156 76.15625 6.601562 76.214844 6.582031 C 76.46875 6.464844 76.722656 6.40625 76.878906 6.40625 C 77.191406 6.40625 77.328125 6.640625 77.328125 7.109375 L 77.328125 13.886719 C 77.328125 14.375 77.210938 14.726562 76.976562 14.863281 C 76.742188 14.980469 76.527344 15.039062 75.902344 15.058594 L 75.902344 15.273438 L 80.023438 15.273438 L 80.023438 15.058594 C 78.851562 15.039062 78.617188 14.882812 78.617188 14.160156 L 78.617188 5.195312 Z M 78.5 5.175781 "/>
<path style=" stroke:none;fill-rule:nonzero;fill:rgb(0%,0%,0%);fill-opacity:1;" d="M 83.488281 13.789062 C 83.039062 13.789062 82.667969 14.160156 82.667969 14.628906 C 82.667969 15.058594 83.039062 15.429688 83.46875 15.429688 C 83.9375 15.429688 84.308594 15.058594 84.308594 14.628906 C 84.308594 14.160156 83.9375 13.789062 83.488281 13.789062 Z M 83.488281 13.789062 "/>
<path style=" stroke:none;fill-rule:nonzero;fill:rgb(0%,0%,0%);fill-opacity:1;" d="M 87.636719 10.351562 C 88.515625 10.351562 88.867188 10.371094 89.21875 10.507812 C 90.15625 10.839844 90.722656 11.679688 90.722656 12.714844 C 90.722656 13.964844 89.882812 14.941406 88.769531 14.941406 C 88.378906 14.941406 88.066406 14.84375 87.519531 14.472656 C 87.070312 14.21875 86.816406 14.101562 86.5625 14.101562 C 86.210938 14.101562 85.996094 14.316406 85.996094 14.628906 C 85.996094 15.15625 86.640625 15.488281 87.675781 15.488281 C 88.828125 15.488281 90.019531 15.097656 90.722656 14.472656 C 91.425781 13.867188 91.796875 13.007812 91.796875 11.992188 C 91.796875 11.230469 91.5625 10.527344 91.132812 10.078125 C 90.839844 9.746094 90.546875 9.570312 89.902344 9.277344 C 90.917969 8.574219 91.289062 8.027344 91.289062 7.226562 C 91.289062 6.015625 90.351562 5.175781 88.964844 5.175781 C 88.222656 5.175781 87.558594 5.429688 87.03125 5.898438 C 86.582031 6.308594 86.347656 6.699219 86.015625 7.597656 L 86.25 7.65625 C 86.855469 6.5625 87.539062 6.074219 88.476562 6.074219 C 89.453125 6.074219 90.117188 6.71875 90.117188 7.675781 C 90.117188 8.203125 89.902344 8.75 89.511719 9.121094 C 89.0625 9.570312 88.652344 9.785156 87.636719 10.15625 Z M 87.636719 10.351562 "/>
<path style=" stroke:none;fill-rule:nonzero;fill:rgb(0%,0%,0%);fill-opacity:1;" d="M 103.648438 13.222656 L 103.453125 13.144531 C 102.90625 14.003906 102.710938 14.140625 102.046875 14.140625 L 98.472656 14.140625 L 100.972656 11.503906 C 102.320312 10.117188 102.886719 8.984375 102.886719 7.8125 C 102.886719 6.328125 101.675781 5.175781 100.132812 5.175781 C 99.3125 5.175781 98.53125 5.507812 97.984375 6.09375 C 97.496094 6.601562 97.28125 7.089844 97.027344 8.144531 L 97.339844 8.222656 C 97.925781 6.757812 98.472656 6.269531 99.507812 6.269531 C 100.757812 6.269531 101.617188 7.128906 101.617188 8.378906 C 101.617188 9.550781 100.914062 10.9375 99.664062 12.265625 L 97.007812 15.097656 L 97.007812 15.273438 L 102.828125 15.273438 Z M 103.648438 13.222656 "/>
<path style=" stroke:none;fill-rule:nonzero;fill:rgb(0%,0%,0%);fill-opacity:1;" d="M 105.90625 13.789062 C 105.457031 13.789062 105.085938 14.160156 105.085938 14.628906 C 105.085938 15.058594 105.457031 15.429688 105.886719 15.429688 C 106.355469 15.429688 106.726562 15.058594 106.726562 14.628906 C 106.726562 14.160156 106.355469 13.789062 105.90625 13.789062 Z M 105.90625 13.789062 "/>
<path style=" stroke:none;fill-rule:nonzero;fill:rgb(0%,0%,0%);fill-opacity:1;" d="M 114.855469 13.222656 L 114.660156 13.144531 C 114.113281 14.003906 113.917969 14.140625 113.253906 14.140625 L 109.679688 14.140625 L 112.179688 11.503906 C 113.527344 10.117188 114.09375 8.984375 114.09375 7.8125 C 114.09375 6.328125 112.882812 5.175781 111.339844 5.175781 C 110.519531 5.175781 109.738281 5.507812 109.191406 6.09375 C 108.703125 6.601562 108.488281 7.089844 108.234375 8.144531 L 108.546875 8.222656 C 109.132812 6.757812 109.679688 6.269531 110.714844 6.269531 C 111.964844 6.269531 112.824219 7.128906 112.824219 8.378906 C 112.824219 9.550781 112.121094 10.9375 110.871094 12.265625 L 108.214844 15.097656 L 108.214844 15.273438 L 114.035156 15.273438 Z M 114.855469 13.222656 "/>
<path style=" stroke:none;fill-rule:nonzero;fill:rgb(0%,0%,0%);fill-opacity:1;" d="M 122.328125 13.222656 L 122.132812 13.144531 C 121.585938 14.003906 121.390625 14.140625 120.726562 14.140625 L 117.152344 14.140625 L 119.652344 11.503906 C 121 10.117188 121.566406 8.984375 121.566406 7.8125 C 121.566406 6.328125 120.355469 5.175781 118.8125 5.175781 C 117.992188 5.175781 117.210938 5.507812 116.664062 6.09375 C 116.175781 6.601562 115.960938 7.089844 115.707031 8.144531 L 116.019531 8.222656 C 116.605469 6.757812 117.152344 6.269531 118.1875 6.269531 C 119.4375 6.269531 120.296875 7.128906 120.296875 8.378906 C 120.296875 9.550781 119.59375 10.9375 118.34375 12.265625 L 115.6875 15.097656 L 115.6875 15.273438 L 121.507812 15.273438 Z M 122.328125 13.222656 "/>
<path style=" stroke:none;fill-rule:nonzero;fill:rgb(0%,0%,0%);fill-opacity:1;" d="M 129.800781 13.222656 L 129.605469 13.144531 C 129.058594 14.003906 128.863281 14.140625 128.199219 14.140625 L 124.625 14.140625 L 127.125 11.503906 C 128.472656 10.117188 129.039062 8.984375 129.039062 7.8125 C 129.039062 6.328125 127.828125 5.175781 126.285156 5.175781 C 125.464844 5.175781 124.683594 5.507812 124.136719 6.09375 C 123.648438 6.601562 123.433594 7.089844 123.179688 8.144531 L 123.492188 8.222656 C 124.078125 6.757812 124.625 6.269531 125.660156 6.269531 C 126.910156 6.269531 127.769531 7.128906 127.769531 8.378906 C 127.769531 9.550781 127.066406 10.9375 125.816406 12.265625 L 123.160156 15.097656 L 123.160156 15.273438 L 128.980469 15.273438 Z M 129.800781 13.222656 "/>
<path style=" stroke:none;fill-rule:nonzero;fill:rgb(0%,0%,0%);fill-opacity:1;" d="M 134.503906 11.425781 L 134.503906 12.382812 L 138.175781 12.382812 L 138.175781 11.425781 Z M 134.503906 11.425781 "/>
<path style=" stroke:none;fill-rule:nonzero;fill:rgb(0%,0%,0%);fill-opacity:1;" d="M 143.25 5.175781 L 140.554688 6.523438 L 140.554688 6.738281 C 140.730469 6.660156 140.90625 6.601562 140.964844 6.582031 C 141.21875 6.464844 141.472656 6.40625 141.628906 6.40625 C 141.941406 6.40625 142.078125 6.640625 142.078125 7.109375 L 142.078125 13.886719 C 142.078125 14.375 141.960938 14.726562 141.726562 14.863281 C 141.492188 14.980469 141.277344 15.039062 140.652344 15.058594 L 140.652344 15.273438 L 144.773438 15.273438 L 144.773438 15.058594 C 143.601562 15.039062 143.367188 14.882812 143.367188 14.160156 L 143.367188 5.195312 Z M 143.25 5.175781 "/>
<path style=" stroke:none;fill-rule:nonzero;fill:rgb(0%,0%,0%);fill-opacity:1;" d="M 148.242188 13.789062 C 147.792969 13.789062 147.421875 14.160156 147.421875 14.628906 C 147.421875 15.058594 147.792969 15.429688 148.222656 15.429688 C 148.691406 15.429688 149.0625 15.058594 149.0625 14.628906 C 149.0625 14.160156 148.691406 13.789062 148.242188 13.789062 Z M 148.242188 13.789062 "/>
<path style=" stroke:none;fill-rule:nonzero;fill:rgb(0%,0%,0%);fill-opacity:1;" d="M 157.191406 13.222656 L 156.996094 13.144531 C 156.449219 14.003906 156.253906 14.140625 155.589844 14.140625 L 152.015625 14.140625 L 154.515625 11.503906 C 155.863281 10.117188 156.429688 8.984375 156.429688 7.8125 C 156.429688 6.328125 155.21875 5.175781 153.675781 5.175781 C 152.855469 5.175781 152.074219 5.507812 151.527344 6.09375 C 151.039062 6.601562 150.824219 7.089844 150.570312 8.144531 L 150.882812 8.222656 C 151.46875 6.757812 152.015625 6.269531 153.050781 6.269531 C 154.300781 6.269531 155.160156 7.128906 155.160156 8.378906 C 155.160156 9.550781 154.457031 10.9375 153.207031 12.265625 L 150.550781 15.097656 L 150.550781 15.273438 L 156.371094 15.273438 Z M 157.191406 13.222656 "/>
<path style=" stroke:none;fill-rule:nonzero;fill:rgb(0%,0%,0%);fill-opacity:1;" d="M 165.667969 5.175781 L 162.972656 6.523438 L 162.972656 6.738281 C 163.148438 6.660156 163.324219 6.601562 163.382812 6.582031 C 163.636719 6.464844 163.890625 6.40625 164.046875 6.40625 C 164.359375 6.40625 164.496094 6.640625 164.496094 7.109375 L 164.496094 13.886719 C 164.496094 14.375 164.378906 14.726562 164.144531 14.863281 C 163.910156 14.980469 163.695312 15.039062 163.070312 15.058594 L 163.070312 15.273438 L 167.191406 15.273438 L 167.191406 15.058594 C 166.019531 15.039062 165.785156 14.882812 165.785156 14.160156 L 165.785156 5.195312 Z M 165.667969 5.175781 "/>
<path style=" stroke:none;fill-rule:nonzero;fill:rgb(0%,0%,0%);fill-opacity:1;" d="M 170.65625 13.789062 C 170.207031 13.789062 169.835938 14.160156 169.835938 14.628906 C 169.835938 15.058594 170.207031 15.429688 170.636719 15.429688 C 171.105469 15.429688 171.476562 15.058594 171.476562 14.628906 C 171.476562 14.160156 171.105469 13.789062 170.65625 13.789062 Z M 170.65625 13.789062 "/>
<path style=" stroke:none;fill-rule:nonzero;fill:rgb(0%,0%,0%);fill-opacity:1;" d="M 174.804688 10.351562 C 175.683594 10.351562 176.035156 10.371094 176.386719 10.507812 C 177.324219 10.839844 177.890625 11.679688 177.890625 12.714844 C 177.890625 13.964844 177.050781 14.941406 175.9375 14.941406 C 175.546875 14.941406 175.234375 14.84375 174.6875 14.472656 C 174.238281 14.21875 173.984375 14.101562 173.730469 14.101562 C 173.378906 14.101562 173.164062 14.316406 173.164062 14.628906 C 173.164062 15.15625 173.808594 15.488281 174.84375 15.488281 C 175.996094 15.488281 177.1875 15.097656 177.890625 14.472656 C 178.59375 13.867188 178.964844 13.007812 178.964844 11.992188 C 178.964844 11.230469 178.730469 10.527344 178.300781 10.078125 C 178.007812 9.746094 177.714844 9.570312 177.070312 9.277344 C 178.085938 8.574219 178.457031 8.027344 178.457031 7.226562 C 178.457031 6.015625 177.519531 5.175781 176.132812 5.175781 C 175.390625 5.175781 174.726562 5.429688 174.199219 5.898438 C 173.75 6.308594 173.515625 6.699219 173.183594 7.597656 L 173.417969 7.65625 C 174.023438 6.5625 174.707031 6.074219 175.644531 6.074219 C 176.621094 6.074219 177.285156 6.71875 177.285156 7.675781 C 177.285156 8.203125 177.070312 8.75 176.679688 9.121094 C 176.230469 9.570312 175.820312 9.785156 174.804688 10.15625 Z M 174.804688 10.351562 "/>
<path style=" stroke:none;fill-rule:nonzero;fill:rgb(0%,0%,0%);fill-opacity:1;" d="M 186.691406 5.390625 L 181.164062 5.390625 L 180.285156 7.578125 L 180.539062 7.695312 C 181.183594 6.679688 181.457031 6.484375 182.277344 6.484375 L 185.519531 6.484375 L 182.570312 15.390625 L 183.527344 15.390625 L 186.691406 5.625 Z M 186.691406 5.390625 "/>
<path style=" stroke:none;fill-rule:nonzero;fill:rgb(0%,0%,0%);fill-opacity:1;" d="M 189.75 10.351562 C 190.628906 10.351562 190.980469 10.371094 191.332031 10.507812 C 192.269531 10.839844 192.835938 11.679688 192.835938 12.714844 C 192.835938 13.964844 191.996094 14.941406 190.882812 14.941406 C 190.492188 14.941406 190.179688 14.84375 189.632812 14.472656 C 189.183594 14.21875 188.929688 14.101562 188.675781 14.101562 C 188.324219 14.101562 188.109375 14.316406 188.109375 14.628906 C 188.109375 15.15625 188.753906 15.488281 189.789062 15.488281 C 190.941406 15.488281 192.132812 15.097656 192.835938 14.472656 C 193.539062 13.867188 193.910156 13.007812 193.910156 11.992188 C 193.910156 11.230469 193.675781 10.527344 193.246094 10.078125 C 192.953125 9.746094 192.660156 9.570312 192.015625 9.277344 C 193.03125 8.574219 193.402344 8.027344 193.402344 7.226562 C 193.402344 6.015625 192.464844 5.175781 191.078125 5.175781 C 190.335938 5.175781 189.671875 5.429688 189.144531 5.898438 C 188.695312 6.308594 188.460938 6.699219 188.128906 7.597656 L 188.363281 7.65625 C 188.96875 6.5625 189.652344 6.074219 190.589844 6.074219 C 191.566406 6.074219 192.230469 6.71875 192.230469 7.675781 C 192.230469 8.203125 192.015625 8.75 191.625 9.121094 C 191.175781 9.570312 190.765625 9.785156 189.75 10.15625 Z M 189.75 10.351562 "/>
<path style=" stroke:none;fill-rule:nonzero;fill:rgb(0%,0%,0%);fill-opacity:1;" d="M 199.257812 11.425781 L 199.257812 12.382812 L 202.929688 12.382812 L 202.929688 11.425781 Z M 199.257812 11.425781 "/>
<path style=" stroke:none;fill-rule:nonzero;fill:rgb(0%,0%,0%);fill-opacity:1;" d="M 208.003906 5.175781 L 205.308594 6.523438 L 205.308594 6.738281 C 205.484375 6.660156 205.660156 6.601562 205.71875 6.582031 C 205.972656 6.464844 206.226562 6.40625 206.382812 6.40625 C 206.695312 6.40625 206.832031 6.640625 206.832031 7.109375 L 206.832031 13.886719 C 206.832031 14.375 206.714844 14.726562 206.480469 14.863281 C 206.246094 14.980469 206.03125 15.039062 205.40625 15.058594 L 205.40625 15.273438 L 209.527344 15.273438 L 209.527344 15.058594 C 208.355469 15.039062 208.121094 14.882812 208.121094 14.160156 L 208.121094 5.195312 Z M 208.003906 5.175781 "/>
<path style=" stroke:none;fill-rule:nonzero;fill:rgb(0%,0%,0%);fill-opacity:1;" d="M 212.996094 13.789062 C 212.546875 13.789062 212.175781 14.160156 212.175781 14.628906 C 212.175781 15.058594 212.546875 15.429688 212.976562 15.429688 C 213.445312 15.429688 213.816406 15.058594 213.816406 14.628906 C 213.816406 14.160156 213.445312 13.789062 212.996094 13.789062 Z M 212.996094 13.789062 "/>
<path style=" stroke:none;fill-rule:nonzero;fill:rgb(0%,0%,0%);fill-opacity:1;" d="M 219.210938 5.175781 L 216.515625 6.523438 L 216.515625 6.738281 C 216.691406 6.660156 216.867188 6.601562 216.925781 6.582031 C 217.179688 6.464844 217.433594 6.40625 217.589844 6.40625 C 217.902344 6.40625 218.039062 6.640625 218.039062 7.109375 L 218.039062 13.886719 C 218.039062 14.375 217.921875 14.726562 217.6875 14.863281 C 217.453125 14.980469 217.238281 15.039062 216.613281 15.058594 L 216.613281 15.273438 L 220.734375 15.273438 L 220.734375 15.058594 C 219.5625 15.039062 219.328125 14.882812 219.328125 14.160156 L 219.328125 5.195312 Z M 219.210938 5.175781 "/>
<path style=" stroke:none;fill-rule:nonzero;fill:rgb(0%,0%,0%);fill-opacity:1;" d="M 227.9375 13.789062 C 227.488281 13.789062 227.117188 14.160156 227.117188 14.628906 C 227.117188 15.058594 227.488281 15.429688 227.917969 15.429688 C 228.386719 15.429688 228.757812 15.058594 228.757812 14.628906 C 228.757812 14.160156 228.386719 13.789062 227.9375 13.789062 Z M 227.9375 13.789062 "/>
<path style=" stroke:none;fill-rule:nonzero;fill:rgb(0%,0%,0%);fill-opacity:1;" d="M 230.679688 15.605469 C 232.359375 15.410156 233.179688 15.117188 234.195312 14.394531 C 235.738281 13.261719 236.65625 11.40625 236.65625 9.394531 C 236.65625 6.914062 235.289062 5.175781 233.355469 5.175781 C 231.578125 5.175781 230.25 6.679688 230.25 8.691406 C 230.25 10.527344 231.324219 11.738281 232.945312 11.738281 C 233.765625 11.738281 234.390625 11.484375 235.171875 10.878906 C 234.566406 13.320312 232.90625 14.921875 230.640625 15.3125 Z M 235.210938 9.960938 C 235.210938 10.273438 235.152344 10.410156 234.976562 10.527344 C 234.566406 10.898438 234.019531 11.09375 233.472656 11.09375 C 232.339844 11.09375 231.617188 9.960938 231.617188 8.183594 C 231.617188 7.34375 231.871094 6.445312 232.183594 6.054688 C 232.4375 5.761719 232.808594 5.585938 233.238281 5.585938 C 234.546875 5.585938 235.210938 6.875 235.210938 9.394531 Z M 235.210938 9.960938 "/>
<path style=" stroke:none;fill-rule:nonzero;fill:rgb(0%,0%,0%);fill-opacity:1;" d="M 239.554688 10.351562 C 240.433594 10.351562 240.785156 10.371094 241.136719 10.507812 C 242.074219 10.839844 242.640625 11.679688 242.640625 12.714844 C 242.640625 13.964844 241.800781 14.941406 240.6875 14.941406 C 240.296875 14.941406 239.984375 14.84375 239.4375 14.472656 C 238.988281 14.21875 238.734375 14.101562 238.480469 14.101562 C 238.128906 14.101562 237.914062 14.316406 237.914062 14.628906 C 237.914062 15.15625 238.558594 15.488281 239.59375 15.488281 C 240.746094 15.488281 241.9375 15.097656 242.640625 14.472656 C 243.34375 13.867188 243.714844 13.007812 243.714844 11.992188 C 243.714844 11.230469 243.480469 10.527344 243.050781 10.078125 C 242.757812 9.746094 242.464844 9.570312 241.820312 9.277344 C 242.835938 8.574219 243.207031 8.027344 243.207031 7.226562 C 243.207031 6.015625 242.269531 5.175781 240.882812 5.175781 C 240.140625 5.175781 239.476562 5.429688 238.949219 5.898438 C 238.5 6.308594 238.265625 6.699219 237.933594 7.597656 L 238.167969 7.65625 C 238.773438 6.5625 239.457031 6.074219 240.394531 6.074219 C 241.371094 6.074219 242.035156 6.71875 242.035156 7.675781 C 242.035156 8.203125 241.820312 8.75 241.429688 9.121094 C 240.980469 9.570312 240.570312 9.785156 239.554688 10.15625 Z M 239.554688 10.351562 "/>
<path style=" stroke:none;fill-rule:nonzero;fill:rgb(0%,0%,0%);fill-opacity:1;" d="M 251.441406 5.390625 L 245.914062 5.390625 L 245.035156 7.578125 L 245.289062 7.695312 C 245.933594 6.679688 246.207031 6.484375 247.027344 6.484375 L 250.269531 6.484375 L 247.320312 15.390625 L 248.277344 15.390625 L 251.441406 5.625 Z M 251.441406 5.390625 "/>
<path style=" stroke:none;fill-rule:nonzero;fill:rgb(0%,0%,0%);fill-opacity:1;" d="M 254.910156 6.5625 L 257.839844 6.5625 C 258.09375 6.5625 258.152344 6.523438 258.191406 6.425781 L 258.757812 5.097656 L 258.621094 5 C 258.40625 5.3125 258.25 5.390625 257.9375 5.390625 L 254.8125 5.390625 L 253.191406 8.925781 C 253.171875 8.945312 253.171875 8.964844 253.171875 9.003906 C 253.171875 9.082031 253.230469 9.121094 253.347656 9.121094 C 253.835938 9.121094 254.421875 9.21875 255.046875 9.414062 C 256.765625 9.960938 257.546875 10.898438 257.546875 12.382812 C 257.546875 13.808594 256.628906 14.921875 255.476562 14.921875 C 255.164062 14.921875 254.910156 14.824219 254.480469 14.492188 C 253.992188 14.160156 253.640625 14.003906 253.328125 14.003906 C 252.898438 14.003906 252.683594 14.179688 252.683594 14.550781 C 252.683594 15.117188 253.386719 15.488281 254.519531 15.488281 C 255.769531 15.488281 256.84375 15.078125 257.585938 14.316406 C 258.289062 13.652344 258.601562 12.792969 258.601562 11.660156 C 258.601562 10.585938 258.308594 9.902344 257.566406 9.140625 C 256.902344 8.496094 256.0625 8.144531 254.285156 7.832031 Z M 254.910156 6.5625 "/>
<path style=" stroke:none;fill-rule:nonzero;fill:rgb(0%,0%,0%);fill-opacity:1;" d="M 264.007812 11.425781 L 264.007812 12.382812 L 267.679688 12.382812 L 267.679688 11.425781 Z M 264.007812 11.425781 "/>
<path style=" stroke:none;fill-rule:nonzero;fill:rgb(0%,0%,0%);fill-opacity:1;" d="M 272.753906 5.175781 L 270.058594 6.523438 L 270.058594 6.738281 C 270.234375 6.660156 270.410156 6.601562 270.46875 6.582031 C 270.722656 6.464844 270.976562 6.40625 271.132812 6.40625 C 271.445312 6.40625 271.582031 6.640625 271.582031 7.109375 L 271.582031 13.886719 C 271.582031 14.375 271.464844 14.726562 271.230469 14.863281 C 270.996094 14.980469 270.78125 15.039062 270.15625 15.058594 L 270.15625 15.273438 L 274.277344 15.273438 L 274.277344 15.058594 C 273.105469 15.039062 272.871094 14.882812 272.871094 14.160156 L 272.871094 5.195312 Z M 272.753906 5.175781 "/>
<path style=" stroke:none;fill-rule:nonzero;fill:rgb(0%,0%,0%);fill-opacity:1;" d="M 277.746094 13.789062 C 277.296875 13.789062 276.925781 14.160156 276.925781 14.628906 C 276.925781 15.058594 277.296875 15.429688 277.726562 15.429688 C 278.195312 15.429688 278.566406 15.058594 278.566406 14.628906 C 278.566406 14.160156 278.195312 13.789062 277.746094 13.789062 Z M 277.746094 13.789062 "/>
<path style=" stroke:none;fill-rule:nonzero;fill:rgb(0%,0%,0%);fill-opacity:1;" d="M 286.117188 13.789062 C 285.667969 13.789062 285.296875 14.160156 285.296875 14.628906 C 285.296875 15.058594 285.667969 15.429688 286.097656 15.429688 C 286.566406 15.429688 286.9375 15.058594 286.9375 14.628906 C 286.9375 14.160156 286.566406 13.789062 286.117188 13.789062 Z M 286.117188 13.789062 "/>
<path style=" stroke:none;fill-rule:nonzero;fill:rgb(0%,0%,0%);fill-opacity:1;" d="M 294.636719 5.058594 C 292.9375 5.195312 292.078125 5.488281 290.984375 6.25 C 289.363281 7.402344 288.484375 9.101562 288.484375 11.113281 C 288.484375 12.402344 288.894531 13.710938 289.539062 14.472656 C 290.105469 15.117188 290.90625 15.488281 291.824219 15.488281 C 293.679688 15.488281 294.96875 14.0625 294.96875 11.992188 C 294.96875 10.097656 293.875 8.886719 292.15625 8.886719 C 291.511719 8.886719 291.179688 8.984375 290.242188 9.550781 C 290.652344 7.285156 292.332031 5.683594 294.675781 5.292969 Z M 291.589844 9.570312 C 292.878906 9.570312 293.621094 10.644531 293.621094 12.5 C 293.621094 14.160156 293.035156 15.058594 292 15.058594 C 290.671875 15.058594 289.871094 13.652344 289.871094 11.347656 C 289.871094 10.585938 289.988281 10.15625 290.300781 9.941406 C 290.613281 9.707031 291.0625 9.570312 291.589844 9.570312 Z M 291.589844 9.570312 "/>
<path style=" stroke:none;fill-rule:nonzero;fill:rgb(0%,0%,0%);fill-opacity:1;" d="M 302.109375 5.058594 C 300.410156 5.195312 299.550781 5.488281 298.457031 6.25 C 296.835938 7.402344 295.957031 9.101562 295.957031 11.113281 C 295.957031 12.402344 296.367188 13.710938 297.011719 14.472656 C 297.578125 15.117188 298.378906 15.488281 299.296875 15.488281 C 301.152344 15.488281 302.441406 14.0625 302.441406 11.992188 C 302.441406 10.097656 301.347656 8.886719 299.628906 8.886719 C 298.984375 8.886719 298.652344 8.984375 297.714844 9.550781 C 298.125 7.285156 299.804688 5.683594 302.148438 5.292969 Z M 299.0625 9.570312 C 300.351562 9.570312 301.09375 10.644531 301.09375 12.5 C 301.09375 14.160156 300.507812 15.058594 299.472656 15.058594 C 298.144531 15.058594 297.34375 13.652344 297.34375 11.347656 C 297.34375 10.585938 297.460938 10.15625 297.773438 9.941406 C 298.085938 9.707031 298.535156 9.570312 299.0625 9.570312 Z M 299.0625 9.570312 "/>
<path style=" stroke:none;fill-rule:nonzero;fill:rgb(0%,0%,0%);fill-opacity:1;" d="M 309.582031 5.058594 C 307.882812 5.195312 307.023438 5.488281 305.929688 6.25 C 304.308594 7.402344 303.429688 9.101562 303.429688 11.113281 C 303.429688 12.402344 303.839844 13.710938 304.484375 14.472656 C 305.050781 15.117188 305.851562 15.488281 306.769531 15.488281 C 308.625 15.488281 309.914062 14.0625 309.914062 11.992188 C 309.914062 10.097656 308.820312 8.886719 307.101562 8.886719 C 306.457031 8.886719 306.125 8.984375 305.1875 9.550781 C 305.597656 7.285156 307.277344 5.683594 309.621094 5.292969 Z M 306.535156 9.570312 C 307.824219 9.570312 308.566406 10.644531 308.566406 12.5 C 308.566406 14.160156 307.980469 15.058594 306.945312 15.058594 C 305.617188 15.058594 304.816406 13.652344 304.816406 11.347656 C 304.816406 10.585938 304.933594 10.15625 305.246094 9.941406 C 305.558594 9.707031 306.007812 9.570312 306.535156 9.570312 Z M 306.535156 9.570312 "/>
<path style=" stroke:none;fill-rule:nonzero;fill:rgb(0%,0%,0%);fill-opacity:1;" d="M 317.089844 5.390625 L 311.5625 5.390625 L 310.683594 7.578125 L 310.9375 7.695312 C 311.582031 6.679688 311.855469 6.484375 312.675781 6.484375 L 315.917969 6.484375 L 312.96875 15.390625 L 313.925781 15.390625 L 317.089844 5.625 Z M 317.089844 5.390625 "/>
<path style=" stroke:none;fill-rule:nonzero;fill:rgb(0%,0%,0%);fill-opacity:1;" d="M 322.1875 11.425781 L 322.1875 12.382812 L 325.859375 12.382812 L 325.859375 11.425781 Z M 322.1875 11.425781 "/>
<path style=" stroke:none;fill-rule:nonzero;fill:rgb(0%,0%,0%);fill-opacity:1;" d="M 328.453125 13.789062 C 328.003906 13.789062 327.632812 14.160156 327.632812 14.628906 C 327.632812 15.058594 328.003906 15.429688 328.433594 15.429688 C 328.902344 15.429688 329.273438 15.058594 329.273438 14.628906 C 329.273438 14.160156 328.902344 13.789062 328.453125 13.789062 Z M 328.453125 13.789062 "/>
<path style=" stroke:none;fill-rule:nonzero;fill:rgb(0%,0%,0%);fill-opacity:1;" d="M 331.191406 15.605469 C 332.871094 15.410156 333.691406 15.117188 334.707031 14.394531 C 336.25 13.261719 337.167969 11.40625 337.167969 9.394531 C 337.167969 6.914062 335.800781 5.175781 333.867188 5.175781 C 332.089844 5.175781 330.761719 6.679688 330.761719 8.691406 C 330.761719 10.527344 331.835938 11.738281 333.457031 11.738281 C 334.277344 11.738281 334.902344 11.484375 335.683594 10.878906 C 335.078125 13.320312 333.417969 14.921875 331.152344 15.3125 Z M 335.722656 9.960938 C 335.722656 10.273438 335.664062 10.410156 335.488281 10.527344 C 335.078125 10.898438 334.53125 11.09375 333.984375 11.09375 C 332.851562 11.09375 332.128906 9.960938 332.128906 8.183594 C 332.128906 7.34375 332.382812 6.445312 332.695312 6.054688 C 332.949219 5.761719 333.320312 5.585938 333.75 5.585938 C 335.058594 5.585938 335.722656 6.875 335.722656 9.394531 Z M 335.722656 9.960938 "/>
<path style=" stroke:none;fill-rule:nonzero;fill:rgb(0%,0%,0%);fill-opacity:1;" d="M 341.574219 5.175781 C 340.753906 5.175781 340.128906 5.429688 339.582031 5.957031 C 338.703125 6.777344 338.136719 8.496094 338.136719 10.253906 C 338.136719 11.875 338.644531 13.632812 339.347656 14.472656 C 339.894531 15.117188 340.65625 15.488281 341.515625 15.488281 C 342.277344 15.488281 342.921875 15.234375 343.46875 14.707031 C 344.328125 13.886719 344.894531 12.148438 344.894531 10.351562 C 344.894531 7.285156 343.546875 5.175781 341.574219 5.175781 Z M 341.535156 5.566406 C 342.785156 5.566406 343.46875 7.246094 343.46875 10.371094 C 343.46875 13.496094 342.804688 15.097656 341.515625 15.097656 C 340.226562 15.097656 339.582031 13.496094 339.582031 10.390625 C 339.582031 7.226562 340.246094 5.566406 341.535156 5.566406 Z M 341.535156 5.566406 "/>
<path style=" stroke:none;fill-rule:nonzero;fill:rgb(0%,0%,0%);fill-opacity:1;" d="M 350.867188 13.789062 C 350.417969 13.789062 350.046875 14.160156 350.046875 14.628906 C 350.046875 15.058594 350.417969 15.429688 350.847656 15.429688 C 351.316406 15.429688 351.6875 15.058594 351.6875 14.628906 C 351.6875 14.160156 351.316406 13.789062 350.867188 13.789062 Z M 350.867188 13.789062 "/>
<path style=" stroke:none;fill-rule:nonzero;fill:rgb(0%,0%,0%);fill-opacity:1;" d="M 359.78125 11.816406 L 358.257812 11.816406 L 358.257812 5.175781 L 357.59375 5.175781 L 352.90625 11.816406 L 352.90625 12.773438 L 357.105469 12.773438 L 357.105469 15.273438 L 358.257812 15.273438 L 358.257812 12.773438 L 359.78125 12.773438 Z M 357.085938 11.816406 L 353.511719 11.816406 L 357.085938 6.699219 Z M 357.085938 11.816406 "/>
<path style=" stroke:none;fill-rule:nonzero;fill:rgb(0%,0%,0%);fill-opacity:1;" d="M 366.898438 5.390625 L 361.371094 5.390625 L 360.492188 7.578125 L 360.746094 7.695312 C 361.390625 6.679688 361.664062 6.484375 362.484375 6.484375 L 365.726562 6.484375 L 362.777344 15.390625 L 363.734375 15.390625 L 366.898438 5.625 Z M 366.898438 5.390625 "/>
<path style=" stroke:none;fill-rule:nonzero;fill:rgb(0%,0%,0%);fill-opacity:1;" d="M 374.332031 5.058594 C 372.632812 5.195312 371.773438 5.488281 370.679688 6.25 C 369.058594 7.402344 368.179688 9.101562 368.179688 11.113281 C 368.179688 12.402344 368.589844 13.710938 369.234375 14.472656 C 369.800781 15.117188 370.601562 15.488281 371.519531 15.488281 C 373.375 15.488281 374.664062 14.0625 374.664062 11.992188 C 374.664062 10.097656 373.570312 8.886719 371.851562 8.886719 C 371.207031 8.886719 370.875 8.984375 369.9375 9.550781 C 370.347656 7.285156 372.027344 5.683594 374.371094 5.292969 Z M 371.285156 9.570312 C 372.574219 9.570312 373.316406 10.644531 373.316406 12.5 C 373.316406 14.160156 372.730469 15.058594 371.695312 15.058594 C 370.367188 15.058594 369.566406 13.652344 369.566406 11.347656 C 369.566406 10.585938 369.683594 10.15625 369.996094 9.941406 C 370.308594 9.707031 370.757812 9.570312 371.285156 9.570312 Z M 371.285156 9.570312 "/>
<path style=" stroke:none;fill-rule:nonzero;fill:rgb(0%,0%,0%);fill-opacity:1;" d="M 382.234375 13.222656 L 382.039062 13.144531 C 381.492188 14.003906 381.296875 14.140625 380.632812 14.140625 L 377.058594 14.140625 L 379.558594 11.503906 C 380.90625 10.117188 381.472656 8.984375 381.472656 7.8125 C 381.472656 6.328125 380.261719 5.175781 378.71875 5.175781 C 377.898438 5.175781 377.117188 5.507812 376.570312 6.09375 C 376.082031 6.601562 375.867188 7.089844 375.613281 8.144531 L 375.925781 8.222656 C 376.511719 6.757812 377.058594 6.269531 378.09375 6.269531 C 379.34375 6.269531 380.203125 7.128906 380.203125 8.378906 C 380.203125 9.550781 379.5 10.9375 378.25 12.265625 L 375.59375 15.097656 L 375.59375 15.273438 L 381.414062 15.273438 Z M 382.234375 13.222656 "/>
<path style=" stroke:none;fill-rule:nonzero;fill:rgb(0%,0%,0%);fill-opacity:1;" d="M 386.9375 11.425781 L 386.9375 12.382812 L 390.609375 12.382812 L 390.609375 11.425781 Z M 386.9375 11.425781 "/>
<path style=" stroke:none;fill-rule:nonzero;fill:rgb(0%,0%,0%);fill-opacity:1;" d="M 393.203125 13.789062 C 392.753906 13.789062 392.382812 14.160156 392.382812 14.628906 C 392.382812 15.058594 392.753906 15.429688 393.183594 15.429688 C 393.652344 15.429688 394.023438 15.058594 394.023438 14.628906 C 394.023438 14.160156 393.652344 13.789062 393.203125 13.789062 Z M 393.203125 13.789062 "/>
<path style=" stroke:none;fill-rule:nonzero;fill:rgb(0%,0%,0%);fill-opacity:1;" d="M 399.402344 9.726562 C 400.886719 8.945312 401.394531 8.320312 401.394531 7.285156 C 401.394531 6.074219 400.320312 5.175781 398.835938 5.175781 C 397.195312 5.175781 395.984375 6.171875 395.984375 7.539062 C 395.984375 8.496094 396.277344 8.945312 397.839844 10.3125 C 396.238281 11.542969 395.90625 11.992188 395.90625 13.007812 C 395.90625 14.472656 397.078125 15.488281 398.777344 15.488281 C 400.574219 15.488281 401.707031 14.492188 401.707031 12.949219 C 401.707031 11.816406 401.199219 11.074219 399.402344 9.726562 Z M 399.128906 11.269531 C 400.222656 12.050781 400.574219 12.578125 400.574219 13.417969 C 400.574219 14.394531 399.910156 15.058594 398.933594 15.058594 C 397.800781 15.058594 397.039062 14.199219 397.039062 12.890625 C 397.039062 11.933594 397.371094 11.308594 398.230469 10.605469 Z M 398.972656 9.453125 C 397.644531 8.59375 397.097656 7.910156 397.097656 7.070312 C 397.097656 6.210938 397.761719 5.585938 398.71875 5.585938 C 399.734375 5.585938 400.378906 6.25 400.378906 7.285156 C 400.378906 8.125 399.949219 8.808594 399.109375 9.375 C 399.03125 9.414062 399.03125 9.414062 398.972656 9.453125 Z M 398.972656 9.453125 "/>
<path style=" stroke:none;fill-rule:nonzero;fill:rgb(0%,0%,0%);fill-opacity:1;" d="M 406.328125 5.175781 C 405.507812 5.175781 404.882812 5.429688 404.335938 5.957031 C 403.457031 6.777344 402.890625 8.496094 402.890625 10.253906 C 402.890625 11.875 403.398438 13.632812 404.101562 14.472656 C 404.648438 15.117188 405.410156 15.488281 406.269531 15.488281 C 407.03125 15.488281 407.675781 15.234375 408.222656 14.707031 C 409.082031 13.886719 409.648438 12.148438 409.648438 10.351562 C 409.648438 7.285156 408.300781 5.175781 406.328125 5.175781 Z M 406.289062 5.566406 C 407.539062 5.566406 408.222656 7.246094 408.222656 10.371094 C 408.222656 13.496094 407.558594 15.097656 406.269531 15.097656 C 404.980469 15.097656 404.335938 13.496094 404.335938 10.390625 C 404.335938 7.226562 405 5.566406 406.289062 5.566406 Z M 406.289062 5.566406 "/>
<path style=" stroke:none;fill-rule:nonzero;fill:rgb(0%,0%,0%);fill-opacity:1;" d="M 415.621094 13.789062 C 415.171875 13.789062 414.800781 14.160156 414.800781 14.628906 C 414.800781 15.058594 415.171875 15.429688 415.601562 15.429688 C 416.070312 15.429688 416.441406 15.058594 416.441406 14.628906 C 416.441406 14.160156 416.070312 13.789062 415.621094 13.789062 Z M 415.621094 13.789062 "/>
<path style=" stroke:none;fill-rule:nonzero;fill:rgb(0%,0%,0%);fill-opacity:1;" d="M 419.765625 10.351562 C 420.644531 10.351562 420.996094 10.371094 421.347656 10.507812 C 422.285156 10.839844 422.851562 11.679688 422.851562 12.714844 C 422.851562 13.964844 422.011719 14.941406 420.898438 14.941406 C 420.507812 14.941406 420.195312 14.84375 419.648438 14.472656 C 419.199219 14.21875 418.945312 14.101562 418.691406 14.101562 C 418.339844 14.101562 418.125 14.316406 418.125 14.628906 C 418.125 15.15625 418.769531 15.488281 419.804688 15.488281 C 420.957031 15.488281 422.148438 15.097656 422.851562 14.472656 C 423.554688 13.867188 423.925781 13.007812 423.925781 11.992188 C 423.925781 11.230469 423.691406 10.527344 423.261719 10.078125 C 422.96875 9.746094 422.675781 9.570312 422.03125 9.277344 C 423.046875 8.574219 423.417969 8.027344 423.417969 7.226562 C 423.417969 6.015625 422.480469 5.175781 421.09375 5.175781 C 420.351562 5.175781 419.6875 5.429688 419.160156 5.898438 C 418.710938 6.308594 418.476562 6.699219 418.144531 7.597656 L 418.378906 7.65625 C 418.984375 6.5625 419.667969 6.074219 420.605469 6.074219 C 421.582031 6.074219 422.246094 6.71875 422.246094 7.675781 C 422.246094 8.203125 422.03125 8.75 421.640625 9.121094 C 421.191406 9.570312 420.78125 9.785156 419.765625 10.15625 Z M 419.765625 10.351562 "/>
<path style=" stroke:none;fill-rule:nonzero;fill:rgb(0%,0%,0%);fill-opacity:1;" d="M 432.042969 13.222656 L 431.847656 13.144531 C 431.300781 14.003906 431.105469 14.140625 430.441406 14.140625 L 426.867188 14.140625 L 429.367188 11.503906 C 430.714844 10.117188 431.28125 8.984375 431.28125 7.8125 C 431.28125 6.328125 430.070312 5.175781 428.527344 5.175781 C 427.707031 5.175781 426.925781 5.507812 426.378906 6.09375 C 425.890625 6.601562 425.675781 7.089844 425.421875 8.144531 L 425.734375 8.222656 C 426.320312 6.757812 426.867188 6.269531 427.902344 6.269531 C 429.152344 6.269531 430.011719 7.128906 430.011719 8.378906 C 430.011719 9.550781 429.308594 10.9375 428.058594 12.265625 L 425.402344 15.097656 L 425.402344 15.273438 L 431.222656 15.273438 Z M 432.042969 13.222656 "/>
<path style=" stroke:none;fill-rule:nonzero;fill:rgb(0%,0%,0%);fill-opacity:1;" d="M 433.304688 15.605469 C 434.984375 15.410156 435.804688 15.117188 436.820312 14.394531 C 438.363281 13.261719 439.28125 11.40625 439.28125 9.394531 C 439.28125 6.914062 437.914062 5.175781 435.980469 5.175781 C 434.203125 5.175781 432.875 6.679688 432.875 8.691406 C 432.875 10.527344 433.949219 11.738281 435.570312 11.738281 C 436.390625 11.738281 437.015625 11.484375 437.796875 10.878906 C 437.191406 13.320312 435.53125 14.921875 433.265625 15.3125 Z M 437.835938 9.960938 C 437.835938 10.273438 437.777344 10.410156 437.601562 10.527344 C 437.191406 10.898438 436.644531 11.09375 436.097656 11.09375 C 434.964844 11.09375 434.242188 9.960938 434.242188 8.183594 C 434.242188 7.34375 434.496094 6.445312 434.808594 6.054688 C 435.0625 5.761719 435.433594 5.585938 435.863281 5.585938 C 437.171875 5.585938 437.835938 6.875 437.835938 9.394531 Z M 437.835938 9.960938 "/>
<path style=" stroke:none;fill-rule:nonzero;fill:rgb(0%,0%,0%);fill-opacity:1;" d="M 446.597656 5.390625 L 441.070312 5.390625 L 440.191406 7.578125 L 440.445312 7.695312 C 441.089844 6.679688 441.363281 6.484375 442.183594 6.484375 L 445.425781 6.484375 L 442.476562 15.390625 L 443.433594 15.390625 L 446.597656 5.625 Z M 446.597656 5.390625 "/>
<path style=" stroke:none;fill-rule:nonzero;fill:rgb(0%,0%,0%);fill-opacity:1;" d="M 451.691406 11.425781 L 451.691406 12.382812 L 455.363281 12.382812 L 455.363281 11.425781 Z M 451.691406 11.425781 "/>
<path style=" stroke:none;fill-rule:nonzero;fill:rgb(0%,0%,0%);fill-opacity:1;" d="M 457.957031 13.789062 C 457.507812 13.789062 457.136719 14.160156 457.136719 14.628906 C 457.136719 15.058594 457.507812 15.429688 457.9375 15.429688 C 458.40625 15.429688 458.777344 15.058594 458.777344 14.628906 C 458.777344 14.160156 458.40625 13.789062 457.957031 13.789062 Z M 457.957031 13.789062 "/>
<path style=" stroke:none;fill-rule:nonzero;fill:rgb(0%,0%,0%);fill-opacity:1;" d="M 466.515625 5.390625 L 460.988281 5.390625 L 460.109375 7.578125 L 460.363281 7.695312 C 461.007812 6.679688 461.28125 6.484375 462.101562 6.484375 L 465.34375 6.484375 L 462.394531 15.390625 L 463.351562 15.390625 L 466.515625 5.625 Z M 466.515625 5.390625 "/>
<path style=" stroke:none;fill-rule:nonzero;fill:rgb(0%,0%,0%);fill-opacity:1;" d="M 471.078125 5.175781 C 470.257812 5.175781 469.632812 5.429688 469.085938 5.957031 C 468.207031 6.777344 467.640625 8.496094 467.640625 10.253906 C 467.640625 11.875 468.148438 13.632812 468.851562 14.472656 C 469.398438 15.117188 470.160156 15.488281 471.019531 15.488281 C 471.78125 15.488281 472.425781 15.234375 472.972656 14.707031 C 473.832031 13.886719 474.398438 12.148438 474.398438 10.351562 C 474.398438 7.285156 473.050781 5.175781 471.078125 5.175781 Z M 471.039062 5.566406 C 472.289062 5.566406 472.972656 7.246094 472.972656 10.371094 C 472.972656 13.496094 472.308594 15.097656 471.019531 15.097656 C 469.730469 15.097656 469.085938 13.496094 469.085938 10.390625 C 469.085938 7.226562 469.75 5.566406 471.039062 5.566406 Z M 471.039062 5.566406 "/>
<path style=" stroke:none;fill-rule:nonzero;fill:rgb(0%,0%,0%);fill-opacity:1;" d="M 480.371094 13.789062 C 479.921875 13.789062 479.550781 14.160156 479.550781 14.628906 C 479.550781 15.058594 479.921875 15.429688 480.351562 15.429688 C 480.820312 15.429688 481.191406 15.058594 481.191406 14.628906 C 481.191406 14.160156 480.820312 13.789062 480.371094 13.789062 Z M 480.371094 13.789062 "/>
<path style=" stroke:none;fill-rule:nonzero;fill:rgb(0%,0%,0%);fill-opacity:1;" d="M 489.324219 13.222656 L 489.128906 13.144531 C 488.582031 14.003906 488.386719 14.140625 487.722656 14.140625 L 484.148438 14.140625 L 486.648438 11.503906 C 487.996094 10.117188 488.5625 8.984375 488.5625 7.8125 C 488.5625 6.328125 487.351562 5.175781 485.808594 5.175781 C 484.988281 5.175781 484.207031 5.507812 483.660156 6.09375 C 483.171875 6.601562 482.957031 7.089844 482.703125 8.144531 L 483.015625 8.222656 C 483.601562 6.757812 484.148438 6.269531 485.183594 6.269531 C 486.433594 6.269531 487.292969 7.128906 487.292969 8.378906 C 487.292969 9.550781 486.589844 10.9375 485.339844 12.265625 L 482.683594 15.097656 L 482.683594 15.273438 L 488.503906 15.273438 Z M 489.324219 13.222656 "/>
<path style=" stroke:none;fill-rule:nonzero;fill:rgb(0%,0%,0%);fill-opacity:1;" d="M 493.496094 5.175781 C 492.675781 5.175781 492.050781 5.429688 491.503906 5.957031 C 490.625 6.777344 490.058594 8.496094 490.058594 10.253906 C 490.058594 11.875 490.566406 13.632812 491.269531 14.472656 C 491.816406 15.117188 492.578125 15.488281 493.4375 15.488281 C 494.199219 15.488281 494.84375 15.234375 495.390625 14.707031 C 496.25 13.886719 496.816406 12.148438 496.816406 10.351562 C 496.816406 7.285156 495.46875 5.175781 493.496094 5.175781 Z M 493.457031 5.566406 C 494.707031 5.566406 495.390625 7.246094 495.390625 10.371094 C 495.390625 13.496094 494.726562 15.097656 493.4375 15.097656 C 492.148438 15.097656 491.503906 13.496094 491.503906 10.390625 C 491.503906 7.226562 492.167969 5.566406 493.457031 5.566406 Z M 493.457031 5.566406 "/>
<path style=" stroke:none;fill-rule:nonzero;fill:rgb(0%,0%,0%);fill-opacity:1;" d="M 501.511719 9.726562 C 502.996094 8.945312 503.503906 8.320312 503.503906 7.285156 C 503.503906 6.074219 502.429688 5.175781 500.945312 5.175781 C 499.304688 5.175781 498.09375 6.171875 498.09375 7.539062 C 498.09375 8.496094 498.386719 8.945312 499.949219 10.3125 C 498.347656 11.542969 498.015625 11.992188 498.015625 13.007812 C 498.015625 14.472656 499.1875 15.488281 500.886719 15.488281 C 502.683594 15.488281 503.816406 14.492188 503.816406 12.949219 C 503.816406 11.816406 503.308594 11.074219 501.511719 9.726562 Z M 501.238281 11.269531 C 502.332031 12.050781 502.683594 12.578125 502.683594 13.417969 C 502.683594 14.394531 502.019531 15.058594 501.042969 15.058594 C 499.910156 15.058594 499.148438 14.199219 499.148438 12.890625 C 499.148438 11.933594 499.480469 11.308594 500.339844 10.605469 Z M 501.082031 9.453125 C 499.753906 8.59375 499.207031 7.910156 499.207031 7.070312 C 499.207031 6.210938 499.871094 5.585938 500.828125 5.585938 C 501.84375 5.585938 502.488281 6.25 502.488281 7.285156 C 502.488281 8.125 502.058594 8.808594 501.21875 9.375 C 501.140625 9.414062 501.140625 9.414062 501.082031 9.453125 Z M 501.082031 9.453125 "/>
<path style=" stroke:none;fill-rule:nonzero;fill:rgb(0%,0%,0%);fill-opacity:1;" d="M 506.933594 10.351562 C 507.8125 10.351562 508.164062 10.371094 508.515625 10.507812 C 509.453125 10.839844 510.019531 11.679688 510.019531 12.714844 C 510.019531 13.964844 509.179688 14.941406 508.066406 14.941406 C 507.675781 14.941406 507.363281 14.84375 506.816406 14.472656 C 506.367188 14.21875 506.113281 14.101562 505.859375 14.101562 C 505.507812 14.101562 505.292969 14.316406 505.292969 14.628906 C 505.292969 15.15625 505.9375 15.488281 506.972656 15.488281 C 508.125 15.488281 509.316406 15.097656 510.019531 14.472656 C 510.722656 13.867188 511.09375 13.007812 511.09375 11.992188 C 511.09375 11.230469 510.859375 10.527344 510.429688 10.078125 C 510.136719 9.746094 509.84375 9.570312 509.199219 9.277344 C 510.214844 8.574219 510.585938 8.027344 510.585938 7.226562 C 510.585938 6.015625 509.648438 5.175781 508.261719 5.175781 C 507.519531 5.175781 506.855469 5.429688 506.328125 5.898438 C 505.878906 6.308594 505.644531 6.699219 505.3125 7.597656 L 505.546875 7.65625 C 506.152344 6.5625 506.835938 6.074219 507.773438 6.074219 C 508.75 6.074219 509.414062 6.71875 509.414062 7.675781 C 509.414062 8.203125 509.199219 8.75 508.808594 9.121094 C 508.359375 9.570312 507.949219 9.785156 506.933594 10.15625 Z M 506.933594 10.351562 "/>
<path style=" stroke:none;fill-rule:nonzero;fill:rgb(0%,0%,0%);fill-opacity:1;" d="M 516.445312 11.425781 L 516.445312 12.382812 L 520.117188 12.382812 L 520.117188 11.425781 Z M 516.445312 11.425781 "/>
<path style=" stroke:none;fill-rule:nonzero;fill:rgb(0%,0%,0%);fill-opacity:1;" d="M 522.707031 13.789062 C 522.257812 13.789062 521.886719 14.160156 521.886719 14.628906 C 521.886719 15.058594 522.257812 15.429688 522.6875 15.429688 C 523.15625 15.429688 523.527344 15.058594 523.527344 14.628906 C 523.527344 14.160156 523.15625 13.789062 522.707031 13.789062 Z M 522.707031 13.789062 "/>
<path style=" stroke:none;fill-rule:nonzero;fill:rgb(0%,0%,0%);fill-opacity:1;" d="M 531.230469 5.058594 C 529.53125 5.195312 528.671875 5.488281 527.578125 6.25 C 525.957031 7.402344 525.078125 9.101562 525.078125 11.113281 C 525.078125 12.402344 525.488281 13.710938 526.132812 14.472656 C 526.699219 15.117188 527.5 15.488281 528.417969 15.488281 C 530.273438 15.488281 531.5625 14.0625 531.5625 11.992188 C 531.5625 10.097656 530.46875 8.886719 528.75 8.886719 C 528.105469 8.886719 527.773438 8.984375 526.835938 9.550781 C 527.246094 7.285156 528.925781 5.683594 531.269531 5.292969 Z M 528.183594 9.570312 C 529.472656 9.570312 530.214844 10.644531 530.214844 12.5 C 530.214844 14.160156 529.628906 15.058594 528.59375 15.058594 C 527.265625 15.058594 526.464844 13.652344 526.464844 11.347656 C 526.464844 10.585938 526.582031 10.15625 526.894531 9.941406 C 527.207031 9.707031 527.65625 9.570312 528.183594 9.570312 Z M 528.183594 9.570312 "/>
<path style=" stroke:none;fill-rule:nonzero;fill:rgb(0%,0%,0%);fill-opacity:1;" d="M 535.832031 5.175781 C 535.011719 5.175781 534.386719 5.429688 533.839844 5.957031 C 532.960938 6.777344 532.394531 8.496094 532.394531 10.253906 C 532.394531 11.875 532.902344 13.632812 533.605469 14.472656 C 534.152344 15.117188 534.914062 15.488281 535.773438 15.488281 C 536.535156 15.488281 537.179688 15.234375 537.726562 14.707031 C 538.585938 13.886719 539.152344 12.148438 539.152344 10.351562 C 539.152344 7.285156 537.804688 5.175781 535.832031 5.175781 Z M 535.792969 5.566406 C 537.042969 5.566406 537.726562 7.246094 537.726562 10.371094 C 537.726562 13.496094 537.0625 15.097656 535.773438 15.097656 C 534.484375 15.097656 533.839844 13.496094 533.839844 10.390625 C 533.839844 7.226562 534.503906 5.566406 535.792969 5.566406 Z M 535.792969 5.566406 "/>
<path style=" stroke:none;fill-rule:nonzero;fill:rgb(0%,0%,0%);fill-opacity:1;" d="M 545.125 13.789062 C 544.675781 13.789062 544.304688 14.160156 544.304688 14.628906 C 544.304688 15.058594 544.675781 15.429688 545.105469 15.429688 C 545.574219 15.429688 545.945312 15.058594 545.945312 14.628906 C 545.945312 14.160156 545.574219 13.789062 545.125 13.789062 Z M 545.125 13.789062 "/>
<path style=" stroke:none;fill-rule:nonzero;fill:rgb(0%,0%,0%);fill-opacity:1;" d="M 551.339844 5.175781 L 548.644531 6.523438 L 548.644531 6.738281 C 548.820312 6.660156 548.996094 6.601562 549.054688 6.582031 C 549.308594 6.464844 549.5625 6.40625 549.71875 6.40625 C 550.03125 6.40625 550.167969 6.640625 550.167969 7.109375 L 550.167969 13.886719 C 550.167969 14.375 550.050781 14.726562 549.816406 14.863281 C 549.582031 14.980469 549.367188 15.039062 548.742188 15.058594 L 548.742188 15.273438 L 552.863281 15.273438 L 552.863281 15.058594 C 551.691406 15.039062 551.457031 14.882812 551.457031 14.160156 L 551.457031 5.195312 Z M 551.339844 5.175781 "/>
<path style=" stroke:none;fill-rule:nonzero;fill:rgb(0%,0%,0%);fill-opacity:1;" d="M 558.246094 5.175781 C 557.425781 5.175781 556.800781 5.429688 556.253906 5.957031 C 555.375 6.777344 554.808594 8.496094 554.808594 10.253906 C 554.808594 11.875 555.316406 13.632812 556.019531 14.472656 C 556.566406 15.117188 557.328125 15.488281 558.1875 15.488281 C 558.949219 15.488281 559.59375 15.234375 560.140625 14.707031 C 561 13.886719 561.566406 12.148438 561.566406 10.351562 C 561.566406 7.285156 560.21875 5.175781 558.246094 5.175781 Z M 558.207031 5.566406 C 559.457031 5.566406 560.140625 7.246094 560.140625 10.371094 C 560.140625 13.496094 559.476562 15.097656 558.1875 15.097656 C 556.898438 15.097656 556.253906 13.496094 556.253906 10.390625 C 556.253906 7.226562 556.917969 5.566406 558.207031 5.566406 Z M 558.207031 5.566406 "/>
<path style=" stroke:none;fill-rule:nonzero;fill:rgb(0%,0%,0%);fill-opacity:1;" d="M 566.285156 5.175781 L 563.589844 6.523438 L 563.589844 6.738281 C 563.765625 6.660156 563.941406 6.601562 564 6.582031 C 564.253906 6.464844 564.507812 6.40625 564.664062 6.40625 C 564.976562 6.40625 565.113281 6.640625 565.113281 7.109375 L 565.113281 13.886719 C 565.113281 14.375 564.996094 14.726562 564.761719 14.863281 C 564.527344 14.980469 564.3125 15.039062 563.6875 15.058594 L 563.6875 15.273438 L 567.808594 15.273438 L 567.808594 15.058594 C 566.636719 15.039062 566.402344 14.882812 566.402344 14.160156 L 566.402344 5.195312 Z M 566.285156 5.175781 "/>
<path style=" stroke:none;fill-rule:nonzero;fill:rgb(0%,0%,0%);fill-opacity:1;" d="M 573.191406 5.175781 C 572.371094 5.175781 571.746094 5.429688 571.199219 5.957031 C 570.320312 6.777344 569.753906 8.496094 569.753906 10.253906 C 569.753906 11.875 570.261719 13.632812 570.964844 14.472656 C 571.511719 15.117188 572.273438 15.488281 573.132812 15.488281 C 573.894531 15.488281 574.539062 15.234375 575.085938 14.707031 C 575.945312 13.886719 576.511719 12.148438 576.511719 10.351562 C 576.511719 7.285156 575.164062 5.175781 573.191406 5.175781 Z M 573.152344 5.566406 C 574.402344 5.566406 575.085938 7.246094 575.085938 10.371094 C 575.085938 13.496094 574.421875 15.097656 573.132812 15.097656 C 571.84375 15.097656 571.199219 13.496094 571.199219 10.390625 C 571.199219 7.226562 571.863281 5.566406 573.152344 5.566406 Z M 573.152344 5.566406 "/>
<path style=" stroke:none;fill-rule:nonzero;fill:rgb(0%,0%,0%);fill-opacity:1;" d="M 581.195312 11.425781 L 581.195312 12.382812 L 584.867188 12.382812 L 584.867188 11.425781 Z M 581.195312 11.425781 "/>
<path style=" stroke:none;fill-rule:nonzero;fill:rgb(0%,0%,0%);fill-opacity:1;" d="M 587.460938 13.789062 C 587.011719 13.789062 586.640625 14.160156 586.640625 14.628906 C 586.640625 15.058594 587.011719 15.429688 587.441406 15.429688 C 587.910156 15.429688 588.28125 15.058594 588.28125 14.628906 C 588.28125 14.160156 587.910156 13.789062 587.460938 13.789062 Z M 587.460938 13.789062 "/>
<path style=" stroke:none;fill-rule:nonzero;fill:rgb(0%,0%,0%);fill-opacity:1;" d="M 592.015625 6.5625 L 594.945312 6.5625 C 595.199219 6.5625 595.257812 6.523438 595.296875 6.425781 L 595.863281 5.097656 L 595.726562 5 C 595.511719 5.3125 595.355469 5.390625 595.042969 5.390625 L 591.917969 5.390625 L 590.296875 8.925781 C 590.277344 8.945312 590.277344 8.964844 590.277344 9.003906 C 590.277344 9.082031 590.335938 9.121094 590.453125 9.121094 C 590.941406 9.121094 591.527344 9.21875 592.152344 9.414062 C 593.871094 9.960938 594.652344 10.898438 594.652344 12.382812 C 594.652344 13.808594 593.734375 14.921875 592.582031 14.921875 C 592.269531 14.921875 592.015625 14.824219 591.585938 14.492188 C 591.097656 14.160156 590.746094 14.003906 590.433594 14.003906 C 590.003906 14.003906 589.789062 14.179688 589.789062 14.550781 C 589.789062 15.117188 590.492188 15.488281 591.625 15.488281 C 592.875 15.488281 593.949219 15.078125 594.691406 14.316406 C 595.394531 13.652344 595.707031 12.792969 595.707031 11.660156 C 595.707031 10.585938 595.414062 9.902344 594.671875 9.140625 C 594.007812 8.496094 593.167969 8.144531 591.390625 7.832031 Z M 592.015625 6.5625 "/>
<path style=" stroke:none;fill-rule:nonzero;fill:rgb(0%,0%,0%);fill-opacity:1;" d="M 600.582031 5.175781 C 599.761719 5.175781 599.136719 5.429688 598.589844 5.957031 C 597.710938 6.777344 597.144531 8.496094 597.144531 10.253906 C 597.144531 11.875 597.652344 13.632812 598.355469 14.472656 C 598.902344 15.117188 599.664062 15.488281 600.523438 15.488281 C 601.285156 15.488281 601.929688 15.234375 602.476562 14.707031 C 603.335938 13.886719 603.902344 12.148438 603.902344 10.351562 C 603.902344 7.285156 602.554688 5.175781 600.582031 5.175781 Z M 600.542969 5.566406 C 601.792969 5.566406 602.476562 7.246094 602.476562 10.371094 C 602.476562 13.496094 601.8125 15.097656 600.523438 15.097656 C 599.234375 15.097656 598.589844 13.496094 598.589844 10.390625 C 598.589844 7.226562 599.253906 5.566406 600.542969 5.566406 Z M 600.542969 5.566406 "/>
<path style=" stroke:none;fill-rule:nonzero;fill:rgb(0%,0%,0%);fill-opacity:1;" d="M 611.792969 5.175781 C 610.972656 5.175781 610.347656 5.429688 609.800781 5.957031 C 608.921875 6.777344 608.355469 8.496094 608.355469 10.253906 C 608.355469 11.875 608.863281 13.632812 609.566406 14.472656 C 610.113281 15.117188 610.875 15.488281 611.734375 15.488281 C 612.496094 15.488281 613.140625 15.234375 613.6875 14.707031 C 614.546875 13.886719 615.113281 12.148438 615.113281 10.351562 C 615.113281 7.285156 613.765625 5.175781 611.792969 5.175781 Z M 611.753906 5.566406 C 613.003906 5.566406 613.6875 7.246094 613.6875 10.371094 C 613.6875 13.496094 613.023438 15.097656 611.734375 15.097656 C 610.445312 15.097656 609.800781 13.496094 609.800781 10.390625 C 609.800781 7.226562 610.464844 5.566406 611.753906 5.566406 Z M 611.753906 5.566406 "/>
<path style=" stroke:none;fill-rule:nonzero;fill:rgb(0%,0%,0%);fill-opacity:1;" d="M 619.796875 11.425781 L 619.796875 12.382812 L 623.46875 12.382812 L 623.46875 11.425781 Z M 619.796875 11.425781 "/>
<path style=" stroke:none;fill-rule:nonzero;fill:rgb(0%,0%,0%);fill-opacity:1;" d="M 626.0625 13.789062 C 625.613281 13.789062 625.242188 14.160156 625.242188 14.628906 C 625.242188 15.058594 625.613281 15.429688 626.042969 15.429688 C 626.511719 15.429688 626.882812 15.058594 626.882812 14.628906 C 626.882812 14.160156 626.511719 13.789062 626.0625 13.789062 Z M 626.0625 13.789062 "/>
<path style=" stroke:none;fill-rule:nonzero;fill:rgb(0%,0%,0%);fill-opacity:1;" d="M 634.972656 11.816406 L 633.449219 11.816406 L 633.449219 5.175781 L 632.785156 5.175781 L 628.097656 11.816406 L 628.097656 12.773438 L 632.296875 12.773438 L 632.296875 15.273438 L 633.449219 15.273438 L 633.449219 12.773438 L 634.972656 12.773438 Z M 632.277344 11.816406 L 628.703125 11.816406 L 632.277344 6.699219 Z M 632.277344 11.816406 "/>
<path style=" stroke:none;fill-rule:nonzero;fill:rgb(0%,0%,0%);fill-opacity:1;" d="M 639.183594 5.175781 C 638.363281 5.175781 637.738281 5.429688 637.191406 5.957031 C 636.3125 6.777344 635.746094 8.496094 635.746094 10.253906 C 635.746094 11.875 636.253906 13.632812 636.957031 14.472656 C 637.503906 15.117188 638.265625 15.488281 639.125 15.488281 C 639.886719 15.488281 640.53125 15.234375 641.078125 14.707031 C 641.9375 13.886719 642.503906 12.148438 642.503906 10.351562 C 642.503906 7.285156 641.15625 5.175781 639.183594 5.175781 Z M 639.144531 5.566406 C 640.394531 5.566406 641.078125 7.246094 641.078125 10.371094 C 641.078125 13.496094 640.414062 15.097656 639.125 15.097656 C 637.835938 15.097656 637.191406 13.496094 637.191406 10.390625 C 637.191406 7.226562 637.855469 5.566406 639.144531 5.566406 Z M 639.144531 5.566406 "/>
<path style=" stroke:none;fill-rule:nonzero;fill:rgb(0%,0%,0%);fill-opacity:1;" d="M 647.1875 11.425781 L 647.1875 12.382812 L 650.859375 12.382812 L 650.859375 11.425781 Z M 647.1875 11.425781 "/>
<path style=" stroke:none;fill-rule:nonzero;fill:rgb(0%,0%,0%);fill-opacity:1;" d="M 653.453125 13.789062 C 653.003906 13.789062 652.632812 14.160156 652.632812 14.628906 C 652.632812 15.058594 653.003906 15.429688 653.433594 15.429688 C 653.902344 15.429688 654.273438 15.058594 654.273438 14.628906 C 654.273438 14.160156 653.902344 13.789062 653.453125 13.789062 Z M 653.453125 13.789062 "/>
<path style=" stroke:none;fill-rule:nonzero;fill:rgb(0%,0%,0%);fill-opacity:1;" d="M 659.671875 5.175781 L 656.976562 6.523438 L 656.976562 6.738281 C 657.152344 6.660156 657.328125 6.601562 657.386719 6.582031 C 657.640625 6.464844 657.894531 6.40625 658.050781 6.40625 C 658.363281 6.40625 658.5 6.640625 658.5 7.109375 L 658.5 13.886719 C 658.5 14.375 658.382812 14.726562 658.148438 14.863281 C 657.914062 14.980469 657.699219 15.039062 657.074219 15.058594 L 657.074219 15.273438 L 661.195312 15.273438 L 661.195312 15.058594 C 660.023438 15.039062 659.789062 14.882812 659.789062 14.160156 L 659.789062 5.195312 Z M 659.671875 5.175781 "/>
<path style=" stroke:none;fill-rule:nonzero;fill:rgb(0%,0%,0%);fill-opacity:1;" d="M 666.574219 5.175781 C 665.753906 5.175781 665.128906 5.429688 664.582031 5.957031 C 663.703125 6.777344 663.136719 8.496094 663.136719 10.253906 C 663.136719 11.875 663.644531 13.632812 664.347656 14.472656 C 664.894531 15.117188 665.65625 15.488281 666.515625 15.488281 C 667.277344 15.488281 667.921875 15.234375 668.46875 14.707031 C 669.328125 13.886719 669.894531 12.148438 669.894531 10.351562 C 669.894531 7.285156 668.546875 5.175781 666.574219 5.175781 Z M 666.535156 5.566406 C 667.785156 5.566406 668.46875 7.246094 668.46875 10.371094 C 668.46875 13.496094 667.804688 15.097656 666.515625 15.097656 C 665.226562 15.097656 664.582031 13.496094 664.582031 10.390625 C 664.582031 7.226562 665.246094 5.566406 666.535156 5.566406 Z M 666.535156 5.566406 "/>
<path style=" stroke:none;fill-rule:nonzero;fill:rgb(0%,0%,0%);fill-opacity:1;" d="M 674.613281 5.175781 L 671.917969 6.523438 L 671.917969 6.738281 C 672.09375 6.660156 672.269531 6.601562 672.328125 6.582031 C 672.582031 6.464844 672.835938 6.40625 672.992188 6.40625 C 673.304688 6.40625 673.441406 6.640625 673.441406 7.109375 L 673.441406 13.886719 C 673.441406 14.375 673.324219 14.726562 673.089844 14.863281 C 672.855469 14.980469 672.640625 15.039062 672.015625 15.058594 L 672.015625 15.273438 L 676.136719 15.273438 L 676.136719 15.058594 C 674.964844 15.039062 674.730469 14.882812 674.730469 14.160156 L 674.730469 5.195312 Z M 674.613281 5.175781 "/>
<path style=" stroke:none;fill-rule:nonzero;fill:rgb(0%,0%,0%);fill-opacity:1;" d="M 681.519531 5.175781 C 680.699219 5.175781 680.074219 5.429688 679.527344 5.957031 C 678.648438 6.777344 678.082031 8.496094 678.082031 10.253906 C 678.082031 11.875 678.589844 13.632812 679.292969 14.472656 C 679.839844 15.117188 680.601562 15.488281 681.460938 15.488281 C 682.222656 15.488281 682.867188 15.234375 683.414062 14.707031 C 684.273438 13.886719 684.839844 12.148438 684.839844 10.351562 C 684.839844 7.285156 683.492188 5.175781 681.519531 5.175781 Z M 681.480469 5.566406 C 682.730469 5.566406 683.414062 7.246094 683.414062 10.371094 C 683.414062 13.496094 682.75 15.097656 681.460938 15.097656 C 680.171875 15.097656 679.527344 13.496094 679.527344 10.390625 C 679.527344 7.226562 680.191406 5.566406 681.480469 5.566406 Z M 681.480469 5.566406 "/>
</g>
</svg>
