<?xml version="1.0" encoding="UTF-8"?>
<svg xmlns="http://www.w3.org/2000/svg" xmlns:xlink="http://www.w3.org/1999/xlink" width="674.77115pt" height="20.605469pt" viewBox="0 0 674.77115 20.605469" version="1.1">
<g id="surface745">
<path style=" stroke:none;fill-rule:nonzero;fill:rgb(0%,0%,0%);fill-opacity:1;" d="M 5 11.425781 L 5 12.382812 L 8.671875 12.382812 L 8.671875 11.425781 Z M 5 11.425781 "/>
<path style=" stroke:none;fill-rule:nonzero;fill:rgb(0%,0%,0%);fill-opacity:1;" d="M 11.675781 10.351562 C 12.554688 10.351562 12.90625 10.371094 13.257812 10.507812 C 14.195312 10.839844 14.761719 11.679688 14.761719 12.714844 C 14.761719 13.964844 13.921875 14.941406 12.808594 14.941406 C 12.417969 14.941406 12.105469 14.84375 11.558594 14.472656 C 11.109375 14.21875 10.855469 14.101562 10.601562 14.101562 C 10.25 14.101562 10.035156 14.316406 10.035156 14.628906 C 10.035156 15.15625 10.679688 15.488281 11.714844 15.488281 C 12.867188 15.488281 14.058594 15.097656 14.761719 14.472656 C 15.464844 13.867188 15.835938 13.007812 15.835938 11.992188 C 15.835938 11.230469 15.601562 10.527344 15.171875 10.078125 C 14.878906 9.746094 14.585938 9.570312 13.941406 9.277344 C 14.957031 8.574219 15.328125 8.027344 15.328125 7.226562 C 15.328125 6.015625 14.390625 5.175781 13.003906 5.175781 C 12.261719 5.175781 11.597656 5.429688 11.070312 5.898438 C 10.621094 6.308594 10.386719 6.699219 10.054688 7.597656 L 10.289062 7.65625 C 10.894531 6.5625 11.578125 6.074219 12.515625 6.074219 C 13.492188 6.074219 14.15625 6.71875 14.15625 7.675781 C 14.15625 8.203125 13.941406 8.75 13.550781 9.121094 C 13.101562 9.570312 12.691406 9.785156 11.675781 10.15625 Z M 11.675781 10.351562 "/>
<path style=" stroke:none;fill-rule:nonzero;fill:rgb(0%,0%,0%);fill-opacity:1;" d="M 18.738281 13.789062 C 18.289062 13.789062 17.917969 14.160156 17.917969 14.628906 C 17.917969 15.058594 18.289062 15.429688 18.71875 15.429688 C 19.1875 15.429688 19.558594 15.058594 19.558594 14.628906 C 19.558594 14.160156 19.1875 13.789062 18.738281 13.789062 Z M 18.738281 13.789062 "/>
<path style=" stroke:none;fill-rule:nonzero;fill:rgb(0%,0%,0%);fill-opacity:1;" d="M 27.105469 13.789062 C 26.65625 13.789062 26.285156 14.160156 26.285156 14.628906 C 26.285156 15.058594 26.65625 15.429688 27.085938 15.429688 C 27.554688 15.429688 27.925781 15.058594 27.925781 14.628906 C 27.925781 14.160156 27.554688 13.789062 27.105469 13.789062 Z M 27.105469 13.789062 "/>
<path style=" stroke:none;fill-rule:nonzero;fill:rgb(0%,0%,0%);fill-opacity:1;" d="M 35.628906 5.058594 C 33.929688 5.195312 33.070312 5.488281 31.976562 6.25 C 30.355469 7.402344 29.476562 9.101562 29.476562 11.113281 C 29.476562 12.402344 29.886719 13.710938 30.53125 14.472656 C 31.097656 15.117188 31.898438 15.488281 32.816406 15.488281 C 34.671875 15.488281 35.960938 14.0625 35.960938 11.992188 C 35.960938 10.097656 34.867188 8.886719 33.148438 8.886719 C 32.503906 8.886719 32.171875 8.984375 31.234375 9.550781 C 31.644531 7.285156 33.324219 5.683594 35.667969 5.292969 Z M 32.582031 9.570312 C 33.871094 9.570312 34.613281 10.644531 34.613281 12.5 C 34.613281 14.160156 34.027344 15.058594 32.992188 15.058594 C 31.664062 15.058594 30.863281 13.652344 30.863281 11.347656 C 30.863281 10.585938 30.980469 10.15625 31.292969 9.941406 C 31.605469 9.707031 32.054688 9.570312 32.582031 9.570312 Z M 32.582031 9.570312 "/>
<path style=" stroke:none;fill-rule:nonzero;fill:rgb(0%,0%,0%);fill-opacity:1;" d="M 40.226562 5.175781 C 39.40625 5.175781 38.78125 5.429688 38.234375 5.957031 C 37.355469 6.777344 36.789062 8.496094 36.789062 10.253906 C 36.789062 11.875 37.296875 13.632812 38 14.472656 C 38.546875 15.117188 39.308594 15.488281 40.167969 15.488281 C 40.929688 15.488281 41.574219 15.234375 42.121094 14.707031 C 42.980469 13.886719 43.546875 12.148438 43.546875 10.351562 C 43.546875 7.285156 42.199219 5.175781 40.226562 5.175781 Z M 40.1875 5.566406 C 41.4375 5.566406 42.121094 7.246094 42.121094 10.371094 C 42.121094 13.496094 41.457031 15.097656 40.167969 15.097656 C 38.878906 15.097656 38.234375 13.496094 38.234375 10.390625 C 38.234375 7.226562 38.898438 5.566406 40.1875 5.566406 Z M 40.1875 5.566406 "/>
<path style=" stroke:none;fill-rule:nonzero;fill:rgb(0%,0%,0%);fill-opacity:1;" d="M 47.699219 5.175781 C 46.878906 5.175781 46.253906 5.429688 45.707031 5.957031 C 44.828125 6.777344 44.261719 8.496094 44.261719 10.253906 C 44.261719 11.875 44.769531 13.632812 45.472656 14.472656 C 46.019531 15.117188 46.78125 15.488281 47.640625 15.488281 C 48.402344 15.488281 49.046875 15.234375 49.59375 14.707031 C 50.453125 13.886719 51.019531 12.148438 51.019531 10.351562 C 51.019531 7.285156 49.671875 5.175781 47.699219 5.175781 Z M 47.660156 5.566406 C 48.910156 5.566406 49.59375 7.246094 49.59375 10.371094 C 49.59375 13.496094 48.929688 15.097656 47.640625 15.097656 C 46.351562 15.097656 45.707031 13.496094 45.707031 10.390625 C 45.707031 7.226562 46.371094 5.566406 47.660156 5.566406 Z M 47.660156 5.566406 "/>
<path style=" stroke:none;fill-rule:nonzero;fill:rgb(0%,0%,0%);fill-opacity:1;" d="M 55.171875 5.175781 C 54.351562 5.175781 53.726562 5.429688 53.179688 5.957031 C 52.300781 6.777344 51.734375 8.496094 51.734375 10.253906 C 51.734375 11.875 52.242188 13.632812 52.945312 14.472656 C 53.492188 15.117188 54.253906 15.488281 55.113281 15.488281 C 55.875 15.488281 56.519531 15.234375 57.066406 14.707031 C 57.925781 13.886719 58.492188 12.148438 58.492188 10.351562 C 58.492188 7.285156 57.144531 5.175781 55.171875 5.175781 Z M 55.132812 5.566406 C 56.382812 5.566406 57.066406 7.246094 57.066406 10.371094 C 57.066406 13.496094 56.402344 15.097656 55.113281 15.097656 C 53.824219 15.097656 53.179688 13.496094 53.179688 10.390625 C 53.179688 7.226562 53.84375 5.566406 55.132812 5.566406 Z M 55.132812 5.566406 "/>
<path style=" stroke:none;fill-rule:nonzero;fill:rgb(0%,0%,0%);fill-opacity:1;" d="M 63.175781 11.425781 L 63.175781 12.382812 L 66.847656 12.382812 L 66.847656 11.425781 Z M 63.175781 11.425781 "/>
<path style=" stroke:none;fill-rule:nonzero;fill:rgb(0%,0%,0%);fill-opacity:1;" d="M 74.65625 13.222656 L 74.460938 13.144531 C 73.914062 14.003906 73.71875 14.140625 73.054688 14.140625 L 69.480469 14.140625 L 71.980469 11.503906 C 73.328125 10.117188 73.894531 8.984375 73.894531 7.8125 C 73.894531 6.328125 72.683594 5.175781 71.140625 5.175781 C 70.320312 5.175781 69.539062 5.507812 68.992188 6.09375 C 68.503906 6.601562 68.289062 7.089844 68.035156 8.144531 L 68.347656 8.222656 C 68.933594 6.757812 69.480469 6.269531 70.515625 6.269531 C 71.765625 6.269531 72.625 7.128906 72.625 8.378906 C 72.625 9.550781 71.921875 10.9375 70.671875 12.265625 L 68.015625 15.097656 L 68.015625 15.273438 L 73.835938 15.273438 Z M 74.65625 13.222656 "/>
<path style=" stroke:none;fill-rule:nonzero;fill:rgb(0%,0%,0%);fill-opacity:1;" d="M 76.914062 13.789062 C 76.464844 13.789062 76.09375 14.160156 76.09375 14.628906 C 76.09375 15.058594 76.464844 15.429688 76.894531 15.429688 C 77.363281 15.429688 77.734375 15.058594 77.734375 14.628906 C 77.734375 14.160156 77.363281 13.789062 76.914062 13.789062 Z M 76.914062 13.789062 "/>
<path style=" stroke:none;fill-rule:nonzero;fill:rgb(0%,0%,0%);fill-opacity:1;" d="M 83.113281 9.726562 C 84.597656 8.945312 85.105469 8.320312 85.105469 7.285156 C 85.105469 6.074219 84.03125 5.175781 82.546875 5.175781 C 80.90625 5.175781 79.695312 6.171875 79.695312 7.539062 C 79.695312 8.496094 79.988281 8.945312 81.550781 10.3125 C 79.949219 11.542969 79.617188 11.992188 79.617188 13.007812 C 79.617188 14.472656 80.789062 15.488281 82.488281 15.488281 C 84.285156 15.488281 85.417969 14.492188 85.417969 12.949219 C 85.417969 11.816406 84.910156 11.074219 83.113281 9.726562 Z M 82.839844 11.269531 C 83.933594 12.050781 84.285156 12.578125 84.285156 13.417969 C 84.285156 14.394531 83.621094 15.058594 82.644531 15.058594 C 81.511719 15.058594 80.75 14.199219 80.75 12.890625 C 80.75 11.933594 81.082031 11.308594 81.941406 10.605469 Z M 82.683594 9.453125 C 81.355469 8.59375 80.808594 7.910156 80.808594 7.070312 C 80.808594 6.210938 81.472656 5.585938 82.429688 5.585938 C 83.445312 5.585938 84.089844 6.25 84.089844 7.285156 C 84.089844 8.125 83.660156 8.808594 82.820312 9.375 C 82.742188 9.414062 82.742188 9.414062 82.683594 9.453125 Z M 82.683594 9.453125 "/>
<path style=" stroke:none;fill-rule:nonzero;fill:rgb(0%,0%,0%);fill-opacity:1;" d="M 91.859375 13.789062 C 91.410156 13.789062 91.039062 14.160156 91.039062 14.628906 C 91.039062 15.058594 91.410156 15.429688 91.839844 15.429688 C 92.308594 15.429688 92.679688 15.058594 92.679688 14.628906 C 92.679688 14.160156 92.308594 13.789062 91.859375 13.789062 Z M 91.859375 13.789062 "/>
<path style=" stroke:none;fill-rule:nonzero;fill:rgb(0%,0%,0%);fill-opacity:1;" d="M 100.378906 5.058594 C 98.679688 5.195312 97.820312 5.488281 96.726562 6.25 C 95.105469 7.402344 94.226562 9.101562 94.226562 11.113281 C 94.226562 12.402344 94.636719 13.710938 95.28125 14.472656 C 95.847656 15.117188 96.648438 15.488281 97.566406 15.488281 C 99.421875 15.488281 100.710938 14.0625 100.710938 11.992188 C 100.710938 10.097656 99.617188 8.886719 97.898438 8.886719 C 97.253906 8.886719 96.921875 8.984375 95.984375 9.550781 C 96.394531 7.285156 98.074219 5.683594 100.417969 5.292969 Z M 97.332031 9.570312 C 98.621094 9.570312 99.363281 10.644531 99.363281 12.5 C 99.363281 14.160156 98.777344 15.058594 97.742188 15.058594 C 96.414062 15.058594 95.613281 13.652344 95.613281 11.347656 C 95.613281 10.585938 95.730469 10.15625 96.042969 9.941406 C 96.355469 9.707031 96.804688 9.570312 97.332031 9.570312 Z M 97.332031 9.570312 "/>
<path style=" stroke:none;fill-rule:nonzero;fill:rgb(0%,0%,0%);fill-opacity:1;" d="M 103.476562 10.351562 C 104.355469 10.351562 104.707031 10.371094 105.058594 10.507812 C 105.996094 10.839844 106.5625 11.679688 106.5625 12.714844 C 106.5625 13.964844 105.722656 14.941406 104.609375 14.941406 C 104.21875 14.941406 103.90625 14.84375 103.359375 14.472656 C 102.910156 14.21875 102.65625 14.101562 102.402344 14.101562 C 102.050781 14.101562 101.835938 14.316406 101.835938 14.628906 C 101.835938 15.15625 102.480469 15.488281 103.515625 15.488281 C 104.667969 15.488281 105.859375 15.097656 106.5625 14.472656 C 107.265625 13.867188 107.636719 13.007812 107.636719 11.992188 C 107.636719 11.230469 107.402344 10.527344 106.972656 10.078125 C 106.679688 9.746094 106.386719 9.570312 105.742188 9.277344 C 106.757812 8.574219 107.128906 8.027344 107.128906 7.226562 C 107.128906 6.015625 106.191406 5.175781 104.804688 5.175781 C 104.0625 5.175781 103.398438 5.429688 102.871094 5.898438 C 102.421875 6.308594 102.1875 6.699219 101.855469 7.597656 L 102.089844 7.65625 C 102.695312 6.5625 103.378906 6.074219 104.316406 6.074219 C 105.292969 6.074219 105.957031 6.71875 105.957031 7.675781 C 105.957031 8.203125 105.742188 8.75 105.351562 9.121094 C 104.902344 9.570312 104.492188 9.785156 103.476562 10.15625 Z M 103.476562 10.351562 "/>
<path style=" stroke:none;fill-rule:nonzero;fill:rgb(0%,0%,0%);fill-opacity:1;" d="M 110.949219 10.351562 C 111.828125 10.351562 112.179688 10.371094 112.53125 10.507812 C 113.46875 10.839844 114.035156 11.679688 114.035156 12.714844 C 114.035156 13.964844 113.195312 14.941406 112.082031 14.941406 C 111.691406 14.941406 111.378906 14.84375 110.832031 14.472656 C 110.382812 14.21875 110.128906 14.101562 109.875 14.101562 C 109.523438 14.101562 109.308594 14.316406 109.308594 14.628906 C 109.308594 15.15625 109.953125 15.488281 110.988281 15.488281 C 112.140625 15.488281 113.332031 15.097656 114.035156 14.472656 C 114.738281 13.867188 115.109375 13.007812 115.109375 11.992188 C 115.109375 11.230469 114.875 10.527344 114.445312 10.078125 C 114.152344 9.746094 113.859375 9.570312 113.214844 9.277344 C 114.230469 8.574219 114.601562 8.027344 114.601562 7.226562 C 114.601562 6.015625 113.664062 5.175781 112.277344 5.175781 C 111.535156 5.175781 110.871094 5.429688 110.34375 5.898438 C 109.894531 6.308594 109.660156 6.699219 109.328125 7.597656 L 109.5625 7.65625 C 110.167969 6.5625 110.851562 6.074219 111.789062 6.074219 C 112.765625 6.074219 113.429688 6.71875 113.429688 7.675781 C 113.429688 8.203125 113.214844 8.75 112.824219 9.121094 C 112.375 9.570312 111.964844 9.785156 110.949219 10.15625 Z M 110.949219 10.351562 "/>
<path style=" stroke:none;fill-rule:nonzero;fill:rgb(0%,0%,0%);fill-opacity:1;" d="M 118.832031 6.5625 L 121.761719 6.5625 C 122.015625 6.5625 122.074219 6.523438 122.113281 6.425781 L 122.679688 5.097656 L 122.542969 5 C 122.328125 5.3125 122.171875 5.390625 121.859375 5.390625 L 118.734375 5.390625 L 117.113281 8.925781 C 117.09375 8.945312 117.09375 8.964844 117.09375 9.003906 C 117.09375 9.082031 117.152344 9.121094 117.269531 9.121094 C 117.757812 9.121094 118.34375 9.21875 118.96875 9.414062 C 120.6875 9.960938 121.46875 10.898438 121.46875 12.382812 C 121.46875 13.808594 120.550781 14.921875 119.398438 14.921875 C 119.085938 14.921875 118.832031 14.824219 118.402344 14.492188 C 117.914062 14.160156 117.5625 14.003906 117.25 14.003906 C 116.820312 14.003906 116.605469 14.179688 116.605469 14.550781 C 116.605469 15.117188 117.308594 15.488281 118.441406 15.488281 C 119.691406 15.488281 120.765625 15.078125 121.507812 14.316406 C 122.210938 13.652344 122.523438 12.792969 122.523438 11.660156 C 122.523438 10.585938 122.230469 9.902344 121.488281 9.140625 C 120.824219 8.496094 119.984375 8.144531 118.207031 7.832031 Z M 118.832031 6.5625 "/>
<path style=" stroke:none;fill-rule:nonzero;fill:rgb(0%,0%,0%);fill-opacity:1;" d="M 127.929688 11.425781 L 127.929688 12.382812 L 131.601562 12.382812 L 131.601562 11.425781 Z M 127.929688 11.425781 "/>
<path style=" stroke:none;fill-rule:nonzero;fill:rgb(0%,0%,0%);fill-opacity:1;" d="M 139.410156 13.222656 L 139.214844 13.144531 C 138.667969 14.003906 138.472656 14.140625 137.808594 14.140625 L 134.234375 14.140625 L 136.734375 11.503906 C 138.082031 10.117188 138.648438 8.984375 138.648438 7.8125 C 138.648438 6.328125 137.4375 5.175781 135.894531 5.175781 C 135.074219 5.175781 134.292969 5.507812 133.746094 6.09375 C 133.257812 6.601562 133.042969 7.089844 132.789062 8.144531 L 133.101562 8.222656 C 133.6875 6.757812 134.234375 6.269531 135.269531 6.269531 C 136.519531 6.269531 137.378906 7.128906 137.378906 8.378906 C 137.378906 9.550781 136.675781 10.9375 135.425781 12.265625 L 132.769531 15.097656 L 132.769531 15.273438 L 138.589844 15.273438 Z M 139.410156 13.222656 "/>
<path style=" stroke:none;fill-rule:nonzero;fill:rgb(0%,0%,0%);fill-opacity:1;" d="M 141.667969 13.789062 C 141.21875 13.789062 140.847656 14.160156 140.847656 14.628906 C 140.847656 15.058594 141.21875 15.429688 141.648438 15.429688 C 142.117188 15.429688 142.488281 15.058594 142.488281 14.628906 C 142.488281 14.160156 142.117188 13.789062 141.667969 13.789062 Z M 141.667969 13.789062 "/>
<path style=" stroke:none;fill-rule:nonzero;fill:rgb(0%,0%,0%);fill-opacity:1;" d="M 150.1875 5.058594 C 148.488281 5.195312 147.628906 5.488281 146.535156 6.25 C 144.914062 7.402344 144.035156 9.101562 144.035156 11.113281 C 144.035156 12.402344 144.445312 13.710938 145.089844 14.472656 C 145.65625 15.117188 146.457031 15.488281 147.375 15.488281 C 149.230469 15.488281 150.519531 14.0625 150.519531 11.992188 C 150.519531 10.097656 149.425781 8.886719 147.707031 8.886719 C 147.0625 8.886719 146.730469 8.984375 145.792969 9.550781 C 146.203125 7.285156 147.882812 5.683594 150.226562 5.292969 Z M 147.140625 9.570312 C 148.429688 9.570312 149.171875 10.644531 149.171875 12.5 C 149.171875 14.160156 148.585938 15.058594 147.550781 15.058594 C 146.222656 15.058594 145.421875 13.652344 145.421875 11.347656 C 145.421875 10.585938 145.539062 10.15625 145.851562 9.941406 C 146.164062 9.707031 146.613281 9.570312 147.140625 9.570312 Z M 147.140625 9.570312 "/>
<path style=" stroke:none;fill-rule:nonzero;fill:rgb(0%,0%,0%);fill-opacity:1;" d="M 156.609375 13.789062 C 156.160156 13.789062 155.789062 14.160156 155.789062 14.628906 C 155.789062 15.058594 156.160156 15.429688 156.589844 15.429688 C 157.058594 15.429688 157.429688 15.058594 157.429688 14.628906 C 157.429688 14.160156 157.058594 13.789062 156.609375 13.789062 Z M 156.609375 13.789062 "/>
<path style=" stroke:none;fill-rule:nonzero;fill:rgb(0%,0%,0%);fill-opacity:1;" d="M 165.132812 5.058594 C 163.433594 5.195312 162.574219 5.488281 161.480469 6.25 C 159.859375 7.402344 158.980469 9.101562 158.980469 11.113281 C 158.980469 12.402344 159.390625 13.710938 160.035156 14.472656 C 160.601562 15.117188 161.402344 15.488281 162.320312 15.488281 C 164.175781 15.488281 165.464844 14.0625 165.464844 11.992188 C 165.464844 10.097656 164.371094 8.886719 162.652344 8.886719 C 162.007812 8.886719 161.675781 8.984375 160.738281 9.550781 C 161.148438 7.285156 162.828125 5.683594 165.171875 5.292969 Z M 162.085938 9.570312 C 163.375 9.570312 164.117188 10.644531 164.117188 12.5 C 164.117188 14.160156 163.53125 15.058594 162.496094 15.058594 C 161.167969 15.058594 160.367188 13.652344 160.367188 11.347656 C 160.367188 10.585938 160.484375 10.15625 160.796875 9.941406 C 161.109375 9.707031 161.558594 9.570312 162.085938 9.570312 Z M 162.085938 9.570312 "/>
<path style=" stroke:none;fill-rule:nonzero;fill:rgb(0%,0%,0%);fill-opacity:1;" d="M 172.644531 5.390625 L 167.117188 5.390625 L 166.238281 7.578125 L 166.492188 7.695312 C 167.136719 6.679688 167.410156 6.484375 168.230469 6.484375 L 171.472656 6.484375 L 168.523438 15.390625 L 169.480469 15.390625 L 172.644531 5.625 Z M 172.644531 5.390625 "/>
<path style=" stroke:none;fill-rule:nonzero;fill:rgb(0%,0%,0%);fill-opacity:1;" d="M 177.203125 5.175781 C 176.382812 5.175781 175.757812 5.429688 175.210938 5.957031 C 174.332031 6.777344 173.765625 8.496094 173.765625 10.253906 C 173.765625 11.875 174.273438 13.632812 174.976562 14.472656 C 175.523438 15.117188 176.285156 15.488281 177.144531 15.488281 C 177.90625 15.488281 178.550781 15.234375 179.097656 14.707031 C 179.957031 13.886719 180.523438 12.148438 180.523438 10.351562 C 180.523438 7.285156 179.175781 5.175781 177.203125 5.175781 Z M 177.164062 5.566406 C 178.414062 5.566406 179.097656 7.246094 179.097656 10.371094 C 179.097656 13.496094 178.433594 15.097656 177.144531 15.097656 C 175.855469 15.097656 175.210938 13.496094 175.210938 10.390625 C 175.210938 7.226562 175.875 5.566406 177.164062 5.566406 Z M 177.164062 5.566406 "/>
<path style=" stroke:none;fill-rule:nonzero;fill:rgb(0%,0%,0%);fill-opacity:1;" d="M 185.242188 5.175781 L 182.546875 6.523438 L 182.546875 6.738281 C 182.722656 6.660156 182.898438 6.601562 182.957031 6.582031 C 183.210938 6.464844 183.464844 6.40625 183.621094 6.40625 C 183.933594 6.40625 184.070312 6.640625 184.070312 7.109375 L 184.070312 13.886719 C 184.070312 14.375 183.953125 14.726562 183.71875 14.863281 C 183.484375 14.980469 183.269531 15.039062 182.644531 15.058594 L 182.644531 15.273438 L 186.765625 15.273438 L 186.765625 15.058594 C 185.59375 15.039062 185.359375 14.882812 185.359375 14.160156 L 185.359375 5.195312 Z M 185.242188 5.175781 "/>
<path style=" stroke:none;fill-rule:nonzero;fill:rgb(0%,0%,0%);fill-opacity:1;" d="M 192.683594 11.425781 L 192.683594 12.382812 L 196.355469 12.382812 L 196.355469 11.425781 Z M 192.683594 11.425781 "/>
<path style=" stroke:none;fill-rule:nonzero;fill:rgb(0%,0%,0%);fill-opacity:1;" d="M 204.160156 13.222656 L 203.964844 13.144531 C 203.417969 14.003906 203.222656 14.140625 202.558594 14.140625 L 198.984375 14.140625 L 201.484375 11.503906 C 202.832031 10.117188 203.398438 8.984375 203.398438 7.8125 C 203.398438 6.328125 202.1875 5.175781 200.644531 5.175781 C 199.824219 5.175781 199.042969 5.507812 198.496094 6.09375 C 198.007812 6.601562 197.792969 7.089844 197.539062 8.144531 L 197.851562 8.222656 C 198.4375 6.757812 198.984375 6.269531 200.019531 6.269531 C 201.269531 6.269531 202.128906 7.128906 202.128906 8.378906 C 202.128906 9.550781 201.425781 10.9375 200.175781 12.265625 L 197.519531 15.097656 L 197.519531 15.273438 L 203.339844 15.273438 Z M 204.160156 13.222656 "/>
<path style=" stroke:none;fill-rule:nonzero;fill:rgb(0%,0%,0%);fill-opacity:1;" d="M 206.417969 13.789062 C 205.96875 13.789062 205.597656 14.160156 205.597656 14.628906 C 205.597656 15.058594 205.96875 15.429688 206.398438 15.429688 C 206.867188 15.429688 207.238281 15.058594 207.238281 14.628906 C 207.238281 14.160156 206.867188 13.789062 206.417969 13.789062 Z M 206.417969 13.789062 "/>
<path style=" stroke:none;fill-rule:nonzero;fill:rgb(0%,0%,0%);fill-opacity:1;" d="M 215.332031 11.816406 L 213.808594 11.816406 L 213.808594 5.175781 L 213.144531 5.175781 L 208.457031 11.816406 L 208.457031 12.773438 L 212.65625 12.773438 L 212.65625 15.273438 L 213.808594 15.273438 L 213.808594 12.773438 L 215.332031 12.773438 Z M 212.636719 11.816406 L 209.0625 11.816406 L 212.636719 6.699219 Z M 212.636719 11.816406 "/>
<path style=" stroke:none;fill-rule:nonzero;fill:rgb(0%,0%,0%);fill-opacity:1;" d="M 221.363281 13.789062 C 220.914062 13.789062 220.542969 14.160156 220.542969 14.628906 C 220.542969 15.058594 220.914062 15.429688 221.34375 15.429688 C 221.8125 15.429688 222.183594 15.058594 222.183594 14.628906 C 222.183594 14.160156 221.8125 13.789062 221.363281 13.789062 Z M 221.363281 13.789062 "/>
<path style=" stroke:none;fill-rule:nonzero;fill:rgb(0%,0%,0%);fill-opacity:1;" d="M 229.921875 5.390625 L 224.394531 5.390625 L 223.515625 7.578125 L 223.769531 7.695312 C 224.414062 6.679688 224.6875 6.484375 225.507812 6.484375 L 228.75 6.484375 L 225.800781 15.390625 L 226.757812 15.390625 L 229.921875 5.625 Z M 229.921875 5.390625 "/>
<path style=" stroke:none;fill-rule:nonzero;fill:rgb(0%,0%,0%);fill-opacity:1;" d="M 235.050781 5.175781 L 232.355469 6.523438 L 232.355469 6.738281 C 232.53125 6.660156 232.707031 6.601562 232.765625 6.582031 C 233.019531 6.464844 233.273438 6.40625 233.429688 6.40625 C 233.742188 6.40625 233.878906 6.640625 233.878906 7.109375 L 233.878906 13.886719 C 233.878906 14.375 233.761719 14.726562 233.527344 14.863281 C 233.292969 14.980469 233.078125 15.039062 232.453125 15.058594 L 232.453125 15.273438 L 236.574219 15.273438 L 236.574219 15.058594 C 235.402344 15.039062 235.167969 14.882812 235.167969 14.160156 L 235.167969 5.195312 Z M 235.050781 5.175781 "/>
<path style=" stroke:none;fill-rule:nonzero;fill:rgb(0%,0%,0%);fill-opacity:1;" d="M 241.957031 5.175781 C 241.136719 5.175781 240.511719 5.429688 239.964844 5.957031 C 239.085938 6.777344 238.519531 8.496094 238.519531 10.253906 C 238.519531 11.875 239.027344 13.632812 239.730469 14.472656 C 240.277344 15.117188 241.039062 15.488281 241.898438 15.488281 C 242.660156 15.488281 243.304688 15.234375 243.851562 14.707031 C 244.710938 13.886719 245.277344 12.148438 245.277344 10.351562 C 245.277344 7.285156 243.929688 5.175781 241.957031 5.175781 Z M 241.917969 5.566406 C 243.167969 5.566406 243.851562 7.246094 243.851562 10.371094 C 243.851562 13.496094 243.1875 15.097656 241.898438 15.097656 C 240.609375 15.097656 239.964844 13.496094 239.964844 10.390625 C 239.964844 7.226562 240.628906 5.566406 241.917969 5.566406 Z M 241.917969 5.566406 "/>
<path style=" stroke:none;fill-rule:nonzero;fill:rgb(0%,0%,0%);fill-opacity:1;" d="M 249.996094 5.175781 L 247.300781 6.523438 L 247.300781 6.738281 C 247.476562 6.660156 247.652344 6.601562 247.710938 6.582031 C 247.964844 6.464844 248.21875 6.40625 248.375 6.40625 C 248.6875 6.40625 248.824219 6.640625 248.824219 7.109375 L 248.824219 13.886719 C 248.824219 14.375 248.707031 14.726562 248.472656 14.863281 C 248.238281 14.980469 248.023438 15.039062 247.398438 15.058594 L 247.398438 15.273438 L 251.519531 15.273438 L 251.519531 15.058594 C 250.347656 15.039062 250.113281 14.882812 250.113281 14.160156 L 250.113281 5.195312 Z M 249.996094 5.175781 "/>
<path style=" stroke:none;fill-rule:nonzero;fill:rgb(0%,0%,0%);fill-opacity:1;" d="M 257.433594 11.425781 L 257.433594 12.382812 L 261.105469 12.382812 L 261.105469 11.425781 Z M 257.433594 11.425781 "/>
<path style=" stroke:none;fill-rule:nonzero;fill:rgb(0%,0%,0%);fill-opacity:1;" d="M 268.914062 13.222656 L 268.71875 13.144531 C 268.171875 14.003906 267.976562 14.140625 267.3125 14.140625 L 263.738281 14.140625 L 266.238281 11.503906 C 267.585938 10.117188 268.152344 8.984375 268.152344 7.8125 C 268.152344 6.328125 266.941406 5.175781 265.398438 5.175781 C 264.578125 5.175781 263.796875 5.507812 263.25 6.09375 C 262.761719 6.601562 262.546875 7.089844 262.292969 8.144531 L 262.605469 8.222656 C 263.191406 6.757812 263.738281 6.269531 264.773438 6.269531 C 266.023438 6.269531 266.882812 7.128906 266.882812 8.378906 C 266.882812 9.550781 266.179688 10.9375 264.929688 12.265625 L 262.273438 15.097656 L 262.273438 15.273438 L 268.09375 15.273438 Z M 268.914062 13.222656 "/>
<path style=" stroke:none;fill-rule:nonzero;fill:rgb(0%,0%,0%);fill-opacity:1;" d="M 271.171875 13.789062 C 270.722656 13.789062 270.351562 14.160156 270.351562 14.628906 C 270.351562 15.058594 270.722656 15.429688 271.152344 15.429688 C 271.621094 15.429688 271.992188 15.058594 271.992188 14.628906 C 271.992188 14.160156 271.621094 13.789062 271.171875 13.789062 Z M 271.171875 13.789062 "/>
<path style=" stroke:none;fill-rule:nonzero;fill:rgb(0%,0%,0%);fill-opacity:1;" d="M 280.121094 13.222656 L 279.925781 13.144531 C 279.378906 14.003906 279.183594 14.140625 278.519531 14.140625 L 274.945312 14.140625 L 277.445312 11.503906 C 278.792969 10.117188 279.359375 8.984375 279.359375 7.8125 C 279.359375 6.328125 278.148438 5.175781 276.605469 5.175781 C 275.785156 5.175781 275.003906 5.507812 274.457031 6.09375 C 273.96875 6.601562 273.753906 7.089844 273.5 8.144531 L 273.8125 8.222656 C 274.398438 6.757812 274.945312 6.269531 275.980469 6.269531 C 277.230469 6.269531 278.089844 7.128906 278.089844 8.378906 C 278.089844 9.550781 277.386719 10.9375 276.136719 12.265625 L 273.480469 15.097656 L 273.480469 15.273438 L 279.300781 15.273438 Z M 280.121094 13.222656 "/>
<path style=" stroke:none;fill-rule:nonzero;fill:rgb(0%,0%,0%);fill-opacity:1;" d="M 286.117188 13.789062 C 285.667969 13.789062 285.296875 14.160156 285.296875 14.628906 C 285.296875 15.058594 285.667969 15.429688 286.097656 15.429688 C 286.566406 15.429688 286.9375 15.058594 286.9375 14.628906 C 286.9375 14.160156 286.566406 13.789062 286.117188 13.789062 Z M 286.117188 13.789062 "/>
<path style=" stroke:none;fill-rule:nonzero;fill:rgb(0%,0%,0%);fill-opacity:1;" d="M 294.675781 5.390625 L 289.148438 5.390625 L 288.269531 7.578125 L 288.523438 7.695312 C 289.167969 6.679688 289.441406 6.484375 290.261719 6.484375 L 293.503906 6.484375 L 290.554688 15.390625 L 291.511719 15.390625 L 294.675781 5.625 Z M 294.675781 5.390625 "/>
<path style=" stroke:none;fill-rule:nonzero;fill:rgb(0%,0%,0%);fill-opacity:1;" d="M 298.144531 6.5625 L 301.074219 6.5625 C 301.328125 6.5625 301.386719 6.523438 301.425781 6.425781 L 301.992188 5.097656 L 301.855469 5 C 301.640625 5.3125 301.484375 5.390625 301.171875 5.390625 L 298.046875 5.390625 L 296.425781 8.925781 C 296.40625 8.945312 296.40625 8.964844 296.40625 9.003906 C 296.40625 9.082031 296.464844 9.121094 296.582031 9.121094 C 297.070312 9.121094 297.65625 9.21875 298.28125 9.414062 C 300 9.960938 300.78125 10.898438 300.78125 12.382812 C 300.78125 13.808594 299.863281 14.921875 298.710938 14.921875 C 298.398438 14.921875 298.144531 14.824219 297.714844 14.492188 C 297.226562 14.160156 296.875 14.003906 296.5625 14.003906 C 296.132812 14.003906 295.917969 14.179688 295.917969 14.550781 C 295.917969 15.117188 296.621094 15.488281 297.753906 15.488281 C 299.003906 15.488281 300.078125 15.078125 300.820312 14.316406 C 301.523438 13.652344 301.835938 12.792969 301.835938 11.660156 C 301.835938 10.585938 301.542969 9.902344 300.800781 9.140625 C 300.136719 8.496094 299.296875 8.144531 297.519531 7.832031 Z M 298.144531 6.5625 "/>
<path style=" stroke:none;fill-rule:nonzero;fill:rgb(0%,0%,0%);fill-opacity:1;" d="M 305.207031 10.351562 C 306.085938 10.351562 306.4375 10.371094 306.789062 10.507812 C 307.726562 10.839844 308.292969 11.679688 308.292969 12.714844 C 308.292969 13.964844 307.453125 14.941406 306.339844 14.941406 C 305.949219 14.941406 305.636719 14.84375 305.089844 14.472656 C 304.640625 14.21875 304.386719 14.101562 304.132812 14.101562 C 303.78125 14.101562 303.566406 14.316406 303.566406 14.628906 C 303.566406 15.15625 304.210938 15.488281 305.246094 15.488281 C 306.398438 15.488281 307.589844 15.097656 308.292969 14.472656 C 308.996094 13.867188 309.367188 13.007812 309.367188 11.992188 C 309.367188 11.230469 309.132812 10.527344 308.703125 10.078125 C 308.410156 9.746094 308.117188 9.570312 307.472656 9.277344 C 308.488281 8.574219 308.859375 8.027344 308.859375 7.226562 C 308.859375 6.015625 307.921875 5.175781 306.535156 5.175781 C 305.792969 5.175781 305.128906 5.429688 304.601562 5.898438 C 304.152344 6.308594 303.917969 6.699219 303.585938 7.597656 L 303.820312 7.65625 C 304.425781 6.5625 305.109375 6.074219 306.046875 6.074219 C 307.023438 6.074219 307.6875 6.71875 307.6875 7.675781 C 307.6875 8.203125 307.472656 8.75 307.082031 9.121094 C 306.632812 9.570312 306.222656 9.785156 305.207031 10.15625 Z M 305.207031 10.351562 "/>
<path style=" stroke:none;fill-rule:nonzero;fill:rgb(0%,0%,0%);fill-opacity:1;" d="M 317.441406 11.816406 L 315.917969 11.816406 L 315.917969 5.175781 L 315.253906 5.175781 L 310.566406 11.816406 L 310.566406 12.773438 L 314.765625 12.773438 L 314.765625 15.273438 L 315.917969 15.273438 L 315.917969 12.773438 L 317.441406 12.773438 Z M 314.746094 11.816406 L 311.171875 11.816406 L 314.746094 6.699219 Z M 314.746094 11.816406 "/>
<path style=" stroke:none;fill-rule:nonzero;fill:rgb(0%,0%,0%);fill-opacity:1;" d="M 322.1875 11.425781 L 322.1875 12.382812 L 325.859375 12.382812 L 325.859375 11.425781 Z M 322.1875 11.425781 "/>
<path style=" stroke:none;fill-rule:nonzero;fill:rgb(0%,0%,0%);fill-opacity:1;" d="M 333.667969 13.222656 L 333.472656 13.144531 C 332.925781 14.003906 332.730469 14.140625 332.066406 14.140625 L 328.492188 14.140625 L 330.992188 11.503906 C 332.339844 10.117188 332.90625 8.984375 332.90625 7.8125 C 332.90625 6.328125 331.695312 5.175781 330.152344 5.175781 C 329.332031 5.175781 328.550781 5.507812 328.003906 6.09375 C 327.515625 6.601562 327.300781 7.089844 327.046875 8.144531 L 327.359375 8.222656 C 327.945312 6.757812 328.492188 6.269531 329.527344 6.269531 C 330.777344 6.269531 331.636719 7.128906 331.636719 8.378906 C 331.636719 9.550781 330.933594 10.9375 329.683594 12.265625 L 327.027344 15.097656 L 327.027344 15.273438 L 332.847656 15.273438 Z M 333.667969 13.222656 "/>
<path style=" stroke:none;fill-rule:nonzero;fill:rgb(0%,0%,0%);fill-opacity:1;" d="M 335.921875 13.789062 C 335.472656 13.789062 335.101562 14.160156 335.101562 14.628906 C 335.101562 15.058594 335.472656 15.429688 335.902344 15.429688 C 336.371094 15.429688 336.742188 15.058594 336.742188 14.628906 C 336.742188 14.160156 336.371094 13.789062 335.921875 13.789062 Z M 335.921875 13.789062 "/>
<path style=" stroke:none;fill-rule:nonzero;fill:rgb(0%,0%,0%);fill-opacity:1;" d="M 344.292969 13.789062 C 343.84375 13.789062 343.472656 14.160156 343.472656 14.628906 C 343.472656 15.058594 343.84375 15.429688 344.273438 15.429688 C 344.742188 15.429688 345.113281 15.058594 345.113281 14.628906 C 345.113281 14.160156 344.742188 13.789062 344.292969 13.789062 Z M 344.292969 13.789062 "/>
<path style=" stroke:none;fill-rule:nonzero;fill:rgb(0%,0%,0%);fill-opacity:1;" d="M 350.488281 9.726562 C 351.972656 8.945312 352.480469 8.320312 352.480469 7.285156 C 352.480469 6.074219 351.40625 5.175781 349.921875 5.175781 C 348.28125 5.175781 347.070312 6.171875 347.070312 7.539062 C 347.070312 8.496094 347.363281 8.945312 348.925781 10.3125 C 347.324219 11.542969 346.992188 11.992188 346.992188 13.007812 C 346.992188 14.472656 348.164062 15.488281 349.863281 15.488281 C 351.660156 15.488281 352.792969 14.492188 352.792969 12.949219 C 352.792969 11.816406 352.285156 11.074219 350.488281 9.726562 Z M 350.214844 11.269531 C 351.308594 12.050781 351.660156 12.578125 351.660156 13.417969 C 351.660156 14.394531 350.996094 15.058594 350.019531 15.058594 C 348.886719 15.058594 348.125 14.199219 348.125 12.890625 C 348.125 11.933594 348.457031 11.308594 349.316406 10.605469 Z M 350.058594 9.453125 C 348.730469 8.59375 348.183594 7.910156 348.183594 7.070312 C 348.183594 6.210938 348.847656 5.585938 349.804688 5.585938 C 350.820312 5.585938 351.464844 6.25 351.464844 7.285156 C 351.464844 8.125 351.035156 8.808594 350.195312 9.375 C 350.117188 9.414062 350.117188 9.414062 350.058594 9.453125 Z M 350.058594 9.453125 "/>
<path style=" stroke:none;fill-rule:nonzero;fill:rgb(0%,0%,0%);fill-opacity:1;" d="M 357.414062 5.175781 C 356.59375 5.175781 355.96875 5.429688 355.421875 5.957031 C 354.542969 6.777344 353.976562 8.496094 353.976562 10.253906 C 353.976562 11.875 354.484375 13.632812 355.1875 14.472656 C 355.734375 15.117188 356.496094 15.488281 357.355469 15.488281 C 358.117188 15.488281 358.761719 15.234375 359.308594 14.707031 C 360.167969 13.886719 360.734375 12.148438 360.734375 10.351562 C 360.734375 7.285156 359.386719 5.175781 357.414062 5.175781 Z M 357.375 5.566406 C 358.625 5.566406 359.308594 7.246094 359.308594 10.371094 C 359.308594 13.496094 358.644531 15.097656 357.355469 15.097656 C 356.066406 15.097656 355.421875 13.496094 355.421875 10.390625 C 355.421875 7.226562 356.085938 5.566406 357.375 5.566406 Z M 357.375 5.566406 "/>
<path style=" stroke:none;fill-rule:nonzero;fill:rgb(0%,0%,0%);fill-opacity:1;" d="M 364.886719 5.175781 C 364.066406 5.175781 363.441406 5.429688 362.894531 5.957031 C 362.015625 6.777344 361.449219 8.496094 361.449219 10.253906 C 361.449219 11.875 361.957031 13.632812 362.660156 14.472656 C 363.207031 15.117188 363.96875 15.488281 364.828125 15.488281 C 365.589844 15.488281 366.234375 15.234375 366.78125 14.707031 C 367.640625 13.886719 368.207031 12.148438 368.207031 10.351562 C 368.207031 7.285156 366.859375 5.175781 364.886719 5.175781 Z M 364.847656 5.566406 C 366.097656 5.566406 366.78125 7.246094 366.78125 10.371094 C 366.78125 13.496094 366.117188 15.097656 364.828125 15.097656 C 363.539062 15.097656 362.894531 13.496094 362.894531 10.390625 C 362.894531 7.226562 363.558594 5.566406 364.847656 5.566406 Z M 364.847656 5.566406 "/>
<path style=" stroke:none;fill-rule:nonzero;fill:rgb(0%,0%,0%);fill-opacity:1;" d="M 372.359375 5.175781 C 371.539062 5.175781 370.914062 5.429688 370.367188 5.957031 C 369.488281 6.777344 368.921875 8.496094 368.921875 10.253906 C 368.921875 11.875 369.429688 13.632812 370.132812 14.472656 C 370.679688 15.117188 371.441406 15.488281 372.300781 15.488281 C 373.0625 15.488281 373.707031 15.234375 374.253906 14.707031 C 375.113281 13.886719 375.679688 12.148438 375.679688 10.351562 C 375.679688 7.285156 374.332031 5.175781 372.359375 5.175781 Z M 372.320312 5.566406 C 373.570312 5.566406 374.253906 7.246094 374.253906 10.371094 C 374.253906 13.496094 373.589844 15.097656 372.300781 15.097656 C 371.011719 15.097656 370.367188 13.496094 370.367188 10.390625 C 370.367188 7.226562 371.03125 5.566406 372.320312 5.566406 Z M 372.320312 5.566406 "/>
<path style=" stroke:none;fill-rule:nonzero;fill:rgb(0%,0%,0%);fill-opacity:1;" d="M 380.363281 11.425781 L 380.363281 12.382812 L 384.035156 12.382812 L 384.035156 11.425781 Z M 380.363281 11.425781 "/>
<path style=" stroke:none;fill-rule:nonzero;fill:rgb(0%,0%,0%);fill-opacity:1;" d="M 389.109375 5.175781 L 386.414062 6.523438 L 386.414062 6.738281 C 386.589844 6.660156 386.765625 6.601562 386.824219 6.582031 C 387.078125 6.464844 387.332031 6.40625 387.488281 6.40625 C 387.800781 6.40625 387.9375 6.640625 387.9375 7.109375 L 387.9375 13.886719 C 387.9375 14.375 387.820312 14.726562 387.585938 14.863281 C 387.351562 14.980469 387.136719 15.039062 386.511719 15.058594 L 386.511719 15.273438 L 390.632812 15.273438 L 390.632812 15.058594 C 389.460938 15.039062 389.226562 14.882812 389.226562 14.160156 L 389.226562 5.195312 Z M 389.109375 5.175781 "/>
<path style=" stroke:none;fill-rule:nonzero;fill:rgb(0%,0%,0%);fill-opacity:1;" d="M 394.101562 13.789062 C 393.652344 13.789062 393.28125 14.160156 393.28125 14.628906 C 393.28125 15.058594 393.652344 15.429688 394.082031 15.429688 C 394.550781 15.429688 394.921875 15.058594 394.921875 14.628906 C 394.921875 14.160156 394.550781 13.789062 394.101562 13.789062 Z M 394.101562 13.789062 "/>
<path style=" stroke:none;fill-rule:nonzero;fill:rgb(0%,0%,0%);fill-opacity:1;" d="M 400.296875 9.726562 C 401.78125 8.945312 402.289062 8.320312 402.289062 7.285156 C 402.289062 6.074219 401.214844 5.175781 399.730469 5.175781 C 398.089844 5.175781 396.878906 6.171875 396.878906 7.539062 C 396.878906 8.496094 397.171875 8.945312 398.734375 10.3125 C 397.132812 11.542969 396.800781 11.992188 396.800781 13.007812 C 396.800781 14.472656 397.972656 15.488281 399.671875 15.488281 C 401.46875 15.488281 402.601562 14.492188 402.601562 12.949219 C 402.601562 11.816406 402.09375 11.074219 400.296875 9.726562 Z M 400.023438 11.269531 C 401.117188 12.050781 401.46875 12.578125 401.46875 13.417969 C 401.46875 14.394531 400.804688 15.058594 399.828125 15.058594 C 398.695312 15.058594 397.933594 14.199219 397.933594 12.890625 C 397.933594 11.933594 398.265625 11.308594 399.125 10.605469 Z M 399.867188 9.453125 C 398.539062 8.59375 397.992188 7.910156 397.992188 7.070312 C 397.992188 6.210938 398.65625 5.585938 399.613281 5.585938 C 400.628906 5.585938 401.273438 6.25 401.273438 7.285156 C 401.273438 8.125 400.84375 8.808594 400.003906 9.375 C 399.925781 9.414062 399.925781 9.414062 399.867188 9.453125 Z M 399.867188 9.453125 "/>
<path style=" stroke:none;fill-rule:nonzero;fill:rgb(0%,0%,0%);fill-opacity:1;" d="M 409.042969 13.789062 C 408.59375 13.789062 408.222656 14.160156 408.222656 14.628906 C 408.222656 15.058594 408.59375 15.429688 409.023438 15.429688 C 409.492188 15.429688 409.863281 15.058594 409.863281 14.628906 C 409.863281 14.160156 409.492188 13.789062 409.042969 13.789062 Z M 409.042969 13.789062 "/>
<path style=" stroke:none;fill-rule:nonzero;fill:rgb(0%,0%,0%);fill-opacity:1;" d="M 415.242188 9.726562 C 416.726562 8.945312 417.234375 8.320312 417.234375 7.285156 C 417.234375 6.074219 416.160156 5.175781 414.675781 5.175781 C 413.035156 5.175781 411.824219 6.171875 411.824219 7.539062 C 411.824219 8.496094 412.117188 8.945312 413.679688 10.3125 C 412.078125 11.542969 411.746094 11.992188 411.746094 13.007812 C 411.746094 14.472656 412.917969 15.488281 414.617188 15.488281 C 416.414062 15.488281 417.546875 14.492188 417.546875 12.949219 C 417.546875 11.816406 417.039062 11.074219 415.242188 9.726562 Z M 414.96875 11.269531 C 416.0625 12.050781 416.414062 12.578125 416.414062 13.417969 C 416.414062 14.394531 415.75 15.058594 414.773438 15.058594 C 413.640625 15.058594 412.878906 14.199219 412.878906 12.890625 C 412.878906 11.933594 413.210938 11.308594 414.070312 10.605469 Z M 414.8125 9.453125 C 413.484375 8.59375 412.9375 7.910156 412.9375 7.070312 C 412.9375 6.210938 413.601562 5.585938 414.558594 5.585938 C 415.574219 5.585938 416.21875 6.25 416.21875 7.285156 C 416.21875 8.125 415.789062 8.808594 414.949219 9.375 C 414.871094 9.414062 414.871094 9.414062 414.8125 9.453125 Z M 414.8125 9.453125 "/>
<path style=" stroke:none;fill-rule:nonzero;fill:rgb(0%,0%,0%);fill-opacity:1;" d="M 425.429688 11.816406 L 423.90625 11.816406 L 423.90625 5.175781 L 423.242188 5.175781 L 418.554688 11.816406 L 418.554688 12.773438 L 422.753906 12.773438 L 422.753906 15.273438 L 423.90625 15.273438 L 423.90625 12.773438 L 425.429688 12.773438 Z M 422.734375 11.816406 L 419.160156 11.816406 L 422.734375 6.699219 Z M 422.734375 11.816406 "/>
<path style=" stroke:none;fill-rule:nonzero;fill:rgb(0%,0%,0%);fill-opacity:1;" d="M 426.730469 15.605469 C 428.410156 15.410156 429.230469 15.117188 430.246094 14.394531 C 431.789062 13.261719 432.707031 11.40625 432.707031 9.394531 C 432.707031 6.914062 431.339844 5.175781 429.40625 5.175781 C 427.628906 5.175781 426.300781 6.679688 426.300781 8.691406 C 426.300781 10.527344 427.375 11.738281 428.996094 11.738281 C 429.816406 11.738281 430.441406 11.484375 431.222656 10.878906 C 430.617188 13.320312 428.957031 14.921875 426.691406 15.3125 Z M 431.261719 9.960938 C 431.261719 10.273438 431.203125 10.410156 431.027344 10.527344 C 430.617188 10.898438 430.070312 11.09375 429.523438 11.09375 C 428.390625 11.09375 427.667969 9.960938 427.667969 8.183594 C 427.667969 7.34375 427.921875 6.445312 428.234375 6.054688 C 428.488281 5.761719 428.859375 5.585938 429.289062 5.585938 C 430.597656 5.585938 431.261719 6.875 431.261719 9.394531 Z M 431.261719 9.960938 "/>
<path style=" stroke:none;fill-rule:nonzero;fill:rgb(0%,0%,0%);fill-opacity:1;" d="M 437.675781 5.175781 L 434.980469 6.523438 L 434.980469 6.738281 C 435.15625 6.660156 435.332031 6.601562 435.390625 6.582031 C 435.644531 6.464844 435.898438 6.40625 436.054688 6.40625 C 436.367188 6.40625 436.503906 6.640625 436.503906 7.109375 L 436.503906 13.886719 C 436.503906 14.375 436.386719 14.726562 436.152344 14.863281 C 435.917969 14.980469 435.703125 15.039062 435.078125 15.058594 L 435.078125 15.273438 L 439.199219 15.273438 L 439.199219 15.058594 C 438.027344 15.039062 437.792969 14.882812 437.792969 14.160156 L 437.792969 5.195312 Z M 437.675781 5.175781 "/>
<path style=" stroke:none;fill-rule:nonzero;fill:rgb(0%,0%,0%);fill-opacity:1;" d="M 445.117188 11.425781 L 445.117188 12.382812 L 448.789062 12.382812 L 448.789062 11.425781 Z M 445.117188 11.425781 "/>
<path style=" stroke:none;fill-rule:nonzero;fill:rgb(0%,0%,0%);fill-opacity:1;" d="M 453.863281 5.175781 L 451.167969 6.523438 L 451.167969 6.738281 C 451.34375 6.660156 451.519531 6.601562 451.578125 6.582031 C 451.832031 6.464844 452.085938 6.40625 452.242188 6.40625 C 452.554688 6.40625 452.691406 6.640625 452.691406 7.109375 L 452.691406 13.886719 C 452.691406 14.375 452.574219 14.726562 452.339844 14.863281 C 452.105469 14.980469 451.890625 15.039062 451.265625 15.058594 L 451.265625 15.273438 L 455.386719 15.273438 L 455.386719 15.058594 C 454.214844 15.039062 453.980469 14.882812 453.980469 14.160156 L 453.980469 5.195312 Z M 453.863281 5.175781 "/>
<path style=" stroke:none;fill-rule:nonzero;fill:rgb(0%,0%,0%);fill-opacity:1;" d="M 458.851562 13.789062 C 458.402344 13.789062 458.03125 14.160156 458.03125 14.628906 C 458.03125 15.058594 458.402344 15.429688 458.832031 15.429688 C 459.300781 15.429688 459.671875 15.058594 459.671875 14.628906 C 459.671875 14.160156 459.300781 13.789062 458.851562 13.789062 Z M 458.851562 13.789062 "/>
<path style=" stroke:none;fill-rule:nonzero;fill:rgb(0%,0%,0%);fill-opacity:1;" d="M 467.375 5.058594 C 465.675781 5.195312 464.816406 5.488281 463.722656 6.25 C 462.101562 7.402344 461.222656 9.101562 461.222656 11.113281 C 461.222656 12.402344 461.632812 13.710938 462.277344 14.472656 C 462.84375 15.117188 463.644531 15.488281 464.5625 15.488281 C 466.417969 15.488281 467.707031 14.0625 467.707031 11.992188 C 467.707031 10.097656 466.613281 8.886719 464.894531 8.886719 C 464.25 8.886719 463.917969 8.984375 462.980469 9.550781 C 463.390625 7.285156 465.070312 5.683594 467.414062 5.292969 Z M 464.328125 9.570312 C 465.617188 9.570312 466.359375 10.644531 466.359375 12.5 C 466.359375 14.160156 465.773438 15.058594 464.738281 15.058594 C 463.410156 15.058594 462.609375 13.652344 462.609375 11.347656 C 462.609375 10.585938 462.726562 10.15625 463.039062 9.941406 C 463.351562 9.707031 463.800781 9.570312 464.328125 9.570312 Z M 464.328125 9.570312 "/>
<path style=" stroke:none;fill-rule:nonzero;fill:rgb(0%,0%,0%);fill-opacity:1;" d="M 473.796875 13.789062 C 473.347656 13.789062 472.976562 14.160156 472.976562 14.628906 C 472.976562 15.058594 473.347656 15.429688 473.777344 15.429688 C 474.246094 15.429688 474.617188 15.058594 474.617188 14.628906 C 474.617188 14.160156 474.246094 13.789062 473.796875 13.789062 Z M 473.796875 13.789062 "/>
<path style=" stroke:none;fill-rule:nonzero;fill:rgb(0%,0%,0%);fill-opacity:1;" d="M 479.992188 9.726562 C 481.476562 8.945312 481.984375 8.320312 481.984375 7.285156 C 481.984375 6.074219 480.910156 5.175781 479.425781 5.175781 C 477.785156 5.175781 476.574219 6.171875 476.574219 7.539062 C 476.574219 8.496094 476.867188 8.945312 478.429688 10.3125 C 476.828125 11.542969 476.496094 11.992188 476.496094 13.007812 C 476.496094 14.472656 477.667969 15.488281 479.367188 15.488281 C 481.164062 15.488281 482.296875 14.492188 482.296875 12.949219 C 482.296875 11.816406 481.789062 11.074219 479.992188 9.726562 Z M 479.71875 11.269531 C 480.8125 12.050781 481.164062 12.578125 481.164062 13.417969 C 481.164062 14.394531 480.5 15.058594 479.523438 15.058594 C 478.390625 15.058594 477.628906 14.199219 477.628906 12.890625 C 477.628906 11.933594 477.960938 11.308594 478.820312 10.605469 Z M 479.5625 9.453125 C 478.234375 8.59375 477.6875 7.910156 477.6875 7.070312 C 477.6875 6.210938 478.351562 5.585938 479.308594 5.585938 C 480.324219 5.585938 480.96875 6.25 480.96875 7.285156 C 480.96875 8.125 480.539062 8.808594 479.699219 9.375 C 479.621094 9.414062 479.621094 9.414062 479.5625 9.453125 Z M 479.5625 9.453125 "/>
<path style=" stroke:none;fill-rule:nonzero;fill:rgb(0%,0%,0%);fill-opacity:1;" d="M 484.007812 15.605469 C 485.6875 15.410156 486.507812 15.117188 487.523438 14.394531 C 489.066406 13.261719 489.984375 11.40625 489.984375 9.394531 C 489.984375 6.914062 488.617188 5.175781 486.683594 5.175781 C 484.90625 5.175781 483.578125 6.679688 483.578125 8.691406 C 483.578125 10.527344 484.652344 11.738281 486.273438 11.738281 C 487.09375 11.738281 487.71875 11.484375 488.5 10.878906 C 487.894531 13.320312 486.234375 14.921875 483.96875 15.3125 Z M 488.539062 9.960938 C 488.539062 10.273438 488.480469 10.410156 488.304688 10.527344 C 487.894531 10.898438 487.347656 11.09375 486.800781 11.09375 C 485.667969 11.09375 484.945312 9.960938 484.945312 8.183594 C 484.945312 7.34375 485.199219 6.445312 485.511719 6.054688 C 485.765625 5.761719 486.136719 5.585938 486.566406 5.585938 C 487.875 5.585938 488.539062 6.875 488.539062 9.394531 Z M 488.539062 9.960938 "/>
<path style=" stroke:none;fill-rule:nonzero;fill:rgb(0%,0%,0%);fill-opacity:1;" d="M 494.9375 9.726562 C 496.421875 8.945312 496.929688 8.320312 496.929688 7.285156 C 496.929688 6.074219 495.855469 5.175781 494.371094 5.175781 C 492.730469 5.175781 491.519531 6.171875 491.519531 7.539062 C 491.519531 8.496094 491.8125 8.945312 493.375 10.3125 C 491.773438 11.542969 491.441406 11.992188 491.441406 13.007812 C 491.441406 14.472656 492.613281 15.488281 494.3125 15.488281 C 496.109375 15.488281 497.242188 14.492188 497.242188 12.949219 C 497.242188 11.816406 496.734375 11.074219 494.9375 9.726562 Z M 494.664062 11.269531 C 495.757812 12.050781 496.109375 12.578125 496.109375 13.417969 C 496.109375 14.394531 495.445312 15.058594 494.46875 15.058594 C 493.335938 15.058594 492.574219 14.199219 492.574219 12.890625 C 492.574219 11.933594 492.90625 11.308594 493.765625 10.605469 Z M 494.507812 9.453125 C 493.179688 8.59375 492.632812 7.910156 492.632812 7.070312 C 492.632812 6.210938 493.296875 5.585938 494.253906 5.585938 C 495.269531 5.585938 495.914062 6.25 495.914062 7.285156 C 495.914062 8.125 495.484375 8.808594 494.644531 9.375 C 494.566406 9.414062 494.566406 9.414062 494.507812 9.453125 Z M 494.507812 9.453125 "/>
<path style=" stroke:none;fill-rule:nonzero;fill:rgb(0%,0%,0%);fill-opacity:1;" d="M 498.953125 15.605469 C 500.632812 15.410156 501.453125 15.117188 502.46875 14.394531 C 504.011719 13.261719 504.929688 11.40625 504.929688 9.394531 C 504.929688 6.914062 503.5625 5.175781 501.628906 5.175781 C 499.851562 5.175781 498.523438 6.679688 498.523438 8.691406 C 498.523438 10.527344 499.597656 11.738281 501.21875 11.738281 C 502.039062 11.738281 502.664062 11.484375 503.445312 10.878906 C 502.839844 13.320312 501.179688 14.921875 498.914062 15.3125 Z M 503.484375 9.960938 C 503.484375 10.273438 503.425781 10.410156 503.25 10.527344 C 502.839844 10.898438 502.292969 11.09375 501.746094 11.09375 C 500.613281 11.09375 499.890625 9.960938 499.890625 8.183594 C 499.890625 7.34375 500.144531 6.445312 500.457031 6.054688 C 500.710938 5.761719 501.082031 5.585938 501.511719 5.585938 C 502.820312 5.585938 503.484375 6.875 503.484375 9.394531 Z M 503.484375 9.960938 "/>
<path style=" stroke:none;fill-rule:nonzero;fill:rgb(0%,0%,0%);fill-opacity:1;" d="M 509.867188 11.425781 L 509.867188 12.382812 L 513.539062 12.382812 L 513.539062 11.425781 Z M 509.867188 11.425781 "/>
<path style=" stroke:none;fill-rule:nonzero;fill:rgb(0%,0%,0%);fill-opacity:1;" d="M 518.613281 5.175781 L 515.917969 6.523438 L 515.917969 6.738281 C 516.09375 6.660156 516.269531 6.601562 516.328125 6.582031 C 516.582031 6.464844 516.835938 6.40625 516.992188 6.40625 C 517.304688 6.40625 517.441406 6.640625 517.441406 7.109375 L 517.441406 13.886719 C 517.441406 14.375 517.324219 14.726562 517.089844 14.863281 C 516.855469 14.980469 516.640625 15.039062 516.015625 15.058594 L 516.015625 15.273438 L 520.136719 15.273438 L 520.136719 15.058594 C 518.964844 15.039062 518.730469 14.882812 518.730469 14.160156 L 518.730469 5.195312 Z M 518.613281 5.175781 "/>
<path style=" stroke:none;fill-rule:nonzero;fill:rgb(0%,0%,0%);fill-opacity:1;" d="M 523.605469 13.789062 C 523.15625 13.789062 522.785156 14.160156 522.785156 14.628906 C 522.785156 15.058594 523.15625 15.429688 523.585938 15.429688 C 524.054688 15.429688 524.425781 15.058594 524.425781 14.628906 C 524.425781 14.160156 524.054688 13.789062 523.605469 13.789062 Z M 523.605469 13.789062 "/>
<path style=" stroke:none;fill-rule:nonzero;fill:rgb(0%,0%,0%);fill-opacity:1;" d="M 532.515625 11.816406 L 530.992188 11.816406 L 530.992188 5.175781 L 530.328125 5.175781 L 525.640625 11.816406 L 525.640625 12.773438 L 529.839844 12.773438 L 529.839844 15.273438 L 530.992188 15.273438 L 530.992188 12.773438 L 532.515625 12.773438 Z M 529.820312 11.816406 L 526.246094 11.816406 L 529.820312 6.699219 Z M 529.820312 11.816406 "/>
<path style=" stroke:none;fill-rule:nonzero;fill:rgb(0%,0%,0%);fill-opacity:1;" d="M 538.550781 13.789062 C 538.101562 13.789062 537.730469 14.160156 537.730469 14.628906 C 537.730469 15.058594 538.101562 15.429688 538.53125 15.429688 C 539 15.429688 539.371094 15.058594 539.371094 14.628906 C 539.371094 14.160156 539 13.789062 538.550781 13.789062 Z M 538.550781 13.789062 "/>
<path style=" stroke:none;fill-rule:nonzero;fill:rgb(0%,0%,0%);fill-opacity:1;" d="M 541.289062 15.605469 C 542.96875 15.410156 543.789062 15.117188 544.804688 14.394531 C 546.347656 13.261719 547.265625 11.40625 547.265625 9.394531 C 547.265625 6.914062 545.898438 5.175781 543.964844 5.175781 C 542.1875 5.175781 540.859375 6.679688 540.859375 8.691406 C 540.859375 10.527344 541.933594 11.738281 543.554688 11.738281 C 544.375 11.738281 545 11.484375 545.78125 10.878906 C 545.175781 13.320312 543.515625 14.921875 541.25 15.3125 Z M 545.820312 9.960938 C 545.820312 10.273438 545.761719 10.410156 545.585938 10.527344 C 545.175781 10.898438 544.628906 11.09375 544.082031 11.09375 C 542.949219 11.09375 542.226562 9.960938 542.226562 8.183594 C 542.226562 7.34375 542.480469 6.445312 542.792969 6.054688 C 543.046875 5.761719 543.417969 5.585938 543.847656 5.585938 C 545.15625 5.585938 545.820312 6.875 545.820312 9.394531 Z M 545.820312 9.960938 "/>
<path style=" stroke:none;fill-rule:nonzero;fill:rgb(0%,0%,0%);fill-opacity:1;" d="M 554.933594 11.816406 L 553.410156 11.816406 L 553.410156 5.175781 L 552.746094 5.175781 L 548.058594 11.816406 L 548.058594 12.773438 L 552.257812 12.773438 L 552.257812 15.273438 L 553.410156 15.273438 L 553.410156 12.773438 L 554.933594 12.773438 Z M 552.238281 11.816406 L 548.664062 11.816406 L 552.238281 6.699219 Z M 552.238281 11.816406 "/>
<path style=" stroke:none;fill-rule:nonzero;fill:rgb(0%,0%,0%);fill-opacity:1;" d="M 558.050781 6.5625 L 560.980469 6.5625 C 561.234375 6.5625 561.292969 6.523438 561.332031 6.425781 L 561.898438 5.097656 L 561.761719 5 C 561.546875 5.3125 561.390625 5.390625 561.078125 5.390625 L 557.953125 5.390625 L 556.332031 8.925781 C 556.3125 8.945312 556.3125 8.964844 556.3125 9.003906 C 556.3125 9.082031 556.371094 9.121094 556.488281 9.121094 C 556.976562 9.121094 557.5625 9.21875 558.1875 9.414062 C 559.90625 9.960938 560.6875 10.898438 560.6875 12.382812 C 560.6875 13.808594 559.769531 14.921875 558.617188 14.921875 C 558.304688 14.921875 558.050781 14.824219 557.621094 14.492188 C 557.132812 14.160156 556.78125 14.003906 556.46875 14.003906 C 556.039062 14.003906 555.824219 14.179688 555.824219 14.550781 C 555.824219 15.117188 556.527344 15.488281 557.660156 15.488281 C 558.910156 15.488281 559.984375 15.078125 560.726562 14.316406 C 561.429688 13.652344 561.742188 12.792969 561.742188 11.660156 C 561.742188 10.585938 561.449219 9.902344 560.707031 9.140625 C 560.042969 8.496094 559.203125 8.144531 557.425781 7.832031 Z M 558.050781 6.5625 "/>
<path style=" stroke:none;fill-rule:nonzero;fill:rgb(0%,0%,0%);fill-opacity:1;" d="M 563.707031 15.605469 C 565.386719 15.410156 566.207031 15.117188 567.222656 14.394531 C 568.765625 13.261719 569.683594 11.40625 569.683594 9.394531 C 569.683594 6.914062 568.316406 5.175781 566.382812 5.175781 C 564.605469 5.175781 563.277344 6.679688 563.277344 8.691406 C 563.277344 10.527344 564.351562 11.738281 565.972656 11.738281 C 566.792969 11.738281 567.417969 11.484375 568.199219 10.878906 C 567.59375 13.320312 565.933594 14.921875 563.667969 15.3125 Z M 568.238281 9.960938 C 568.238281 10.273438 568.179688 10.410156 568.003906 10.527344 C 567.59375 10.898438 567.046875 11.09375 566.5 11.09375 C 565.367188 11.09375 564.644531 9.960938 564.644531 8.183594 C 564.644531 7.34375 564.898438 6.445312 565.210938 6.054688 C 565.464844 5.761719 565.835938 5.585938 566.265625 5.585938 C 567.574219 5.585938 568.238281 6.875 568.238281 9.394531 Z M 568.238281 9.960938 "/>
<path style=" stroke:none;fill-rule:nonzero;fill:rgb(0%,0%,0%);fill-opacity:1;" d="M 574.621094 11.425781 L 574.621094 12.382812 L 578.292969 12.382812 L 578.292969 11.425781 Z M 574.621094 11.425781 "/>
<path style=" stroke:none;fill-rule:nonzero;fill:rgb(0%,0%,0%);fill-opacity:1;" d="M 583.367188 5.175781 L 580.671875 6.523438 L 580.671875 6.738281 C 580.847656 6.660156 581.023438 6.601562 581.082031 6.582031 C 581.335938 6.464844 581.589844 6.40625 581.746094 6.40625 C 582.058594 6.40625 582.195312 6.640625 582.195312 7.109375 L 582.195312 13.886719 C 582.195312 14.375 582.078125 14.726562 581.84375 14.863281 C 581.609375 14.980469 581.394531 15.039062 580.769531 15.058594 L 580.769531 15.273438 L 584.890625 15.273438 L 584.890625 15.058594 C 583.71875 15.039062 583.484375 14.882812 583.484375 14.160156 L 583.484375 5.195312 Z M 583.367188 5.175781 "/>
<path style=" stroke:none;fill-rule:nonzero;fill:rgb(0%,0%,0%);fill-opacity:1;" d="M 588.359375 13.789062 C 587.910156 13.789062 587.539062 14.160156 587.539062 14.628906 C 587.539062 15.058594 587.910156 15.429688 588.339844 15.429688 C 588.808594 15.429688 589.179688 15.058594 589.179688 14.628906 C 589.179688 14.160156 588.808594 13.789062 588.359375 13.789062 Z M 588.359375 13.789062 "/>
<path style=" stroke:none;fill-rule:nonzero;fill:rgb(0%,0%,0%);fill-opacity:1;" d="M 597.308594 13.222656 L 597.113281 13.144531 C 596.566406 14.003906 596.371094 14.140625 595.707031 14.140625 L 592.132812 14.140625 L 594.632812 11.503906 C 595.980469 10.117188 596.546875 8.984375 596.546875 7.8125 C 596.546875 6.328125 595.335938 5.175781 593.792969 5.175781 C 592.972656 5.175781 592.191406 5.507812 591.644531 6.09375 C 591.15625 6.601562 590.941406 7.089844 590.6875 8.144531 L 591 8.222656 C 591.585938 6.757812 592.132812 6.269531 593.167969 6.269531 C 594.417969 6.269531 595.277344 7.128906 595.277344 8.378906 C 595.277344 9.550781 594.574219 10.9375 593.324219 12.265625 L 590.667969 15.097656 L 590.667969 15.273438 L 596.488281 15.273438 Z M 597.308594 13.222656 "/>
<path style=" stroke:none;fill-rule:nonzero;fill:rgb(0%,0%,0%);fill-opacity:1;" d="M 603.300781 13.789062 C 602.851562 13.789062 602.480469 14.160156 602.480469 14.628906 C 602.480469 15.058594 602.851562 15.429688 603.28125 15.429688 C 603.75 15.429688 604.121094 15.058594 604.121094 14.628906 C 604.121094 14.160156 603.75 13.789062 603.300781 13.789062 Z M 603.300781 13.789062 "/>
<path style=" stroke:none;fill-rule:nonzero;fill:rgb(0%,0%,0%);fill-opacity:1;" d="M 606.042969 15.605469 C 607.722656 15.410156 608.542969 15.117188 609.558594 14.394531 C 611.101562 13.261719 612.019531 11.40625 612.019531 9.394531 C 612.019531 6.914062 610.652344 5.175781 608.71875 5.175781 C 606.941406 5.175781 605.613281 6.679688 605.613281 8.691406 C 605.613281 10.527344 606.6875 11.738281 608.308594 11.738281 C 609.128906 11.738281 609.753906 11.484375 610.535156 10.878906 C 609.929688 13.320312 608.269531 14.921875 606.003906 15.3125 Z M 610.574219 9.960938 C 610.574219 10.273438 610.515625 10.410156 610.339844 10.527344 C 609.929688 10.898438 609.382812 11.09375 608.835938 11.09375 C 607.703125 11.09375 606.980469 9.960938 606.980469 8.183594 C 606.980469 7.34375 607.234375 6.445312 607.546875 6.054688 C 607.800781 5.761719 608.171875 5.585938 608.601562 5.585938 C 609.910156 5.585938 610.574219 6.875 610.574219 9.394531 Z M 610.574219 9.960938 "/>
<path style=" stroke:none;fill-rule:nonzero;fill:rgb(0%,0%,0%);fill-opacity:1;" d="M 616.972656 9.726562 C 618.457031 8.945312 618.964844 8.320312 618.964844 7.285156 C 618.964844 6.074219 617.890625 5.175781 616.40625 5.175781 C 614.765625 5.175781 613.554688 6.171875 613.554688 7.539062 C 613.554688 8.496094 613.847656 8.945312 615.410156 10.3125 C 613.808594 11.542969 613.476562 11.992188 613.476562 13.007812 C 613.476562 14.472656 614.648438 15.488281 616.347656 15.488281 C 618.144531 15.488281 619.277344 14.492188 619.277344 12.949219 C 619.277344 11.816406 618.769531 11.074219 616.972656 9.726562 Z M 616.699219 11.269531 C 617.792969 12.050781 618.144531 12.578125 618.144531 13.417969 C 618.144531 14.394531 617.480469 15.058594 616.503906 15.058594 C 615.371094 15.058594 614.609375 14.199219 614.609375 12.890625 C 614.609375 11.933594 614.941406 11.308594 615.800781 10.605469 Z M 616.542969 9.453125 C 615.214844 8.59375 614.667969 7.910156 614.667969 7.070312 C 614.667969 6.210938 615.332031 5.585938 616.289062 5.585938 C 617.304688 5.585938 617.949219 6.25 617.949219 7.285156 C 617.949219 8.125 617.519531 8.808594 616.679688 9.375 C 616.601562 9.414062 616.601562 9.414062 616.542969 9.453125 Z M 616.542969 9.453125 "/>
<path style=" stroke:none;fill-rule:nonzero;fill:rgb(0%,0%,0%);fill-opacity:1;" d="M 622.390625 10.351562 C 623.269531 10.351562 623.621094 10.371094 623.972656 10.507812 C 624.910156 10.839844 625.476562 11.679688 625.476562 12.714844 C 625.476562 13.964844 624.636719 14.941406 623.523438 14.941406 C 623.132812 14.941406 622.820312 14.84375 622.273438 14.472656 C 621.824219 14.21875 621.570312 14.101562 621.316406 14.101562 C 620.964844 14.101562 620.75 14.316406 620.75 14.628906 C 620.75 15.15625 621.394531 15.488281 622.429688 15.488281 C 623.582031 15.488281 624.773438 15.097656 625.476562 14.472656 C 626.179688 13.867188 626.550781 13.007812 626.550781 11.992188 C 626.550781 11.230469 626.316406 10.527344 625.886719 10.078125 C 625.59375 9.746094 625.300781 9.570312 624.65625 9.277344 C 625.671875 8.574219 626.042969 8.027344 626.042969 7.226562 C 626.042969 6.015625 625.105469 5.175781 623.71875 5.175781 C 622.976562 5.175781 622.3125 5.429688 621.785156 5.898438 C 621.335938 6.308594 621.101562 6.699219 620.769531 7.597656 L 621.003906 7.65625 C 621.609375 6.5625 622.292969 6.074219 623.230469 6.074219 C 624.207031 6.074219 624.871094 6.71875 624.871094 7.675781 C 624.871094 8.203125 624.65625 8.75 624.265625 9.121094 C 623.816406 9.570312 623.40625 9.785156 622.390625 10.15625 Z M 622.390625 10.351562 "/>
<path style=" stroke:none;fill-rule:nonzero;fill:rgb(0%,0%,0%);fill-opacity:1;" d="M 634.238281 5.058594 C 632.539062 5.195312 631.679688 5.488281 630.585938 6.25 C 628.964844 7.402344 628.085938 9.101562 628.085938 11.113281 C 628.085938 12.402344 628.496094 13.710938 629.140625 14.472656 C 629.707031 15.117188 630.507812 15.488281 631.425781 15.488281 C 633.28125 15.488281 634.570312 14.0625 634.570312 11.992188 C 634.570312 10.097656 633.476562 8.886719 631.757812 8.886719 C 631.113281 8.886719 630.78125 8.984375 629.84375 9.550781 C 630.253906 7.285156 631.933594 5.683594 634.277344 5.292969 Z M 631.191406 9.570312 C 632.480469 9.570312 633.222656 10.644531 633.222656 12.5 C 633.222656 14.160156 632.636719 15.058594 631.601562 15.058594 C 630.273438 15.058594 629.472656 13.652344 629.472656 11.347656 C 629.472656 10.585938 629.589844 10.15625 629.902344 9.941406 C 630.214844 9.707031 630.664062 9.570312 631.191406 9.570312 Z M 631.191406 9.570312 "/>
<path style=" stroke:none;fill-rule:nonzero;fill:rgb(0%,0%,0%);fill-opacity:1;" d="M 639.371094 11.425781 L 639.371094 12.382812 L 643.042969 12.382812 L 643.042969 11.425781 Z M 639.371094 11.425781 "/>
<path style=" stroke:none;fill-rule:nonzero;fill:rgb(0%,0%,0%);fill-opacity:1;" d="M 648.117188 5.175781 L 645.421875 6.523438 L 645.421875 6.738281 C 645.597656 6.660156 645.773438 6.601562 645.832031 6.582031 C 646.085938 6.464844 646.339844 6.40625 646.496094 6.40625 C 646.808594 6.40625 646.945312 6.640625 646.945312 7.109375 L 646.945312 13.886719 C 646.945312 14.375 646.828125 14.726562 646.59375 14.863281 C 646.359375 14.980469 646.144531 15.039062 645.519531 15.058594 L 645.519531 15.273438 L 649.640625 15.273438 L 649.640625 15.058594 C 648.46875 15.039062 648.234375 14.882812 648.234375 14.160156 L 648.234375 5.195312 Z M 648.117188 5.175781 "/>
<path style=" stroke:none;fill-rule:nonzero;fill:rgb(0%,0%,0%);fill-opacity:1;" d="M 653.109375 13.789062 C 652.660156 13.789062 652.289062 14.160156 652.289062 14.628906 C 652.289062 15.058594 652.660156 15.429688 653.089844 15.429688 C 653.558594 15.429688 653.929688 15.058594 653.929688 14.628906 C 653.929688 14.160156 653.558594 13.789062 653.109375 13.789062 Z M 653.109375 13.789062 "/>
<path style=" stroke:none;fill-rule:nonzero;fill:rgb(0%,0%,0%);fill-opacity:1;" d="M 663.960938 5.175781 L 661.265625 6.523438 L 661.265625 6.738281 C 661.441406 6.660156 661.617188 6.601562 661.675781 6.582031 C 661.929688 6.464844 662.183594 6.40625 662.339844 6.40625 C 662.652344 6.40625 662.789062 6.640625 662.789062 7.109375 L 662.789062 13.886719 C 662.789062 14.375 662.671875 14.726562 662.4375 14.863281 C 662.203125 14.980469 661.988281 15.039062 661.363281 15.058594 L 661.363281 15.273438 L 665.484375 15.273438 L 665.484375 15.058594 C 664.3125 15.039062 664.078125 14.882812 664.078125 14.160156 L 664.078125 5.195312 Z M 663.960938 5.175781 "/>
<path style=" stroke:none;fill-rule:nonzero;fill:rgb(0%,0%,0%);fill-opacity:1;" d="M 668.949219 13.789062 C 668.5 13.789062 668.128906 14.160156 668.128906 14.628906 C 668.128906 15.058594 668.5 15.429688 668.929688 15.429688 C 669.398438 15.429688 669.769531 15.058594 669.769531 14.628906 C 669.769531 14.160156 669.398438 13.789062 668.949219 13.789062 Z M 668.949219 13.789062 "/>
</g>
</svg>
