<?xml version="1.0" encoding="UTF-8"?>
<svg xmlns="http://www.w3.org/2000/svg" xmlns:xlink="http://www.w3.org/1999/xlink" width="677.2539pt" height="20.605469pt" viewBox="0 0 677.2539 20.605469" version="1.1">
<g id="surface769">
<path style=" stroke:none;fill-rule:nonzero;fill:rgb(0%,0%,0%);fill-opacity:1;" d="M 8.4375 5.175781 C 7.617188 5.175781 6.992188 5.429688 6.445312 5.957031 C 5.566406 6.777344 5 8.496094 5 10.253906 C 5 11.875 5.507812 13.632812 6.210938 14.472656 C 6.757812 15.117188 7.519531 15.488281 8.378906 15.488281 C 9.140625 15.488281 9.785156 15.234375 10.332031 14.707031 C 11.191406 13.886719 11.757812 12.148438 11.757812 10.351562 C 11.757812 7.285156 10.410156 5.175781 8.4375 5.175781 Z M 8.398438 5.566406 C 9.648438 5.566406 10.332031 7.246094 10.332031 10.371094 C 10.332031 13.496094 9.667969 15.097656 8.378906 15.097656 C 7.089844 15.097656 6.445312 13.496094 6.445312 10.390625 C 6.445312 7.226562 7.109375 5.566406 8.398438 5.566406 Z M 8.398438 5.566406 "/>
<path style=" stroke:none;fill-rule:nonzero;fill:rgb(0%,0%,0%);fill-opacity:1;" d="M 19.644531 5.175781 C 18.824219 5.175781 18.199219 5.429688 17.652344 5.957031 C 16.773438 6.777344 16.207031 8.496094 16.207031 10.253906 C 16.207031 11.875 16.714844 13.632812 17.417969 14.472656 C 17.964844 15.117188 18.726562 15.488281 19.585938 15.488281 C 20.347656 15.488281 20.992188 15.234375 21.539062 14.707031 C 22.398438 13.886719 22.964844 12.148438 22.964844 10.351562 C 22.964844 7.285156 21.617188 5.175781 19.644531 5.175781 Z M 19.605469 5.566406 C 20.855469 5.566406 21.539062 7.246094 21.539062 10.371094 C 21.539062 13.496094 20.875 15.097656 19.585938 15.097656 C 18.296875 15.097656 17.652344 13.496094 17.652344 10.390625 C 17.652344 7.226562 18.316406 5.566406 19.605469 5.566406 Z M 19.605469 5.566406 "/>
<path style=" stroke:none;fill-rule:nonzero;fill:rgb(0%,0%,0%);fill-opacity:1;" d="M 28.9375 13.789062 C 28.488281 13.789062 28.117188 14.160156 28.117188 14.628906 C 28.117188 15.058594 28.488281 15.429688 28.917969 15.429688 C 29.386719 15.429688 29.757812 15.058594 29.757812 14.628906 C 29.757812 14.160156 29.386719 13.789062 28.9375 13.789062 Z M 28.9375 13.789062 "/>
<path style=" stroke:none;fill-rule:nonzero;fill:rgb(0%,0%,0%);fill-opacity:1;" d="M 37.890625 13.222656 L 37.695312 13.144531 C 37.148438 14.003906 36.953125 14.140625 36.289062 14.140625 L 32.714844 14.140625 L 35.214844 11.503906 C 36.5625 10.117188 37.128906 8.984375 37.128906 7.8125 C 37.128906 6.328125 35.917969 5.175781 34.375 5.175781 C 33.554688 5.175781 32.773438 5.507812 32.226562 6.09375 C 31.738281 6.601562 31.523438 7.089844 31.269531 8.144531 L 31.582031 8.222656 C 32.167969 6.757812 32.714844 6.269531 33.75 6.269531 C 35 6.269531 35.859375 7.128906 35.859375 8.378906 C 35.859375 9.550781 35.15625 10.9375 33.90625 12.265625 L 31.25 15.097656 L 31.25 15.273438 L 37.070312 15.273438 Z M 37.890625 13.222656 "/>
<path style=" stroke:none;fill-rule:nonzero;fill:rgb(0%,0%,0%);fill-opacity:1;" d="M 42.0625 5.175781 C 41.242188 5.175781 40.617188 5.429688 40.070312 5.957031 C 39.191406 6.777344 38.625 8.496094 38.625 10.253906 C 38.625 11.875 39.132812 13.632812 39.835938 14.472656 C 40.382812 15.117188 41.144531 15.488281 42.003906 15.488281 C 42.765625 15.488281 43.410156 15.234375 43.957031 14.707031 C 44.816406 13.886719 45.382812 12.148438 45.382812 10.351562 C 45.382812 7.285156 44.035156 5.175781 42.0625 5.175781 Z M 42.023438 5.566406 C 43.273438 5.566406 43.957031 7.246094 43.957031 10.371094 C 43.957031 13.496094 43.292969 15.097656 42.003906 15.097656 C 40.714844 15.097656 40.070312 13.496094 40.070312 10.390625 C 40.070312 7.226562 40.734375 5.566406 42.023438 5.566406 Z M 42.023438 5.566406 "/>
<path style=" stroke:none;fill-rule:nonzero;fill:rgb(0%,0%,0%);fill-opacity:1;" d="M 51.355469 13.789062 C 50.90625 13.789062 50.535156 14.160156 50.535156 14.628906 C 50.535156 15.058594 50.90625 15.429688 51.335938 15.429688 C 51.804688 15.429688 52.175781 15.058594 52.175781 14.628906 C 52.175781 14.160156 51.804688 13.789062 51.355469 13.789062 Z M 51.355469 13.789062 "/>
<path style=" stroke:none;fill-rule:nonzero;fill:rgb(0%,0%,0%);fill-opacity:1;" d="M 60.265625 11.816406 L 58.742188 11.816406 L 58.742188 5.175781 L 58.078125 5.175781 L 53.390625 11.816406 L 53.390625 12.773438 L 57.589844 12.773438 L 57.589844 15.273438 L 58.742188 15.273438 L 58.742188 12.773438 L 60.265625 12.773438 Z M 57.570312 11.816406 L 53.996094 11.816406 L 57.570312 6.699219 Z M 57.570312 11.816406 "/>
<path style=" stroke:none;fill-rule:nonzero;fill:rgb(0%,0%,0%);fill-opacity:1;" d="M 65.023438 9.726562 C 66.507812 8.945312 67.015625 8.320312 67.015625 7.285156 C 67.015625 6.074219 65.941406 5.175781 64.457031 5.175781 C 62.816406 5.175781 61.605469 6.171875 61.605469 7.539062 C 61.605469 8.496094 61.898438 8.945312 63.460938 10.3125 C 61.859375 11.542969 61.527344 11.992188 61.527344 13.007812 C 61.527344 14.472656 62.699219 15.488281 64.398438 15.488281 C 66.195312 15.488281 67.328125 14.492188 67.328125 12.949219 C 67.328125 11.816406 66.820312 11.074219 65.023438 9.726562 Z M 64.75 11.269531 C 65.84375 12.050781 66.195312 12.578125 66.195312 13.417969 C 66.195312 14.394531 65.53125 15.058594 64.554688 15.058594 C 63.421875 15.058594 62.660156 14.199219 62.660156 12.890625 C 62.660156 11.933594 62.992188 11.308594 63.851562 10.605469 Z M 64.59375 9.453125 C 63.265625 8.59375 62.71875 7.910156 62.71875 7.070312 C 62.71875 6.210938 63.382812 5.585938 64.339844 5.585938 C 65.355469 5.585938 66 6.25 66 7.285156 C 66 8.125 65.570312 8.808594 64.730469 9.375 C 64.652344 9.414062 64.652344 9.414062 64.59375 9.453125 Z M 64.59375 9.453125 "/>
<path style=" stroke:none;fill-rule:nonzero;fill:rgb(0%,0%,0%);fill-opacity:1;" d="M 72.515625 5.175781 L 69.820312 6.523438 L 69.820312 6.738281 C 69.996094 6.660156 70.171875 6.601562 70.230469 6.582031 C 70.484375 6.464844 70.738281 6.40625 70.894531 6.40625 C 71.207031 6.40625 71.34375 6.640625 71.34375 7.109375 L 71.34375 13.886719 C 71.34375 14.375 71.226562 14.726562 70.992188 14.863281 C 70.757812 14.980469 70.542969 15.039062 69.917969 15.058594 L 69.917969 15.273438 L 74.039062 15.273438 L 74.039062 15.058594 C 72.867188 15.039062 72.632812 14.882812 72.632812 14.160156 L 72.632812 5.195312 Z M 72.515625 5.175781 "/>
<path style=" stroke:none;fill-rule:nonzero;fill:rgb(0%,0%,0%);fill-opacity:1;" d="M 78.328125 6.5625 L 81.257812 6.5625 C 81.511719 6.5625 81.570312 6.523438 81.609375 6.425781 L 82.175781 5.097656 L 82.039062 5 C 81.824219 5.3125 81.667969 5.390625 81.355469 5.390625 L 78.230469 5.390625 L 76.609375 8.925781 C 76.589844 8.945312 76.589844 8.964844 76.589844 9.003906 C 76.589844 9.082031 76.648438 9.121094 76.765625 9.121094 C 77.253906 9.121094 77.839844 9.21875 78.464844 9.414062 C 80.183594 9.960938 80.964844 10.898438 80.964844 12.382812 C 80.964844 13.808594 80.046875 14.921875 78.894531 14.921875 C 78.582031 14.921875 78.328125 14.824219 77.898438 14.492188 C 77.410156 14.160156 77.058594 14.003906 76.746094 14.003906 C 76.316406 14.003906 76.101562 14.179688 76.101562 14.550781 C 76.101562 15.117188 76.804688 15.488281 77.9375 15.488281 C 79.1875 15.488281 80.261719 15.078125 81.003906 14.316406 C 81.707031 13.652344 82.019531 12.792969 82.019531 11.660156 C 82.019531 10.585938 81.726562 9.902344 80.984375 9.140625 C 80.320312 8.496094 79.480469 8.144531 77.703125 7.832031 Z M 78.328125 6.5625 "/>
<path style=" stroke:none;fill-rule:nonzero;fill:rgb(0%,0%,0%);fill-opacity:1;" d="M 88.714844 13.789062 C 88.265625 13.789062 87.894531 14.160156 87.894531 14.628906 C 87.894531 15.058594 88.265625 15.429688 88.695312 15.429688 C 89.164062 15.429688 89.535156 15.058594 89.535156 14.628906 C 89.535156 14.160156 89.164062 13.789062 88.714844 13.789062 Z M 88.714844 13.789062 "/>
<path style=" stroke:none;fill-rule:nonzero;fill:rgb(0%,0%,0%);fill-opacity:1;" d="M 97.628906 11.816406 L 96.105469 11.816406 L 96.105469 5.175781 L 95.441406 5.175781 L 90.753906 11.816406 L 90.753906 12.773438 L 94.953125 12.773438 L 94.953125 15.273438 L 96.105469 15.273438 L 96.105469 12.773438 L 97.628906 12.773438 Z M 94.933594 11.816406 L 91.359375 11.816406 L 94.933594 6.699219 Z M 94.933594 11.816406 "/>
<path style=" stroke:none;fill-rule:nonzero;fill:rgb(0%,0%,0%);fill-opacity:1;" d="M 101.835938 5.175781 C 101.015625 5.175781 100.390625 5.429688 99.84375 5.957031 C 98.964844 6.777344 98.398438 8.496094 98.398438 10.253906 C 98.398438 11.875 98.90625 13.632812 99.609375 14.472656 C 100.15625 15.117188 100.917969 15.488281 101.777344 15.488281 C 102.539062 15.488281 103.183594 15.234375 103.730469 14.707031 C 104.589844 13.886719 105.15625 12.148438 105.15625 10.351562 C 105.15625 7.285156 103.808594 5.175781 101.835938 5.175781 Z M 101.796875 5.566406 C 103.046875 5.566406 103.730469 7.246094 103.730469 10.371094 C 103.730469 13.496094 103.066406 15.097656 101.777344 15.097656 C 100.488281 15.097656 99.84375 13.496094 99.84375 10.390625 C 99.84375 7.226562 100.507812 5.566406 101.796875 5.566406 Z M 101.796875 5.566406 "/>
<path style=" stroke:none;fill-rule:nonzero;fill:rgb(0%,0%,0%);fill-opacity:1;" d="M 111.132812 13.789062 C 110.683594 13.789062 110.3125 14.160156 110.3125 14.628906 C 110.3125 15.058594 110.683594 15.429688 111.113281 15.429688 C 111.582031 15.429688 111.953125 15.058594 111.953125 14.628906 C 111.953125 14.160156 111.582031 13.789062 111.132812 13.789062 Z M 111.132812 13.789062 "/>
<path style=" stroke:none;fill-rule:nonzero;fill:rgb(0%,0%,0%);fill-opacity:1;" d="M 119.652344 5.058594 C 117.953125 5.195312 117.09375 5.488281 116 6.25 C 114.378906 7.402344 113.5 9.101562 113.5 11.113281 C 113.5 12.402344 113.910156 13.710938 114.554688 14.472656 C 115.121094 15.117188 115.921875 15.488281 116.839844 15.488281 C 118.695312 15.488281 119.984375 14.0625 119.984375 11.992188 C 119.984375 10.097656 118.890625 8.886719 117.171875 8.886719 C 116.527344 8.886719 116.195312 8.984375 115.257812 9.550781 C 115.667969 7.285156 117.347656 5.683594 119.691406 5.292969 Z M 116.605469 9.570312 C 117.894531 9.570312 118.636719 10.644531 118.636719 12.5 C 118.636719 14.160156 118.050781 15.058594 117.015625 15.058594 C 115.6875 15.058594 114.886719 13.652344 114.886719 11.347656 C 114.886719 10.585938 115.003906 10.15625 115.316406 9.941406 C 115.628906 9.707031 116.078125 9.570312 116.605469 9.570312 Z M 116.605469 9.570312 "/>
<path style=" stroke:none;fill-rule:nonzero;fill:rgb(0%,0%,0%);fill-opacity:1;" d="M 122.75 10.351562 C 123.628906 10.351562 123.980469 10.371094 124.332031 10.507812 C 125.269531 10.839844 125.835938 11.679688 125.835938 12.714844 C 125.835938 13.964844 124.996094 14.941406 123.882812 14.941406 C 123.492188 14.941406 123.179688 14.84375 122.632812 14.472656 C 122.183594 14.21875 121.929688 14.101562 121.675781 14.101562 C 121.324219 14.101562 121.109375 14.316406 121.109375 14.628906 C 121.109375 15.15625 121.753906 15.488281 122.789062 15.488281 C 123.941406 15.488281 125.132812 15.097656 125.835938 14.472656 C 126.539062 13.867188 126.910156 13.007812 126.910156 11.992188 C 126.910156 11.230469 126.675781 10.527344 126.246094 10.078125 C 125.953125 9.746094 125.660156 9.570312 125.015625 9.277344 C 126.03125 8.574219 126.402344 8.027344 126.402344 7.226562 C 126.402344 6.015625 125.464844 5.175781 124.078125 5.175781 C 123.335938 5.175781 122.671875 5.429688 122.144531 5.898438 C 121.695312 6.308594 121.460938 6.699219 121.128906 7.597656 L 121.363281 7.65625 C 121.96875 6.5625 122.652344 6.074219 123.589844 6.074219 C 124.566406 6.074219 125.230469 6.71875 125.230469 7.675781 C 125.230469 8.203125 125.015625 8.75 124.625 9.121094 C 124.175781 9.570312 123.765625 9.785156 122.75 10.15625 Z M 122.75 10.351562 "/>
<path style=" stroke:none;fill-rule:nonzero;fill:rgb(0%,0%,0%);fill-opacity:1;" d="M 134.636719 5.390625 L 129.109375 5.390625 L 128.230469 7.578125 L 128.484375 7.695312 C 129.128906 6.679688 129.402344 6.484375 130.222656 6.484375 L 133.464844 6.484375 L 130.515625 15.390625 L 131.472656 15.390625 L 134.636719 5.625 Z M 134.636719 5.390625 "/>
<path style=" stroke:none;fill-rule:nonzero;fill:rgb(0%,0%,0%);fill-opacity:1;" d="M 138.105469 6.5625 L 141.035156 6.5625 C 141.289062 6.5625 141.347656 6.523438 141.386719 6.425781 L 141.953125 5.097656 L 141.816406 5 C 141.601562 5.3125 141.445312 5.390625 141.132812 5.390625 L 138.007812 5.390625 L 136.386719 8.925781 C 136.367188 8.945312 136.367188 8.964844 136.367188 9.003906 C 136.367188 9.082031 136.425781 9.121094 136.542969 9.121094 C 137.03125 9.121094 137.617188 9.21875 138.242188 9.414062 C 139.960938 9.960938 140.742188 10.898438 140.742188 12.382812 C 140.742188 13.808594 139.824219 14.921875 138.671875 14.921875 C 138.359375 14.921875 138.105469 14.824219 137.675781 14.492188 C 137.1875 14.160156 136.835938 14.003906 136.523438 14.003906 C 136.09375 14.003906 135.878906 14.179688 135.878906 14.550781 C 135.878906 15.117188 136.582031 15.488281 137.714844 15.488281 C 138.964844 15.488281 140.039062 15.078125 140.78125 14.316406 C 141.484375 13.652344 141.796875 12.792969 141.796875 11.660156 C 141.796875 10.585938 141.503906 9.902344 140.761719 9.140625 C 140.097656 8.496094 139.257812 8.144531 137.480469 7.832031 Z M 138.105469 6.5625 "/>
<path style=" stroke:none;fill-rule:nonzero;fill:rgb(0%,0%,0%);fill-opacity:1;" d="M 148.492188 13.789062 C 148.042969 13.789062 147.671875 14.160156 147.671875 14.628906 C 147.671875 15.058594 148.042969 15.429688 148.472656 15.429688 C 148.941406 15.429688 149.3125 15.058594 149.3125 14.628906 C 149.3125 14.160156 148.941406 13.789062 148.492188 13.789062 Z M 148.492188 13.789062 "/>
<path style=" stroke:none;fill-rule:nonzero;fill:rgb(0%,0%,0%);fill-opacity:1;" d="M 157.011719 5.058594 C 155.3125 5.195312 154.453125 5.488281 153.359375 6.25 C 151.738281 7.402344 150.859375 9.101562 150.859375 11.113281 C 150.859375 12.402344 151.269531 13.710938 151.914062 14.472656 C 152.480469 15.117188 153.28125 15.488281 154.199219 15.488281 C 156.054688 15.488281 157.34375 14.0625 157.34375 11.992188 C 157.34375 10.097656 156.25 8.886719 154.53125 8.886719 C 153.886719 8.886719 153.554688 8.984375 152.617188 9.550781 C 153.027344 7.285156 154.707031 5.683594 157.050781 5.292969 Z M 153.964844 9.570312 C 155.253906 9.570312 155.996094 10.644531 155.996094 12.5 C 155.996094 14.160156 155.410156 15.058594 154.375 15.058594 C 153.046875 15.058594 152.246094 13.652344 152.246094 11.347656 C 152.246094 10.585938 152.363281 10.15625 152.675781 9.941406 C 152.988281 9.707031 153.4375 9.570312 153.964844 9.570312 Z M 153.964844 9.570312 "/>
<path style=" stroke:none;fill-rule:nonzero;fill:rgb(0%,0%,0%);fill-opacity:1;" d="M 161.613281 5.175781 C 160.792969 5.175781 160.167969 5.429688 159.621094 5.957031 C 158.742188 6.777344 158.175781 8.496094 158.175781 10.253906 C 158.175781 11.875 158.683594 13.632812 159.386719 14.472656 C 159.933594 15.117188 160.695312 15.488281 161.554688 15.488281 C 162.316406 15.488281 162.960938 15.234375 163.507812 14.707031 C 164.367188 13.886719 164.933594 12.148438 164.933594 10.351562 C 164.933594 7.285156 163.585938 5.175781 161.613281 5.175781 Z M 161.574219 5.566406 C 162.824219 5.566406 163.507812 7.246094 163.507812 10.371094 C 163.507812 13.496094 162.84375 15.097656 161.554688 15.097656 C 160.265625 15.097656 159.621094 13.496094 159.621094 10.390625 C 159.621094 7.226562 160.285156 5.566406 161.574219 5.566406 Z M 161.574219 5.566406 "/>
<path style=" stroke:none;fill-rule:nonzero;fill:rgb(0%,0%,0%);fill-opacity:1;" d="M 170.90625 13.789062 C 170.457031 13.789062 170.085938 14.160156 170.085938 14.628906 C 170.085938 15.058594 170.457031 15.429688 170.886719 15.429688 C 171.355469 15.429688 171.726562 15.058594 171.726562 14.628906 C 171.726562 14.160156 171.355469 13.789062 170.90625 13.789062 Z M 170.90625 13.789062 "/>
<path style=" stroke:none;fill-rule:nonzero;fill:rgb(0%,0%,0%);fill-opacity:1;" d="M 175.464844 6.5625 L 178.394531 6.5625 C 178.648438 6.5625 178.707031 6.523438 178.746094 6.425781 L 179.3125 5.097656 L 179.175781 5 C 178.960938 5.3125 178.804688 5.390625 178.492188 5.390625 L 175.367188 5.390625 L 173.746094 8.925781 C 173.726562 8.945312 173.726562 8.964844 173.726562 9.003906 C 173.726562 9.082031 173.785156 9.121094 173.902344 9.121094 C 174.390625 9.121094 174.976562 9.21875 175.601562 9.414062 C 177.320312 9.960938 178.101562 10.898438 178.101562 12.382812 C 178.101562 13.808594 177.183594 14.921875 176.03125 14.921875 C 175.71875 14.921875 175.464844 14.824219 175.035156 14.492188 C 174.546875 14.160156 174.195312 14.003906 173.882812 14.003906 C 173.453125 14.003906 173.238281 14.179688 173.238281 14.550781 C 173.238281 15.117188 173.941406 15.488281 175.074219 15.488281 C 176.324219 15.488281 177.398438 15.078125 178.140625 14.316406 C 178.84375 13.652344 179.15625 12.792969 179.15625 11.660156 C 179.15625 10.585938 178.863281 9.902344 178.121094 9.140625 C 177.457031 8.496094 176.617188 8.144531 174.839844 7.832031 Z M 175.464844 6.5625 "/>
<path style=" stroke:none;fill-rule:nonzero;fill:rgb(0%,0%,0%);fill-opacity:1;" d="M 187.332031 13.222656 L 187.136719 13.144531 C 186.589844 14.003906 186.394531 14.140625 185.730469 14.140625 L 182.15625 14.140625 L 184.65625 11.503906 C 186.003906 10.117188 186.570312 8.984375 186.570312 7.8125 C 186.570312 6.328125 185.359375 5.175781 183.816406 5.175781 C 182.996094 5.175781 182.214844 5.507812 181.667969 6.09375 C 181.179688 6.601562 180.964844 7.089844 180.710938 8.144531 L 181.023438 8.222656 C 181.609375 6.757812 182.15625 6.269531 183.191406 6.269531 C 184.441406 6.269531 185.300781 7.128906 185.300781 8.378906 C 185.300781 9.550781 184.597656 10.9375 183.347656 12.265625 L 180.691406 15.097656 L 180.691406 15.273438 L 186.511719 15.273438 Z M 187.332031 13.222656 "/>
<path style=" stroke:none;fill-rule:nonzero;fill:rgb(0%,0%,0%);fill-opacity:1;" d="M 192.066406 5.175781 L 189.371094 6.523438 L 189.371094 6.738281 C 189.546875 6.660156 189.722656 6.601562 189.78125 6.582031 C 190.035156 6.464844 190.289062 6.40625 190.445312 6.40625 C 190.757812 6.40625 190.894531 6.640625 190.894531 7.109375 L 190.894531 13.886719 C 190.894531 14.375 190.777344 14.726562 190.542969 14.863281 C 190.308594 14.980469 190.09375 15.039062 189.46875 15.058594 L 189.46875 15.273438 L 193.589844 15.273438 L 193.589844 15.058594 C 192.417969 15.039062 192.183594 14.882812 192.183594 14.160156 L 192.183594 5.195312 Z M 192.066406 5.175781 "/>
<path style=" stroke:none;fill-rule:nonzero;fill:rgb(0%,0%,0%);fill-opacity:1;" d="M 199.519531 9.726562 C 201.003906 8.945312 201.511719 8.320312 201.511719 7.285156 C 201.511719 6.074219 200.4375 5.175781 198.953125 5.175781 C 197.3125 5.175781 196.101562 6.171875 196.101562 7.539062 C 196.101562 8.496094 196.394531 8.945312 197.957031 10.3125 C 196.355469 11.542969 196.023438 11.992188 196.023438 13.007812 C 196.023438 14.472656 197.195312 15.488281 198.894531 15.488281 C 200.691406 15.488281 201.824219 14.492188 201.824219 12.949219 C 201.824219 11.816406 201.316406 11.074219 199.519531 9.726562 Z M 199.246094 11.269531 C 200.339844 12.050781 200.691406 12.578125 200.691406 13.417969 C 200.691406 14.394531 200.027344 15.058594 199.050781 15.058594 C 197.917969 15.058594 197.15625 14.199219 197.15625 12.890625 C 197.15625 11.933594 197.488281 11.308594 198.347656 10.605469 Z M 199.089844 9.453125 C 197.761719 8.59375 197.214844 7.910156 197.214844 7.070312 C 197.214844 6.210938 197.878906 5.585938 198.835938 5.585938 C 199.851562 5.585938 200.496094 6.25 200.496094 7.285156 C 200.496094 8.125 200.066406 8.808594 199.226562 9.375 C 199.148438 9.414062 199.148438 9.414062 199.089844 9.453125 Z M 199.089844 9.453125 "/>
<path style=" stroke:none;fill-rule:nonzero;fill:rgb(0%,0%,0%);fill-opacity:1;" d="M 208.265625 13.789062 C 207.816406 13.789062 207.445312 14.160156 207.445312 14.628906 C 207.445312 15.058594 207.816406 15.429688 208.246094 15.429688 C 208.714844 15.429688 209.085938 15.058594 209.085938 14.628906 C 209.085938 14.160156 208.714844 13.789062 208.265625 13.789062 Z M 208.265625 13.789062 "/>
<path style=" stroke:none;fill-rule:nonzero;fill:rgb(0%,0%,0%);fill-opacity:1;" d="M 214.464844 9.726562 C 215.949219 8.945312 216.457031 8.320312 216.457031 7.285156 C 216.457031 6.074219 215.382812 5.175781 213.898438 5.175781 C 212.257812 5.175781 211.046875 6.171875 211.046875 7.539062 C 211.046875 8.496094 211.339844 8.945312 212.902344 10.3125 C 211.300781 11.542969 210.96875 11.992188 210.96875 13.007812 C 210.96875 14.472656 212.140625 15.488281 213.839844 15.488281 C 215.636719 15.488281 216.769531 14.492188 216.769531 12.949219 C 216.769531 11.816406 216.261719 11.074219 214.464844 9.726562 Z M 214.191406 11.269531 C 215.285156 12.050781 215.636719 12.578125 215.636719 13.417969 C 215.636719 14.394531 214.972656 15.058594 213.996094 15.058594 C 212.863281 15.058594 212.101562 14.199219 212.101562 12.890625 C 212.101562 11.933594 212.433594 11.308594 213.292969 10.605469 Z M 214.035156 9.453125 C 212.707031 8.59375 212.160156 7.910156 212.160156 7.070312 C 212.160156 6.210938 212.824219 5.585938 213.78125 5.585938 C 214.796875 5.585938 215.441406 6.25 215.441406 7.285156 C 215.441406 8.125 215.011719 8.808594 214.171875 9.375 C 214.09375 9.414062 214.09375 9.414062 214.035156 9.453125 Z M 214.035156 9.453125 "/>
<path style=" stroke:none;fill-rule:nonzero;fill:rgb(0%,0%,0%);fill-opacity:1;" d="M 221.390625 5.175781 C 220.570312 5.175781 219.945312 5.429688 219.398438 5.957031 C 218.519531 6.777344 217.953125 8.496094 217.953125 10.253906 C 217.953125 11.875 218.460938 13.632812 219.164062 14.472656 C 219.710938 15.117188 220.472656 15.488281 221.332031 15.488281 C 222.09375 15.488281 222.738281 15.234375 223.285156 14.707031 C 224.144531 13.886719 224.710938 12.148438 224.710938 10.351562 C 224.710938 7.285156 223.363281 5.175781 221.390625 5.175781 Z M 221.351562 5.566406 C 222.601562 5.566406 223.285156 7.246094 223.285156 10.371094 C 223.285156 13.496094 222.621094 15.097656 221.332031 15.097656 C 220.042969 15.097656 219.398438 13.496094 219.398438 10.390625 C 219.398438 7.226562 220.0625 5.566406 221.351562 5.566406 Z M 221.351562 5.566406 "/>
<path style=" stroke:none;fill-rule:nonzero;fill:rgb(0%,0%,0%);fill-opacity:1;" d="M 230.683594 13.789062 C 230.234375 13.789062 229.863281 14.160156 229.863281 14.628906 C 229.863281 15.058594 230.234375 15.429688 230.664062 15.429688 C 231.132812 15.429688 231.503906 15.058594 231.503906 14.628906 C 231.503906 14.160156 231.132812 13.789062 230.683594 13.789062 Z M 230.683594 13.789062 "/>
<path style=" stroke:none;fill-rule:nonzero;fill:rgb(0%,0%,0%);fill-opacity:1;" d="M 239.632812 13.222656 L 239.4375 13.144531 C 238.890625 14.003906 238.695312 14.140625 238.03125 14.140625 L 234.457031 14.140625 L 236.957031 11.503906 C 238.304688 10.117188 238.871094 8.984375 238.871094 7.8125 C 238.871094 6.328125 237.660156 5.175781 236.117188 5.175781 C 235.296875 5.175781 234.515625 5.507812 233.96875 6.09375 C 233.480469 6.601562 233.265625 7.089844 233.011719 8.144531 L 233.324219 8.222656 C 233.910156 6.757812 234.457031 6.269531 235.492188 6.269531 C 236.742188 6.269531 237.601562 7.128906 237.601562 8.378906 C 237.601562 9.550781 236.898438 10.9375 235.648438 12.265625 L 232.992188 15.097656 L 232.992188 15.273438 L 238.8125 15.273438 Z M 239.632812 13.222656 "/>
<path style=" stroke:none;fill-rule:nonzero;fill:rgb(0%,0%,0%);fill-opacity:1;" d="M 246.675781 5.058594 C 244.976562 5.195312 244.117188 5.488281 243.023438 6.25 C 241.402344 7.402344 240.523438 9.101562 240.523438 11.113281 C 240.523438 12.402344 240.933594 13.710938 241.578125 14.472656 C 242.144531 15.117188 242.945312 15.488281 243.863281 15.488281 C 245.71875 15.488281 247.007812 14.0625 247.007812 11.992188 C 247.007812 10.097656 245.914062 8.886719 244.195312 8.886719 C 243.550781 8.886719 243.21875 8.984375 242.28125 9.550781 C 242.691406 7.285156 244.371094 5.683594 246.714844 5.292969 Z M 243.628906 9.570312 C 244.917969 9.570312 245.660156 10.644531 245.660156 12.5 C 245.660156 14.160156 245.074219 15.058594 244.039062 15.058594 C 242.710938 15.058594 241.910156 13.652344 241.910156 11.347656 C 241.910156 10.585938 242.027344 10.15625 242.339844 9.941406 C 242.652344 9.707031 243.101562 9.570312 243.628906 9.570312 Z M 243.628906 9.570312 "/>
<path style=" stroke:none;fill-rule:nonzero;fill:rgb(0%,0%,0%);fill-opacity:1;" d="M 254.539062 11.816406 L 253.015625 11.816406 L 253.015625 5.175781 L 252.351562 5.175781 L 247.664062 11.816406 L 247.664062 12.773438 L 251.863281 12.773438 L 251.863281 15.273438 L 253.015625 15.273438 L 253.015625 12.773438 L 254.539062 12.773438 Z M 251.84375 11.816406 L 248.269531 11.816406 L 251.84375 6.699219 Z M 251.84375 11.816406 "/>
<path style=" stroke:none;fill-rule:nonzero;fill:rgb(0%,0%,0%);fill-opacity:1;" d="M 257.246094 10.351562 C 258.125 10.351562 258.476562 10.371094 258.828125 10.507812 C 259.765625 10.839844 260.332031 11.679688 260.332031 12.714844 C 260.332031 13.964844 259.492188 14.941406 258.378906 14.941406 C 257.988281 14.941406 257.675781 14.84375 257.128906 14.472656 C 256.679688 14.21875 256.425781 14.101562 256.171875 14.101562 C 255.820312 14.101562 255.605469 14.316406 255.605469 14.628906 C 255.605469 15.15625 256.25 15.488281 257.285156 15.488281 C 258.4375 15.488281 259.628906 15.097656 260.332031 14.472656 C 261.035156 13.867188 261.40625 13.007812 261.40625 11.992188 C 261.40625 11.230469 261.171875 10.527344 260.742188 10.078125 C 260.449219 9.746094 260.15625 9.570312 259.511719 9.277344 C 260.527344 8.574219 260.898438 8.027344 260.898438 7.226562 C 260.898438 6.015625 259.960938 5.175781 258.574219 5.175781 C 257.832031 5.175781 257.167969 5.429688 256.640625 5.898438 C 256.191406 6.308594 255.957031 6.699219 255.625 7.597656 L 255.859375 7.65625 C 256.464844 6.5625 257.148438 6.074219 258.085938 6.074219 C 259.0625 6.074219 259.726562 6.71875 259.726562 7.675781 C 259.726562 8.203125 259.511719 8.75 259.121094 9.121094 C 258.671875 9.570312 258.261719 9.785156 257.246094 10.15625 Z M 257.246094 10.351562 "/>
<path style=" stroke:none;fill-rule:nonzero;fill:rgb(0%,0%,0%);fill-opacity:1;" d="M 270.523438 5.175781 L 267.828125 6.523438 L 267.828125 6.738281 C 268.003906 6.660156 268.179688 6.601562 268.238281 6.582031 C 268.492188 6.464844 268.746094 6.40625 268.902344 6.40625 C 269.214844 6.40625 269.351562 6.640625 269.351562 7.109375 L 269.351562 13.886719 C 269.351562 14.375 269.234375 14.726562 269 14.863281 C 268.765625 14.980469 268.550781 15.039062 267.925781 15.058594 L 267.925781 15.273438 L 272.046875 15.273438 L 272.046875 15.058594 C 270.875 15.039062 270.640625 14.882812 270.640625 14.160156 L 270.640625 5.195312 Z M 270.523438 5.175781 "/>
<path style=" stroke:none;fill-rule:nonzero;fill:rgb(0%,0%,0%);fill-opacity:1;" d="M 275.515625 13.789062 C 275.066406 13.789062 274.695312 14.160156 274.695312 14.628906 C 274.695312 15.058594 275.066406 15.429688 275.496094 15.429688 C 275.964844 15.429688 276.335938 15.058594 276.335938 14.628906 C 276.335938 14.160156 275.964844 13.789062 275.515625 13.789062 Z M 275.515625 13.789062 "/>
<path style=" stroke:none;fill-rule:nonzero;fill:rgb(0%,0%,0%);fill-opacity:1;" d="M 285.796875 5.175781 C 284.976562 5.175781 284.351562 5.429688 283.804688 5.957031 C 282.925781 6.777344 282.359375 8.496094 282.359375 10.253906 C 282.359375 11.875 282.867188 13.632812 283.570312 14.472656 C 284.117188 15.117188 284.878906 15.488281 285.738281 15.488281 C 286.5 15.488281 287.144531 15.234375 287.691406 14.707031 C 288.550781 13.886719 289.117188 12.148438 289.117188 10.351562 C 289.117188 7.285156 287.769531 5.175781 285.796875 5.175781 Z M 285.757812 5.566406 C 287.007812 5.566406 287.691406 7.246094 287.691406 10.371094 C 287.691406 13.496094 287.027344 15.097656 285.738281 15.097656 C 284.449219 15.097656 283.804688 13.496094 283.804688 10.390625 C 283.804688 7.226562 284.46875 5.566406 285.757812 5.566406 Z M 285.757812 5.566406 "/>
<path style=" stroke:none;fill-rule:nonzero;fill:rgb(0%,0%,0%);fill-opacity:1;" d="M 297.574219 5.175781 L 294.878906 6.523438 L 294.878906 6.738281 C 295.054688 6.660156 295.230469 6.601562 295.289062 6.582031 C 295.542969 6.464844 295.796875 6.40625 295.953125 6.40625 C 296.265625 6.40625 296.402344 6.640625 296.402344 7.109375 L 296.402344 13.886719 C 296.402344 14.375 296.285156 14.726562 296.050781 14.863281 C 295.816406 14.980469 295.601562 15.039062 294.976562 15.058594 L 294.976562 15.273438 L 299.097656 15.273438 L 299.097656 15.058594 C 297.925781 15.039062 297.691406 14.882812 297.691406 14.160156 L 297.691406 5.195312 Z M 297.574219 5.175781 "/>
<path style=" stroke:none;fill-rule:nonzero;fill:rgb(0%,0%,0%);fill-opacity:1;" d="M 302.5625 13.789062 C 302.113281 13.789062 301.742188 14.160156 301.742188 14.628906 C 301.742188 15.058594 302.113281 15.429688 302.542969 15.429688 C 303.011719 15.429688 303.382812 15.058594 303.382812 14.628906 C 303.382812 14.160156 303.011719 13.789062 302.5625 13.789062 Z M 302.5625 13.789062 "/>
<path style=" stroke:none;fill-rule:nonzero;fill:rgb(0%,0%,0%);fill-opacity:1;" d="M 311.515625 13.222656 L 311.320312 13.144531 C 310.773438 14.003906 310.578125 14.140625 309.914062 14.140625 L 306.339844 14.140625 L 308.839844 11.503906 C 310.1875 10.117188 310.753906 8.984375 310.753906 7.8125 C 310.753906 6.328125 309.542969 5.175781 308 5.175781 C 307.179688 5.175781 306.398438 5.507812 305.851562 6.09375 C 305.363281 6.601562 305.148438 7.089844 304.894531 8.144531 L 305.207031 8.222656 C 305.792969 6.757812 306.339844 6.269531 307.375 6.269531 C 308.625 6.269531 309.484375 7.128906 309.484375 8.378906 C 309.484375 9.550781 308.78125 10.9375 307.53125 12.265625 L 304.875 15.097656 L 304.875 15.273438 L 310.695312 15.273438 Z M 311.515625 13.222656 "/>
<path style=" stroke:none;fill-rule:nonzero;fill:rgb(0%,0%,0%);fill-opacity:1;" d="M 316.21875 11.425781 L 316.21875 12.382812 L 319.890625 12.382812 L 319.890625 11.425781 Z M 316.21875 11.425781 "/>
<path style=" stroke:none;fill-rule:nonzero;fill:rgb(0%,0%,0%);fill-opacity:1;" d="M 322.484375 13.789062 C 322.035156 13.789062 321.664062 14.160156 321.664062 14.628906 C 321.664062 15.058594 322.035156 15.429688 322.464844 15.429688 C 322.933594 15.429688 323.304688 15.058594 323.304688 14.628906 C 323.304688 14.160156 322.933594 13.789062 322.484375 13.789062 Z M 322.484375 13.789062 "/>
<path style=" stroke:none;fill-rule:nonzero;fill:rgb(0%,0%,0%);fill-opacity:1;" d="M 328.699219 5.175781 L 326.003906 6.523438 L 326.003906 6.738281 C 326.179688 6.660156 326.355469 6.601562 326.414062 6.582031 C 326.667969 6.464844 326.921875 6.40625 327.078125 6.40625 C 327.390625 6.40625 327.527344 6.640625 327.527344 7.109375 L 327.527344 13.886719 C 327.527344 14.375 327.410156 14.726562 327.175781 14.863281 C 326.941406 14.980469 326.726562 15.039062 326.101562 15.058594 L 326.101562 15.273438 L 330.222656 15.273438 L 330.222656 15.058594 C 329.050781 15.039062 328.816406 14.882812 328.816406 14.160156 L 328.816406 5.195312 Z M 328.699219 5.175781 "/>
<path style=" stroke:none;fill-rule:nonzero;fill:rgb(0%,0%,0%);fill-opacity:1;" d="M 338.515625 5.390625 L 332.988281 5.390625 L 332.109375 7.578125 L 332.363281 7.695312 C 333.007812 6.679688 333.28125 6.484375 334.101562 6.484375 L 337.34375 6.484375 L 334.394531 15.390625 L 335.351562 15.390625 L 338.515625 5.625 Z M 338.515625 5.390625 "/>
<path style=" stroke:none;fill-rule:nonzero;fill:rgb(0%,0%,0%);fill-opacity:1;" d="M 345.988281 5.390625 L 340.460938 5.390625 L 339.582031 7.578125 L 339.835938 7.695312 C 340.480469 6.679688 340.753906 6.484375 341.574219 6.484375 L 344.816406 6.484375 L 341.867188 15.390625 L 342.824219 15.390625 L 345.988281 5.625 Z M 345.988281 5.390625 "/>
<path style=" stroke:none;fill-rule:nonzero;fill:rgb(0%,0%,0%);fill-opacity:1;" d="M 351.117188 5.175781 L 348.421875 6.523438 L 348.421875 6.738281 C 348.597656 6.660156 348.773438 6.601562 348.832031 6.582031 C 349.085938 6.464844 349.339844 6.40625 349.496094 6.40625 C 349.808594 6.40625 349.945312 6.640625 349.945312 7.109375 L 349.945312 13.886719 C 349.945312 14.375 349.828125 14.726562 349.59375 14.863281 C 349.359375 14.980469 349.144531 15.039062 348.519531 15.058594 L 348.519531 15.273438 L 352.640625 15.273438 L 352.640625 15.058594 C 351.46875 15.039062 351.234375 14.882812 351.234375 14.160156 L 351.234375 5.195312 Z M 351.117188 5.175781 "/>
<path style=" stroke:none;fill-rule:nonzero;fill:rgb(0%,0%,0%);fill-opacity:1;" d="M 362.324219 5.175781 L 359.628906 6.523438 L 359.628906 6.738281 C 359.804688 6.660156 359.980469 6.601562 360.039062 6.582031 C 360.292969 6.464844 360.546875 6.40625 360.703125 6.40625 C 361.015625 6.40625 361.152344 6.640625 361.152344 7.109375 L 361.152344 13.886719 C 361.152344 14.375 361.035156 14.726562 360.800781 14.863281 C 360.566406 14.980469 360.351562 15.039062 359.726562 15.058594 L 359.726562 15.273438 L 363.847656 15.273438 L 363.847656 15.058594 C 362.675781 15.039062 362.441406 14.882812 362.441406 14.160156 L 362.441406 5.195312 Z M 362.324219 5.175781 "/>
<path style=" stroke:none;fill-rule:nonzero;fill:rgb(0%,0%,0%);fill-opacity:1;" d="M 367.316406 13.789062 C 366.867188 13.789062 366.496094 14.160156 366.496094 14.628906 C 366.496094 15.058594 366.867188 15.429688 367.296875 15.429688 C 367.765625 15.429688 368.136719 15.058594 368.136719 14.628906 C 368.136719 14.160156 367.765625 13.789062 367.316406 13.789062 Z M 367.316406 13.789062 "/>
<path style=" stroke:none;fill-rule:nonzero;fill:rgb(0%,0%,0%);fill-opacity:1;" d="M 376.226562 11.816406 L 374.703125 11.816406 L 374.703125 5.175781 L 374.039062 5.175781 L 369.351562 11.816406 L 369.351562 12.773438 L 373.550781 12.773438 L 373.550781 15.273438 L 374.703125 15.273438 L 374.703125 12.773438 L 376.226562 12.773438 Z M 373.53125 11.816406 L 369.957031 11.816406 L 373.53125 6.699219 Z M 373.53125 11.816406 "/>
<path style=" stroke:none;fill-rule:nonzero;fill:rgb(0%,0%,0%);fill-opacity:1;" d="M 380.972656 11.425781 L 380.972656 12.382812 L 384.644531 12.382812 L 384.644531 11.425781 Z M 380.972656 11.425781 "/>
<path style=" stroke:none;fill-rule:nonzero;fill:rgb(0%,0%,0%);fill-opacity:1;" d="M 387.238281 13.789062 C 386.789062 13.789062 386.417969 14.160156 386.417969 14.628906 C 386.417969 15.058594 386.789062 15.429688 387.21875 15.429688 C 387.6875 15.429688 388.058594 15.058594 388.058594 14.628906 C 388.058594 14.160156 387.6875 13.789062 387.238281 13.789062 Z M 387.238281 13.789062 "/>
<path style=" stroke:none;fill-rule:nonzero;fill:rgb(0%,0%,0%);fill-opacity:1;" d="M 396.1875 13.222656 L 395.992188 13.144531 C 395.445312 14.003906 395.25 14.140625 394.585938 14.140625 L 391.011719 14.140625 L 393.511719 11.503906 C 394.859375 10.117188 395.425781 8.984375 395.425781 7.8125 C 395.425781 6.328125 394.214844 5.175781 392.671875 5.175781 C 391.851562 5.175781 391.070312 5.507812 390.523438 6.09375 C 390.035156 6.601562 389.820312 7.089844 389.566406 8.144531 L 389.878906 8.222656 C 390.464844 6.757812 391.011719 6.269531 392.046875 6.269531 C 393.296875 6.269531 394.15625 7.128906 394.15625 8.378906 C 394.15625 9.550781 393.453125 10.9375 392.203125 12.265625 L 389.546875 15.097656 L 389.546875 15.273438 L 395.367188 15.273438 Z M 396.1875 13.222656 "/>
<path style=" stroke:none;fill-rule:nonzero;fill:rgb(0%,0%,0%);fill-opacity:1;" d="M 398.855469 10.351562 C 399.734375 10.351562 400.085938 10.371094 400.4375 10.507812 C 401.375 10.839844 401.941406 11.679688 401.941406 12.714844 C 401.941406 13.964844 401.101562 14.941406 399.988281 14.941406 C 399.597656 14.941406 399.285156 14.84375 398.738281 14.472656 C 398.289062 14.21875 398.035156 14.101562 397.78125 14.101562 C 397.429688 14.101562 397.214844 14.316406 397.214844 14.628906 C 397.214844 15.15625 397.859375 15.488281 398.894531 15.488281 C 400.046875 15.488281 401.238281 15.097656 401.941406 14.472656 C 402.644531 13.867188 403.015625 13.007812 403.015625 11.992188 C 403.015625 11.230469 402.78125 10.527344 402.351562 10.078125 C 402.058594 9.746094 401.765625 9.570312 401.121094 9.277344 C 402.136719 8.574219 402.507812 8.027344 402.507812 7.226562 C 402.507812 6.015625 401.570312 5.175781 400.183594 5.175781 C 399.441406 5.175781 398.777344 5.429688 398.25 5.898438 C 397.800781 6.308594 397.566406 6.699219 397.234375 7.597656 L 397.46875 7.65625 C 398.074219 6.5625 398.757812 6.074219 399.695312 6.074219 C 400.671875 6.074219 401.335938 6.71875 401.335938 7.675781 C 401.335938 8.203125 401.121094 8.75 400.730469 9.121094 C 400.28125 9.570312 399.871094 9.785156 398.855469 10.15625 Z M 398.855469 10.351562 "/>
<path style=" stroke:none;fill-rule:nonzero;fill:rgb(0%,0%,0%);fill-opacity:1;" d="M 411.09375 11.816406 L 409.570312 11.816406 L 409.570312 5.175781 L 408.90625 5.175781 L 404.21875 11.816406 L 404.21875 12.773438 L 408.417969 12.773438 L 408.417969 15.273438 L 409.570312 15.273438 L 409.570312 12.773438 L 411.09375 12.773438 Z M 408.398438 11.816406 L 404.824219 11.816406 L 408.398438 6.699219 Z M 408.398438 11.816406 "/>
<path style=" stroke:none;fill-rule:nonzero;fill:rgb(0%,0%,0%);fill-opacity:1;" d="M 414.210938 6.5625 L 417.140625 6.5625 C 417.394531 6.5625 417.453125 6.523438 417.492188 6.425781 L 418.058594 5.097656 L 417.921875 5 C 417.707031 5.3125 417.550781 5.390625 417.238281 5.390625 L 414.113281 5.390625 L 412.492188 8.925781 C 412.472656 8.945312 412.472656 8.964844 412.472656 9.003906 C 412.472656 9.082031 412.53125 9.121094 412.648438 9.121094 C 413.136719 9.121094 413.722656 9.21875 414.347656 9.414062 C 416.066406 9.960938 416.847656 10.898438 416.847656 12.382812 C 416.847656 13.808594 415.929688 14.921875 414.777344 14.921875 C 414.464844 14.921875 414.210938 14.824219 413.78125 14.492188 C 413.292969 14.160156 412.941406 14.003906 412.628906 14.003906 C 412.199219 14.003906 411.984375 14.179688 411.984375 14.550781 C 411.984375 15.117188 412.6875 15.488281 413.820312 15.488281 C 415.070312 15.488281 416.144531 15.078125 416.886719 14.316406 C 417.589844 13.652344 417.902344 12.792969 417.902344 11.660156 C 417.902344 10.585938 417.609375 9.902344 416.867188 9.140625 C 416.203125 8.496094 415.363281 8.144531 413.585938 7.832031 Z M 414.210938 6.5625 "/>
<path style=" stroke:none;fill-rule:nonzero;fill:rgb(0%,0%,0%);fill-opacity:1;" d="M 427.078125 5.175781 L 424.382812 6.523438 L 424.382812 6.738281 C 424.558594 6.660156 424.734375 6.601562 424.792969 6.582031 C 425.046875 6.464844 425.300781 6.40625 425.457031 6.40625 C 425.769531 6.40625 425.90625 6.640625 425.90625 7.109375 L 425.90625 13.886719 C 425.90625 14.375 425.789062 14.726562 425.554688 14.863281 C 425.320312 14.980469 425.105469 15.039062 424.480469 15.058594 L 424.480469 15.273438 L 428.601562 15.273438 L 428.601562 15.058594 C 427.429688 15.039062 427.195312 14.882812 427.195312 14.160156 L 427.195312 5.195312 Z M 427.078125 5.175781 "/>
<path style=" stroke:none;fill-rule:nonzero;fill:rgb(0%,0%,0%);fill-opacity:1;" d="M 432.070312 13.789062 C 431.621094 13.789062 431.25 14.160156 431.25 14.628906 C 431.25 15.058594 431.621094 15.429688 432.050781 15.429688 C 432.519531 15.429688 432.890625 15.058594 432.890625 14.628906 C 432.890625 14.160156 432.519531 13.789062 432.070312 13.789062 Z M 432.070312 13.789062 "/>
<path style=" stroke:none;fill-rule:nonzero;fill:rgb(0%,0%,0%);fill-opacity:1;" d="M 440.589844 5.058594 C 438.890625 5.195312 438.03125 5.488281 436.9375 6.25 C 435.316406 7.402344 434.4375 9.101562 434.4375 11.113281 C 434.4375 12.402344 434.847656 13.710938 435.492188 14.472656 C 436.058594 15.117188 436.859375 15.488281 437.777344 15.488281 C 439.632812 15.488281 440.921875 14.0625 440.921875 11.992188 C 440.921875 10.097656 439.828125 8.886719 438.109375 8.886719 C 437.464844 8.886719 437.132812 8.984375 436.195312 9.550781 C 436.605469 7.285156 438.285156 5.683594 440.628906 5.292969 Z M 437.542969 9.570312 C 438.832031 9.570312 439.574219 10.644531 439.574219 12.5 C 439.574219 14.160156 438.988281 15.058594 437.953125 15.058594 C 436.625 15.058594 435.824219 13.652344 435.824219 11.347656 C 435.824219 10.585938 435.941406 10.15625 436.253906 9.941406 C 436.566406 9.707031 437.015625 9.570312 437.542969 9.570312 Z M 437.542969 9.570312 "/>
<path style=" stroke:none;fill-rule:nonzero;fill:rgb(0%,0%,0%);fill-opacity:1;" d="M 445.722656 11.425781 L 445.722656 12.382812 L 449.394531 12.382812 L 449.394531 11.425781 Z M 445.722656 11.425781 "/>
<path style=" stroke:none;fill-rule:nonzero;fill:rgb(0%,0%,0%);fill-opacity:1;" d="M 451.988281 13.789062 C 451.539062 13.789062 451.167969 14.160156 451.167969 14.628906 C 451.167969 15.058594 451.539062 15.429688 451.96875 15.429688 C 452.4375 15.429688 452.808594 15.058594 452.808594 14.628906 C 452.808594 14.160156 452.4375 13.789062 451.988281 13.789062 Z M 451.988281 13.789062 "/>
<path style=" stroke:none;fill-rule:nonzero;fill:rgb(0%,0%,0%);fill-opacity:1;" d="M 458.207031 5.175781 L 455.511719 6.523438 L 455.511719 6.738281 C 455.6875 6.660156 455.863281 6.601562 455.921875 6.582031 C 456.175781 6.464844 456.429688 6.40625 456.585938 6.40625 C 456.898438 6.40625 457.035156 6.640625 457.035156 7.109375 L 457.035156 13.886719 C 457.035156 14.375 456.917969 14.726562 456.683594 14.863281 C 456.449219 14.980469 456.234375 15.039062 455.609375 15.058594 L 455.609375 15.273438 L 459.730469 15.273438 L 459.730469 15.058594 C 458.558594 15.039062 458.324219 14.882812 458.324219 14.160156 L 458.324219 5.195312 Z M 458.207031 5.175781 "/>
<path style=" stroke:none;fill-rule:nonzero;fill:rgb(0%,0%,0%);fill-opacity:1;" d="M 462.199219 15.605469 C 463.878906 15.410156 464.699219 15.117188 465.714844 14.394531 C 467.257812 13.261719 468.175781 11.40625 468.175781 9.394531 C 468.175781 6.914062 466.808594 5.175781 464.875 5.175781 C 463.097656 5.175781 461.769531 6.679688 461.769531 8.691406 C 461.769531 10.527344 462.84375 11.738281 464.464844 11.738281 C 465.285156 11.738281 465.910156 11.484375 466.691406 10.878906 C 466.085938 13.320312 464.425781 14.921875 462.160156 15.3125 Z M 466.730469 9.960938 C 466.730469 10.273438 466.671875 10.410156 466.496094 10.527344 C 466.085938 10.898438 465.539062 11.09375 464.992188 11.09375 C 463.859375 11.09375 463.136719 9.960938 463.136719 8.183594 C 463.136719 7.34375 463.390625 6.445312 463.703125 6.054688 C 463.957031 5.761719 464.328125 5.585938 464.757812 5.585938 C 466.066406 5.585938 466.730469 6.875 466.730469 9.394531 Z M 466.730469 9.960938 "/>
<path style=" stroke:none;fill-rule:nonzero;fill:rgb(0%,0%,0%);fill-opacity:1;" d="M 475.882812 13.222656 L 475.6875 13.144531 C 475.140625 14.003906 474.945312 14.140625 474.28125 14.140625 L 470.707031 14.140625 L 473.207031 11.503906 C 474.554688 10.117188 475.121094 8.984375 475.121094 7.8125 C 475.121094 6.328125 473.910156 5.175781 472.367188 5.175781 C 471.546875 5.175781 470.765625 5.507812 470.21875 6.09375 C 469.730469 6.601562 469.515625 7.089844 469.261719 8.144531 L 469.574219 8.222656 C 470.160156 6.757812 470.707031 6.269531 471.742188 6.269531 C 472.992188 6.269531 473.851562 7.128906 473.851562 8.378906 C 473.851562 9.550781 473.148438 10.9375 471.898438 12.265625 L 469.242188 15.097656 L 469.242188 15.273438 L 475.0625 15.273438 Z M 475.882812 13.222656 "/>
<path style=" stroke:none;fill-rule:nonzero;fill:rgb(0%,0%,0%);fill-opacity:1;" d="M 480.054688 5.175781 C 479.234375 5.175781 478.609375 5.429688 478.0625 5.957031 C 477.183594 6.777344 476.617188 8.496094 476.617188 10.253906 C 476.617188 11.875 477.125 13.632812 477.828125 14.472656 C 478.375 15.117188 479.136719 15.488281 479.996094 15.488281 C 480.757812 15.488281 481.402344 15.234375 481.949219 14.707031 C 482.808594 13.886719 483.375 12.148438 483.375 10.351562 C 483.375 7.285156 482.027344 5.175781 480.054688 5.175781 Z M 480.015625 5.566406 C 481.265625 5.566406 481.949219 7.246094 481.949219 10.371094 C 481.949219 13.496094 481.285156 15.097656 479.996094 15.097656 C 478.707031 15.097656 478.0625 13.496094 478.0625 10.390625 C 478.0625 7.226562 478.726562 5.566406 480.015625 5.566406 Z M 480.015625 5.566406 "/>
<path style=" stroke:none;fill-rule:nonzero;fill:rgb(0%,0%,0%);fill-opacity:1;" d="M 491.828125 5.175781 L 489.132812 6.523438 L 489.132812 6.738281 C 489.308594 6.660156 489.484375 6.601562 489.542969 6.582031 C 489.796875 6.464844 490.050781 6.40625 490.207031 6.40625 C 490.519531 6.40625 490.65625 6.640625 490.65625 7.109375 L 490.65625 13.886719 C 490.65625 14.375 490.539062 14.726562 490.304688 14.863281 C 490.070312 14.980469 489.855469 15.039062 489.230469 15.058594 L 489.230469 15.273438 L 493.351562 15.273438 L 493.351562 15.058594 C 492.179688 15.039062 491.945312 14.882812 491.945312 14.160156 L 491.945312 5.195312 Z M 491.828125 5.175781 "/>
<path style=" stroke:none;fill-rule:nonzero;fill:rgb(0%,0%,0%);fill-opacity:1;" d="M 496.820312 13.789062 C 496.371094 13.789062 496 14.160156 496 14.628906 C 496 15.058594 496.371094 15.429688 496.800781 15.429688 C 497.269531 15.429688 497.640625 15.058594 497.640625 14.628906 C 497.640625 14.160156 497.269531 13.789062 496.820312 13.789062 Z M 496.820312 13.789062 "/>
<path style=" stroke:none;fill-rule:nonzero;fill:rgb(0%,0%,0%);fill-opacity:1;" d="M 503.019531 9.726562 C 504.503906 8.945312 505.011719 8.320312 505.011719 7.285156 C 505.011719 6.074219 503.9375 5.175781 502.453125 5.175781 C 500.8125 5.175781 499.601562 6.171875 499.601562 7.539062 C 499.601562 8.496094 499.894531 8.945312 501.457031 10.3125 C 499.855469 11.542969 499.523438 11.992188 499.523438 13.007812 C 499.523438 14.472656 500.695312 15.488281 502.394531 15.488281 C 504.191406 15.488281 505.324219 14.492188 505.324219 12.949219 C 505.324219 11.816406 504.816406 11.074219 503.019531 9.726562 Z M 502.746094 11.269531 C 503.839844 12.050781 504.191406 12.578125 504.191406 13.417969 C 504.191406 14.394531 503.527344 15.058594 502.550781 15.058594 C 501.417969 15.058594 500.65625 14.199219 500.65625 12.890625 C 500.65625 11.933594 500.988281 11.308594 501.847656 10.605469 Z M 502.589844 9.453125 C 501.261719 8.59375 500.714844 7.910156 500.714844 7.070312 C 500.714844 6.210938 501.378906 5.585938 502.335938 5.585938 C 503.351562 5.585938 503.996094 6.25 503.996094 7.285156 C 503.996094 8.125 503.566406 8.808594 502.726562 9.375 C 502.648438 9.414062 502.648438 9.414062 502.589844 9.453125 Z M 502.589844 9.453125 "/>
<path style=" stroke:none;fill-rule:nonzero;fill:rgb(0%,0%,0%);fill-opacity:1;" d="M 510.476562 11.425781 L 510.476562 12.382812 L 514.148438 12.382812 L 514.148438 11.425781 Z M 510.476562 11.425781 "/>
<path style=" stroke:none;fill-rule:nonzero;fill:rgb(0%,0%,0%);fill-opacity:1;" d="M 516.742188 13.789062 C 516.292969 13.789062 515.921875 14.160156 515.921875 14.628906 C 515.921875 15.058594 516.292969 15.429688 516.722656 15.429688 C 517.191406 15.429688 517.5625 15.058594 517.5625 14.628906 C 517.5625 14.160156 517.191406 13.789062 516.742188 13.789062 Z M 516.742188 13.789062 "/>
<path style=" stroke:none;fill-rule:nonzero;fill:rgb(0%,0%,0%);fill-opacity:1;" d="M 522.390625 5.175781 C 521.570312 5.175781 520.945312 5.429688 520.398438 5.957031 C 519.519531 6.777344 518.953125 8.496094 518.953125 10.253906 C 518.953125 11.875 519.460938 13.632812 520.164062 14.472656 C 520.710938 15.117188 521.472656 15.488281 522.332031 15.488281 C 523.09375 15.488281 523.738281 15.234375 524.285156 14.707031 C 525.144531 13.886719 525.710938 12.148438 525.710938 10.351562 C 525.710938 7.285156 524.363281 5.175781 522.390625 5.175781 Z M 522.351562 5.566406 C 523.601562 5.566406 524.285156 7.246094 524.285156 10.371094 C 524.285156 13.496094 523.621094 15.097656 522.332031 15.097656 C 521.042969 15.097656 520.398438 13.496094 520.398438 10.390625 C 520.398438 7.226562 521.0625 5.566406 522.351562 5.566406 Z M 522.351562 5.566406 "/>
<path style=" stroke:none;fill-rule:nonzero;fill:rgb(0%,0%,0%);fill-opacity:1;" d="M 526.953125 15.605469 C 528.632812 15.410156 529.453125 15.117188 530.46875 14.394531 C 532.011719 13.261719 532.929688 11.40625 532.929688 9.394531 C 532.929688 6.914062 531.5625 5.175781 529.628906 5.175781 C 527.851562 5.175781 526.523438 6.679688 526.523438 8.691406 C 526.523438 10.527344 527.597656 11.738281 529.21875 11.738281 C 530.039062 11.738281 530.664062 11.484375 531.445312 10.878906 C 530.839844 13.320312 529.179688 14.921875 526.914062 15.3125 Z M 531.484375 9.960938 C 531.484375 10.273438 531.425781 10.410156 531.25 10.527344 C 530.839844 10.898438 530.292969 11.09375 529.746094 11.09375 C 528.613281 11.09375 527.890625 9.960938 527.890625 8.183594 C 527.890625 7.34375 528.144531 6.445312 528.457031 6.054688 C 528.710938 5.761719 529.082031 5.585938 529.511719 5.585938 C 530.820312 5.585938 531.484375 6.875 531.484375 9.394531 Z M 531.484375 9.960938 "/>
<path style=" stroke:none;fill-rule:nonzero;fill:rgb(0%,0%,0%);fill-opacity:1;" d="M 540.246094 5.390625 L 534.71875 5.390625 L 533.839844 7.578125 L 534.09375 7.695312 C 534.738281 6.679688 535.011719 6.484375 535.832031 6.484375 L 539.074219 6.484375 L 536.125 15.390625 L 537.082031 15.390625 L 540.246094 5.625 Z M 540.246094 5.390625 "/>
<path style=" stroke:none;fill-rule:nonzero;fill:rgb(0%,0%,0%);fill-opacity:1;" d="M 545.375 5.175781 L 542.679688 6.523438 L 542.679688 6.738281 C 542.855469 6.660156 543.03125 6.601562 543.089844 6.582031 C 543.34375 6.464844 543.597656 6.40625 543.753906 6.40625 C 544.066406 6.40625 544.203125 6.640625 544.203125 7.109375 L 544.203125 13.886719 C 544.203125 14.375 544.085938 14.726562 543.851562 14.863281 C 543.617188 14.980469 543.402344 15.039062 542.777344 15.058594 L 542.777344 15.273438 L 546.898438 15.273438 L 546.898438 15.058594 C 545.726562 15.039062 545.492188 14.882812 545.492188 14.160156 L 545.492188 5.195312 Z M 545.375 5.175781 "/>
<path style=" stroke:none;fill-rule:nonzero;fill:rgb(0%,0%,0%);fill-opacity:1;" d="M 551.1875 6.5625 L 554.117188 6.5625 C 554.371094 6.5625 554.429688 6.523438 554.46875 6.425781 L 555.035156 5.097656 L 554.898438 5 C 554.683594 5.3125 554.527344 5.390625 554.214844 5.390625 L 551.089844 5.390625 L 549.46875 8.925781 C 549.449219 8.945312 549.449219 8.964844 549.449219 9.003906 C 549.449219 9.082031 549.507812 9.121094 549.625 9.121094 C 550.113281 9.121094 550.699219 9.21875 551.324219 9.414062 C 553.042969 9.960938 553.824219 10.898438 553.824219 12.382812 C 553.824219 13.808594 552.90625 14.921875 551.753906 14.921875 C 551.441406 14.921875 551.1875 14.824219 550.757812 14.492188 C 550.269531 14.160156 549.917969 14.003906 549.605469 14.003906 C 549.175781 14.003906 548.960938 14.179688 548.960938 14.550781 C 548.960938 15.117188 549.664062 15.488281 550.796875 15.488281 C 552.046875 15.488281 553.121094 15.078125 553.863281 14.316406 C 554.566406 13.652344 554.878906 12.792969 554.878906 11.660156 C 554.878906 10.585938 554.585938 9.902344 553.84375 9.140625 C 553.179688 8.496094 552.339844 8.144531 550.5625 7.832031 Z M 551.1875 6.5625 "/>
<path style=" stroke:none;fill-rule:nonzero;fill:rgb(0%,0%,0%);fill-opacity:1;" d="M 566.789062 13.222656 L 566.59375 13.144531 C 566.046875 14.003906 565.851562 14.140625 565.1875 14.140625 L 561.613281 14.140625 L 564.113281 11.503906 C 565.460938 10.117188 566.027344 8.984375 566.027344 7.8125 C 566.027344 6.328125 564.816406 5.175781 563.273438 5.175781 C 562.453125 5.175781 561.671875 5.507812 561.125 6.09375 C 560.636719 6.601562 560.421875 7.089844 560.167969 8.144531 L 560.480469 8.222656 C 561.066406 6.757812 561.613281 6.269531 562.648438 6.269531 C 563.898438 6.269531 564.757812 7.128906 564.757812 8.378906 C 564.757812 9.550781 564.054688 10.9375 562.804688 12.265625 L 560.148438 15.097656 L 560.148438 15.273438 L 565.96875 15.273438 Z M 566.789062 13.222656 "/>
<path style=" stroke:none;fill-rule:nonzero;fill:rgb(0%,0%,0%);fill-opacity:1;" d="M 569.046875 13.789062 C 568.597656 13.789062 568.226562 14.160156 568.226562 14.628906 C 568.226562 15.058594 568.597656 15.429688 569.027344 15.429688 C 569.496094 15.429688 569.867188 15.058594 569.867188 14.628906 C 569.867188 14.160156 569.496094 13.789062 569.046875 13.789062 Z M 569.046875 13.789062 "/>
<path style=" stroke:none;fill-rule:nonzero;fill:rgb(0%,0%,0%);fill-opacity:1;" d="M 579.328125 5.175781 C 578.507812 5.175781 577.882812 5.429688 577.335938 5.957031 C 576.457031 6.777344 575.890625 8.496094 575.890625 10.253906 C 575.890625 11.875 576.398438 13.632812 577.101562 14.472656 C 577.648438 15.117188 578.410156 15.488281 579.269531 15.488281 C 580.03125 15.488281 580.675781 15.234375 581.222656 14.707031 C 582.082031 13.886719 582.648438 12.148438 582.648438 10.351562 C 582.648438 7.285156 581.300781 5.175781 579.328125 5.175781 Z M 579.289062 5.566406 C 580.539062 5.566406 581.222656 7.246094 581.222656 10.371094 C 581.222656 13.496094 580.558594 15.097656 579.269531 15.097656 C 577.980469 15.097656 577.335938 13.496094 577.335938 10.390625 C 577.335938 7.226562 578 5.566406 579.289062 5.566406 Z M 579.289062 5.566406 "/>
<path style=" stroke:none;fill-rule:nonzero;fill:rgb(0%,0%,0%);fill-opacity:1;" d="M 593.835938 13.222656 L 593.640625 13.144531 C 593.09375 14.003906 592.898438 14.140625 592.234375 14.140625 L 588.660156 14.140625 L 591.160156 11.503906 C 592.507812 10.117188 593.074219 8.984375 593.074219 7.8125 C 593.074219 6.328125 591.863281 5.175781 590.320312 5.175781 C 589.5 5.175781 588.71875 5.507812 588.171875 6.09375 C 587.683594 6.601562 587.46875 7.089844 587.214844 8.144531 L 587.527344 8.222656 C 588.113281 6.757812 588.660156 6.269531 589.695312 6.269531 C 590.945312 6.269531 591.804688 7.128906 591.804688 8.378906 C 591.804688 9.550781 591.101562 10.9375 589.851562 12.265625 L 587.195312 15.097656 L 587.195312 15.273438 L 593.015625 15.273438 Z M 593.835938 13.222656 "/>
<path style=" stroke:none;fill-rule:nonzero;fill:rgb(0%,0%,0%);fill-opacity:1;" d="M 596.09375 13.789062 C 595.644531 13.789062 595.273438 14.160156 595.273438 14.628906 C 595.273438 15.058594 595.644531 15.429688 596.074219 15.429688 C 596.542969 15.429688 596.914062 15.058594 596.914062 14.628906 C 596.914062 14.160156 596.542969 13.789062 596.09375 13.789062 Z M 596.09375 13.789062 "/>
<path style=" stroke:none;fill-rule:nonzero;fill:rgb(0%,0%,0%);fill-opacity:1;" d="M 605.046875 13.222656 L 604.851562 13.144531 C 604.304688 14.003906 604.109375 14.140625 603.445312 14.140625 L 599.871094 14.140625 L 602.371094 11.503906 C 603.71875 10.117188 604.285156 8.984375 604.285156 7.8125 C 604.285156 6.328125 603.074219 5.175781 601.53125 5.175781 C 600.710938 5.175781 599.929688 5.507812 599.382812 6.09375 C 598.894531 6.601562 598.679688 7.089844 598.425781 8.144531 L 598.738281 8.222656 C 599.324219 6.757812 599.871094 6.269531 600.90625 6.269531 C 602.15625 6.269531 603.015625 7.128906 603.015625 8.378906 C 603.015625 9.550781 602.3125 10.9375 601.0625 12.265625 L 598.40625 15.097656 L 598.40625 15.273438 L 604.226562 15.273438 Z M 605.046875 13.222656 "/>
<path style=" stroke:none;fill-rule:nonzero;fill:rgb(0%,0%,0%);fill-opacity:1;" d="M 611.039062 13.789062 C 610.589844 13.789062 610.21875 14.160156 610.21875 14.628906 C 610.21875 15.058594 610.589844 15.429688 611.019531 15.429688 C 611.488281 15.429688 611.859375 15.058594 611.859375 14.628906 C 611.859375 14.160156 611.488281 13.789062 611.039062 13.789062 Z M 611.039062 13.789062 "/>
<path style=" stroke:none;fill-rule:nonzero;fill:rgb(0%,0%,0%);fill-opacity:1;" d="M 616.6875 5.175781 C 615.867188 5.175781 615.242188 5.429688 614.695312 5.957031 C 613.816406 6.777344 613.25 8.496094 613.25 10.253906 C 613.25 11.875 613.757812 13.632812 614.460938 14.472656 C 615.007812 15.117188 615.769531 15.488281 616.628906 15.488281 C 617.390625 15.488281 618.035156 15.234375 618.582031 14.707031 C 619.441406 13.886719 620.007812 12.148438 620.007812 10.351562 C 620.007812 7.285156 618.660156 5.175781 616.6875 5.175781 Z M 616.648438 5.566406 C 617.898438 5.566406 618.582031 7.246094 618.582031 10.371094 C 618.582031 13.496094 617.917969 15.097656 616.628906 15.097656 C 615.339844 15.097656 614.695312 13.496094 614.695312 10.390625 C 614.695312 7.226562 615.359375 5.566406 616.648438 5.566406 Z M 616.648438 5.566406 "/>
<path style=" stroke:none;fill-rule:nonzero;fill:rgb(0%,0%,0%);fill-opacity:1;" d="M 627.03125 5.058594 C 625.332031 5.195312 624.472656 5.488281 623.378906 6.25 C 621.757812 7.402344 620.878906 9.101562 620.878906 11.113281 C 620.878906 12.402344 621.289062 13.710938 621.933594 14.472656 C 622.5 15.117188 623.300781 15.488281 624.21875 15.488281 C 626.074219 15.488281 627.363281 14.0625 627.363281 11.992188 C 627.363281 10.097656 626.269531 8.886719 624.550781 8.886719 C 623.90625 8.886719 623.574219 8.984375 622.636719 9.550781 C 623.046875 7.285156 624.726562 5.683594 627.070312 5.292969 Z M 623.984375 9.570312 C 625.273438 9.570312 626.015625 10.644531 626.015625 12.5 C 626.015625 14.160156 625.429688 15.058594 624.394531 15.058594 C 623.066406 15.058594 622.265625 13.652344 622.265625 11.347656 C 622.265625 10.585938 622.382812 10.15625 622.695312 9.941406 C 623.007812 9.707031 623.457031 9.570312 623.984375 9.570312 Z M 623.984375 9.570312 "/>
<path style=" stroke:none;fill-rule:nonzero;fill:rgb(0%,0%,0%);fill-opacity:1;" d="M 630.539062 6.5625 L 633.46875 6.5625 C 633.722656 6.5625 633.78125 6.523438 633.820312 6.425781 L 634.386719 5.097656 L 634.25 5 C 634.035156 5.3125 633.878906 5.390625 633.566406 5.390625 L 630.441406 5.390625 L 628.820312 8.925781 C 628.800781 8.945312 628.800781 8.964844 628.800781 9.003906 C 628.800781 9.082031 628.859375 9.121094 628.976562 9.121094 C 629.464844 9.121094 630.050781 9.21875 630.675781 9.414062 C 632.394531 9.960938 633.175781 10.898438 633.175781 12.382812 C 633.175781 13.808594 632.257812 14.921875 631.105469 14.921875 C 630.792969 14.921875 630.539062 14.824219 630.109375 14.492188 C 629.621094 14.160156 629.269531 14.003906 628.957031 14.003906 C 628.527344 14.003906 628.3125 14.179688 628.3125 14.550781 C 628.3125 15.117188 629.015625 15.488281 630.148438 15.488281 C 631.398438 15.488281 632.472656 15.078125 633.214844 14.316406 C 633.917969 13.652344 634.230469 12.792969 634.230469 11.660156 C 634.230469 10.585938 633.9375 9.902344 633.195312 9.140625 C 632.53125 8.496094 631.691406 8.144531 629.914062 7.832031 Z M 630.539062 6.5625 "/>
<path style=" stroke:none;fill-rule:nonzero;fill:rgb(0%,0%,0%);fill-opacity:1;" d="M 639.671875 5.175781 L 636.976562 6.523438 L 636.976562 6.738281 C 637.152344 6.660156 637.328125 6.601562 637.386719 6.582031 C 637.640625 6.464844 637.894531 6.40625 638.050781 6.40625 C 638.363281 6.40625 638.5 6.640625 638.5 7.109375 L 638.5 13.886719 C 638.5 14.375 638.382812 14.726562 638.148438 14.863281 C 637.914062 14.980469 637.699219 15.039062 637.074219 15.058594 L 637.074219 15.273438 L 641.195312 15.273438 L 641.195312 15.058594 C 640.023438 15.039062 639.789062 14.882812 639.789062 14.160156 L 639.789062 5.195312 Z M 639.671875 5.175781 "/>
<path style=" stroke:none;fill-rule:nonzero;fill:rgb(0%,0%,0%);fill-opacity:1;" d="M 645.484375 6.5625 L 648.414062 6.5625 C 648.667969 6.5625 648.726562 6.523438 648.765625 6.425781 L 649.332031 5.097656 L 649.195312 5 C 648.980469 5.3125 648.824219 5.390625 648.511719 5.390625 L 645.386719 5.390625 L 643.765625 8.925781 C 643.746094 8.945312 643.746094 8.964844 643.746094 9.003906 C 643.746094 9.082031 643.804688 9.121094 643.921875 9.121094 C 644.410156 9.121094 644.996094 9.21875 645.621094 9.414062 C 647.339844 9.960938 648.121094 10.898438 648.121094 12.382812 C 648.121094 13.808594 647.203125 14.921875 646.050781 14.921875 C 645.738281 14.921875 645.484375 14.824219 645.054688 14.492188 C 644.566406 14.160156 644.214844 14.003906 643.902344 14.003906 C 643.472656 14.003906 643.257812 14.179688 643.257812 14.550781 C 643.257812 15.117188 643.960938 15.488281 645.09375 15.488281 C 646.34375 15.488281 647.417969 15.078125 648.160156 14.316406 C 648.863281 13.652344 649.175781 12.792969 649.175781 11.660156 C 649.175781 10.585938 648.882812 9.902344 648.140625 9.140625 C 647.476562 8.496094 646.636719 8.144531 644.859375 7.832031 Z M 645.484375 6.5625 "/>
<path style=" stroke:none;fill-rule:nonzero;fill:rgb(0%,0%,0%);fill-opacity:1;" d="M 661.085938 13.222656 L 660.890625 13.144531 C 660.34375 14.003906 660.148438 14.140625 659.484375 14.140625 L 655.910156 14.140625 L 658.410156 11.503906 C 659.757812 10.117188 660.324219 8.984375 660.324219 7.8125 C 660.324219 6.328125 659.113281 5.175781 657.570312 5.175781 C 656.75 5.175781 655.96875 5.507812 655.421875 6.09375 C 654.933594 6.601562 654.71875 7.089844 654.464844 8.144531 L 654.777344 8.222656 C 655.363281 6.757812 655.910156 6.269531 656.945312 6.269531 C 658.195312 6.269531 659.054688 7.128906 659.054688 8.378906 C 659.054688 9.550781 658.351562 10.9375 657.101562 12.265625 L 654.445312 15.097656 L 654.445312 15.273438 L 660.265625 15.273438 Z M 661.085938 13.222656 "/>
<path style=" stroke:none;fill-rule:nonzero;fill:rgb(0%,0%,0%);fill-opacity:1;" d="M 663.34375 13.789062 C 662.894531 13.789062 662.523438 14.160156 662.523438 14.628906 C 662.523438 15.058594 662.894531 15.429688 663.324219 15.429688 C 663.792969 15.429688 664.164062 15.058594 664.164062 14.628906 C 664.164062 14.160156 663.792969 13.789062 663.34375 13.789062 Z M 663.34375 13.789062 "/>
<path style=" stroke:none;fill-rule:nonzero;fill:rgb(0%,0%,0%);fill-opacity:1;" d="M 672.253906 11.816406 L 670.730469 11.816406 L 670.730469 5.175781 L 670.066406 5.175781 L 665.378906 11.816406 L 665.378906 12.773438 L 669.578125 12.773438 L 669.578125 15.273438 L 670.730469 15.273438 L 670.730469 12.773438 L 672.253906 12.773438 Z M 669.558594 11.816406 L 665.984375 11.816406 L 669.558594 6.699219 Z M 669.558594 11.816406 "/>
</g>
</svg>
