<?xml version="1.0" encoding="UTF-8"?>
<svg xmlns="http://www.w3.org/2000/svg" xmlns:xlink="http://www.w3.org/1999/xlink" width="679.25487pt" height="20.605469pt" viewBox="0 0 679.25487 20.605469" version="1.1">
<g id="surface661">
<path style=" stroke:none;fill-rule:nonzero;fill:rgb(0%,0%,0%);fill-opacity:1;" d="M 5 11.425781 L 5 12.382812 L 8.671875 12.382812 L 8.671875 11.425781 Z M 5 11.425781 "/>
<path style=" stroke:none;fill-rule:nonzero;fill:rgb(0%,0%,0%);fill-opacity:1;" d="M 13.746094 5.175781 L 11.050781 6.523438 L 11.050781 6.738281 C 11.226562 6.660156 11.402344 6.601562 11.460938 6.582031 C 11.714844 6.464844 11.96875 6.40625 12.125 6.40625 C 12.4375 6.40625 12.574219 6.640625 12.574219 7.109375 L 12.574219 13.886719 C 12.574219 14.375 12.457031 14.726562 12.222656 14.863281 C 11.988281 14.980469 11.773438 15.039062 11.148438 15.058594 L 11.148438 15.273438 L 15.269531 15.273438 L 15.269531 15.058594 C 14.097656 15.039062 13.863281 14.882812 13.863281 14.160156 L 13.863281 5.195312 Z M 13.746094 5.175781 "/>
<path style=" stroke:none;fill-rule:nonzero;fill:rgb(0%,0%,0%);fill-opacity:1;" d="M 20.652344 5.175781 C 19.832031 5.175781 19.207031 5.429688 18.660156 5.957031 C 17.78125 6.777344 17.214844 8.496094 17.214844 10.253906 C 17.214844 11.875 17.722656 13.632812 18.425781 14.472656 C 18.972656 15.117188 19.734375 15.488281 20.59375 15.488281 C 21.355469 15.488281 22 15.234375 22.546875 14.707031 C 23.40625 13.886719 23.972656 12.148438 23.972656 10.351562 C 23.972656 7.285156 22.625 5.175781 20.652344 5.175781 Z M 20.613281 5.566406 C 21.863281 5.566406 22.546875 7.246094 22.546875 10.371094 C 22.546875 13.496094 21.882812 15.097656 20.59375 15.097656 C 19.304688 15.097656 18.660156 13.496094 18.660156 10.390625 C 18.660156 7.226562 19.324219 5.566406 20.613281 5.566406 Z M 20.613281 5.566406 "/>
<path style=" stroke:none;fill-rule:nonzero;fill:rgb(0%,0%,0%);fill-opacity:1;" d="M 26.210938 13.789062 C 25.761719 13.789062 25.390625 14.160156 25.390625 14.628906 C 25.390625 15.058594 25.761719 15.429688 26.191406 15.429688 C 26.660156 15.429688 27.03125 15.058594 27.03125 14.628906 C 27.03125 14.160156 26.660156 13.789062 26.210938 13.789062 Z M 26.210938 13.789062 "/>
<path style=" stroke:none;fill-rule:nonzero;fill:rgb(0%,0%,0%);fill-opacity:1;" d="M 34.578125 13.789062 C 34.128906 13.789062 33.757812 14.160156 33.757812 14.628906 C 33.757812 15.058594 34.128906 15.429688 34.558594 15.429688 C 35.027344 15.429688 35.398438 15.058594 35.398438 14.628906 C 35.398438 14.160156 35.027344 13.789062 34.578125 13.789062 Z M 34.578125 13.789062 "/>
<path style=" stroke:none;fill-rule:nonzero;fill:rgb(0%,0%,0%);fill-opacity:1;" d="M 40.226562 5.175781 C 39.40625 5.175781 38.78125 5.429688 38.234375 5.957031 C 37.355469 6.777344 36.789062 8.496094 36.789062 10.253906 C 36.789062 11.875 37.296875 13.632812 38 14.472656 C 38.546875 15.117188 39.308594 15.488281 40.167969 15.488281 C 40.929688 15.488281 41.574219 15.234375 42.121094 14.707031 C 42.980469 13.886719 43.546875 12.148438 43.546875 10.351562 C 43.546875 7.285156 42.199219 5.175781 40.226562 5.175781 Z M 40.1875 5.566406 C 41.4375 5.566406 42.121094 7.246094 42.121094 10.371094 C 42.121094 13.496094 41.457031 15.097656 40.167969 15.097656 C 38.878906 15.097656 38.234375 13.496094 38.234375 10.390625 C 38.234375 7.226562 38.898438 5.566406 40.1875 5.566406 Z M 40.1875 5.566406 "/>
<path style=" stroke:none;fill-rule:nonzero;fill:rgb(0%,0%,0%);fill-opacity:1;" d="M 46.195312 10.351562 C 47.074219 10.351562 47.425781 10.371094 47.777344 10.507812 C 48.714844 10.839844 49.28125 11.679688 49.28125 12.714844 C 49.28125 13.964844 48.441406 14.941406 47.328125 14.941406 C 46.9375 14.941406 46.625 14.84375 46.078125 14.472656 C 45.628906 14.21875 45.375 14.101562 45.121094 14.101562 C 44.769531 14.101562 44.554688 14.316406 44.554688 14.628906 C 44.554688 15.15625 45.199219 15.488281 46.234375 15.488281 C 47.386719 15.488281 48.578125 15.097656 49.28125 14.472656 C 49.984375 13.867188 50.355469 13.007812 50.355469 11.992188 C 50.355469 11.230469 50.121094 10.527344 49.691406 10.078125 C 49.398438 9.746094 49.105469 9.570312 48.460938 9.277344 C 49.476562 8.574219 49.847656 8.027344 49.847656 7.226562 C 49.847656 6.015625 48.910156 5.175781 47.523438 5.175781 C 46.78125 5.175781 46.117188 5.429688 45.589844 5.898438 C 45.140625 6.308594 44.90625 6.699219 44.574219 7.597656 L 44.808594 7.65625 C 45.414062 6.5625 46.097656 6.074219 47.035156 6.074219 C 48.011719 6.074219 48.675781 6.71875 48.675781 7.675781 C 48.675781 8.203125 48.460938 8.75 48.070312 9.121094 C 47.621094 9.570312 47.210938 9.785156 46.195312 10.15625 Z M 46.195312 10.351562 "/>
<path style=" stroke:none;fill-rule:nonzero;fill:rgb(0%,0%,0%);fill-opacity:1;" d="M 58.433594 11.816406 L 56.910156 11.816406 L 56.910156 5.175781 L 56.246094 5.175781 L 51.558594 11.816406 L 51.558594 12.773438 L 55.757812 12.773438 L 55.757812 15.273438 L 56.910156 15.273438 L 56.910156 12.773438 L 58.433594 12.773438 Z M 55.738281 11.816406 L 52.164062 11.816406 L 55.738281 6.699219 Z M 55.738281 11.816406 "/>
<path style=" stroke:none;fill-rule:nonzero;fill:rgb(0%,0%,0%);fill-opacity:1;" d="M 61.550781 6.5625 L 64.480469 6.5625 C 64.734375 6.5625 64.792969 6.523438 64.832031 6.425781 L 65.398438 5.097656 L 65.261719 5 C 65.046875 5.3125 64.890625 5.390625 64.578125 5.390625 L 61.453125 5.390625 L 59.832031 8.925781 C 59.8125 8.945312 59.8125 8.964844 59.8125 9.003906 C 59.8125 9.082031 59.871094 9.121094 59.988281 9.121094 C 60.476562 9.121094 61.0625 9.21875 61.6875 9.414062 C 63.40625 9.960938 64.1875 10.898438 64.1875 12.382812 C 64.1875 13.808594 63.269531 14.921875 62.117188 14.921875 C 61.804688 14.921875 61.550781 14.824219 61.121094 14.492188 C 60.632812 14.160156 60.28125 14.003906 59.96875 14.003906 C 59.539062 14.003906 59.324219 14.179688 59.324219 14.550781 C 59.324219 15.117188 60.027344 15.488281 61.160156 15.488281 C 62.410156 15.488281 63.484375 15.078125 64.226562 14.316406 C 64.929688 13.652344 65.242188 12.792969 65.242188 11.660156 C 65.242188 10.585938 64.949219 9.902344 64.207031 9.140625 C 63.542969 8.496094 62.703125 8.144531 60.925781 7.832031 Z M 61.550781 6.5625 "/>
<path style=" stroke:none;fill-rule:nonzero;fill:rgb(0%,0%,0%);fill-opacity:1;" d="M 70.664062 9.726562 C 72.148438 8.945312 72.65625 8.320312 72.65625 7.285156 C 72.65625 6.074219 71.582031 5.175781 70.097656 5.175781 C 68.457031 5.175781 67.246094 6.171875 67.246094 7.539062 C 67.246094 8.496094 67.539062 8.945312 69.101562 10.3125 C 67.5 11.542969 67.167969 11.992188 67.167969 13.007812 C 67.167969 14.472656 68.339844 15.488281 70.039062 15.488281 C 71.835938 15.488281 72.96875 14.492188 72.96875 12.949219 C 72.96875 11.816406 72.460938 11.074219 70.664062 9.726562 Z M 70.390625 11.269531 C 71.484375 12.050781 71.835938 12.578125 71.835938 13.417969 C 71.835938 14.394531 71.171875 15.058594 70.195312 15.058594 C 69.0625 15.058594 68.300781 14.199219 68.300781 12.890625 C 68.300781 11.933594 68.632812 11.308594 69.492188 10.605469 Z M 70.234375 9.453125 C 68.90625 8.59375 68.359375 7.910156 68.359375 7.070312 C 68.359375 6.210938 69.023438 5.585938 69.980469 5.585938 C 70.996094 5.585938 71.640625 6.25 71.640625 7.285156 C 71.640625 8.125 71.210938 8.808594 70.371094 9.375 C 70.292969 9.414062 70.292969 9.414062 70.234375 9.453125 Z M 70.234375 9.453125 "/>
<path style=" stroke:none;fill-rule:nonzero;fill:rgb(0%,0%,0%);fill-opacity:1;" d="M 78.121094 11.425781 L 78.121094 12.382812 L 81.792969 12.382812 L 81.792969 11.425781 Z M 78.121094 11.425781 "/>
<path style=" stroke:none;fill-rule:nonzero;fill:rgb(0%,0%,0%);fill-opacity:1;" d="M 83.390625 15.605469 C 85.070312 15.410156 85.890625 15.117188 86.90625 14.394531 C 88.449219 13.261719 89.367188 11.40625 89.367188 9.394531 C 89.367188 6.914062 88 5.175781 86.066406 5.175781 C 84.289062 5.175781 82.960938 6.679688 82.960938 8.691406 C 82.960938 10.527344 84.035156 11.738281 85.65625 11.738281 C 86.476562 11.738281 87.101562 11.484375 87.882812 10.878906 C 87.277344 13.320312 85.617188 14.921875 83.351562 15.3125 Z M 87.921875 9.960938 C 87.921875 10.273438 87.863281 10.410156 87.6875 10.527344 C 87.277344 10.898438 86.730469 11.09375 86.183594 11.09375 C 85.050781 11.09375 84.328125 9.960938 84.328125 8.183594 C 84.328125 7.34375 84.582031 6.445312 84.894531 6.054688 C 85.148438 5.761719 85.519531 5.585938 85.949219 5.585938 C 87.257812 5.585938 87.921875 6.875 87.921875 9.394531 Z M 87.921875 9.960938 "/>
<path style=" stroke:none;fill-rule:nonzero;fill:rgb(0%,0%,0%);fill-opacity:1;" d="M 91.859375 13.789062 C 91.410156 13.789062 91.039062 14.160156 91.039062 14.628906 C 91.039062 15.058594 91.410156 15.429688 91.839844 15.429688 C 92.308594 15.429688 92.679688 15.058594 92.679688 14.628906 C 92.679688 14.160156 92.308594 13.789062 91.859375 13.789062 Z M 91.859375 13.789062 "/>
<path style=" stroke:none;fill-rule:nonzero;fill:rgb(0%,0%,0%);fill-opacity:1;" d="M 100.226562 13.789062 C 99.777344 13.789062 99.40625 14.160156 99.40625 14.628906 C 99.40625 15.058594 99.777344 15.429688 100.207031 15.429688 C 100.675781 15.429688 101.046875 15.058594 101.046875 14.628906 C 101.046875 14.160156 100.675781 13.789062 100.226562 13.789062 Z M 100.226562 13.789062 "/>
<path style=" stroke:none;fill-rule:nonzero;fill:rgb(0%,0%,0%);fill-opacity:1;" d="M 105.878906 5.175781 C 105.058594 5.175781 104.433594 5.429688 103.886719 5.957031 C 103.007812 6.777344 102.441406 8.496094 102.441406 10.253906 C 102.441406 11.875 102.949219 13.632812 103.652344 14.472656 C 104.199219 15.117188 104.960938 15.488281 105.820312 15.488281 C 106.582031 15.488281 107.226562 15.234375 107.773438 14.707031 C 108.632812 13.886719 109.199219 12.148438 109.199219 10.351562 C 109.199219 7.285156 107.851562 5.175781 105.878906 5.175781 Z M 105.839844 5.566406 C 107.089844 5.566406 107.773438 7.246094 107.773438 10.371094 C 107.773438 13.496094 107.109375 15.097656 105.820312 15.097656 C 104.53125 15.097656 103.886719 13.496094 103.886719 10.390625 C 103.886719 7.226562 104.550781 5.566406 105.839844 5.566406 Z M 105.839844 5.566406 "/>
<path style=" stroke:none;fill-rule:nonzero;fill:rgb(0%,0%,0%);fill-opacity:1;" d="M 116.609375 11.816406 L 115.085938 11.816406 L 115.085938 5.175781 L 114.421875 5.175781 L 109.734375 11.816406 L 109.734375 12.773438 L 113.933594 12.773438 L 113.933594 15.273438 L 115.085938 15.273438 L 115.085938 12.773438 L 116.609375 12.773438 Z M 113.914062 11.816406 L 110.339844 11.816406 L 113.914062 6.699219 Z M 113.914062 11.816406 "/>
<path style=" stroke:none;fill-rule:nonzero;fill:rgb(0%,0%,0%);fill-opacity:1;" d="M 124.121094 13.222656 L 123.925781 13.144531 C 123.378906 14.003906 123.183594 14.140625 122.519531 14.140625 L 118.945312 14.140625 L 121.445312 11.503906 C 122.792969 10.117188 123.359375 8.984375 123.359375 7.8125 C 123.359375 6.328125 122.148438 5.175781 120.605469 5.175781 C 119.785156 5.175781 119.003906 5.507812 118.457031 6.09375 C 117.96875 6.601562 117.753906 7.089844 117.5 8.144531 L 117.8125 8.222656 C 118.398438 6.757812 118.945312 6.269531 119.980469 6.269531 C 121.230469 6.269531 122.089844 7.128906 122.089844 8.378906 C 122.089844 9.550781 121.386719 10.9375 120.136719 12.265625 L 117.480469 15.097656 L 117.480469 15.273438 L 123.300781 15.273438 Z M 124.121094 13.222656 "/>
<path style=" stroke:none;fill-rule:nonzero;fill:rgb(0%,0%,0%);fill-opacity:1;" d="M 127.199219 6.5625 L 130.128906 6.5625 C 130.382812 6.5625 130.441406 6.523438 130.480469 6.425781 L 131.046875 5.097656 L 130.910156 5 C 130.695312 5.3125 130.539062 5.390625 130.226562 5.390625 L 127.101562 5.390625 L 125.480469 8.925781 C 125.460938 8.945312 125.460938 8.964844 125.460938 9.003906 C 125.460938 9.082031 125.519531 9.121094 125.636719 9.121094 C 126.125 9.121094 126.710938 9.21875 127.335938 9.414062 C 129.054688 9.960938 129.835938 10.898438 129.835938 12.382812 C 129.835938 13.808594 128.917969 14.921875 127.765625 14.921875 C 127.453125 14.921875 127.199219 14.824219 126.769531 14.492188 C 126.28125 14.160156 125.929688 14.003906 125.617188 14.003906 C 125.1875 14.003906 124.972656 14.179688 124.972656 14.550781 C 124.972656 15.117188 125.675781 15.488281 126.808594 15.488281 C 128.058594 15.488281 129.132812 15.078125 129.875 14.316406 C 130.578125 13.652344 130.890625 12.792969 130.890625 11.660156 C 130.890625 10.585938 130.597656 9.902344 129.855469 9.140625 C 129.191406 8.496094 128.351562 8.144531 126.574219 7.832031 Z M 127.199219 6.5625 "/>
<path style=" stroke:none;fill-rule:nonzero;fill:rgb(0%,0%,0%);fill-opacity:1;" d="M 134.261719 10.351562 C 135.140625 10.351562 135.492188 10.371094 135.84375 10.507812 C 136.78125 10.839844 137.347656 11.679688 137.347656 12.714844 C 137.347656 13.964844 136.507812 14.941406 135.394531 14.941406 C 135.003906 14.941406 134.691406 14.84375 134.144531 14.472656 C 133.695312 14.21875 133.441406 14.101562 133.1875 14.101562 C 132.835938 14.101562 132.621094 14.316406 132.621094 14.628906 C 132.621094 15.15625 133.265625 15.488281 134.300781 15.488281 C 135.453125 15.488281 136.644531 15.097656 137.347656 14.472656 C 138.050781 13.867188 138.421875 13.007812 138.421875 11.992188 C 138.421875 11.230469 138.1875 10.527344 137.757812 10.078125 C 137.464844 9.746094 137.171875 9.570312 136.527344 9.277344 C 137.542969 8.574219 137.914062 8.027344 137.914062 7.226562 C 137.914062 6.015625 136.976562 5.175781 135.589844 5.175781 C 134.847656 5.175781 134.183594 5.429688 133.65625 5.898438 C 133.207031 6.308594 132.972656 6.699219 132.640625 7.597656 L 132.875 7.65625 C 133.480469 6.5625 134.164062 6.074219 135.101562 6.074219 C 136.078125 6.074219 136.742188 6.71875 136.742188 7.675781 C 136.742188 8.203125 136.527344 8.75 136.136719 9.121094 C 135.6875 9.570312 135.277344 9.785156 134.261719 10.15625 Z M 134.261719 10.351562 "/>
<path style=" stroke:none;fill-rule:nonzero;fill:rgb(0%,0%,0%);fill-opacity:1;" d="M 143.769531 11.425781 L 143.769531 12.382812 L 147.441406 12.382812 L 147.441406 11.425781 Z M 143.769531 11.425781 "/>
<path style=" stroke:none;fill-rule:nonzero;fill:rgb(0%,0%,0%);fill-opacity:1;" d="M 152.496094 9.726562 C 153.980469 8.945312 154.488281 8.320312 154.488281 7.285156 C 154.488281 6.074219 153.414062 5.175781 151.929688 5.175781 C 150.289062 5.175781 149.078125 6.171875 149.078125 7.539062 C 149.078125 8.496094 149.371094 8.945312 150.933594 10.3125 C 149.332031 11.542969 149 11.992188 149 13.007812 C 149 14.472656 150.171875 15.488281 151.871094 15.488281 C 153.667969 15.488281 154.800781 14.492188 154.800781 12.949219 C 154.800781 11.816406 154.292969 11.074219 152.496094 9.726562 Z M 152.222656 11.269531 C 153.316406 12.050781 153.667969 12.578125 153.667969 13.417969 C 153.667969 14.394531 153.003906 15.058594 152.027344 15.058594 C 150.894531 15.058594 150.132812 14.199219 150.132812 12.890625 C 150.132812 11.933594 150.464844 11.308594 151.324219 10.605469 Z M 152.066406 9.453125 C 150.738281 8.59375 150.191406 7.910156 150.191406 7.070312 C 150.191406 6.210938 150.855469 5.585938 151.8125 5.585938 C 152.828125 5.585938 153.472656 6.25 153.472656 7.285156 C 153.472656 8.125 153.042969 8.808594 152.203125 9.375 C 152.125 9.414062 152.125 9.414062 152.066406 9.453125 Z M 152.066406 9.453125 "/>
<path style=" stroke:none;fill-rule:nonzero;fill:rgb(0%,0%,0%);fill-opacity:1;" d="M 157.507812 13.789062 C 157.058594 13.789062 156.6875 14.160156 156.6875 14.628906 C 156.6875 15.058594 157.058594 15.429688 157.488281 15.429688 C 157.957031 15.429688 158.328125 15.058594 158.328125 14.628906 C 158.328125 14.160156 157.957031 13.789062 157.507812 13.789062 Z M 157.507812 13.789062 "/>
<path style=" stroke:none;fill-rule:nonzero;fill:rgb(0%,0%,0%);fill-opacity:1;" d="M 165.875 13.789062 C 165.425781 13.789062 165.054688 14.160156 165.054688 14.628906 C 165.054688 15.058594 165.425781 15.429688 165.855469 15.429688 C 166.324219 15.429688 166.695312 15.058594 166.695312 14.628906 C 166.695312 14.160156 166.324219 13.789062 165.875 13.789062 Z M 165.875 13.789062 "/>
<path style=" stroke:none;fill-rule:nonzero;fill:rgb(0%,0%,0%);fill-opacity:1;" d="M 171.527344 5.175781 C 170.707031 5.175781 170.082031 5.429688 169.535156 5.957031 C 168.65625 6.777344 168.089844 8.496094 168.089844 10.253906 C 168.089844 11.875 168.597656 13.632812 169.300781 14.472656 C 169.847656 15.117188 170.609375 15.488281 171.46875 15.488281 C 172.230469 15.488281 172.875 15.234375 173.421875 14.707031 C 174.28125 13.886719 174.847656 12.148438 174.847656 10.351562 C 174.847656 7.285156 173.5 5.175781 171.527344 5.175781 Z M 171.488281 5.566406 C 172.738281 5.566406 173.421875 7.246094 173.421875 10.371094 C 173.421875 13.496094 172.757812 15.097656 171.46875 15.097656 C 170.179688 15.097656 169.535156 13.496094 169.535156 10.390625 C 169.535156 7.226562 170.199219 5.566406 171.488281 5.566406 Z M 171.488281 5.566406 "/>
<path style=" stroke:none;fill-rule:nonzero;fill:rgb(0%,0%,0%);fill-opacity:1;" d="M 177.90625 6.5625 L 180.835938 6.5625 C 181.089844 6.5625 181.148438 6.523438 181.1875 6.425781 L 181.753906 5.097656 L 181.617188 5 C 181.402344 5.3125 181.246094 5.390625 180.933594 5.390625 L 177.808594 5.390625 L 176.1875 8.925781 C 176.167969 8.945312 176.167969 8.964844 176.167969 9.003906 C 176.167969 9.082031 176.226562 9.121094 176.34375 9.121094 C 176.832031 9.121094 177.417969 9.21875 178.042969 9.414062 C 179.761719 9.960938 180.542969 10.898438 180.542969 12.382812 C 180.542969 13.808594 179.625 14.921875 178.472656 14.921875 C 178.160156 14.921875 177.90625 14.824219 177.476562 14.492188 C 176.988281 14.160156 176.636719 14.003906 176.324219 14.003906 C 175.894531 14.003906 175.679688 14.179688 175.679688 14.550781 C 175.679688 15.117188 176.382812 15.488281 177.515625 15.488281 C 178.765625 15.488281 179.839844 15.078125 180.582031 14.316406 C 181.285156 13.652344 181.597656 12.792969 181.597656 11.660156 C 181.597656 10.585938 181.304688 9.902344 180.5625 9.140625 C 179.898438 8.496094 179.058594 8.144531 177.28125 7.832031 Z M 177.90625 6.5625 "/>
<path style=" stroke:none;fill-rule:nonzero;fill:rgb(0%,0%,0%);fill-opacity:1;" d="M 184.964844 10.351562 C 185.84375 10.351562 186.195312 10.371094 186.546875 10.507812 C 187.484375 10.839844 188.050781 11.679688 188.050781 12.714844 C 188.050781 13.964844 187.210938 14.941406 186.097656 14.941406 C 185.707031 14.941406 185.394531 14.84375 184.847656 14.472656 C 184.398438 14.21875 184.144531 14.101562 183.890625 14.101562 C 183.539062 14.101562 183.324219 14.316406 183.324219 14.628906 C 183.324219 15.15625 183.96875 15.488281 185.003906 15.488281 C 186.15625 15.488281 187.347656 15.097656 188.050781 14.472656 C 188.753906 13.867188 189.125 13.007812 189.125 11.992188 C 189.125 11.230469 188.890625 10.527344 188.460938 10.078125 C 188.167969 9.746094 187.875 9.570312 187.230469 9.277344 C 188.246094 8.574219 188.617188 8.027344 188.617188 7.226562 C 188.617188 6.015625 187.679688 5.175781 186.292969 5.175781 C 185.550781 5.175781 184.886719 5.429688 184.359375 5.898438 C 183.910156 6.308594 183.675781 6.699219 183.34375 7.597656 L 183.578125 7.65625 C 184.183594 6.5625 184.867188 6.074219 185.804688 6.074219 C 186.78125 6.074219 187.445312 6.71875 187.445312 7.675781 C 187.445312 8.203125 187.230469 8.75 186.839844 9.121094 C 186.390625 9.570312 185.980469 9.785156 184.964844 10.15625 Z M 184.964844 10.351562 "/>
<path style=" stroke:none;fill-rule:nonzero;fill:rgb(0%,0%,0%);fill-opacity:1;" d="M 192.4375 10.351562 C 193.316406 10.351562 193.667969 10.371094 194.019531 10.507812 C 194.957031 10.839844 195.523438 11.679688 195.523438 12.714844 C 195.523438 13.964844 194.683594 14.941406 193.570312 14.941406 C 193.179688 14.941406 192.867188 14.84375 192.320312 14.472656 C 191.871094 14.21875 191.617188 14.101562 191.363281 14.101562 C 191.011719 14.101562 190.796875 14.316406 190.796875 14.628906 C 190.796875 15.15625 191.441406 15.488281 192.476562 15.488281 C 193.628906 15.488281 194.820312 15.097656 195.523438 14.472656 C 196.226562 13.867188 196.597656 13.007812 196.597656 11.992188 C 196.597656 11.230469 196.363281 10.527344 195.933594 10.078125 C 195.640625 9.746094 195.347656 9.570312 194.703125 9.277344 C 195.71875 8.574219 196.089844 8.027344 196.089844 7.226562 C 196.089844 6.015625 195.152344 5.175781 193.765625 5.175781 C 193.023438 5.175781 192.359375 5.429688 191.832031 5.898438 C 191.382812 6.308594 191.148438 6.699219 190.816406 7.597656 L 191.050781 7.65625 C 191.65625 6.5625 192.339844 6.074219 193.277344 6.074219 C 194.253906 6.074219 194.917969 6.71875 194.917969 7.675781 C 194.917969 8.203125 194.703125 8.75 194.3125 9.121094 C 193.863281 9.570312 193.453125 9.785156 192.4375 10.15625 Z M 192.4375 10.351562 "/>
<path style=" stroke:none;fill-rule:nonzero;fill:rgb(0%,0%,0%);fill-opacity:1;" d="M 204.324219 5.390625 L 198.796875 5.390625 L 197.917969 7.578125 L 198.171875 7.695312 C 198.816406 6.679688 199.089844 6.484375 199.910156 6.484375 L 203.152344 6.484375 L 200.203125 15.390625 L 201.160156 15.390625 L 204.324219 5.625 Z M 204.324219 5.390625 "/>
<path style=" stroke:none;fill-rule:nonzero;fill:rgb(0%,0%,0%);fill-opacity:1;" d="M 209.417969 11.425781 L 209.417969 12.382812 L 213.089844 12.382812 L 213.089844 11.425781 Z M 209.417969 11.425781 "/>
<path style=" stroke:none;fill-rule:nonzero;fill:rgb(0%,0%,0%);fill-opacity:1;" d="M 220.507812 5.390625 L 214.980469 5.390625 L 214.101562 7.578125 L 214.355469 7.695312 C 215 6.679688 215.273438 6.484375 216.09375 6.484375 L 219.335938 6.484375 L 216.386719 15.390625 L 217.34375 15.390625 L 220.507812 5.625 Z M 220.507812 5.390625 "/>
<path style=" stroke:none;fill-rule:nonzero;fill:rgb(0%,0%,0%);fill-opacity:1;" d="M 223.15625 13.789062 C 222.707031 13.789062 222.335938 14.160156 222.335938 14.628906 C 222.335938 15.058594 222.707031 15.429688 223.136719 15.429688 C 223.605469 15.429688 223.976562 15.058594 223.976562 14.628906 C 223.976562 14.160156 223.605469 13.789062 223.15625 13.789062 Z M 223.15625 13.789062 "/>
<path style=" stroke:none;fill-rule:nonzero;fill:rgb(0%,0%,0%);fill-opacity:1;" d="M 231.523438 13.789062 C 231.074219 13.789062 230.703125 14.160156 230.703125 14.628906 C 230.703125 15.058594 231.074219 15.429688 231.503906 15.429688 C 231.972656 15.429688 232.34375 15.058594 232.34375 14.628906 C 232.34375 14.160156 231.972656 13.789062 231.523438 13.789062 Z M 231.523438 13.789062 "/>
<path style=" stroke:none;fill-rule:nonzero;fill:rgb(0%,0%,0%);fill-opacity:1;" d="M 237.175781 5.175781 C 236.355469 5.175781 235.730469 5.429688 235.183594 5.957031 C 234.304688 6.777344 233.738281 8.496094 233.738281 10.253906 C 233.738281 11.875 234.246094 13.632812 234.949219 14.472656 C 235.496094 15.117188 236.257812 15.488281 237.117188 15.488281 C 237.878906 15.488281 238.523438 15.234375 239.070312 14.707031 C 239.929688 13.886719 240.496094 12.148438 240.496094 10.351562 C 240.496094 7.285156 239.148438 5.175781 237.175781 5.175781 Z M 237.136719 5.566406 C 238.386719 5.566406 239.070312 7.246094 239.070312 10.371094 C 239.070312 13.496094 238.40625 15.097656 237.117188 15.097656 C 235.828125 15.097656 235.183594 13.496094 235.183594 10.390625 C 235.183594 7.226562 235.847656 5.566406 237.136719 5.566406 Z M 237.136719 5.566406 "/>
<path style=" stroke:none;fill-rule:nonzero;fill:rgb(0%,0%,0%);fill-opacity:1;" d="M 247.519531 5.058594 C 245.820312 5.195312 244.960938 5.488281 243.867188 6.25 C 242.246094 7.402344 241.367188 9.101562 241.367188 11.113281 C 241.367188 12.402344 241.777344 13.710938 242.421875 14.472656 C 242.988281 15.117188 243.789062 15.488281 244.707031 15.488281 C 246.5625 15.488281 247.851562 14.0625 247.851562 11.992188 C 247.851562 10.097656 246.757812 8.886719 245.039062 8.886719 C 244.394531 8.886719 244.0625 8.984375 243.125 9.550781 C 243.535156 7.285156 245.214844 5.683594 247.558594 5.292969 Z M 244.472656 9.570312 C 245.761719 9.570312 246.503906 10.644531 246.503906 12.5 C 246.503906 14.160156 245.917969 15.058594 244.882812 15.058594 C 243.554688 15.058594 242.753906 13.652344 242.753906 11.347656 C 242.753906 10.585938 242.871094 10.15625 243.183594 9.941406 C 243.496094 9.707031 243.945312 9.570312 244.472656 9.570312 Z M 244.472656 9.570312 "/>
<path style=" stroke:none;fill-rule:nonzero;fill:rgb(0%,0%,0%);fill-opacity:1;" d="M 252.664062 9.726562 C 254.148438 8.945312 254.65625 8.320312 254.65625 7.285156 C 254.65625 6.074219 253.582031 5.175781 252.097656 5.175781 C 250.457031 5.175781 249.246094 6.171875 249.246094 7.539062 C 249.246094 8.496094 249.539062 8.945312 251.101562 10.3125 C 249.5 11.542969 249.167969 11.992188 249.167969 13.007812 C 249.167969 14.472656 250.339844 15.488281 252.039062 15.488281 C 253.835938 15.488281 254.96875 14.492188 254.96875 12.949219 C 254.96875 11.816406 254.460938 11.074219 252.664062 9.726562 Z M 252.390625 11.269531 C 253.484375 12.050781 253.835938 12.578125 253.835938 13.417969 C 253.835938 14.394531 253.171875 15.058594 252.195312 15.058594 C 251.0625 15.058594 250.300781 14.199219 250.300781 12.890625 C 250.300781 11.933594 250.632812 11.308594 251.492188 10.605469 Z M 252.234375 9.453125 C 250.90625 8.59375 250.359375 7.910156 250.359375 7.070312 C 250.359375 6.210938 251.023438 5.585938 251.980469 5.585938 C 252.996094 5.585938 253.640625 6.25 253.640625 7.285156 C 253.640625 8.125 253.210938 8.808594 252.371094 9.375 C 252.292969 9.414062 252.292969 9.414062 252.234375 9.453125 Z M 252.234375 9.453125 "/>
<path style=" stroke:none;fill-rule:nonzero;fill:rgb(0%,0%,0%);fill-opacity:1;" d="M 258.496094 6.5625 L 261.425781 6.5625 C 261.679688 6.5625 261.738281 6.523438 261.777344 6.425781 L 262.34375 5.097656 L 262.207031 5 C 261.992188 5.3125 261.835938 5.390625 261.523438 5.390625 L 258.398438 5.390625 L 256.777344 8.925781 C 256.757812 8.945312 256.757812 8.964844 256.757812 9.003906 C 256.757812 9.082031 256.816406 9.121094 256.933594 9.121094 C 257.421875 9.121094 258.007812 9.21875 258.632812 9.414062 C 260.351562 9.960938 261.132812 10.898438 261.132812 12.382812 C 261.132812 13.808594 260.214844 14.921875 259.0625 14.921875 C 258.75 14.921875 258.496094 14.824219 258.066406 14.492188 C 257.578125 14.160156 257.226562 14.003906 256.914062 14.003906 C 256.484375 14.003906 256.269531 14.179688 256.269531 14.550781 C 256.269531 15.117188 256.972656 15.488281 258.105469 15.488281 C 259.355469 15.488281 260.429688 15.078125 261.171875 14.316406 C 261.875 13.652344 262.1875 12.792969 262.1875 11.660156 C 262.1875 10.585938 261.894531 9.902344 261.152344 9.140625 C 260.488281 8.496094 259.648438 8.144531 257.871094 7.832031 Z M 258.496094 6.5625 "/>
<path style=" stroke:none;fill-rule:nonzero;fill:rgb(0%,0%,0%);fill-opacity:1;" d="M 267.0625 5.175781 C 266.242188 5.175781 265.617188 5.429688 265.070312 5.957031 C 264.191406 6.777344 263.625 8.496094 263.625 10.253906 C 263.625 11.875 264.132812 13.632812 264.835938 14.472656 C 265.382812 15.117188 266.144531 15.488281 267.003906 15.488281 C 267.765625 15.488281 268.410156 15.234375 268.957031 14.707031 C 269.816406 13.886719 270.382812 12.148438 270.382812 10.351562 C 270.382812 7.285156 269.035156 5.175781 267.0625 5.175781 Z M 267.023438 5.566406 C 268.273438 5.566406 268.957031 7.246094 268.957031 10.371094 C 268.957031 13.496094 268.292969 15.097656 267.003906 15.097656 C 265.714844 15.097656 265.070312 13.496094 265.070312 10.390625 C 265.070312 7.226562 265.734375 5.566406 267.023438 5.566406 Z M 267.023438 5.566406 "/>
<path style=" stroke:none;fill-rule:nonzero;fill:rgb(0%,0%,0%);fill-opacity:1;" d="M 275.066406 11.425781 L 275.066406 12.382812 L 278.738281 12.382812 L 278.738281 11.425781 Z M 275.066406 11.425781 "/>
<path style=" stroke:none;fill-rule:nonzero;fill:rgb(0%,0%,0%);fill-opacity:1;" d="M 286.117188 5.058594 C 284.417969 5.195312 283.558594 5.488281 282.464844 6.25 C 280.84375 7.402344 279.964844 9.101562 279.964844 11.113281 C 279.964844 12.402344 280.375 13.710938 281.019531 14.472656 C 281.585938 15.117188 282.386719 15.488281 283.304688 15.488281 C 285.160156 15.488281 286.449219 14.0625 286.449219 11.992188 C 286.449219 10.097656 285.355469 8.886719 283.636719 8.886719 C 282.992188 8.886719 282.660156 8.984375 281.722656 9.550781 C 282.132812 7.285156 283.8125 5.683594 286.15625 5.292969 Z M 283.070312 9.570312 C 284.359375 9.570312 285.101562 10.644531 285.101562 12.5 C 285.101562 14.160156 284.515625 15.058594 283.480469 15.058594 C 282.152344 15.058594 281.351562 13.652344 281.351562 11.347656 C 281.351562 10.585938 281.46875 10.15625 281.78125 9.941406 C 282.09375 9.707031 282.542969 9.570312 283.070312 9.570312 Z M 283.070312 9.570312 "/>
<path style=" stroke:none;fill-rule:nonzero;fill:rgb(0%,0%,0%);fill-opacity:1;" d="M 288.804688 13.789062 C 288.355469 13.789062 287.984375 14.160156 287.984375 14.628906 C 287.984375 15.058594 288.355469 15.429688 288.785156 15.429688 C 289.253906 15.429688 289.625 15.058594 289.625 14.628906 C 289.625 14.160156 289.253906 13.789062 288.804688 13.789062 Z M 288.804688 13.789062 "/>
<path style=" stroke:none;fill-rule:nonzero;fill:rgb(0%,0%,0%);fill-opacity:1;" d="M 297.175781 13.789062 C 296.726562 13.789062 296.355469 14.160156 296.355469 14.628906 C 296.355469 15.058594 296.726562 15.429688 297.15625 15.429688 C 297.625 15.429688 297.996094 15.058594 297.996094 14.628906 C 297.996094 14.160156 297.625 13.789062 297.175781 13.789062 Z M 297.175781 13.789062 "/>
<path style=" stroke:none;fill-rule:nonzero;fill:rgb(0%,0%,0%);fill-opacity:1;" d="M 302.824219 5.175781 C 302.003906 5.175781 301.378906 5.429688 300.832031 5.957031 C 299.953125 6.777344 299.386719 8.496094 299.386719 10.253906 C 299.386719 11.875 299.894531 13.632812 300.597656 14.472656 C 301.144531 15.117188 301.90625 15.488281 302.765625 15.488281 C 303.527344 15.488281 304.171875 15.234375 304.71875 14.707031 C 305.578125 13.886719 306.144531 12.148438 306.144531 10.351562 C 306.144531 7.285156 304.796875 5.175781 302.824219 5.175781 Z M 302.785156 5.566406 C 304.035156 5.566406 304.71875 7.246094 304.71875 10.371094 C 304.71875 13.496094 304.054688 15.097656 302.765625 15.097656 C 301.476562 15.097656 300.832031 13.496094 300.832031 10.390625 C 300.832031 7.226562 301.496094 5.566406 302.785156 5.566406 Z M 302.785156 5.566406 "/>
<path style=" stroke:none;fill-rule:nonzero;fill:rgb(0%,0%,0%);fill-opacity:1;" d="M 307.386719 15.605469 C 309.066406 15.410156 309.886719 15.117188 310.902344 14.394531 C 312.445312 13.261719 313.363281 11.40625 313.363281 9.394531 C 313.363281 6.914062 311.996094 5.175781 310.0625 5.175781 C 308.285156 5.175781 306.957031 6.679688 306.957031 8.691406 C 306.957031 10.527344 308.03125 11.738281 309.652344 11.738281 C 310.472656 11.738281 311.097656 11.484375 311.878906 10.878906 C 311.273438 13.320312 309.613281 14.921875 307.347656 15.3125 Z M 311.917969 9.960938 C 311.917969 10.273438 311.859375 10.410156 311.683594 10.527344 C 311.273438 10.898438 310.726562 11.09375 310.179688 11.09375 C 309.046875 11.09375 308.324219 9.960938 308.324219 8.183594 C 308.324219 7.34375 308.578125 6.445312 308.890625 6.054688 C 309.144531 5.761719 309.515625 5.585938 309.945312 5.585938 C 311.253906 5.585938 311.917969 6.875 311.917969 9.394531 Z M 311.917969 9.960938 "/>
<path style=" stroke:none;fill-rule:nonzero;fill:rgb(0%,0%,0%);fill-opacity:1;" d="M 317.769531 5.175781 C 316.949219 5.175781 316.324219 5.429688 315.777344 5.957031 C 314.898438 6.777344 314.332031 8.496094 314.332031 10.253906 C 314.332031 11.875 314.839844 13.632812 315.542969 14.472656 C 316.089844 15.117188 316.851562 15.488281 317.710938 15.488281 C 318.472656 15.488281 319.117188 15.234375 319.664062 14.707031 C 320.523438 13.886719 321.089844 12.148438 321.089844 10.351562 C 321.089844 7.285156 319.742188 5.175781 317.769531 5.175781 Z M 317.730469 5.566406 C 318.980469 5.566406 319.664062 7.246094 319.664062 10.371094 C 319.664062 13.496094 319 15.097656 317.710938 15.097656 C 316.421875 15.097656 315.777344 13.496094 315.777344 10.390625 C 315.777344 7.226562 316.441406 5.566406 317.730469 5.566406 Z M 317.730469 5.566406 "/>
<path style=" stroke:none;fill-rule:nonzero;fill:rgb(0%,0%,0%);fill-opacity:1;" d="M 325.804688 5.175781 L 323.109375 6.523438 L 323.109375 6.738281 C 323.285156 6.660156 323.460938 6.601562 323.519531 6.582031 C 323.773438 6.464844 324.027344 6.40625 324.183594 6.40625 C 324.496094 6.40625 324.632812 6.640625 324.632812 7.109375 L 324.632812 13.886719 C 324.632812 14.375 324.515625 14.726562 324.28125 14.863281 C 324.046875 14.980469 323.832031 15.039062 323.207031 15.058594 L 323.207031 15.273438 L 327.328125 15.273438 L 327.328125 15.058594 C 326.15625 15.039062 325.921875 14.882812 325.921875 14.160156 L 325.921875 5.195312 Z M 325.804688 5.175781 "/>
<path style=" stroke:none;fill-rule:nonzero;fill:rgb(0%,0%,0%);fill-opacity:1;" d="M 333.277344 5.175781 L 330.582031 6.523438 L 330.582031 6.738281 C 330.757812 6.660156 330.933594 6.601562 330.992188 6.582031 C 331.246094 6.464844 331.5 6.40625 331.65625 6.40625 C 331.96875 6.40625 332.105469 6.640625 332.105469 7.109375 L 332.105469 13.886719 C 332.105469 14.375 331.988281 14.726562 331.753906 14.863281 C 331.519531 14.980469 331.304688 15.039062 330.679688 15.058594 L 330.679688 15.273438 L 334.800781 15.273438 L 334.800781 15.058594 C 333.628906 15.039062 333.394531 14.882812 333.394531 14.160156 L 333.394531 5.195312 Z M 333.277344 5.175781 "/>
<path style=" stroke:none;fill-rule:nonzero;fill:rgb(0%,0%,0%);fill-opacity:1;" d="M 340.71875 11.425781 L 340.71875 12.382812 L 344.390625 12.382812 L 344.390625 11.425781 Z M 340.71875 11.425781 "/>
<path style=" stroke:none;fill-rule:nonzero;fill:rgb(0%,0%,0%);fill-opacity:1;" d="M 347.800781 6.5625 L 350.730469 6.5625 C 350.984375 6.5625 351.042969 6.523438 351.082031 6.425781 L 351.648438 5.097656 L 351.511719 5 C 351.296875 5.3125 351.140625 5.390625 350.828125 5.390625 L 347.703125 5.390625 L 346.082031 8.925781 C 346.0625 8.945312 346.0625 8.964844 346.0625 9.003906 C 346.0625 9.082031 346.121094 9.121094 346.238281 9.121094 C 346.726562 9.121094 347.3125 9.21875 347.9375 9.414062 C 349.65625 9.960938 350.4375 10.898438 350.4375 12.382812 C 350.4375 13.808594 349.519531 14.921875 348.367188 14.921875 C 348.054688 14.921875 347.800781 14.824219 347.371094 14.492188 C 346.882812 14.160156 346.53125 14.003906 346.21875 14.003906 C 345.789062 14.003906 345.574219 14.179688 345.574219 14.550781 C 345.574219 15.117188 346.277344 15.488281 347.410156 15.488281 C 348.660156 15.488281 349.734375 15.078125 350.476562 14.316406 C 351.179688 13.652344 351.492188 12.792969 351.492188 11.660156 C 351.492188 10.585938 351.199219 9.902344 350.457031 9.140625 C 349.792969 8.496094 348.953125 8.144531 347.175781 7.832031 Z M 347.800781 6.5625 "/>
<path style=" stroke:none;fill-rule:nonzero;fill:rgb(0%,0%,0%);fill-opacity:1;" d="M 354.453125 13.789062 C 354.003906 13.789062 353.632812 14.160156 353.632812 14.628906 C 353.632812 15.058594 354.003906 15.429688 354.433594 15.429688 C 354.902344 15.429688 355.273438 15.058594 355.273438 14.628906 C 355.273438 14.160156 354.902344 13.789062 354.453125 13.789062 Z M 354.453125 13.789062 "/>
<path style=" stroke:none;fill-rule:nonzero;fill:rgb(0%,0%,0%);fill-opacity:1;" d="M 362.824219 13.789062 C 362.375 13.789062 362.003906 14.160156 362.003906 14.628906 C 362.003906 15.058594 362.375 15.429688 362.804688 15.429688 C 363.273438 15.429688 363.644531 15.058594 363.644531 14.628906 C 363.644531 14.160156 363.273438 13.789062 362.824219 13.789062 Z M 362.824219 13.789062 "/>
<path style=" stroke:none;fill-rule:nonzero;fill:rgb(0%,0%,0%);fill-opacity:1;" d="M 369.039062 5.175781 L 366.34375 6.523438 L 366.34375 6.738281 C 366.519531 6.660156 366.695312 6.601562 366.753906 6.582031 C 367.007812 6.464844 367.261719 6.40625 367.417969 6.40625 C 367.730469 6.40625 367.867188 6.640625 367.867188 7.109375 L 367.867188 13.886719 C 367.867188 14.375 367.75 14.726562 367.515625 14.863281 C 367.28125 14.980469 367.066406 15.039062 366.441406 15.058594 L 366.441406 15.273438 L 370.5625 15.273438 L 370.5625 15.058594 C 369.390625 15.039062 369.15625 14.882812 369.15625 14.160156 L 369.15625 5.195312 Z M 369.039062 5.175781 "/>
<path style=" stroke:none;fill-rule:nonzero;fill:rgb(0%,0%,0%);fill-opacity:1;" d="M 379.246094 13.222656 L 379.050781 13.144531 C 378.503906 14.003906 378.308594 14.140625 377.644531 14.140625 L 374.070312 14.140625 L 376.570312 11.503906 C 377.917969 10.117188 378.484375 8.984375 378.484375 7.8125 C 378.484375 6.328125 377.273438 5.175781 375.730469 5.175781 C 374.910156 5.175781 374.128906 5.507812 373.582031 6.09375 C 373.09375 6.601562 372.878906 7.089844 372.625 8.144531 L 372.9375 8.222656 C 373.523438 6.757812 374.070312 6.269531 375.105469 6.269531 C 376.355469 6.269531 377.214844 7.128906 377.214844 8.378906 C 377.214844 9.550781 376.511719 10.9375 375.261719 12.265625 L 372.605469 15.097656 L 372.605469 15.273438 L 378.425781 15.273438 Z M 379.246094 13.222656 "/>
<path style=" stroke:none;fill-rule:nonzero;fill:rgb(0%,0%,0%);fill-opacity:1;" d="M 383.984375 5.175781 L 381.289062 6.523438 L 381.289062 6.738281 C 381.464844 6.660156 381.640625 6.601562 381.699219 6.582031 C 381.953125 6.464844 382.207031 6.40625 382.363281 6.40625 C 382.675781 6.40625 382.8125 6.640625 382.8125 7.109375 L 382.8125 13.886719 C 382.8125 14.375 382.695312 14.726562 382.460938 14.863281 C 382.226562 14.980469 382.011719 15.039062 381.386719 15.058594 L 381.386719 15.273438 L 385.507812 15.273438 L 385.507812 15.058594 C 384.335938 15.039062 384.101562 14.882812 384.101562 14.160156 L 384.101562 5.195312 Z M 383.984375 5.175781 "/>
<path style=" stroke:none;fill-rule:nonzero;fill:rgb(0%,0%,0%);fill-opacity:1;" d="M 389.796875 6.5625 L 392.726562 6.5625 C 392.980469 6.5625 393.039062 6.523438 393.078125 6.425781 L 393.644531 5.097656 L 393.507812 5 C 393.292969 5.3125 393.136719 5.390625 392.824219 5.390625 L 389.699219 5.390625 L 388.078125 8.925781 C 388.058594 8.945312 388.058594 8.964844 388.058594 9.003906 C 388.058594 9.082031 388.117188 9.121094 388.234375 9.121094 C 388.722656 9.121094 389.308594 9.21875 389.933594 9.414062 C 391.652344 9.960938 392.433594 10.898438 392.433594 12.382812 C 392.433594 13.808594 391.515625 14.921875 390.363281 14.921875 C 390.050781 14.921875 389.796875 14.824219 389.367188 14.492188 C 388.878906 14.160156 388.527344 14.003906 388.214844 14.003906 C 387.785156 14.003906 387.570312 14.179688 387.570312 14.550781 C 387.570312 15.117188 388.273438 15.488281 389.40625 15.488281 C 390.65625 15.488281 391.730469 15.078125 392.472656 14.316406 C 393.175781 13.652344 393.488281 12.792969 393.488281 11.660156 C 393.488281 10.585938 393.195312 9.902344 392.453125 9.140625 C 391.789062 8.496094 390.949219 8.144531 389.171875 7.832031 Z M 389.796875 6.5625 "/>
<path style=" stroke:none;fill-rule:nonzero;fill:rgb(0%,0%,0%);fill-opacity:1;" d="M 398.894531 11.425781 L 398.894531 12.382812 L 402.566406 12.382812 L 402.566406 11.425781 Z M 398.894531 11.425781 "/>
<path style=" stroke:none;fill-rule:nonzero;fill:rgb(0%,0%,0%);fill-opacity:1;" d="M 410.335938 11.816406 L 408.8125 11.816406 L 408.8125 5.175781 L 408.148438 5.175781 L 403.460938 11.816406 L 403.460938 12.773438 L 407.660156 12.773438 L 407.660156 15.273438 L 408.8125 15.273438 L 408.8125 12.773438 L 410.335938 12.773438 Z M 407.640625 11.816406 L 404.066406 11.816406 L 407.640625 6.699219 Z M 407.640625 11.816406 "/>
<path style=" stroke:none;fill-rule:nonzero;fill:rgb(0%,0%,0%);fill-opacity:1;" d="M 412.632812 13.789062 C 412.183594 13.789062 411.8125 14.160156 411.8125 14.628906 C 411.8125 15.058594 412.183594 15.429688 412.613281 15.429688 C 413.082031 15.429688 413.453125 15.058594 413.453125 14.628906 C 413.453125 14.160156 413.082031 13.789062 412.632812 13.789062 Z M 412.632812 13.789062 "/>
<path style=" stroke:none;fill-rule:nonzero;fill:rgb(0%,0%,0%);fill-opacity:1;" d="M 421 13.789062 C 420.550781 13.789062 420.179688 14.160156 420.179688 14.628906 C 420.179688 15.058594 420.550781 15.429688 420.980469 15.429688 C 421.449219 15.429688 421.820312 15.058594 421.820312 14.628906 C 421.820312 14.160156 421.449219 13.789062 421 13.789062 Z M 421 13.789062 "/>
<path style=" stroke:none;fill-rule:nonzero;fill:rgb(0%,0%,0%);fill-opacity:1;" d="M 427.214844 5.175781 L 424.519531 6.523438 L 424.519531 6.738281 C 424.695312 6.660156 424.871094 6.601562 424.929688 6.582031 C 425.183594 6.464844 425.4375 6.40625 425.59375 6.40625 C 425.90625 6.40625 426.042969 6.640625 426.042969 7.109375 L 426.042969 13.886719 C 426.042969 14.375 425.925781 14.726562 425.691406 14.863281 C 425.457031 14.980469 425.242188 15.039062 424.617188 15.058594 L 424.617188 15.273438 L 428.738281 15.273438 L 428.738281 15.058594 C 427.566406 15.039062 427.332031 14.882812 427.332031 14.160156 L 427.332031 5.195312 Z M 427.214844 5.175781 "/>
<path style=" stroke:none;fill-rule:nonzero;fill:rgb(0%,0%,0%);fill-opacity:1;" d="M 436.992188 5.058594 C 435.292969 5.195312 434.433594 5.488281 433.339844 6.25 C 431.71875 7.402344 430.839844 9.101562 430.839844 11.113281 C 430.839844 12.402344 431.25 13.710938 431.894531 14.472656 C 432.460938 15.117188 433.261719 15.488281 434.179688 15.488281 C 436.035156 15.488281 437.324219 14.0625 437.324219 11.992188 C 437.324219 10.097656 436.230469 8.886719 434.511719 8.886719 C 433.867188 8.886719 433.535156 8.984375 432.597656 9.550781 C 433.007812 7.285156 434.6875 5.683594 437.03125 5.292969 Z M 433.945312 9.570312 C 435.234375 9.570312 435.976562 10.644531 435.976562 12.5 C 435.976562 14.160156 435.390625 15.058594 434.355469 15.058594 C 433.027344 15.058594 432.226562 13.652344 432.226562 11.347656 C 432.226562 10.585938 432.34375 10.15625 432.65625 9.941406 C 432.96875 9.707031 433.417969 9.570312 433.945312 9.570312 Z M 433.945312 9.570312 "/>
<path style=" stroke:none;fill-rule:nonzero;fill:rgb(0%,0%,0%);fill-opacity:1;" d="M 444.464844 5.058594 C 442.765625 5.195312 441.90625 5.488281 440.8125 6.25 C 439.191406 7.402344 438.3125 9.101562 438.3125 11.113281 C 438.3125 12.402344 438.722656 13.710938 439.367188 14.472656 C 439.933594 15.117188 440.734375 15.488281 441.652344 15.488281 C 443.507812 15.488281 444.796875 14.0625 444.796875 11.992188 C 444.796875 10.097656 443.703125 8.886719 441.984375 8.886719 C 441.339844 8.886719 441.007812 8.984375 440.070312 9.550781 C 440.480469 7.285156 442.160156 5.683594 444.503906 5.292969 Z M 441.417969 9.570312 C 442.707031 9.570312 443.449219 10.644531 443.449219 12.5 C 443.449219 14.160156 442.863281 15.058594 441.828125 15.058594 C 440.5 15.058594 439.699219 13.652344 439.699219 11.347656 C 439.699219 10.585938 439.816406 10.15625 440.128906 9.941406 C 440.441406 9.707031 440.890625 9.570312 441.417969 9.570312 Z M 441.417969 9.570312 "/>
<path style=" stroke:none;fill-rule:nonzero;fill:rgb(0%,0%,0%);fill-opacity:1;" d="M 447.972656 6.5625 L 450.902344 6.5625 C 451.15625 6.5625 451.214844 6.523438 451.253906 6.425781 L 451.820312 5.097656 L 451.683594 5 C 451.46875 5.3125 451.3125 5.390625 451 5.390625 L 447.875 5.390625 L 446.253906 8.925781 C 446.234375 8.945312 446.234375 8.964844 446.234375 9.003906 C 446.234375 9.082031 446.292969 9.121094 446.410156 9.121094 C 446.898438 9.121094 447.484375 9.21875 448.109375 9.414062 C 449.828125 9.960938 450.609375 10.898438 450.609375 12.382812 C 450.609375 13.808594 449.691406 14.921875 448.539062 14.921875 C 448.226562 14.921875 447.972656 14.824219 447.542969 14.492188 C 447.054688 14.160156 446.703125 14.003906 446.390625 14.003906 C 445.960938 14.003906 445.746094 14.179688 445.746094 14.550781 C 445.746094 15.117188 446.449219 15.488281 447.582031 15.488281 C 448.832031 15.488281 449.90625 15.078125 450.648438 14.316406 C 451.351562 13.652344 451.664062 12.792969 451.664062 11.660156 C 451.664062 10.585938 451.371094 9.902344 450.628906 9.140625 C 449.964844 8.496094 449.125 8.144531 447.347656 7.832031 Z M 447.972656 6.5625 "/>
<path style=" stroke:none;fill-rule:nonzero;fill:rgb(0%,0%,0%);fill-opacity:1;" d="M 457.070312 11.425781 L 457.070312 12.382812 L 460.742188 12.382812 L 460.742188 11.425781 Z M 457.070312 11.425781 "/>
<path style=" stroke:none;fill-rule:nonzero;fill:rgb(0%,0%,0%);fill-opacity:1;" d="M 463.746094 10.351562 C 464.625 10.351562 464.976562 10.371094 465.328125 10.507812 C 466.265625 10.839844 466.832031 11.679688 466.832031 12.714844 C 466.832031 13.964844 465.992188 14.941406 464.878906 14.941406 C 464.488281 14.941406 464.175781 14.84375 463.628906 14.472656 C 463.179688 14.21875 462.925781 14.101562 462.671875 14.101562 C 462.320312 14.101562 462.105469 14.316406 462.105469 14.628906 C 462.105469 15.15625 462.75 15.488281 463.785156 15.488281 C 464.9375 15.488281 466.128906 15.097656 466.832031 14.472656 C 467.535156 13.867188 467.90625 13.007812 467.90625 11.992188 C 467.90625 11.230469 467.671875 10.527344 467.242188 10.078125 C 466.949219 9.746094 466.65625 9.570312 466.011719 9.277344 C 467.027344 8.574219 467.398438 8.027344 467.398438 7.226562 C 467.398438 6.015625 466.460938 5.175781 465.074219 5.175781 C 464.332031 5.175781 463.667969 5.429688 463.140625 5.898438 C 462.691406 6.308594 462.457031 6.699219 462.125 7.597656 L 462.359375 7.65625 C 462.964844 6.5625 463.648438 6.074219 464.585938 6.074219 C 465.5625 6.074219 466.226562 6.71875 466.226562 7.675781 C 466.226562 8.203125 466.011719 8.75 465.621094 9.121094 C 465.171875 9.570312 464.761719 9.785156 463.746094 10.15625 Z M 463.746094 10.351562 "/>
<path style=" stroke:none;fill-rule:nonzero;fill:rgb(0%,0%,0%);fill-opacity:1;" d="M 470.808594 13.789062 C 470.359375 13.789062 469.988281 14.160156 469.988281 14.628906 C 469.988281 15.058594 470.359375 15.429688 470.789062 15.429688 C 471.257812 15.429688 471.628906 15.058594 471.628906 14.628906 C 471.628906 14.160156 471.257812 13.789062 470.808594 13.789062 Z M 470.808594 13.789062 "/>
<path style=" stroke:none;fill-rule:nonzero;fill:rgb(0%,0%,0%);fill-opacity:1;" d="M 479.175781 13.789062 C 478.726562 13.789062 478.355469 14.160156 478.355469 14.628906 C 478.355469 15.058594 478.726562 15.429688 479.15625 15.429688 C 479.625 15.429688 479.996094 15.058594 479.996094 14.628906 C 479.996094 14.160156 479.625 13.789062 479.175781 13.789062 Z M 479.175781 13.789062 "/>
<path style=" stroke:none;fill-rule:nonzero;fill:rgb(0%,0%,0%);fill-opacity:1;" d="M 488.128906 13.222656 L 487.933594 13.144531 C 487.386719 14.003906 487.191406 14.140625 486.527344 14.140625 L 482.953125 14.140625 L 485.453125 11.503906 C 486.800781 10.117188 487.367188 8.984375 487.367188 7.8125 C 487.367188 6.328125 486.15625 5.175781 484.613281 5.175781 C 483.792969 5.175781 483.011719 5.507812 482.464844 6.09375 C 481.976562 6.601562 481.761719 7.089844 481.507812 8.144531 L 481.820312 8.222656 C 482.40625 6.757812 482.953125 6.269531 483.988281 6.269531 C 485.238281 6.269531 486.097656 7.128906 486.097656 8.378906 C 486.097656 9.550781 485.394531 10.9375 484.144531 12.265625 L 481.488281 15.097656 L 481.488281 15.273438 L 487.308594 15.273438 Z M 488.128906 13.222656 "/>
<path style=" stroke:none;fill-rule:nonzero;fill:rgb(0%,0%,0%);fill-opacity:1;" d="M 495.601562 13.222656 L 495.40625 13.144531 C 494.859375 14.003906 494.664062 14.140625 494 14.140625 L 490.425781 14.140625 L 492.925781 11.503906 C 494.273438 10.117188 494.839844 8.984375 494.839844 7.8125 C 494.839844 6.328125 493.628906 5.175781 492.085938 5.175781 C 491.265625 5.175781 490.484375 5.507812 489.9375 6.09375 C 489.449219 6.601562 489.234375 7.089844 488.980469 8.144531 L 489.292969 8.222656 C 489.878906 6.757812 490.425781 6.269531 491.460938 6.269531 C 492.710938 6.269531 493.570312 7.128906 493.570312 8.378906 C 493.570312 9.550781 492.867188 10.9375 491.617188 12.265625 L 488.960938 15.097656 L 488.960938 15.273438 L 494.78125 15.273438 Z M 495.601562 13.222656 "/>
<path style=" stroke:none;fill-rule:nonzero;fill:rgb(0%,0%,0%);fill-opacity:1;" d="M 502.640625 5.058594 C 500.941406 5.195312 500.082031 5.488281 498.988281 6.25 C 497.367188 7.402344 496.488281 9.101562 496.488281 11.113281 C 496.488281 12.402344 496.898438 13.710938 497.542969 14.472656 C 498.109375 15.117188 498.910156 15.488281 499.828125 15.488281 C 501.683594 15.488281 502.972656 14.0625 502.972656 11.992188 C 502.972656 10.097656 501.878906 8.886719 500.160156 8.886719 C 499.515625 8.886719 499.183594 8.984375 498.246094 9.550781 C 498.65625 7.285156 500.335938 5.683594 502.679688 5.292969 Z M 499.59375 9.570312 C 500.882812 9.570312 501.625 10.644531 501.625 12.5 C 501.625 14.160156 501.039062 15.058594 500.003906 15.058594 C 498.675781 15.058594 497.875 13.652344 497.875 11.347656 C 497.875 10.585938 497.992188 10.15625 498.304688 9.941406 C 498.617188 9.707031 499.066406 9.570312 499.59375 9.570312 Z M 499.59375 9.570312 "/>
<path style=" stroke:none;fill-rule:nonzero;fill:rgb(0%,0%,0%);fill-opacity:1;" d="M 506.148438 6.5625 L 509.078125 6.5625 C 509.332031 6.5625 509.390625 6.523438 509.429688 6.425781 L 509.996094 5.097656 L 509.859375 5 C 509.644531 5.3125 509.488281 5.390625 509.175781 5.390625 L 506.050781 5.390625 L 504.429688 8.925781 C 504.410156 8.945312 504.410156 8.964844 504.410156 9.003906 C 504.410156 9.082031 504.46875 9.121094 504.585938 9.121094 C 505.074219 9.121094 505.660156 9.21875 506.285156 9.414062 C 508.003906 9.960938 508.785156 10.898438 508.785156 12.382812 C 508.785156 13.808594 507.867188 14.921875 506.714844 14.921875 C 506.402344 14.921875 506.148438 14.824219 505.71875 14.492188 C 505.230469 14.160156 504.878906 14.003906 504.566406 14.003906 C 504.136719 14.003906 503.921875 14.179688 503.921875 14.550781 C 503.921875 15.117188 504.625 15.488281 505.757812 15.488281 C 507.007812 15.488281 508.082031 15.078125 508.824219 14.316406 C 509.527344 13.652344 509.839844 12.792969 509.839844 11.660156 C 509.839844 10.585938 509.546875 9.902344 508.804688 9.140625 C 508.140625 8.496094 507.300781 8.144531 505.523438 7.832031 Z M 506.148438 6.5625 "/>
<path style=" stroke:none;fill-rule:nonzero;fill:rgb(0%,0%,0%);fill-opacity:1;" d="M 515.246094 11.425781 L 515.246094 12.382812 L 518.917969 12.382812 L 518.917969 11.425781 Z M 515.246094 11.425781 "/>
<path style=" stroke:none;fill-rule:nonzero;fill:rgb(0%,0%,0%);fill-opacity:1;" d="M 526.726562 13.222656 L 526.53125 13.144531 C 525.984375 14.003906 525.789062 14.140625 525.125 14.140625 L 521.550781 14.140625 L 524.050781 11.503906 C 525.398438 10.117188 525.964844 8.984375 525.964844 7.8125 C 525.964844 6.328125 524.753906 5.175781 523.210938 5.175781 C 522.390625 5.175781 521.609375 5.507812 521.0625 6.09375 C 520.574219 6.601562 520.359375 7.089844 520.105469 8.144531 L 520.417969 8.222656 C 521.003906 6.757812 521.550781 6.269531 522.585938 6.269531 C 523.835938 6.269531 524.695312 7.128906 524.695312 8.378906 C 524.695312 9.550781 523.992188 10.9375 522.742188 12.265625 L 520.085938 15.097656 L 520.085938 15.273438 L 525.90625 15.273438 Z M 526.726562 13.222656 "/>
<path style=" stroke:none;fill-rule:nonzero;fill:rgb(0%,0%,0%);fill-opacity:1;" d="M 528.984375 13.789062 C 528.535156 13.789062 528.164062 14.160156 528.164062 14.628906 C 528.164062 15.058594 528.535156 15.429688 528.964844 15.429688 C 529.433594 15.429688 529.804688 15.058594 529.804688 14.628906 C 529.804688 14.160156 529.433594 13.789062 528.984375 13.789062 Z M 528.984375 13.789062 "/>
<path style=" stroke:none;fill-rule:nonzero;fill:rgb(0%,0%,0%);fill-opacity:1;" d="M 537.355469 13.789062 C 536.90625 13.789062 536.535156 14.160156 536.535156 14.628906 C 536.535156 15.058594 536.90625 15.429688 537.335938 15.429688 C 537.804688 15.429688 538.175781 15.058594 538.175781 14.628906 C 538.175781 14.160156 537.804688 13.789062 537.355469 13.789062 Z M 537.355469 13.789062 "/>
<path style=" stroke:none;fill-rule:nonzero;fill:rgb(0%,0%,0%);fill-opacity:1;" d="M 546.304688 13.222656 L 546.109375 13.144531 C 545.5625 14.003906 545.367188 14.140625 544.703125 14.140625 L 541.128906 14.140625 L 543.628906 11.503906 C 544.976562 10.117188 545.542969 8.984375 545.542969 7.8125 C 545.542969 6.328125 544.332031 5.175781 542.789062 5.175781 C 541.96875 5.175781 541.1875 5.507812 540.640625 6.09375 C 540.152344 6.601562 539.9375 7.089844 539.683594 8.144531 L 539.996094 8.222656 C 540.582031 6.757812 541.128906 6.269531 542.164062 6.269531 C 543.414062 6.269531 544.273438 7.128906 544.273438 8.378906 C 544.273438 9.550781 543.570312 10.9375 542.320312 12.265625 L 539.664062 15.097656 L 539.664062 15.273438 L 545.484375 15.273438 Z M 546.304688 13.222656 "/>
<path style=" stroke:none;fill-rule:nonzero;fill:rgb(0%,0%,0%);fill-opacity:1;" d="M 551.023438 9.726562 C 552.507812 8.945312 553.015625 8.320312 553.015625 7.285156 C 553.015625 6.074219 551.941406 5.175781 550.457031 5.175781 C 548.816406 5.175781 547.605469 6.171875 547.605469 7.539062 C 547.605469 8.496094 547.898438 8.945312 549.460938 10.3125 C 547.859375 11.542969 547.527344 11.992188 547.527344 13.007812 C 547.527344 14.472656 548.699219 15.488281 550.398438 15.488281 C 552.195312 15.488281 553.328125 14.492188 553.328125 12.949219 C 553.328125 11.816406 552.820312 11.074219 551.023438 9.726562 Z M 550.75 11.269531 C 551.84375 12.050781 552.195312 12.578125 552.195312 13.417969 C 552.195312 14.394531 551.53125 15.058594 550.554688 15.058594 C 549.421875 15.058594 548.660156 14.199219 548.660156 12.890625 C 548.660156 11.933594 548.992188 11.308594 549.851562 10.605469 Z M 550.59375 9.453125 C 549.265625 8.59375 548.71875 7.910156 548.71875 7.070312 C 548.71875 6.210938 549.382812 5.585938 550.339844 5.585938 C 551.355469 5.585938 552 6.25 552 7.285156 C 552 8.125 551.570312 8.808594 550.730469 9.375 C 550.652344 9.414062 550.652344 9.414062 550.59375 9.453125 Z M 550.59375 9.453125 "/>
<path style=" stroke:none;fill-rule:nonzero;fill:rgb(0%,0%,0%);fill-opacity:1;" d="M 555.039062 15.605469 C 556.71875 15.410156 557.539062 15.117188 558.554688 14.394531 C 560.097656 13.261719 561.015625 11.40625 561.015625 9.394531 C 561.015625 6.914062 559.648438 5.175781 557.714844 5.175781 C 555.9375 5.175781 554.609375 6.679688 554.609375 8.691406 C 554.609375 10.527344 555.683594 11.738281 557.304688 11.738281 C 558.125 11.738281 558.75 11.484375 559.53125 10.878906 C 558.925781 13.320312 557.265625 14.921875 555 15.3125 Z M 559.570312 9.960938 C 559.570312 10.273438 559.511719 10.410156 559.335938 10.527344 C 558.925781 10.898438 558.378906 11.09375 557.832031 11.09375 C 556.699219 11.09375 555.976562 9.960938 555.976562 8.183594 C 555.976562 7.34375 556.230469 6.445312 556.542969 6.054688 C 556.796875 5.761719 557.167969 5.585938 557.597656 5.585938 C 558.90625 5.585938 559.570312 6.875 559.570312 9.394531 Z M 559.570312 9.960938 "/>
<path style=" stroke:none;fill-rule:nonzero;fill:rgb(0%,0%,0%);fill-opacity:1;" d="M 565.988281 5.175781 L 563.292969 6.523438 L 563.292969 6.738281 C 563.46875 6.660156 563.644531 6.601562 563.703125 6.582031 C 563.957031 6.464844 564.210938 6.40625 564.367188 6.40625 C 564.679688 6.40625 564.816406 6.640625 564.816406 7.109375 L 564.816406 13.886719 C 564.816406 14.375 564.699219 14.726562 564.464844 14.863281 C 564.230469 14.980469 564.015625 15.039062 563.390625 15.058594 L 563.390625 15.273438 L 567.511719 15.273438 L 567.511719 15.058594 C 566.339844 15.039062 566.105469 14.882812 566.105469 14.160156 L 566.105469 5.195312 Z M 565.988281 5.175781 "/>
<path style=" stroke:none;fill-rule:nonzero;fill:rgb(0%,0%,0%);fill-opacity:1;" d="M 573.425781 11.425781 L 573.425781 12.382812 L 577.097656 12.382812 L 577.097656 11.425781 Z M 573.425781 11.425781 "/>
<path style=" stroke:none;fill-rule:nonzero;fill:rgb(0%,0%,0%);fill-opacity:1;" d="M 582.171875 5.175781 L 579.476562 6.523438 L 579.476562 6.738281 C 579.652344 6.660156 579.828125 6.601562 579.886719 6.582031 C 580.140625 6.464844 580.394531 6.40625 580.550781 6.40625 C 580.863281 6.40625 581 6.640625 581 7.109375 L 581 13.886719 C 581 14.375 580.882812 14.726562 580.648438 14.863281 C 580.414062 14.980469 580.199219 15.039062 579.574219 15.058594 L 579.574219 15.273438 L 583.695312 15.273438 L 583.695312 15.058594 C 582.523438 15.039062 582.289062 14.882812 582.289062 14.160156 L 582.289062 5.195312 Z M 582.171875 5.175781 "/>
<path style=" stroke:none;fill-rule:nonzero;fill:rgb(0%,0%,0%);fill-opacity:1;" d="M 587.164062 13.789062 C 586.714844 13.789062 586.34375 14.160156 586.34375 14.628906 C 586.34375 15.058594 586.714844 15.429688 587.144531 15.429688 C 587.613281 15.429688 587.984375 15.058594 587.984375 14.628906 C 587.984375 14.160156 587.613281 13.789062 587.164062 13.789062 Z M 587.164062 13.789062 "/>
<path style=" stroke:none;fill-rule:nonzero;fill:rgb(0%,0%,0%);fill-opacity:1;" d="M 595.53125 13.789062 C 595.082031 13.789062 594.710938 14.160156 594.710938 14.628906 C 594.710938 15.058594 595.082031 15.429688 595.511719 15.429688 C 595.980469 15.429688 596.351562 15.058594 596.351562 14.628906 C 596.351562 14.160156 595.980469 13.789062 595.53125 13.789062 Z M 595.53125 13.789062 "/>
<path style=" stroke:none;fill-rule:nonzero;fill:rgb(0%,0%,0%);fill-opacity:1;" d="M 599.675781 10.351562 C 600.554688 10.351562 600.90625 10.371094 601.257812 10.507812 C 602.195312 10.839844 602.761719 11.679688 602.761719 12.714844 C 602.761719 13.964844 601.921875 14.941406 600.808594 14.941406 C 600.417969 14.941406 600.105469 14.84375 599.558594 14.472656 C 599.109375 14.21875 598.855469 14.101562 598.601562 14.101562 C 598.25 14.101562 598.035156 14.316406 598.035156 14.628906 C 598.035156 15.15625 598.679688 15.488281 599.714844 15.488281 C 600.867188 15.488281 602.058594 15.097656 602.761719 14.472656 C 603.464844 13.867188 603.835938 13.007812 603.835938 11.992188 C 603.835938 11.230469 603.601562 10.527344 603.171875 10.078125 C 602.878906 9.746094 602.585938 9.570312 601.941406 9.277344 C 602.957031 8.574219 603.328125 8.027344 603.328125 7.226562 C 603.328125 6.015625 602.390625 5.175781 601.003906 5.175781 C 600.261719 5.175781 599.597656 5.429688 599.070312 5.898438 C 598.621094 6.308594 598.386719 6.699219 598.054688 7.597656 L 598.289062 7.65625 C 598.894531 6.5625 599.578125 6.074219 600.515625 6.074219 C 601.492188 6.074219 602.15625 6.71875 602.15625 7.675781 C 602.15625 8.203125 601.941406 8.75 601.550781 9.121094 C 601.101562 9.570312 600.691406 9.785156 599.675781 10.15625 Z M 599.675781 10.351562 "/>
<path style=" stroke:none;fill-rule:nonzero;fill:rgb(0%,0%,0%);fill-opacity:1;" d="M 609.21875 5.175781 L 606.523438 6.523438 L 606.523438 6.738281 C 606.699219 6.660156 606.875 6.601562 606.933594 6.582031 C 607.1875 6.464844 607.441406 6.40625 607.597656 6.40625 C 607.910156 6.40625 608.046875 6.640625 608.046875 7.109375 L 608.046875 13.886719 C 608.046875 14.375 607.929688 14.726562 607.695312 14.863281 C 607.460938 14.980469 607.246094 15.039062 606.621094 15.058594 L 606.621094 15.273438 L 610.742188 15.273438 L 610.742188 15.058594 C 609.570312 15.039062 609.335938 14.882812 609.335938 14.160156 L 609.335938 5.195312 Z M 609.21875 5.175781 "/>
<path style=" stroke:none;fill-rule:nonzero;fill:rgb(0%,0%,0%);fill-opacity:1;" d="M 616.671875 9.726562 C 618.15625 8.945312 618.664062 8.320312 618.664062 7.285156 C 618.664062 6.074219 617.589844 5.175781 616.105469 5.175781 C 614.464844 5.175781 613.253906 6.171875 613.253906 7.539062 C 613.253906 8.496094 613.546875 8.945312 615.109375 10.3125 C 613.507812 11.542969 613.175781 11.992188 613.175781 13.007812 C 613.175781 14.472656 614.347656 15.488281 616.046875 15.488281 C 617.84375 15.488281 618.976562 14.492188 618.976562 12.949219 C 618.976562 11.816406 618.46875 11.074219 616.671875 9.726562 Z M 616.398438 11.269531 C 617.492188 12.050781 617.84375 12.578125 617.84375 13.417969 C 617.84375 14.394531 617.179688 15.058594 616.203125 15.058594 C 615.070312 15.058594 614.308594 14.199219 614.308594 12.890625 C 614.308594 11.933594 614.640625 11.308594 615.5 10.605469 Z M 616.242188 9.453125 C 614.914062 8.59375 614.367188 7.910156 614.367188 7.070312 C 614.367188 6.210938 615.03125 5.585938 615.988281 5.585938 C 617.003906 5.585938 617.648438 6.25 617.648438 7.285156 C 617.648438 8.125 617.21875 8.808594 616.378906 9.375 C 616.300781 9.414062 616.300781 9.414062 616.242188 9.453125 Z M 616.242188 9.453125 "/>
<path style=" stroke:none;fill-rule:nonzero;fill:rgb(0%,0%,0%);fill-opacity:1;" d="M 622.09375 10.351562 C 622.972656 10.351562 623.324219 10.371094 623.675781 10.507812 C 624.613281 10.839844 625.179688 11.679688 625.179688 12.714844 C 625.179688 13.964844 624.339844 14.941406 623.226562 14.941406 C 622.835938 14.941406 622.523438 14.84375 621.976562 14.472656 C 621.527344 14.21875 621.273438 14.101562 621.019531 14.101562 C 620.667969 14.101562 620.453125 14.316406 620.453125 14.628906 C 620.453125 15.15625 621.097656 15.488281 622.132812 15.488281 C 623.285156 15.488281 624.476562 15.097656 625.179688 14.472656 C 625.882812 13.867188 626.253906 13.007812 626.253906 11.992188 C 626.253906 11.230469 626.019531 10.527344 625.589844 10.078125 C 625.296875 9.746094 625.003906 9.570312 624.359375 9.277344 C 625.375 8.574219 625.746094 8.027344 625.746094 7.226562 C 625.746094 6.015625 624.808594 5.175781 623.421875 5.175781 C 622.679688 5.175781 622.015625 5.429688 621.488281 5.898438 C 621.039062 6.308594 620.804688 6.699219 620.472656 7.597656 L 620.707031 7.65625 C 621.3125 6.5625 621.996094 6.074219 622.933594 6.074219 C 623.910156 6.074219 624.574219 6.71875 624.574219 7.675781 C 624.574219 8.203125 624.359375 8.75 623.96875 9.121094 C 623.519531 9.570312 623.109375 9.785156 622.09375 10.15625 Z M 622.09375 10.351562 "/>
<path style=" stroke:none;fill-rule:nonzero;fill:rgb(0%,0%,0%);fill-opacity:1;" d="M 634.804688 5.175781 C 633.984375 5.175781 633.359375 5.429688 632.8125 5.957031 C 631.933594 6.777344 631.367188 8.496094 631.367188 10.253906 C 631.367188 11.875 631.875 13.632812 632.578125 14.472656 C 633.125 15.117188 633.886719 15.488281 634.746094 15.488281 C 635.507812 15.488281 636.152344 15.234375 636.699219 14.707031 C 637.558594 13.886719 638.125 12.148438 638.125 10.351562 C 638.125 7.285156 636.777344 5.175781 634.804688 5.175781 Z M 634.765625 5.566406 C 636.015625 5.566406 636.699219 7.246094 636.699219 10.371094 C 636.699219 13.496094 636.035156 15.097656 634.746094 15.097656 C 633.457031 15.097656 632.8125 13.496094 632.8125 10.390625 C 632.8125 7.226562 633.476562 5.566406 634.765625 5.566406 Z M 634.765625 5.566406 "/>
<path style=" stroke:none;fill-rule:nonzero;fill:rgb(0%,0%,0%);fill-opacity:1;" d="M 644.097656 13.789062 C 643.648438 13.789062 643.277344 14.160156 643.277344 14.628906 C 643.277344 15.058594 643.648438 15.429688 644.078125 15.429688 C 644.546875 15.429688 644.917969 15.058594 644.917969 14.628906 C 644.917969 14.160156 644.546875 13.789062 644.097656 13.789062 Z M 644.097656 13.789062 "/>
<path style=" stroke:none;fill-rule:nonzero;fill:rgb(0%,0%,0%);fill-opacity:1;" d="M 653.050781 13.222656 L 652.855469 13.144531 C 652.308594 14.003906 652.113281 14.140625 651.449219 14.140625 L 647.875 14.140625 L 650.375 11.503906 C 651.722656 10.117188 652.289062 8.984375 652.289062 7.8125 C 652.289062 6.328125 651.078125 5.175781 649.535156 5.175781 C 648.714844 5.175781 647.933594 5.507812 647.386719 6.09375 C 646.898438 6.601562 646.683594 7.089844 646.429688 8.144531 L 646.742188 8.222656 C 647.328125 6.757812 647.875 6.269531 648.910156 6.269531 C 650.160156 6.269531 651.019531 7.128906 651.019531 8.378906 C 651.019531 9.550781 650.316406 10.9375 649.066406 12.265625 L 646.410156 15.097656 L 646.410156 15.273438 L 652.230469 15.273438 Z M 653.050781 13.222656 "/>
<path style=" stroke:none;fill-rule:nonzero;fill:rgb(0%,0%,0%);fill-opacity:1;" d="M 657.769531 9.726562 C 659.253906 8.945312 659.761719 8.320312 659.761719 7.285156 C 659.761719 6.074219 658.6875 5.175781 657.203125 5.175781 C 655.5625 5.175781 654.351562 6.171875 654.351562 7.539062 C 654.351562 8.496094 654.644531 8.945312 656.207031 10.3125 C 654.605469 11.542969 654.273438 11.992188 654.273438 13.007812 C 654.273438 14.472656 655.445312 15.488281 657.144531 15.488281 C 658.941406 15.488281 660.074219 14.492188 660.074219 12.949219 C 660.074219 11.816406 659.566406 11.074219 657.769531 9.726562 Z M 657.496094 11.269531 C 658.589844 12.050781 658.941406 12.578125 658.941406 13.417969 C 658.941406 14.394531 658.277344 15.058594 657.300781 15.058594 C 656.167969 15.058594 655.40625 14.199219 655.40625 12.890625 C 655.40625 11.933594 655.738281 11.308594 656.597656 10.605469 Z M 657.339844 9.453125 C 656.011719 8.59375 655.464844 7.910156 655.464844 7.070312 C 655.464844 6.210938 656.128906 5.585938 657.085938 5.585938 C 658.101562 5.585938 658.746094 6.25 658.746094 7.285156 C 658.746094 8.125 658.316406 8.808594 657.476562 9.375 C 657.398438 9.414062 657.398438 9.414062 657.339844 9.453125 Z M 657.339844 9.453125 "/>
<path style=" stroke:none;fill-rule:nonzero;fill:rgb(0%,0%,0%);fill-opacity:1;" d="M 661.78125 15.605469 C 663.460938 15.410156 664.28125 15.117188 665.296875 14.394531 C 666.839844 13.261719 667.757812 11.40625 667.757812 9.394531 C 667.757812 6.914062 666.390625 5.175781 664.457031 5.175781 C 662.679688 5.175781 661.351562 6.679688 661.351562 8.691406 C 661.351562 10.527344 662.425781 11.738281 664.046875 11.738281 C 664.867188 11.738281 665.492188 11.484375 666.273438 10.878906 C 665.667969 13.320312 664.007812 14.921875 661.742188 15.3125 Z M 666.3125 9.960938 C 666.3125 10.273438 666.253906 10.410156 666.078125 10.527344 C 665.667969 10.898438 665.121094 11.09375 664.574219 11.09375 C 663.441406 11.09375 662.71875 9.960938 662.71875 8.183594 C 662.71875 7.34375 662.972656 6.445312 663.285156 6.054688 C 663.539062 5.761719 663.910156 5.585938 664.339844 5.585938 C 665.648438 5.585938 666.3125 6.875 666.3125 9.394531 Z M 666.3125 9.960938 "/>
<path style=" stroke:none;fill-rule:nonzero;fill:rgb(0%,0%,0%);fill-opacity:1;" d="M 672.730469 5.175781 L 670.035156 6.523438 L 670.035156 6.738281 C 670.210938 6.660156 670.386719 6.601562 670.445312 6.582031 C 670.699219 6.464844 670.953125 6.40625 671.109375 6.40625 C 671.421875 6.40625 671.558594 6.640625 671.558594 7.109375 L 671.558594 13.886719 C 671.558594 14.375 671.441406 14.726562 671.207031 14.863281 C 670.972656 14.980469 670.757812 15.039062 670.132812 15.058594 L 670.132812 15.273438 L 674.253906 15.273438 L 674.253906 15.058594 C 673.082031 15.039062 672.847656 14.882812 672.847656 14.160156 L 672.847656 5.195312 Z M 672.730469 5.175781 "/>
</g>
</svg>
