<?xml version="1.0" encoding="UTF-8"?>
<svg xmlns="http://www.w3.org/2000/svg" xmlns:xlink="http://www.w3.org/1999/xlink" width="606.63356pt" height="20.605469pt" viewBox="0 0 606.63356 20.605469" version="1.1">
<g id="surface601">
<path style=" stroke:none;fill-rule:nonzero;fill:rgb(0%,0%,0%);fill-opacity:1;" d="M 5 11.425781 L 5 12.382812 L 8.671875 12.382812 L 8.671875 11.425781 Z M 5 11.425781 "/>
<path style=" stroke:none;fill-rule:nonzero;fill:rgb(0%,0%,0%);fill-opacity:1;" d="M 13.746094 5.175781 L 11.050781 6.523438 L 11.050781 6.738281 C 11.226562 6.660156 11.402344 6.601562 11.460938 6.582031 C 11.714844 6.464844 11.96875 6.40625 12.125 6.40625 C 12.4375 6.40625 12.574219 6.640625 12.574219 7.109375 L 12.574219 13.886719 C 12.574219 14.375 12.457031 14.726562 12.222656 14.863281 C 11.988281 14.980469 11.773438 15.039062 11.148438 15.058594 L 11.148438 15.273438 L 15.269531 15.273438 L 15.269531 15.058594 C 14.097656 15.039062 13.863281 14.882812 13.863281 14.160156 L 13.863281 5.195312 Z M 13.746094 5.175781 "/>
<path style=" stroke:none;fill-rule:nonzero;fill:rgb(0%,0%,0%);fill-opacity:1;" d="M 18.738281 13.789062 C 18.289062 13.789062 17.917969 14.160156 17.917969 14.628906 C 17.917969 15.058594 18.289062 15.429688 18.71875 15.429688 C 19.1875 15.429688 19.558594 15.058594 19.558594 14.628906 C 19.558594 14.160156 19.1875 13.789062 18.738281 13.789062 Z M 18.738281 13.789062 "/>
<path style=" stroke:none;fill-rule:nonzero;fill:rgb(0%,0%,0%);fill-opacity:1;" d="M 32.320312 13.222656 L 32.125 13.144531 C 31.578125 14.003906 31.382812 14.140625 30.71875 14.140625 L 27.144531 14.140625 L 29.644531 11.503906 C 30.992188 10.117188 31.558594 8.984375 31.558594 7.8125 C 31.558594 6.328125 30.347656 5.175781 28.804688 5.175781 C 27.984375 5.175781 27.203125 5.507812 26.65625 6.09375 C 26.167969 6.601562 25.953125 7.089844 25.699219 8.144531 L 26.011719 8.222656 C 26.597656 6.757812 27.144531 6.269531 28.179688 6.269531 C 29.429688 6.269531 30.289062 7.128906 30.289062 8.378906 C 30.289062 9.550781 29.585938 10.9375 28.335938 12.265625 L 25.679688 15.097656 L 25.679688 15.273438 L 31.5 15.273438 Z M 32.320312 13.222656 "/>
<path style=" stroke:none;fill-rule:nonzero;fill:rgb(0%,0%,0%);fill-opacity:1;" d="M 34.578125 13.789062 C 34.128906 13.789062 33.757812 14.160156 33.757812 14.628906 C 33.757812 15.058594 34.128906 15.429688 34.558594 15.429688 C 35.027344 15.429688 35.398438 15.058594 35.398438 14.628906 C 35.398438 14.160156 35.027344 13.789062 34.578125 13.789062 Z M 34.578125 13.789062 "/>
<path style=" stroke:none;fill-rule:nonzero;fill:rgb(0%,0%,0%);fill-opacity:1;" d="M 39.132812 6.5625 L 42.0625 6.5625 C 42.316406 6.5625 42.375 6.523438 42.414062 6.425781 L 42.980469 5.097656 L 42.84375 5 C 42.628906 5.3125 42.472656 5.390625 42.160156 5.390625 L 39.035156 5.390625 L 37.414062 8.925781 C 37.394531 8.945312 37.394531 8.964844 37.394531 9.003906 C 37.394531 9.082031 37.453125 9.121094 37.570312 9.121094 C 38.058594 9.121094 38.644531 9.21875 39.269531 9.414062 C 40.988281 9.960938 41.769531 10.898438 41.769531 12.382812 C 41.769531 13.808594 40.851562 14.921875 39.699219 14.921875 C 39.386719 14.921875 39.132812 14.824219 38.703125 14.492188 C 38.214844 14.160156 37.863281 14.003906 37.550781 14.003906 C 37.121094 14.003906 36.90625 14.179688 36.90625 14.550781 C 36.90625 15.117188 37.609375 15.488281 38.742188 15.488281 C 39.992188 15.488281 41.066406 15.078125 41.808594 14.316406 C 42.511719 13.652344 42.824219 12.792969 42.824219 11.660156 C 42.824219 10.585938 42.53125 9.902344 41.789062 9.140625 C 41.125 8.496094 40.285156 8.144531 38.507812 7.832031 Z M 39.132812 6.5625 "/>
<path style=" stroke:none;fill-rule:nonzero;fill:rgb(0%,0%,0%);fill-opacity:1;" d="M 50.960938 11.816406 L 49.4375 11.816406 L 49.4375 5.175781 L 48.773438 5.175781 L 44.085938 11.816406 L 44.085938 12.773438 L 48.285156 12.773438 L 48.285156 15.273438 L 49.4375 15.273438 L 49.4375 12.773438 L 50.960938 12.773438 Z M 48.265625 11.816406 L 44.691406 11.816406 L 48.265625 6.699219 Z M 48.265625 11.816406 "/>
<path style=" stroke:none;fill-rule:nonzero;fill:rgb(0%,0%,0%);fill-opacity:1;" d="M 58.433594 11.816406 L 56.910156 11.816406 L 56.910156 5.175781 L 56.246094 5.175781 L 51.558594 11.816406 L 51.558594 12.773438 L 55.757812 12.773438 L 55.757812 15.273438 L 56.910156 15.273438 L 56.910156 12.773438 L 58.433594 12.773438 Z M 55.738281 11.816406 L 52.164062 11.816406 L 55.738281 6.699219 Z M 55.738281 11.816406 "/>
<path style=" stroke:none;fill-rule:nonzero;fill:rgb(0%,0%,0%);fill-opacity:1;" d="M 63.175781 11.425781 L 63.175781 12.382812 L 66.847656 12.382812 L 66.847656 11.425781 Z M 63.175781 11.425781 "/>
<path style=" stroke:none;fill-rule:nonzero;fill:rgb(0%,0%,0%);fill-opacity:1;" d="M 69.441406 13.789062 C 68.992188 13.789062 68.621094 14.160156 68.621094 14.628906 C 68.621094 15.058594 68.992188 15.429688 69.421875 15.429688 C 69.890625 15.429688 70.261719 15.058594 70.261719 14.628906 C 70.261719 14.160156 69.890625 13.789062 69.441406 13.789062 Z M 69.441406 13.789062 "/>
<path style=" stroke:none;fill-rule:nonzero;fill:rgb(0%,0%,0%);fill-opacity:1;" d="M 74 6.5625 L 76.929688 6.5625 C 77.183594 6.5625 77.242188 6.523438 77.28125 6.425781 L 77.847656 5.097656 L 77.710938 5 C 77.496094 5.3125 77.339844 5.390625 77.027344 5.390625 L 73.902344 5.390625 L 72.28125 8.925781 C 72.261719 8.945312 72.261719 8.964844 72.261719 9.003906 C 72.261719 9.082031 72.320312 9.121094 72.4375 9.121094 C 72.925781 9.121094 73.511719 9.21875 74.136719 9.414062 C 75.855469 9.960938 76.636719 10.898438 76.636719 12.382812 C 76.636719 13.808594 75.71875 14.921875 74.566406 14.921875 C 74.253906 14.921875 74 14.824219 73.570312 14.492188 C 73.082031 14.160156 72.730469 14.003906 72.417969 14.003906 C 71.988281 14.003906 71.773438 14.179688 71.773438 14.550781 C 71.773438 15.117188 72.476562 15.488281 73.609375 15.488281 C 74.859375 15.488281 75.933594 15.078125 76.675781 14.316406 C 77.378906 13.652344 77.691406 12.792969 77.691406 11.660156 C 77.691406 10.585938 77.398438 9.902344 76.65625 9.140625 C 75.992188 8.496094 75.152344 8.144531 73.375 7.832031 Z M 74 6.5625 "/>
<path style=" stroke:none;fill-rule:nonzero;fill:rgb(0%,0%,0%);fill-opacity:1;" d="M 82.566406 5.175781 C 81.746094 5.175781 81.121094 5.429688 80.574219 5.957031 C 79.695312 6.777344 79.128906 8.496094 79.128906 10.253906 C 79.128906 11.875 79.636719 13.632812 80.339844 14.472656 C 80.886719 15.117188 81.648438 15.488281 82.507812 15.488281 C 83.269531 15.488281 83.914062 15.234375 84.460938 14.707031 C 85.320312 13.886719 85.886719 12.148438 85.886719 10.351562 C 85.886719 7.285156 84.539062 5.175781 82.566406 5.175781 Z M 82.527344 5.566406 C 83.777344 5.566406 84.460938 7.246094 84.460938 10.371094 C 84.460938 13.496094 83.796875 15.097656 82.507812 15.097656 C 81.21875 15.097656 80.574219 13.496094 80.574219 10.390625 C 80.574219 7.226562 81.238281 5.566406 82.527344 5.566406 Z M 82.527344 5.566406 "/>
<path style=" stroke:none;fill-rule:nonzero;fill:rgb(0%,0%,0%);fill-opacity:1;" d="M 94.339844 5.175781 L 91.644531 6.523438 L 91.644531 6.738281 C 91.820312 6.660156 91.996094 6.601562 92.054688 6.582031 C 92.308594 6.464844 92.5625 6.40625 92.71875 6.40625 C 93.03125 6.40625 93.167969 6.640625 93.167969 7.109375 L 93.167969 13.886719 C 93.167969 14.375 93.050781 14.726562 92.816406 14.863281 C 92.582031 14.980469 92.367188 15.039062 91.742188 15.058594 L 91.742188 15.273438 L 95.863281 15.273438 L 95.863281 15.058594 C 94.691406 15.039062 94.457031 14.882812 94.457031 14.160156 L 94.457031 5.195312 Z M 94.339844 5.175781 "/>
<path style=" stroke:none;fill-rule:nonzero;fill:rgb(0%,0%,0%);fill-opacity:1;" d="M 99.332031 13.789062 C 98.882812 13.789062 98.511719 14.160156 98.511719 14.628906 C 98.511719 15.058594 98.882812 15.429688 99.3125 15.429688 C 99.78125 15.429688 100.152344 15.058594 100.152344 14.628906 C 100.152344 14.160156 99.78125 13.789062 99.332031 13.789062 Z M 99.332031 13.789062 "/>
<path style=" stroke:none;fill-rule:nonzero;fill:rgb(0%,0%,0%);fill-opacity:1;" d="M 108.242188 11.816406 L 106.71875 11.816406 L 106.71875 5.175781 L 106.054688 5.175781 L 101.367188 11.816406 L 101.367188 12.773438 L 105.566406 12.773438 L 105.566406 15.273438 L 106.71875 15.273438 L 106.71875 12.773438 L 108.242188 12.773438 Z M 105.546875 11.816406 L 101.972656 11.816406 L 105.546875 6.699219 Z M 105.546875 11.816406 "/>
<path style=" stroke:none;fill-rule:nonzero;fill:rgb(0%,0%,0%);fill-opacity:1;" d="M 115.714844 11.816406 L 114.191406 11.816406 L 114.191406 5.175781 L 113.527344 5.175781 L 108.839844 11.816406 L 108.839844 12.773438 L 113.039062 12.773438 L 113.039062 15.273438 L 114.191406 15.273438 L 114.191406 12.773438 L 115.714844 12.773438 Z M 113.019531 11.816406 L 109.445312 11.816406 L 113.019531 6.699219 Z M 113.019531 11.816406 "/>
<path style=" stroke:none;fill-rule:nonzero;fill:rgb(0%,0%,0%);fill-opacity:1;" d="M 120.472656 9.726562 C 121.957031 8.945312 122.464844 8.320312 122.464844 7.285156 C 122.464844 6.074219 121.390625 5.175781 119.90625 5.175781 C 118.265625 5.175781 117.054688 6.171875 117.054688 7.539062 C 117.054688 8.496094 117.347656 8.945312 118.910156 10.3125 C 117.308594 11.542969 116.976562 11.992188 116.976562 13.007812 C 116.976562 14.472656 118.148438 15.488281 119.847656 15.488281 C 121.644531 15.488281 122.777344 14.492188 122.777344 12.949219 C 122.777344 11.816406 122.269531 11.074219 120.472656 9.726562 Z M 120.199219 11.269531 C 121.292969 12.050781 121.644531 12.578125 121.644531 13.417969 C 121.644531 14.394531 120.980469 15.058594 120.003906 15.058594 C 118.871094 15.058594 118.109375 14.199219 118.109375 12.890625 C 118.109375 11.933594 118.441406 11.308594 119.300781 10.605469 Z M 120.042969 9.453125 C 118.714844 8.59375 118.167969 7.910156 118.167969 7.070312 C 118.167969 6.210938 118.832031 5.585938 119.789062 5.585938 C 120.804688 5.585938 121.449219 6.25 121.449219 7.285156 C 121.449219 8.125 121.019531 8.808594 120.179688 9.375 C 120.101562 9.414062 120.101562 9.414062 120.042969 9.453125 Z M 120.042969 9.453125 "/>
<path style=" stroke:none;fill-rule:nonzero;fill:rgb(0%,0%,0%);fill-opacity:1;" d="M 131.132812 5.175781 C 130.3125 5.175781 129.6875 5.429688 129.140625 5.957031 C 128.261719 6.777344 127.695312 8.496094 127.695312 10.253906 C 127.695312 11.875 128.203125 13.632812 128.90625 14.472656 C 129.453125 15.117188 130.214844 15.488281 131.074219 15.488281 C 131.835938 15.488281 132.480469 15.234375 133.027344 14.707031 C 133.886719 13.886719 134.453125 12.148438 134.453125 10.351562 C 134.453125 7.285156 133.105469 5.175781 131.132812 5.175781 Z M 131.09375 5.566406 C 132.34375 5.566406 133.027344 7.246094 133.027344 10.371094 C 133.027344 13.496094 132.363281 15.097656 131.074219 15.097656 C 129.785156 15.097656 129.140625 13.496094 129.140625 10.390625 C 129.140625 7.226562 129.804688 5.566406 131.09375 5.566406 Z M 131.09375 5.566406 "/>
<path style=" stroke:none;fill-rule:nonzero;fill:rgb(0%,0%,0%);fill-opacity:1;" d="M 142.90625 5.175781 L 140.210938 6.523438 L 140.210938 6.738281 C 140.386719 6.660156 140.5625 6.601562 140.621094 6.582031 C 140.875 6.464844 141.128906 6.40625 141.285156 6.40625 C 141.597656 6.40625 141.734375 6.640625 141.734375 7.109375 L 141.734375 13.886719 C 141.734375 14.375 141.617188 14.726562 141.382812 14.863281 C 141.148438 14.980469 140.933594 15.039062 140.308594 15.058594 L 140.308594 15.273438 L 144.429688 15.273438 L 144.429688 15.058594 C 143.257812 15.039062 143.023438 14.882812 143.023438 14.160156 L 143.023438 5.195312 Z M 142.90625 5.175781 "/>
<path style=" stroke:none;fill-rule:nonzero;fill:rgb(0%,0%,0%);fill-opacity:1;" d="M 147.898438 13.789062 C 147.449219 13.789062 147.078125 14.160156 147.078125 14.628906 C 147.078125 15.058594 147.449219 15.429688 147.878906 15.429688 C 148.347656 15.429688 148.71875 15.058594 148.71875 14.628906 C 148.71875 14.160156 148.347656 13.789062 147.898438 13.789062 Z M 147.898438 13.789062 "/>
<path style=" stroke:none;fill-rule:nonzero;fill:rgb(0%,0%,0%);fill-opacity:1;" d="M 156.265625 13.789062 C 155.816406 13.789062 155.445312 14.160156 155.445312 14.628906 C 155.445312 15.058594 155.816406 15.429688 156.246094 15.429688 C 156.714844 15.429688 157.085938 15.058594 157.085938 14.628906 C 157.085938 14.160156 156.714844 13.789062 156.265625 13.789062 Z M 156.265625 13.789062 "/>
<path style=" stroke:none;fill-rule:nonzero;fill:rgb(0%,0%,0%);fill-opacity:1;" d="M 160.824219 6.5625 L 163.753906 6.5625 C 164.007812 6.5625 164.066406 6.523438 164.105469 6.425781 L 164.671875 5.097656 L 164.535156 5 C 164.320312 5.3125 164.164062 5.390625 163.851562 5.390625 L 160.726562 5.390625 L 159.105469 8.925781 C 159.085938 8.945312 159.085938 8.964844 159.085938 9.003906 C 159.085938 9.082031 159.144531 9.121094 159.261719 9.121094 C 159.75 9.121094 160.335938 9.21875 160.960938 9.414062 C 162.679688 9.960938 163.460938 10.898438 163.460938 12.382812 C 163.460938 13.808594 162.542969 14.921875 161.390625 14.921875 C 161.078125 14.921875 160.824219 14.824219 160.394531 14.492188 C 159.90625 14.160156 159.554688 14.003906 159.242188 14.003906 C 158.8125 14.003906 158.597656 14.179688 158.597656 14.550781 C 158.597656 15.117188 159.300781 15.488281 160.433594 15.488281 C 161.683594 15.488281 162.757812 15.078125 163.5 14.316406 C 164.203125 13.652344 164.515625 12.792969 164.515625 11.660156 C 164.515625 10.585938 164.222656 9.902344 163.480469 9.140625 C 162.816406 8.496094 161.976562 8.144531 160.199219 7.832031 Z M 160.824219 6.5625 "/>
<path style=" stroke:none;fill-rule:nonzero;fill:rgb(0%,0%,0%);fill-opacity:1;" d="M 169.390625 5.175781 C 168.570312 5.175781 167.945312 5.429688 167.398438 5.957031 C 166.519531 6.777344 165.953125 8.496094 165.953125 10.253906 C 165.953125 11.875 166.460938 13.632812 167.164062 14.472656 C 167.710938 15.117188 168.472656 15.488281 169.332031 15.488281 C 170.09375 15.488281 170.738281 15.234375 171.285156 14.707031 C 172.144531 13.886719 172.710938 12.148438 172.710938 10.351562 C 172.710938 7.285156 171.363281 5.175781 169.390625 5.175781 Z M 169.351562 5.566406 C 170.601562 5.566406 171.285156 7.246094 171.285156 10.371094 C 171.285156 13.496094 170.621094 15.097656 169.332031 15.097656 C 168.042969 15.097656 167.398438 13.496094 167.398438 10.390625 C 167.398438 7.226562 168.0625 5.566406 169.351562 5.566406 Z M 169.351562 5.566406 "/>
<path style=" stroke:none;fill-rule:nonzero;fill:rgb(0%,0%,0%);fill-opacity:1;" d="M 178.683594 13.789062 C 178.234375 13.789062 177.863281 14.160156 177.863281 14.628906 C 177.863281 15.058594 178.234375 15.429688 178.664062 15.429688 C 179.132812 15.429688 179.503906 15.058594 179.503906 14.628906 C 179.503906 14.160156 179.132812 13.789062 178.683594 13.789062 Z M 178.683594 13.789062 "/>
<path style=" stroke:none;fill-rule:nonzero;fill:rgb(0%,0%,0%);fill-opacity:1;" d="M 184.878906 9.726562 C 186.363281 8.945312 186.871094 8.320312 186.871094 7.285156 C 186.871094 6.074219 185.796875 5.175781 184.3125 5.175781 C 182.671875 5.175781 181.460938 6.171875 181.460938 7.539062 C 181.460938 8.496094 181.753906 8.945312 183.316406 10.3125 C 181.714844 11.542969 181.382812 11.992188 181.382812 13.007812 C 181.382812 14.472656 182.554688 15.488281 184.253906 15.488281 C 186.050781 15.488281 187.183594 14.492188 187.183594 12.949219 C 187.183594 11.816406 186.675781 11.074219 184.878906 9.726562 Z M 184.605469 11.269531 C 185.699219 12.050781 186.050781 12.578125 186.050781 13.417969 C 186.050781 14.394531 185.386719 15.058594 184.410156 15.058594 C 183.277344 15.058594 182.515625 14.199219 182.515625 12.890625 C 182.515625 11.933594 182.847656 11.308594 183.707031 10.605469 Z M 184.449219 9.453125 C 183.121094 8.59375 182.574219 7.910156 182.574219 7.070312 C 182.574219 6.210938 183.238281 5.585938 184.195312 5.585938 C 185.210938 5.585938 185.855469 6.25 185.855469 7.285156 C 185.855469 8.125 185.425781 8.808594 184.585938 9.375 C 184.507812 9.414062 184.507812 9.414062 184.449219 9.453125 Z M 184.449219 9.453125 "/>
<path style=" stroke:none;fill-rule:nonzero;fill:rgb(0%,0%,0%);fill-opacity:1;" d="M 194.714844 5.390625 L 189.1875 5.390625 L 188.308594 7.578125 L 188.5625 7.695312 C 189.207031 6.679688 189.480469 6.484375 190.300781 6.484375 L 193.542969 6.484375 L 190.59375 15.390625 L 191.550781 15.390625 L 194.714844 5.625 Z M 194.714844 5.390625 "/>
<path style=" stroke:none;fill-rule:nonzero;fill:rgb(0%,0%,0%);fill-opacity:1;" d="M 199.824219 9.726562 C 201.308594 8.945312 201.816406 8.320312 201.816406 7.285156 C 201.816406 6.074219 200.742188 5.175781 199.257812 5.175781 C 197.617188 5.175781 196.40625 6.171875 196.40625 7.539062 C 196.40625 8.496094 196.699219 8.945312 198.261719 10.3125 C 196.660156 11.542969 196.328125 11.992188 196.328125 13.007812 C 196.328125 14.472656 197.5 15.488281 199.199219 15.488281 C 200.996094 15.488281 202.128906 14.492188 202.128906 12.949219 C 202.128906 11.816406 201.621094 11.074219 199.824219 9.726562 Z M 199.550781 11.269531 C 200.644531 12.050781 200.996094 12.578125 200.996094 13.417969 C 200.996094 14.394531 200.332031 15.058594 199.355469 15.058594 C 198.222656 15.058594 197.460938 14.199219 197.460938 12.890625 C 197.460938 11.933594 197.792969 11.308594 198.652344 10.605469 Z M 199.394531 9.453125 C 198.066406 8.59375 197.519531 7.910156 197.519531 7.070312 C 197.519531 6.210938 198.183594 5.585938 199.140625 5.585938 C 200.15625 5.585938 200.800781 6.25 200.800781 7.285156 C 200.800781 8.125 200.371094 8.808594 199.53125 9.375 C 199.453125 9.414062 199.453125 9.414062 199.394531 9.453125 Z M 199.394531 9.453125 "/>
<path style=" stroke:none;fill-rule:nonzero;fill:rgb(0%,0%,0%);fill-opacity:1;" d="M 205.65625 6.5625 L 208.585938 6.5625 C 208.839844 6.5625 208.898438 6.523438 208.9375 6.425781 L 209.503906 5.097656 L 209.367188 5 C 209.152344 5.3125 208.996094 5.390625 208.683594 5.390625 L 205.558594 5.390625 L 203.9375 8.925781 C 203.917969 8.945312 203.917969 8.964844 203.917969 9.003906 C 203.917969 9.082031 203.976562 9.121094 204.09375 9.121094 C 204.582031 9.121094 205.167969 9.21875 205.792969 9.414062 C 207.511719 9.960938 208.292969 10.898438 208.292969 12.382812 C 208.292969 13.808594 207.375 14.921875 206.222656 14.921875 C 205.910156 14.921875 205.65625 14.824219 205.226562 14.492188 C 204.738281 14.160156 204.386719 14.003906 204.074219 14.003906 C 203.644531 14.003906 203.429688 14.179688 203.429688 14.550781 C 203.429688 15.117188 204.132812 15.488281 205.265625 15.488281 C 206.515625 15.488281 207.589844 15.078125 208.332031 14.316406 C 209.035156 13.652344 209.347656 12.792969 209.347656 11.660156 C 209.347656 10.585938 209.054688 9.902344 208.3125 9.140625 C 207.648438 8.496094 206.808594 8.144531 205.03125 7.832031 Z M 205.65625 6.5625 "/>
<path style=" stroke:none;fill-rule:nonzero;fill:rgb(0%,0%,0%);fill-opacity:1;" d="M 218.523438 5.175781 L 215.828125 6.523438 L 215.828125 6.738281 C 216.003906 6.660156 216.179688 6.601562 216.238281 6.582031 C 216.492188 6.464844 216.746094 6.40625 216.902344 6.40625 C 217.214844 6.40625 217.351562 6.640625 217.351562 7.109375 L 217.351562 13.886719 C 217.351562 14.375 217.234375 14.726562 217 14.863281 C 216.765625 14.980469 216.550781 15.039062 215.925781 15.058594 L 215.925781 15.273438 L 220.046875 15.273438 L 220.046875 15.058594 C 218.875 15.039062 218.640625 14.882812 218.640625 14.160156 L 218.640625 5.195312 Z M 218.523438 5.175781 "/>
<path style=" stroke:none;fill-rule:nonzero;fill:rgb(0%,0%,0%);fill-opacity:1;" d="M 223.515625 13.789062 C 223.066406 13.789062 222.695312 14.160156 222.695312 14.628906 C 222.695312 15.058594 223.066406 15.429688 223.496094 15.429688 C 223.964844 15.429688 224.335938 15.058594 224.335938 14.628906 C 224.335938 14.160156 223.964844 13.789062 223.515625 13.789062 Z M 223.515625 13.789062 "/>
<path style=" stroke:none;fill-rule:nonzero;fill:rgb(0%,0%,0%);fill-opacity:1;" d="M 231.882812 13.789062 C 231.433594 13.789062 231.0625 14.160156 231.0625 14.628906 C 231.0625 15.058594 231.433594 15.429688 231.863281 15.429688 C 232.332031 15.429688 232.703125 15.058594 232.703125 14.628906 C 232.703125 14.160156 232.332031 13.789062 231.882812 13.789062 Z M 231.882812 13.789062 "/>
<path style=" stroke:none;fill-rule:nonzero;fill:rgb(0%,0%,0%);fill-opacity:1;" d="M 234.625 15.605469 C 236.304688 15.410156 237.125 15.117188 238.140625 14.394531 C 239.683594 13.261719 240.601562 11.40625 240.601562 9.394531 C 240.601562 6.914062 239.234375 5.175781 237.300781 5.175781 C 235.523438 5.175781 234.195312 6.679688 234.195312 8.691406 C 234.195312 10.527344 235.269531 11.738281 236.890625 11.738281 C 237.710938 11.738281 238.335938 11.484375 239.117188 10.878906 C 238.511719 13.320312 236.851562 14.921875 234.585938 15.3125 Z M 239.15625 9.960938 C 239.15625 10.273438 239.097656 10.410156 238.921875 10.527344 C 238.511719 10.898438 237.964844 11.09375 237.417969 11.09375 C 236.285156 11.09375 235.5625 9.960938 235.5625 8.183594 C 235.5625 7.34375 235.816406 6.445312 236.128906 6.054688 C 236.382812 5.761719 236.753906 5.585938 237.183594 5.585938 C 238.492188 5.585938 239.15625 6.875 239.15625 9.394531 Z M 239.15625 9.960938 "/>
<path style=" stroke:none;fill-rule:nonzero;fill:rgb(0%,0%,0%);fill-opacity:1;" d="M 243.5 10.351562 C 244.378906 10.351562 244.730469 10.371094 245.082031 10.507812 C 246.019531 10.839844 246.585938 11.679688 246.585938 12.714844 C 246.585938 13.964844 245.746094 14.941406 244.632812 14.941406 C 244.242188 14.941406 243.929688 14.84375 243.382812 14.472656 C 242.933594 14.21875 242.679688 14.101562 242.425781 14.101562 C 242.074219 14.101562 241.859375 14.316406 241.859375 14.628906 C 241.859375 15.15625 242.503906 15.488281 243.539062 15.488281 C 244.691406 15.488281 245.882812 15.097656 246.585938 14.472656 C 247.289062 13.867188 247.660156 13.007812 247.660156 11.992188 C 247.660156 11.230469 247.425781 10.527344 246.996094 10.078125 C 246.703125 9.746094 246.410156 9.570312 245.765625 9.277344 C 246.78125 8.574219 247.152344 8.027344 247.152344 7.226562 C 247.152344 6.015625 246.214844 5.175781 244.828125 5.175781 C 244.085938 5.175781 243.421875 5.429688 242.894531 5.898438 C 242.445312 6.308594 242.210938 6.699219 241.878906 7.597656 L 242.113281 7.65625 C 242.71875 6.5625 243.402344 6.074219 244.339844 6.074219 C 245.316406 6.074219 245.980469 6.71875 245.980469 7.675781 C 245.980469 8.203125 245.765625 8.75 245.375 9.121094 C 244.925781 9.570312 244.515625 9.785156 243.5 10.15625 Z M 243.5 10.351562 "/>
<path style=" stroke:none;fill-rule:nonzero;fill:rgb(0%,0%,0%);fill-opacity:1;" d="M 251.382812 6.5625 L 254.3125 6.5625 C 254.566406 6.5625 254.625 6.523438 254.664062 6.425781 L 255.230469 5.097656 L 255.09375 5 C 254.878906 5.3125 254.722656 5.390625 254.410156 5.390625 L 251.285156 5.390625 L 249.664062 8.925781 C 249.644531 8.945312 249.644531 8.964844 249.644531 9.003906 C 249.644531 9.082031 249.703125 9.121094 249.820312 9.121094 C 250.308594 9.121094 250.894531 9.21875 251.519531 9.414062 C 253.238281 9.960938 254.019531 10.898438 254.019531 12.382812 C 254.019531 13.808594 253.101562 14.921875 251.949219 14.921875 C 251.636719 14.921875 251.382812 14.824219 250.953125 14.492188 C 250.464844 14.160156 250.113281 14.003906 249.800781 14.003906 C 249.371094 14.003906 249.15625 14.179688 249.15625 14.550781 C 249.15625 15.117188 249.859375 15.488281 250.992188 15.488281 C 252.242188 15.488281 253.316406 15.078125 254.058594 14.316406 C 254.761719 13.652344 255.074219 12.792969 255.074219 11.660156 C 255.074219 10.585938 254.78125 9.902344 254.039062 9.140625 C 253.375 8.496094 252.535156 8.144531 250.757812 7.832031 Z M 251.382812 6.5625 "/>
<path style=" stroke:none;fill-rule:nonzero;fill:rgb(0%,0%,0%);fill-opacity:1;" d="M 260.496094 9.726562 C 261.980469 8.945312 262.488281 8.320312 262.488281 7.285156 C 262.488281 6.074219 261.414062 5.175781 259.929688 5.175781 C 258.289062 5.175781 257.078125 6.171875 257.078125 7.539062 C 257.078125 8.496094 257.371094 8.945312 258.933594 10.3125 C 257.332031 11.542969 257 11.992188 257 13.007812 C 257 14.472656 258.171875 15.488281 259.871094 15.488281 C 261.667969 15.488281 262.800781 14.492188 262.800781 12.949219 C 262.800781 11.816406 262.292969 11.074219 260.496094 9.726562 Z M 260.222656 11.269531 C 261.316406 12.050781 261.667969 12.578125 261.667969 13.417969 C 261.667969 14.394531 261.003906 15.058594 260.027344 15.058594 C 258.894531 15.058594 258.132812 14.199219 258.132812 12.890625 C 258.132812 11.933594 258.464844 11.308594 259.324219 10.605469 Z M 260.066406 9.453125 C 258.738281 8.59375 258.191406 7.910156 258.191406 7.070312 C 258.191406 6.210938 258.855469 5.585938 259.8125 5.585938 C 260.828125 5.585938 261.472656 6.25 261.472656 7.285156 C 261.472656 8.125 261.042969 8.808594 260.203125 9.375 C 260.125 9.414062 260.125 9.414062 260.066406 9.453125 Z M 260.066406 9.453125 "/>
<path style=" stroke:none;fill-rule:nonzero;fill:rgb(0%,0%,0%);fill-opacity:1;" d="M 271.722656 5.175781 L 269.027344 6.523438 L 269.027344 6.738281 C 269.203125 6.660156 269.378906 6.601562 269.4375 6.582031 C 269.691406 6.464844 269.945312 6.40625 270.101562 6.40625 C 270.414062 6.40625 270.550781 6.640625 270.550781 7.109375 L 270.550781 13.886719 C 270.550781 14.375 270.433594 14.726562 270.199219 14.863281 C 269.964844 14.980469 269.75 15.039062 269.125 15.058594 L 269.125 15.273438 L 273.246094 15.273438 L 273.246094 15.058594 C 272.074219 15.039062 271.839844 14.882812 271.839844 14.160156 L 271.839844 5.195312 Z M 271.722656 5.175781 "/>
<path style=" stroke:none;fill-rule:nonzero;fill:rgb(0%,0%,0%);fill-opacity:1;" d="M 276.714844 13.789062 C 276.265625 13.789062 275.894531 14.160156 275.894531 14.628906 C 275.894531 15.058594 276.265625 15.429688 276.695312 15.429688 C 277.164062 15.429688 277.535156 15.058594 277.535156 14.628906 C 277.535156 14.160156 277.164062 13.789062 276.714844 13.789062 Z M 276.714844 13.789062 "/>
<path style=" stroke:none;fill-rule:nonzero;fill:rgb(0%,0%,0%);fill-opacity:1;" d="M 281.273438 6.5625 L 284.203125 6.5625 C 284.457031 6.5625 284.515625 6.523438 284.554688 6.425781 L 285.121094 5.097656 L 284.984375 5 C 284.769531 5.3125 284.613281 5.390625 284.300781 5.390625 L 281.175781 5.390625 L 279.554688 8.925781 C 279.535156 8.945312 279.535156 8.964844 279.535156 9.003906 C 279.535156 9.082031 279.59375 9.121094 279.710938 9.121094 C 280.199219 9.121094 280.785156 9.21875 281.410156 9.414062 C 283.128906 9.960938 283.910156 10.898438 283.910156 12.382812 C 283.910156 13.808594 282.992188 14.921875 281.839844 14.921875 C 281.527344 14.921875 281.273438 14.824219 280.84375 14.492188 C 280.355469 14.160156 280.003906 14.003906 279.691406 14.003906 C 279.261719 14.003906 279.046875 14.179688 279.046875 14.550781 C 279.046875 15.117188 279.75 15.488281 280.882812 15.488281 C 282.132812 15.488281 283.207031 15.078125 283.949219 14.316406 C 284.652344 13.652344 284.964844 12.792969 284.964844 11.660156 C 284.964844 10.585938 284.671875 9.902344 283.929688 9.140625 C 283.265625 8.496094 282.425781 8.144531 280.648438 7.832031 Z M 281.273438 6.5625 "/>
<path style=" stroke:none;fill-rule:nonzero;fill:rgb(0%,0%,0%);fill-opacity:1;" d="M 294.140625 5.175781 L 291.445312 6.523438 L 291.445312 6.738281 C 291.621094 6.660156 291.796875 6.601562 291.855469 6.582031 C 292.109375 6.464844 292.363281 6.40625 292.519531 6.40625 C 292.832031 6.40625 292.96875 6.640625 292.96875 7.109375 L 292.96875 13.886719 C 292.96875 14.375 292.851562 14.726562 292.617188 14.863281 C 292.382812 14.980469 292.167969 15.039062 291.542969 15.058594 L 291.542969 15.273438 L 295.664062 15.273438 L 295.664062 15.058594 C 294.492188 15.039062 294.257812 14.882812 294.257812 14.160156 L 294.257812 5.195312 Z M 294.140625 5.175781 "/>
<path style=" stroke:none;fill-rule:nonzero;fill:rgb(0%,0%,0%);fill-opacity:1;" d="M 299.132812 13.789062 C 298.683594 13.789062 298.3125 14.160156 298.3125 14.628906 C 298.3125 15.058594 298.683594 15.429688 299.113281 15.429688 C 299.582031 15.429688 299.953125 15.058594 299.953125 14.628906 C 299.953125 14.160156 299.582031 13.789062 299.132812 13.789062 Z M 299.132812 13.789062 "/>
<path style=" stroke:none;fill-rule:nonzero;fill:rgb(0%,0%,0%);fill-opacity:1;" d="M 305.347656 5.175781 L 302.652344 6.523438 L 302.652344 6.738281 C 302.828125 6.660156 303.003906 6.601562 303.0625 6.582031 C 303.316406 6.464844 303.570312 6.40625 303.726562 6.40625 C 304.039062 6.40625 304.175781 6.640625 304.175781 7.109375 L 304.175781 13.886719 C 304.175781 14.375 304.058594 14.726562 303.824219 14.863281 C 303.589844 14.980469 303.375 15.039062 302.75 15.058594 L 302.75 15.273438 L 306.871094 15.273438 L 306.871094 15.058594 C 305.699219 15.039062 305.464844 14.882812 305.464844 14.160156 L 305.464844 5.195312 Z M 305.347656 5.175781 "/>
<path style=" stroke:none;fill-rule:nonzero;fill:rgb(0%,0%,0%);fill-opacity:1;" d="M 312.820312 5.175781 L 310.125 6.523438 L 310.125 6.738281 C 310.300781 6.660156 310.476562 6.601562 310.535156 6.582031 C 310.789062 6.464844 311.042969 6.40625 311.199219 6.40625 C 311.511719 6.40625 311.648438 6.640625 311.648438 7.109375 L 311.648438 13.886719 C 311.648438 14.375 311.53125 14.726562 311.296875 14.863281 C 311.0625 14.980469 310.847656 15.039062 310.222656 15.058594 L 310.222656 15.273438 L 314.34375 15.273438 L 314.34375 15.058594 C 313.171875 15.039062 312.9375 14.882812 312.9375 14.160156 L 312.9375 5.195312 Z M 312.820312 5.175781 "/>
<path style=" stroke:none;fill-rule:nonzero;fill:rgb(0%,0%,0%);fill-opacity:1;" d="M 320.292969 5.175781 L 317.597656 6.523438 L 317.597656 6.738281 C 317.773438 6.660156 317.949219 6.601562 318.007812 6.582031 C 318.261719 6.464844 318.515625 6.40625 318.671875 6.40625 C 318.984375 6.40625 319.121094 6.640625 319.121094 7.109375 L 319.121094 13.886719 C 319.121094 14.375 319.003906 14.726562 318.769531 14.863281 C 318.535156 14.980469 318.320312 15.039062 317.695312 15.058594 L 317.695312 15.273438 L 321.816406 15.273438 L 321.816406 15.058594 C 320.644531 15.039062 320.410156 14.882812 320.410156 14.160156 L 320.410156 5.195312 Z M 320.292969 5.175781 "/>
<path style=" stroke:none;fill-rule:nonzero;fill:rgb(0%,0%,0%);fill-opacity:1;" d="M 334.234375 13.222656 L 334.039062 13.144531 C 333.492188 14.003906 333.296875 14.140625 332.632812 14.140625 L 329.058594 14.140625 L 331.558594 11.503906 C 332.90625 10.117188 333.472656 8.984375 333.472656 7.8125 C 333.472656 6.328125 332.261719 5.175781 330.71875 5.175781 C 329.898438 5.175781 329.117188 5.507812 328.570312 6.09375 C 328.082031 6.601562 327.867188 7.089844 327.613281 8.144531 L 327.925781 8.222656 C 328.511719 6.757812 329.058594 6.269531 330.09375 6.269531 C 331.34375 6.269531 332.203125 7.128906 332.203125 8.378906 C 332.203125 9.550781 331.5 10.9375 330.25 12.265625 L 327.59375 15.097656 L 327.59375 15.273438 L 333.414062 15.273438 Z M 334.234375 13.222656 "/>
<path style=" stroke:none;fill-rule:nonzero;fill:rgb(0%,0%,0%);fill-opacity:1;" d="M 336.492188 13.789062 C 336.042969 13.789062 335.671875 14.160156 335.671875 14.628906 C 335.671875 15.058594 336.042969 15.429688 336.472656 15.429688 C 336.941406 15.429688 337.3125 15.058594 337.3125 14.628906 C 337.3125 14.160156 336.941406 13.789062 336.492188 13.789062 Z M 336.492188 13.789062 "/>
<path style=" stroke:none;fill-rule:nonzero;fill:rgb(0%,0%,0%);fill-opacity:1;" d="M 347.339844 5.175781 L 344.644531 6.523438 L 344.644531 6.738281 C 344.820312 6.660156 344.996094 6.601562 345.054688 6.582031 C 345.308594 6.464844 345.5625 6.40625 345.71875 6.40625 C 346.03125 6.40625 346.167969 6.640625 346.167969 7.109375 L 346.167969 13.886719 C 346.167969 14.375 346.050781 14.726562 345.816406 14.863281 C 345.582031 14.980469 345.367188 15.039062 344.742188 15.058594 L 344.742188 15.273438 L 348.863281 15.273438 L 348.863281 15.058594 C 347.691406 15.039062 347.457031 14.882812 347.457031 14.160156 L 347.457031 5.195312 Z M 347.339844 5.175781 "/>
<path style=" stroke:none;fill-rule:nonzero;fill:rgb(0%,0%,0%);fill-opacity:1;" d="M 352.332031 13.789062 C 351.882812 13.789062 351.511719 14.160156 351.511719 14.628906 C 351.511719 15.058594 351.882812 15.429688 352.3125 15.429688 C 352.78125 15.429688 353.152344 15.058594 353.152344 14.628906 C 353.152344 14.160156 352.78125 13.789062 352.332031 13.789062 Z M 352.332031 13.789062 "/>
<path style=" stroke:none;fill-rule:nonzero;fill:rgb(0%,0%,0%);fill-opacity:1;" d="M 356.476562 10.351562 C 357.355469 10.351562 357.707031 10.371094 358.058594 10.507812 C 358.996094 10.839844 359.5625 11.679688 359.5625 12.714844 C 359.5625 13.964844 358.722656 14.941406 357.609375 14.941406 C 357.21875 14.941406 356.90625 14.84375 356.359375 14.472656 C 355.910156 14.21875 355.65625 14.101562 355.402344 14.101562 C 355.050781 14.101562 354.835938 14.316406 354.835938 14.628906 C 354.835938 15.15625 355.480469 15.488281 356.515625 15.488281 C 357.667969 15.488281 358.859375 15.097656 359.5625 14.472656 C 360.265625 13.867188 360.636719 13.007812 360.636719 11.992188 C 360.636719 11.230469 360.402344 10.527344 359.972656 10.078125 C 359.679688 9.746094 359.386719 9.570312 358.742188 9.277344 C 359.757812 8.574219 360.128906 8.027344 360.128906 7.226562 C 360.128906 6.015625 359.191406 5.175781 357.804688 5.175781 C 357.0625 5.175781 356.398438 5.429688 355.871094 5.898438 C 355.421875 6.308594 355.1875 6.699219 354.855469 7.597656 L 355.089844 7.65625 C 355.695312 6.5625 356.378906 6.074219 357.316406 6.074219 C 358.292969 6.074219 358.957031 6.71875 358.957031 7.675781 C 358.957031 8.203125 358.742188 8.75 358.351562 9.121094 C 357.902344 9.570312 357.492188 9.785156 356.476562 10.15625 Z M 356.476562 10.351562 "/>
<path style=" stroke:none;fill-rule:nonzero;fill:rgb(0%,0%,0%);fill-opacity:1;" d="M 366 9.726562 C 367.484375 8.945312 367.992188 8.320312 367.992188 7.285156 C 367.992188 6.074219 366.917969 5.175781 365.433594 5.175781 C 363.792969 5.175781 362.582031 6.171875 362.582031 7.539062 C 362.582031 8.496094 362.875 8.945312 364.4375 10.3125 C 362.835938 11.542969 362.503906 11.992188 362.503906 13.007812 C 362.503906 14.472656 363.675781 15.488281 365.375 15.488281 C 367.171875 15.488281 368.304688 14.492188 368.304688 12.949219 C 368.304688 11.816406 367.796875 11.074219 366 9.726562 Z M 365.726562 11.269531 C 366.820312 12.050781 367.171875 12.578125 367.171875 13.417969 C 367.171875 14.394531 366.507812 15.058594 365.53125 15.058594 C 364.398438 15.058594 363.636719 14.199219 363.636719 12.890625 C 363.636719 11.933594 363.96875 11.308594 364.828125 10.605469 Z M 365.570312 9.453125 C 364.242188 8.59375 363.695312 7.910156 363.695312 7.070312 C 363.695312 6.210938 364.359375 5.585938 365.316406 5.585938 C 366.332031 5.585938 366.976562 6.25 366.976562 7.285156 C 366.976562 8.125 366.546875 8.808594 365.707031 9.375 C 365.628906 9.414062 365.628906 9.414062 365.570312 9.453125 Z M 365.570312 9.453125 "/>
<path style=" stroke:none;fill-rule:nonzero;fill:rgb(0%,0%,0%);fill-opacity:1;" d="M 376.1875 11.816406 L 374.664062 11.816406 L 374.664062 5.175781 L 374 5.175781 L 369.3125 11.816406 L 369.3125 12.773438 L 373.511719 12.773438 L 373.511719 15.273438 L 374.664062 15.273438 L 374.664062 12.773438 L 376.1875 12.773438 Z M 373.492188 11.816406 L 369.917969 11.816406 L 373.492188 6.699219 Z M 373.492188 11.816406 "/>
<path style=" stroke:none;fill-rule:nonzero;fill:rgb(0%,0%,0%);fill-opacity:1;" d="M 387.433594 13.222656 L 387.238281 13.144531 C 386.691406 14.003906 386.496094 14.140625 385.832031 14.140625 L 382.257812 14.140625 L 384.757812 11.503906 C 386.105469 10.117188 386.671875 8.984375 386.671875 7.8125 C 386.671875 6.328125 385.460938 5.175781 383.917969 5.175781 C 383.097656 5.175781 382.316406 5.507812 381.769531 6.09375 C 381.28125 6.601562 381.066406 7.089844 380.8125 8.144531 L 381.125 8.222656 C 381.710938 6.757812 382.257812 6.269531 383.292969 6.269531 C 384.542969 6.269531 385.402344 7.128906 385.402344 8.378906 C 385.402344 9.550781 384.699219 10.9375 383.449219 12.265625 L 380.792969 15.097656 L 380.792969 15.273438 L 386.613281 15.273438 Z M 387.433594 13.222656 "/>
<path style=" stroke:none;fill-rule:nonzero;fill:rgb(0%,0%,0%);fill-opacity:1;" d="M 389.691406 13.789062 C 389.242188 13.789062 388.871094 14.160156 388.871094 14.628906 C 388.871094 15.058594 389.242188 15.429688 389.671875 15.429688 C 390.140625 15.429688 390.511719 15.058594 390.511719 14.628906 C 390.511719 14.160156 390.140625 13.789062 389.691406 13.789062 Z M 389.691406 13.789062 "/>
<path style=" stroke:none;fill-rule:nonzero;fill:rgb(0%,0%,0%);fill-opacity:1;" d="M 394.25 6.5625 L 397.179688 6.5625 C 397.433594 6.5625 397.492188 6.523438 397.53125 6.425781 L 398.097656 5.097656 L 397.960938 5 C 397.746094 5.3125 397.589844 5.390625 397.277344 5.390625 L 394.152344 5.390625 L 392.53125 8.925781 C 392.511719 8.945312 392.511719 8.964844 392.511719 9.003906 C 392.511719 9.082031 392.570312 9.121094 392.6875 9.121094 C 393.175781 9.121094 393.761719 9.21875 394.386719 9.414062 C 396.105469 9.960938 396.886719 10.898438 396.886719 12.382812 C 396.886719 13.808594 395.96875 14.921875 394.816406 14.921875 C 394.503906 14.921875 394.25 14.824219 393.820312 14.492188 C 393.332031 14.160156 392.980469 14.003906 392.667969 14.003906 C 392.238281 14.003906 392.023438 14.179688 392.023438 14.550781 C 392.023438 15.117188 392.726562 15.488281 393.859375 15.488281 C 395.109375 15.488281 396.183594 15.078125 396.925781 14.316406 C 397.628906 13.652344 397.941406 12.792969 397.941406 11.660156 C 397.941406 10.585938 397.648438 9.902344 396.90625 9.140625 C 396.242188 8.496094 395.402344 8.144531 393.625 7.832031 Z M 394.25 6.5625 "/>
<path style=" stroke:none;fill-rule:nonzero;fill:rgb(0%,0%,0%);fill-opacity:1;" d="M 407.117188 5.175781 L 404.421875 6.523438 L 404.421875 6.738281 C 404.597656 6.660156 404.773438 6.601562 404.832031 6.582031 C 405.085938 6.464844 405.339844 6.40625 405.496094 6.40625 C 405.808594 6.40625 405.945312 6.640625 405.945312 7.109375 L 405.945312 13.886719 C 405.945312 14.375 405.828125 14.726562 405.59375 14.863281 C 405.359375 14.980469 405.144531 15.039062 404.519531 15.058594 L 404.519531 15.273438 L 408.640625 15.273438 L 408.640625 15.058594 C 407.46875 15.039062 407.234375 14.882812 407.234375 14.160156 L 407.234375 5.195312 Z M 407.117188 5.175781 "/>
<path style=" stroke:none;fill-rule:nonzero;fill:rgb(0%,0%,0%);fill-opacity:1;" d="M 412.109375 13.789062 C 411.660156 13.789062 411.289062 14.160156 411.289062 14.628906 C 411.289062 15.058594 411.660156 15.429688 412.089844 15.429688 C 412.558594 15.429688 412.929688 15.058594 412.929688 14.628906 C 412.929688 14.160156 412.558594 13.789062 412.109375 13.789062 Z M 412.109375 13.789062 "/>
<path style=" stroke:none;fill-rule:nonzero;fill:rgb(0%,0%,0%);fill-opacity:1;" d="M 420.667969 5.390625 L 415.140625 5.390625 L 414.261719 7.578125 L 414.515625 7.695312 C 415.160156 6.679688 415.433594 6.484375 416.253906 6.484375 L 419.496094 6.484375 L 416.546875 15.390625 L 417.503906 15.390625 L 420.667969 5.625 Z M 420.667969 5.390625 "/>
<path style=" stroke:none;fill-rule:nonzero;fill:rgb(0%,0%,0%);fill-opacity:1;" d="M 424.136719 6.5625 L 427.066406 6.5625 C 427.320312 6.5625 427.378906 6.523438 427.417969 6.425781 L 427.984375 5.097656 L 427.847656 5 C 427.632812 5.3125 427.476562 5.390625 427.164062 5.390625 L 424.039062 5.390625 L 422.417969 8.925781 C 422.398438 8.945312 422.398438 8.964844 422.398438 9.003906 C 422.398438 9.082031 422.457031 9.121094 422.574219 9.121094 C 423.0625 9.121094 423.648438 9.21875 424.273438 9.414062 C 425.992188 9.960938 426.773438 10.898438 426.773438 12.382812 C 426.773438 13.808594 425.855469 14.921875 424.703125 14.921875 C 424.390625 14.921875 424.136719 14.824219 423.707031 14.492188 C 423.21875 14.160156 422.867188 14.003906 422.554688 14.003906 C 422.125 14.003906 421.910156 14.179688 421.910156 14.550781 C 421.910156 15.117188 422.613281 15.488281 423.746094 15.488281 C 424.996094 15.488281 426.070312 15.078125 426.8125 14.316406 C 427.515625 13.652344 427.828125 12.792969 427.828125 11.660156 C 427.828125 10.585938 427.535156 9.902344 426.792969 9.140625 C 426.128906 8.496094 425.289062 8.144531 423.511719 7.832031 Z M 424.136719 6.5625 "/>
<path style=" stroke:none;fill-rule:nonzero;fill:rgb(0%,0%,0%);fill-opacity:1;" d="M 435.613281 5.390625 L 430.085938 5.390625 L 429.207031 7.578125 L 429.460938 7.695312 C 430.105469 6.679688 430.378906 6.484375 431.199219 6.484375 L 434.441406 6.484375 L 431.492188 15.390625 L 432.449219 15.390625 L 435.613281 5.625 Z M 435.613281 5.390625 "/>
<path style=" stroke:none;fill-rule:nonzero;fill:rgb(0%,0%,0%);fill-opacity:1;" d="M 442.40625 10.351562 C 443.285156 10.351562 443.636719 10.371094 443.988281 10.507812 C 444.925781 10.839844 445.492188 11.679688 445.492188 12.714844 C 445.492188 13.964844 444.652344 14.941406 443.539062 14.941406 C 443.148438 14.941406 442.835938 14.84375 442.289062 14.472656 C 441.839844 14.21875 441.585938 14.101562 441.332031 14.101562 C 440.980469 14.101562 440.765625 14.316406 440.765625 14.628906 C 440.765625 15.15625 441.410156 15.488281 442.445312 15.488281 C 443.597656 15.488281 444.789062 15.097656 445.492188 14.472656 C 446.195312 13.867188 446.566406 13.007812 446.566406 11.992188 C 446.566406 11.230469 446.332031 10.527344 445.902344 10.078125 C 445.609375 9.746094 445.316406 9.570312 444.671875 9.277344 C 445.6875 8.574219 446.058594 8.027344 446.058594 7.226562 C 446.058594 6.015625 445.121094 5.175781 443.734375 5.175781 C 442.992188 5.175781 442.328125 5.429688 441.800781 5.898438 C 441.351562 6.308594 441.117188 6.699219 440.785156 7.597656 L 441.019531 7.65625 C 441.625 6.5625 442.308594 6.074219 443.246094 6.074219 C 444.222656 6.074219 444.886719 6.71875 444.886719 7.675781 C 444.886719 8.203125 444.671875 8.75 444.28125 9.121094 C 443.832031 9.570312 443.421875 9.785156 442.40625 10.15625 Z M 442.40625 10.351562 "/>
<path style=" stroke:none;fill-rule:nonzero;fill:rgb(0%,0%,0%);fill-opacity:1;" d="M 449.46875 13.789062 C 449.019531 13.789062 448.648438 14.160156 448.648438 14.628906 C 448.648438 15.058594 449.019531 15.429688 449.449219 15.429688 C 449.917969 15.429688 450.289062 15.058594 450.289062 14.628906 C 450.289062 14.160156 449.917969 13.789062 449.46875 13.789062 Z M 449.46875 13.789062 "/>
<path style=" stroke:none;fill-rule:nonzero;fill:rgb(0%,0%,0%);fill-opacity:1;" d="M 463.050781 13.222656 L 462.855469 13.144531 C 462.308594 14.003906 462.113281 14.140625 461.449219 14.140625 L 457.875 14.140625 L 460.375 11.503906 C 461.722656 10.117188 462.289062 8.984375 462.289062 7.8125 C 462.289062 6.328125 461.078125 5.175781 459.535156 5.175781 C 458.714844 5.175781 457.933594 5.507812 457.386719 6.09375 C 456.898438 6.601562 456.683594 7.089844 456.429688 8.144531 L 456.742188 8.222656 C 457.328125 6.757812 457.875 6.269531 458.910156 6.269531 C 460.160156 6.269531 461.019531 7.128906 461.019531 8.378906 C 461.019531 9.550781 460.316406 10.9375 459.066406 12.265625 L 456.410156 15.097656 L 456.410156 15.273438 L 462.230469 15.273438 Z M 463.050781 13.222656 "/>
<path style=" stroke:none;fill-rule:nonzero;fill:rgb(0%,0%,0%);fill-opacity:1;" d="M 465.308594 13.789062 C 464.859375 13.789062 464.488281 14.160156 464.488281 14.628906 C 464.488281 15.058594 464.859375 15.429688 465.289062 15.429688 C 465.757812 15.429688 466.128906 15.058594 466.128906 14.628906 C 466.128906 14.160156 465.757812 13.789062 465.308594 13.789062 Z M 465.308594 13.789062 "/>
<path style=" stroke:none;fill-rule:nonzero;fill:rgb(0%,0%,0%);fill-opacity:1;" d="M 474.261719 13.222656 L 474.066406 13.144531 C 473.519531 14.003906 473.324219 14.140625 472.660156 14.140625 L 469.085938 14.140625 L 471.585938 11.503906 C 472.933594 10.117188 473.5 8.984375 473.5 7.8125 C 473.5 6.328125 472.289062 5.175781 470.746094 5.175781 C 469.925781 5.175781 469.144531 5.507812 468.597656 6.09375 C 468.109375 6.601562 467.894531 7.089844 467.640625 8.144531 L 467.953125 8.222656 C 468.539062 6.757812 469.085938 6.269531 470.121094 6.269531 C 471.371094 6.269531 472.230469 7.128906 472.230469 8.378906 C 472.230469 9.550781 471.527344 10.9375 470.277344 12.265625 L 467.621094 15.097656 L 467.621094 15.273438 L 473.441406 15.273438 Z M 474.261719 13.222656 "/>
<path style=" stroke:none;fill-rule:nonzero;fill:rgb(0%,0%,0%);fill-opacity:1;" d="M 481.691406 11.816406 L 480.167969 11.816406 L 480.167969 5.175781 L 479.503906 5.175781 L 474.816406 11.816406 L 474.816406 12.773438 L 479.015625 12.773438 L 479.015625 15.273438 L 480.167969 15.273438 L 480.167969 12.773438 L 481.691406 12.773438 Z M 478.996094 11.816406 L 475.421875 11.816406 L 478.996094 6.699219 Z M 478.996094 11.816406 "/>
<path style=" stroke:none;fill-rule:nonzero;fill:rgb(0%,0%,0%);fill-opacity:1;" d="M 488.8125 5.390625 L 483.285156 5.390625 L 482.40625 7.578125 L 482.660156 7.695312 C 483.304688 6.679688 483.578125 6.484375 484.398438 6.484375 L 487.640625 6.484375 L 484.691406 15.390625 L 485.648438 15.390625 L 488.8125 5.625 Z M 488.8125 5.390625 "/>
<path style=" stroke:none;fill-rule:nonzero;fill:rgb(0%,0%,0%);fill-opacity:1;" d="M 495.605469 10.351562 C 496.484375 10.351562 496.835938 10.371094 497.1875 10.507812 C 498.125 10.839844 498.691406 11.679688 498.691406 12.714844 C 498.691406 13.964844 497.851562 14.941406 496.738281 14.941406 C 496.347656 14.941406 496.035156 14.84375 495.488281 14.472656 C 495.039062 14.21875 494.785156 14.101562 494.53125 14.101562 C 494.179688 14.101562 493.964844 14.316406 493.964844 14.628906 C 493.964844 15.15625 494.609375 15.488281 495.644531 15.488281 C 496.796875 15.488281 497.988281 15.097656 498.691406 14.472656 C 499.394531 13.867188 499.765625 13.007812 499.765625 11.992188 C 499.765625 11.230469 499.53125 10.527344 499.101562 10.078125 C 498.808594 9.746094 498.515625 9.570312 497.871094 9.277344 C 498.886719 8.574219 499.257812 8.027344 499.257812 7.226562 C 499.257812 6.015625 498.320312 5.175781 496.933594 5.175781 C 496.191406 5.175781 495.527344 5.429688 495 5.898438 C 494.550781 6.308594 494.316406 6.699219 493.984375 7.597656 L 494.21875 7.65625 C 494.824219 6.5625 495.507812 6.074219 496.445312 6.074219 C 497.421875 6.074219 498.085938 6.71875 498.085938 7.675781 C 498.085938 8.203125 497.871094 8.75 497.480469 9.121094 C 497.03125 9.570312 496.621094 9.785156 495.605469 10.15625 Z M 495.605469 10.351562 "/>
<path style=" stroke:none;fill-rule:nonzero;fill:rgb(0%,0%,0%);fill-opacity:1;" d="M 502.667969 13.789062 C 502.21875 13.789062 501.847656 14.160156 501.847656 14.628906 C 501.847656 15.058594 502.21875 15.429688 502.648438 15.429688 C 503.117188 15.429688 503.488281 15.058594 503.488281 14.628906 C 503.488281 14.160156 503.117188 13.789062 502.667969 13.789062 Z M 502.667969 13.789062 "/>
<path style=" stroke:none;fill-rule:nonzero;fill:rgb(0%,0%,0%);fill-opacity:1;" d="M 507.226562 6.5625 L 510.15625 6.5625 C 510.410156 6.5625 510.46875 6.523438 510.507812 6.425781 L 511.074219 5.097656 L 510.9375 5 C 510.722656 5.3125 510.566406 5.390625 510.253906 5.390625 L 507.128906 5.390625 L 505.507812 8.925781 C 505.488281 8.945312 505.488281 8.964844 505.488281 9.003906 C 505.488281 9.082031 505.546875 9.121094 505.664062 9.121094 C 506.152344 9.121094 506.738281 9.21875 507.363281 9.414062 C 509.082031 9.960938 509.863281 10.898438 509.863281 12.382812 C 509.863281 13.808594 508.945312 14.921875 507.792969 14.921875 C 507.480469 14.921875 507.226562 14.824219 506.796875 14.492188 C 506.308594 14.160156 505.957031 14.003906 505.644531 14.003906 C 505.214844 14.003906 505 14.179688 505 14.550781 C 505 15.117188 505.703125 15.488281 506.835938 15.488281 C 508.085938 15.488281 509.160156 15.078125 509.902344 14.316406 C 510.605469 13.652344 510.917969 12.792969 510.917969 11.660156 C 510.917969 10.585938 510.625 9.902344 509.882812 9.140625 C 509.21875 8.496094 508.378906 8.144531 506.601562 7.832031 Z M 507.226562 6.5625 "/>
<path style=" stroke:none;fill-rule:nonzero;fill:rgb(0%,0%,0%);fill-opacity:1;" d="M 522.828125 13.222656 L 522.632812 13.144531 C 522.085938 14.003906 521.890625 14.140625 521.226562 14.140625 L 517.652344 14.140625 L 520.152344 11.503906 C 521.5 10.117188 522.066406 8.984375 522.066406 7.8125 C 522.066406 6.328125 520.855469 5.175781 519.3125 5.175781 C 518.492188 5.175781 517.710938 5.507812 517.164062 6.09375 C 516.675781 6.601562 516.460938 7.089844 516.207031 8.144531 L 516.519531 8.222656 C 517.105469 6.757812 517.652344 6.269531 518.6875 6.269531 C 519.9375 6.269531 520.796875 7.128906 520.796875 8.378906 C 520.796875 9.550781 520.09375 10.9375 518.84375 12.265625 L 516.1875 15.097656 L 516.1875 15.273438 L 522.007812 15.273438 Z M 522.828125 13.222656 "/>
<path style=" stroke:none;fill-rule:nonzero;fill:rgb(0%,0%,0%);fill-opacity:1;" d="M 525.085938 13.789062 C 524.636719 13.789062 524.265625 14.160156 524.265625 14.628906 C 524.265625 15.058594 524.636719 15.429688 525.066406 15.429688 C 525.535156 15.429688 525.90625 15.058594 525.90625 14.628906 C 525.90625 14.160156 525.535156 13.789062 525.085938 13.789062 Z M 525.085938 13.789062 "/>
<path style=" stroke:none;fill-rule:nonzero;fill:rgb(0%,0%,0%);fill-opacity:1;" d="M 531.28125 9.726562 C 532.765625 8.945312 533.273438 8.320312 533.273438 7.285156 C 533.273438 6.074219 532.199219 5.175781 530.714844 5.175781 C 529.074219 5.175781 527.863281 6.171875 527.863281 7.539062 C 527.863281 8.496094 528.15625 8.945312 529.71875 10.3125 C 528.117188 11.542969 527.785156 11.992188 527.785156 13.007812 C 527.785156 14.472656 528.957031 15.488281 530.65625 15.488281 C 532.453125 15.488281 533.585938 14.492188 533.585938 12.949219 C 533.585938 11.816406 533.078125 11.074219 531.28125 9.726562 Z M 531.007812 11.269531 C 532.101562 12.050781 532.453125 12.578125 532.453125 13.417969 C 532.453125 14.394531 531.789062 15.058594 530.8125 15.058594 C 529.679688 15.058594 528.917969 14.199219 528.917969 12.890625 C 528.917969 11.933594 529.25 11.308594 530.109375 10.605469 Z M 530.851562 9.453125 C 529.523438 8.59375 528.976562 7.910156 528.976562 7.070312 C 528.976562 6.210938 529.640625 5.585938 530.597656 5.585938 C 531.613281 5.585938 532.257812 6.25 532.257812 7.285156 C 532.257812 8.125 531.828125 8.808594 530.988281 9.375 C 530.910156 9.414062 530.910156 9.414062 530.851562 9.453125 Z M 530.851562 9.453125 "/>
<path style=" stroke:none;fill-rule:nonzero;fill:rgb(0%,0%,0%);fill-opacity:1;" d="M 538.753906 9.726562 C 540.238281 8.945312 540.746094 8.320312 540.746094 7.285156 C 540.746094 6.074219 539.671875 5.175781 538.1875 5.175781 C 536.546875 5.175781 535.335938 6.171875 535.335938 7.539062 C 535.335938 8.496094 535.628906 8.945312 537.191406 10.3125 C 535.589844 11.542969 535.257812 11.992188 535.257812 13.007812 C 535.257812 14.472656 536.429688 15.488281 538.128906 15.488281 C 539.925781 15.488281 541.058594 14.492188 541.058594 12.949219 C 541.058594 11.816406 540.550781 11.074219 538.753906 9.726562 Z M 538.480469 11.269531 C 539.574219 12.050781 539.925781 12.578125 539.925781 13.417969 C 539.925781 14.394531 539.261719 15.058594 538.285156 15.058594 C 537.152344 15.058594 536.390625 14.199219 536.390625 12.890625 C 536.390625 11.933594 536.722656 11.308594 537.582031 10.605469 Z M 538.324219 9.453125 C 536.996094 8.59375 536.449219 7.910156 536.449219 7.070312 C 536.449219 6.210938 537.113281 5.585938 538.070312 5.585938 C 539.085938 5.585938 539.730469 6.25 539.730469 7.285156 C 539.730469 8.125 539.300781 8.808594 538.460938 9.375 C 538.382812 9.414062 538.382812 9.414062 538.324219 9.453125 Z M 538.324219 9.453125 "/>
<path style=" stroke:none;fill-rule:nonzero;fill:rgb(0%,0%,0%);fill-opacity:1;" d="M 545.679688 5.175781 C 544.859375 5.175781 544.234375 5.429688 543.6875 5.957031 C 542.808594 6.777344 542.242188 8.496094 542.242188 10.253906 C 542.242188 11.875 542.75 13.632812 543.453125 14.472656 C 544 15.117188 544.761719 15.488281 545.621094 15.488281 C 546.382812 15.488281 547.027344 15.234375 547.574219 14.707031 C 548.433594 13.886719 549 12.148438 549 10.351562 C 549 7.285156 547.652344 5.175781 545.679688 5.175781 Z M 545.640625 5.566406 C 546.890625 5.566406 547.574219 7.246094 547.574219 10.371094 C 547.574219 13.496094 546.910156 15.097656 545.621094 15.097656 C 544.332031 15.097656 543.6875 13.496094 543.6875 10.390625 C 543.6875 7.226562 544.351562 5.566406 545.640625 5.566406 Z M 545.640625 5.566406 "/>
<path style=" stroke:none;fill-rule:nonzero;fill:rgb(0%,0%,0%);fill-opacity:1;" d="M 560.148438 11.816406 L 558.625 11.816406 L 558.625 5.175781 L 557.960938 5.175781 L 553.273438 11.816406 L 553.273438 12.773438 L 557.472656 12.773438 L 557.472656 15.273438 L 558.625 15.273438 L 558.625 12.773438 L 560.148438 12.773438 Z M 557.453125 11.816406 L 553.878906 11.816406 L 557.453125 6.699219 Z M 557.453125 11.816406 "/>
<path style=" stroke:none;fill-rule:nonzero;fill:rgb(0%,0%,0%);fill-opacity:1;" d="M 562.445312 13.789062 C 561.996094 13.789062 561.625 14.160156 561.625 14.628906 C 561.625 15.058594 561.996094 15.429688 562.425781 15.429688 C 562.894531 15.429688 563.265625 15.058594 563.265625 14.628906 C 563.265625 14.160156 562.894531 13.789062 562.445312 13.789062 Z M 562.445312 13.789062 "/>
<path style=" stroke:none;fill-rule:nonzero;fill:rgb(0%,0%,0%);fill-opacity:1;" d="M 571.222656 10.351562 C 572.101562 10.351562 572.453125 10.371094 572.804688 10.507812 C 573.742188 10.839844 574.308594 11.679688 574.308594 12.714844 C 574.308594 13.964844 573.46875 14.941406 572.355469 14.941406 C 571.964844 14.941406 571.652344 14.84375 571.105469 14.472656 C 570.65625 14.21875 570.402344 14.101562 570.148438 14.101562 C 569.796875 14.101562 569.582031 14.316406 569.582031 14.628906 C 569.582031 15.15625 570.226562 15.488281 571.261719 15.488281 C 572.414062 15.488281 573.605469 15.097656 574.308594 14.472656 C 575.011719 13.867188 575.382812 13.007812 575.382812 11.992188 C 575.382812 11.230469 575.148438 10.527344 574.71875 10.078125 C 574.425781 9.746094 574.132812 9.570312 573.488281 9.277344 C 574.503906 8.574219 574.875 8.027344 574.875 7.226562 C 574.875 6.015625 573.9375 5.175781 572.550781 5.175781 C 571.808594 5.175781 571.144531 5.429688 570.617188 5.898438 C 570.167969 6.308594 569.933594 6.699219 569.601562 7.597656 L 569.835938 7.65625 C 570.441406 6.5625 571.125 6.074219 572.0625 6.074219 C 573.039062 6.074219 573.703125 6.71875 573.703125 7.675781 C 573.703125 8.203125 573.488281 8.75 573.097656 9.121094 C 572.648438 9.570312 572.238281 9.785156 571.222656 10.15625 Z M 571.222656 10.351562 "/>
<path style=" stroke:none;fill-rule:nonzero;fill:rgb(0%,0%,0%);fill-opacity:1;" d="M 578.285156 13.789062 C 577.835938 13.789062 577.464844 14.160156 577.464844 14.628906 C 577.464844 15.058594 577.835938 15.429688 578.265625 15.429688 C 578.734375 15.429688 579.105469 15.058594 579.105469 14.628906 C 579.105469 14.160156 578.734375 13.789062 578.285156 13.789062 Z M 578.285156 13.789062 "/>
<path style=" stroke:none;fill-rule:nonzero;fill:rgb(0%,0%,0%);fill-opacity:1;" d="M 586.808594 5.058594 C 585.109375 5.195312 584.25 5.488281 583.15625 6.25 C 581.535156 7.402344 580.65625 9.101562 580.65625 11.113281 C 580.65625 12.402344 581.066406 13.710938 581.710938 14.472656 C 582.277344 15.117188 583.078125 15.488281 583.996094 15.488281 C 585.851562 15.488281 587.140625 14.0625 587.140625 11.992188 C 587.140625 10.097656 586.046875 8.886719 584.328125 8.886719 C 583.683594 8.886719 583.351562 8.984375 582.414062 9.550781 C 582.824219 7.285156 584.503906 5.683594 586.847656 5.292969 Z M 583.761719 9.570312 C 585.050781 9.570312 585.792969 10.644531 585.792969 12.5 C 585.792969 14.160156 585.207031 15.058594 584.171875 15.058594 C 582.84375 15.058594 582.042969 13.652344 582.042969 11.347656 C 582.042969 10.585938 582.160156 10.15625 582.472656 9.941406 C 582.785156 9.707031 583.234375 9.570312 583.761719 9.570312 Z M 583.761719 9.570312 "/>
<path style=" stroke:none;fill-rule:nonzero;fill:rgb(0%,0%,0%);fill-opacity:1;" d="M 588.496094 15.605469 C 590.175781 15.410156 590.996094 15.117188 592.011719 14.394531 C 593.554688 13.261719 594.472656 11.40625 594.472656 9.394531 C 594.472656 6.914062 593.105469 5.175781 591.171875 5.175781 C 589.394531 5.175781 588.066406 6.679688 588.066406 8.691406 C 588.066406 10.527344 589.140625 11.738281 590.761719 11.738281 C 591.582031 11.738281 592.207031 11.484375 592.988281 10.878906 C 592.382812 13.320312 590.722656 14.921875 588.457031 15.3125 Z M 593.027344 9.960938 C 593.027344 10.273438 592.96875 10.410156 592.792969 10.527344 C 592.382812 10.898438 591.835938 11.09375 591.289062 11.09375 C 590.15625 11.09375 589.433594 9.960938 589.433594 8.183594 C 589.433594 7.34375 589.6875 6.445312 590 6.054688 C 590.253906 5.761719 590.625 5.585938 591.054688 5.585938 C 592.363281 5.585938 593.027344 6.875 593.027344 9.394531 Z M 593.027344 9.960938 "/>
<path style=" stroke:none;fill-rule:nonzero;fill:rgb(0%,0%,0%);fill-opacity:1;" d="M 597.785156 6.5625 L 600.714844 6.5625 C 600.96875 6.5625 601.027344 6.523438 601.066406 6.425781 L 601.632812 5.097656 L 601.496094 5 C 601.28125 5.3125 601.125 5.390625 600.8125 5.390625 L 597.6875 5.390625 L 596.066406 8.925781 C 596.046875 8.945312 596.046875 8.964844 596.046875 9.003906 C 596.046875 9.082031 596.105469 9.121094 596.222656 9.121094 C 596.710938 9.121094 597.296875 9.21875 597.921875 9.414062 C 599.640625 9.960938 600.421875 10.898438 600.421875 12.382812 C 600.421875 13.808594 599.503906 14.921875 598.351562 14.921875 C 598.039062 14.921875 597.785156 14.824219 597.355469 14.492188 C 596.867188 14.160156 596.515625 14.003906 596.203125 14.003906 C 595.773438 14.003906 595.558594 14.179688 595.558594 14.550781 C 595.558594 15.117188 596.261719 15.488281 597.394531 15.488281 C 598.644531 15.488281 599.71875 15.078125 600.460938 14.316406 C 601.164062 13.652344 601.476562 12.792969 601.476562 11.660156 C 601.476562 10.585938 601.183594 9.902344 600.441406 9.140625 C 599.777344 8.496094 598.9375 8.144531 597.160156 7.832031 Z M 597.785156 6.5625 "/>
</g>
</svg>
