<?xml version="1.0" encoding="UTF-8"?>
<svg xmlns="http://www.w3.org/2000/svg" xmlns:xlink="http://www.w3.org/1999/xlink" width="675.80791pt" height="20.605469pt" viewBox="0 0 675.80791 20.605469" version="1.1">
<g id="surface485">
<path style=" stroke:none;fill-rule:nonzero;fill:rgb(0%,0%,0%);fill-opacity:1;" d="M 5 11.425781 L 5 12.382812 L 8.671875 12.382812 L 8.671875 11.425781 Z M 5 11.425781 "/>
<path style=" stroke:none;fill-rule:nonzero;fill:rgb(0%,0%,0%);fill-opacity:1;" d="M 11.265625 13.789062 C 10.816406 13.789062 10.445312 14.160156 10.445312 14.628906 C 10.445312 15.058594 10.816406 15.429688 11.246094 15.429688 C 11.714844 15.429688 12.085938 15.058594 12.085938 14.628906 C 12.085938 14.160156 11.714844 13.789062 11.265625 13.789062 Z M 11.265625 13.789062 "/>
<path style=" stroke:none;fill-rule:nonzero;fill:rgb(0%,0%,0%);fill-opacity:1;" d="M 19.785156 5.058594 C 18.085938 5.195312 17.226562 5.488281 16.132812 6.25 C 14.511719 7.402344 13.632812 9.101562 13.632812 11.113281 C 13.632812 12.402344 14.042969 13.710938 14.6875 14.472656 C 15.253906 15.117188 16.054688 15.488281 16.972656 15.488281 C 18.828125 15.488281 20.117188 14.0625 20.117188 11.992188 C 20.117188 10.097656 19.023438 8.886719 17.304688 8.886719 C 16.660156 8.886719 16.328125 8.984375 15.390625 9.550781 C 15.800781 7.285156 17.480469 5.683594 19.824219 5.292969 Z M 16.738281 9.570312 C 18.027344 9.570312 18.769531 10.644531 18.769531 12.5 C 18.769531 14.160156 18.183594 15.058594 17.148438 15.058594 C 15.820312 15.058594 15.019531 13.652344 15.019531 11.347656 C 15.019531 10.585938 15.136719 10.15625 15.449219 9.941406 C 15.761719 9.707031 16.210938 9.570312 16.738281 9.570312 Z M 16.738281 9.570312 "/>
<path style=" stroke:none;fill-rule:nonzero;fill:rgb(0%,0%,0%);fill-opacity:1;" d="M 24.386719 5.175781 C 23.566406 5.175781 22.941406 5.429688 22.394531 5.957031 C 21.515625 6.777344 20.949219 8.496094 20.949219 10.253906 C 20.949219 11.875 21.457031 13.632812 22.160156 14.472656 C 22.707031 15.117188 23.46875 15.488281 24.328125 15.488281 C 25.089844 15.488281 25.734375 15.234375 26.28125 14.707031 C 27.140625 13.886719 27.707031 12.148438 27.707031 10.351562 C 27.707031 7.285156 26.359375 5.175781 24.386719 5.175781 Z M 24.347656 5.566406 C 25.597656 5.566406 26.28125 7.246094 26.28125 10.371094 C 26.28125 13.496094 25.617188 15.097656 24.328125 15.097656 C 23.039062 15.097656 22.394531 13.496094 22.394531 10.390625 C 22.394531 7.226562 23.058594 5.566406 24.347656 5.566406 Z M 24.347656 5.566406 "/>
<path style=" stroke:none;fill-rule:nonzero;fill:rgb(0%,0%,0%);fill-opacity:1;" d="M 32.390625 11.425781 L 32.390625 12.382812 L 36.0625 12.382812 L 36.0625 11.425781 Z M 32.390625 11.425781 "/>
<path style=" stroke:none;fill-rule:nonzero;fill:rgb(0%,0%,0%);fill-opacity:1;" d="M 38.65625 13.789062 C 38.207031 13.789062 37.835938 14.160156 37.835938 14.628906 C 37.835938 15.058594 38.207031 15.429688 38.636719 15.429688 C 39.105469 15.429688 39.476562 15.058594 39.476562 14.628906 C 39.476562 14.160156 39.105469 13.789062 38.65625 13.789062 Z M 38.65625 13.789062 "/>
<path style=" stroke:none;fill-rule:nonzero;fill:rgb(0%,0%,0%);fill-opacity:1;" d="M 43.214844 6.5625 L 46.144531 6.5625 C 46.398438 6.5625 46.457031 6.523438 46.496094 6.425781 L 47.0625 5.097656 L 46.925781 5 C 46.710938 5.3125 46.554688 5.390625 46.242188 5.390625 L 43.117188 5.390625 L 41.496094 8.925781 C 41.476562 8.945312 41.476562 8.964844 41.476562 9.003906 C 41.476562 9.082031 41.535156 9.121094 41.652344 9.121094 C 42.140625 9.121094 42.726562 9.21875 43.351562 9.414062 C 45.070312 9.960938 45.851562 10.898438 45.851562 12.382812 C 45.851562 13.808594 44.933594 14.921875 43.78125 14.921875 C 43.46875 14.921875 43.214844 14.824219 42.785156 14.492188 C 42.296875 14.160156 41.945312 14.003906 41.632812 14.003906 C 41.203125 14.003906 40.988281 14.179688 40.988281 14.550781 C 40.988281 15.117188 41.691406 15.488281 42.824219 15.488281 C 44.074219 15.488281 45.148438 15.078125 45.890625 14.316406 C 46.59375 13.652344 46.90625 12.792969 46.90625 11.660156 C 46.90625 10.585938 46.613281 9.902344 45.871094 9.140625 C 45.207031 8.496094 44.367188 8.144531 42.589844 7.832031 Z M 43.214844 6.5625 "/>
<path style=" stroke:none;fill-rule:nonzero;fill:rgb(0%,0%,0%);fill-opacity:1;" d="M 54.652344 5.058594 C 52.953125 5.195312 52.09375 5.488281 51 6.25 C 49.378906 7.402344 48.5 9.101562 48.5 11.113281 C 48.5 12.402344 48.910156 13.710938 49.554688 14.472656 C 50.121094 15.117188 50.921875 15.488281 51.839844 15.488281 C 53.695312 15.488281 54.984375 14.0625 54.984375 11.992188 C 54.984375 10.097656 53.890625 8.886719 52.171875 8.886719 C 51.527344 8.886719 51.195312 8.984375 50.257812 9.550781 C 50.667969 7.285156 52.347656 5.683594 54.691406 5.292969 Z M 51.605469 9.570312 C 52.894531 9.570312 53.636719 10.644531 53.636719 12.5 C 53.636719 14.160156 53.050781 15.058594 52.015625 15.058594 C 50.6875 15.058594 49.886719 13.652344 49.886719 11.347656 C 49.886719 10.585938 50.003906 10.15625 50.316406 9.941406 C 50.628906 9.707031 51.078125 9.570312 51.605469 9.570312 Z M 51.605469 9.570312 "/>
<path style=" stroke:none;fill-rule:nonzero;fill:rgb(0%,0%,0%);fill-opacity:1;" d="M 57.746094 10.351562 C 58.625 10.351562 58.976562 10.371094 59.328125 10.507812 C 60.265625 10.839844 60.832031 11.679688 60.832031 12.714844 C 60.832031 13.964844 59.992188 14.941406 58.878906 14.941406 C 58.488281 14.941406 58.175781 14.84375 57.628906 14.472656 C 57.179688 14.21875 56.925781 14.101562 56.671875 14.101562 C 56.320312 14.101562 56.105469 14.316406 56.105469 14.628906 C 56.105469 15.15625 56.75 15.488281 57.785156 15.488281 C 58.9375 15.488281 60.128906 15.097656 60.832031 14.472656 C 61.535156 13.867188 61.90625 13.007812 61.90625 11.992188 C 61.90625 11.230469 61.671875 10.527344 61.242188 10.078125 C 60.949219 9.746094 60.65625 9.570312 60.011719 9.277344 C 61.027344 8.574219 61.398438 8.027344 61.398438 7.226562 C 61.398438 6.015625 60.460938 5.175781 59.074219 5.175781 C 58.332031 5.175781 57.667969 5.429688 57.140625 5.898438 C 56.691406 6.308594 56.457031 6.699219 56.125 7.597656 L 56.359375 7.65625 C 56.964844 6.5625 57.648438 6.074219 58.585938 6.074219 C 59.5625 6.074219 60.226562 6.71875 60.226562 7.675781 C 60.226562 8.203125 60.011719 8.75 59.621094 9.121094 C 59.171875 9.570312 58.761719 9.785156 57.746094 10.15625 Z M 57.746094 10.351562 "/>
<path style=" stroke:none;fill-rule:nonzero;fill:rgb(0%,0%,0%);fill-opacity:1;" d="M 66.722656 5.175781 C 65.902344 5.175781 65.277344 5.429688 64.730469 5.957031 C 63.851562 6.777344 63.285156 8.496094 63.285156 10.253906 C 63.285156 11.875 63.792969 13.632812 64.496094 14.472656 C 65.042969 15.117188 65.804688 15.488281 66.664062 15.488281 C 67.425781 15.488281 68.070312 15.234375 68.617188 14.707031 C 69.476562 13.886719 70.042969 12.148438 70.042969 10.351562 C 70.042969 7.285156 68.695312 5.175781 66.722656 5.175781 Z M 66.683594 5.566406 C 67.933594 5.566406 68.617188 7.246094 68.617188 10.371094 C 68.617188 13.496094 67.953125 15.097656 66.664062 15.097656 C 65.375 15.097656 64.730469 13.496094 64.730469 10.390625 C 64.730469 7.226562 65.394531 5.566406 66.683594 5.566406 Z M 66.683594 5.566406 "/>
<path style=" stroke:none;fill-rule:nonzero;fill:rgb(0%,0%,0%);fill-opacity:1;" d="M 74.730469 11.425781 L 74.730469 12.382812 L 78.402344 12.382812 L 78.402344 11.425781 Z M 74.730469 11.425781 "/>
<path style=" stroke:none;fill-rule:nonzero;fill:rgb(0%,0%,0%);fill-opacity:1;" d="M 80.992188 13.789062 C 80.542969 13.789062 80.171875 14.160156 80.171875 14.628906 C 80.171875 15.058594 80.542969 15.429688 80.972656 15.429688 C 81.441406 15.429688 81.8125 15.058594 81.8125 14.628906 C 81.8125 14.160156 81.441406 13.789062 80.992188 13.789062 Z M 80.992188 13.789062 "/>
<path style=" stroke:none;fill-rule:nonzero;fill:rgb(0%,0%,0%);fill-opacity:1;" d="M 89.90625 11.816406 L 88.382812 11.816406 L 88.382812 5.175781 L 87.71875 5.175781 L 83.03125 11.816406 L 83.03125 12.773438 L 87.230469 12.773438 L 87.230469 15.273438 L 88.382812 15.273438 L 88.382812 12.773438 L 89.90625 12.773438 Z M 87.210938 11.816406 L 83.636719 11.816406 L 87.210938 6.699219 Z M 87.210938 11.816406 "/>
<path style=" stroke:none;fill-rule:nonzero;fill:rgb(0%,0%,0%);fill-opacity:1;" d="M 94.117188 5.175781 C 93.296875 5.175781 92.671875 5.429688 92.125 5.957031 C 91.246094 6.777344 90.679688 8.496094 90.679688 10.253906 C 90.679688 11.875 91.1875 13.632812 91.890625 14.472656 C 92.4375 15.117188 93.199219 15.488281 94.058594 15.488281 C 94.820312 15.488281 95.464844 15.234375 96.011719 14.707031 C 96.871094 13.886719 97.4375 12.148438 97.4375 10.351562 C 97.4375 7.285156 96.089844 5.175781 94.117188 5.175781 Z M 94.078125 5.566406 C 95.328125 5.566406 96.011719 7.246094 96.011719 10.371094 C 96.011719 13.496094 95.347656 15.097656 94.058594 15.097656 C 92.769531 15.097656 92.125 13.496094 92.125 10.390625 C 92.125 7.226562 92.789062 5.566406 94.078125 5.566406 Z M 94.078125 5.566406 "/>
<path style=" stroke:none;fill-rule:nonzero;fill:rgb(0%,0%,0%);fill-opacity:1;" d="M 103.410156 13.789062 C 102.960938 13.789062 102.589844 14.160156 102.589844 14.628906 C 102.589844 15.058594 102.960938 15.429688 103.390625 15.429688 C 103.859375 15.429688 104.230469 15.058594 104.230469 14.628906 C 104.230469 14.160156 103.859375 13.789062 103.410156 13.789062 Z M 103.410156 13.789062 "/>
<path style=" stroke:none;fill-rule:nonzero;fill:rgb(0%,0%,0%);fill-opacity:1;" d="M 112.320312 11.816406 L 110.796875 11.816406 L 110.796875 5.175781 L 110.132812 5.175781 L 105.445312 11.816406 L 105.445312 12.773438 L 109.644531 12.773438 L 109.644531 15.273438 L 110.796875 15.273438 L 110.796875 12.773438 L 112.320312 12.773438 Z M 109.625 11.816406 L 106.050781 11.816406 L 109.625 6.699219 Z M 109.625 11.816406 "/>
<path style=" stroke:none;fill-rule:nonzero;fill:rgb(0%,0%,0%);fill-opacity:1;" d="M 119.402344 5.058594 C 117.703125 5.195312 116.84375 5.488281 115.75 6.25 C 114.128906 7.402344 113.25 9.101562 113.25 11.113281 C 113.25 12.402344 113.660156 13.710938 114.304688 14.472656 C 114.871094 15.117188 115.671875 15.488281 116.589844 15.488281 C 118.445312 15.488281 119.734375 14.0625 119.734375 11.992188 C 119.734375 10.097656 118.640625 8.886719 116.921875 8.886719 C 116.277344 8.886719 115.945312 8.984375 115.007812 9.550781 C 115.417969 7.285156 117.097656 5.683594 119.441406 5.292969 Z M 116.355469 9.570312 C 117.644531 9.570312 118.386719 10.644531 118.386719 12.5 C 118.386719 14.160156 117.800781 15.058594 116.765625 15.058594 C 115.4375 15.058594 114.636719 13.652344 114.636719 11.347656 C 114.636719 10.585938 114.753906 10.15625 115.066406 9.941406 C 115.378906 9.707031 115.828125 9.570312 116.355469 9.570312 Z M 116.355469 9.570312 "/>
<path style=" stroke:none;fill-rule:nonzero;fill:rgb(0%,0%,0%);fill-opacity:1;" d="M 124.570312 5.175781 L 121.875 6.523438 L 121.875 6.738281 C 122.050781 6.660156 122.226562 6.601562 122.285156 6.582031 C 122.539062 6.464844 122.792969 6.40625 122.949219 6.40625 C 123.261719 6.40625 123.398438 6.640625 123.398438 7.109375 L 123.398438 13.886719 C 123.398438 14.375 123.28125 14.726562 123.046875 14.863281 C 122.8125 14.980469 122.597656 15.039062 121.972656 15.058594 L 121.972656 15.273438 L 126.09375 15.273438 L 126.09375 15.058594 C 124.921875 15.039062 124.6875 14.882812 124.6875 14.160156 L 124.6875 5.195312 Z M 124.570312 5.175781 "/>
<path style=" stroke:none;fill-rule:nonzero;fill:rgb(0%,0%,0%);fill-opacity:1;" d="M 131.476562 5.175781 C 130.65625 5.175781 130.03125 5.429688 129.484375 5.957031 C 128.605469 6.777344 128.039062 8.496094 128.039062 10.253906 C 128.039062 11.875 128.546875 13.632812 129.25 14.472656 C 129.796875 15.117188 130.558594 15.488281 131.417969 15.488281 C 132.179688 15.488281 132.824219 15.234375 133.371094 14.707031 C 134.230469 13.886719 134.796875 12.148438 134.796875 10.351562 C 134.796875 7.285156 133.449219 5.175781 131.476562 5.175781 Z M 131.4375 5.566406 C 132.6875 5.566406 133.371094 7.246094 133.371094 10.371094 C 133.371094 13.496094 132.707031 15.097656 131.417969 15.097656 C 130.128906 15.097656 129.484375 13.496094 129.484375 10.390625 C 129.484375 7.226562 130.148438 5.566406 131.4375 5.566406 Z M 131.4375 5.566406 "/>
<path style=" stroke:none;fill-rule:nonzero;fill:rgb(0%,0%,0%);fill-opacity:1;" d="M 139.480469 11.425781 L 139.480469 12.382812 L 143.152344 12.382812 L 143.152344 11.425781 Z M 139.480469 11.425781 "/>
<path style=" stroke:none;fill-rule:nonzero;fill:rgb(0%,0%,0%);fill-opacity:1;" d="M 145.746094 13.789062 C 145.296875 13.789062 144.925781 14.160156 144.925781 14.628906 C 144.925781 15.058594 145.296875 15.429688 145.726562 15.429688 C 146.195312 15.429688 146.566406 15.058594 146.566406 14.628906 C 146.566406 14.160156 146.195312 13.789062 145.746094 13.789062 Z M 145.746094 13.789062 "/>
<path style=" stroke:none;fill-rule:nonzero;fill:rgb(0%,0%,0%);fill-opacity:1;" d="M 154.699219 13.222656 L 154.503906 13.144531 C 153.957031 14.003906 153.761719 14.140625 153.097656 14.140625 L 149.523438 14.140625 L 152.023438 11.503906 C 153.371094 10.117188 153.9375 8.984375 153.9375 7.8125 C 153.9375 6.328125 152.726562 5.175781 151.183594 5.175781 C 150.363281 5.175781 149.582031 5.507812 149.035156 6.09375 C 148.546875 6.601562 148.332031 7.089844 148.078125 8.144531 L 148.390625 8.222656 C 148.976562 6.757812 149.523438 6.269531 150.558594 6.269531 C 151.808594 6.269531 152.667969 7.128906 152.667969 8.378906 C 152.667969 9.550781 151.964844 10.9375 150.714844 12.265625 L 148.058594 15.097656 L 148.058594 15.273438 L 153.878906 15.273438 Z M 154.699219 13.222656 "/>
<path style=" stroke:none;fill-rule:nonzero;fill:rgb(0%,0%,0%);fill-opacity:1;" d="M 158.867188 5.175781 C 158.046875 5.175781 157.421875 5.429688 156.875 5.957031 C 155.996094 6.777344 155.429688 8.496094 155.429688 10.253906 C 155.429688 11.875 155.9375 13.632812 156.640625 14.472656 C 157.1875 15.117188 157.949219 15.488281 158.808594 15.488281 C 159.570312 15.488281 160.214844 15.234375 160.761719 14.707031 C 161.621094 13.886719 162.1875 12.148438 162.1875 10.351562 C 162.1875 7.285156 160.839844 5.175781 158.867188 5.175781 Z M 158.828125 5.566406 C 160.078125 5.566406 160.761719 7.246094 160.761719 10.371094 C 160.761719 13.496094 160.097656 15.097656 158.808594 15.097656 C 157.519531 15.097656 156.875 13.496094 156.875 10.390625 C 156.875 7.226562 157.539062 5.566406 158.828125 5.566406 Z M 158.828125 5.566406 "/>
<path style=" stroke:none;fill-rule:nonzero;fill:rgb(0%,0%,0%);fill-opacity:1;" d="M 168.164062 13.789062 C 167.714844 13.789062 167.34375 14.160156 167.34375 14.628906 C 167.34375 15.058594 167.714844 15.429688 168.144531 15.429688 C 168.613281 15.429688 168.984375 15.058594 168.984375 14.628906 C 168.984375 14.160156 168.613281 13.789062 168.164062 13.789062 Z M 168.164062 13.789062 "/>
<path style=" stroke:none;fill-rule:nonzero;fill:rgb(0%,0%,0%);fill-opacity:1;" d="M 170.902344 15.605469 C 172.582031 15.410156 173.402344 15.117188 174.417969 14.394531 C 175.960938 13.261719 176.878906 11.40625 176.878906 9.394531 C 176.878906 6.914062 175.511719 5.175781 173.578125 5.175781 C 171.800781 5.175781 170.472656 6.679688 170.472656 8.691406 C 170.472656 10.527344 171.546875 11.738281 173.167969 11.738281 C 173.988281 11.738281 174.613281 11.484375 175.394531 10.878906 C 174.789062 13.320312 173.128906 14.921875 170.863281 15.3125 Z M 175.433594 9.960938 C 175.433594 10.273438 175.375 10.410156 175.199219 10.527344 C 174.789062 10.898438 174.242188 11.09375 173.695312 11.09375 C 172.5625 11.09375 171.839844 9.960938 171.839844 8.183594 C 171.839844 7.34375 172.09375 6.445312 172.40625 6.054688 C 172.660156 5.761719 173.03125 5.585938 173.460938 5.585938 C 174.769531 5.585938 175.433594 6.875 175.433594 9.394531 Z M 175.433594 9.960938 "/>
<path style=" stroke:none;fill-rule:nonzero;fill:rgb(0%,0%,0%);fill-opacity:1;" d="M 181.832031 9.726562 C 183.316406 8.945312 183.824219 8.320312 183.824219 7.285156 C 183.824219 6.074219 182.75 5.175781 181.265625 5.175781 C 179.625 5.175781 178.414062 6.171875 178.414062 7.539062 C 178.414062 8.496094 178.707031 8.945312 180.269531 10.3125 C 178.667969 11.542969 178.335938 11.992188 178.335938 13.007812 C 178.335938 14.472656 179.507812 15.488281 181.207031 15.488281 C 183.003906 15.488281 184.136719 14.492188 184.136719 12.949219 C 184.136719 11.816406 183.628906 11.074219 181.832031 9.726562 Z M 181.558594 11.269531 C 182.652344 12.050781 183.003906 12.578125 183.003906 13.417969 C 183.003906 14.394531 182.339844 15.058594 181.363281 15.058594 C 180.230469 15.058594 179.46875 14.199219 179.46875 12.890625 C 179.46875 11.933594 179.800781 11.308594 180.660156 10.605469 Z M 181.402344 9.453125 C 180.074219 8.59375 179.527344 7.910156 179.527344 7.070312 C 179.527344 6.210938 180.191406 5.585938 181.148438 5.585938 C 182.164062 5.585938 182.808594 6.25 182.808594 7.285156 C 182.808594 8.125 182.378906 8.808594 181.539062 9.375 C 181.460938 9.414062 181.460938 9.414062 181.402344 9.453125 Z M 181.402344 9.453125 "/>
<path style=" stroke:none;fill-rule:nonzero;fill:rgb(0%,0%,0%);fill-opacity:1;" d="M 191.667969 5.390625 L 186.140625 5.390625 L 185.261719 7.578125 L 185.515625 7.695312 C 186.160156 6.679688 186.433594 6.484375 187.253906 6.484375 L 190.496094 6.484375 L 187.546875 15.390625 L 188.503906 15.390625 L 191.667969 5.625 Z M 191.667969 5.390625 "/>
<path style=" stroke:none;fill-rule:nonzero;fill:rgb(0%,0%,0%);fill-opacity:1;" d="M 196.777344 9.726562 C 198.261719 8.945312 198.769531 8.320312 198.769531 7.285156 C 198.769531 6.074219 197.695312 5.175781 196.210938 5.175781 C 194.570312 5.175781 193.359375 6.171875 193.359375 7.539062 C 193.359375 8.496094 193.652344 8.945312 195.214844 10.3125 C 193.613281 11.542969 193.28125 11.992188 193.28125 13.007812 C 193.28125 14.472656 194.453125 15.488281 196.152344 15.488281 C 197.949219 15.488281 199.082031 14.492188 199.082031 12.949219 C 199.082031 11.816406 198.574219 11.074219 196.777344 9.726562 Z M 196.503906 11.269531 C 197.597656 12.050781 197.949219 12.578125 197.949219 13.417969 C 197.949219 14.394531 197.285156 15.058594 196.308594 15.058594 C 195.175781 15.058594 194.414062 14.199219 194.414062 12.890625 C 194.414062 11.933594 194.746094 11.308594 195.605469 10.605469 Z M 196.347656 9.453125 C 195.019531 8.59375 194.472656 7.910156 194.472656 7.070312 C 194.472656 6.210938 195.136719 5.585938 196.09375 5.585938 C 197.109375 5.585938 197.753906 6.25 197.753906 7.285156 C 197.753906 8.125 197.324219 8.808594 196.484375 9.375 C 196.40625 9.414062 196.40625 9.414062 196.347656 9.453125 Z M 196.347656 9.453125 "/>
<path style=" stroke:none;fill-rule:nonzero;fill:rgb(0%,0%,0%);fill-opacity:1;" d="M 207.4375 5.175781 C 206.617188 5.175781 205.992188 5.429688 205.445312 5.957031 C 204.566406 6.777344 204 8.496094 204 10.253906 C 204 11.875 204.507812 13.632812 205.210938 14.472656 C 205.757812 15.117188 206.519531 15.488281 207.378906 15.488281 C 208.140625 15.488281 208.785156 15.234375 209.332031 14.707031 C 210.191406 13.886719 210.757812 12.148438 210.757812 10.351562 C 210.757812 7.285156 209.410156 5.175781 207.4375 5.175781 Z M 207.398438 5.566406 C 208.648438 5.566406 209.332031 7.246094 209.332031 10.371094 C 209.332031 13.496094 208.667969 15.097656 207.378906 15.097656 C 206.089844 15.097656 205.445312 13.496094 205.445312 10.390625 C 205.445312 7.226562 206.109375 5.566406 207.398438 5.566406 Z M 207.398438 5.566406 "/>
<path style=" stroke:none;fill-rule:nonzero;fill:rgb(0%,0%,0%);fill-opacity:1;" d="M 219.210938 5.175781 L 216.515625 6.523438 L 216.515625 6.738281 C 216.691406 6.660156 216.867188 6.601562 216.925781 6.582031 C 217.179688 6.464844 217.433594 6.40625 217.589844 6.40625 C 217.902344 6.40625 218.039062 6.640625 218.039062 7.109375 L 218.039062 13.886719 C 218.039062 14.375 217.921875 14.726562 217.6875 14.863281 C 217.453125 14.980469 217.238281 15.039062 216.613281 15.058594 L 216.613281 15.273438 L 220.734375 15.273438 L 220.734375 15.058594 C 219.5625 15.039062 219.328125 14.882812 219.328125 14.160156 L 219.328125 5.195312 Z M 219.210938 5.175781 "/>
<path style=" stroke:none;fill-rule:nonzero;fill:rgb(0%,0%,0%);fill-opacity:1;" d="M 224.203125 13.789062 C 223.753906 13.789062 223.382812 14.160156 223.382812 14.628906 C 223.382812 15.058594 223.753906 15.429688 224.183594 15.429688 C 224.652344 15.429688 225.023438 15.058594 225.023438 14.628906 C 225.023438 14.160156 224.652344 13.789062 224.203125 13.789062 Z M 224.203125 13.789062 "/>
<path style=" stroke:none;fill-rule:nonzero;fill:rgb(0%,0%,0%);fill-opacity:1;" d="M 232.570312 13.789062 C 232.121094 13.789062 231.75 14.160156 231.75 14.628906 C 231.75 15.058594 232.121094 15.429688 232.550781 15.429688 C 233.019531 15.429688 233.390625 15.058594 233.390625 14.628906 C 233.390625 14.160156 233.019531 13.789062 232.570312 13.789062 Z M 232.570312 13.789062 "/>
<path style=" stroke:none;fill-rule:nonzero;fill:rgb(0%,0%,0%);fill-opacity:1;" d="M 241.523438 13.222656 L 241.328125 13.144531 C 240.78125 14.003906 240.585938 14.140625 239.921875 14.140625 L 236.347656 14.140625 L 238.847656 11.503906 C 240.195312 10.117188 240.761719 8.984375 240.761719 7.8125 C 240.761719 6.328125 239.550781 5.175781 238.007812 5.175781 C 237.1875 5.175781 236.40625 5.507812 235.859375 6.09375 C 235.371094 6.601562 235.15625 7.089844 234.902344 8.144531 L 235.214844 8.222656 C 235.800781 6.757812 236.347656 6.269531 237.382812 6.269531 C 238.632812 6.269531 239.492188 7.128906 239.492188 8.378906 C 239.492188 9.550781 238.789062 10.9375 237.539062 12.265625 L 234.882812 15.097656 L 234.882812 15.273438 L 240.703125 15.273438 Z M 241.523438 13.222656 "/>
<path style=" stroke:none;fill-rule:nonzero;fill:rgb(0%,0%,0%);fill-opacity:1;" d="M 245.691406 5.175781 C 244.871094 5.175781 244.246094 5.429688 243.699219 5.957031 C 242.820312 6.777344 242.253906 8.496094 242.253906 10.253906 C 242.253906 11.875 242.761719 13.632812 243.464844 14.472656 C 244.011719 15.117188 244.773438 15.488281 245.632812 15.488281 C 246.394531 15.488281 247.039062 15.234375 247.585938 14.707031 C 248.445312 13.886719 249.011719 12.148438 249.011719 10.351562 C 249.011719 7.285156 247.664062 5.175781 245.691406 5.175781 Z M 245.652344 5.566406 C 246.902344 5.566406 247.585938 7.246094 247.585938 10.371094 C 247.585938 13.496094 246.921875 15.097656 245.632812 15.097656 C 244.34375 15.097656 243.699219 13.496094 243.699219 10.390625 C 243.699219 7.226562 244.363281 5.566406 245.652344 5.566406 Z M 245.652344 5.566406 "/>
<path style=" stroke:none;fill-rule:nonzero;fill:rgb(0%,0%,0%);fill-opacity:1;" d="M 254.988281 13.789062 C 254.539062 13.789062 254.167969 14.160156 254.167969 14.628906 C 254.167969 15.058594 254.539062 15.429688 254.96875 15.429688 C 255.4375 15.429688 255.808594 15.058594 255.808594 14.628906 C 255.808594 14.160156 255.4375 13.789062 254.988281 13.789062 Z M 254.988281 13.789062 "/>
<path style=" stroke:none;fill-rule:nonzero;fill:rgb(0%,0%,0%);fill-opacity:1;" d="M 263.507812 5.058594 C 261.808594 5.195312 260.949219 5.488281 259.855469 6.25 C 258.234375 7.402344 257.355469 9.101562 257.355469 11.113281 C 257.355469 12.402344 257.765625 13.710938 258.410156 14.472656 C 258.976562 15.117188 259.777344 15.488281 260.695312 15.488281 C 262.550781 15.488281 263.839844 14.0625 263.839844 11.992188 C 263.839844 10.097656 262.746094 8.886719 261.027344 8.886719 C 260.382812 8.886719 260.050781 8.984375 259.113281 9.550781 C 259.523438 7.285156 261.203125 5.683594 263.546875 5.292969 Z M 260.460938 9.570312 C 261.75 9.570312 262.492188 10.644531 262.492188 12.5 C 262.492188 14.160156 261.90625 15.058594 260.871094 15.058594 C 259.542969 15.058594 258.742188 13.652344 258.742188 11.347656 C 258.742188 10.585938 258.859375 10.15625 259.171875 9.941406 C 259.484375 9.707031 259.933594 9.570312 260.460938 9.570312 Z M 260.460938 9.570312 "/>
<path style=" stroke:none;fill-rule:nonzero;fill:rgb(0%,0%,0%);fill-opacity:1;" d="M 270.980469 5.058594 C 269.28125 5.195312 268.421875 5.488281 267.328125 6.25 C 265.707031 7.402344 264.828125 9.101562 264.828125 11.113281 C 264.828125 12.402344 265.238281 13.710938 265.882812 14.472656 C 266.449219 15.117188 267.25 15.488281 268.167969 15.488281 C 270.023438 15.488281 271.3125 14.0625 271.3125 11.992188 C 271.3125 10.097656 270.21875 8.886719 268.5 8.886719 C 267.855469 8.886719 267.523438 8.984375 266.585938 9.550781 C 266.996094 7.285156 268.675781 5.683594 271.019531 5.292969 Z M 267.933594 9.570312 C 269.222656 9.570312 269.964844 10.644531 269.964844 12.5 C 269.964844 14.160156 269.378906 15.058594 268.34375 15.058594 C 267.015625 15.058594 266.214844 13.652344 266.214844 11.347656 C 266.214844 10.585938 266.332031 10.15625 266.644531 9.941406 C 266.957031 9.707031 267.40625 9.570312 267.933594 9.570312 Z M 267.933594 9.570312 "/>
<path style=" stroke:none;fill-rule:nonzero;fill:rgb(0%,0%,0%);fill-opacity:1;" d="M 278.882812 13.222656 L 278.6875 13.144531 C 278.140625 14.003906 277.945312 14.140625 277.28125 14.140625 L 273.707031 14.140625 L 276.207031 11.503906 C 277.554688 10.117188 278.121094 8.984375 278.121094 7.8125 C 278.121094 6.328125 276.910156 5.175781 275.367188 5.175781 C 274.546875 5.175781 273.765625 5.507812 273.21875 6.09375 C 272.730469 6.601562 272.515625 7.089844 272.261719 8.144531 L 272.574219 8.222656 C 273.160156 6.757812 273.707031 6.269531 274.742188 6.269531 C 275.992188 6.269531 276.851562 7.128906 276.851562 8.378906 C 276.851562 9.550781 276.148438 10.9375 274.898438 12.265625 L 272.242188 15.097656 L 272.242188 15.273438 L 278.0625 15.273438 Z M 278.882812 13.222656 "/>
<path style=" stroke:none;fill-rule:nonzero;fill:rgb(0%,0%,0%);fill-opacity:1;" d="M 281.550781 10.351562 C 282.429688 10.351562 282.78125 10.371094 283.132812 10.507812 C 284.070312 10.839844 284.636719 11.679688 284.636719 12.714844 C 284.636719 13.964844 283.796875 14.941406 282.683594 14.941406 C 282.292969 14.941406 281.980469 14.84375 281.433594 14.472656 C 280.984375 14.21875 280.730469 14.101562 280.476562 14.101562 C 280.125 14.101562 279.910156 14.316406 279.910156 14.628906 C 279.910156 15.15625 280.554688 15.488281 281.589844 15.488281 C 282.742188 15.488281 283.933594 15.097656 284.636719 14.472656 C 285.339844 13.867188 285.710938 13.007812 285.710938 11.992188 C 285.710938 11.230469 285.476562 10.527344 285.046875 10.078125 C 284.753906 9.746094 284.460938 9.570312 283.816406 9.277344 C 284.832031 8.574219 285.203125 8.027344 285.203125 7.226562 C 285.203125 6.015625 284.265625 5.175781 282.878906 5.175781 C 282.136719 5.175781 281.472656 5.429688 280.945312 5.898438 C 280.496094 6.308594 280.261719 6.699219 279.929688 7.597656 L 280.164062 7.65625 C 280.769531 6.5625 281.453125 6.074219 282.390625 6.074219 C 283.367188 6.074219 284.03125 6.71875 284.03125 7.675781 C 284.03125 8.203125 283.816406 8.75 283.425781 9.121094 C 282.976562 9.570312 282.566406 9.785156 281.550781 10.15625 Z M 281.550781 10.351562 "/>
<path style=" stroke:none;fill-rule:nonzero;fill:rgb(0%,0%,0%);fill-opacity:1;" d="M 292.347656 13.789062 C 291.898438 13.789062 291.527344 14.160156 291.527344 14.628906 C 291.527344 15.058594 291.898438 15.429688 292.328125 15.429688 C 292.796875 15.429688 293.167969 15.058594 293.167969 14.628906 C 293.167969 14.160156 292.796875 13.789062 292.347656 13.789062 Z M 292.347656 13.789062 "/>
<path style=" stroke:none;fill-rule:nonzero;fill:rgb(0%,0%,0%);fill-opacity:1;" d="M 301.257812 11.816406 L 299.734375 11.816406 L 299.734375 5.175781 L 299.070312 5.175781 L 294.382812 11.816406 L 294.382812 12.773438 L 298.582031 12.773438 L 298.582031 15.273438 L 299.734375 15.273438 L 299.734375 12.773438 L 301.257812 12.773438 Z M 298.5625 11.816406 L 294.988281 11.816406 L 298.5625 6.699219 Z M 298.5625 11.816406 "/>
<path style=" stroke:none;fill-rule:nonzero;fill:rgb(0%,0%,0%);fill-opacity:1;" d="M 305.46875 5.175781 C 304.648438 5.175781 304.023438 5.429688 303.476562 5.957031 C 302.597656 6.777344 302.03125 8.496094 302.03125 10.253906 C 302.03125 11.875 302.539062 13.632812 303.242188 14.472656 C 303.789062 15.117188 304.550781 15.488281 305.410156 15.488281 C 306.171875 15.488281 306.816406 15.234375 307.363281 14.707031 C 308.222656 13.886719 308.789062 12.148438 308.789062 10.351562 C 308.789062 7.285156 307.441406 5.175781 305.46875 5.175781 Z M 305.429688 5.566406 C 306.679688 5.566406 307.363281 7.246094 307.363281 10.371094 C 307.363281 13.496094 306.699219 15.097656 305.410156 15.097656 C 304.121094 15.097656 303.476562 13.496094 303.476562 10.390625 C 303.476562 7.226562 304.140625 5.566406 305.429688 5.566406 Z M 305.429688 5.566406 "/>
<path style=" stroke:none;fill-rule:nonzero;fill:rgb(0%,0%,0%);fill-opacity:1;" d="M 314.761719 13.789062 C 314.3125 13.789062 313.941406 14.160156 313.941406 14.628906 C 313.941406 15.058594 314.3125 15.429688 314.742188 15.429688 C 315.210938 15.429688 315.582031 15.058594 315.582031 14.628906 C 315.582031 14.160156 315.210938 13.789062 314.761719 13.789062 Z M 314.761719 13.789062 "/>
<path style=" stroke:none;fill-rule:nonzero;fill:rgb(0%,0%,0%);fill-opacity:1;" d="M 323.714844 13.222656 L 323.519531 13.144531 C 322.972656 14.003906 322.777344 14.140625 322.113281 14.140625 L 318.539062 14.140625 L 321.039062 11.503906 C 322.386719 10.117188 322.953125 8.984375 322.953125 7.8125 C 322.953125 6.328125 321.742188 5.175781 320.199219 5.175781 C 319.378906 5.175781 318.597656 5.507812 318.050781 6.09375 C 317.5625 6.601562 317.347656 7.089844 317.09375 8.144531 L 317.40625 8.222656 C 317.992188 6.757812 318.539062 6.269531 319.574219 6.269531 C 320.824219 6.269531 321.683594 7.128906 321.683594 8.378906 C 321.683594 9.550781 320.980469 10.9375 319.730469 12.265625 L 317.074219 15.097656 L 317.074219 15.273438 L 322.894531 15.273438 Z M 323.714844 13.222656 "/>
<path style=" stroke:none;fill-rule:nonzero;fill:rgb(0%,0%,0%);fill-opacity:1;" d="M 327.886719 5.175781 C 327.066406 5.175781 326.441406 5.429688 325.894531 5.957031 C 325.015625 6.777344 324.449219 8.496094 324.449219 10.253906 C 324.449219 11.875 324.957031 13.632812 325.660156 14.472656 C 326.207031 15.117188 326.96875 15.488281 327.828125 15.488281 C 328.589844 15.488281 329.234375 15.234375 329.78125 14.707031 C 330.640625 13.886719 331.207031 12.148438 331.207031 10.351562 C 331.207031 7.285156 329.859375 5.175781 327.886719 5.175781 Z M 327.847656 5.566406 C 329.097656 5.566406 329.78125 7.246094 329.78125 10.371094 C 329.78125 13.496094 329.117188 15.097656 327.828125 15.097656 C 326.539062 15.097656 325.894531 13.496094 325.894531 10.390625 C 325.894531 7.226562 326.558594 5.566406 327.847656 5.566406 Z M 327.847656 5.566406 "/>
<path style=" stroke:none;fill-rule:nonzero;fill:rgb(0%,0%,0%);fill-opacity:1;" d="M 338.265625 5.390625 L 332.738281 5.390625 L 331.859375 7.578125 L 332.113281 7.695312 C 332.757812 6.679688 333.03125 6.484375 333.851562 6.484375 L 337.09375 6.484375 L 334.144531 15.390625 L 335.101562 15.390625 L 338.265625 5.625 Z M 338.265625 5.390625 "/>
<path style=" stroke:none;fill-rule:nonzero;fill:rgb(0%,0%,0%);fill-opacity:1;" d="M 343.394531 5.175781 L 340.699219 6.523438 L 340.699219 6.738281 C 340.875 6.660156 341.050781 6.601562 341.109375 6.582031 C 341.363281 6.464844 341.617188 6.40625 341.773438 6.40625 C 342.085938 6.40625 342.222656 6.640625 342.222656 7.109375 L 342.222656 13.886719 C 342.222656 14.375 342.105469 14.726562 341.871094 14.863281 C 341.636719 14.980469 341.421875 15.039062 340.796875 15.058594 L 340.796875 15.273438 L 344.917969 15.273438 L 344.917969 15.058594 C 343.746094 15.039062 343.511719 14.882812 343.511719 14.160156 L 343.511719 5.195312 Z M 343.394531 5.175781 "/>
<path style=" stroke:none;fill-rule:nonzero;fill:rgb(0%,0%,0%);fill-opacity:1;" d="M 352.125 13.789062 C 351.675781 13.789062 351.304688 14.160156 351.304688 14.628906 C 351.304688 15.058594 351.675781 15.429688 352.105469 15.429688 C 352.574219 15.429688 352.945312 15.058594 352.945312 14.628906 C 352.945312 14.160156 352.574219 13.789062 352.125 13.789062 Z M 352.125 13.789062 "/>
<path style=" stroke:none;fill-rule:nonzero;fill:rgb(0%,0%,0%);fill-opacity:1;" d="M 360.644531 5.058594 C 358.945312 5.195312 358.085938 5.488281 356.992188 6.25 C 355.371094 7.402344 354.492188 9.101562 354.492188 11.113281 C 354.492188 12.402344 354.902344 13.710938 355.546875 14.472656 C 356.113281 15.117188 356.914062 15.488281 357.832031 15.488281 C 359.6875 15.488281 360.976562 14.0625 360.976562 11.992188 C 360.976562 10.097656 359.882812 8.886719 358.164062 8.886719 C 357.519531 8.886719 357.1875 8.984375 356.25 9.550781 C 356.660156 7.285156 358.339844 5.683594 360.683594 5.292969 Z M 357.597656 9.570312 C 358.886719 9.570312 359.628906 10.644531 359.628906 12.5 C 359.628906 14.160156 359.042969 15.058594 358.007812 15.058594 C 356.679688 15.058594 355.878906 13.652344 355.878906 11.347656 C 355.878906 10.585938 355.996094 10.15625 356.308594 9.941406 C 356.621094 9.707031 357.070312 9.570312 357.597656 9.570312 Z M 357.597656 9.570312 "/>
<path style=" stroke:none;fill-rule:nonzero;fill:rgb(0%,0%,0%);fill-opacity:1;" d="M 365.246094 5.175781 C 364.425781 5.175781 363.800781 5.429688 363.253906 5.957031 C 362.375 6.777344 361.808594 8.496094 361.808594 10.253906 C 361.808594 11.875 362.316406 13.632812 363.019531 14.472656 C 363.566406 15.117188 364.328125 15.488281 365.1875 15.488281 C 365.949219 15.488281 366.59375 15.234375 367.140625 14.707031 C 368 13.886719 368.566406 12.148438 368.566406 10.351562 C 368.566406 7.285156 367.21875 5.175781 365.246094 5.175781 Z M 365.207031 5.566406 C 366.457031 5.566406 367.140625 7.246094 367.140625 10.371094 C 367.140625 13.496094 366.476562 15.097656 365.1875 15.097656 C 363.898438 15.097656 363.253906 13.496094 363.253906 10.390625 C 363.253906 7.226562 363.917969 5.566406 365.207031 5.566406 Z M 365.207031 5.566406 "/>
<path style=" stroke:none;fill-rule:nonzero;fill:rgb(0%,0%,0%);fill-opacity:1;" d="M 373.25 11.425781 L 373.25 12.382812 L 376.921875 12.382812 L 376.921875 11.425781 Z M 373.25 11.425781 "/>
<path style=" stroke:none;fill-rule:nonzero;fill:rgb(0%,0%,0%);fill-opacity:1;" d="M 379.515625 13.789062 C 379.066406 13.789062 378.695312 14.160156 378.695312 14.628906 C 378.695312 15.058594 379.066406 15.429688 379.496094 15.429688 C 379.964844 15.429688 380.335938 15.058594 380.335938 14.628906 C 380.335938 14.160156 379.964844 13.789062 379.515625 13.789062 Z M 379.515625 13.789062 "/>
<path style=" stroke:none;fill-rule:nonzero;fill:rgb(0%,0%,0%);fill-opacity:1;" d="M 385.730469 5.175781 L 383.035156 6.523438 L 383.035156 6.738281 C 383.210938 6.660156 383.386719 6.601562 383.445312 6.582031 C 383.699219 6.464844 383.953125 6.40625 384.109375 6.40625 C 384.421875 6.40625 384.558594 6.640625 384.558594 7.109375 L 384.558594 13.886719 C 384.558594 14.375 384.441406 14.726562 384.207031 14.863281 C 383.972656 14.980469 383.757812 15.039062 383.132812 15.058594 L 383.132812 15.273438 L 387.253906 15.273438 L 387.253906 15.058594 C 386.082031 15.039062 385.847656 14.882812 385.847656 14.160156 L 385.847656 5.195312 Z M 385.730469 5.175781 "/>
<path style=" stroke:none;fill-rule:nonzero;fill:rgb(0%,0%,0%);fill-opacity:1;" d="M 395.507812 5.058594 C 393.808594 5.195312 392.949219 5.488281 391.855469 6.25 C 390.234375 7.402344 389.355469 9.101562 389.355469 11.113281 C 389.355469 12.402344 389.765625 13.710938 390.410156 14.472656 C 390.976562 15.117188 391.777344 15.488281 392.695312 15.488281 C 394.550781 15.488281 395.839844 14.0625 395.839844 11.992188 C 395.839844 10.097656 394.746094 8.886719 393.027344 8.886719 C 392.382812 8.886719 392.050781 8.984375 391.113281 9.550781 C 391.523438 7.285156 393.203125 5.683594 395.546875 5.292969 Z M 392.460938 9.570312 C 393.75 9.570312 394.492188 10.644531 394.492188 12.5 C 394.492188 14.160156 393.90625 15.058594 392.871094 15.058594 C 391.542969 15.058594 390.742188 13.652344 390.742188 11.347656 C 390.742188 10.585938 390.859375 10.15625 391.171875 9.941406 C 391.484375 9.707031 391.933594 9.570312 392.460938 9.570312 Z M 392.460938 9.570312 "/>
<path style=" stroke:none;fill-rule:nonzero;fill:rgb(0%,0%,0%);fill-opacity:1;" d="M 397.199219 15.605469 C 398.878906 15.410156 399.699219 15.117188 400.714844 14.394531 C 402.257812 13.261719 403.175781 11.40625 403.175781 9.394531 C 403.175781 6.914062 401.808594 5.175781 399.875 5.175781 C 398.097656 5.175781 396.769531 6.679688 396.769531 8.691406 C 396.769531 10.527344 397.84375 11.738281 399.464844 11.738281 C 400.285156 11.738281 400.910156 11.484375 401.691406 10.878906 C 401.085938 13.320312 399.425781 14.921875 397.160156 15.3125 Z M 401.730469 9.960938 C 401.730469 10.273438 401.671875 10.410156 401.496094 10.527344 C 401.085938 10.898438 400.539062 11.09375 399.992188 11.09375 C 398.859375 11.09375 398.136719 9.960938 398.136719 8.183594 C 398.136719 7.34375 398.390625 6.445312 398.703125 6.054688 C 398.957031 5.761719 399.328125 5.585938 399.757812 5.585938 C 401.066406 5.585938 401.730469 6.875 401.730469 9.394531 Z M 401.730469 9.960938 "/>
<path style=" stroke:none;fill-rule:nonzero;fill:rgb(0%,0%,0%);fill-opacity:1;" d="M 410.453125 5.058594 C 408.753906 5.195312 407.894531 5.488281 406.800781 6.25 C 405.179688 7.402344 404.300781 9.101562 404.300781 11.113281 C 404.300781 12.402344 404.710938 13.710938 405.355469 14.472656 C 405.921875 15.117188 406.722656 15.488281 407.640625 15.488281 C 409.496094 15.488281 410.785156 14.0625 410.785156 11.992188 C 410.785156 10.097656 409.691406 8.886719 407.972656 8.886719 C 407.328125 8.886719 406.996094 8.984375 406.058594 9.550781 C 406.46875 7.285156 408.148438 5.683594 410.492188 5.292969 Z M 407.40625 9.570312 C 408.695312 9.570312 409.4375 10.644531 409.4375 12.5 C 409.4375 14.160156 408.851562 15.058594 407.816406 15.058594 C 406.488281 15.058594 405.6875 13.652344 405.6875 11.347656 C 405.6875 10.585938 405.804688 10.15625 406.117188 9.941406 C 406.429688 9.707031 406.878906 9.570312 407.40625 9.570312 Z M 407.40625 9.570312 "/>
<path style=" stroke:none;fill-rule:nonzero;fill:rgb(0%,0%,0%);fill-opacity:1;" d="M 416.875 13.789062 C 416.425781 13.789062 416.054688 14.160156 416.054688 14.628906 C 416.054688 15.058594 416.425781 15.429688 416.855469 15.429688 C 417.324219 15.429688 417.695312 15.058594 417.695312 14.628906 C 417.695312 14.160156 417.324219 13.789062 416.875 13.789062 Z M 416.875 13.789062 "/>
<path style=" stroke:none;fill-rule:nonzero;fill:rgb(0%,0%,0%);fill-opacity:1;" d="M 423.074219 9.726562 C 424.558594 8.945312 425.066406 8.320312 425.066406 7.285156 C 425.066406 6.074219 423.992188 5.175781 422.507812 5.175781 C 420.867188 5.175781 419.65625 6.171875 419.65625 7.539062 C 419.65625 8.496094 419.949219 8.945312 421.511719 10.3125 C 419.910156 11.542969 419.578125 11.992188 419.578125 13.007812 C 419.578125 14.472656 420.75 15.488281 422.449219 15.488281 C 424.246094 15.488281 425.378906 14.492188 425.378906 12.949219 C 425.378906 11.816406 424.871094 11.074219 423.074219 9.726562 Z M 422.800781 11.269531 C 423.894531 12.050781 424.246094 12.578125 424.246094 13.417969 C 424.246094 14.394531 423.582031 15.058594 422.605469 15.058594 C 421.472656 15.058594 420.710938 14.199219 420.710938 12.890625 C 420.710938 11.933594 421.042969 11.308594 421.902344 10.605469 Z M 422.644531 9.453125 C 421.316406 8.59375 420.769531 7.910156 420.769531 7.070312 C 420.769531 6.210938 421.433594 5.585938 422.390625 5.585938 C 423.40625 5.585938 424.050781 6.25 424.050781 7.285156 C 424.050781 8.125 423.621094 8.808594 422.78125 9.375 C 422.703125 9.414062 422.703125 9.414062 422.644531 9.453125 Z M 422.644531 9.453125 "/>
<path style=" stroke:none;fill-rule:nonzero;fill:rgb(0%,0%,0%);fill-opacity:1;" d="M 429.996094 5.175781 C 429.175781 5.175781 428.550781 5.429688 428.003906 5.957031 C 427.125 6.777344 426.558594 8.496094 426.558594 10.253906 C 426.558594 11.875 427.066406 13.632812 427.769531 14.472656 C 428.316406 15.117188 429.078125 15.488281 429.9375 15.488281 C 430.699219 15.488281 431.34375 15.234375 431.890625 14.707031 C 432.75 13.886719 433.316406 12.148438 433.316406 10.351562 C 433.316406 7.285156 431.96875 5.175781 429.996094 5.175781 Z M 429.957031 5.566406 C 431.207031 5.566406 431.890625 7.246094 431.890625 10.371094 C 431.890625 13.496094 431.226562 15.097656 429.9375 15.097656 C 428.648438 15.097656 428.003906 13.496094 428.003906 10.390625 C 428.003906 7.226562 428.667969 5.566406 429.957031 5.566406 Z M 429.957031 5.566406 "/>
<path style=" stroke:none;fill-rule:nonzero;fill:rgb(0%,0%,0%);fill-opacity:1;" d="M 438.003906 11.425781 L 438.003906 12.382812 L 441.675781 12.382812 L 441.675781 11.425781 Z M 438.003906 11.425781 "/>
<path style=" stroke:none;fill-rule:nonzero;fill:rgb(0%,0%,0%);fill-opacity:1;" d="M 444.269531 13.789062 C 443.820312 13.789062 443.449219 14.160156 443.449219 14.628906 C 443.449219 15.058594 443.820312 15.429688 444.25 15.429688 C 444.71875 15.429688 445.089844 15.058594 445.089844 14.628906 C 445.089844 14.160156 444.71875 13.789062 444.269531 13.789062 Z M 444.269531 13.789062 "/>
<path style=" stroke:none;fill-rule:nonzero;fill:rgb(0%,0%,0%);fill-opacity:1;" d="M 448.414062 10.351562 C 449.292969 10.351562 449.644531 10.371094 449.996094 10.507812 C 450.933594 10.839844 451.5 11.679688 451.5 12.714844 C 451.5 13.964844 450.660156 14.941406 449.546875 14.941406 C 449.15625 14.941406 448.84375 14.84375 448.296875 14.472656 C 447.847656 14.21875 447.59375 14.101562 447.339844 14.101562 C 446.988281 14.101562 446.773438 14.316406 446.773438 14.628906 C 446.773438 15.15625 447.417969 15.488281 448.453125 15.488281 C 449.605469 15.488281 450.796875 15.097656 451.5 14.472656 C 452.203125 13.867188 452.574219 13.007812 452.574219 11.992188 C 452.574219 11.230469 452.339844 10.527344 451.910156 10.078125 C 451.617188 9.746094 451.324219 9.570312 450.679688 9.277344 C 451.695312 8.574219 452.066406 8.027344 452.066406 7.226562 C 452.066406 6.015625 451.128906 5.175781 449.742188 5.175781 C 449 5.175781 448.335938 5.429688 447.808594 5.898438 C 447.359375 6.308594 447.125 6.699219 446.792969 7.597656 L 447.027344 7.65625 C 447.632812 6.5625 448.316406 6.074219 449.253906 6.074219 C 450.230469 6.074219 450.894531 6.71875 450.894531 7.675781 C 450.894531 8.203125 450.679688 8.75 450.289062 9.121094 C 449.839844 9.570312 449.429688 9.785156 448.414062 10.15625 Z M 448.414062 10.351562 "/>
<path style=" stroke:none;fill-rule:nonzero;fill:rgb(0%,0%,0%);fill-opacity:1;" d="M 460.261719 5.058594 C 458.5625 5.195312 457.703125 5.488281 456.609375 6.25 C 454.988281 7.402344 454.109375 9.101562 454.109375 11.113281 C 454.109375 12.402344 454.519531 13.710938 455.164062 14.472656 C 455.730469 15.117188 456.53125 15.488281 457.449219 15.488281 C 459.304688 15.488281 460.59375 14.0625 460.59375 11.992188 C 460.59375 10.097656 459.5 8.886719 457.78125 8.886719 C 457.136719 8.886719 456.804688 8.984375 455.867188 9.550781 C 456.277344 7.285156 457.957031 5.683594 460.300781 5.292969 Z M 457.214844 9.570312 C 458.503906 9.570312 459.246094 10.644531 459.246094 12.5 C 459.246094 14.160156 458.660156 15.058594 457.625 15.058594 C 456.296875 15.058594 455.496094 13.652344 455.496094 11.347656 C 455.496094 10.585938 455.613281 10.15625 455.925781 9.941406 C 456.238281 9.707031 456.6875 9.570312 457.214844 9.570312 Z M 457.214844 9.570312 "/>
<path style=" stroke:none;fill-rule:nonzero;fill:rgb(0%,0%,0%);fill-opacity:1;" d="M 463.359375 10.351562 C 464.238281 10.351562 464.589844 10.371094 464.941406 10.507812 C 465.878906 10.839844 466.445312 11.679688 466.445312 12.714844 C 466.445312 13.964844 465.605469 14.941406 464.492188 14.941406 C 464.101562 14.941406 463.789062 14.84375 463.242188 14.472656 C 462.792969 14.21875 462.539062 14.101562 462.285156 14.101562 C 461.933594 14.101562 461.71875 14.316406 461.71875 14.628906 C 461.71875 15.15625 462.363281 15.488281 463.398438 15.488281 C 464.550781 15.488281 465.742188 15.097656 466.445312 14.472656 C 467.148438 13.867188 467.519531 13.007812 467.519531 11.992188 C 467.519531 11.230469 467.285156 10.527344 466.855469 10.078125 C 466.5625 9.746094 466.269531 9.570312 465.625 9.277344 C 466.640625 8.574219 467.011719 8.027344 467.011719 7.226562 C 467.011719 6.015625 466.074219 5.175781 464.6875 5.175781 C 463.945312 5.175781 463.28125 5.429688 462.753906 5.898438 C 462.304688 6.308594 462.070312 6.699219 461.738281 7.597656 L 461.972656 7.65625 C 462.578125 6.5625 463.261719 6.074219 464.199219 6.074219 C 465.175781 6.074219 465.839844 6.71875 465.839844 7.675781 C 465.839844 8.203125 465.625 8.75 465.234375 9.121094 C 464.785156 9.570312 464.375 9.785156 463.359375 10.15625 Z M 463.359375 10.351562 "/>
<path style=" stroke:none;fill-rule:nonzero;fill:rgb(0%,0%,0%);fill-opacity:1;" d="M 471.238281 6.5625 L 474.167969 6.5625 C 474.421875 6.5625 474.480469 6.523438 474.519531 6.425781 L 475.085938 5.097656 L 474.949219 5 C 474.734375 5.3125 474.578125 5.390625 474.265625 5.390625 L 471.140625 5.390625 L 469.519531 8.925781 C 469.5 8.945312 469.5 8.964844 469.5 9.003906 C 469.5 9.082031 469.558594 9.121094 469.675781 9.121094 C 470.164062 9.121094 470.75 9.21875 471.375 9.414062 C 473.09375 9.960938 473.875 10.898438 473.875 12.382812 C 473.875 13.808594 472.957031 14.921875 471.804688 14.921875 C 471.492188 14.921875 471.238281 14.824219 470.808594 14.492188 C 470.320312 14.160156 469.96875 14.003906 469.65625 14.003906 C 469.226562 14.003906 469.011719 14.179688 469.011719 14.550781 C 469.011719 15.117188 469.714844 15.488281 470.847656 15.488281 C 472.097656 15.488281 473.171875 15.078125 473.914062 14.316406 C 474.617188 13.652344 474.929688 12.792969 474.929688 11.660156 C 474.929688 10.585938 474.636719 9.902344 473.894531 9.140625 C 473.230469 8.496094 472.390625 8.144531 470.613281 7.832031 Z M 471.238281 6.5625 "/>
<path style=" stroke:none;fill-rule:nonzero;fill:rgb(0%,0%,0%);fill-opacity:1;" d="M 484.109375 5.175781 L 481.414062 6.523438 L 481.414062 6.738281 C 481.589844 6.660156 481.765625 6.601562 481.824219 6.582031 C 482.078125 6.464844 482.332031 6.40625 482.488281 6.40625 C 482.800781 6.40625 482.9375 6.640625 482.9375 7.109375 L 482.9375 13.886719 C 482.9375 14.375 482.820312 14.726562 482.585938 14.863281 C 482.351562 14.980469 482.136719 15.039062 481.511719 15.058594 L 481.511719 15.273438 L 485.632812 15.273438 L 485.632812 15.058594 C 484.460938 15.039062 484.226562 14.882812 484.226562 14.160156 L 484.226562 5.195312 Z M 484.109375 5.175781 "/>
<path style=" stroke:none;fill-rule:nonzero;fill:rgb(0%,0%,0%);fill-opacity:1;" d="M 489.101562 13.789062 C 488.652344 13.789062 488.28125 14.160156 488.28125 14.628906 C 488.28125 15.058594 488.652344 15.429688 489.082031 15.429688 C 489.550781 15.429688 489.921875 15.058594 489.921875 14.628906 C 489.921875 14.160156 489.550781 13.789062 489.101562 13.789062 Z M 489.101562 13.789062 "/>
<path style=" stroke:none;fill-rule:nonzero;fill:rgb(0%,0%,0%);fill-opacity:1;" d="M 496.179688 11.425781 L 496.179688 12.382812 L 499.851562 12.382812 L 499.851562 11.425781 Z M 496.179688 11.425781 "/>
<path style=" stroke:none;fill-rule:nonzero;fill:rgb(0%,0%,0%);fill-opacity:1;" d="M 502.445312 13.789062 C 501.996094 13.789062 501.625 14.160156 501.625 14.628906 C 501.625 15.058594 501.996094 15.429688 502.425781 15.429688 C 502.894531 15.429688 503.265625 15.058594 503.265625 14.628906 C 503.265625 14.160156 502.894531 13.789062 502.445312 13.789062 Z M 502.445312 13.789062 "/>
<path style=" stroke:none;fill-rule:nonzero;fill:rgb(0%,0%,0%);fill-opacity:1;" d="M 506.589844 10.351562 C 507.46875 10.351562 507.820312 10.371094 508.171875 10.507812 C 509.109375 10.839844 509.675781 11.679688 509.675781 12.714844 C 509.675781 13.964844 508.835938 14.941406 507.722656 14.941406 C 507.332031 14.941406 507.019531 14.84375 506.472656 14.472656 C 506.023438 14.21875 505.769531 14.101562 505.515625 14.101562 C 505.164062 14.101562 504.949219 14.316406 504.949219 14.628906 C 504.949219 15.15625 505.59375 15.488281 506.628906 15.488281 C 507.78125 15.488281 508.972656 15.097656 509.675781 14.472656 C 510.378906 13.867188 510.75 13.007812 510.75 11.992188 C 510.75 11.230469 510.515625 10.527344 510.085938 10.078125 C 509.792969 9.746094 509.5 9.570312 508.855469 9.277344 C 509.871094 8.574219 510.242188 8.027344 510.242188 7.226562 C 510.242188 6.015625 509.304688 5.175781 507.917969 5.175781 C 507.175781 5.175781 506.511719 5.429688 505.984375 5.898438 C 505.535156 6.308594 505.300781 6.699219 504.96875 7.597656 L 505.203125 7.65625 C 505.808594 6.5625 506.492188 6.074219 507.429688 6.074219 C 508.40625 6.074219 509.070312 6.71875 509.070312 7.675781 C 509.070312 8.203125 508.855469 8.75 508.464844 9.121094 C 508.015625 9.570312 507.605469 9.785156 506.589844 10.15625 Z M 506.589844 10.351562 "/>
<path style=" stroke:none;fill-rule:nonzero;fill:rgb(0%,0%,0%);fill-opacity:1;" d="M 518.4375 5.058594 C 516.738281 5.195312 515.878906 5.488281 514.785156 6.25 C 513.164062 7.402344 512.285156 9.101562 512.285156 11.113281 C 512.285156 12.402344 512.695312 13.710938 513.339844 14.472656 C 513.90625 15.117188 514.707031 15.488281 515.625 15.488281 C 517.480469 15.488281 518.769531 14.0625 518.769531 11.992188 C 518.769531 10.097656 517.675781 8.886719 515.957031 8.886719 C 515.3125 8.886719 514.980469 8.984375 514.042969 9.550781 C 514.453125 7.285156 516.132812 5.683594 518.476562 5.292969 Z M 515.390625 9.570312 C 516.679688 9.570312 517.421875 10.644531 517.421875 12.5 C 517.421875 14.160156 516.835938 15.058594 515.800781 15.058594 C 514.472656 15.058594 513.671875 13.652344 513.671875 11.347656 C 513.671875 10.585938 513.789062 10.15625 514.101562 9.941406 C 514.414062 9.707031 514.863281 9.570312 515.390625 9.570312 Z M 515.390625 9.570312 "/>
<path style=" stroke:none;fill-rule:nonzero;fill:rgb(0%,0%,0%);fill-opacity:1;" d="M 525.949219 5.390625 L 520.421875 5.390625 L 519.542969 7.578125 L 519.796875 7.695312 C 520.441406 6.679688 520.714844 6.484375 521.535156 6.484375 L 524.777344 6.484375 L 521.828125 15.390625 L 522.785156 15.390625 L 525.949219 5.625 Z M 525.949219 5.390625 "/>
<path style=" stroke:none;fill-rule:nonzero;fill:rgb(0%,0%,0%);fill-opacity:1;" d="M 527.601562 15.605469 C 529.28125 15.410156 530.101562 15.117188 531.117188 14.394531 C 532.660156 13.261719 533.578125 11.40625 533.578125 9.394531 C 533.578125 6.914062 532.210938 5.175781 530.277344 5.175781 C 528.5 5.175781 527.171875 6.679688 527.171875 8.691406 C 527.171875 10.527344 528.246094 11.738281 529.867188 11.738281 C 530.6875 11.738281 531.3125 11.484375 532.09375 10.878906 C 531.488281 13.320312 529.828125 14.921875 527.5625 15.3125 Z M 532.132812 9.960938 C 532.132812 10.273438 532.074219 10.410156 531.898438 10.527344 C 531.488281 10.898438 530.941406 11.09375 530.394531 11.09375 C 529.261719 11.09375 528.539062 9.960938 528.539062 8.183594 C 528.539062 7.34375 528.792969 6.445312 529.105469 6.054688 C 529.359375 5.761719 529.730469 5.585938 530.160156 5.585938 C 531.46875 5.585938 532.132812 6.875 532.132812 9.394531 Z M 532.132812 9.960938 "/>
<path style=" stroke:none;fill-rule:nonzero;fill:rgb(0%,0%,0%);fill-opacity:1;" d="M 542.285156 5.175781 L 539.589844 6.523438 L 539.589844 6.738281 C 539.765625 6.660156 539.941406 6.601562 540 6.582031 C 540.253906 6.464844 540.507812 6.40625 540.664062 6.40625 C 540.976562 6.40625 541.113281 6.640625 541.113281 7.109375 L 541.113281 13.886719 C 541.113281 14.375 540.996094 14.726562 540.761719 14.863281 C 540.527344 14.980469 540.3125 15.039062 539.6875 15.058594 L 539.6875 15.273438 L 543.808594 15.273438 L 543.808594 15.058594 C 542.636719 15.039062 542.402344 14.882812 542.402344 14.160156 L 542.402344 5.195312 Z M 542.285156 5.175781 "/>
<path style=" stroke:none;fill-rule:nonzero;fill:rgb(0%,0%,0%);fill-opacity:1;" d="M 547.277344 13.789062 C 546.828125 13.789062 546.457031 14.160156 546.457031 14.628906 C 546.457031 15.058594 546.828125 15.429688 547.257812 15.429688 C 547.726562 15.429688 548.097656 15.058594 548.097656 14.628906 C 548.097656 14.160156 547.726562 13.789062 547.277344 13.789062 Z M 547.277344 13.789062 "/>
<path style=" stroke:none;fill-rule:nonzero;fill:rgb(0%,0%,0%);fill-opacity:1;" d="M 556.226562 13.222656 L 556.03125 13.144531 C 555.484375 14.003906 555.289062 14.140625 554.625 14.140625 L 551.050781 14.140625 L 553.550781 11.503906 C 554.898438 10.117188 555.464844 8.984375 555.464844 7.8125 C 555.464844 6.328125 554.253906 5.175781 552.710938 5.175781 C 551.890625 5.175781 551.109375 5.507812 550.5625 6.09375 C 550.074219 6.601562 549.859375 7.089844 549.605469 8.144531 L 549.917969 8.222656 C 550.503906 6.757812 551.050781 6.269531 552.085938 6.269531 C 553.335938 6.269531 554.195312 7.128906 554.195312 8.378906 C 554.195312 9.550781 553.492188 10.9375 552.242188 12.265625 L 549.585938 15.097656 L 549.585938 15.273438 L 555.40625 15.273438 Z M 556.226562 13.222656 "/>
<path style=" stroke:none;fill-rule:nonzero;fill:rgb(0%,0%,0%);fill-opacity:1;" d="M 560.933594 11.425781 L 560.933594 12.382812 L 564.605469 12.382812 L 564.605469 11.425781 Z M 560.933594 11.425781 "/>
<path style=" stroke:none;fill-rule:nonzero;fill:rgb(0%,0%,0%);fill-opacity:1;" d="M 567.195312 13.789062 C 566.746094 13.789062 566.375 14.160156 566.375 14.628906 C 566.375 15.058594 566.746094 15.429688 567.175781 15.429688 C 567.644531 15.429688 568.015625 15.058594 568.015625 14.628906 C 568.015625 14.160156 567.644531 13.789062 567.195312 13.789062 Z M 567.195312 13.789062 "/>
<path style=" stroke:none;fill-rule:nonzero;fill:rgb(0%,0%,0%);fill-opacity:1;" d="M 576.148438 13.222656 L 575.953125 13.144531 C 575.40625 14.003906 575.210938 14.140625 574.546875 14.140625 L 570.972656 14.140625 L 573.472656 11.503906 C 574.820312 10.117188 575.386719 8.984375 575.386719 7.8125 C 575.386719 6.328125 574.175781 5.175781 572.632812 5.175781 C 571.8125 5.175781 571.03125 5.507812 570.484375 6.09375 C 569.996094 6.601562 569.78125 7.089844 569.527344 8.144531 L 569.839844 8.222656 C 570.425781 6.757812 570.972656 6.269531 572.007812 6.269531 C 573.257812 6.269531 574.117188 7.128906 574.117188 8.378906 C 574.117188 9.550781 573.414062 10.9375 572.164062 12.265625 L 569.507812 15.097656 L 569.507812 15.273438 L 575.328125 15.273438 Z M 576.148438 13.222656 "/>
<path style=" stroke:none;fill-rule:nonzero;fill:rgb(0%,0%,0%);fill-opacity:1;" d="M 583.582031 11.816406 L 582.058594 11.816406 L 582.058594 5.175781 L 581.394531 5.175781 L 576.707031 11.816406 L 576.707031 12.773438 L 580.90625 12.773438 L 580.90625 15.273438 L 582.058594 15.273438 L 582.058594 12.773438 L 583.582031 12.773438 Z M 580.886719 11.816406 L 577.3125 11.816406 L 580.886719 6.699219 Z M 580.886719 11.816406 "/>
<path style=" stroke:none;fill-rule:nonzero;fill:rgb(0%,0%,0%);fill-opacity:1;" d="M 586.289062 10.351562 C 587.167969 10.351562 587.519531 10.371094 587.871094 10.507812 C 588.808594 10.839844 589.375 11.679688 589.375 12.714844 C 589.375 13.964844 588.535156 14.941406 587.421875 14.941406 C 587.03125 14.941406 586.71875 14.84375 586.171875 14.472656 C 585.722656 14.21875 585.46875 14.101562 585.214844 14.101562 C 584.863281 14.101562 584.648438 14.316406 584.648438 14.628906 C 584.648438 15.15625 585.292969 15.488281 586.328125 15.488281 C 587.480469 15.488281 588.671875 15.097656 589.375 14.472656 C 590.078125 13.867188 590.449219 13.007812 590.449219 11.992188 C 590.449219 11.230469 590.214844 10.527344 589.785156 10.078125 C 589.492188 9.746094 589.199219 9.570312 588.554688 9.277344 C 589.570312 8.574219 589.941406 8.027344 589.941406 7.226562 C 589.941406 6.015625 589.003906 5.175781 587.617188 5.175781 C 586.875 5.175781 586.210938 5.429688 585.683594 5.898438 C 585.234375 6.308594 585 6.699219 584.667969 7.597656 L 584.902344 7.65625 C 585.507812 6.5625 586.191406 6.074219 587.128906 6.074219 C 588.105469 6.074219 588.769531 6.71875 588.769531 7.675781 C 588.769531 8.203125 588.554688 8.75 588.164062 9.121094 C 587.714844 9.570312 587.304688 9.785156 586.289062 10.15625 Z M 586.289062 10.351562 "/>
<path style=" stroke:none;fill-rule:nonzero;fill:rgb(0%,0%,0%);fill-opacity:1;" d="M 598.171875 5.390625 L 592.644531 5.390625 L 591.765625 7.578125 L 592.019531 7.695312 C 592.664062 6.679688 592.9375 6.484375 593.757812 6.484375 L 597 6.484375 L 594.050781 15.390625 L 595.007812 15.390625 L 598.171875 5.625 Z M 598.171875 5.390625 "/>
<path style=" stroke:none;fill-rule:nonzero;fill:rgb(0%,0%,0%);fill-opacity:1;" d="M 607.039062 5.175781 L 604.34375 6.523438 L 604.34375 6.738281 C 604.519531 6.660156 604.695312 6.601562 604.753906 6.582031 C 605.007812 6.464844 605.261719 6.40625 605.417969 6.40625 C 605.730469 6.40625 605.867188 6.640625 605.867188 7.109375 L 605.867188 13.886719 C 605.867188 14.375 605.75 14.726562 605.515625 14.863281 C 605.28125 14.980469 605.066406 15.039062 604.441406 15.058594 L 604.441406 15.273438 L 608.5625 15.273438 L 608.5625 15.058594 C 607.390625 15.039062 607.15625 14.882812 607.15625 14.160156 L 607.15625 5.195312 Z M 607.039062 5.175781 "/>
<path style=" stroke:none;fill-rule:nonzero;fill:rgb(0%,0%,0%);fill-opacity:1;" d="M 612.027344 13.789062 C 611.578125 13.789062 611.207031 14.160156 611.207031 14.628906 C 611.207031 15.058594 611.578125 15.429688 612.007812 15.429688 C 612.476562 15.429688 612.847656 15.058594 612.847656 14.628906 C 612.847656 14.160156 612.476562 13.789062 612.027344 13.789062 Z M 612.027344 13.789062 "/>
<path style=" stroke:none;fill-rule:nonzero;fill:rgb(0%,0%,0%);fill-opacity:1;" d="M 620.941406 11.816406 L 619.417969 11.816406 L 619.417969 5.175781 L 618.753906 5.175781 L 614.066406 11.816406 L 614.066406 12.773438 L 618.265625 12.773438 L 618.265625 15.273438 L 619.417969 15.273438 L 619.417969 12.773438 L 620.941406 12.773438 Z M 618.246094 11.816406 L 614.671875 11.816406 L 618.246094 6.699219 Z M 618.246094 11.816406 "/>
<path style=" stroke:none;fill-rule:nonzero;fill:rgb(0%,0%,0%);fill-opacity:1;" d="M 625.683594 11.425781 L 625.683594 12.382812 L 629.355469 12.382812 L 629.355469 11.425781 Z M 625.683594 11.425781 "/>
<path style=" stroke:none;fill-rule:nonzero;fill:rgb(0%,0%,0%);fill-opacity:1;" d="M 631.949219 13.789062 C 631.5 13.789062 631.128906 14.160156 631.128906 14.628906 C 631.128906 15.058594 631.5 15.429688 631.929688 15.429688 C 632.398438 15.429688 632.769531 15.058594 632.769531 14.628906 C 632.769531 14.160156 632.398438 13.789062 631.949219 13.789062 Z M 631.949219 13.789062 "/>
<path style=" stroke:none;fill-rule:nonzero;fill:rgb(0%,0%,0%);fill-opacity:1;" d="M 637.597656 5.175781 C 636.777344 5.175781 636.152344 5.429688 635.605469 5.957031 C 634.726562 6.777344 634.160156 8.496094 634.160156 10.253906 C 634.160156 11.875 634.667969 13.632812 635.371094 14.472656 C 635.917969 15.117188 636.679688 15.488281 637.539062 15.488281 C 638.300781 15.488281 638.945312 15.234375 639.492188 14.707031 C 640.351562 13.886719 640.917969 12.148438 640.917969 10.351562 C 640.917969 7.285156 639.570312 5.175781 637.597656 5.175781 Z M 637.558594 5.566406 C 638.808594 5.566406 639.492188 7.246094 639.492188 10.371094 C 639.492188 13.496094 638.828125 15.097656 637.539062 15.097656 C 636.25 15.097656 635.605469 13.496094 635.605469 10.390625 C 635.605469 7.226562 636.269531 5.566406 637.558594 5.566406 Z M 637.558594 5.566406 "/>
<path style=" stroke:none;fill-rule:nonzero;fill:rgb(0%,0%,0%);fill-opacity:1;" d="M 647.980469 5.390625 L 642.453125 5.390625 L 641.574219 7.578125 L 641.828125 7.695312 C 642.472656 6.679688 642.746094 6.484375 643.566406 6.484375 L 646.808594 6.484375 L 643.859375 15.390625 L 644.816406 15.390625 L 647.980469 5.625 Z M 647.980469 5.390625 "/>
<path style=" stroke:none;fill-rule:nonzero;fill:rgb(0%,0%,0%);fill-opacity:1;" d="M 655.414062 5.058594 C 653.714844 5.195312 652.855469 5.488281 651.761719 6.25 C 650.140625 7.402344 649.261719 9.101562 649.261719 11.113281 C 649.261719 12.402344 649.671875 13.710938 650.316406 14.472656 C 650.882812 15.117188 651.683594 15.488281 652.601562 15.488281 C 654.457031 15.488281 655.746094 14.0625 655.746094 11.992188 C 655.746094 10.097656 654.652344 8.886719 652.933594 8.886719 C 652.289062 8.886719 651.957031 8.984375 651.019531 9.550781 C 651.429688 7.285156 653.109375 5.683594 655.453125 5.292969 Z M 652.367188 9.570312 C 653.65625 9.570312 654.398438 10.644531 654.398438 12.5 C 654.398438 14.160156 653.8125 15.058594 652.777344 15.058594 C 651.449219 15.058594 650.648438 13.652344 650.648438 11.347656 C 650.648438 10.585938 650.765625 10.15625 651.078125 9.941406 C 651.390625 9.707031 651.839844 9.570312 652.367188 9.570312 Z M 652.367188 9.570312 "/>
<path style=" stroke:none;fill-rule:nonzero;fill:rgb(0%,0%,0%);fill-opacity:1;" d="M 663.316406 13.222656 L 663.121094 13.144531 C 662.574219 14.003906 662.378906 14.140625 661.714844 14.140625 L 658.140625 14.140625 L 660.640625 11.503906 C 661.988281 10.117188 662.554688 8.984375 662.554688 7.8125 C 662.554688 6.328125 661.34375 5.175781 659.800781 5.175781 C 658.980469 5.175781 658.199219 5.507812 657.652344 6.09375 C 657.164062 6.601562 656.949219 7.089844 656.695312 8.144531 L 657.007812 8.222656 C 657.59375 6.757812 658.140625 6.269531 659.175781 6.269531 C 660.425781 6.269531 661.285156 7.128906 661.285156 8.378906 C 661.285156 9.550781 660.582031 10.9375 659.332031 12.265625 L 656.675781 15.097656 L 656.675781 15.273438 L 662.496094 15.273438 Z M 663.316406 13.222656 "/>
<path style=" stroke:none;fill-rule:nonzero;fill:rgb(0%,0%,0%);fill-opacity:1;" d="M 667.488281 5.175781 C 666.667969 5.175781 666.042969 5.429688 665.496094 5.957031 C 664.617188 6.777344 664.050781 8.496094 664.050781 10.253906 C 664.050781 11.875 664.558594 13.632812 665.261719 14.472656 C 665.808594 15.117188 666.570312 15.488281 667.429688 15.488281 C 668.191406 15.488281 668.835938 15.234375 669.382812 14.707031 C 670.242188 13.886719 670.808594 12.148438 670.808594 10.351562 C 670.808594 7.285156 669.460938 5.175781 667.488281 5.175781 Z M 667.449219 5.566406 C 668.699219 5.566406 669.382812 7.246094 669.382812 10.371094 C 669.382812 13.496094 668.71875 15.097656 667.429688 15.097656 C 666.140625 15.097656 665.496094 13.496094 665.496094 10.390625 C 665.496094 7.226562 666.160156 5.566406 667.449219 5.566406 Z M 667.449219 5.566406 "/>
</g>
</svg>
