<?xml version="1.0" encoding="UTF-8"?>
<svg xmlns="http://www.w3.org/2000/svg" xmlns:xlink="http://www.w3.org/1999/xlink" width="684.17651pt" height="20.605469pt" viewBox="0 0 684.17651 20.605469" version="1.1">
<g id="surface145">
<path style=" stroke:none;fill-rule:nonzero;fill:rgb(0%,0%,0%);fill-opacity:1;" d="M 5 11.425781 L 5 12.382812 L 8.671875 12.382812 L 8.671875 11.425781 Z M 5 11.425781 "/>
<path style=" stroke:none;fill-rule:nonzero;fill:rgb(0%,0%,0%);fill-opacity:1;" d="M 13.746094 5.175781 L 11.050781 6.523438 L 11.050781 6.738281 C 11.226562 6.660156 11.402344 6.601562 11.460938 6.582031 C 11.714844 6.464844 11.96875 6.40625 12.125 6.40625 C 12.4375 6.40625 12.574219 6.640625 12.574219 7.109375 L 12.574219 13.886719 C 12.574219 14.375 12.457031 14.726562 12.222656 14.863281 C 11.988281 14.980469 11.773438 15.039062 11.148438 15.058594 L 11.148438 15.273438 L 15.269531 15.273438 L 15.269531 15.058594 C 14.097656 15.039062 13.863281 14.882812 13.863281 14.160156 L 13.863281 5.195312 Z M 13.746094 5.175781 "/>
<path style=" stroke:none;fill-rule:nonzero;fill:rgb(0%,0%,0%);fill-opacity:1;" d="M 20.652344 5.175781 C 19.832031 5.175781 19.207031 5.429688 18.660156 5.957031 C 17.78125 6.777344 17.214844 8.496094 17.214844 10.253906 C 17.214844 11.875 17.722656 13.632812 18.425781 14.472656 C 18.972656 15.117188 19.734375 15.488281 20.59375 15.488281 C 21.355469 15.488281 22 15.234375 22.546875 14.707031 C 23.40625 13.886719 23.972656 12.148438 23.972656 10.351562 C 23.972656 7.285156 22.625 5.175781 20.652344 5.175781 Z M 20.613281 5.566406 C 21.863281 5.566406 22.546875 7.246094 22.546875 10.371094 C 22.546875 13.496094 21.882812 15.097656 20.59375 15.097656 C 19.304688 15.097656 18.660156 13.496094 18.660156 10.390625 C 18.660156 7.226562 19.324219 5.566406 20.613281 5.566406 Z M 20.613281 5.566406 "/>
<path style=" stroke:none;fill-rule:nonzero;fill:rgb(0%,0%,0%);fill-opacity:1;" d="M 26.210938 13.789062 C 25.761719 13.789062 25.390625 14.160156 25.390625 14.628906 C 25.390625 15.058594 25.761719 15.429688 26.191406 15.429688 C 26.660156 15.429688 27.03125 15.058594 27.03125 14.628906 C 27.03125 14.160156 26.660156 13.789062 26.210938 13.789062 Z M 26.210938 13.789062 "/>
<path style=" stroke:none;fill-rule:nonzero;fill:rgb(0%,0%,0%);fill-opacity:1;" d="M 33.289062 11.425781 L 33.289062 12.382812 L 36.960938 12.382812 L 36.960938 11.425781 Z M 33.289062 11.425781 "/>
<path style=" stroke:none;fill-rule:nonzero;fill:rgb(0%,0%,0%);fill-opacity:1;" d="M 39.554688 13.789062 C 39.105469 13.789062 38.734375 14.160156 38.734375 14.628906 C 38.734375 15.058594 39.105469 15.429688 39.535156 15.429688 C 40.003906 15.429688 40.375 15.058594 40.375 14.628906 C 40.375 14.160156 40.003906 13.789062 39.554688 13.789062 Z M 39.554688 13.789062 "/>
<path style=" stroke:none;fill-rule:nonzero;fill:rgb(0%,0%,0%);fill-opacity:1;" d="M 45.203125 5.175781 C 44.382812 5.175781 43.757812 5.429688 43.210938 5.957031 C 42.332031 6.777344 41.765625 8.496094 41.765625 10.253906 C 41.765625 11.875 42.273438 13.632812 42.976562 14.472656 C 43.523438 15.117188 44.285156 15.488281 45.144531 15.488281 C 45.90625 15.488281 46.550781 15.234375 47.097656 14.707031 C 47.957031 13.886719 48.523438 12.148438 48.523438 10.351562 C 48.523438 7.285156 47.175781 5.175781 45.203125 5.175781 Z M 45.164062 5.566406 C 46.414062 5.566406 47.097656 7.246094 47.097656 10.371094 C 47.097656 13.496094 46.433594 15.097656 45.144531 15.097656 C 43.855469 15.097656 43.210938 13.496094 43.210938 10.390625 C 43.210938 7.226562 43.875 5.566406 45.164062 5.566406 Z M 45.164062 5.566406 "/>
<path style=" stroke:none;fill-rule:nonzero;fill:rgb(0%,0%,0%);fill-opacity:1;" d="M 49.765625 15.605469 C 51.445312 15.410156 52.265625 15.117188 53.28125 14.394531 C 54.824219 13.261719 55.742188 11.40625 55.742188 9.394531 C 55.742188 6.914062 54.375 5.175781 52.441406 5.175781 C 50.664062 5.175781 49.335938 6.679688 49.335938 8.691406 C 49.335938 10.527344 50.410156 11.738281 52.03125 11.738281 C 52.851562 11.738281 53.476562 11.484375 54.257812 10.878906 C 53.652344 13.320312 51.992188 14.921875 49.726562 15.3125 Z M 54.296875 9.960938 C 54.296875 10.273438 54.238281 10.410156 54.0625 10.527344 C 53.652344 10.898438 53.105469 11.09375 52.558594 11.09375 C 51.425781 11.09375 50.703125 9.960938 50.703125 8.183594 C 50.703125 7.34375 50.957031 6.445312 51.269531 6.054688 C 51.523438 5.761719 51.894531 5.585938 52.324219 5.585938 C 53.632812 5.585938 54.296875 6.875 54.296875 9.394531 Z M 54.296875 9.960938 "/>
<path style=" stroke:none;fill-rule:nonzero;fill:rgb(0%,0%,0%);fill-opacity:1;" d="M 57.238281 15.605469 C 58.917969 15.410156 59.738281 15.117188 60.753906 14.394531 C 62.296875 13.261719 63.214844 11.40625 63.214844 9.394531 C 63.214844 6.914062 61.847656 5.175781 59.914062 5.175781 C 58.136719 5.175781 56.808594 6.679688 56.808594 8.691406 C 56.808594 10.527344 57.882812 11.738281 59.503906 11.738281 C 60.324219 11.738281 60.949219 11.484375 61.730469 10.878906 C 61.125 13.320312 59.464844 14.921875 57.199219 15.3125 Z M 61.769531 9.960938 C 61.769531 10.273438 61.710938 10.410156 61.535156 10.527344 C 61.125 10.898438 60.578125 11.09375 60.03125 11.09375 C 58.898438 11.09375 58.175781 9.960938 58.175781 8.183594 C 58.175781 7.34375 58.429688 6.445312 58.742188 6.054688 C 58.996094 5.761719 59.367188 5.585938 59.796875 5.585938 C 61.105469 5.585938 61.769531 6.875 61.769531 9.394531 Z M 61.769531 9.960938 "/>
<path style=" stroke:none;fill-rule:nonzero;fill:rgb(0%,0%,0%);fill-opacity:1;" d="M 67.621094 5.175781 C 66.800781 5.175781 66.175781 5.429688 65.628906 5.957031 C 64.75 6.777344 64.183594 8.496094 64.183594 10.253906 C 64.183594 11.875 64.691406 13.632812 65.394531 14.472656 C 65.941406 15.117188 66.703125 15.488281 67.5625 15.488281 C 68.324219 15.488281 68.96875 15.234375 69.515625 14.707031 C 70.375 13.886719 70.941406 12.148438 70.941406 10.351562 C 70.941406 7.285156 69.59375 5.175781 67.621094 5.175781 Z M 67.582031 5.566406 C 68.832031 5.566406 69.515625 7.246094 69.515625 10.371094 C 69.515625 13.496094 68.851562 15.097656 67.5625 15.097656 C 66.273438 15.097656 65.628906 13.496094 65.628906 10.390625 C 65.628906 7.226562 66.292969 5.566406 67.582031 5.566406 Z M 67.582031 5.566406 "/>
<path style=" stroke:none;fill-rule:nonzero;fill:rgb(0%,0%,0%);fill-opacity:1;" d="M 75.09375 5.175781 C 74.273438 5.175781 73.648438 5.429688 73.101562 5.957031 C 72.222656 6.777344 71.65625 8.496094 71.65625 10.253906 C 71.65625 11.875 72.164062 13.632812 72.867188 14.472656 C 73.414062 15.117188 74.175781 15.488281 75.035156 15.488281 C 75.796875 15.488281 76.441406 15.234375 76.988281 14.707031 C 77.847656 13.886719 78.414062 12.148438 78.414062 10.351562 C 78.414062 7.285156 77.066406 5.175781 75.09375 5.175781 Z M 75.054688 5.566406 C 76.304688 5.566406 76.988281 7.246094 76.988281 10.371094 C 76.988281 13.496094 76.324219 15.097656 75.035156 15.097656 C 73.746094 15.097656 73.101562 13.496094 73.101562 10.390625 C 73.101562 7.226562 73.765625 5.566406 75.054688 5.566406 Z M 75.054688 5.566406 "/>
<path style=" stroke:none;fill-rule:nonzero;fill:rgb(0%,0%,0%);fill-opacity:1;" d="M 83.097656 11.425781 L 83.097656 12.382812 L 86.769531 12.382812 L 86.769531 11.425781 Z M 83.097656 11.425781 "/>
<path style=" stroke:none;fill-rule:nonzero;fill:rgb(0%,0%,0%);fill-opacity:1;" d="M 88.367188 15.605469 C 90.046875 15.410156 90.867188 15.117188 91.882812 14.394531 C 93.425781 13.261719 94.34375 11.40625 94.34375 9.394531 C 94.34375 6.914062 92.976562 5.175781 91.042969 5.175781 C 89.265625 5.175781 87.9375 6.679688 87.9375 8.691406 C 87.9375 10.527344 89.011719 11.738281 90.632812 11.738281 C 91.453125 11.738281 92.078125 11.484375 92.859375 10.878906 C 92.253906 13.320312 90.59375 14.921875 88.328125 15.3125 Z M 92.898438 9.960938 C 92.898438 10.273438 92.839844 10.410156 92.664062 10.527344 C 92.253906 10.898438 91.707031 11.09375 91.160156 11.09375 C 90.027344 11.09375 89.304688 9.960938 89.304688 8.183594 C 89.304688 7.34375 89.558594 6.445312 89.871094 6.054688 C 90.125 5.761719 90.496094 5.585938 90.925781 5.585938 C 92.234375 5.585938 92.898438 6.875 92.898438 9.394531 Z M 92.898438 9.960938 "/>
<path style=" stroke:none;fill-rule:nonzero;fill:rgb(0%,0%,0%);fill-opacity:1;" d="M 96.835938 13.789062 C 96.386719 13.789062 96.015625 14.160156 96.015625 14.628906 C 96.015625 15.058594 96.386719 15.429688 96.816406 15.429688 C 97.285156 15.429688 97.65625 15.058594 97.65625 14.628906 C 97.65625 14.160156 97.285156 13.789062 96.835938 13.789062 Z M 96.835938 13.789062 "/>
<path style=" stroke:none;fill-rule:nonzero;fill:rgb(0%,0%,0%);fill-opacity:1;" d="M 103.914062 11.425781 L 103.914062 12.382812 L 107.585938 12.382812 L 107.585938 11.425781 Z M 103.914062 11.425781 "/>
<path style=" stroke:none;fill-rule:nonzero;fill:rgb(0%,0%,0%);fill-opacity:1;" d="M 110.179688 13.789062 C 109.730469 13.789062 109.359375 14.160156 109.359375 14.628906 C 109.359375 15.058594 109.730469 15.429688 110.160156 15.429688 C 110.628906 15.429688 111 15.058594 111 14.628906 C 111 14.160156 110.628906 13.789062 110.179688 13.789062 Z M 110.179688 13.789062 "/>
<path style=" stroke:none;fill-rule:nonzero;fill:rgb(0%,0%,0%);fill-opacity:1;" d="M 116.394531 5.175781 L 113.699219 6.523438 L 113.699219 6.738281 C 113.875 6.660156 114.050781 6.601562 114.109375 6.582031 C 114.363281 6.464844 114.617188 6.40625 114.773438 6.40625 C 115.085938 6.40625 115.222656 6.640625 115.222656 7.109375 L 115.222656 13.886719 C 115.222656 14.375 115.105469 14.726562 114.871094 14.863281 C 114.636719 14.980469 114.421875 15.039062 113.796875 15.058594 L 113.796875 15.273438 L 117.917969 15.273438 L 117.917969 15.058594 C 116.746094 15.039062 116.511719 14.882812 116.511719 14.160156 L 116.511719 5.195312 Z M 116.394531 5.175781 "/>
<path style=" stroke:none;fill-rule:nonzero;fill:rgb(0%,0%,0%);fill-opacity:1;" d="M 123.300781 5.175781 C 122.480469 5.175781 121.855469 5.429688 121.308594 5.957031 C 120.429688 6.777344 119.863281 8.496094 119.863281 10.253906 C 119.863281 11.875 120.371094 13.632812 121.074219 14.472656 C 121.621094 15.117188 122.382812 15.488281 123.242188 15.488281 C 124.003906 15.488281 124.648438 15.234375 125.195312 14.707031 C 126.054688 13.886719 126.621094 12.148438 126.621094 10.351562 C 126.621094 7.285156 125.273438 5.175781 123.300781 5.175781 Z M 123.261719 5.566406 C 124.511719 5.566406 125.195312 7.246094 125.195312 10.371094 C 125.195312 13.496094 124.53125 15.097656 123.242188 15.097656 C 121.953125 15.097656 121.308594 13.496094 121.308594 10.390625 C 121.308594 7.226562 121.972656 5.566406 123.261719 5.566406 Z M 123.261719 5.566406 "/>
<path style=" stroke:none;fill-rule:nonzero;fill:rgb(0%,0%,0%);fill-opacity:1;" d="M 131.320312 9.726562 C 132.804688 8.945312 133.3125 8.320312 133.3125 7.285156 C 133.3125 6.074219 132.238281 5.175781 130.753906 5.175781 C 129.113281 5.175781 127.902344 6.171875 127.902344 7.539062 C 127.902344 8.496094 128.195312 8.945312 129.757812 10.3125 C 128.15625 11.542969 127.824219 11.992188 127.824219 13.007812 C 127.824219 14.472656 128.996094 15.488281 130.695312 15.488281 C 132.492188 15.488281 133.625 14.492188 133.625 12.949219 C 133.625 11.816406 133.117188 11.074219 131.320312 9.726562 Z M 131.046875 11.269531 C 132.140625 12.050781 132.492188 12.578125 132.492188 13.417969 C 132.492188 14.394531 131.828125 15.058594 130.851562 15.058594 C 129.71875 15.058594 128.957031 14.199219 128.957031 12.890625 C 128.957031 11.933594 129.289062 11.308594 130.148438 10.605469 Z M 130.890625 9.453125 C 129.5625 8.59375 129.015625 7.910156 129.015625 7.070312 C 129.015625 6.210938 129.679688 5.585938 130.636719 5.585938 C 131.652344 5.585938 132.296875 6.25 132.296875 7.285156 C 132.296875 8.125 131.867188 8.808594 131.027344 9.375 C 130.949219 9.414062 130.949219 9.414062 130.890625 9.453125 Z M 130.890625 9.453125 "/>
<path style=" stroke:none;fill-rule:nonzero;fill:rgb(0%,0%,0%);fill-opacity:1;" d="M 136.742188 10.351562 C 137.621094 10.351562 137.972656 10.371094 138.324219 10.507812 C 139.261719 10.839844 139.828125 11.679688 139.828125 12.714844 C 139.828125 13.964844 138.988281 14.941406 137.875 14.941406 C 137.484375 14.941406 137.171875 14.84375 136.625 14.472656 C 136.175781 14.21875 135.921875 14.101562 135.667969 14.101562 C 135.316406 14.101562 135.101562 14.316406 135.101562 14.628906 C 135.101562 15.15625 135.746094 15.488281 136.78125 15.488281 C 137.933594 15.488281 139.125 15.097656 139.828125 14.472656 C 140.53125 13.867188 140.902344 13.007812 140.902344 11.992188 C 140.902344 11.230469 140.667969 10.527344 140.238281 10.078125 C 139.945312 9.746094 139.652344 9.570312 139.007812 9.277344 C 140.023438 8.574219 140.394531 8.027344 140.394531 7.226562 C 140.394531 6.015625 139.457031 5.175781 138.070312 5.175781 C 137.328125 5.175781 136.664062 5.429688 136.136719 5.898438 C 135.6875 6.308594 135.453125 6.699219 135.121094 7.597656 L 135.355469 7.65625 C 135.960938 6.5625 136.644531 6.074219 137.582031 6.074219 C 138.558594 6.074219 139.222656 6.71875 139.222656 7.675781 C 139.222656 8.203125 139.007812 8.75 138.617188 9.121094 C 138.167969 9.570312 137.757812 9.785156 136.742188 10.15625 Z M 136.742188 10.351562 "/>
<path style=" stroke:none;fill-rule:nonzero;fill:rgb(0%,0%,0%);fill-opacity:1;" d="M 146.25 11.425781 L 146.25 12.382812 L 149.921875 12.382812 L 149.921875 11.425781 Z M 146.25 11.425781 "/>
<path style=" stroke:none;fill-rule:nonzero;fill:rgb(0%,0%,0%);fill-opacity:1;" d="M 154.976562 9.726562 C 156.460938 8.945312 156.96875 8.320312 156.96875 7.285156 C 156.96875 6.074219 155.894531 5.175781 154.410156 5.175781 C 152.769531 5.175781 151.558594 6.171875 151.558594 7.539062 C 151.558594 8.496094 151.851562 8.945312 153.414062 10.3125 C 151.8125 11.542969 151.480469 11.992188 151.480469 13.007812 C 151.480469 14.472656 152.652344 15.488281 154.351562 15.488281 C 156.148438 15.488281 157.28125 14.492188 157.28125 12.949219 C 157.28125 11.816406 156.773438 11.074219 154.976562 9.726562 Z M 154.703125 11.269531 C 155.796875 12.050781 156.148438 12.578125 156.148438 13.417969 C 156.148438 14.394531 155.484375 15.058594 154.507812 15.058594 C 153.375 15.058594 152.613281 14.199219 152.613281 12.890625 C 152.613281 11.933594 152.945312 11.308594 153.804688 10.605469 Z M 154.546875 9.453125 C 153.21875 8.59375 152.671875 7.910156 152.671875 7.070312 C 152.671875 6.210938 153.335938 5.585938 154.292969 5.585938 C 155.308594 5.585938 155.953125 6.25 155.953125 7.285156 C 155.953125 8.125 155.523438 8.808594 154.683594 9.375 C 154.605469 9.414062 154.605469 9.414062 154.546875 9.453125 Z M 154.546875 9.453125 "/>
<path style=" stroke:none;fill-rule:nonzero;fill:rgb(0%,0%,0%);fill-opacity:1;" d="M 159.988281 13.789062 C 159.539062 13.789062 159.167969 14.160156 159.167969 14.628906 C 159.167969 15.058594 159.539062 15.429688 159.96875 15.429688 C 160.4375 15.429688 160.808594 15.058594 160.808594 14.628906 C 160.808594 14.160156 160.4375 13.789062 159.988281 13.789062 Z M 159.988281 13.789062 "/>
<path style=" stroke:none;fill-rule:nonzero;fill:rgb(0%,0%,0%);fill-opacity:1;" d="M 167.066406 11.425781 L 167.066406 12.382812 L 170.738281 12.382812 L 170.738281 11.425781 Z M 167.066406 11.425781 "/>
<path style=" stroke:none;fill-rule:nonzero;fill:rgb(0%,0%,0%);fill-opacity:1;" d="M 173.332031 13.789062 C 172.882812 13.789062 172.511719 14.160156 172.511719 14.628906 C 172.511719 15.058594 172.882812 15.429688 173.3125 15.429688 C 173.78125 15.429688 174.152344 15.058594 174.152344 14.628906 C 174.152344 14.160156 173.78125 13.789062 173.332031 13.789062 Z M 173.332031 13.789062 "/>
<path style=" stroke:none;fill-rule:nonzero;fill:rgb(0%,0%,0%);fill-opacity:1;" d="M 179.550781 5.175781 L 176.855469 6.523438 L 176.855469 6.738281 C 177.03125 6.660156 177.207031 6.601562 177.265625 6.582031 C 177.519531 6.464844 177.773438 6.40625 177.929688 6.40625 C 178.242188 6.40625 178.378906 6.640625 178.378906 7.109375 L 178.378906 13.886719 C 178.378906 14.375 178.261719 14.726562 178.027344 14.863281 C 177.792969 14.980469 177.578125 15.039062 176.953125 15.058594 L 176.953125 15.273438 L 181.074219 15.273438 L 181.074219 15.058594 C 179.902344 15.039062 179.667969 14.882812 179.667969 14.160156 L 179.667969 5.195312 Z M 179.550781 5.175781 "/>
<path style=" stroke:none;fill-rule:nonzero;fill:rgb(0%,0%,0%);fill-opacity:1;" d="M 187.023438 5.175781 L 184.328125 6.523438 L 184.328125 6.738281 C 184.503906 6.660156 184.679688 6.601562 184.738281 6.582031 C 184.992188 6.464844 185.246094 6.40625 185.402344 6.40625 C 185.714844 6.40625 185.851562 6.640625 185.851562 7.109375 L 185.851562 13.886719 C 185.851562 14.375 185.734375 14.726562 185.5 14.863281 C 185.265625 14.980469 185.050781 15.039062 184.425781 15.058594 L 184.425781 15.273438 L 188.546875 15.273438 L 188.546875 15.058594 C 187.375 15.039062 187.140625 14.882812 187.140625 14.160156 L 187.140625 5.195312 Z M 187.023438 5.175781 "/>
<path style=" stroke:none;fill-rule:nonzero;fill:rgb(0%,0%,0%);fill-opacity:1;" d="M 194.472656 9.726562 C 195.957031 8.945312 196.464844 8.320312 196.464844 7.285156 C 196.464844 6.074219 195.390625 5.175781 193.90625 5.175781 C 192.265625 5.175781 191.054688 6.171875 191.054688 7.539062 C 191.054688 8.496094 191.347656 8.945312 192.910156 10.3125 C 191.308594 11.542969 190.976562 11.992188 190.976562 13.007812 C 190.976562 14.472656 192.148438 15.488281 193.847656 15.488281 C 195.644531 15.488281 196.777344 14.492188 196.777344 12.949219 C 196.777344 11.816406 196.269531 11.074219 194.472656 9.726562 Z M 194.199219 11.269531 C 195.292969 12.050781 195.644531 12.578125 195.644531 13.417969 C 195.644531 14.394531 194.980469 15.058594 194.003906 15.058594 C 192.871094 15.058594 192.109375 14.199219 192.109375 12.890625 C 192.109375 11.933594 192.441406 11.308594 193.300781 10.605469 Z M 194.042969 9.453125 C 192.714844 8.59375 192.167969 7.910156 192.167969 7.070312 C 192.167969 6.210938 192.832031 5.585938 193.789062 5.585938 C 194.804688 5.585938 195.449219 6.25 195.449219 7.285156 C 195.449219 8.125 195.019531 8.808594 194.179688 9.375 C 194.101562 9.414062 194.101562 9.414062 194.042969 9.453125 Z M 194.042969 9.453125 "/>
<path style=" stroke:none;fill-rule:nonzero;fill:rgb(0%,0%,0%);fill-opacity:1;" d="M 198.488281 15.605469 C 200.167969 15.410156 200.988281 15.117188 202.003906 14.394531 C 203.546875 13.261719 204.464844 11.40625 204.464844 9.394531 C 204.464844 6.914062 203.097656 5.175781 201.164062 5.175781 C 199.386719 5.175781 198.058594 6.679688 198.058594 8.691406 C 198.058594 10.527344 199.132812 11.738281 200.753906 11.738281 C 201.574219 11.738281 202.199219 11.484375 202.980469 10.878906 C 202.375 13.320312 200.714844 14.921875 198.449219 15.3125 Z M 203.019531 9.960938 C 203.019531 10.273438 202.960938 10.410156 202.785156 10.527344 C 202.375 10.898438 201.828125 11.09375 201.28125 11.09375 C 200.148438 11.09375 199.425781 9.960938 199.425781 8.183594 C 199.425781 7.34375 199.679688 6.445312 199.992188 6.054688 C 200.246094 5.761719 200.617188 5.585938 201.046875 5.585938 C 202.355469 5.585938 203.019531 6.875 203.019531 9.394531 Z M 203.019531 9.960938 "/>
<path style=" stroke:none;fill-rule:nonzero;fill:rgb(0%,0%,0%);fill-opacity:1;" d="M 209.402344 11.425781 L 209.402344 12.382812 L 213.074219 12.382812 L 213.074219 11.425781 Z M 209.402344 11.425781 "/>
<path style=" stroke:none;fill-rule:nonzero;fill:rgb(0%,0%,0%);fill-opacity:1;" d="M 220.492188 5.390625 L 214.964844 5.390625 L 214.085938 7.578125 L 214.339844 7.695312 C 214.984375 6.679688 215.257812 6.484375 216.078125 6.484375 L 219.320312 6.484375 L 216.371094 15.390625 L 217.328125 15.390625 L 220.492188 5.625 Z M 220.492188 5.390625 "/>
<path style=" stroke:none;fill-rule:nonzero;fill:rgb(0%,0%,0%);fill-opacity:1;" d="M 223.140625 13.789062 C 222.691406 13.789062 222.320312 14.160156 222.320312 14.628906 C 222.320312 15.058594 222.691406 15.429688 223.121094 15.429688 C 223.589844 15.429688 223.960938 15.058594 223.960938 14.628906 C 223.960938 14.160156 223.589844 13.789062 223.140625 13.789062 Z M 223.140625 13.789062 "/>
<path style=" stroke:none;fill-rule:nonzero;fill:rgb(0%,0%,0%);fill-opacity:1;" d="M 230.222656 11.425781 L 230.222656 12.382812 L 233.894531 12.382812 L 233.894531 11.425781 Z M 230.222656 11.425781 "/>
<path style=" stroke:none;fill-rule:nonzero;fill:rgb(0%,0%,0%);fill-opacity:1;" d="M 236.488281 13.789062 C 236.039062 13.789062 235.667969 14.160156 235.667969 14.628906 C 235.667969 15.058594 236.039062 15.429688 236.46875 15.429688 C 236.9375 15.429688 237.308594 15.058594 237.308594 14.628906 C 237.308594 14.160156 236.9375 13.789062 236.488281 13.789062 Z M 236.488281 13.789062 "/>
<path style=" stroke:none;fill-rule:nonzero;fill:rgb(0%,0%,0%);fill-opacity:1;" d="M 242.703125 5.175781 L 240.007812 6.523438 L 240.007812 6.738281 C 240.183594 6.660156 240.359375 6.601562 240.417969 6.582031 C 240.671875 6.464844 240.925781 6.40625 241.082031 6.40625 C 241.394531 6.40625 241.53125 6.640625 241.53125 7.109375 L 241.53125 13.886719 C 241.53125 14.375 241.414062 14.726562 241.179688 14.863281 C 240.945312 14.980469 240.730469 15.039062 240.105469 15.058594 L 240.105469 15.273438 L 244.226562 15.273438 L 244.226562 15.058594 C 243.054688 15.039062 242.820312 14.882812 242.820312 14.160156 L 242.820312 5.195312 Z M 242.703125 5.175781 "/>
<path style=" stroke:none;fill-rule:nonzero;fill:rgb(0%,0%,0%);fill-opacity:1;" d="M 248.105469 10.351562 C 248.984375 10.351562 249.335938 10.371094 249.6875 10.507812 C 250.625 10.839844 251.191406 11.679688 251.191406 12.714844 C 251.191406 13.964844 250.351562 14.941406 249.238281 14.941406 C 248.847656 14.941406 248.535156 14.84375 247.988281 14.472656 C 247.539062 14.21875 247.285156 14.101562 247.03125 14.101562 C 246.679688 14.101562 246.464844 14.316406 246.464844 14.628906 C 246.464844 15.15625 247.109375 15.488281 248.144531 15.488281 C 249.296875 15.488281 250.488281 15.097656 251.191406 14.472656 C 251.894531 13.867188 252.265625 13.007812 252.265625 11.992188 C 252.265625 11.230469 252.03125 10.527344 251.601562 10.078125 C 251.308594 9.746094 251.015625 9.570312 250.371094 9.277344 C 251.386719 8.574219 251.757812 8.027344 251.757812 7.226562 C 251.757812 6.015625 250.820312 5.175781 249.433594 5.175781 C 248.691406 5.175781 248.027344 5.429688 247.5 5.898438 C 247.050781 6.308594 246.816406 6.699219 246.484375 7.597656 L 246.71875 7.65625 C 247.324219 6.5625 248.007812 6.074219 248.945312 6.074219 C 249.921875 6.074219 250.585938 6.71875 250.585938 7.675781 C 250.585938 8.203125 250.371094 8.75 249.980469 9.121094 C 249.53125 9.570312 249.121094 9.785156 248.105469 10.15625 Z M 248.105469 10.351562 "/>
<path style=" stroke:none;fill-rule:nonzero;fill:rgb(0%,0%,0%);fill-opacity:1;" d="M 257.082031 5.175781 C 256.261719 5.175781 255.636719 5.429688 255.089844 5.957031 C 254.210938 6.777344 253.644531 8.496094 253.644531 10.253906 C 253.644531 11.875 254.152344 13.632812 254.855469 14.472656 C 255.402344 15.117188 256.164062 15.488281 257.023438 15.488281 C 257.785156 15.488281 258.429688 15.234375 258.976562 14.707031 C 259.835938 13.886719 260.402344 12.148438 260.402344 10.351562 C 260.402344 7.285156 259.054688 5.175781 257.082031 5.175781 Z M 257.042969 5.566406 C 258.292969 5.566406 258.976562 7.246094 258.976562 10.371094 C 258.976562 13.496094 258.3125 15.097656 257.023438 15.097656 C 255.734375 15.097656 255.089844 13.496094 255.089844 10.390625 C 255.089844 7.226562 255.753906 5.566406 257.042969 5.566406 Z M 257.042969 5.566406 "/>
<path style=" stroke:none;fill-rule:nonzero;fill:rgb(0%,0%,0%);fill-opacity:1;" d="M 265.097656 9.726562 C 266.582031 8.945312 267.089844 8.320312 267.089844 7.285156 C 267.089844 6.074219 266.015625 5.175781 264.53125 5.175781 C 262.890625 5.175781 261.679688 6.171875 261.679688 7.539062 C 261.679688 8.496094 261.972656 8.945312 263.535156 10.3125 C 261.933594 11.542969 261.601562 11.992188 261.601562 13.007812 C 261.601562 14.472656 262.773438 15.488281 264.472656 15.488281 C 266.269531 15.488281 267.402344 14.492188 267.402344 12.949219 C 267.402344 11.816406 266.894531 11.074219 265.097656 9.726562 Z M 264.824219 11.269531 C 265.917969 12.050781 266.269531 12.578125 266.269531 13.417969 C 266.269531 14.394531 265.605469 15.058594 264.628906 15.058594 C 263.496094 15.058594 262.734375 14.199219 262.734375 12.890625 C 262.734375 11.933594 263.066406 11.308594 263.925781 10.605469 Z M 264.667969 9.453125 C 263.339844 8.59375 262.792969 7.910156 262.792969 7.070312 C 262.792969 6.210938 263.457031 5.585938 264.414062 5.585938 C 265.429688 5.585938 266.074219 6.25 266.074219 7.285156 C 266.074219 8.125 265.644531 8.808594 264.804688 9.375 C 264.726562 9.414062 264.726562 9.414062 264.667969 9.453125 Z M 264.667969 9.453125 "/>
<path style=" stroke:none;fill-rule:nonzero;fill:rgb(0%,0%,0%);fill-opacity:1;" d="M 272.558594 11.425781 L 272.558594 12.382812 L 276.230469 12.382812 L 276.230469 11.425781 Z M 272.558594 11.425781 "/>
<path style=" stroke:none;fill-rule:nonzero;fill:rgb(0%,0%,0%);fill-opacity:1;" d="M 283.609375 5.058594 C 281.910156 5.195312 281.050781 5.488281 279.957031 6.25 C 278.335938 7.402344 277.457031 9.101562 277.457031 11.113281 C 277.457031 12.402344 277.867188 13.710938 278.511719 14.472656 C 279.078125 15.117188 279.878906 15.488281 280.796875 15.488281 C 282.652344 15.488281 283.941406 14.0625 283.941406 11.992188 C 283.941406 10.097656 282.847656 8.886719 281.128906 8.886719 C 280.484375 8.886719 280.152344 8.984375 279.214844 9.550781 C 279.625 7.285156 281.304688 5.683594 283.648438 5.292969 Z M 280.5625 9.570312 C 281.851562 9.570312 282.59375 10.644531 282.59375 12.5 C 282.59375 14.160156 282.007812 15.058594 280.972656 15.058594 C 279.644531 15.058594 278.84375 13.652344 278.84375 11.347656 C 278.84375 10.585938 278.960938 10.15625 279.273438 9.941406 C 279.585938 9.707031 280.035156 9.570312 280.5625 9.570312 Z M 280.5625 9.570312 "/>
<path style=" stroke:none;fill-rule:nonzero;fill:rgb(0%,0%,0%);fill-opacity:1;" d="M 286.292969 13.789062 C 285.84375 13.789062 285.472656 14.160156 285.472656 14.628906 C 285.472656 15.058594 285.84375 15.429688 286.273438 15.429688 C 286.742188 15.429688 287.113281 15.058594 287.113281 14.628906 C 287.113281 14.160156 286.742188 13.789062 286.292969 13.789062 Z M 286.292969 13.789062 "/>
<path style=" stroke:none;fill-rule:nonzero;fill:rgb(0%,0%,0%);fill-opacity:1;" d="M 293.375 11.425781 L 293.375 12.382812 L 297.046875 12.382812 L 297.046875 11.425781 Z M 293.375 11.425781 "/>
<path style=" stroke:none;fill-rule:nonzero;fill:rgb(0%,0%,0%);fill-opacity:1;" d="M 299.640625 13.789062 C 299.191406 13.789062 298.820312 14.160156 298.820312 14.628906 C 298.820312 15.058594 299.191406 15.429688 299.621094 15.429688 C 300.089844 15.429688 300.460938 15.058594 300.460938 14.628906 C 300.460938 14.160156 300.089844 13.789062 299.640625 13.789062 Z M 299.640625 13.789062 "/>
<path style=" stroke:none;fill-rule:nonzero;fill:rgb(0%,0%,0%);fill-opacity:1;" d="M 305.855469 5.175781 L 303.160156 6.523438 L 303.160156 6.738281 C 303.335938 6.660156 303.511719 6.601562 303.570312 6.582031 C 303.824219 6.464844 304.078125 6.40625 304.234375 6.40625 C 304.546875 6.40625 304.683594 6.640625 304.683594 7.109375 L 304.683594 13.886719 C 304.683594 14.375 304.566406 14.726562 304.332031 14.863281 C 304.097656 14.980469 303.882812 15.039062 303.257812 15.058594 L 303.257812 15.273438 L 307.378906 15.273438 L 307.378906 15.058594 C 306.207031 15.039062 305.972656 14.882812 305.972656 14.160156 L 305.972656 5.195312 Z M 305.855469 5.175781 "/>
<path style=" stroke:none;fill-rule:nonzero;fill:rgb(0%,0%,0%);fill-opacity:1;" d="M 316.023438 11.816406 L 314.5 11.816406 L 314.5 5.175781 L 313.835938 5.175781 L 309.148438 11.816406 L 309.148438 12.773438 L 313.347656 12.773438 L 313.347656 15.273438 L 314.5 15.273438 L 314.5 12.773438 L 316.023438 12.773438 Z M 313.328125 11.816406 L 309.753906 11.816406 L 313.328125 6.699219 Z M 313.328125 11.816406 "/>
<path style=" stroke:none;fill-rule:nonzero;fill:rgb(0%,0%,0%);fill-opacity:1;" d="M 318.730469 10.351562 C 319.609375 10.351562 319.960938 10.371094 320.3125 10.507812 C 321.25 10.839844 321.816406 11.679688 321.816406 12.714844 C 321.816406 13.964844 320.976562 14.941406 319.863281 14.941406 C 319.472656 14.941406 319.160156 14.84375 318.613281 14.472656 C 318.164062 14.21875 317.910156 14.101562 317.65625 14.101562 C 317.304688 14.101562 317.089844 14.316406 317.089844 14.628906 C 317.089844 15.15625 317.734375 15.488281 318.769531 15.488281 C 319.921875 15.488281 321.113281 15.097656 321.816406 14.472656 C 322.519531 13.867188 322.890625 13.007812 322.890625 11.992188 C 322.890625 11.230469 322.65625 10.527344 322.226562 10.078125 C 321.933594 9.746094 321.640625 9.570312 320.996094 9.277344 C 322.011719 8.574219 322.382812 8.027344 322.382812 7.226562 C 322.382812 6.015625 321.445312 5.175781 320.058594 5.175781 C 319.316406 5.175781 318.652344 5.429688 318.125 5.898438 C 317.675781 6.308594 317.441406 6.699219 317.109375 7.597656 L 317.34375 7.65625 C 317.949219 6.5625 318.632812 6.074219 319.570312 6.074219 C 320.546875 6.074219 321.210938 6.71875 321.210938 7.675781 C 321.210938 8.203125 320.996094 8.75 320.605469 9.121094 C 320.15625 9.570312 319.746094 9.785156 318.730469 10.15625 Z M 318.730469 10.351562 "/>
<path style=" stroke:none;fill-rule:nonzero;fill:rgb(0%,0%,0%);fill-opacity:1;" d="M 330.96875 11.816406 L 329.445312 11.816406 L 329.445312 5.175781 L 328.78125 5.175781 L 324.09375 11.816406 L 324.09375 12.773438 L 328.292969 12.773438 L 328.292969 15.273438 L 329.445312 15.273438 L 329.445312 12.773438 L 330.96875 12.773438 Z M 328.273438 11.816406 L 324.699219 11.816406 L 328.273438 6.699219 Z M 328.273438 11.816406 "/>
<path style=" stroke:none;fill-rule:nonzero;fill:rgb(0%,0%,0%);fill-opacity:1;" d="M 335.710938 11.425781 L 335.710938 12.382812 L 339.382812 12.382812 L 339.382812 11.425781 Z M 335.710938 11.425781 "/>
<path style=" stroke:none;fill-rule:nonzero;fill:rgb(0%,0%,0%);fill-opacity:1;" d="M 342.796875 6.5625 L 345.726562 6.5625 C 345.980469 6.5625 346.039062 6.523438 346.078125 6.425781 L 346.644531 5.097656 L 346.507812 5 C 346.292969 5.3125 346.136719 5.390625 345.824219 5.390625 L 342.699219 5.390625 L 341.078125 8.925781 C 341.058594 8.945312 341.058594 8.964844 341.058594 9.003906 C 341.058594 9.082031 341.117188 9.121094 341.234375 9.121094 C 341.722656 9.121094 342.308594 9.21875 342.933594 9.414062 C 344.652344 9.960938 345.433594 10.898438 345.433594 12.382812 C 345.433594 13.808594 344.515625 14.921875 343.363281 14.921875 C 343.050781 14.921875 342.796875 14.824219 342.367188 14.492188 C 341.878906 14.160156 341.527344 14.003906 341.214844 14.003906 C 340.785156 14.003906 340.570312 14.179688 340.570312 14.550781 C 340.570312 15.117188 341.273438 15.488281 342.40625 15.488281 C 343.65625 15.488281 344.730469 15.078125 345.472656 14.316406 C 346.175781 13.652344 346.488281 12.792969 346.488281 11.660156 C 346.488281 10.585938 346.195312 9.902344 345.453125 9.140625 C 344.789062 8.496094 343.949219 8.144531 342.171875 7.832031 Z M 342.796875 6.5625 "/>
<path style=" stroke:none;fill-rule:nonzero;fill:rgb(0%,0%,0%);fill-opacity:1;" d="M 349.449219 13.789062 C 349 13.789062 348.628906 14.160156 348.628906 14.628906 C 348.628906 15.058594 349 15.429688 349.429688 15.429688 C 349.898438 15.429688 350.269531 15.058594 350.269531 14.628906 C 350.269531 14.160156 349.898438 13.789062 349.449219 13.789062 Z M 349.449219 13.789062 "/>
<path style=" stroke:none;fill-rule:nonzero;fill:rgb(0%,0%,0%);fill-opacity:1;" d="M 356.527344 11.425781 L 356.527344 12.382812 L 360.199219 12.382812 L 360.199219 11.425781 Z M 356.527344 11.425781 "/>
<path style=" stroke:none;fill-rule:nonzero;fill:rgb(0%,0%,0%);fill-opacity:1;" d="M 362.792969 13.789062 C 362.34375 13.789062 361.972656 14.160156 361.972656 14.628906 C 361.972656 15.058594 362.34375 15.429688 362.773438 15.429688 C 363.242188 15.429688 363.613281 15.058594 363.613281 14.628906 C 363.613281 14.160156 363.242188 13.789062 362.792969 13.789062 Z M 362.792969 13.789062 "/>
<path style=" stroke:none;fill-rule:nonzero;fill:rgb(0%,0%,0%);fill-opacity:1;" d="M 369.007812 5.175781 L 366.3125 6.523438 L 366.3125 6.738281 C 366.488281 6.660156 366.664062 6.601562 366.722656 6.582031 C 366.976562 6.464844 367.230469 6.40625 367.386719 6.40625 C 367.699219 6.40625 367.835938 6.640625 367.835938 7.109375 L 367.835938 13.886719 C 367.835938 14.375 367.71875 14.726562 367.484375 14.863281 C 367.25 14.980469 367.035156 15.039062 366.410156 15.058594 L 366.410156 15.273438 L 370.53125 15.273438 L 370.53125 15.058594 C 369.359375 15.039062 369.125 14.882812 369.125 14.160156 L 369.125 5.195312 Z M 369.007812 5.175781 "/>
<path style=" stroke:none;fill-rule:nonzero;fill:rgb(0%,0%,0%);fill-opacity:1;" d="M 374.820312 6.5625 L 377.75 6.5625 C 378.003906 6.5625 378.0625 6.523438 378.101562 6.425781 L 378.667969 5.097656 L 378.53125 5 C 378.316406 5.3125 378.160156 5.390625 377.847656 5.390625 L 374.722656 5.390625 L 373.101562 8.925781 C 373.082031 8.945312 373.082031 8.964844 373.082031 9.003906 C 373.082031 9.082031 373.140625 9.121094 373.257812 9.121094 C 373.746094 9.121094 374.332031 9.21875 374.957031 9.414062 C 376.675781 9.960938 377.457031 10.898438 377.457031 12.382812 C 377.457031 13.808594 376.539062 14.921875 375.386719 14.921875 C 375.074219 14.921875 374.820312 14.824219 374.390625 14.492188 C 373.902344 14.160156 373.550781 14.003906 373.238281 14.003906 C 372.808594 14.003906 372.59375 14.179688 372.59375 14.550781 C 372.59375 15.117188 373.296875 15.488281 374.429688 15.488281 C 375.679688 15.488281 376.753906 15.078125 377.496094 14.316406 C 378.199219 13.652344 378.511719 12.792969 378.511719 11.660156 C 378.511719 10.585938 378.21875 9.902344 377.476562 9.140625 C 376.8125 8.496094 375.972656 8.144531 374.195312 7.832031 Z M 374.820312 6.5625 "/>
<path style=" stroke:none;fill-rule:nonzero;fill:rgb(0%,0%,0%);fill-opacity:1;" d="M 386.648438 11.816406 L 385.125 11.816406 L 385.125 5.175781 L 384.460938 5.175781 L 379.773438 11.816406 L 379.773438 12.773438 L 383.972656 12.773438 L 383.972656 15.273438 L 385.125 15.273438 L 385.125 12.773438 L 386.648438 12.773438 Z M 383.953125 11.816406 L 380.378906 11.816406 L 383.953125 6.699219 Z M 383.953125 11.816406 "/>
<path style=" stroke:none;fill-rule:nonzero;fill:rgb(0%,0%,0%);fill-opacity:1;" d="M 393.730469 5.058594 C 392.03125 5.195312 391.171875 5.488281 390.078125 6.25 C 388.457031 7.402344 387.578125 9.101562 387.578125 11.113281 C 387.578125 12.402344 387.988281 13.710938 388.632812 14.472656 C 389.199219 15.117188 390 15.488281 390.917969 15.488281 C 392.773438 15.488281 394.0625 14.0625 394.0625 11.992188 C 394.0625 10.097656 392.96875 8.886719 391.25 8.886719 C 390.605469 8.886719 390.273438 8.984375 389.335938 9.550781 C 389.746094 7.285156 391.425781 5.683594 393.769531 5.292969 Z M 390.683594 9.570312 C 391.972656 9.570312 392.714844 10.644531 392.714844 12.5 C 392.714844 14.160156 392.128906 15.058594 391.09375 15.058594 C 389.765625 15.058594 388.964844 13.652344 388.964844 11.347656 C 388.964844 10.585938 389.082031 10.15625 389.394531 9.941406 C 389.707031 9.707031 390.15625 9.570312 390.683594 9.570312 Z M 390.683594 9.570312 "/>
<path style=" stroke:none;fill-rule:nonzero;fill:rgb(0%,0%,0%);fill-opacity:1;" d="M 398.863281 11.425781 L 398.863281 12.382812 L 402.535156 12.382812 L 402.535156 11.425781 Z M 398.863281 11.425781 "/>
<path style=" stroke:none;fill-rule:nonzero;fill:rgb(0%,0%,0%);fill-opacity:1;" d="M 410.304688 11.816406 L 408.78125 11.816406 L 408.78125 5.175781 L 408.117188 5.175781 L 403.429688 11.816406 L 403.429688 12.773438 L 407.628906 12.773438 L 407.628906 15.273438 L 408.78125 15.273438 L 408.78125 12.773438 L 410.304688 12.773438 Z M 407.609375 11.816406 L 404.035156 11.816406 L 407.609375 6.699219 Z M 407.609375 11.816406 "/>
<path style=" stroke:none;fill-rule:nonzero;fill:rgb(0%,0%,0%);fill-opacity:1;" d="M 412.601562 13.789062 C 412.152344 13.789062 411.78125 14.160156 411.78125 14.628906 C 411.78125 15.058594 412.152344 15.429688 412.582031 15.429688 C 413.050781 15.429688 413.421875 15.058594 413.421875 14.628906 C 413.421875 14.160156 413.050781 13.789062 412.601562 13.789062 Z M 412.601562 13.789062 "/>
<path style=" stroke:none;fill-rule:nonzero;fill:rgb(0%,0%,0%);fill-opacity:1;" d="M 419.679688 11.425781 L 419.679688 12.382812 L 423.351562 12.382812 L 423.351562 11.425781 Z M 419.679688 11.425781 "/>
<path style=" stroke:none;fill-rule:nonzero;fill:rgb(0%,0%,0%);fill-opacity:1;" d="M 425.945312 13.789062 C 425.496094 13.789062 425.125 14.160156 425.125 14.628906 C 425.125 15.058594 425.496094 15.429688 425.925781 15.429688 C 426.394531 15.429688 426.765625 15.058594 426.765625 14.628906 C 426.765625 14.160156 426.394531 13.789062 425.945312 13.789062 Z M 425.945312 13.789062 "/>
<path style=" stroke:none;fill-rule:nonzero;fill:rgb(0%,0%,0%);fill-opacity:1;" d="M 432.164062 5.175781 L 429.46875 6.523438 L 429.46875 6.738281 C 429.644531 6.660156 429.820312 6.601562 429.878906 6.582031 C 430.132812 6.464844 430.386719 6.40625 430.542969 6.40625 C 430.855469 6.40625 430.992188 6.640625 430.992188 7.109375 L 430.992188 13.886719 C 430.992188 14.375 430.875 14.726562 430.640625 14.863281 C 430.40625 14.980469 430.191406 15.039062 429.566406 15.058594 L 429.566406 15.273438 L 433.6875 15.273438 L 433.6875 15.058594 C 432.515625 15.039062 432.28125 14.882812 432.28125 14.160156 L 432.28125 5.195312 Z M 432.164062 5.175781 "/>
<path style=" stroke:none;fill-rule:nonzero;fill:rgb(0%,0%,0%);fill-opacity:1;" d="M 437.976562 6.5625 L 440.90625 6.5625 C 441.160156 6.5625 441.21875 6.523438 441.257812 6.425781 L 441.824219 5.097656 L 441.6875 5 C 441.472656 5.3125 441.316406 5.390625 441.003906 5.390625 L 437.878906 5.390625 L 436.257812 8.925781 C 436.238281 8.945312 436.238281 8.964844 436.238281 9.003906 C 436.238281 9.082031 436.296875 9.121094 436.414062 9.121094 C 436.902344 9.121094 437.488281 9.21875 438.113281 9.414062 C 439.832031 9.960938 440.613281 10.898438 440.613281 12.382812 C 440.613281 13.808594 439.695312 14.921875 438.542969 14.921875 C 438.230469 14.921875 437.976562 14.824219 437.546875 14.492188 C 437.058594 14.160156 436.707031 14.003906 436.394531 14.003906 C 435.964844 14.003906 435.75 14.179688 435.75 14.550781 C 435.75 15.117188 436.453125 15.488281 437.585938 15.488281 C 438.835938 15.488281 439.910156 15.078125 440.652344 14.316406 C 441.355469 13.652344 441.667969 12.792969 441.667969 11.660156 C 441.667969 10.585938 441.375 9.902344 440.632812 9.140625 C 439.96875 8.496094 439.128906 8.144531 437.351562 7.832031 Z M 437.976562 6.5625 "/>
<path style=" stroke:none;fill-rule:nonzero;fill:rgb(0%,0%,0%);fill-opacity:1;" d="M 443.628906 15.605469 C 445.308594 15.410156 446.128906 15.117188 447.144531 14.394531 C 448.6875 13.261719 449.605469 11.40625 449.605469 9.394531 C 449.605469 6.914062 448.238281 5.175781 446.304688 5.175781 C 444.527344 5.175781 443.199219 6.679688 443.199219 8.691406 C 443.199219 10.527344 444.273438 11.738281 445.894531 11.738281 C 446.714844 11.738281 447.339844 11.484375 448.121094 10.878906 C 447.515625 13.320312 445.855469 14.921875 443.589844 15.3125 Z M 448.160156 9.960938 C 448.160156 10.273438 448.101562 10.410156 447.925781 10.527344 C 447.515625 10.898438 446.96875 11.09375 446.421875 11.09375 C 445.289062 11.09375 444.566406 9.960938 444.566406 8.183594 C 444.566406 7.34375 444.820312 6.445312 445.132812 6.054688 C 445.386719 5.761719 445.757812 5.585938 446.1875 5.585938 C 447.496094 5.585938 448.160156 6.875 448.160156 9.394531 Z M 448.160156 9.960938 "/>
<path style=" stroke:none;fill-rule:nonzero;fill:rgb(0%,0%,0%);fill-opacity:1;" d="M 454.011719 5.175781 C 453.191406 5.175781 452.566406 5.429688 452.019531 5.957031 C 451.140625 6.777344 450.574219 8.496094 450.574219 10.253906 C 450.574219 11.875 451.082031 13.632812 451.785156 14.472656 C 452.332031 15.117188 453.09375 15.488281 453.953125 15.488281 C 454.714844 15.488281 455.359375 15.234375 455.90625 14.707031 C 456.765625 13.886719 457.332031 12.148438 457.332031 10.351562 C 457.332031 7.285156 455.984375 5.175781 454.011719 5.175781 Z M 453.972656 5.566406 C 455.222656 5.566406 455.90625 7.246094 455.90625 10.371094 C 455.90625 13.496094 455.242188 15.097656 453.953125 15.097656 C 452.664062 15.097656 452.019531 13.496094 452.019531 10.390625 C 452.019531 7.226562 452.683594 5.566406 453.972656 5.566406 Z M 453.972656 5.566406 "/>
<path style=" stroke:none;fill-rule:nonzero;fill:rgb(0%,0%,0%);fill-opacity:1;" d="M 462.015625 11.425781 L 462.015625 12.382812 L 465.6875 12.382812 L 465.6875 11.425781 Z M 462.015625 11.425781 "/>
<path style=" stroke:none;fill-rule:nonzero;fill:rgb(0%,0%,0%);fill-opacity:1;" d="M 468.691406 10.351562 C 469.570312 10.351562 469.921875 10.371094 470.273438 10.507812 C 471.210938 10.839844 471.777344 11.679688 471.777344 12.714844 C 471.777344 13.964844 470.9375 14.941406 469.824219 14.941406 C 469.433594 14.941406 469.121094 14.84375 468.574219 14.472656 C 468.125 14.21875 467.871094 14.101562 467.617188 14.101562 C 467.265625 14.101562 467.050781 14.316406 467.050781 14.628906 C 467.050781 15.15625 467.695312 15.488281 468.730469 15.488281 C 469.882812 15.488281 471.074219 15.097656 471.777344 14.472656 C 472.480469 13.867188 472.851562 13.007812 472.851562 11.992188 C 472.851562 11.230469 472.617188 10.527344 472.1875 10.078125 C 471.894531 9.746094 471.601562 9.570312 470.957031 9.277344 C 471.972656 8.574219 472.34375 8.027344 472.34375 7.226562 C 472.34375 6.015625 471.40625 5.175781 470.019531 5.175781 C 469.277344 5.175781 468.613281 5.429688 468.085938 5.898438 C 467.636719 6.308594 467.402344 6.699219 467.070312 7.597656 L 467.304688 7.65625 C 467.910156 6.5625 468.59375 6.074219 469.53125 6.074219 C 470.507812 6.074219 471.171875 6.71875 471.171875 7.675781 C 471.171875 8.203125 470.957031 8.75 470.566406 9.121094 C 470.117188 9.570312 469.707031 9.785156 468.691406 10.15625 Z M 468.691406 10.351562 "/>
<path style=" stroke:none;fill-rule:nonzero;fill:rgb(0%,0%,0%);fill-opacity:1;" d="M 475.753906 13.789062 C 475.304688 13.789062 474.933594 14.160156 474.933594 14.628906 C 474.933594 15.058594 475.304688 15.429688 475.734375 15.429688 C 476.203125 15.429688 476.574219 15.058594 476.574219 14.628906 C 476.574219 14.160156 476.203125 13.789062 475.753906 13.789062 Z M 475.753906 13.789062 "/>
<path style=" stroke:none;fill-rule:nonzero;fill:rgb(0%,0%,0%);fill-opacity:1;" d="M 482.835938 11.425781 L 482.835938 12.382812 L 486.507812 12.382812 L 486.507812 11.425781 Z M 482.835938 11.425781 "/>
<path style=" stroke:none;fill-rule:nonzero;fill:rgb(0%,0%,0%);fill-opacity:1;" d="M 489.101562 13.789062 C 488.652344 13.789062 488.28125 14.160156 488.28125 14.628906 C 488.28125 15.058594 488.652344 15.429688 489.082031 15.429688 C 489.550781 15.429688 489.921875 15.058594 489.921875 14.628906 C 489.921875 14.160156 489.550781 13.789062 489.101562 13.789062 Z M 489.101562 13.789062 "/>
<path style=" stroke:none;fill-rule:nonzero;fill:rgb(0%,0%,0%);fill-opacity:1;" d="M 495.316406 5.175781 L 492.621094 6.523438 L 492.621094 6.738281 C 492.796875 6.660156 492.972656 6.601562 493.03125 6.582031 C 493.285156 6.464844 493.539062 6.40625 493.695312 6.40625 C 494.007812 6.40625 494.144531 6.640625 494.144531 7.109375 L 494.144531 13.886719 C 494.144531 14.375 494.027344 14.726562 493.792969 14.863281 C 493.558594 14.980469 493.34375 15.039062 492.71875 15.058594 L 492.71875 15.273438 L 496.839844 15.273438 L 496.839844 15.058594 C 495.667969 15.039062 495.433594 14.882812 495.433594 14.160156 L 495.433594 5.195312 Z M 495.316406 5.175781 "/>
<path style=" stroke:none;fill-rule:nonzero;fill:rgb(0%,0%,0%);fill-opacity:1;" d="M 505.484375 11.816406 L 503.960938 11.816406 L 503.960938 5.175781 L 503.296875 5.175781 L 498.609375 11.816406 L 498.609375 12.773438 L 502.808594 12.773438 L 502.808594 15.273438 L 503.960938 15.273438 L 503.960938 12.773438 L 505.484375 12.773438 Z M 502.789062 11.816406 L 499.214844 11.816406 L 502.789062 6.699219 Z M 502.789062 11.816406 "/>
<path style=" stroke:none;fill-rule:nonzero;fill:rgb(0%,0%,0%);fill-opacity:1;" d="M 512.957031 11.816406 L 511.433594 11.816406 L 511.433594 5.175781 L 510.769531 5.175781 L 506.082031 11.816406 L 506.082031 12.773438 L 510.28125 12.773438 L 510.28125 15.273438 L 511.433594 15.273438 L 511.433594 12.773438 L 512.957031 12.773438 Z M 510.261719 11.816406 L 506.6875 11.816406 L 510.261719 6.699219 Z M 510.261719 11.816406 "/>
<path style=" stroke:none;fill-rule:nonzero;fill:rgb(0%,0%,0%);fill-opacity:1;" d="M 520.464844 13.222656 L 520.269531 13.144531 C 519.722656 14.003906 519.527344 14.140625 518.863281 14.140625 L 515.289062 14.140625 L 517.789062 11.503906 C 519.136719 10.117188 519.703125 8.984375 519.703125 7.8125 C 519.703125 6.328125 518.492188 5.175781 516.949219 5.175781 C 516.128906 5.175781 515.347656 5.507812 514.800781 6.09375 C 514.3125 6.601562 514.097656 7.089844 513.84375 8.144531 L 514.15625 8.222656 C 514.742188 6.757812 515.289062 6.269531 516.324219 6.269531 C 517.574219 6.269531 518.433594 7.128906 518.433594 8.378906 C 518.433594 9.550781 517.730469 10.9375 516.480469 12.265625 L 513.824219 15.097656 L 513.824219 15.273438 L 519.644531 15.273438 Z M 520.464844 13.222656 "/>
<path style=" stroke:none;fill-rule:nonzero;fill:rgb(0%,0%,0%);fill-opacity:1;" d="M 525.171875 11.425781 L 525.171875 12.382812 L 528.84375 12.382812 L 528.84375 11.425781 Z M 525.171875 11.425781 "/>
<path style=" stroke:none;fill-rule:nonzero;fill:rgb(0%,0%,0%);fill-opacity:1;" d="M 536.652344 13.222656 L 536.457031 13.144531 C 535.910156 14.003906 535.714844 14.140625 535.050781 14.140625 L 531.476562 14.140625 L 533.976562 11.503906 C 535.324219 10.117188 535.890625 8.984375 535.890625 7.8125 C 535.890625 6.328125 534.679688 5.175781 533.136719 5.175781 C 532.316406 5.175781 531.535156 5.507812 530.988281 6.09375 C 530.5 6.601562 530.285156 7.089844 530.03125 8.144531 L 530.34375 8.222656 C 530.929688 6.757812 531.476562 6.269531 532.511719 6.269531 C 533.761719 6.269531 534.621094 7.128906 534.621094 8.378906 C 534.621094 9.550781 533.917969 10.9375 532.667969 12.265625 L 530.011719 15.097656 L 530.011719 15.273438 L 535.832031 15.273438 Z M 536.652344 13.222656 "/>
<path style=" stroke:none;fill-rule:nonzero;fill:rgb(0%,0%,0%);fill-opacity:1;" d="M 538.90625 13.789062 C 538.457031 13.789062 538.085938 14.160156 538.085938 14.628906 C 538.085938 15.058594 538.457031 15.429688 538.886719 15.429688 C 539.355469 15.429688 539.726562 15.058594 539.726562 14.628906 C 539.726562 14.160156 539.355469 13.789062 538.90625 13.789062 Z M 538.90625 13.789062 "/>
<path style=" stroke:none;fill-rule:nonzero;fill:rgb(0%,0%,0%);fill-opacity:1;" d="M 545.988281 11.425781 L 545.988281 12.382812 L 549.660156 12.382812 L 549.660156 11.425781 Z M 545.988281 11.425781 "/>
<path style=" stroke:none;fill-rule:nonzero;fill:rgb(0%,0%,0%);fill-opacity:1;" d="M 552.253906 13.789062 C 551.804688 13.789062 551.433594 14.160156 551.433594 14.628906 C 551.433594 15.058594 551.804688 15.429688 552.234375 15.429688 C 552.703125 15.429688 553.074219 15.058594 553.074219 14.628906 C 553.074219 14.160156 552.703125 13.789062 552.253906 13.789062 Z M 552.253906 13.789062 "/>
<path style=" stroke:none;fill-rule:nonzero;fill:rgb(0%,0%,0%);fill-opacity:1;" d="M 557.902344 5.175781 C 557.082031 5.175781 556.457031 5.429688 555.910156 5.957031 C 555.03125 6.777344 554.464844 8.496094 554.464844 10.253906 C 554.464844 11.875 554.972656 13.632812 555.675781 14.472656 C 556.222656 15.117188 556.984375 15.488281 557.84375 15.488281 C 558.605469 15.488281 559.25 15.234375 559.796875 14.707031 C 560.65625 13.886719 561.222656 12.148438 561.222656 10.351562 C 561.222656 7.285156 559.875 5.175781 557.902344 5.175781 Z M 557.863281 5.566406 C 559.113281 5.566406 559.796875 7.246094 559.796875 10.371094 C 559.796875 13.496094 559.132812 15.097656 557.84375 15.097656 C 556.554688 15.097656 555.910156 13.496094 555.910156 10.390625 C 555.910156 7.226562 556.574219 5.566406 557.863281 5.566406 Z M 557.863281 5.566406 "/>
<path style=" stroke:none;fill-rule:nonzero;fill:rgb(0%,0%,0%);fill-opacity:1;" d="M 562.464844 15.605469 C 564.144531 15.410156 564.964844 15.117188 565.980469 14.394531 C 567.523438 13.261719 568.441406 11.40625 568.441406 9.394531 C 568.441406 6.914062 567.074219 5.175781 565.140625 5.175781 C 563.363281 5.175781 562.035156 6.679688 562.035156 8.691406 C 562.035156 10.527344 563.109375 11.738281 564.730469 11.738281 C 565.550781 11.738281 566.175781 11.484375 566.957031 10.878906 C 566.351562 13.320312 564.691406 14.921875 562.425781 15.3125 Z M 566.996094 9.960938 C 566.996094 10.273438 566.9375 10.410156 566.761719 10.527344 C 566.351562 10.898438 565.804688 11.09375 565.257812 11.09375 C 564.125 11.09375 563.402344 9.960938 563.402344 8.183594 C 563.402344 7.34375 563.65625 6.445312 563.96875 6.054688 C 564.222656 5.761719 564.59375 5.585938 565.023438 5.585938 C 566.332031 5.585938 566.996094 6.875 566.996094 9.394531 Z M 566.996094 9.960938 "/>
<path style=" stroke:none;fill-rule:nonzero;fill:rgb(0%,0%,0%);fill-opacity:1;" d="M 576.148438 13.222656 L 575.953125 13.144531 C 575.40625 14.003906 575.210938 14.140625 574.546875 14.140625 L 570.972656 14.140625 L 573.472656 11.503906 C 574.820312 10.117188 575.386719 8.984375 575.386719 7.8125 C 575.386719 6.328125 574.175781 5.175781 572.632812 5.175781 C 571.8125 5.175781 571.03125 5.507812 570.484375 6.09375 C 569.996094 6.601562 569.78125 7.089844 569.527344 8.144531 L 569.839844 8.222656 C 570.425781 6.757812 570.972656 6.269531 572.007812 6.269531 C 573.257812 6.269531 574.117188 7.128906 574.117188 8.378906 C 574.117188 9.550781 573.414062 10.9375 572.164062 12.265625 L 569.507812 15.097656 L 569.507812 15.273438 L 575.328125 15.273438 Z M 576.148438 13.222656 "/>
<path style=" stroke:none;fill-rule:nonzero;fill:rgb(0%,0%,0%);fill-opacity:1;" d="M 580.320312 5.175781 C 579.5 5.175781 578.875 5.429688 578.328125 5.957031 C 577.449219 6.777344 576.882812 8.496094 576.882812 10.253906 C 576.882812 11.875 577.390625 13.632812 578.09375 14.472656 C 578.640625 15.117188 579.402344 15.488281 580.261719 15.488281 C 581.023438 15.488281 581.667969 15.234375 582.214844 14.707031 C 583.074219 13.886719 583.640625 12.148438 583.640625 10.351562 C 583.640625 7.285156 582.292969 5.175781 580.320312 5.175781 Z M 580.28125 5.566406 C 581.53125 5.566406 582.214844 7.246094 582.214844 10.371094 C 582.214844 13.496094 581.550781 15.097656 580.261719 15.097656 C 578.972656 15.097656 578.328125 13.496094 578.328125 10.390625 C 578.328125 7.226562 578.992188 5.566406 580.28125 5.566406 Z M 580.28125 5.566406 "/>
<path style=" stroke:none;fill-rule:nonzero;fill:rgb(0%,0%,0%);fill-opacity:1;" d="M 587.792969 5.175781 C 586.972656 5.175781 586.347656 5.429688 585.800781 5.957031 C 584.921875 6.777344 584.355469 8.496094 584.355469 10.253906 C 584.355469 11.875 584.863281 13.632812 585.566406 14.472656 C 586.113281 15.117188 586.875 15.488281 587.734375 15.488281 C 588.496094 15.488281 589.140625 15.234375 589.6875 14.707031 C 590.546875 13.886719 591.113281 12.148438 591.113281 10.351562 C 591.113281 7.285156 589.765625 5.175781 587.792969 5.175781 Z M 587.753906 5.566406 C 589.003906 5.566406 589.6875 7.246094 589.6875 10.371094 C 589.6875 13.496094 589.023438 15.097656 587.734375 15.097656 C 586.445312 15.097656 585.800781 13.496094 585.800781 10.390625 C 585.800781 7.226562 586.464844 5.566406 587.753906 5.566406 Z M 587.753906 5.566406 "/>
<path style=" stroke:none;fill-rule:nonzero;fill:rgb(0%,0%,0%);fill-opacity:1;" d="M 595.796875 11.425781 L 595.796875 12.382812 L 599.46875 12.382812 L 599.46875 11.425781 Z M 595.796875 11.425781 "/>
<path style=" stroke:none;fill-rule:nonzero;fill:rgb(0%,0%,0%);fill-opacity:1;" d="M 604.542969 5.175781 L 601.847656 6.523438 L 601.847656 6.738281 C 602.023438 6.660156 602.199219 6.601562 602.257812 6.582031 C 602.511719 6.464844 602.765625 6.40625 602.921875 6.40625 C 603.234375 6.40625 603.371094 6.640625 603.371094 7.109375 L 603.371094 13.886719 C 603.371094 14.375 603.253906 14.726562 603.019531 14.863281 C 602.785156 14.980469 602.570312 15.039062 601.945312 15.058594 L 601.945312 15.273438 L 606.066406 15.273438 L 606.066406 15.058594 C 604.894531 15.039062 604.660156 14.882812 604.660156 14.160156 L 604.660156 5.195312 Z M 604.542969 5.175781 "/>
<path style=" stroke:none;fill-rule:nonzero;fill:rgb(0%,0%,0%);fill-opacity:1;" d="M 609.535156 13.789062 C 609.085938 13.789062 608.714844 14.160156 608.714844 14.628906 C 608.714844 15.058594 609.085938 15.429688 609.515625 15.429688 C 609.984375 15.429688 610.355469 15.058594 610.355469 14.628906 C 610.355469 14.160156 609.984375 13.789062 609.535156 13.789062 Z M 609.535156 13.789062 "/>
<path style=" stroke:none;fill-rule:nonzero;fill:rgb(0%,0%,0%);fill-opacity:1;" d="M 619.816406 5.175781 C 618.996094 5.175781 618.371094 5.429688 617.824219 5.957031 C 616.945312 6.777344 616.378906 8.496094 616.378906 10.253906 C 616.378906 11.875 616.886719 13.632812 617.589844 14.472656 C 618.136719 15.117188 618.898438 15.488281 619.757812 15.488281 C 620.519531 15.488281 621.164062 15.234375 621.710938 14.707031 C 622.570312 13.886719 623.136719 12.148438 623.136719 10.351562 C 623.136719 7.285156 621.789062 5.175781 619.816406 5.175781 Z M 619.777344 5.566406 C 621.027344 5.566406 621.710938 7.246094 621.710938 10.371094 C 621.710938 13.496094 621.046875 15.097656 619.757812 15.097656 C 618.46875 15.097656 617.824219 13.496094 617.824219 10.390625 C 617.824219 7.226562 618.488281 5.566406 619.777344 5.566406 Z M 619.777344 5.566406 "/>
<path style=" stroke:none;fill-rule:nonzero;fill:rgb(0%,0%,0%);fill-opacity:1;" d="M 631.023438 5.175781 C 630.203125 5.175781 629.578125 5.429688 629.03125 5.957031 C 628.152344 6.777344 627.585938 8.496094 627.585938 10.253906 C 627.585938 11.875 628.09375 13.632812 628.796875 14.472656 C 629.34375 15.117188 630.105469 15.488281 630.964844 15.488281 C 631.726562 15.488281 632.371094 15.234375 632.917969 14.707031 C 633.777344 13.886719 634.34375 12.148438 634.34375 10.351562 C 634.34375 7.285156 632.996094 5.175781 631.023438 5.175781 Z M 630.984375 5.566406 C 632.234375 5.566406 632.917969 7.246094 632.917969 10.371094 C 632.917969 13.496094 632.253906 15.097656 630.964844 15.097656 C 629.675781 15.097656 629.03125 13.496094 629.03125 10.390625 C 629.03125 7.226562 629.695312 5.566406 630.984375 5.566406 Z M 630.984375 5.566406 "/>
<path style=" stroke:none;fill-rule:nonzero;fill:rgb(0%,0%,0%);fill-opacity:1;" d="M 640.316406 13.789062 C 639.867188 13.789062 639.496094 14.160156 639.496094 14.628906 C 639.496094 15.058594 639.867188 15.429688 640.296875 15.429688 C 640.765625 15.429688 641.136719 15.058594 641.136719 14.628906 C 641.136719 14.160156 640.765625 13.789062 640.316406 13.789062 Z M 640.316406 13.789062 "/>
<path style=" stroke:none;fill-rule:nonzero;fill:rgb(0%,0%,0%);fill-opacity:1;" d="M 645.96875 5.175781 C 645.148438 5.175781 644.523438 5.429688 643.976562 5.957031 C 643.097656 6.777344 642.53125 8.496094 642.53125 10.253906 C 642.53125 11.875 643.039062 13.632812 643.742188 14.472656 C 644.289062 15.117188 645.050781 15.488281 645.910156 15.488281 C 646.671875 15.488281 647.316406 15.234375 647.863281 14.707031 C 648.722656 13.886719 649.289062 12.148438 649.289062 10.351562 C 649.289062 7.285156 647.941406 5.175781 645.96875 5.175781 Z M 645.929688 5.566406 C 647.179688 5.566406 647.863281 7.246094 647.863281 10.371094 C 647.863281 13.496094 647.199219 15.097656 645.910156 15.097656 C 644.621094 15.097656 643.976562 13.496094 643.976562 10.390625 C 643.976562 7.226562 644.640625 5.566406 645.929688 5.566406 Z M 645.929688 5.566406 "/>
<path style=" stroke:none;fill-rule:nonzero;fill:rgb(0%,0%,0%);fill-opacity:1;" d="M 650.53125 15.605469 C 652.210938 15.410156 653.03125 15.117188 654.046875 14.394531 C 655.589844 13.261719 656.507812 11.40625 656.507812 9.394531 C 656.507812 6.914062 655.140625 5.175781 653.207031 5.175781 C 651.429688 5.175781 650.101562 6.679688 650.101562 8.691406 C 650.101562 10.527344 651.175781 11.738281 652.796875 11.738281 C 653.617188 11.738281 654.242188 11.484375 655.023438 10.878906 C 654.417969 13.320312 652.757812 14.921875 650.492188 15.3125 Z M 655.0625 9.960938 C 655.0625 10.273438 655.003906 10.410156 654.828125 10.527344 C 654.417969 10.898438 653.871094 11.09375 653.324219 11.09375 C 652.191406 11.09375 651.46875 9.960938 651.46875 8.183594 C 651.46875 7.34375 651.722656 6.445312 652.035156 6.054688 C 652.289062 5.761719 652.660156 5.585938 653.089844 5.585938 C 654.398438 5.585938 655.0625 6.875 655.0625 9.394531 Z M 655.0625 9.960938 "/>
<path style=" stroke:none;fill-rule:nonzero;fill:rgb(0%,0%,0%);fill-opacity:1;" d="M 664.214844 13.222656 L 664.019531 13.144531 C 663.472656 14.003906 663.277344 14.140625 662.613281 14.140625 L 659.039062 14.140625 L 661.539062 11.503906 C 662.886719 10.117188 663.453125 8.984375 663.453125 7.8125 C 663.453125 6.328125 662.242188 5.175781 660.699219 5.175781 C 659.878906 5.175781 659.097656 5.507812 658.550781 6.09375 C 658.0625 6.601562 657.847656 7.089844 657.59375 8.144531 L 657.90625 8.222656 C 658.492188 6.757812 659.039062 6.269531 660.074219 6.269531 C 661.324219 6.269531 662.183594 7.128906 662.183594 8.378906 C 662.183594 9.550781 661.480469 10.9375 660.230469 12.265625 L 657.574219 15.097656 L 657.574219 15.273438 L 663.394531 15.273438 Z M 664.214844 13.222656 "/>
<path style=" stroke:none;fill-rule:nonzero;fill:rgb(0%,0%,0%);fill-opacity:1;" d="M 668.382812 5.175781 C 667.5625 5.175781 666.9375 5.429688 666.390625 5.957031 C 665.511719 6.777344 664.945312 8.496094 664.945312 10.253906 C 664.945312 11.875 665.453125 13.632812 666.15625 14.472656 C 666.703125 15.117188 667.464844 15.488281 668.324219 15.488281 C 669.085938 15.488281 669.730469 15.234375 670.277344 14.707031 C 671.136719 13.886719 671.703125 12.148438 671.703125 10.351562 C 671.703125 7.285156 670.355469 5.175781 668.382812 5.175781 Z M 668.34375 5.566406 C 669.59375 5.566406 670.277344 7.246094 670.277344 10.371094 C 670.277344 13.496094 669.613281 15.097656 668.324219 15.097656 C 667.035156 15.097656 666.390625 13.496094 666.390625 10.390625 C 666.390625 7.226562 667.054688 5.566406 668.34375 5.566406 Z M 668.34375 5.566406 "/>
<path style=" stroke:none;fill-rule:nonzero;fill:rgb(0%,0%,0%);fill-opacity:1;" d="M 675.855469 5.175781 C 675.035156 5.175781 674.410156 5.429688 673.863281 5.957031 C 672.984375 6.777344 672.417969 8.496094 672.417969 10.253906 C 672.417969 11.875 672.925781 13.632812 673.628906 14.472656 C 674.175781 15.117188 674.9375 15.488281 675.796875 15.488281 C 676.558594 15.488281 677.203125 15.234375 677.75 14.707031 C 678.609375 13.886719 679.175781 12.148438 679.175781 10.351562 C 679.175781 7.285156 677.828125 5.175781 675.855469 5.175781 Z M 675.816406 5.566406 C 677.066406 5.566406 677.75 7.246094 677.75 10.371094 C 677.75 13.496094 677.085938 15.097656 675.796875 15.097656 C 674.507812 15.097656 673.863281 13.496094 673.863281 10.390625 C 673.863281 7.226562 674.527344 5.566406 675.816406 5.566406 Z M 675.816406 5.566406 "/>
</g>
</svg>
