<?xml version="1.0" encoding="UTF-8"?>
<svg xmlns="http://www.w3.org/2000/svg" xmlns:xlink="http://www.w3.org/1999/xlink" width="680.44986pt" height="20.605469pt" viewBox="0 0 680.44986 20.605469" version="1.1">
<g id="surface733">
<path style=" stroke:none;fill-rule:nonzero;fill:rgb(0%,0%,0%);fill-opacity:1;" d="M 5 11.425781 L 5 12.382812 L 8.671875 12.382812 L 8.671875 11.425781 Z M 5 11.425781 "/>
<path style=" stroke:none;fill-rule:nonzero;fill:rgb(0%,0%,0%);fill-opacity:1;" d="M 16.441406 11.816406 L 14.917969 11.816406 L 14.917969 5.175781 L 14.253906 5.175781 L 9.566406 11.816406 L 9.566406 12.773438 L 13.765625 12.773438 L 13.765625 15.273438 L 14.917969 15.273438 L 14.917969 12.773438 L 16.441406 12.773438 Z M 13.746094 11.816406 L 10.171875 11.816406 L 13.746094 6.699219 Z M 13.746094 11.816406 "/>
<path style=" stroke:none;fill-rule:nonzero;fill:rgb(0%,0%,0%);fill-opacity:1;" d="M 18.738281 13.789062 C 18.289062 13.789062 17.917969 14.160156 17.917969 14.628906 C 17.917969 15.058594 18.289062 15.429688 18.71875 15.429688 C 19.1875 15.429688 19.558594 15.058594 19.558594 14.628906 C 19.558594 14.160156 19.1875 13.789062 18.738281 13.789062 Z M 18.738281 13.789062 "/>
<path style=" stroke:none;fill-rule:nonzero;fill:rgb(0%,0%,0%);fill-opacity:1;" d="M 27.105469 13.789062 C 26.65625 13.789062 26.285156 14.160156 26.285156 14.628906 C 26.285156 15.058594 26.65625 15.429688 27.085938 15.429688 C 27.554688 15.429688 27.925781 15.058594 27.925781 14.628906 C 27.925781 14.160156 27.554688 13.789062 27.105469 13.789062 Z M 27.105469 13.789062 "/>
<path style=" stroke:none;fill-rule:nonzero;fill:rgb(0%,0%,0%);fill-opacity:1;" d="M 32.757812 5.175781 C 31.9375 5.175781 31.3125 5.429688 30.765625 5.957031 C 29.886719 6.777344 29.320312 8.496094 29.320312 10.253906 C 29.320312 11.875 29.828125 13.632812 30.53125 14.472656 C 31.078125 15.117188 31.839844 15.488281 32.699219 15.488281 C 33.460938 15.488281 34.105469 15.234375 34.652344 14.707031 C 35.511719 13.886719 36.078125 12.148438 36.078125 10.351562 C 36.078125 7.285156 34.730469 5.175781 32.757812 5.175781 Z M 32.71875 5.566406 C 33.96875 5.566406 34.652344 7.246094 34.652344 10.371094 C 34.652344 13.496094 33.988281 15.097656 32.699219 15.097656 C 31.410156 15.097656 30.765625 13.496094 30.765625 10.390625 C 30.765625 7.226562 31.429688 5.566406 32.71875 5.566406 Z M 32.71875 5.566406 "/>
<path style=" stroke:none;fill-rule:nonzero;fill:rgb(0%,0%,0%);fill-opacity:1;" d="M 40.773438 9.726562 C 42.257812 8.945312 42.765625 8.320312 42.765625 7.285156 C 42.765625 6.074219 41.691406 5.175781 40.207031 5.175781 C 38.566406 5.175781 37.355469 6.171875 37.355469 7.539062 C 37.355469 8.496094 37.648438 8.945312 39.210938 10.3125 C 37.609375 11.542969 37.277344 11.992188 37.277344 13.007812 C 37.277344 14.472656 38.449219 15.488281 40.148438 15.488281 C 41.945312 15.488281 43.078125 14.492188 43.078125 12.949219 C 43.078125 11.816406 42.570312 11.074219 40.773438 9.726562 Z M 40.5 11.269531 C 41.59375 12.050781 41.945312 12.578125 41.945312 13.417969 C 41.945312 14.394531 41.28125 15.058594 40.304688 15.058594 C 39.171875 15.058594 38.410156 14.199219 38.410156 12.890625 C 38.410156 11.933594 38.742188 11.308594 39.601562 10.605469 Z M 40.34375 9.453125 C 39.015625 8.59375 38.46875 7.910156 38.46875 7.070312 C 38.46875 6.210938 39.132812 5.585938 40.089844 5.585938 C 41.105469 5.585938 41.75 6.25 41.75 7.285156 C 41.75 8.125 41.320312 8.808594 40.480469 9.375 C 40.402344 9.414062 40.402344 9.414062 40.34375 9.453125 Z M 40.34375 9.453125 "/>
<path style=" stroke:none;fill-rule:nonzero;fill:rgb(0%,0%,0%);fill-opacity:1;" d="M 48.246094 9.726562 C 49.730469 8.945312 50.238281 8.320312 50.238281 7.285156 C 50.238281 6.074219 49.164062 5.175781 47.679688 5.175781 C 46.039062 5.175781 44.828125 6.171875 44.828125 7.539062 C 44.828125 8.496094 45.121094 8.945312 46.683594 10.3125 C 45.082031 11.542969 44.75 11.992188 44.75 13.007812 C 44.75 14.472656 45.921875 15.488281 47.621094 15.488281 C 49.417969 15.488281 50.550781 14.492188 50.550781 12.949219 C 50.550781 11.816406 50.042969 11.074219 48.246094 9.726562 Z M 47.972656 11.269531 C 49.066406 12.050781 49.417969 12.578125 49.417969 13.417969 C 49.417969 14.394531 48.753906 15.058594 47.777344 15.058594 C 46.644531 15.058594 45.882812 14.199219 45.882812 12.890625 C 45.882812 11.933594 46.214844 11.308594 47.074219 10.605469 Z M 47.816406 9.453125 C 46.488281 8.59375 45.941406 7.910156 45.941406 7.070312 C 45.941406 6.210938 46.605469 5.585938 47.5625 5.585938 C 48.578125 5.585938 49.222656 6.25 49.222656 7.285156 C 49.222656 8.125 48.792969 8.808594 47.953125 9.375 C 47.875 9.414062 47.875 9.414062 47.816406 9.453125 Z M 47.816406 9.453125 "/>
<path style=" stroke:none;fill-rule:nonzero;fill:rgb(0%,0%,0%);fill-opacity:1;" d="M 55.71875 9.726562 C 57.203125 8.945312 57.710938 8.320312 57.710938 7.285156 C 57.710938 6.074219 56.636719 5.175781 55.152344 5.175781 C 53.511719 5.175781 52.300781 6.171875 52.300781 7.539062 C 52.300781 8.496094 52.59375 8.945312 54.15625 10.3125 C 52.554688 11.542969 52.222656 11.992188 52.222656 13.007812 C 52.222656 14.472656 53.394531 15.488281 55.09375 15.488281 C 56.890625 15.488281 58.023438 14.492188 58.023438 12.949219 C 58.023438 11.816406 57.515625 11.074219 55.71875 9.726562 Z M 55.445312 11.269531 C 56.539062 12.050781 56.890625 12.578125 56.890625 13.417969 C 56.890625 14.394531 56.226562 15.058594 55.25 15.058594 C 54.117188 15.058594 53.355469 14.199219 53.355469 12.890625 C 53.355469 11.933594 53.6875 11.308594 54.546875 10.605469 Z M 55.289062 9.453125 C 53.960938 8.59375 53.414062 7.910156 53.414062 7.070312 C 53.414062 6.210938 54.078125 5.585938 55.035156 5.585938 C 56.050781 5.585938 56.695312 6.25 56.695312 7.285156 C 56.695312 8.125 56.265625 8.808594 55.425781 9.375 C 55.347656 9.414062 55.347656 9.414062 55.289062 9.453125 Z M 55.289062 9.453125 "/>
<path style=" stroke:none;fill-rule:nonzero;fill:rgb(0%,0%,0%);fill-opacity:1;" d="M 59.734375 15.605469 C 61.414062 15.410156 62.234375 15.117188 63.25 14.394531 C 64.792969 13.261719 65.710938 11.40625 65.710938 9.394531 C 65.710938 6.914062 64.34375 5.175781 62.410156 5.175781 C 60.632812 5.175781 59.304688 6.679688 59.304688 8.691406 C 59.304688 10.527344 60.378906 11.738281 62 11.738281 C 62.820312 11.738281 63.445312 11.484375 64.226562 10.878906 C 63.621094 13.320312 61.960938 14.921875 59.695312 15.3125 Z M 64.265625 9.960938 C 64.265625 10.273438 64.207031 10.410156 64.03125 10.527344 C 63.621094 10.898438 63.074219 11.09375 62.527344 11.09375 C 61.394531 11.09375 60.671875 9.960938 60.671875 8.183594 C 60.671875 7.34375 60.925781 6.445312 61.238281 6.054688 C 61.492188 5.761719 61.863281 5.585938 62.292969 5.585938 C 63.601562 5.585938 64.265625 6.875 64.265625 9.394531 Z M 64.265625 9.960938 "/>
<path style=" stroke:none;fill-rule:nonzero;fill:rgb(0%,0%,0%);fill-opacity:1;" d="M 70.648438 11.425781 L 70.648438 12.382812 L 74.320312 12.382812 L 74.320312 11.425781 Z M 70.648438 11.425781 "/>
<path style=" stroke:none;fill-rule:nonzero;fill:rgb(0%,0%,0%);fill-opacity:1;" d="M 77.324219 10.351562 C 78.203125 10.351562 78.554688 10.371094 78.90625 10.507812 C 79.84375 10.839844 80.410156 11.679688 80.410156 12.714844 C 80.410156 13.964844 79.570312 14.941406 78.457031 14.941406 C 78.066406 14.941406 77.753906 14.84375 77.207031 14.472656 C 76.757812 14.21875 76.503906 14.101562 76.25 14.101562 C 75.898438 14.101562 75.683594 14.316406 75.683594 14.628906 C 75.683594 15.15625 76.328125 15.488281 77.363281 15.488281 C 78.515625 15.488281 79.707031 15.097656 80.410156 14.472656 C 81.113281 13.867188 81.484375 13.007812 81.484375 11.992188 C 81.484375 11.230469 81.25 10.527344 80.820312 10.078125 C 80.527344 9.746094 80.234375 9.570312 79.589844 9.277344 C 80.605469 8.574219 80.976562 8.027344 80.976562 7.226562 C 80.976562 6.015625 80.039062 5.175781 78.652344 5.175781 C 77.910156 5.175781 77.246094 5.429688 76.71875 5.898438 C 76.269531 6.308594 76.035156 6.699219 75.703125 7.597656 L 75.9375 7.65625 C 76.542969 6.5625 77.226562 6.074219 78.164062 6.074219 C 79.140625 6.074219 79.804688 6.71875 79.804688 7.675781 C 79.804688 8.203125 79.589844 8.75 79.199219 9.121094 C 78.75 9.570312 78.339844 9.785156 77.324219 10.15625 Z M 77.324219 10.351562 "/>
<path style=" stroke:none;fill-rule:nonzero;fill:rgb(0%,0%,0%);fill-opacity:1;" d="M 84.386719 13.789062 C 83.9375 13.789062 83.566406 14.160156 83.566406 14.628906 C 83.566406 15.058594 83.9375 15.429688 84.367188 15.429688 C 84.835938 15.429688 85.207031 15.058594 85.207031 14.628906 C 85.207031 14.160156 84.835938 13.789062 84.386719 13.789062 Z M 84.386719 13.789062 "/>
<path style=" stroke:none;fill-rule:nonzero;fill:rgb(0%,0%,0%);fill-opacity:1;" d="M 87.125 15.605469 C 88.804688 15.410156 89.625 15.117188 90.640625 14.394531 C 92.183594 13.261719 93.101562 11.40625 93.101562 9.394531 C 93.101562 6.914062 91.734375 5.175781 89.800781 5.175781 C 88.023438 5.175781 86.695312 6.679688 86.695312 8.691406 C 86.695312 10.527344 87.769531 11.738281 89.390625 11.738281 C 90.210938 11.738281 90.835938 11.484375 91.617188 10.878906 C 91.011719 13.320312 89.351562 14.921875 87.085938 15.3125 Z M 91.65625 9.960938 C 91.65625 10.273438 91.597656 10.410156 91.421875 10.527344 C 91.011719 10.898438 90.464844 11.09375 89.917969 11.09375 C 88.785156 11.09375 88.0625 9.960938 88.0625 8.183594 C 88.0625 7.34375 88.316406 6.445312 88.628906 6.054688 C 88.882812 5.761719 89.253906 5.585938 89.683594 5.585938 C 90.992188 5.585938 91.65625 6.875 91.65625 9.394531 Z M 91.65625 9.960938 "/>
<path style=" stroke:none;fill-rule:nonzero;fill:rgb(0%,0%,0%);fill-opacity:1;" d="M 99.332031 13.789062 C 98.882812 13.789062 98.511719 14.160156 98.511719 14.628906 C 98.511719 15.058594 98.882812 15.429688 99.3125 15.429688 C 99.78125 15.429688 100.152344 15.058594 100.152344 14.628906 C 100.152344 14.160156 99.78125 13.789062 99.332031 13.789062 Z M 99.332031 13.789062 "/>
<path style=" stroke:none;fill-rule:nonzero;fill:rgb(0%,0%,0%);fill-opacity:1;" d="M 104.980469 5.175781 C 104.160156 5.175781 103.535156 5.429688 102.988281 5.957031 C 102.109375 6.777344 101.542969 8.496094 101.542969 10.253906 C 101.542969 11.875 102.050781 13.632812 102.753906 14.472656 C 103.300781 15.117188 104.0625 15.488281 104.921875 15.488281 C 105.683594 15.488281 106.328125 15.234375 106.875 14.707031 C 107.734375 13.886719 108.300781 12.148438 108.300781 10.351562 C 108.300781 7.285156 106.953125 5.175781 104.980469 5.175781 Z M 104.941406 5.566406 C 106.191406 5.566406 106.875 7.246094 106.875 10.371094 C 106.875 13.496094 106.210938 15.097656 104.921875 15.097656 C 103.632812 15.097656 102.988281 13.496094 102.988281 10.390625 C 102.988281 7.226562 103.652344 5.566406 104.941406 5.566406 Z M 104.941406 5.566406 "/>
<path style=" stroke:none;fill-rule:nonzero;fill:rgb(0%,0%,0%);fill-opacity:1;" d="M 109.542969 15.605469 C 111.222656 15.410156 112.042969 15.117188 113.058594 14.394531 C 114.601562 13.261719 115.519531 11.40625 115.519531 9.394531 C 115.519531 6.914062 114.152344 5.175781 112.21875 5.175781 C 110.441406 5.175781 109.113281 6.679688 109.113281 8.691406 C 109.113281 10.527344 110.1875 11.738281 111.808594 11.738281 C 112.628906 11.738281 113.253906 11.484375 114.035156 10.878906 C 113.429688 13.320312 111.769531 14.921875 109.503906 15.3125 Z M 114.074219 9.960938 C 114.074219 10.273438 114.015625 10.410156 113.839844 10.527344 C 113.429688 10.898438 112.882812 11.09375 112.335938 11.09375 C 111.203125 11.09375 110.480469 9.960938 110.480469 8.183594 C 110.480469 7.34375 110.734375 6.445312 111.046875 6.054688 C 111.300781 5.761719 111.671875 5.585938 112.101562 5.585938 C 113.410156 5.585938 114.074219 6.875 114.074219 9.394531 Z M 114.074219 9.960938 "/>
<path style=" stroke:none;fill-rule:nonzero;fill:rgb(0%,0%,0%);fill-opacity:1;" d="M 123.1875 11.816406 L 121.664062 11.816406 L 121.664062 5.175781 L 121 5.175781 L 116.3125 11.816406 L 116.3125 12.773438 L 120.511719 12.773438 L 120.511719 15.273438 L 121.664062 15.273438 L 121.664062 12.773438 L 123.1875 12.773438 Z M 120.492188 11.816406 L 116.917969 11.816406 L 120.492188 6.699219 Z M 120.492188 11.816406 "/>
<path style=" stroke:none;fill-rule:nonzero;fill:rgb(0%,0%,0%);fill-opacity:1;" d="M 130.304688 5.390625 L 124.777344 5.390625 L 123.898438 7.578125 L 124.152344 7.695312 C 124.796875 6.679688 125.070312 6.484375 125.890625 6.484375 L 129.132812 6.484375 L 126.183594 15.390625 L 127.140625 15.390625 L 130.304688 5.625 Z M 130.304688 5.390625 "/>
<path style=" stroke:none;fill-rule:nonzero;fill:rgb(0%,0%,0%);fill-opacity:1;" d="M 134.867188 5.175781 C 134.046875 5.175781 133.421875 5.429688 132.875 5.957031 C 131.996094 6.777344 131.429688 8.496094 131.429688 10.253906 C 131.429688 11.875 131.9375 13.632812 132.640625 14.472656 C 133.1875 15.117188 133.949219 15.488281 134.808594 15.488281 C 135.570312 15.488281 136.214844 15.234375 136.761719 14.707031 C 137.621094 13.886719 138.1875 12.148438 138.1875 10.351562 C 138.1875 7.285156 136.839844 5.175781 134.867188 5.175781 Z M 134.828125 5.566406 C 136.078125 5.566406 136.761719 7.246094 136.761719 10.371094 C 136.761719 13.496094 136.097656 15.097656 134.808594 15.097656 C 133.519531 15.097656 132.875 13.496094 132.875 10.390625 C 132.875 7.226562 133.539062 5.566406 134.828125 5.566406 Z M 134.828125 5.566406 "/>
<path style=" stroke:none;fill-rule:nonzero;fill:rgb(0%,0%,0%);fill-opacity:1;" d="M 142.875 11.425781 L 142.875 12.382812 L 146.546875 12.382812 L 146.546875 11.425781 Z M 142.875 11.425781 "/>
<path style=" stroke:none;fill-rule:nonzero;fill:rgb(0%,0%,0%);fill-opacity:1;" d="M 149.550781 10.351562 C 150.429688 10.351562 150.78125 10.371094 151.132812 10.507812 C 152.070312 10.839844 152.636719 11.679688 152.636719 12.714844 C 152.636719 13.964844 151.796875 14.941406 150.683594 14.941406 C 150.292969 14.941406 149.980469 14.84375 149.433594 14.472656 C 148.984375 14.21875 148.730469 14.101562 148.476562 14.101562 C 148.125 14.101562 147.910156 14.316406 147.910156 14.628906 C 147.910156 15.15625 148.554688 15.488281 149.589844 15.488281 C 150.742188 15.488281 151.933594 15.097656 152.636719 14.472656 C 153.339844 13.867188 153.710938 13.007812 153.710938 11.992188 C 153.710938 11.230469 153.476562 10.527344 153.046875 10.078125 C 152.753906 9.746094 152.460938 9.570312 151.816406 9.277344 C 152.832031 8.574219 153.203125 8.027344 153.203125 7.226562 C 153.203125 6.015625 152.265625 5.175781 150.878906 5.175781 C 150.136719 5.175781 149.472656 5.429688 148.945312 5.898438 C 148.496094 6.308594 148.261719 6.699219 147.929688 7.597656 L 148.164062 7.65625 C 148.769531 6.5625 149.453125 6.074219 150.390625 6.074219 C 151.367188 6.074219 152.03125 6.71875 152.03125 7.675781 C 152.03125 8.203125 151.816406 8.75 151.425781 9.121094 C 150.976562 9.570312 150.566406 9.785156 149.550781 10.15625 Z M 149.550781 10.351562 "/>
<path style=" stroke:none;fill-rule:nonzero;fill:rgb(0%,0%,0%);fill-opacity:1;" d="M 156.609375 13.789062 C 156.160156 13.789062 155.789062 14.160156 155.789062 14.628906 C 155.789062 15.058594 156.160156 15.429688 156.589844 15.429688 C 157.058594 15.429688 157.429688 15.058594 157.429688 14.628906 C 157.429688 14.160156 157.058594 13.789062 156.609375 13.789062 Z M 156.609375 13.789062 "/>
<path style=" stroke:none;fill-rule:nonzero;fill:rgb(0%,0%,0%);fill-opacity:1;" d="M 162.808594 9.726562 C 164.292969 8.945312 164.800781 8.320312 164.800781 7.285156 C 164.800781 6.074219 163.726562 5.175781 162.242188 5.175781 C 160.601562 5.175781 159.390625 6.171875 159.390625 7.539062 C 159.390625 8.496094 159.683594 8.945312 161.246094 10.3125 C 159.644531 11.542969 159.3125 11.992188 159.3125 13.007812 C 159.3125 14.472656 160.484375 15.488281 162.183594 15.488281 C 163.980469 15.488281 165.113281 14.492188 165.113281 12.949219 C 165.113281 11.816406 164.605469 11.074219 162.808594 9.726562 Z M 162.535156 11.269531 C 163.628906 12.050781 163.980469 12.578125 163.980469 13.417969 C 163.980469 14.394531 163.316406 15.058594 162.339844 15.058594 C 161.207031 15.058594 160.445312 14.199219 160.445312 12.890625 C 160.445312 11.933594 160.777344 11.308594 161.636719 10.605469 Z M 162.378906 9.453125 C 161.050781 8.59375 160.503906 7.910156 160.503906 7.070312 C 160.503906 6.210938 161.167969 5.585938 162.125 5.585938 C 163.140625 5.585938 163.785156 6.25 163.785156 7.285156 C 163.785156 8.125 163.355469 8.808594 162.515625 9.375 C 162.4375 9.414062 162.4375 9.414062 162.378906 9.453125 Z M 162.378906 9.453125 "/>
<path style=" stroke:none;fill-rule:nonzero;fill:rgb(0%,0%,0%);fill-opacity:1;" d="M 171.554688 13.789062 C 171.105469 13.789062 170.734375 14.160156 170.734375 14.628906 C 170.734375 15.058594 171.105469 15.429688 171.535156 15.429688 C 172.003906 15.429688 172.375 15.058594 172.375 14.628906 C 172.375 14.160156 172.003906 13.789062 171.554688 13.789062 Z M 171.554688 13.789062 "/>
<path style=" stroke:none;fill-rule:nonzero;fill:rgb(0%,0%,0%);fill-opacity:1;" d="M 177.769531 5.175781 L 175.074219 6.523438 L 175.074219 6.738281 C 175.25 6.660156 175.425781 6.601562 175.484375 6.582031 C 175.738281 6.464844 175.992188 6.40625 176.148438 6.40625 C 176.460938 6.40625 176.597656 6.640625 176.597656 7.109375 L 176.597656 13.886719 C 176.597656 14.375 176.480469 14.726562 176.246094 14.863281 C 176.011719 14.980469 175.796875 15.039062 175.171875 15.058594 L 175.171875 15.273438 L 179.292969 15.273438 L 179.292969 15.058594 C 178.121094 15.039062 177.886719 14.882812 177.886719 14.160156 L 177.886719 5.195312 Z M 177.769531 5.175781 "/>
<path style=" stroke:none;fill-rule:nonzero;fill:rgb(0%,0%,0%);fill-opacity:1;" d="M 184.675781 5.175781 C 183.855469 5.175781 183.230469 5.429688 182.683594 5.957031 C 181.804688 6.777344 181.238281 8.496094 181.238281 10.253906 C 181.238281 11.875 181.746094 13.632812 182.449219 14.472656 C 182.996094 15.117188 183.757812 15.488281 184.617188 15.488281 C 185.378906 15.488281 186.023438 15.234375 186.570312 14.707031 C 187.429688 13.886719 187.996094 12.148438 187.996094 10.351562 C 187.996094 7.285156 186.648438 5.175781 184.675781 5.175781 Z M 184.636719 5.566406 C 185.886719 5.566406 186.570312 7.246094 186.570312 10.371094 C 186.570312 13.496094 185.90625 15.097656 184.617188 15.097656 C 183.328125 15.097656 182.683594 13.496094 182.683594 10.390625 C 182.683594 7.226562 183.347656 5.566406 184.636719 5.566406 Z M 184.636719 5.566406 "/>
<path style=" stroke:none;fill-rule:nonzero;fill:rgb(0%,0%,0%);fill-opacity:1;" d="M 192.714844 5.175781 L 190.019531 6.523438 L 190.019531 6.738281 C 190.195312 6.660156 190.371094 6.601562 190.429688 6.582031 C 190.683594 6.464844 190.9375 6.40625 191.09375 6.40625 C 191.40625 6.40625 191.542969 6.640625 191.542969 7.109375 L 191.542969 13.886719 C 191.542969 14.375 191.425781 14.726562 191.191406 14.863281 C 190.957031 14.980469 190.742188 15.039062 190.117188 15.058594 L 190.117188 15.273438 L 194.238281 15.273438 L 194.238281 15.058594 C 193.066406 15.039062 192.832031 14.882812 192.832031 14.160156 L 192.832031 5.195312 Z M 192.714844 5.175781 "/>
<path style=" stroke:none;fill-rule:nonzero;fill:rgb(0%,0%,0%);fill-opacity:1;" d="M 200.1875 5.175781 L 197.492188 6.523438 L 197.492188 6.738281 C 197.667969 6.660156 197.84375 6.601562 197.902344 6.582031 C 198.15625 6.464844 198.410156 6.40625 198.566406 6.40625 C 198.878906 6.40625 199.015625 6.640625 199.015625 7.109375 L 199.015625 13.886719 C 199.015625 14.375 198.898438 14.726562 198.664062 14.863281 C 198.429688 14.980469 198.214844 15.039062 197.589844 15.058594 L 197.589844 15.273438 L 201.710938 15.273438 L 201.710938 15.058594 C 200.539062 15.039062 200.304688 14.882812 200.304688 14.160156 L 200.304688 5.195312 Z M 200.1875 5.175781 "/>
<path style=" stroke:none;fill-rule:nonzero;fill:rgb(0%,0%,0%);fill-opacity:1;" d="M 207.625 11.425781 L 207.625 12.382812 L 211.296875 12.382812 L 211.296875 11.425781 Z M 207.625 11.425781 "/>
<path style=" stroke:none;fill-rule:nonzero;fill:rgb(0%,0%,0%);fill-opacity:1;" d="M 214.300781 10.351562 C 215.179688 10.351562 215.53125 10.371094 215.882812 10.507812 C 216.820312 10.839844 217.386719 11.679688 217.386719 12.714844 C 217.386719 13.964844 216.546875 14.941406 215.433594 14.941406 C 215.042969 14.941406 214.730469 14.84375 214.183594 14.472656 C 213.734375 14.21875 213.480469 14.101562 213.226562 14.101562 C 212.875 14.101562 212.660156 14.316406 212.660156 14.628906 C 212.660156 15.15625 213.304688 15.488281 214.339844 15.488281 C 215.492188 15.488281 216.683594 15.097656 217.386719 14.472656 C 218.089844 13.867188 218.460938 13.007812 218.460938 11.992188 C 218.460938 11.230469 218.226562 10.527344 217.796875 10.078125 C 217.503906 9.746094 217.210938 9.570312 216.566406 9.277344 C 217.582031 8.574219 217.953125 8.027344 217.953125 7.226562 C 217.953125 6.015625 217.015625 5.175781 215.628906 5.175781 C 214.886719 5.175781 214.222656 5.429688 213.695312 5.898438 C 213.246094 6.308594 213.011719 6.699219 212.679688 7.597656 L 212.914062 7.65625 C 213.519531 6.5625 214.203125 6.074219 215.140625 6.074219 C 216.117188 6.074219 216.78125 6.71875 216.78125 7.675781 C 216.78125 8.203125 216.566406 8.75 216.175781 9.121094 C 215.726562 9.570312 215.316406 9.785156 214.300781 10.15625 Z M 214.300781 10.351562 "/>
<path style=" stroke:none;fill-rule:nonzero;fill:rgb(0%,0%,0%);fill-opacity:1;" d="M 221.363281 13.789062 C 220.914062 13.789062 220.542969 14.160156 220.542969 14.628906 C 220.542969 15.058594 220.914062 15.429688 221.34375 15.429688 C 221.8125 15.429688 222.183594 15.058594 222.183594 14.628906 C 222.183594 14.160156 221.8125 13.789062 221.363281 13.789062 Z M 221.363281 13.789062 "/>
<path style=" stroke:none;fill-rule:nonzero;fill:rgb(0%,0%,0%);fill-opacity:1;" d="M 229.921875 5.390625 L 224.394531 5.390625 L 223.515625 7.578125 L 223.769531 7.695312 C 224.414062 6.679688 224.6875 6.484375 225.507812 6.484375 L 228.75 6.484375 L 225.800781 15.390625 L 226.757812 15.390625 L 229.921875 5.625 Z M 229.921875 5.390625 "/>
<path style=" stroke:none;fill-rule:nonzero;fill:rgb(0%,0%,0%);fill-opacity:1;" d="M 236.308594 13.789062 C 235.859375 13.789062 235.488281 14.160156 235.488281 14.628906 C 235.488281 15.058594 235.859375 15.429688 236.289062 15.429688 C 236.757812 15.429688 237.128906 15.058594 237.128906 14.628906 C 237.128906 14.160156 236.757812 13.789062 236.308594 13.789062 Z M 236.308594 13.789062 "/>
<path style=" stroke:none;fill-rule:nonzero;fill:rgb(0%,0%,0%);fill-opacity:1;" d="M 242.523438 5.175781 L 239.828125 6.523438 L 239.828125 6.738281 C 240.003906 6.660156 240.179688 6.601562 240.238281 6.582031 C 240.492188 6.464844 240.746094 6.40625 240.902344 6.40625 C 241.214844 6.40625 241.351562 6.640625 241.351562 7.109375 L 241.351562 13.886719 C 241.351562 14.375 241.234375 14.726562 241 14.863281 C 240.765625 14.980469 240.550781 15.039062 239.925781 15.058594 L 239.925781 15.273438 L 244.046875 15.273438 L 244.046875 15.058594 C 242.875 15.039062 242.640625 14.882812 242.640625 14.160156 L 242.640625 5.195312 Z M 242.523438 5.175781 "/>
<path style=" stroke:none;fill-rule:nonzero;fill:rgb(0%,0%,0%);fill-opacity:1;" d="M 249.429688 5.175781 C 248.609375 5.175781 247.984375 5.429688 247.4375 5.957031 C 246.558594 6.777344 245.992188 8.496094 245.992188 10.253906 C 245.992188 11.875 246.5 13.632812 247.203125 14.472656 C 247.75 15.117188 248.511719 15.488281 249.371094 15.488281 C 250.132812 15.488281 250.777344 15.234375 251.324219 14.707031 C 252.183594 13.886719 252.75 12.148438 252.75 10.351562 C 252.75 7.285156 251.402344 5.175781 249.429688 5.175781 Z M 249.390625 5.566406 C 250.640625 5.566406 251.324219 7.246094 251.324219 10.371094 C 251.324219 13.496094 250.660156 15.097656 249.371094 15.097656 C 248.082031 15.097656 247.4375 13.496094 247.4375 10.390625 C 247.4375 7.226562 248.101562 5.566406 249.390625 5.566406 Z M 249.390625 5.566406 "/>
<path style=" stroke:none;fill-rule:nonzero;fill:rgb(0%,0%,0%);fill-opacity:1;" d="M 257.449219 9.726562 C 258.933594 8.945312 259.441406 8.320312 259.441406 7.285156 C 259.441406 6.074219 258.367188 5.175781 256.882812 5.175781 C 255.242188 5.175781 254.03125 6.171875 254.03125 7.539062 C 254.03125 8.496094 254.324219 8.945312 255.886719 10.3125 C 254.285156 11.542969 253.953125 11.992188 253.953125 13.007812 C 253.953125 14.472656 255.125 15.488281 256.824219 15.488281 C 258.621094 15.488281 259.753906 14.492188 259.753906 12.949219 C 259.753906 11.816406 259.246094 11.074219 257.449219 9.726562 Z M 257.175781 11.269531 C 258.269531 12.050781 258.621094 12.578125 258.621094 13.417969 C 258.621094 14.394531 257.957031 15.058594 256.980469 15.058594 C 255.847656 15.058594 255.085938 14.199219 255.085938 12.890625 C 255.085938 11.933594 255.417969 11.308594 256.277344 10.605469 Z M 257.019531 9.453125 C 255.691406 8.59375 255.144531 7.910156 255.144531 7.070312 C 255.144531 6.210938 255.808594 5.585938 256.765625 5.585938 C 257.78125 5.585938 258.425781 6.25 258.425781 7.285156 C 258.425781 8.125 257.996094 8.808594 257.15625 9.375 C 257.078125 9.414062 257.078125 9.414062 257.019531 9.453125 Z M 257.019531 9.453125 "/>
<path style=" stroke:none;fill-rule:nonzero;fill:rgb(0%,0%,0%);fill-opacity:1;" d="M 267.675781 13.222656 L 267.480469 13.144531 C 266.933594 14.003906 266.738281 14.140625 266.074219 14.140625 L 262.5 14.140625 L 265 11.503906 C 266.347656 10.117188 266.914062 8.984375 266.914062 7.8125 C 266.914062 6.328125 265.703125 5.175781 264.160156 5.175781 C 263.339844 5.175781 262.558594 5.507812 262.011719 6.09375 C 261.523438 6.601562 261.308594 7.089844 261.054688 8.144531 L 261.367188 8.222656 C 261.953125 6.757812 262.5 6.269531 263.535156 6.269531 C 264.785156 6.269531 265.644531 7.128906 265.644531 8.378906 C 265.644531 9.550781 264.941406 10.9375 263.691406 12.265625 L 261.035156 15.097656 L 261.035156 15.273438 L 266.855469 15.273438 Z M 267.675781 13.222656 "/>
<path style=" stroke:none;fill-rule:nonzero;fill:rgb(0%,0%,0%);fill-opacity:1;" d="M 272.378906 11.425781 L 272.378906 12.382812 L 276.050781 12.382812 L 276.050781 11.425781 Z M 272.378906 11.425781 "/>
<path style=" stroke:none;fill-rule:nonzero;fill:rgb(0%,0%,0%);fill-opacity:1;" d="M 279.054688 10.351562 C 279.933594 10.351562 280.285156 10.371094 280.636719 10.507812 C 281.574219 10.839844 282.140625 11.679688 282.140625 12.714844 C 282.140625 13.964844 281.300781 14.941406 280.1875 14.941406 C 279.796875 14.941406 279.484375 14.84375 278.9375 14.472656 C 278.488281 14.21875 278.234375 14.101562 277.980469 14.101562 C 277.628906 14.101562 277.414062 14.316406 277.414062 14.628906 C 277.414062 15.15625 278.058594 15.488281 279.09375 15.488281 C 280.246094 15.488281 281.4375 15.097656 282.140625 14.472656 C 282.84375 13.867188 283.214844 13.007812 283.214844 11.992188 C 283.214844 11.230469 282.980469 10.527344 282.550781 10.078125 C 282.257812 9.746094 281.964844 9.570312 281.320312 9.277344 C 282.335938 8.574219 282.707031 8.027344 282.707031 7.226562 C 282.707031 6.015625 281.769531 5.175781 280.382812 5.175781 C 279.640625 5.175781 278.976562 5.429688 278.449219 5.898438 C 278 6.308594 277.765625 6.699219 277.433594 7.597656 L 277.667969 7.65625 C 278.273438 6.5625 278.957031 6.074219 279.894531 6.074219 C 280.871094 6.074219 281.535156 6.71875 281.535156 7.675781 C 281.535156 8.203125 281.320312 8.75 280.929688 9.121094 C 280.480469 9.570312 280.070312 9.785156 279.054688 10.15625 Z M 279.054688 10.351562 "/>
<path style=" stroke:none;fill-rule:nonzero;fill:rgb(0%,0%,0%);fill-opacity:1;" d="M 286.117188 13.789062 C 285.667969 13.789062 285.296875 14.160156 285.296875 14.628906 C 285.296875 15.058594 285.667969 15.429688 286.097656 15.429688 C 286.566406 15.429688 286.9375 15.058594 286.9375 14.628906 C 286.9375 14.160156 286.566406 13.789062 286.117188 13.789062 Z M 286.117188 13.789062 "/>
<path style=" stroke:none;fill-rule:nonzero;fill:rgb(0%,0%,0%);fill-opacity:1;" d="M 294.636719 5.058594 C 292.9375 5.195312 292.078125 5.488281 290.984375 6.25 C 289.363281 7.402344 288.484375 9.101562 288.484375 11.113281 C 288.484375 12.402344 288.894531 13.710938 289.539062 14.472656 C 290.105469 15.117188 290.90625 15.488281 291.824219 15.488281 C 293.679688 15.488281 294.96875 14.0625 294.96875 11.992188 C 294.96875 10.097656 293.875 8.886719 292.15625 8.886719 C 291.511719 8.886719 291.179688 8.984375 290.242188 9.550781 C 290.652344 7.285156 292.332031 5.683594 294.675781 5.292969 Z M 291.589844 9.570312 C 292.878906 9.570312 293.621094 10.644531 293.621094 12.5 C 293.621094 14.160156 293.035156 15.058594 292 15.058594 C 290.671875 15.058594 289.871094 13.652344 289.871094 11.347656 C 289.871094 10.585938 289.988281 10.15625 290.300781 9.941406 C 290.613281 9.707031 291.0625 9.570312 291.589844 9.570312 Z M 291.589844 9.570312 "/>
<path style=" stroke:none;fill-rule:nonzero;fill:rgb(0%,0%,0%);fill-opacity:1;" d="M 301.058594 13.789062 C 300.609375 13.789062 300.238281 14.160156 300.238281 14.628906 C 300.238281 15.058594 300.609375 15.429688 301.039062 15.429688 C 301.507812 15.429688 301.878906 15.058594 301.878906 14.628906 C 301.878906 14.160156 301.507812 13.789062 301.058594 13.789062 Z M 301.058594 13.789062 "/>
<path style=" stroke:none;fill-rule:nonzero;fill:rgb(0%,0%,0%);fill-opacity:1;" d="M 307.277344 5.175781 L 304.582031 6.523438 L 304.582031 6.738281 C 304.757812 6.660156 304.933594 6.601562 304.992188 6.582031 C 305.246094 6.464844 305.5 6.40625 305.65625 6.40625 C 305.96875 6.40625 306.105469 6.640625 306.105469 7.109375 L 306.105469 13.886719 C 306.105469 14.375 305.988281 14.726562 305.753906 14.863281 C 305.519531 14.980469 305.304688 15.039062 304.679688 15.058594 L 304.679688 15.273438 L 308.800781 15.273438 L 308.800781 15.058594 C 307.628906 15.039062 307.394531 14.882812 307.394531 14.160156 L 307.394531 5.195312 Z M 307.277344 5.175781 "/>
<path style=" stroke:none;fill-rule:nonzero;fill:rgb(0%,0%,0%);fill-opacity:1;" d="M 314.746094 5.175781 L 312.050781 6.523438 L 312.050781 6.738281 C 312.226562 6.660156 312.402344 6.601562 312.460938 6.582031 C 312.714844 6.464844 312.96875 6.40625 313.125 6.40625 C 313.4375 6.40625 313.574219 6.640625 313.574219 7.109375 L 313.574219 13.886719 C 313.574219 14.375 313.457031 14.726562 313.222656 14.863281 C 312.988281 14.980469 312.773438 15.039062 312.148438 15.058594 L 312.148438 15.273438 L 316.269531 15.273438 L 316.269531 15.058594 C 315.097656 15.039062 314.863281 14.882812 314.863281 14.160156 L 314.863281 5.195312 Z M 314.746094 5.175781 "/>
<path style=" stroke:none;fill-rule:nonzero;fill:rgb(0%,0%,0%);fill-opacity:1;" d="M 324.523438 5.058594 C 322.824219 5.195312 321.964844 5.488281 320.871094 6.25 C 319.25 7.402344 318.371094 9.101562 318.371094 11.113281 C 318.371094 12.402344 318.78125 13.710938 319.425781 14.472656 C 319.992188 15.117188 320.792969 15.488281 321.710938 15.488281 C 323.566406 15.488281 324.855469 14.0625 324.855469 11.992188 C 324.855469 10.097656 323.761719 8.886719 322.042969 8.886719 C 321.398438 8.886719 321.066406 8.984375 320.128906 9.550781 C 320.539062 7.285156 322.21875 5.683594 324.5625 5.292969 Z M 321.476562 9.570312 C 322.765625 9.570312 323.507812 10.644531 323.507812 12.5 C 323.507812 14.160156 322.921875 15.058594 321.886719 15.058594 C 320.558594 15.058594 319.757812 13.652344 319.757812 11.347656 C 319.757812 10.585938 319.875 10.15625 320.1875 9.941406 C 320.5 9.707031 320.949219 9.570312 321.476562 9.570312 Z M 321.476562 9.570312 "/>
<path style=" stroke:none;fill-rule:nonzero;fill:rgb(0%,0%,0%);fill-opacity:1;" d="M 329.691406 5.175781 L 326.996094 6.523438 L 326.996094 6.738281 C 327.171875 6.660156 327.347656 6.601562 327.40625 6.582031 C 327.660156 6.464844 327.914062 6.40625 328.070312 6.40625 C 328.382812 6.40625 328.519531 6.640625 328.519531 7.109375 L 328.519531 13.886719 C 328.519531 14.375 328.402344 14.726562 328.167969 14.863281 C 327.933594 14.980469 327.71875 15.039062 327.09375 15.058594 L 327.09375 15.273438 L 331.214844 15.273438 L 331.214844 15.058594 C 330.042969 15.039062 329.808594 14.882812 329.808594 14.160156 L 329.808594 5.195312 Z M 329.691406 5.175781 "/>
<path style=" stroke:none;fill-rule:nonzero;fill:rgb(0%,0%,0%);fill-opacity:1;" d="M 337.128906 11.425781 L 337.128906 12.382812 L 340.800781 12.382812 L 340.800781 11.425781 Z M 337.128906 11.425781 "/>
<path style=" stroke:none;fill-rule:nonzero;fill:rgb(0%,0%,0%);fill-opacity:1;" d="M 343.804688 10.351562 C 344.683594 10.351562 345.035156 10.371094 345.386719 10.507812 C 346.324219 10.839844 346.890625 11.679688 346.890625 12.714844 C 346.890625 13.964844 346.050781 14.941406 344.9375 14.941406 C 344.546875 14.941406 344.234375 14.84375 343.6875 14.472656 C 343.238281 14.21875 342.984375 14.101562 342.730469 14.101562 C 342.378906 14.101562 342.164062 14.316406 342.164062 14.628906 C 342.164062 15.15625 342.808594 15.488281 343.84375 15.488281 C 344.996094 15.488281 346.1875 15.097656 346.890625 14.472656 C 347.59375 13.867188 347.964844 13.007812 347.964844 11.992188 C 347.964844 11.230469 347.730469 10.527344 347.300781 10.078125 C 347.007812 9.746094 346.714844 9.570312 346.070312 9.277344 C 347.085938 8.574219 347.457031 8.027344 347.457031 7.226562 C 347.457031 6.015625 346.519531 5.175781 345.132812 5.175781 C 344.390625 5.175781 343.726562 5.429688 343.199219 5.898438 C 342.75 6.308594 342.515625 6.699219 342.183594 7.597656 L 342.417969 7.65625 C 343.023438 6.5625 343.707031 6.074219 344.644531 6.074219 C 345.621094 6.074219 346.285156 6.71875 346.285156 7.675781 C 346.285156 8.203125 346.070312 8.75 345.679688 9.121094 C 345.230469 9.570312 344.820312 9.785156 343.804688 10.15625 Z M 343.804688 10.351562 "/>
<path style=" stroke:none;fill-rule:nonzero;fill:rgb(0%,0%,0%);fill-opacity:1;" d="M 350.867188 13.789062 C 350.417969 13.789062 350.046875 14.160156 350.046875 14.628906 C 350.046875 15.058594 350.417969 15.429688 350.847656 15.429688 C 351.316406 15.429688 351.6875 15.058594 351.6875 14.628906 C 351.6875 14.160156 351.316406 13.789062 350.867188 13.789062 Z M 350.867188 13.789062 "/>
<path style=" stroke:none;fill-rule:nonzero;fill:rgb(0%,0%,0%);fill-opacity:1;" d="M 355.425781 6.5625 L 358.355469 6.5625 C 358.609375 6.5625 358.667969 6.523438 358.707031 6.425781 L 359.273438 5.097656 L 359.136719 5 C 358.921875 5.3125 358.765625 5.390625 358.453125 5.390625 L 355.328125 5.390625 L 353.707031 8.925781 C 353.6875 8.945312 353.6875 8.964844 353.6875 9.003906 C 353.6875 9.082031 353.746094 9.121094 353.863281 9.121094 C 354.351562 9.121094 354.9375 9.21875 355.5625 9.414062 C 357.28125 9.960938 358.0625 10.898438 358.0625 12.382812 C 358.0625 13.808594 357.144531 14.921875 355.992188 14.921875 C 355.679688 14.921875 355.425781 14.824219 354.996094 14.492188 C 354.507812 14.160156 354.15625 14.003906 353.84375 14.003906 C 353.414062 14.003906 353.199219 14.179688 353.199219 14.550781 C 353.199219 15.117188 353.902344 15.488281 355.035156 15.488281 C 356.285156 15.488281 357.359375 15.078125 358.101562 14.316406 C 358.804688 13.652344 359.117188 12.792969 359.117188 11.660156 C 359.117188 10.585938 358.824219 9.902344 358.082031 9.140625 C 357.417969 8.496094 356.578125 8.144531 354.800781 7.832031 Z M 355.425781 6.5625 "/>
<path style=" stroke:none;fill-rule:nonzero;fill:rgb(0%,0%,0%);fill-opacity:1;" d="M 365.8125 13.789062 C 365.363281 13.789062 364.992188 14.160156 364.992188 14.628906 C 364.992188 15.058594 365.363281 15.429688 365.792969 15.429688 C 366.261719 15.429688 366.632812 15.058594 366.632812 14.628906 C 366.632812 14.160156 366.261719 13.789062 365.8125 13.789062 Z M 365.8125 13.789062 "/>
<path style=" stroke:none;fill-rule:nonzero;fill:rgb(0%,0%,0%);fill-opacity:1;" d="M 372.027344 5.175781 L 369.332031 6.523438 L 369.332031 6.738281 C 369.507812 6.660156 369.683594 6.601562 369.742188 6.582031 C 369.996094 6.464844 370.25 6.40625 370.40625 6.40625 C 370.71875 6.40625 370.855469 6.640625 370.855469 7.109375 L 370.855469 13.886719 C 370.855469 14.375 370.738281 14.726562 370.503906 14.863281 C 370.269531 14.980469 370.054688 15.039062 369.429688 15.058594 L 369.429688 15.273438 L 373.550781 15.273438 L 373.550781 15.058594 C 372.378906 15.039062 372.144531 14.882812 372.144531 14.160156 L 372.144531 5.195312 Z M 372.027344 5.175781 "/>
<path style=" stroke:none;fill-rule:nonzero;fill:rgb(0%,0%,0%);fill-opacity:1;" d="M 382.234375 13.222656 L 382.039062 13.144531 C 381.492188 14.003906 381.296875 14.140625 380.632812 14.140625 L 377.058594 14.140625 L 379.558594 11.503906 C 380.90625 10.117188 381.472656 8.984375 381.472656 7.8125 C 381.472656 6.328125 380.261719 5.175781 378.71875 5.175781 C 377.898438 5.175781 377.117188 5.507812 376.570312 6.09375 C 376.082031 6.601562 375.867188 7.089844 375.613281 8.144531 L 375.925781 8.222656 C 376.511719 6.757812 377.058594 6.269531 378.09375 6.269531 C 379.34375 6.269531 380.203125 7.128906 380.203125 8.378906 C 380.203125 9.550781 379.5 10.9375 378.25 12.265625 L 375.59375 15.097656 L 375.59375 15.273438 L 381.414062 15.273438 Z M 382.234375 13.222656 "/>
<path style=" stroke:none;fill-rule:nonzero;fill:rgb(0%,0%,0%);fill-opacity:1;" d="M 385.3125 6.5625 L 388.242188 6.5625 C 388.496094 6.5625 388.554688 6.523438 388.59375 6.425781 L 389.160156 5.097656 L 389.023438 5 C 388.808594 5.3125 388.652344 5.390625 388.339844 5.390625 L 385.214844 5.390625 L 383.59375 8.925781 C 383.574219 8.945312 383.574219 8.964844 383.574219 9.003906 C 383.574219 9.082031 383.632812 9.121094 383.75 9.121094 C 384.238281 9.121094 384.824219 9.21875 385.449219 9.414062 C 387.167969 9.960938 387.949219 10.898438 387.949219 12.382812 C 387.949219 13.808594 387.03125 14.921875 385.878906 14.921875 C 385.566406 14.921875 385.3125 14.824219 384.882812 14.492188 C 384.394531 14.160156 384.042969 14.003906 383.730469 14.003906 C 383.300781 14.003906 383.085938 14.179688 383.085938 14.550781 C 383.085938 15.117188 383.789062 15.488281 384.921875 15.488281 C 386.171875 15.488281 387.246094 15.078125 387.988281 14.316406 C 388.691406 13.652344 389.003906 12.792969 389.003906 11.660156 C 389.003906 10.585938 388.710938 9.902344 387.96875 9.140625 C 387.304688 8.496094 386.464844 8.144531 384.6875 7.832031 Z M 385.3125 6.5625 "/>
<path style=" stroke:none;fill-rule:nonzero;fill:rgb(0%,0%,0%);fill-opacity:1;" d="M 393.878906 5.175781 C 393.058594 5.175781 392.433594 5.429688 391.886719 5.957031 C 391.007812 6.777344 390.441406 8.496094 390.441406 10.253906 C 390.441406 11.875 390.949219 13.632812 391.652344 14.472656 C 392.199219 15.117188 392.960938 15.488281 393.820312 15.488281 C 394.582031 15.488281 395.226562 15.234375 395.773438 14.707031 C 396.632812 13.886719 397.199219 12.148438 397.199219 10.351562 C 397.199219 7.285156 395.851562 5.175781 393.878906 5.175781 Z M 393.839844 5.566406 C 395.089844 5.566406 395.773438 7.246094 395.773438 10.371094 C 395.773438 13.496094 395.109375 15.097656 393.820312 15.097656 C 392.53125 15.097656 391.886719 13.496094 391.886719 10.390625 C 391.886719 7.226562 392.550781 5.566406 393.839844 5.566406 Z M 393.839844 5.566406 "/>
<path style=" stroke:none;fill-rule:nonzero;fill:rgb(0%,0%,0%);fill-opacity:1;" d="M 401.882812 11.425781 L 401.882812 12.382812 L 405.554688 12.382812 L 405.554688 11.425781 Z M 401.882812 11.425781 "/>
<path style=" stroke:none;fill-rule:nonzero;fill:rgb(0%,0%,0%);fill-opacity:1;" d="M 408.558594 10.351562 C 409.4375 10.351562 409.789062 10.371094 410.140625 10.507812 C 411.078125 10.839844 411.644531 11.679688 411.644531 12.714844 C 411.644531 13.964844 410.804688 14.941406 409.691406 14.941406 C 409.300781 14.941406 408.988281 14.84375 408.441406 14.472656 C 407.992188 14.21875 407.738281 14.101562 407.484375 14.101562 C 407.132812 14.101562 406.917969 14.316406 406.917969 14.628906 C 406.917969 15.15625 407.5625 15.488281 408.597656 15.488281 C 409.75 15.488281 410.941406 15.097656 411.644531 14.472656 C 412.347656 13.867188 412.71875 13.007812 412.71875 11.992188 C 412.71875 11.230469 412.484375 10.527344 412.054688 10.078125 C 411.761719 9.746094 411.46875 9.570312 410.824219 9.277344 C 411.839844 8.574219 412.210938 8.027344 412.210938 7.226562 C 412.210938 6.015625 411.273438 5.175781 409.886719 5.175781 C 409.144531 5.175781 408.480469 5.429688 407.953125 5.898438 C 407.503906 6.308594 407.269531 6.699219 406.9375 7.597656 L 407.171875 7.65625 C 407.777344 6.5625 408.460938 6.074219 409.398438 6.074219 C 410.375 6.074219 411.039062 6.71875 411.039062 7.675781 C 411.039062 8.203125 410.824219 8.75 410.433594 9.121094 C 409.984375 9.570312 409.574219 9.785156 408.558594 10.15625 Z M 408.558594 10.351562 "/>
<path style=" stroke:none;fill-rule:nonzero;fill:rgb(0%,0%,0%);fill-opacity:1;" d="M 415.621094 13.789062 C 415.171875 13.789062 414.800781 14.160156 414.800781 14.628906 C 414.800781 15.058594 415.171875 15.429688 415.601562 15.429688 C 416.070312 15.429688 416.441406 15.058594 416.441406 14.628906 C 416.441406 14.160156 416.070312 13.789062 415.621094 13.789062 Z M 415.621094 13.789062 "/>
<path style=" stroke:none;fill-rule:nonzero;fill:rgb(0%,0%,0%);fill-opacity:1;" d="M 424.53125 11.816406 L 423.007812 11.816406 L 423.007812 5.175781 L 422.34375 5.175781 L 417.65625 11.816406 L 417.65625 12.773438 L 421.855469 12.773438 L 421.855469 15.273438 L 423.007812 15.273438 L 423.007812 12.773438 L 424.53125 12.773438 Z M 421.835938 11.816406 L 418.261719 11.816406 L 421.835938 6.699219 Z M 421.835938 11.816406 "/>
<path style=" stroke:none;fill-rule:nonzero;fill:rgb(0%,0%,0%);fill-opacity:1;" d="M 430.5625 13.789062 C 430.113281 13.789062 429.742188 14.160156 429.742188 14.628906 C 429.742188 15.058594 430.113281 15.429688 430.542969 15.429688 C 431.011719 15.429688 431.382812 15.058594 431.382812 14.628906 C 431.382812 14.160156 431.011719 13.789062 430.5625 13.789062 Z M 430.5625 13.789062 "/>
<path style=" stroke:none;fill-rule:nonzero;fill:rgb(0%,0%,0%);fill-opacity:1;" d="M 436.78125 5.175781 L 434.085938 6.523438 L 434.085938 6.738281 C 434.261719 6.660156 434.4375 6.601562 434.496094 6.582031 C 434.75 6.464844 435.003906 6.40625 435.160156 6.40625 C 435.472656 6.40625 435.609375 6.640625 435.609375 7.109375 L 435.609375 13.886719 C 435.609375 14.375 435.492188 14.726562 435.257812 14.863281 C 435.023438 14.980469 434.808594 15.039062 434.183594 15.058594 L 434.183594 15.273438 L 438.304688 15.273438 L 438.304688 15.058594 C 437.132812 15.039062 436.898438 14.882812 436.898438 14.160156 L 436.898438 5.195312 Z M 436.78125 5.175781 "/>
<path style=" stroke:none;fill-rule:nonzero;fill:rgb(0%,0%,0%);fill-opacity:1;" d="M 442.183594 10.351562 C 443.0625 10.351562 443.414062 10.371094 443.765625 10.507812 C 444.703125 10.839844 445.269531 11.679688 445.269531 12.714844 C 445.269531 13.964844 444.429688 14.941406 443.316406 14.941406 C 442.925781 14.941406 442.613281 14.84375 442.066406 14.472656 C 441.617188 14.21875 441.363281 14.101562 441.109375 14.101562 C 440.757812 14.101562 440.542969 14.316406 440.542969 14.628906 C 440.542969 15.15625 441.1875 15.488281 442.222656 15.488281 C 443.375 15.488281 444.566406 15.097656 445.269531 14.472656 C 445.972656 13.867188 446.34375 13.007812 446.34375 11.992188 C 446.34375 11.230469 446.109375 10.527344 445.679688 10.078125 C 445.386719 9.746094 445.09375 9.570312 444.449219 9.277344 C 445.464844 8.574219 445.835938 8.027344 445.835938 7.226562 C 445.835938 6.015625 444.898438 5.175781 443.511719 5.175781 C 442.769531 5.175781 442.105469 5.429688 441.578125 5.898438 C 441.128906 6.308594 440.894531 6.699219 440.5625 7.597656 L 440.796875 7.65625 C 441.402344 6.5625 442.085938 6.074219 443.023438 6.074219 C 444 6.074219 444.664062 6.71875 444.664062 7.675781 C 444.664062 8.203125 444.449219 8.75 444.058594 9.121094 C 443.609375 9.570312 443.199219 9.785156 442.183594 10.15625 Z M 442.183594 10.351562 "/>
<path style=" stroke:none;fill-rule:nonzero;fill:rgb(0%,0%,0%);fill-opacity:1;" d="M 450.066406 6.5625 L 452.996094 6.5625 C 453.25 6.5625 453.308594 6.523438 453.347656 6.425781 L 453.914062 5.097656 L 453.777344 5 C 453.5625 5.3125 453.40625 5.390625 453.09375 5.390625 L 449.96875 5.390625 L 448.347656 8.925781 C 448.328125 8.945312 448.328125 8.964844 448.328125 9.003906 C 448.328125 9.082031 448.386719 9.121094 448.503906 9.121094 C 448.992188 9.121094 449.578125 9.21875 450.203125 9.414062 C 451.921875 9.960938 452.703125 10.898438 452.703125 12.382812 C 452.703125 13.808594 451.785156 14.921875 450.632812 14.921875 C 450.320312 14.921875 450.066406 14.824219 449.636719 14.492188 C 449.148438 14.160156 448.796875 14.003906 448.484375 14.003906 C 448.054688 14.003906 447.839844 14.179688 447.839844 14.550781 C 447.839844 15.117188 448.542969 15.488281 449.675781 15.488281 C 450.925781 15.488281 452 15.078125 452.742188 14.316406 C 453.445312 13.652344 453.757812 12.792969 453.757812 11.660156 C 453.757812 10.585938 453.464844 9.902344 452.722656 9.140625 C 452.058594 8.496094 451.21875 8.144531 449.441406 7.832031 Z M 450.066406 6.5625 "/>
<path style=" stroke:none;fill-rule:nonzero;fill:rgb(0%,0%,0%);fill-opacity:1;" d="M 458.628906 5.175781 C 457.808594 5.175781 457.183594 5.429688 456.636719 5.957031 C 455.757812 6.777344 455.191406 8.496094 455.191406 10.253906 C 455.191406 11.875 455.699219 13.632812 456.402344 14.472656 C 456.949219 15.117188 457.710938 15.488281 458.570312 15.488281 C 459.332031 15.488281 459.976562 15.234375 460.523438 14.707031 C 461.382812 13.886719 461.949219 12.148438 461.949219 10.351562 C 461.949219 7.285156 460.601562 5.175781 458.628906 5.175781 Z M 458.589844 5.566406 C 459.839844 5.566406 460.523438 7.246094 460.523438 10.371094 C 460.523438 13.496094 459.859375 15.097656 458.570312 15.097656 C 457.28125 15.097656 456.636719 13.496094 456.636719 10.390625 C 456.636719 7.226562 457.300781 5.566406 458.589844 5.566406 Z M 458.589844 5.566406 "/>
<path style=" stroke:none;fill-rule:nonzero;fill:rgb(0%,0%,0%);fill-opacity:1;" d="M 466.636719 11.425781 L 466.636719 12.382812 L 470.308594 12.382812 L 470.308594 11.425781 Z M 466.636719 11.425781 "/>
<path style=" stroke:none;fill-rule:nonzero;fill:rgb(0%,0%,0%);fill-opacity:1;" d="M 473.3125 10.351562 C 474.191406 10.351562 474.542969 10.371094 474.894531 10.507812 C 475.832031 10.839844 476.398438 11.679688 476.398438 12.714844 C 476.398438 13.964844 475.558594 14.941406 474.445312 14.941406 C 474.054688 14.941406 473.742188 14.84375 473.195312 14.472656 C 472.746094 14.21875 472.492188 14.101562 472.238281 14.101562 C 471.886719 14.101562 471.671875 14.316406 471.671875 14.628906 C 471.671875 15.15625 472.316406 15.488281 473.351562 15.488281 C 474.503906 15.488281 475.695312 15.097656 476.398438 14.472656 C 477.101562 13.867188 477.472656 13.007812 477.472656 11.992188 C 477.472656 11.230469 477.238281 10.527344 476.808594 10.078125 C 476.515625 9.746094 476.222656 9.570312 475.578125 9.277344 C 476.59375 8.574219 476.964844 8.027344 476.964844 7.226562 C 476.964844 6.015625 476.027344 5.175781 474.640625 5.175781 C 473.898438 5.175781 473.234375 5.429688 472.707031 5.898438 C 472.257812 6.308594 472.023438 6.699219 471.691406 7.597656 L 471.925781 7.65625 C 472.53125 6.5625 473.214844 6.074219 474.152344 6.074219 C 475.128906 6.074219 475.792969 6.71875 475.792969 7.675781 C 475.792969 8.203125 475.578125 8.75 475.1875 9.121094 C 474.738281 9.570312 474.328125 9.785156 473.3125 10.15625 Z M 473.3125 10.351562 "/>
<path style=" stroke:none;fill-rule:nonzero;fill:rgb(0%,0%,0%);fill-opacity:1;" d="M 480.371094 13.789062 C 479.921875 13.789062 479.550781 14.160156 479.550781 14.628906 C 479.550781 15.058594 479.921875 15.429688 480.351562 15.429688 C 480.820312 15.429688 481.191406 15.058594 481.191406 14.628906 C 481.191406 14.160156 480.820312 13.789062 480.371094 13.789062 Z M 480.371094 13.789062 "/>
<path style=" stroke:none;fill-rule:nonzero;fill:rgb(0%,0%,0%);fill-opacity:1;" d="M 484.519531 10.351562 C 485.398438 10.351562 485.75 10.371094 486.101562 10.507812 C 487.039062 10.839844 487.605469 11.679688 487.605469 12.714844 C 487.605469 13.964844 486.765625 14.941406 485.652344 14.941406 C 485.261719 14.941406 484.949219 14.84375 484.402344 14.472656 C 483.953125 14.21875 483.699219 14.101562 483.445312 14.101562 C 483.09375 14.101562 482.878906 14.316406 482.878906 14.628906 C 482.878906 15.15625 483.523438 15.488281 484.558594 15.488281 C 485.710938 15.488281 486.902344 15.097656 487.605469 14.472656 C 488.308594 13.867188 488.679688 13.007812 488.679688 11.992188 C 488.679688 11.230469 488.445312 10.527344 488.015625 10.078125 C 487.722656 9.746094 487.429688 9.570312 486.785156 9.277344 C 487.800781 8.574219 488.171875 8.027344 488.171875 7.226562 C 488.171875 6.015625 487.234375 5.175781 485.847656 5.175781 C 485.105469 5.175781 484.441406 5.429688 483.914062 5.898438 C 483.464844 6.308594 483.230469 6.699219 482.898438 7.597656 L 483.132812 7.65625 C 483.738281 6.5625 484.421875 6.074219 485.359375 6.074219 C 486.335938 6.074219 487 6.71875 487 7.675781 C 487 8.203125 486.785156 8.75 486.394531 9.121094 C 485.945312 9.570312 485.535156 9.785156 484.519531 10.15625 Z M 484.519531 10.351562 "/>
<path style=" stroke:none;fill-rule:nonzero;fill:rgb(0%,0%,0%);fill-opacity:1;" d="M 495.316406 13.789062 C 494.867188 13.789062 494.496094 14.160156 494.496094 14.628906 C 494.496094 15.058594 494.867188 15.429688 495.296875 15.429688 C 495.765625 15.429688 496.136719 15.058594 496.136719 14.628906 C 496.136719 14.160156 495.765625 13.789062 495.316406 13.789062 Z M 495.316406 13.789062 "/>
<path style=" stroke:none;fill-rule:nonzero;fill:rgb(0%,0%,0%);fill-opacity:1;" d="M 501.53125 5.175781 L 498.835938 6.523438 L 498.835938 6.738281 C 499.011719 6.660156 499.1875 6.601562 499.246094 6.582031 C 499.5 6.464844 499.753906 6.40625 499.910156 6.40625 C 500.222656 6.40625 500.359375 6.640625 500.359375 7.109375 L 500.359375 13.886719 C 500.359375 14.375 500.242188 14.726562 500.007812 14.863281 C 499.773438 14.980469 499.558594 15.039062 498.933594 15.058594 L 498.933594 15.273438 L 503.054688 15.273438 L 503.054688 15.058594 C 501.882812 15.039062 501.648438 14.882812 501.648438 14.160156 L 501.648438 5.195312 Z M 501.53125 5.175781 "/>
<path style=" stroke:none;fill-rule:nonzero;fill:rgb(0%,0%,0%);fill-opacity:1;" d="M 511.699219 11.816406 L 510.175781 11.816406 L 510.175781 5.175781 L 509.511719 5.175781 L 504.824219 11.816406 L 504.824219 12.773438 L 509.023438 12.773438 L 509.023438 15.273438 L 510.175781 15.273438 L 510.175781 12.773438 L 511.699219 12.773438 Z M 509.003906 11.816406 L 505.429688 11.816406 L 509.003906 6.699219 Z M 509.003906 11.816406 "/>
<path style=" stroke:none;fill-rule:nonzero;fill:rgb(0%,0%,0%);fill-opacity:1;" d="M 518.78125 5.058594 C 517.082031 5.195312 516.222656 5.488281 515.128906 6.25 C 513.507812 7.402344 512.628906 9.101562 512.628906 11.113281 C 512.628906 12.402344 513.039062 13.710938 513.683594 14.472656 C 514.25 15.117188 515.050781 15.488281 515.96875 15.488281 C 517.824219 15.488281 519.113281 14.0625 519.113281 11.992188 C 519.113281 10.097656 518.019531 8.886719 516.300781 8.886719 C 515.65625 8.886719 515.324219 8.984375 514.386719 9.550781 C 514.796875 7.285156 516.476562 5.683594 518.820312 5.292969 Z M 515.734375 9.570312 C 517.023438 9.570312 517.765625 10.644531 517.765625 12.5 C 517.765625 14.160156 517.179688 15.058594 516.144531 15.058594 C 514.816406 15.058594 514.015625 13.652344 514.015625 11.347656 C 514.015625 10.585938 514.132812 10.15625 514.445312 9.941406 C 514.757812 9.707031 515.207031 9.570312 515.734375 9.570312 Z M 515.734375 9.570312 "/>
<path style=" stroke:none;fill-rule:nonzero;fill:rgb(0%,0%,0%);fill-opacity:1;" d="M 526.683594 13.222656 L 526.488281 13.144531 C 525.941406 14.003906 525.746094 14.140625 525.082031 14.140625 L 521.507812 14.140625 L 524.007812 11.503906 C 525.355469 10.117188 525.921875 8.984375 525.921875 7.8125 C 525.921875 6.328125 524.710938 5.175781 523.167969 5.175781 C 522.347656 5.175781 521.566406 5.507812 521.019531 6.09375 C 520.53125 6.601562 520.316406 7.089844 520.0625 8.144531 L 520.375 8.222656 C 520.960938 6.757812 521.507812 6.269531 522.542969 6.269531 C 523.792969 6.269531 524.652344 7.128906 524.652344 8.378906 C 524.652344 9.550781 523.949219 10.9375 522.699219 12.265625 L 520.042969 15.097656 L 520.042969 15.273438 L 525.863281 15.273438 Z M 526.683594 13.222656 "/>
<path style=" stroke:none;fill-rule:nonzero;fill:rgb(0%,0%,0%);fill-opacity:1;" d="M 531.386719 11.425781 L 531.386719 12.382812 L 535.058594 12.382812 L 535.058594 11.425781 Z M 531.386719 11.425781 "/>
<path style=" stroke:none;fill-rule:nonzero;fill:rgb(0%,0%,0%);fill-opacity:1;" d="M 538.0625 10.351562 C 538.941406 10.351562 539.292969 10.371094 539.644531 10.507812 C 540.582031 10.839844 541.148438 11.679688 541.148438 12.714844 C 541.148438 13.964844 540.308594 14.941406 539.195312 14.941406 C 538.804688 14.941406 538.492188 14.84375 537.945312 14.472656 C 537.496094 14.21875 537.242188 14.101562 536.988281 14.101562 C 536.636719 14.101562 536.421875 14.316406 536.421875 14.628906 C 536.421875 15.15625 537.066406 15.488281 538.101562 15.488281 C 539.253906 15.488281 540.445312 15.097656 541.148438 14.472656 C 541.851562 13.867188 542.222656 13.007812 542.222656 11.992188 C 542.222656 11.230469 541.988281 10.527344 541.558594 10.078125 C 541.265625 9.746094 540.972656 9.570312 540.328125 9.277344 C 541.34375 8.574219 541.714844 8.027344 541.714844 7.226562 C 541.714844 6.015625 540.777344 5.175781 539.390625 5.175781 C 538.648438 5.175781 537.984375 5.429688 537.457031 5.898438 C 537.007812 6.308594 536.773438 6.699219 536.441406 7.597656 L 536.675781 7.65625 C 537.28125 6.5625 537.964844 6.074219 538.902344 6.074219 C 539.878906 6.074219 540.542969 6.71875 540.542969 7.675781 C 540.542969 8.203125 540.328125 8.75 539.9375 9.121094 C 539.488281 9.570312 539.078125 9.785156 538.0625 10.15625 Z M 538.0625 10.351562 "/>
<path style=" stroke:none;fill-rule:nonzero;fill:rgb(0%,0%,0%);fill-opacity:1;" d="M 545.125 13.789062 C 544.675781 13.789062 544.304688 14.160156 544.304688 14.628906 C 544.304688 15.058594 544.675781 15.429688 545.105469 15.429688 C 545.574219 15.429688 545.945312 15.058594 545.945312 14.628906 C 545.945312 14.160156 545.574219 13.789062 545.125 13.789062 Z M 545.125 13.789062 "/>
<path style=" stroke:none;fill-rule:nonzero;fill:rgb(0%,0%,0%);fill-opacity:1;" d="M 554.074219 13.222656 L 553.878906 13.144531 C 553.332031 14.003906 553.136719 14.140625 552.472656 14.140625 L 548.898438 14.140625 L 551.398438 11.503906 C 552.746094 10.117188 553.3125 8.984375 553.3125 7.8125 C 553.3125 6.328125 552.101562 5.175781 550.558594 5.175781 C 549.738281 5.175781 548.957031 5.507812 548.410156 6.09375 C 547.921875 6.601562 547.707031 7.089844 547.453125 8.144531 L 547.765625 8.222656 C 548.351562 6.757812 548.898438 6.269531 549.933594 6.269531 C 551.183594 6.269531 552.042969 7.128906 552.042969 8.378906 C 552.042969 9.550781 551.339844 10.9375 550.089844 12.265625 L 547.433594 15.097656 L 547.433594 15.273438 L 553.253906 15.273438 Z M 554.074219 13.222656 "/>
<path style=" stroke:none;fill-rule:nonzero;fill:rgb(0%,0%,0%);fill-opacity:1;" d="M 560.070312 13.789062 C 559.621094 13.789062 559.25 14.160156 559.25 14.628906 C 559.25 15.058594 559.621094 15.429688 560.050781 15.429688 C 560.519531 15.429688 560.890625 15.058594 560.890625 14.628906 C 560.890625 14.160156 560.519531 13.789062 560.070312 13.789062 Z M 560.070312 13.789062 "/>
<path style=" stroke:none;fill-rule:nonzero;fill:rgb(0%,0%,0%);fill-opacity:1;" d="M 566.285156 5.175781 L 563.589844 6.523438 L 563.589844 6.738281 C 563.765625 6.660156 563.941406 6.601562 564 6.582031 C 564.253906 6.464844 564.507812 6.40625 564.664062 6.40625 C 564.976562 6.40625 565.113281 6.640625 565.113281 7.109375 L 565.113281 13.886719 C 565.113281 14.375 564.996094 14.726562 564.761719 14.863281 C 564.527344 14.980469 564.3125 15.039062 563.6875 15.058594 L 563.6875 15.273438 L 567.808594 15.273438 L 567.808594 15.058594 C 566.636719 15.039062 566.402344 14.882812 566.402344 14.160156 L 566.402344 5.195312 Z M 566.285156 5.175781 "/>
<path style=" stroke:none;fill-rule:nonzero;fill:rgb(0%,0%,0%);fill-opacity:1;" d="M 572.097656 6.5625 L 575.027344 6.5625 C 575.28125 6.5625 575.339844 6.523438 575.378906 6.425781 L 575.945312 5.097656 L 575.808594 5 C 575.59375 5.3125 575.4375 5.390625 575.125 5.390625 L 572 5.390625 L 570.378906 8.925781 C 570.359375 8.945312 570.359375 8.964844 570.359375 9.003906 C 570.359375 9.082031 570.417969 9.121094 570.535156 9.121094 C 571.023438 9.121094 571.609375 9.21875 572.234375 9.414062 C 573.953125 9.960938 574.734375 10.898438 574.734375 12.382812 C 574.734375 13.808594 573.816406 14.921875 572.664062 14.921875 C 572.351562 14.921875 572.097656 14.824219 571.667969 14.492188 C 571.179688 14.160156 570.828125 14.003906 570.515625 14.003906 C 570.085938 14.003906 569.871094 14.179688 569.871094 14.550781 C 569.871094 15.117188 570.574219 15.488281 571.707031 15.488281 C 572.957031 15.488281 574.03125 15.078125 574.773438 14.316406 C 575.476562 13.652344 575.789062 12.792969 575.789062 11.660156 C 575.789062 10.585938 575.496094 9.902344 574.753906 9.140625 C 574.089844 8.496094 573.25 8.144531 571.472656 7.832031 Z M 572.097656 6.5625 "/>
<path style=" stroke:none;fill-rule:nonzero;fill:rgb(0%,0%,0%);fill-opacity:1;" d="M 577.753906 15.605469 C 579.433594 15.410156 580.253906 15.117188 581.269531 14.394531 C 582.8125 13.261719 583.730469 11.40625 583.730469 9.394531 C 583.730469 6.914062 582.363281 5.175781 580.429688 5.175781 C 578.652344 5.175781 577.324219 6.679688 577.324219 8.691406 C 577.324219 10.527344 578.398438 11.738281 580.019531 11.738281 C 580.839844 11.738281 581.464844 11.484375 582.246094 10.878906 C 581.640625 13.320312 579.980469 14.921875 577.714844 15.3125 Z M 582.285156 9.960938 C 582.285156 10.273438 582.226562 10.410156 582.050781 10.527344 C 581.640625 10.898438 581.09375 11.09375 580.546875 11.09375 C 579.414062 11.09375 578.691406 9.960938 578.691406 8.183594 C 578.691406 7.34375 578.945312 6.445312 579.257812 6.054688 C 579.511719 5.761719 579.882812 5.585938 580.3125 5.585938 C 581.621094 5.585938 582.285156 6.875 582.285156 9.394531 Z M 582.285156 9.960938 "/>
<path style=" stroke:none;fill-rule:nonzero;fill:rgb(0%,0%,0%);fill-opacity:1;" d="M 588.136719 5.175781 C 587.316406 5.175781 586.691406 5.429688 586.144531 5.957031 C 585.265625 6.777344 584.699219 8.496094 584.699219 10.253906 C 584.699219 11.875 585.207031 13.632812 585.910156 14.472656 C 586.457031 15.117188 587.21875 15.488281 588.078125 15.488281 C 588.839844 15.488281 589.484375 15.234375 590.03125 14.707031 C 590.890625 13.886719 591.457031 12.148438 591.457031 10.351562 C 591.457031 7.285156 590.109375 5.175781 588.136719 5.175781 Z M 588.097656 5.566406 C 589.347656 5.566406 590.03125 7.246094 590.03125 10.371094 C 590.03125 13.496094 589.367188 15.097656 588.078125 15.097656 C 586.789062 15.097656 586.144531 13.496094 586.144531 10.390625 C 586.144531 7.226562 586.808594 5.566406 588.097656 5.566406 Z M 588.097656 5.566406 "/>
<path style=" stroke:none;fill-rule:nonzero;fill:rgb(0%,0%,0%);fill-opacity:1;" d="M 596.140625 11.425781 L 596.140625 12.382812 L 599.8125 12.382812 L 599.8125 11.425781 Z M 596.140625 11.425781 "/>
<path style=" stroke:none;fill-rule:nonzero;fill:rgb(0%,0%,0%);fill-opacity:1;" d="M 602.816406 10.351562 C 603.695312 10.351562 604.046875 10.371094 604.398438 10.507812 C 605.335938 10.839844 605.902344 11.679688 605.902344 12.714844 C 605.902344 13.964844 605.0625 14.941406 603.949219 14.941406 C 603.558594 14.941406 603.246094 14.84375 602.699219 14.472656 C 602.25 14.21875 601.996094 14.101562 601.742188 14.101562 C 601.390625 14.101562 601.175781 14.316406 601.175781 14.628906 C 601.175781 15.15625 601.820312 15.488281 602.855469 15.488281 C 604.007812 15.488281 605.199219 15.097656 605.902344 14.472656 C 606.605469 13.867188 606.976562 13.007812 606.976562 11.992188 C 606.976562 11.230469 606.742188 10.527344 606.3125 10.078125 C 606.019531 9.746094 605.726562 9.570312 605.082031 9.277344 C 606.097656 8.574219 606.46875 8.027344 606.46875 7.226562 C 606.46875 6.015625 605.53125 5.175781 604.144531 5.175781 C 603.402344 5.175781 602.738281 5.429688 602.210938 5.898438 C 601.761719 6.308594 601.527344 6.699219 601.195312 7.597656 L 601.429688 7.65625 C 602.035156 6.5625 602.71875 6.074219 603.65625 6.074219 C 604.632812 6.074219 605.296875 6.71875 605.296875 7.675781 C 605.296875 8.203125 605.082031 8.75 604.691406 9.121094 C 604.242188 9.570312 603.832031 9.785156 602.816406 10.15625 Z M 602.816406 10.351562 "/>
<path style=" stroke:none;fill-rule:nonzero;fill:rgb(0%,0%,0%);fill-opacity:1;" d="M 609.878906 13.789062 C 609.429688 13.789062 609.058594 14.160156 609.058594 14.628906 C 609.058594 15.058594 609.429688 15.429688 609.859375 15.429688 C 610.328125 15.429688 610.699219 15.058594 610.699219 14.628906 C 610.699219 14.160156 610.328125 13.789062 609.878906 13.789062 Z M 609.878906 13.789062 "/>
<path style=" stroke:none;fill-rule:nonzero;fill:rgb(0%,0%,0%);fill-opacity:1;" d="M 616.09375 5.175781 L 613.398438 6.523438 L 613.398438 6.738281 C 613.574219 6.660156 613.75 6.601562 613.808594 6.582031 C 614.0625 6.464844 614.316406 6.40625 614.472656 6.40625 C 614.785156 6.40625 614.921875 6.640625 614.921875 7.109375 L 614.921875 13.886719 C 614.921875 14.375 614.804688 14.726562 614.570312 14.863281 C 614.335938 14.980469 614.121094 15.039062 613.496094 15.058594 L 613.496094 15.273438 L 617.617188 15.273438 L 617.617188 15.058594 C 616.445312 15.039062 616.210938 14.882812 616.210938 14.160156 L 616.210938 5.195312 Z M 616.09375 5.175781 "/>
<path style=" stroke:none;fill-rule:nonzero;fill:rgb(0%,0%,0%);fill-opacity:1;" d="M 624.820312 13.789062 C 624.371094 13.789062 624 14.160156 624 14.628906 C 624 15.058594 624.371094 15.429688 624.800781 15.429688 C 625.269531 15.429688 625.640625 15.058594 625.640625 14.628906 C 625.640625 14.160156 625.269531 13.789062 624.820312 13.789062 Z M 624.820312 13.789062 "/>
<path style=" stroke:none;fill-rule:nonzero;fill:rgb(0%,0%,0%);fill-opacity:1;" d="M 631.039062 5.175781 L 628.34375 6.523438 L 628.34375 6.738281 C 628.519531 6.660156 628.695312 6.601562 628.753906 6.582031 C 629.007812 6.464844 629.261719 6.40625 629.417969 6.40625 C 629.730469 6.40625 629.867188 6.640625 629.867188 7.109375 L 629.867188 13.886719 C 629.867188 14.375 629.75 14.726562 629.515625 14.863281 C 629.28125 14.980469 629.066406 15.039062 628.441406 15.058594 L 628.441406 15.273438 L 632.5625 15.273438 L 632.5625 15.058594 C 631.390625 15.039062 631.15625 14.882812 631.15625 14.160156 L 631.15625 5.195312 Z M 631.039062 5.175781 "/>
<path style=" stroke:none;fill-rule:nonzero;fill:rgb(0%,0%,0%);fill-opacity:1;" d="M 640.851562 5.390625 L 635.324219 5.390625 L 634.445312 7.578125 L 634.699219 7.695312 C 635.34375 6.679688 635.617188 6.484375 636.4375 6.484375 L 639.679688 6.484375 L 636.730469 15.390625 L 637.6875 15.390625 L 640.851562 5.625 Z M 640.851562 5.390625 "/>
<path style=" stroke:none;fill-rule:nonzero;fill:rgb(0%,0%,0%);fill-opacity:1;" d="M 643.910156 10.351562 C 644.789062 10.351562 645.140625 10.371094 645.492188 10.507812 C 646.429688 10.839844 646.996094 11.679688 646.996094 12.714844 C 646.996094 13.964844 646.15625 14.941406 645.042969 14.941406 C 644.652344 14.941406 644.339844 14.84375 643.792969 14.472656 C 643.34375 14.21875 643.089844 14.101562 642.835938 14.101562 C 642.484375 14.101562 642.269531 14.316406 642.269531 14.628906 C 642.269531 15.15625 642.914062 15.488281 643.949219 15.488281 C 645.101562 15.488281 646.292969 15.097656 646.996094 14.472656 C 647.699219 13.867188 648.070312 13.007812 648.070312 11.992188 C 648.070312 11.230469 647.835938 10.527344 647.40625 10.078125 C 647.113281 9.746094 646.820312 9.570312 646.175781 9.277344 C 647.191406 8.574219 647.5625 8.027344 647.5625 7.226562 C 647.5625 6.015625 646.625 5.175781 645.238281 5.175781 C 644.496094 5.175781 643.832031 5.429688 643.304688 5.898438 C 642.855469 6.308594 642.621094 6.699219 642.289062 7.597656 L 642.523438 7.65625 C 643.128906 6.5625 643.8125 6.074219 644.75 6.074219 C 645.726562 6.074219 646.390625 6.71875 646.390625 7.675781 C 646.390625 8.203125 646.175781 8.75 645.785156 9.121094 C 645.335938 9.570312 644.925781 9.785156 643.910156 10.15625 Z M 643.910156 10.351562 "/>
<path style=" stroke:none;fill-rule:nonzero;fill:rgb(0%,0%,0%);fill-opacity:1;" d="M 655.757812 5.058594 C 654.058594 5.195312 653.199219 5.488281 652.105469 6.25 C 650.484375 7.402344 649.605469 9.101562 649.605469 11.113281 C 649.605469 12.402344 650.015625 13.710938 650.660156 14.472656 C 651.226562 15.117188 652.027344 15.488281 652.945312 15.488281 C 654.800781 15.488281 656.089844 14.0625 656.089844 11.992188 C 656.089844 10.097656 654.996094 8.886719 653.277344 8.886719 C 652.632812 8.886719 652.300781 8.984375 651.363281 9.550781 C 651.773438 7.285156 653.453125 5.683594 655.796875 5.292969 Z M 652.710938 9.570312 C 654 9.570312 654.742188 10.644531 654.742188 12.5 C 654.742188 14.160156 654.15625 15.058594 653.121094 15.058594 C 651.792969 15.058594 650.992188 13.652344 650.992188 11.347656 C 650.992188 10.585938 651.109375 10.15625 651.421875 9.941406 C 651.734375 9.707031 652.183594 9.570312 652.710938 9.570312 Z M 652.710938 9.570312 "/>
<path style=" stroke:none;fill-rule:nonzero;fill:rgb(0%,0%,0%);fill-opacity:1;" d="M 660.890625 11.425781 L 660.890625 12.382812 L 664.5625 12.382812 L 664.5625 11.425781 Z M 660.890625 11.425781 "/>
<path style=" stroke:none;fill-rule:nonzero;fill:rgb(0%,0%,0%);fill-opacity:1;" d="M 667.566406 10.351562 C 668.445312 10.351562 668.796875 10.371094 669.148438 10.507812 C 670.085938 10.839844 670.652344 11.679688 670.652344 12.714844 C 670.652344 13.964844 669.8125 14.941406 668.699219 14.941406 C 668.308594 14.941406 667.996094 14.84375 667.449219 14.472656 C 667 14.21875 666.746094 14.101562 666.492188 14.101562 C 666.140625 14.101562 665.925781 14.316406 665.925781 14.628906 C 665.925781 15.15625 666.570312 15.488281 667.605469 15.488281 C 668.757812 15.488281 669.949219 15.097656 670.652344 14.472656 C 671.355469 13.867188 671.726562 13.007812 671.726562 11.992188 C 671.726562 11.230469 671.492188 10.527344 671.0625 10.078125 C 670.769531 9.746094 670.476562 9.570312 669.832031 9.277344 C 670.847656 8.574219 671.21875 8.027344 671.21875 7.226562 C 671.21875 6.015625 670.28125 5.175781 668.894531 5.175781 C 668.152344 5.175781 667.488281 5.429688 666.960938 5.898438 C 666.511719 6.308594 666.277344 6.699219 665.945312 7.597656 L 666.179688 7.65625 C 666.785156 6.5625 667.46875 6.074219 668.40625 6.074219 C 669.382812 6.074219 670.046875 6.71875 670.046875 7.675781 C 670.046875 8.203125 669.832031 8.75 669.441406 9.121094 C 668.992188 9.570312 668.582031 9.785156 667.566406 10.15625 Z M 667.566406 10.351562 "/>
<path style=" stroke:none;fill-rule:nonzero;fill:rgb(0%,0%,0%);fill-opacity:1;" d="M 674.628906 13.789062 C 674.179688 13.789062 673.808594 14.160156 673.808594 14.628906 C 673.808594 15.058594 674.179688 15.429688 674.609375 15.429688 C 675.078125 15.429688 675.449219 15.058594 675.449219 14.628906 C 675.449219 14.160156 675.078125 13.789062 674.628906 13.789062 Z M 674.628906 13.789062 "/>
</g>
</svg>
