<?xml version="1.0" encoding="UTF-8"?>
<svg xmlns="http://www.w3.org/2000/svg" xmlns:xlink="http://www.w3.org/1999/xlink" width="669.55668pt" height="20.605469pt" viewBox="0 0 669.55668 20.605469" version="1.1">
<g id="surface389">
<path style=" stroke:none;fill-rule:nonzero;fill:rgb(0%,0%,0%);fill-opacity:1;" d="M 5 11.425781 L 5 12.382812 L 8.671875 12.382812 L 8.671875 11.425781 Z M 5 11.425781 "/>
<path style=" stroke:none;fill-rule:nonzero;fill:rgb(0%,0%,0%);fill-opacity:1;" d="M 11.675781 10.351562 C 12.554688 10.351562 12.90625 10.371094 13.257812 10.507812 C 14.195312 10.839844 14.761719 11.679688 14.761719 12.714844 C 14.761719 13.964844 13.921875 14.941406 12.808594 14.941406 C 12.417969 14.941406 12.105469 14.84375 11.558594 14.472656 C 11.109375 14.21875 10.855469 14.101562 10.601562 14.101562 C 10.25 14.101562 10.035156 14.316406 10.035156 14.628906 C 10.035156 15.15625 10.679688 15.488281 11.714844 15.488281 C 12.867188 15.488281 14.058594 15.097656 14.761719 14.472656 C 15.464844 13.867188 15.835938 13.007812 15.835938 11.992188 C 15.835938 11.230469 15.601562 10.527344 15.171875 10.078125 C 14.878906 9.746094 14.585938 9.570312 13.941406 9.277344 C 14.957031 8.574219 15.328125 8.027344 15.328125 7.226562 C 15.328125 6.015625 14.390625 5.175781 13.003906 5.175781 C 12.261719 5.175781 11.597656 5.429688 11.070312 5.898438 C 10.621094 6.308594 10.386719 6.699219 10.054688 7.597656 L 10.289062 7.65625 C 10.894531 6.5625 11.578125 6.074219 12.515625 6.074219 C 13.492188 6.074219 14.15625 6.71875 14.15625 7.675781 C 14.15625 8.203125 13.941406 8.75 13.550781 9.121094 C 13.101562 9.570312 12.691406 9.785156 11.675781 10.15625 Z M 11.675781 10.351562 "/>
<path style=" stroke:none;fill-rule:nonzero;fill:rgb(0%,0%,0%);fill-opacity:1;" d="M 18.738281 13.789062 C 18.289062 13.789062 17.917969 14.160156 17.917969 14.628906 C 17.917969 15.058594 18.289062 15.429688 18.71875 15.429688 C 19.1875 15.429688 19.558594 15.058594 19.558594 14.628906 C 19.558594 14.160156 19.1875 13.789062 18.738281 13.789062 Z M 18.738281 13.789062 "/>
<path style=" stroke:none;fill-rule:nonzero;fill:rgb(0%,0%,0%);fill-opacity:1;" d="M 27.105469 13.789062 C 26.65625 13.789062 26.285156 14.160156 26.285156 14.628906 C 26.285156 15.058594 26.65625 15.429688 27.085938 15.429688 C 27.554688 15.429688 27.925781 15.058594 27.925781 14.628906 C 27.925781 14.160156 27.554688 13.789062 27.105469 13.789062 Z M 27.105469 13.789062 "/>
<path style=" stroke:none;fill-rule:nonzero;fill:rgb(0%,0%,0%);fill-opacity:1;" d="M 32.757812 5.175781 C 31.9375 5.175781 31.3125 5.429688 30.765625 5.957031 C 29.886719 6.777344 29.320312 8.496094 29.320312 10.253906 C 29.320312 11.875 29.828125 13.632812 30.53125 14.472656 C 31.078125 15.117188 31.839844 15.488281 32.699219 15.488281 C 33.460938 15.488281 34.105469 15.234375 34.652344 14.707031 C 35.511719 13.886719 36.078125 12.148438 36.078125 10.351562 C 36.078125 7.285156 34.730469 5.175781 32.757812 5.175781 Z M 32.71875 5.566406 C 33.96875 5.566406 34.652344 7.246094 34.652344 10.371094 C 34.652344 13.496094 33.988281 15.097656 32.699219 15.097656 C 31.410156 15.097656 30.765625 13.496094 30.765625 10.390625 C 30.765625 7.226562 31.429688 5.566406 32.71875 5.566406 Z M 32.71875 5.566406 "/>
<path style=" stroke:none;fill-rule:nonzero;fill:rgb(0%,0%,0%);fill-opacity:1;" d="M 43.488281 11.816406 L 41.964844 11.816406 L 41.964844 5.175781 L 41.300781 5.175781 L 36.613281 11.816406 L 36.613281 12.773438 L 40.8125 12.773438 L 40.8125 15.273438 L 41.964844 15.273438 L 41.964844 12.773438 L 43.488281 12.773438 Z M 40.792969 11.816406 L 37.21875 11.816406 L 40.792969 6.699219 Z M 40.792969 11.816406 "/>
<path style=" stroke:none;fill-rule:nonzero;fill:rgb(0%,0%,0%);fill-opacity:1;" d="M 44.789062 15.605469 C 46.46875 15.410156 47.289062 15.117188 48.304688 14.394531 C 49.847656 13.261719 50.765625 11.40625 50.765625 9.394531 C 50.765625 6.914062 49.398438 5.175781 47.464844 5.175781 C 45.6875 5.175781 44.359375 6.679688 44.359375 8.691406 C 44.359375 10.527344 45.433594 11.738281 47.054688 11.738281 C 47.875 11.738281 48.5 11.484375 49.28125 10.878906 C 48.675781 13.320312 47.015625 14.921875 44.75 15.3125 Z M 49.320312 9.960938 C 49.320312 10.273438 49.261719 10.410156 49.085938 10.527344 C 48.675781 10.898438 48.128906 11.09375 47.582031 11.09375 C 46.449219 11.09375 45.726562 9.960938 45.726562 8.183594 C 45.726562 7.34375 45.980469 6.445312 46.292969 6.054688 C 46.546875 5.761719 46.917969 5.585938 47.347656 5.585938 C 48.65625 5.585938 49.320312 6.875 49.320312 9.394531 Z M 49.320312 9.960938 "/>
<path style=" stroke:none;fill-rule:nonzero;fill:rgb(0%,0%,0%);fill-opacity:1;" d="M 58.082031 5.390625 L 52.554688 5.390625 L 51.675781 7.578125 L 51.929688 7.695312 C 52.574219 6.679688 52.847656 6.484375 53.667969 6.484375 L 56.910156 6.484375 L 53.960938 15.390625 L 54.917969 15.390625 L 58.082031 5.625 Z M 58.082031 5.390625 "/>
<path style=" stroke:none;fill-rule:nonzero;fill:rgb(0%,0%,0%);fill-opacity:1;" d="M 59.734375 15.605469 C 61.414062 15.410156 62.234375 15.117188 63.25 14.394531 C 64.792969 13.261719 65.710938 11.40625 65.710938 9.394531 C 65.710938 6.914062 64.34375 5.175781 62.410156 5.175781 C 60.632812 5.175781 59.304688 6.679688 59.304688 8.691406 C 59.304688 10.527344 60.378906 11.738281 62 11.738281 C 62.820312 11.738281 63.445312 11.484375 64.226562 10.878906 C 63.621094 13.320312 61.960938 14.921875 59.695312 15.3125 Z M 64.265625 9.960938 C 64.265625 10.273438 64.207031 10.410156 64.03125 10.527344 C 63.621094 10.898438 63.074219 11.09375 62.527344 11.09375 C 61.394531 11.09375 60.671875 9.960938 60.671875 8.183594 C 60.671875 7.34375 60.925781 6.445312 61.238281 6.054688 C 61.492188 5.761719 61.863281 5.585938 62.292969 5.585938 C 63.601562 5.585938 64.265625 6.875 64.265625 9.394531 Z M 64.265625 9.960938 "/>
<path style=" stroke:none;fill-rule:nonzero;fill:rgb(0%,0%,0%);fill-opacity:1;" d="M 70.648438 11.425781 L 70.648438 12.382812 L 74.320312 12.382812 L 74.320312 11.425781 Z M 70.648438 11.425781 "/>
<path style=" stroke:none;fill-rule:nonzero;fill:rgb(0%,0%,0%);fill-opacity:1;" d="M 82.128906 13.222656 L 81.933594 13.144531 C 81.386719 14.003906 81.191406 14.140625 80.527344 14.140625 L 76.953125 14.140625 L 79.453125 11.503906 C 80.800781 10.117188 81.367188 8.984375 81.367188 7.8125 C 81.367188 6.328125 80.15625 5.175781 78.613281 5.175781 C 77.792969 5.175781 77.011719 5.507812 76.464844 6.09375 C 75.976562 6.601562 75.761719 7.089844 75.507812 8.144531 L 75.820312 8.222656 C 76.40625 6.757812 76.953125 6.269531 77.988281 6.269531 C 79.238281 6.269531 80.097656 7.128906 80.097656 8.378906 C 80.097656 9.550781 79.394531 10.9375 78.144531 12.265625 L 75.488281 15.097656 L 75.488281 15.273438 L 81.308594 15.273438 Z M 82.128906 13.222656 "/>
<path style=" stroke:none;fill-rule:nonzero;fill:rgb(0%,0%,0%);fill-opacity:1;" d="M 84.386719 13.789062 C 83.9375 13.789062 83.566406 14.160156 83.566406 14.628906 C 83.566406 15.058594 83.9375 15.429688 84.367188 15.429688 C 84.835938 15.429688 85.207031 15.058594 85.207031 14.628906 C 85.207031 14.160156 84.835938 13.789062 84.386719 13.789062 Z M 84.386719 13.789062 "/>
<path style=" stroke:none;fill-rule:nonzero;fill:rgb(0%,0%,0%);fill-opacity:1;" d="M 90.582031 9.726562 C 92.066406 8.945312 92.574219 8.320312 92.574219 7.285156 C 92.574219 6.074219 91.5 5.175781 90.015625 5.175781 C 88.375 5.175781 87.164062 6.171875 87.164062 7.539062 C 87.164062 8.496094 87.457031 8.945312 89.019531 10.3125 C 87.417969 11.542969 87.085938 11.992188 87.085938 13.007812 C 87.085938 14.472656 88.257812 15.488281 89.957031 15.488281 C 91.753906 15.488281 92.886719 14.492188 92.886719 12.949219 C 92.886719 11.816406 92.378906 11.074219 90.582031 9.726562 Z M 90.308594 11.269531 C 91.402344 12.050781 91.753906 12.578125 91.753906 13.417969 C 91.753906 14.394531 91.089844 15.058594 90.113281 15.058594 C 88.980469 15.058594 88.21875 14.199219 88.21875 12.890625 C 88.21875 11.933594 88.550781 11.308594 89.410156 10.605469 Z M 90.152344 9.453125 C 88.824219 8.59375 88.277344 7.910156 88.277344 7.070312 C 88.277344 6.210938 88.941406 5.585938 89.898438 5.585938 C 90.914062 5.585938 91.558594 6.25 91.558594 7.285156 C 91.558594 8.125 91.128906 8.808594 90.289062 9.375 C 90.210938 9.414062 90.210938 9.414062 90.152344 9.453125 Z M 90.152344 9.453125 "/>
<path style=" stroke:none;fill-rule:nonzero;fill:rgb(0%,0%,0%);fill-opacity:1;" d="M 99.332031 13.789062 C 98.882812 13.789062 98.511719 14.160156 98.511719 14.628906 C 98.511719 15.058594 98.882812 15.429688 99.3125 15.429688 C 99.78125 15.429688 100.152344 15.058594 100.152344 14.628906 C 100.152344 14.160156 99.78125 13.789062 99.332031 13.789062 Z M 99.332031 13.789062 "/>
<path style=" stroke:none;fill-rule:nonzero;fill:rgb(0%,0%,0%);fill-opacity:1;" d="M 104.980469 5.175781 C 104.160156 5.175781 103.535156 5.429688 102.988281 5.957031 C 102.109375 6.777344 101.542969 8.496094 101.542969 10.253906 C 101.542969 11.875 102.050781 13.632812 102.753906 14.472656 C 103.300781 15.117188 104.0625 15.488281 104.921875 15.488281 C 105.683594 15.488281 106.328125 15.234375 106.875 14.707031 C 107.734375 13.886719 108.300781 12.148438 108.300781 10.351562 C 108.300781 7.285156 106.953125 5.175781 104.980469 5.175781 Z M 104.941406 5.566406 C 106.191406 5.566406 106.875 7.246094 106.875 10.371094 C 106.875 13.496094 106.210938 15.097656 104.921875 15.097656 C 103.632812 15.097656 102.988281 13.496094 102.988281 10.390625 C 102.988281 7.226562 103.652344 5.566406 104.941406 5.566406 Z M 104.941406 5.566406 "/>
<path style=" stroke:none;fill-rule:nonzero;fill:rgb(0%,0%,0%);fill-opacity:1;" d="M 115.324219 5.058594 C 113.625 5.195312 112.765625 5.488281 111.671875 6.25 C 110.050781 7.402344 109.171875 9.101562 109.171875 11.113281 C 109.171875 12.402344 109.582031 13.710938 110.226562 14.472656 C 110.792969 15.117188 111.59375 15.488281 112.511719 15.488281 C 114.367188 15.488281 115.65625 14.0625 115.65625 11.992188 C 115.65625 10.097656 114.5625 8.886719 112.84375 8.886719 C 112.199219 8.886719 111.867188 8.984375 110.929688 9.550781 C 111.339844 7.285156 113.019531 5.683594 115.363281 5.292969 Z M 112.277344 9.570312 C 113.566406 9.570312 114.308594 10.644531 114.308594 12.5 C 114.308594 14.160156 113.722656 15.058594 112.6875 15.058594 C 111.359375 15.058594 110.558594 13.652344 110.558594 11.347656 C 110.558594 10.585938 110.675781 10.15625 110.988281 9.941406 C 111.300781 9.707031 111.75 9.570312 112.277344 9.570312 Z M 112.277344 9.570312 "/>
<path style=" stroke:none;fill-rule:nonzero;fill:rgb(0%,0%,0%);fill-opacity:1;" d="M 119.925781 5.175781 C 119.105469 5.175781 118.480469 5.429688 117.933594 5.957031 C 117.054688 6.777344 116.488281 8.496094 116.488281 10.253906 C 116.488281 11.875 116.996094 13.632812 117.699219 14.472656 C 118.246094 15.117188 119.007812 15.488281 119.867188 15.488281 C 120.628906 15.488281 121.273438 15.234375 121.820312 14.707031 C 122.679688 13.886719 123.246094 12.148438 123.246094 10.351562 C 123.246094 7.285156 121.898438 5.175781 119.925781 5.175781 Z M 119.886719 5.566406 C 121.136719 5.566406 121.820312 7.246094 121.820312 10.371094 C 121.820312 13.496094 121.15625 15.097656 119.867188 15.097656 C 118.578125 15.097656 117.933594 13.496094 117.933594 10.390625 C 117.933594 7.226562 118.597656 5.566406 119.886719 5.566406 Z M 119.886719 5.566406 "/>
<path style=" stroke:none;fill-rule:nonzero;fill:rgb(0%,0%,0%);fill-opacity:1;" d="M 127.941406 9.726562 C 129.425781 8.945312 129.933594 8.320312 129.933594 7.285156 C 129.933594 6.074219 128.859375 5.175781 127.375 5.175781 C 125.734375 5.175781 124.523438 6.171875 124.523438 7.539062 C 124.523438 8.496094 124.816406 8.945312 126.378906 10.3125 C 124.777344 11.542969 124.445312 11.992188 124.445312 13.007812 C 124.445312 14.472656 125.617188 15.488281 127.316406 15.488281 C 129.113281 15.488281 130.246094 14.492188 130.246094 12.949219 C 130.246094 11.816406 129.738281 11.074219 127.941406 9.726562 Z M 127.667969 11.269531 C 128.761719 12.050781 129.113281 12.578125 129.113281 13.417969 C 129.113281 14.394531 128.449219 15.058594 127.472656 15.058594 C 126.339844 15.058594 125.578125 14.199219 125.578125 12.890625 C 125.578125 11.933594 125.910156 11.308594 126.769531 10.605469 Z M 127.511719 9.453125 C 126.183594 8.59375 125.636719 7.910156 125.636719 7.070312 C 125.636719 6.210938 126.300781 5.585938 127.257812 5.585938 C 128.273438 5.585938 128.917969 6.25 128.917969 7.285156 C 128.917969 8.125 128.488281 8.808594 127.648438 9.375 C 127.570312 9.414062 127.570312 9.414062 127.511719 9.453125 Z M 127.511719 9.453125 "/>
<path style=" stroke:none;fill-rule:nonzero;fill:rgb(0%,0%,0%);fill-opacity:1;" d="M 135.433594 5.175781 L 132.738281 6.523438 L 132.738281 6.738281 C 132.914062 6.660156 133.089844 6.601562 133.148438 6.582031 C 133.402344 6.464844 133.65625 6.40625 133.8125 6.40625 C 134.125 6.40625 134.261719 6.640625 134.261719 7.109375 L 134.261719 13.886719 C 134.261719 14.375 134.144531 14.726562 133.910156 14.863281 C 133.675781 14.980469 133.460938 15.039062 132.835938 15.058594 L 132.835938 15.273438 L 136.957031 15.273438 L 136.957031 15.058594 C 135.785156 15.039062 135.550781 14.882812 135.550781 14.160156 L 135.550781 5.195312 Z M 135.433594 5.175781 "/>
<path style=" stroke:none;fill-rule:nonzero;fill:rgb(0%,0%,0%);fill-opacity:1;" d="M 142.875 11.425781 L 142.875 12.382812 L 146.546875 12.382812 L 146.546875 11.425781 Z M 142.875 11.425781 "/>
<path style=" stroke:none;fill-rule:nonzero;fill:rgb(0%,0%,0%);fill-opacity:1;" d="M 154.355469 13.222656 L 154.160156 13.144531 C 153.613281 14.003906 153.417969 14.140625 152.753906 14.140625 L 149.179688 14.140625 L 151.679688 11.503906 C 153.027344 10.117188 153.59375 8.984375 153.59375 7.8125 C 153.59375 6.328125 152.382812 5.175781 150.839844 5.175781 C 150.019531 5.175781 149.238281 5.507812 148.691406 6.09375 C 148.203125 6.601562 147.988281 7.089844 147.734375 8.144531 L 148.046875 8.222656 C 148.632812 6.757812 149.179688 6.269531 150.214844 6.269531 C 151.464844 6.269531 152.324219 7.128906 152.324219 8.378906 C 152.324219 9.550781 151.621094 10.9375 150.371094 12.265625 L 147.714844 15.097656 L 147.714844 15.273438 L 153.535156 15.273438 Z M 154.355469 13.222656 "/>
<path style=" stroke:none;fill-rule:nonzero;fill:rgb(0%,0%,0%);fill-opacity:1;" d="M 156.609375 13.789062 C 156.160156 13.789062 155.789062 14.160156 155.789062 14.628906 C 155.789062 15.058594 156.160156 15.429688 156.589844 15.429688 C 157.058594 15.429688 157.429688 15.058594 157.429688 14.628906 C 157.429688 14.160156 157.058594 13.789062 156.609375 13.789062 Z M 156.609375 13.789062 "/>
<path style=" stroke:none;fill-rule:nonzero;fill:rgb(0%,0%,0%);fill-opacity:1;" d="M 165.132812 5.058594 C 163.433594 5.195312 162.574219 5.488281 161.480469 6.25 C 159.859375 7.402344 158.980469 9.101562 158.980469 11.113281 C 158.980469 12.402344 159.390625 13.710938 160.035156 14.472656 C 160.601562 15.117188 161.402344 15.488281 162.320312 15.488281 C 164.175781 15.488281 165.464844 14.0625 165.464844 11.992188 C 165.464844 10.097656 164.371094 8.886719 162.652344 8.886719 C 162.007812 8.886719 161.675781 8.984375 160.738281 9.550781 C 161.148438 7.285156 162.828125 5.683594 165.171875 5.292969 Z M 162.085938 9.570312 C 163.375 9.570312 164.117188 10.644531 164.117188 12.5 C 164.117188 14.160156 163.53125 15.058594 162.496094 15.058594 C 161.167969 15.058594 160.367188 13.652344 160.367188 11.347656 C 160.367188 10.585938 160.484375 10.15625 160.796875 9.941406 C 161.109375 9.707031 161.558594 9.570312 162.085938 9.570312 Z M 162.085938 9.570312 "/>
<path style=" stroke:none;fill-rule:nonzero;fill:rgb(0%,0%,0%);fill-opacity:1;" d="M 171.554688 13.789062 C 171.105469 13.789062 170.734375 14.160156 170.734375 14.628906 C 170.734375 15.058594 171.105469 15.429688 171.535156 15.429688 C 172.003906 15.429688 172.375 15.058594 172.375 14.628906 C 172.375 14.160156 172.003906 13.789062 171.554688 13.789062 Z M 171.554688 13.789062 "/>
<path style=" stroke:none;fill-rule:nonzero;fill:rgb(0%,0%,0%);fill-opacity:1;" d="M 177.203125 5.175781 C 176.382812 5.175781 175.757812 5.429688 175.210938 5.957031 C 174.332031 6.777344 173.765625 8.496094 173.765625 10.253906 C 173.765625 11.875 174.273438 13.632812 174.976562 14.472656 C 175.523438 15.117188 176.285156 15.488281 177.144531 15.488281 C 177.90625 15.488281 178.550781 15.234375 179.097656 14.707031 C 179.957031 13.886719 180.523438 12.148438 180.523438 10.351562 C 180.523438 7.285156 179.175781 5.175781 177.203125 5.175781 Z M 177.164062 5.566406 C 178.414062 5.566406 179.097656 7.246094 179.097656 10.371094 C 179.097656 13.496094 178.433594 15.097656 177.144531 15.097656 C 175.855469 15.097656 175.210938 13.496094 175.210938 10.390625 C 175.210938 7.226562 175.875 5.566406 177.164062 5.566406 Z M 177.164062 5.566406 "/>
<path style=" stroke:none;fill-rule:nonzero;fill:rgb(0%,0%,0%);fill-opacity:1;" d="M 187.585938 5.390625 L 182.058594 5.390625 L 181.179688 7.578125 L 181.433594 7.695312 C 182.078125 6.679688 182.351562 6.484375 183.171875 6.484375 L 186.414062 6.484375 L 183.464844 15.390625 L 184.421875 15.390625 L 187.585938 5.625 Z M 187.585938 5.390625 "/>
<path style=" stroke:none;fill-rule:nonzero;fill:rgb(0%,0%,0%);fill-opacity:1;" d="M 195.410156 11.816406 L 193.886719 11.816406 L 193.886719 5.175781 L 193.222656 5.175781 L 188.535156 11.816406 L 188.535156 12.773438 L 192.734375 12.773438 L 192.734375 15.273438 L 193.886719 15.273438 L 193.886719 12.773438 L 195.410156 12.773438 Z M 192.714844 11.816406 L 189.140625 11.816406 L 192.714844 6.699219 Z M 192.714844 11.816406 "/>
<path style=" stroke:none;fill-rule:nonzero;fill:rgb(0%,0%,0%);fill-opacity:1;" d="M 202.921875 13.222656 L 202.726562 13.144531 C 202.179688 14.003906 201.984375 14.140625 201.320312 14.140625 L 197.746094 14.140625 L 200.246094 11.503906 C 201.59375 10.117188 202.160156 8.984375 202.160156 7.8125 C 202.160156 6.328125 200.949219 5.175781 199.40625 5.175781 C 198.585938 5.175781 197.804688 5.507812 197.257812 6.09375 C 196.769531 6.601562 196.554688 7.089844 196.300781 8.144531 L 196.613281 8.222656 C 197.199219 6.757812 197.746094 6.269531 198.78125 6.269531 C 200.03125 6.269531 200.890625 7.128906 200.890625 8.378906 C 200.890625 9.550781 200.1875 10.9375 198.9375 12.265625 L 196.28125 15.097656 L 196.28125 15.273438 L 202.101562 15.273438 Z M 202.921875 13.222656 "/>
<path style=" stroke:none;fill-rule:nonzero;fill:rgb(0%,0%,0%);fill-opacity:1;" d="M 210.003906 5.390625 L 204.476562 5.390625 L 203.597656 7.578125 L 203.851562 7.695312 C 204.496094 6.679688 204.769531 6.484375 205.589844 6.484375 L 208.832031 6.484375 L 205.882812 15.390625 L 206.839844 15.390625 L 210.003906 5.625 Z M 210.003906 5.390625 "/>
<path style=" stroke:none;fill-rule:nonzero;fill:rgb(0%,0%,0%);fill-opacity:1;" d="M 215.097656 11.425781 L 215.097656 12.382812 L 218.769531 12.382812 L 218.769531 11.425781 Z M 215.097656 11.425781 "/>
<path style=" stroke:none;fill-rule:nonzero;fill:rgb(0%,0%,0%);fill-opacity:1;" d="M 226.578125 13.222656 L 226.382812 13.144531 C 225.835938 14.003906 225.640625 14.140625 224.976562 14.140625 L 221.402344 14.140625 L 223.902344 11.503906 C 225.25 10.117188 225.816406 8.984375 225.816406 7.8125 C 225.816406 6.328125 224.605469 5.175781 223.0625 5.175781 C 222.242188 5.175781 221.460938 5.507812 220.914062 6.09375 C 220.425781 6.601562 220.210938 7.089844 219.957031 8.144531 L 220.269531 8.222656 C 220.855469 6.757812 221.402344 6.269531 222.4375 6.269531 C 223.6875 6.269531 224.546875 7.128906 224.546875 8.378906 C 224.546875 9.550781 223.84375 10.9375 222.59375 12.265625 L 219.9375 15.097656 L 219.9375 15.273438 L 225.757812 15.273438 Z M 226.578125 13.222656 "/>
<path style=" stroke:none;fill-rule:nonzero;fill:rgb(0%,0%,0%);fill-opacity:1;" d="M 228.835938 13.789062 C 228.386719 13.789062 228.015625 14.160156 228.015625 14.628906 C 228.015625 15.058594 228.386719 15.429688 228.816406 15.429688 C 229.285156 15.429688 229.65625 15.058594 229.65625 14.628906 C 229.65625 14.160156 229.285156 13.789062 228.835938 13.789062 Z M 228.835938 13.789062 "/>
<path style=" stroke:none;fill-rule:nonzero;fill:rgb(0%,0%,0%);fill-opacity:1;" d="M 237.746094 11.816406 L 236.222656 11.816406 L 236.222656 5.175781 L 235.558594 5.175781 L 230.871094 11.816406 L 230.871094 12.773438 L 235.070312 12.773438 L 235.070312 15.273438 L 236.222656 15.273438 L 236.222656 12.773438 L 237.746094 12.773438 Z M 235.050781 11.816406 L 231.476562 11.816406 L 235.050781 6.699219 Z M 235.050781 11.816406 "/>
<path style=" stroke:none;fill-rule:nonzero;fill:rgb(0%,0%,0%);fill-opacity:1;" d="M 243.777344 13.789062 C 243.328125 13.789062 242.957031 14.160156 242.957031 14.628906 C 242.957031 15.058594 243.328125 15.429688 243.757812 15.429688 C 244.226562 15.429688 244.597656 15.058594 244.597656 14.628906 C 244.597656 14.160156 244.226562 13.789062 243.777344 13.789062 Z M 243.777344 13.789062 "/>
<path style=" stroke:none;fill-rule:nonzero;fill:rgb(0%,0%,0%);fill-opacity:1;" d="M 249.429688 5.175781 C 248.609375 5.175781 247.984375 5.429688 247.4375 5.957031 C 246.558594 6.777344 245.992188 8.496094 245.992188 10.253906 C 245.992188 11.875 246.5 13.632812 247.203125 14.472656 C 247.75 15.117188 248.511719 15.488281 249.371094 15.488281 C 250.132812 15.488281 250.777344 15.234375 251.324219 14.707031 C 252.183594 13.886719 252.75 12.148438 252.75 10.351562 C 252.75 7.285156 251.402344 5.175781 249.429688 5.175781 Z M 249.390625 5.566406 C 250.640625 5.566406 251.324219 7.246094 251.324219 10.371094 C 251.324219 13.496094 250.660156 15.097656 249.371094 15.097656 C 248.082031 15.097656 247.4375 13.496094 247.4375 10.390625 C 247.4375 7.226562 248.101562 5.566406 249.390625 5.566406 Z M 249.390625 5.566406 "/>
<path style=" stroke:none;fill-rule:nonzero;fill:rgb(0%,0%,0%);fill-opacity:1;" d="M 253.992188 15.605469 C 255.671875 15.410156 256.492188 15.117188 257.507812 14.394531 C 259.050781 13.261719 259.96875 11.40625 259.96875 9.394531 C 259.96875 6.914062 258.601562 5.175781 256.667969 5.175781 C 254.890625 5.175781 253.5625 6.679688 253.5625 8.691406 C 253.5625 10.527344 254.636719 11.738281 256.257812 11.738281 C 257.078125 11.738281 257.703125 11.484375 258.484375 10.878906 C 257.878906 13.320312 256.21875 14.921875 253.953125 15.3125 Z M 258.523438 9.960938 C 258.523438 10.273438 258.464844 10.410156 258.289062 10.527344 C 257.878906 10.898438 257.332031 11.09375 256.785156 11.09375 C 255.652344 11.09375 254.929688 9.960938 254.929688 8.183594 C 254.929688 7.34375 255.183594 6.445312 255.496094 6.054688 C 255.75 5.761719 256.121094 5.585938 256.550781 5.585938 C 257.859375 5.585938 258.523438 6.875 258.523438 9.394531 Z M 258.523438 9.960938 "/>
<path style=" stroke:none;fill-rule:nonzero;fill:rgb(0%,0%,0%);fill-opacity:1;" d="M 264.375 5.175781 C 263.554688 5.175781 262.929688 5.429688 262.382812 5.957031 C 261.503906 6.777344 260.9375 8.496094 260.9375 10.253906 C 260.9375 11.875 261.445312 13.632812 262.148438 14.472656 C 262.695312 15.117188 263.457031 15.488281 264.316406 15.488281 C 265.078125 15.488281 265.722656 15.234375 266.269531 14.707031 C 267.128906 13.886719 267.695312 12.148438 267.695312 10.351562 C 267.695312 7.285156 266.347656 5.175781 264.375 5.175781 Z M 264.335938 5.566406 C 265.585938 5.566406 266.269531 7.246094 266.269531 10.371094 C 266.269531 13.496094 265.605469 15.097656 264.316406 15.097656 C 263.027344 15.097656 262.382812 13.496094 262.382812 10.390625 C 262.382812 7.226562 263.046875 5.566406 264.335938 5.566406 Z M 264.335938 5.566406 "/>
<path style=" stroke:none;fill-rule:nonzero;fill:rgb(0%,0%,0%);fill-opacity:1;" d="M 274.753906 5.390625 L 269.226562 5.390625 L 268.347656 7.578125 L 268.601562 7.695312 C 269.246094 6.679688 269.519531 6.484375 270.339844 6.484375 L 273.582031 6.484375 L 270.632812 15.390625 L 271.589844 15.390625 L 274.753906 5.625 Z M 274.753906 5.390625 "/>
<path style=" stroke:none;fill-rule:nonzero;fill:rgb(0%,0%,0%);fill-opacity:1;" d="M 282.617188 13.222656 L 282.421875 13.144531 C 281.875 14.003906 281.679688 14.140625 281.015625 14.140625 L 277.441406 14.140625 L 279.941406 11.503906 C 281.289062 10.117188 281.855469 8.984375 281.855469 7.8125 C 281.855469 6.328125 280.644531 5.175781 279.101562 5.175781 C 278.28125 5.175781 277.5 5.507812 276.953125 6.09375 C 276.464844 6.601562 276.25 7.089844 275.996094 8.144531 L 276.308594 8.222656 C 276.894531 6.757812 277.441406 6.269531 278.476562 6.269531 C 279.726562 6.269531 280.585938 7.128906 280.585938 8.378906 C 280.585938 9.550781 279.882812 10.9375 278.632812 12.265625 L 275.976562 15.097656 L 275.976562 15.273438 L 281.796875 15.273438 Z M 282.617188 13.222656 "/>
<path style=" stroke:none;fill-rule:nonzero;fill:rgb(0%,0%,0%);fill-opacity:1;" d="M 287.320312 11.425781 L 287.320312 12.382812 L 290.992188 12.382812 L 290.992188 11.425781 Z M 287.320312 11.425781 "/>
<path style=" stroke:none;fill-rule:nonzero;fill:rgb(0%,0%,0%);fill-opacity:1;" d="M 298.800781 13.222656 L 298.605469 13.144531 C 298.058594 14.003906 297.863281 14.140625 297.199219 14.140625 L 293.625 14.140625 L 296.125 11.503906 C 297.472656 10.117188 298.039062 8.984375 298.039062 7.8125 C 298.039062 6.328125 296.828125 5.175781 295.285156 5.175781 C 294.464844 5.175781 293.683594 5.507812 293.136719 6.09375 C 292.648438 6.601562 292.433594 7.089844 292.179688 8.144531 L 292.492188 8.222656 C 293.078125 6.757812 293.625 6.269531 294.660156 6.269531 C 295.910156 6.269531 296.769531 7.128906 296.769531 8.378906 C 296.769531 9.550781 296.066406 10.9375 294.816406 12.265625 L 292.160156 15.097656 L 292.160156 15.273438 L 297.980469 15.273438 Z M 298.800781 13.222656 "/>
<path style=" stroke:none;fill-rule:nonzero;fill:rgb(0%,0%,0%);fill-opacity:1;" d="M 301.058594 13.789062 C 300.609375 13.789062 300.238281 14.160156 300.238281 14.628906 C 300.238281 15.058594 300.609375 15.429688 301.039062 15.429688 C 301.507812 15.429688 301.878906 15.058594 301.878906 14.628906 C 301.878906 14.160156 301.507812 13.789062 301.058594 13.789062 Z M 301.058594 13.789062 "/>
<path style=" stroke:none;fill-rule:nonzero;fill:rgb(0%,0%,0%);fill-opacity:1;" d="M 310.011719 13.222656 L 309.816406 13.144531 C 309.269531 14.003906 309.074219 14.140625 308.410156 14.140625 L 304.835938 14.140625 L 307.335938 11.503906 C 308.683594 10.117188 309.25 8.984375 309.25 7.8125 C 309.25 6.328125 308.039062 5.175781 306.496094 5.175781 C 305.675781 5.175781 304.894531 5.507812 304.347656 6.09375 C 303.859375 6.601562 303.644531 7.089844 303.390625 8.144531 L 303.703125 8.222656 C 304.289062 6.757812 304.835938 6.269531 305.871094 6.269531 C 307.121094 6.269531 307.980469 7.128906 307.980469 8.378906 C 307.980469 9.550781 307.277344 10.9375 306.027344 12.265625 L 303.371094 15.097656 L 303.371094 15.273438 L 309.191406 15.273438 Z M 310.011719 13.222656 "/>
<path style=" stroke:none;fill-rule:nonzero;fill:rgb(0%,0%,0%);fill-opacity:1;" d="M 316.003906 13.789062 C 315.554688 13.789062 315.183594 14.160156 315.183594 14.628906 C 315.183594 15.058594 315.554688 15.429688 315.984375 15.429688 C 316.453125 15.429688 316.824219 15.058594 316.824219 14.628906 C 316.824219 14.160156 316.453125 13.789062 316.003906 13.789062 Z M 316.003906 13.789062 "/>
<path style=" stroke:none;fill-rule:nonzero;fill:rgb(0%,0%,0%);fill-opacity:1;" d="M 322.21875 5.175781 L 319.523438 6.523438 L 319.523438 6.738281 C 319.699219 6.660156 319.875 6.601562 319.933594 6.582031 C 320.1875 6.464844 320.441406 6.40625 320.597656 6.40625 C 320.910156 6.40625 321.046875 6.640625 321.046875 7.109375 L 321.046875 13.886719 C 321.046875 14.375 320.929688 14.726562 320.695312 14.863281 C 320.460938 14.980469 320.246094 15.039062 319.621094 15.058594 L 319.621094 15.273438 L 323.742188 15.273438 L 323.742188 15.058594 C 322.570312 15.039062 322.335938 14.882812 322.335938 14.160156 L 322.335938 5.195312 Z M 322.21875 5.175781 "/>
<path style=" stroke:none;fill-rule:nonzero;fill:rgb(0%,0%,0%);fill-opacity:1;" d="M 329.691406 5.175781 L 326.996094 6.523438 L 326.996094 6.738281 C 327.171875 6.660156 327.347656 6.601562 327.40625 6.582031 C 327.660156 6.464844 327.914062 6.40625 328.070312 6.40625 C 328.382812 6.40625 328.519531 6.640625 328.519531 7.109375 L 328.519531 13.886719 C 328.519531 14.375 328.402344 14.726562 328.167969 14.863281 C 327.933594 14.980469 327.71875 15.039062 327.09375 15.058594 L 327.09375 15.273438 L 331.214844 15.273438 L 331.214844 15.058594 C 330.042969 15.039062 329.808594 14.882812 329.808594 14.160156 L 329.808594 5.195312 Z M 329.691406 5.175781 "/>
<path style=" stroke:none;fill-rule:nonzero;fill:rgb(0%,0%,0%);fill-opacity:1;" d="M 336.597656 5.175781 C 335.777344 5.175781 335.152344 5.429688 334.605469 5.957031 C 333.726562 6.777344 333.160156 8.496094 333.160156 10.253906 C 333.160156 11.875 333.667969 13.632812 334.371094 14.472656 C 334.917969 15.117188 335.679688 15.488281 336.539062 15.488281 C 337.300781 15.488281 337.945312 15.234375 338.492188 14.707031 C 339.351562 13.886719 339.917969 12.148438 339.917969 10.351562 C 339.917969 7.285156 338.570312 5.175781 336.597656 5.175781 Z M 336.558594 5.566406 C 337.808594 5.566406 338.492188 7.246094 338.492188 10.371094 C 338.492188 13.496094 337.828125 15.097656 336.539062 15.097656 C 335.25 15.097656 334.605469 13.496094 334.605469 10.390625 C 334.605469 7.226562 335.269531 5.566406 336.558594 5.566406 Z M 336.558594 5.566406 "/>
<path style=" stroke:none;fill-rule:nonzero;fill:rgb(0%,0%,0%);fill-opacity:1;" d="M 344.617188 9.726562 C 346.101562 8.945312 346.609375 8.320312 346.609375 7.285156 C 346.609375 6.074219 345.535156 5.175781 344.050781 5.175781 C 342.410156 5.175781 341.199219 6.171875 341.199219 7.539062 C 341.199219 8.496094 341.492188 8.945312 343.054688 10.3125 C 341.453125 11.542969 341.121094 11.992188 341.121094 13.007812 C 341.121094 14.472656 342.292969 15.488281 343.992188 15.488281 C 345.789062 15.488281 346.921875 14.492188 346.921875 12.949219 C 346.921875 11.816406 346.414062 11.074219 344.617188 9.726562 Z M 344.34375 11.269531 C 345.4375 12.050781 345.789062 12.578125 345.789062 13.417969 C 345.789062 14.394531 345.125 15.058594 344.148438 15.058594 C 343.015625 15.058594 342.253906 14.199219 342.253906 12.890625 C 342.253906 11.933594 342.585938 11.308594 343.445312 10.605469 Z M 344.1875 9.453125 C 342.859375 8.59375 342.3125 7.910156 342.3125 7.070312 C 342.3125 6.210938 342.976562 5.585938 343.933594 5.585938 C 344.949219 5.585938 345.59375 6.25 345.59375 7.285156 C 345.59375 8.125 345.164062 8.808594 344.324219 9.375 C 344.246094 9.414062 344.246094 9.414062 344.1875 9.453125 Z M 344.1875 9.453125 "/>
<path style=" stroke:none;fill-rule:nonzero;fill:rgb(0%,0%,0%);fill-opacity:1;" d="M 352.074219 11.425781 L 352.074219 12.382812 L 355.746094 12.382812 L 355.746094 11.425781 Z M 352.074219 11.425781 "/>
<path style=" stroke:none;fill-rule:nonzero;fill:rgb(0%,0%,0%);fill-opacity:1;" d="M 363.554688 13.222656 L 363.359375 13.144531 C 362.8125 14.003906 362.617188 14.140625 361.953125 14.140625 L 358.378906 14.140625 L 360.878906 11.503906 C 362.226562 10.117188 362.792969 8.984375 362.792969 7.8125 C 362.792969 6.328125 361.582031 5.175781 360.039062 5.175781 C 359.21875 5.175781 358.4375 5.507812 357.890625 6.09375 C 357.402344 6.601562 357.1875 7.089844 356.933594 8.144531 L 357.246094 8.222656 C 357.832031 6.757812 358.378906 6.269531 359.414062 6.269531 C 360.664062 6.269531 361.523438 7.128906 361.523438 8.378906 C 361.523438 9.550781 360.820312 10.9375 359.570312 12.265625 L 356.914062 15.097656 L 356.914062 15.273438 L 362.734375 15.273438 Z M 363.554688 13.222656 "/>
<path style=" stroke:none;fill-rule:nonzero;fill:rgb(0%,0%,0%);fill-opacity:1;" d="M 365.8125 13.789062 C 365.363281 13.789062 364.992188 14.160156 364.992188 14.628906 C 364.992188 15.058594 365.363281 15.429688 365.792969 15.429688 C 366.261719 15.429688 366.632812 15.058594 366.632812 14.628906 C 366.632812 14.160156 366.261719 13.789062 365.8125 13.789062 Z M 365.8125 13.789062 "/>
<path style=" stroke:none;fill-rule:nonzero;fill:rgb(0%,0%,0%);fill-opacity:1;" d="M 374.179688 13.789062 C 373.730469 13.789062 373.359375 14.160156 373.359375 14.628906 C 373.359375 15.058594 373.730469 15.429688 374.160156 15.429688 C 374.628906 15.429688 375 15.058594 375 14.628906 C 375 14.160156 374.628906 13.789062 374.179688 13.789062 Z M 374.179688 13.789062 "/>
<path style=" stroke:none;fill-rule:nonzero;fill:rgb(0%,0%,0%);fill-opacity:1;" d="M 380.398438 5.175781 L 377.703125 6.523438 L 377.703125 6.738281 C 377.878906 6.660156 378.054688 6.601562 378.113281 6.582031 C 378.367188 6.464844 378.621094 6.40625 378.777344 6.40625 C 379.089844 6.40625 379.226562 6.640625 379.226562 7.109375 L 379.226562 13.886719 C 379.226562 14.375 379.109375 14.726562 378.875 14.863281 C 378.640625 14.980469 378.425781 15.039062 377.800781 15.058594 L 377.800781 15.273438 L 381.921875 15.273438 L 381.921875 15.058594 C 380.75 15.039062 380.515625 14.882812 380.515625 14.160156 L 380.515625 5.195312 Z M 380.398438 5.175781 "/>
<path style=" stroke:none;fill-rule:nonzero;fill:rgb(0%,0%,0%);fill-opacity:1;" d="M 385.796875 10.351562 C 386.675781 10.351562 387.027344 10.371094 387.378906 10.507812 C 388.316406 10.839844 388.882812 11.679688 388.882812 12.714844 C 388.882812 13.964844 388.042969 14.941406 386.929688 14.941406 C 386.539062 14.941406 386.226562 14.84375 385.679688 14.472656 C 385.230469 14.21875 384.976562 14.101562 384.722656 14.101562 C 384.371094 14.101562 384.15625 14.316406 384.15625 14.628906 C 384.15625 15.15625 384.800781 15.488281 385.835938 15.488281 C 386.988281 15.488281 388.179688 15.097656 388.882812 14.472656 C 389.585938 13.867188 389.957031 13.007812 389.957031 11.992188 C 389.957031 11.230469 389.722656 10.527344 389.292969 10.078125 C 389 9.746094 388.707031 9.570312 388.0625 9.277344 C 389.078125 8.574219 389.449219 8.027344 389.449219 7.226562 C 389.449219 6.015625 388.511719 5.175781 387.125 5.175781 C 386.382812 5.175781 385.71875 5.429688 385.191406 5.898438 C 384.742188 6.308594 384.507812 6.699219 384.175781 7.597656 L 384.410156 7.65625 C 385.015625 6.5625 385.699219 6.074219 386.636719 6.074219 C 387.613281 6.074219 388.277344 6.71875 388.277344 7.675781 C 388.277344 8.203125 388.0625 8.75 387.671875 9.121094 C 387.222656 9.570312 386.8125 9.785156 385.796875 10.15625 Z M 385.796875 10.351562 "/>
<path style=" stroke:none;fill-rule:nonzero;fill:rgb(0%,0%,0%);fill-opacity:1;" d="M 393.679688 6.5625 L 396.609375 6.5625 C 396.863281 6.5625 396.921875 6.523438 396.960938 6.425781 L 397.527344 5.097656 L 397.390625 5 C 397.175781 5.3125 397.019531 5.390625 396.707031 5.390625 L 393.582031 5.390625 L 391.960938 8.925781 C 391.941406 8.945312 391.941406 8.964844 391.941406 9.003906 C 391.941406 9.082031 392 9.121094 392.117188 9.121094 C 392.605469 9.121094 393.191406 9.21875 393.816406 9.414062 C 395.535156 9.960938 396.316406 10.898438 396.316406 12.382812 C 396.316406 13.808594 395.398438 14.921875 394.246094 14.921875 C 393.933594 14.921875 393.679688 14.824219 393.25 14.492188 C 392.761719 14.160156 392.410156 14.003906 392.097656 14.003906 C 391.667969 14.003906 391.453125 14.179688 391.453125 14.550781 C 391.453125 15.117188 392.15625 15.488281 393.289062 15.488281 C 394.539062 15.488281 395.613281 15.078125 396.355469 14.316406 C 397.058594 13.652344 397.371094 12.792969 397.371094 11.660156 C 397.371094 10.585938 397.078125 9.902344 396.335938 9.140625 C 395.671875 8.496094 394.832031 8.144531 393.054688 7.832031 Z M 393.679688 6.5625 "/>
<path style=" stroke:none;fill-rule:nonzero;fill:rgb(0%,0%,0%);fill-opacity:1;" d="M 400.742188 10.351562 C 401.621094 10.351562 401.972656 10.371094 402.324219 10.507812 C 403.261719 10.839844 403.828125 11.679688 403.828125 12.714844 C 403.828125 13.964844 402.988281 14.941406 401.875 14.941406 C 401.484375 14.941406 401.171875 14.84375 400.625 14.472656 C 400.175781 14.21875 399.921875 14.101562 399.667969 14.101562 C 399.316406 14.101562 399.101562 14.316406 399.101562 14.628906 C 399.101562 15.15625 399.746094 15.488281 400.78125 15.488281 C 401.933594 15.488281 403.125 15.097656 403.828125 14.472656 C 404.53125 13.867188 404.902344 13.007812 404.902344 11.992188 C 404.902344 11.230469 404.667969 10.527344 404.238281 10.078125 C 403.945312 9.746094 403.652344 9.570312 403.007812 9.277344 C 404.023438 8.574219 404.394531 8.027344 404.394531 7.226562 C 404.394531 6.015625 403.457031 5.175781 402.070312 5.175781 C 401.328125 5.175781 400.664062 5.429688 400.136719 5.898438 C 399.6875 6.308594 399.453125 6.699219 399.121094 7.597656 L 399.355469 7.65625 C 399.960938 6.5625 400.644531 6.074219 401.582031 6.074219 C 402.558594 6.074219 403.222656 6.71875 403.222656 7.675781 C 403.222656 8.203125 403.007812 8.75 402.617188 9.121094 C 402.167969 9.570312 401.757812 9.785156 400.742188 10.15625 Z M 400.742188 10.351562 "/>
<path style=" stroke:none;fill-rule:nonzero;fill:rgb(0%,0%,0%);fill-opacity:1;" d="M 410.25 11.425781 L 410.25 12.382812 L 413.921875 12.382812 L 413.921875 11.425781 Z M 410.25 11.425781 "/>
<path style=" stroke:none;fill-rule:nonzero;fill:rgb(0%,0%,0%);fill-opacity:1;" d="M 418.996094 5.175781 L 416.300781 6.523438 L 416.300781 6.738281 C 416.476562 6.660156 416.652344 6.601562 416.710938 6.582031 C 416.964844 6.464844 417.21875 6.40625 417.375 6.40625 C 417.6875 6.40625 417.824219 6.640625 417.824219 7.109375 L 417.824219 13.886719 C 417.824219 14.375 417.707031 14.726562 417.472656 14.863281 C 417.238281 14.980469 417.023438 15.039062 416.398438 15.058594 L 416.398438 15.273438 L 420.519531 15.273438 L 420.519531 15.058594 C 419.347656 15.039062 419.113281 14.882812 419.113281 14.160156 L 419.113281 5.195312 Z M 418.996094 5.175781 "/>
<path style=" stroke:none;fill-rule:nonzero;fill:rgb(0%,0%,0%);fill-opacity:1;" d="M 423.988281 13.789062 C 423.539062 13.789062 423.167969 14.160156 423.167969 14.628906 C 423.167969 15.058594 423.539062 15.429688 423.96875 15.429688 C 424.4375 15.429688 424.808594 15.058594 424.808594 14.628906 C 424.808594 14.160156 424.4375 13.789062 423.988281 13.789062 Z M 423.988281 13.789062 "/>
<path style=" stroke:none;fill-rule:nonzero;fill:rgb(0%,0%,0%);fill-opacity:1;" d="M 430.1875 9.726562 C 431.671875 8.945312 432.179688 8.320312 432.179688 7.285156 C 432.179688 6.074219 431.105469 5.175781 429.621094 5.175781 C 427.980469 5.175781 426.769531 6.171875 426.769531 7.539062 C 426.769531 8.496094 427.0625 8.945312 428.625 10.3125 C 427.023438 11.542969 426.691406 11.992188 426.691406 13.007812 C 426.691406 14.472656 427.863281 15.488281 429.5625 15.488281 C 431.359375 15.488281 432.492188 14.492188 432.492188 12.949219 C 432.492188 11.816406 431.984375 11.074219 430.1875 9.726562 Z M 429.914062 11.269531 C 431.007812 12.050781 431.359375 12.578125 431.359375 13.417969 C 431.359375 14.394531 430.695312 15.058594 429.71875 15.058594 C 428.585938 15.058594 427.824219 14.199219 427.824219 12.890625 C 427.824219 11.933594 428.15625 11.308594 429.015625 10.605469 Z M 429.757812 9.453125 C 428.429688 8.59375 427.882812 7.910156 427.882812 7.070312 C 427.882812 6.210938 428.546875 5.585938 429.503906 5.585938 C 430.519531 5.585938 431.164062 6.25 431.164062 7.285156 C 431.164062 8.125 430.734375 8.808594 429.894531 9.375 C 429.816406 9.414062 429.816406 9.414062 429.757812 9.453125 Z M 429.757812 9.453125 "/>
<path style=" stroke:none;fill-rule:nonzero;fill:rgb(0%,0%,0%);fill-opacity:1;" d="M 438.933594 13.789062 C 438.484375 13.789062 438.113281 14.160156 438.113281 14.628906 C 438.113281 15.058594 438.484375 15.429688 438.914062 15.429688 C 439.382812 15.429688 439.753906 15.058594 439.753906 14.628906 C 439.753906 14.160156 439.382812 13.789062 438.933594 13.789062 Z M 438.933594 13.789062 "/>
<path style=" stroke:none;fill-rule:nonzero;fill:rgb(0%,0%,0%);fill-opacity:1;" d="M 445.148438 5.175781 L 442.453125 6.523438 L 442.453125 6.738281 C 442.628906 6.660156 442.804688 6.601562 442.863281 6.582031 C 443.117188 6.464844 443.371094 6.40625 443.527344 6.40625 C 443.839844 6.40625 443.976562 6.640625 443.976562 7.109375 L 443.976562 13.886719 C 443.976562 14.375 443.859375 14.726562 443.625 14.863281 C 443.390625 14.980469 443.175781 15.039062 442.550781 15.058594 L 442.550781 15.273438 L 446.671875 15.273438 L 446.671875 15.058594 C 445.5 15.039062 445.265625 14.882812 445.265625 14.160156 L 445.265625 5.195312 Z M 445.148438 5.175781 "/>
<path style=" stroke:none;fill-rule:nonzero;fill:rgb(0%,0%,0%);fill-opacity:1;" d="M 454.925781 5.058594 C 453.226562 5.195312 452.367188 5.488281 451.273438 6.25 C 449.652344 7.402344 448.773438 9.101562 448.773438 11.113281 C 448.773438 12.402344 449.183594 13.710938 449.828125 14.472656 C 450.394531 15.117188 451.195312 15.488281 452.113281 15.488281 C 453.96875 15.488281 455.257812 14.0625 455.257812 11.992188 C 455.257812 10.097656 454.164062 8.886719 452.445312 8.886719 C 451.800781 8.886719 451.46875 8.984375 450.53125 9.550781 C 450.941406 7.285156 452.621094 5.683594 454.964844 5.292969 Z M 451.878906 9.570312 C 453.167969 9.570312 453.910156 10.644531 453.910156 12.5 C 453.910156 14.160156 453.324219 15.058594 452.289062 15.058594 C 450.960938 15.058594 450.160156 13.652344 450.160156 11.347656 C 450.160156 10.585938 450.277344 10.15625 450.589844 9.941406 C 450.902344 9.707031 451.351562 9.570312 451.878906 9.570312 Z M 451.878906 9.570312 "/>
<path style=" stroke:none;fill-rule:nonzero;fill:rgb(0%,0%,0%);fill-opacity:1;" d="M 458.433594 6.5625 L 461.363281 6.5625 C 461.617188 6.5625 461.675781 6.523438 461.714844 6.425781 L 462.28125 5.097656 L 462.144531 5 C 461.929688 5.3125 461.773438 5.390625 461.460938 5.390625 L 458.335938 5.390625 L 456.714844 8.925781 C 456.695312 8.945312 456.695312 8.964844 456.695312 9.003906 C 456.695312 9.082031 456.753906 9.121094 456.871094 9.121094 C 457.359375 9.121094 457.945312 9.21875 458.570312 9.414062 C 460.289062 9.960938 461.070312 10.898438 461.070312 12.382812 C 461.070312 13.808594 460.152344 14.921875 459 14.921875 C 458.6875 14.921875 458.433594 14.824219 458.003906 14.492188 C 457.515625 14.160156 457.164062 14.003906 456.851562 14.003906 C 456.421875 14.003906 456.207031 14.179688 456.207031 14.550781 C 456.207031 15.117188 456.910156 15.488281 458.042969 15.488281 C 459.292969 15.488281 460.367188 15.078125 461.109375 14.316406 C 461.8125 13.652344 462.125 12.792969 462.125 11.660156 C 462.125 10.585938 461.832031 9.902344 461.089844 9.140625 C 460.425781 8.496094 459.585938 8.144531 457.808594 7.832031 Z M 458.433594 6.5625 "/>
<path style=" stroke:none;fill-rule:nonzero;fill:rgb(0%,0%,0%);fill-opacity:1;" d="M 465.496094 10.351562 C 466.375 10.351562 466.726562 10.371094 467.078125 10.507812 C 468.015625 10.839844 468.582031 11.679688 468.582031 12.714844 C 468.582031 13.964844 467.742188 14.941406 466.628906 14.941406 C 466.238281 14.941406 465.925781 14.84375 465.378906 14.472656 C 464.929688 14.21875 464.675781 14.101562 464.421875 14.101562 C 464.070312 14.101562 463.855469 14.316406 463.855469 14.628906 C 463.855469 15.15625 464.5 15.488281 465.535156 15.488281 C 466.6875 15.488281 467.878906 15.097656 468.582031 14.472656 C 469.285156 13.867188 469.65625 13.007812 469.65625 11.992188 C 469.65625 11.230469 469.421875 10.527344 468.992188 10.078125 C 468.699219 9.746094 468.40625 9.570312 467.761719 9.277344 C 468.777344 8.574219 469.148438 8.027344 469.148438 7.226562 C 469.148438 6.015625 468.210938 5.175781 466.824219 5.175781 C 466.082031 5.175781 465.417969 5.429688 464.890625 5.898438 C 464.441406 6.308594 464.207031 6.699219 463.875 7.597656 L 464.109375 7.65625 C 464.714844 6.5625 465.398438 6.074219 466.335938 6.074219 C 467.3125 6.074219 467.976562 6.71875 467.976562 7.675781 C 467.976562 8.203125 467.761719 8.75 467.371094 9.121094 C 466.921875 9.570312 466.511719 9.785156 465.496094 10.15625 Z M 465.496094 10.351562 "/>
<path style=" stroke:none;fill-rule:nonzero;fill:rgb(0%,0%,0%);fill-opacity:1;" d="M 475.003906 11.425781 L 475.003906 12.382812 L 478.675781 12.382812 L 478.675781 11.425781 Z M 475.003906 11.425781 "/>
<path style=" stroke:none;fill-rule:nonzero;fill:rgb(0%,0%,0%);fill-opacity:1;" d="M 483.75 5.175781 L 481.054688 6.523438 L 481.054688 6.738281 C 481.230469 6.660156 481.40625 6.601562 481.464844 6.582031 C 481.71875 6.464844 481.972656 6.40625 482.128906 6.40625 C 482.441406 6.40625 482.578125 6.640625 482.578125 7.109375 L 482.578125 13.886719 C 482.578125 14.375 482.460938 14.726562 482.226562 14.863281 C 481.992188 14.980469 481.777344 15.039062 481.152344 15.058594 L 481.152344 15.273438 L 485.273438 15.273438 L 485.273438 15.058594 C 484.101562 15.039062 483.867188 14.882812 483.867188 14.160156 L 483.867188 5.195312 Z M 483.75 5.175781 "/>
<path style=" stroke:none;fill-rule:nonzero;fill:rgb(0%,0%,0%);fill-opacity:1;" d="M 488.742188 13.789062 C 488.292969 13.789062 487.921875 14.160156 487.921875 14.628906 C 487.921875 15.058594 488.292969 15.429688 488.722656 15.429688 C 489.191406 15.429688 489.5625 15.058594 489.5625 14.628906 C 489.5625 14.160156 489.191406 13.789062 488.742188 13.789062 Z M 488.742188 13.789062 "/>
<path style=" stroke:none;fill-rule:nonzero;fill:rgb(0%,0%,0%);fill-opacity:1;" d="M 497.261719 5.058594 C 495.5625 5.195312 494.703125 5.488281 493.609375 6.25 C 491.988281 7.402344 491.109375 9.101562 491.109375 11.113281 C 491.109375 12.402344 491.519531 13.710938 492.164062 14.472656 C 492.730469 15.117188 493.53125 15.488281 494.449219 15.488281 C 496.304688 15.488281 497.59375 14.0625 497.59375 11.992188 C 497.59375 10.097656 496.5 8.886719 494.78125 8.886719 C 494.136719 8.886719 493.804688 8.984375 492.867188 9.550781 C 493.277344 7.285156 494.957031 5.683594 497.300781 5.292969 Z M 494.214844 9.570312 C 495.503906 9.570312 496.246094 10.644531 496.246094 12.5 C 496.246094 14.160156 495.660156 15.058594 494.625 15.058594 C 493.296875 15.058594 492.496094 13.652344 492.496094 11.347656 C 492.496094 10.585938 492.613281 10.15625 492.925781 9.941406 C 493.238281 9.707031 493.6875 9.570312 494.214844 9.570312 Z M 494.214844 9.570312 "/>
<path style=" stroke:none;fill-rule:nonzero;fill:rgb(0%,0%,0%);fill-opacity:1;" d="M 503.683594 13.789062 C 503.234375 13.789062 502.863281 14.160156 502.863281 14.628906 C 502.863281 15.058594 503.234375 15.429688 503.664062 15.429688 C 504.132812 15.429688 504.503906 15.058594 504.503906 14.628906 C 504.503906 14.160156 504.132812 13.789062 503.683594 13.789062 Z M 503.683594 13.789062 "/>
<path style=" stroke:none;fill-rule:nonzero;fill:rgb(0%,0%,0%);fill-opacity:1;" d="M 512.636719 13.222656 L 512.441406 13.144531 C 511.894531 14.003906 511.699219 14.140625 511.035156 14.140625 L 507.460938 14.140625 L 509.960938 11.503906 C 511.308594 10.117188 511.875 8.984375 511.875 7.8125 C 511.875 6.328125 510.664062 5.175781 509.121094 5.175781 C 508.300781 5.175781 507.519531 5.507812 506.972656 6.09375 C 506.484375 6.601562 506.269531 7.089844 506.015625 8.144531 L 506.328125 8.222656 C 506.914062 6.757812 507.460938 6.269531 508.496094 6.269531 C 509.746094 6.269531 510.605469 7.128906 510.605469 8.378906 C 510.605469 9.550781 509.902344 10.9375 508.652344 12.265625 L 505.996094 15.097656 L 505.996094 15.273438 L 511.816406 15.273438 Z M 512.636719 13.222656 "/>
<path style=" stroke:none;fill-rule:nonzero;fill:rgb(0%,0%,0%);fill-opacity:1;" d="M 516.808594 5.175781 C 515.988281 5.175781 515.363281 5.429688 514.816406 5.957031 C 513.9375 6.777344 513.371094 8.496094 513.371094 10.253906 C 513.371094 11.875 513.878906 13.632812 514.582031 14.472656 C 515.128906 15.117188 515.890625 15.488281 516.75 15.488281 C 517.511719 15.488281 518.15625 15.234375 518.703125 14.707031 C 519.5625 13.886719 520.128906 12.148438 520.128906 10.351562 C 520.128906 7.285156 518.78125 5.175781 516.808594 5.175781 Z M 516.769531 5.566406 C 518.019531 5.566406 518.703125 7.246094 518.703125 10.371094 C 518.703125 13.496094 518.039062 15.097656 516.75 15.097656 C 515.460938 15.097656 514.816406 13.496094 514.816406 10.390625 C 514.816406 7.226562 515.480469 5.566406 516.769531 5.566406 Z M 516.769531 5.566406 "/>
<path style=" stroke:none;fill-rule:nonzero;fill:rgb(0%,0%,0%);fill-opacity:1;" d="M 524.84375 5.175781 L 522.148438 6.523438 L 522.148438 6.738281 C 522.324219 6.660156 522.5 6.601562 522.558594 6.582031 C 522.8125 6.464844 523.066406 6.40625 523.222656 6.40625 C 523.535156 6.40625 523.671875 6.640625 523.671875 7.109375 L 523.671875 13.886719 C 523.671875 14.375 523.554688 14.726562 523.320312 14.863281 C 523.085938 14.980469 522.871094 15.039062 522.246094 15.058594 L 522.246094 15.273438 L 526.367188 15.273438 L 526.367188 15.058594 C 525.195312 15.039062 524.960938 14.882812 524.960938 14.160156 L 524.960938 5.195312 Z M 524.84375 5.175781 "/>
<path style=" stroke:none;fill-rule:nonzero;fill:rgb(0%,0%,0%);fill-opacity:1;" d="M 528.839844 15.605469 C 530.519531 15.410156 531.339844 15.117188 532.355469 14.394531 C 533.898438 13.261719 534.816406 11.40625 534.816406 9.394531 C 534.816406 6.914062 533.449219 5.175781 531.515625 5.175781 C 529.738281 5.175781 528.410156 6.679688 528.410156 8.691406 C 528.410156 10.527344 529.484375 11.738281 531.105469 11.738281 C 531.925781 11.738281 532.550781 11.484375 533.332031 10.878906 C 532.726562 13.320312 531.066406 14.921875 528.800781 15.3125 Z M 533.371094 9.960938 C 533.371094 10.273438 533.3125 10.410156 533.136719 10.527344 C 532.726562 10.898438 532.179688 11.09375 531.632812 11.09375 C 530.5 11.09375 529.777344 9.960938 529.777344 8.183594 C 529.777344 7.34375 530.03125 6.445312 530.34375 6.054688 C 530.597656 5.761719 530.96875 5.585938 531.398438 5.585938 C 532.707031 5.585938 533.371094 6.875 533.371094 9.394531 Z M 533.371094 9.960938 "/>
<path style=" stroke:none;fill-rule:nonzero;fill:rgb(0%,0%,0%);fill-opacity:1;" d="M 539.757812 11.425781 L 539.757812 12.382812 L 543.429688 12.382812 L 543.429688 11.425781 Z M 539.757812 11.425781 "/>
<path style=" stroke:none;fill-rule:nonzero;fill:rgb(0%,0%,0%);fill-opacity:1;" d="M 548.503906 5.175781 L 545.808594 6.523438 L 545.808594 6.738281 C 545.984375 6.660156 546.160156 6.601562 546.21875 6.582031 C 546.472656 6.464844 546.726562 6.40625 546.882812 6.40625 C 547.195312 6.40625 547.332031 6.640625 547.332031 7.109375 L 547.332031 13.886719 C 547.332031 14.375 547.214844 14.726562 546.980469 14.863281 C 546.746094 14.980469 546.53125 15.039062 545.90625 15.058594 L 545.90625 15.273438 L 550.027344 15.273438 L 550.027344 15.058594 C 548.855469 15.039062 548.621094 14.882812 548.621094 14.160156 L 548.621094 5.195312 Z M 548.503906 5.175781 "/>
<path style=" stroke:none;fill-rule:nonzero;fill:rgb(0%,0%,0%);fill-opacity:1;" d="M 553.492188 13.789062 C 553.042969 13.789062 552.671875 14.160156 552.671875 14.628906 C 552.671875 15.058594 553.042969 15.429688 553.472656 15.429688 C 553.941406 15.429688 554.3125 15.058594 554.3125 14.628906 C 554.3125 14.160156 553.941406 13.789062 553.492188 13.789062 Z M 553.492188 13.789062 "/>
<path style=" stroke:none;fill-rule:nonzero;fill:rgb(0%,0%,0%);fill-opacity:1;" d="M 562.40625 11.816406 L 560.882812 11.816406 L 560.882812 5.175781 L 560.21875 5.175781 L 555.53125 11.816406 L 555.53125 12.773438 L 559.730469 12.773438 L 559.730469 15.273438 L 560.882812 15.273438 L 560.882812 12.773438 L 562.40625 12.773438 Z M 559.710938 11.816406 L 556.136719 11.816406 L 559.710938 6.699219 Z M 559.710938 11.816406 "/>
<path style=" stroke:none;fill-rule:nonzero;fill:rgb(0%,0%,0%);fill-opacity:1;" d="M 568.4375 13.789062 C 567.988281 13.789062 567.617188 14.160156 567.617188 14.628906 C 567.617188 15.058594 567.988281 15.429688 568.417969 15.429688 C 568.886719 15.429688 569.257812 15.058594 569.257812 14.628906 C 569.257812 14.160156 568.886719 13.789062 568.4375 13.789062 Z M 568.4375 13.789062 "/>
<path style=" stroke:none;fill-rule:nonzero;fill:rgb(0%,0%,0%);fill-opacity:1;" d="M 577.386719 13.222656 L 577.191406 13.144531 C 576.644531 14.003906 576.449219 14.140625 575.785156 14.140625 L 572.210938 14.140625 L 574.710938 11.503906 C 576.058594 10.117188 576.625 8.984375 576.625 7.8125 C 576.625 6.328125 575.414062 5.175781 573.871094 5.175781 C 573.050781 5.175781 572.269531 5.507812 571.722656 6.09375 C 571.234375 6.601562 571.019531 7.089844 570.765625 8.144531 L 571.078125 8.222656 C 571.664062 6.757812 572.210938 6.269531 573.246094 6.269531 C 574.496094 6.269531 575.355469 7.128906 575.355469 8.378906 C 575.355469 9.550781 574.652344 10.9375 573.402344 12.265625 L 570.746094 15.097656 L 570.746094 15.273438 L 576.566406 15.273438 Z M 577.386719 13.222656 "/>
<path style=" stroke:none;fill-rule:nonzero;fill:rgb(0%,0%,0%);fill-opacity:1;" d="M 584.820312 11.816406 L 583.296875 11.816406 L 583.296875 5.175781 L 582.632812 5.175781 L 577.945312 11.816406 L 577.945312 12.773438 L 582.144531 12.773438 L 582.144531 15.273438 L 583.296875 15.273438 L 583.296875 12.773438 L 584.820312 12.773438 Z M 582.125 11.816406 L 578.550781 11.816406 L 582.125 6.699219 Z M 582.125 11.816406 "/>
<path style=" stroke:none;fill-rule:nonzero;fill:rgb(0%,0%,0%);fill-opacity:1;" d="M 591.902344 5.058594 C 590.203125 5.195312 589.34375 5.488281 588.25 6.25 C 586.628906 7.402344 585.75 9.101562 585.75 11.113281 C 585.75 12.402344 586.160156 13.710938 586.804688 14.472656 C 587.371094 15.117188 588.171875 15.488281 589.089844 15.488281 C 590.945312 15.488281 592.234375 14.0625 592.234375 11.992188 C 592.234375 10.097656 591.140625 8.886719 589.421875 8.886719 C 588.777344 8.886719 588.445312 8.984375 587.507812 9.550781 C 587.917969 7.285156 589.597656 5.683594 591.941406 5.292969 Z M 588.855469 9.570312 C 590.144531 9.570312 590.886719 10.644531 590.886719 12.5 C 590.886719 14.160156 590.300781 15.058594 589.265625 15.058594 C 587.9375 15.058594 587.136719 13.652344 587.136719 11.347656 C 587.136719 10.585938 587.253906 10.15625 587.566406 9.941406 C 587.878906 9.707031 588.328125 9.570312 588.855469 9.570312 Z M 588.855469 9.570312 "/>
<path style=" stroke:none;fill-rule:nonzero;fill:rgb(0%,0%,0%);fill-opacity:1;" d="M 599.375 5.058594 C 597.675781 5.195312 596.816406 5.488281 595.722656 6.25 C 594.101562 7.402344 593.222656 9.101562 593.222656 11.113281 C 593.222656 12.402344 593.632812 13.710938 594.277344 14.472656 C 594.84375 15.117188 595.644531 15.488281 596.5625 15.488281 C 598.417969 15.488281 599.707031 14.0625 599.707031 11.992188 C 599.707031 10.097656 598.613281 8.886719 596.894531 8.886719 C 596.25 8.886719 595.917969 8.984375 594.980469 9.550781 C 595.390625 7.285156 597.070312 5.683594 599.414062 5.292969 Z M 596.328125 9.570312 C 597.617188 9.570312 598.359375 10.644531 598.359375 12.5 C 598.359375 14.160156 597.773438 15.058594 596.738281 15.058594 C 595.410156 15.058594 594.609375 13.652344 594.609375 11.347656 C 594.609375 10.585938 594.726562 10.15625 595.039062 9.941406 C 595.351562 9.707031 595.800781 9.570312 596.328125 9.570312 Z M 596.328125 9.570312 "/>
<path style=" stroke:none;fill-rule:nonzero;fill:rgb(0%,0%,0%);fill-opacity:1;" d="M 604.507812 11.425781 L 604.507812 12.382812 L 608.179688 12.382812 L 608.179688 11.425781 Z M 604.507812 11.425781 "/>
<path style=" stroke:none;fill-rule:nonzero;fill:rgb(0%,0%,0%);fill-opacity:1;" d="M 613.253906 5.175781 L 610.558594 6.523438 L 610.558594 6.738281 C 610.734375 6.660156 610.910156 6.601562 610.96875 6.582031 C 611.222656 6.464844 611.476562 6.40625 611.632812 6.40625 C 611.945312 6.40625 612.082031 6.640625 612.082031 7.109375 L 612.082031 13.886719 C 612.082031 14.375 611.964844 14.726562 611.730469 14.863281 C 611.496094 14.980469 611.28125 15.039062 610.65625 15.058594 L 610.65625 15.273438 L 614.777344 15.273438 L 614.777344 15.058594 C 613.605469 15.039062 613.371094 14.882812 613.371094 14.160156 L 613.371094 5.195312 Z M 613.253906 5.175781 "/>
<path style=" stroke:none;fill-rule:nonzero;fill:rgb(0%,0%,0%);fill-opacity:1;" d="M 618.246094 13.789062 C 617.796875 13.789062 617.425781 14.160156 617.425781 14.628906 C 617.425781 15.058594 617.796875 15.429688 618.226562 15.429688 C 618.695312 15.429688 619.066406 15.058594 619.066406 14.628906 C 619.066406 14.160156 618.695312 13.789062 618.246094 13.789062 Z M 618.246094 13.789062 "/>
<path style=" stroke:none;fill-rule:nonzero;fill:rgb(0%,0%,0%);fill-opacity:1;" d="M 627.195312 13.222656 L 627 13.144531 C 626.453125 14.003906 626.257812 14.140625 625.59375 14.140625 L 622.019531 14.140625 L 624.519531 11.503906 C 625.867188 10.117188 626.433594 8.984375 626.433594 7.8125 C 626.433594 6.328125 625.222656 5.175781 623.679688 5.175781 C 622.859375 5.175781 622.078125 5.507812 621.53125 6.09375 C 621.042969 6.601562 620.828125 7.089844 620.574219 8.144531 L 620.886719 8.222656 C 621.472656 6.757812 622.019531 6.269531 623.054688 6.269531 C 624.304688 6.269531 625.164062 7.128906 625.164062 8.378906 C 625.164062 9.550781 624.460938 10.9375 623.210938 12.265625 L 620.554688 15.097656 L 620.554688 15.273438 L 626.375 15.273438 Z M 627.195312 13.222656 "/>
<path style=" stroke:none;fill-rule:nonzero;fill:rgb(0%,0%,0%);fill-opacity:1;" d="M 633.191406 13.789062 C 632.742188 13.789062 632.371094 14.160156 632.371094 14.628906 C 632.371094 15.058594 632.742188 15.429688 633.171875 15.429688 C 633.640625 15.429688 634.011719 15.058594 634.011719 14.628906 C 634.011719 14.160156 633.640625 13.789062 633.191406 13.789062 Z M 633.191406 13.789062 "/>
<path style=" stroke:none;fill-rule:nonzero;fill:rgb(0%,0%,0%);fill-opacity:1;" d="M 637.335938 10.351562 C 638.214844 10.351562 638.566406 10.371094 638.917969 10.507812 C 639.855469 10.839844 640.421875 11.679688 640.421875 12.714844 C 640.421875 13.964844 639.582031 14.941406 638.46875 14.941406 C 638.078125 14.941406 637.765625 14.84375 637.21875 14.472656 C 636.769531 14.21875 636.515625 14.101562 636.261719 14.101562 C 635.910156 14.101562 635.695312 14.316406 635.695312 14.628906 C 635.695312 15.15625 636.339844 15.488281 637.375 15.488281 C 638.527344 15.488281 639.71875 15.097656 640.421875 14.472656 C 641.125 13.867188 641.496094 13.007812 641.496094 11.992188 C 641.496094 11.230469 641.261719 10.527344 640.832031 10.078125 C 640.539062 9.746094 640.246094 9.570312 639.601562 9.277344 C 640.617188 8.574219 640.988281 8.027344 640.988281 7.226562 C 640.988281 6.015625 640.050781 5.175781 638.664062 5.175781 C 637.921875 5.175781 637.257812 5.429688 636.730469 5.898438 C 636.28125 6.308594 636.046875 6.699219 635.714844 7.597656 L 635.949219 7.65625 C 636.554688 6.5625 637.238281 6.074219 638.175781 6.074219 C 639.152344 6.074219 639.816406 6.71875 639.816406 7.675781 C 639.816406 8.203125 639.601562 8.75 639.210938 9.121094 C 638.761719 9.570312 638.351562 9.785156 637.335938 10.15625 Z M 637.335938 10.351562 "/>
<path style=" stroke:none;fill-rule:nonzero;fill:rgb(0%,0%,0%);fill-opacity:1;" d="M 646.3125 5.175781 C 645.492188 5.175781 644.867188 5.429688 644.320312 5.957031 C 643.441406 6.777344 642.875 8.496094 642.875 10.253906 C 642.875 11.875 643.382812 13.632812 644.085938 14.472656 C 644.632812 15.117188 645.394531 15.488281 646.253906 15.488281 C 647.015625 15.488281 647.660156 15.234375 648.207031 14.707031 C 649.066406 13.886719 649.632812 12.148438 649.632812 10.351562 C 649.632812 7.285156 648.285156 5.175781 646.3125 5.175781 Z M 646.273438 5.566406 C 647.523438 5.566406 648.207031 7.246094 648.207031 10.371094 C 648.207031 13.496094 647.542969 15.097656 646.253906 15.097656 C 644.964844 15.097656 644.320312 13.496094 644.320312 10.390625 C 644.320312 7.226562 644.984375 5.566406 646.273438 5.566406 Z M 646.273438 5.566406 "/>
<path style=" stroke:none;fill-rule:nonzero;fill:rgb(0%,0%,0%);fill-opacity:1;" d="M 654.351562 5.175781 L 651.65625 6.523438 L 651.65625 6.738281 C 651.832031 6.660156 652.007812 6.601562 652.066406 6.582031 C 652.320312 6.464844 652.574219 6.40625 652.730469 6.40625 C 653.042969 6.40625 653.179688 6.640625 653.179688 7.109375 L 653.179688 13.886719 C 653.179688 14.375 653.0625 14.726562 652.828125 14.863281 C 652.59375 14.980469 652.378906 15.039062 651.753906 15.058594 L 651.753906 15.273438 L 655.875 15.273438 L 655.875 15.058594 C 654.703125 15.039062 654.46875 14.882812 654.46875 14.160156 L 654.46875 5.195312 Z M 654.351562 5.175781 "/>
<path style=" stroke:none;fill-rule:nonzero;fill:rgb(0%,0%,0%);fill-opacity:1;" d="M 664.558594 13.222656 L 664.363281 13.144531 C 663.816406 14.003906 663.621094 14.140625 662.957031 14.140625 L 659.382812 14.140625 L 661.882812 11.503906 C 663.230469 10.117188 663.796875 8.984375 663.796875 7.8125 C 663.796875 6.328125 662.585938 5.175781 661.042969 5.175781 C 660.222656 5.175781 659.441406 5.507812 658.894531 6.09375 C 658.40625 6.601562 658.191406 7.089844 657.9375 8.144531 L 658.25 8.222656 C 658.835938 6.757812 659.382812 6.269531 660.417969 6.269531 C 661.667969 6.269531 662.527344 7.128906 662.527344 8.378906 C 662.527344 9.550781 661.824219 10.9375 660.574219 12.265625 L 657.917969 15.097656 L 657.917969 15.273438 L 663.738281 15.273438 Z M 664.558594 13.222656 "/>
</g>
</svg>
