<?xml version="1.0" encoding="UTF-8"?>
<svg xmlns="http://www.w3.org/2000/svg" xmlns:xlink="http://www.w3.org/1999/xlink" width="688.98303pt" height="20.605469pt" viewBox="0 0 688.98303 20.605469" version="1.1">
<g id="surface785">
<path style=" stroke:none;fill-rule:nonzero;fill:rgb(0%,0%,0%);fill-opacity:1;" d="M 5 11.425781 L 5 12.382812 L 8.671875 12.382812 L 8.671875 11.425781 Z M 5 11.425781 "/>
<path style=" stroke:none;fill-rule:nonzero;fill:rgb(0%,0%,0%);fill-opacity:1;" d="M 11.675781 10.351562 C 12.554688 10.351562 12.90625 10.371094 13.257812 10.507812 C 14.195312 10.839844 14.761719 11.679688 14.761719 12.714844 C 14.761719 13.964844 13.921875 14.941406 12.808594 14.941406 C 12.417969 14.941406 12.105469 14.84375 11.558594 14.472656 C 11.109375 14.21875 10.855469 14.101562 10.601562 14.101562 C 10.25 14.101562 10.035156 14.316406 10.035156 14.628906 C 10.035156 15.15625 10.679688 15.488281 11.714844 15.488281 C 12.867188 15.488281 14.058594 15.097656 14.761719 14.472656 C 15.464844 13.867188 15.835938 13.007812 15.835938 11.992188 C 15.835938 11.230469 15.601562 10.527344 15.171875 10.078125 C 14.878906 9.746094 14.585938 9.570312 13.941406 9.277344 C 14.957031 8.574219 15.328125 8.027344 15.328125 7.226562 C 15.328125 6.015625 14.390625 5.175781 13.003906 5.175781 C 12.261719 5.175781 11.597656 5.429688 11.070312 5.898438 C 10.621094 6.308594 10.386719 6.699219 10.054688 7.597656 L 10.289062 7.65625 C 10.894531 6.5625 11.578125 6.074219 12.515625 6.074219 C 13.492188 6.074219 14.15625 6.71875 14.15625 7.675781 C 14.15625 8.203125 13.941406 8.75 13.550781 9.121094 C 13.101562 9.570312 12.691406 9.785156 11.675781 10.15625 Z M 11.675781 10.351562 "/>
<path style=" stroke:none;fill-rule:nonzero;fill:rgb(0%,0%,0%);fill-opacity:1;" d="M 18.738281 13.789062 C 18.289062 13.789062 17.917969 14.160156 17.917969 14.628906 C 17.917969 15.058594 18.289062 15.429688 18.71875 15.429688 C 19.1875 15.429688 19.558594 15.058594 19.558594 14.628906 C 19.558594 14.160156 19.1875 13.789062 18.738281 13.789062 Z M 18.738281 13.789062 "/>
<path style=" stroke:none;fill-rule:nonzero;fill:rgb(0%,0%,0%);fill-opacity:1;" d="M 25.816406 11.425781 L 25.816406 12.382812 L 29.488281 12.382812 L 29.488281 11.425781 Z M 25.816406 11.425781 "/>
<path style=" stroke:none;fill-rule:nonzero;fill:rgb(0%,0%,0%);fill-opacity:1;" d="M 32.082031 13.789062 C 31.632812 13.789062 31.261719 14.160156 31.261719 14.628906 C 31.261719 15.058594 31.632812 15.429688 32.0625 15.429688 C 32.53125 15.429688 32.902344 15.058594 32.902344 14.628906 C 32.902344 14.160156 32.53125 13.789062 32.082031 13.789062 Z M 32.082031 13.789062 "/>
<path style=" stroke:none;fill-rule:nonzero;fill:rgb(0%,0%,0%);fill-opacity:1;" d="M 36.230469 10.351562 C 37.109375 10.351562 37.460938 10.371094 37.8125 10.507812 C 38.75 10.839844 39.316406 11.679688 39.316406 12.714844 C 39.316406 13.964844 38.476562 14.941406 37.363281 14.941406 C 36.972656 14.941406 36.660156 14.84375 36.113281 14.472656 C 35.664062 14.21875 35.410156 14.101562 35.15625 14.101562 C 34.804688 14.101562 34.589844 14.316406 34.589844 14.628906 C 34.589844 15.15625 35.234375 15.488281 36.269531 15.488281 C 37.421875 15.488281 38.613281 15.097656 39.316406 14.472656 C 40.019531 13.867188 40.390625 13.007812 40.390625 11.992188 C 40.390625 11.230469 40.15625 10.527344 39.726562 10.078125 C 39.433594 9.746094 39.140625 9.570312 38.496094 9.277344 C 39.511719 8.574219 39.882812 8.027344 39.882812 7.226562 C 39.882812 6.015625 38.945312 5.175781 37.558594 5.175781 C 36.816406 5.175781 36.152344 5.429688 35.625 5.898438 C 35.175781 6.308594 34.941406 6.699219 34.609375 7.597656 L 34.84375 7.65625 C 35.449219 6.5625 36.132812 6.074219 37.070312 6.074219 C 38.046875 6.074219 38.710938 6.71875 38.710938 7.675781 C 38.710938 8.203125 38.496094 8.75 38.105469 9.121094 C 37.65625 9.570312 37.246094 9.785156 36.230469 10.15625 Z M 36.230469 10.351562 "/>
<path style=" stroke:none;fill-rule:nonzero;fill:rgb(0%,0%,0%);fill-opacity:1;" d="M 45.203125 5.175781 C 44.382812 5.175781 43.757812 5.429688 43.210938 5.957031 C 42.332031 6.777344 41.765625 8.496094 41.765625 10.253906 C 41.765625 11.875 42.273438 13.632812 42.976562 14.472656 C 43.523438 15.117188 44.285156 15.488281 45.144531 15.488281 C 45.90625 15.488281 46.550781 15.234375 47.097656 14.707031 C 47.957031 13.886719 48.523438 12.148438 48.523438 10.351562 C 48.523438 7.285156 47.175781 5.175781 45.203125 5.175781 Z M 45.164062 5.566406 C 46.414062 5.566406 47.097656 7.246094 47.097656 10.371094 C 47.097656 13.496094 46.433594 15.097656 45.144531 15.097656 C 43.855469 15.097656 43.210938 13.496094 43.210938 10.390625 C 43.210938 7.226562 43.875 5.566406 45.164062 5.566406 Z M 45.164062 5.566406 "/>
<path style=" stroke:none;fill-rule:nonzero;fill:rgb(0%,0%,0%);fill-opacity:1;" d="M 52.675781 5.175781 C 51.855469 5.175781 51.230469 5.429688 50.683594 5.957031 C 49.804688 6.777344 49.238281 8.496094 49.238281 10.253906 C 49.238281 11.875 49.746094 13.632812 50.449219 14.472656 C 50.996094 15.117188 51.757812 15.488281 52.617188 15.488281 C 53.378906 15.488281 54.023438 15.234375 54.570312 14.707031 C 55.429688 13.886719 55.996094 12.148438 55.996094 10.351562 C 55.996094 7.285156 54.648438 5.175781 52.675781 5.175781 Z M 52.636719 5.566406 C 53.886719 5.566406 54.570312 7.246094 54.570312 10.371094 C 54.570312 13.496094 53.90625 15.097656 52.617188 15.097656 C 51.328125 15.097656 50.683594 13.496094 50.683594 10.390625 C 50.683594 7.226562 51.347656 5.566406 52.636719 5.566406 Z M 52.636719 5.566406 "/>
<path style=" stroke:none;fill-rule:nonzero;fill:rgb(0%,0%,0%);fill-opacity:1;" d="M 60.148438 5.175781 C 59.328125 5.175781 58.703125 5.429688 58.15625 5.957031 C 57.277344 6.777344 56.710938 8.496094 56.710938 10.253906 C 56.710938 11.875 57.21875 13.632812 57.921875 14.472656 C 58.46875 15.117188 59.230469 15.488281 60.089844 15.488281 C 60.851562 15.488281 61.496094 15.234375 62.042969 14.707031 C 62.902344 13.886719 63.46875 12.148438 63.46875 10.351562 C 63.46875 7.285156 62.121094 5.175781 60.148438 5.175781 Z M 60.109375 5.566406 C 61.359375 5.566406 62.042969 7.246094 62.042969 10.371094 C 62.042969 13.496094 61.378906 15.097656 60.089844 15.097656 C 58.800781 15.097656 58.15625 13.496094 58.15625 10.390625 C 58.15625 7.226562 58.820312 5.566406 60.109375 5.566406 Z M 60.109375 5.566406 "/>
<path style=" stroke:none;fill-rule:nonzero;fill:rgb(0%,0%,0%);fill-opacity:1;" d="M 68.152344 11.425781 L 68.152344 12.382812 L 71.824219 12.382812 L 71.824219 11.425781 Z M 68.152344 11.425781 "/>
<path style=" stroke:none;fill-rule:nonzero;fill:rgb(0%,0%,0%);fill-opacity:1;" d="M 79.632812 13.222656 L 79.4375 13.144531 C 78.890625 14.003906 78.695312 14.140625 78.03125 14.140625 L 74.457031 14.140625 L 76.957031 11.503906 C 78.304688 10.117188 78.871094 8.984375 78.871094 7.8125 C 78.871094 6.328125 77.660156 5.175781 76.117188 5.175781 C 75.296875 5.175781 74.515625 5.507812 73.96875 6.09375 C 73.480469 6.601562 73.265625 7.089844 73.011719 8.144531 L 73.324219 8.222656 C 73.910156 6.757812 74.457031 6.269531 75.492188 6.269531 C 76.742188 6.269531 77.601562 7.128906 77.601562 8.378906 C 77.601562 9.550781 76.898438 10.9375 75.648438 12.265625 L 72.992188 15.097656 L 72.992188 15.273438 L 78.8125 15.273438 Z M 79.632812 13.222656 "/>
<path style=" stroke:none;fill-rule:nonzero;fill:rgb(0%,0%,0%);fill-opacity:1;" d="M 81.890625 13.789062 C 81.441406 13.789062 81.070312 14.160156 81.070312 14.628906 C 81.070312 15.058594 81.441406 15.429688 81.871094 15.429688 C 82.339844 15.429688 82.710938 15.058594 82.710938 14.628906 C 82.710938 14.160156 82.339844 13.789062 81.890625 13.789062 Z M 81.890625 13.789062 "/>
<path style=" stroke:none;fill-rule:nonzero;fill:rgb(0%,0%,0%);fill-opacity:1;" d="M 88.085938 9.726562 C 89.570312 8.945312 90.078125 8.320312 90.078125 7.285156 C 90.078125 6.074219 89.003906 5.175781 87.519531 5.175781 C 85.878906 5.175781 84.667969 6.171875 84.667969 7.539062 C 84.667969 8.496094 84.960938 8.945312 86.523438 10.3125 C 84.921875 11.542969 84.589844 11.992188 84.589844 13.007812 C 84.589844 14.472656 85.761719 15.488281 87.460938 15.488281 C 89.257812 15.488281 90.390625 14.492188 90.390625 12.949219 C 90.390625 11.816406 89.882812 11.074219 88.085938 9.726562 Z M 87.8125 11.269531 C 88.90625 12.050781 89.257812 12.578125 89.257812 13.417969 C 89.257812 14.394531 88.59375 15.058594 87.617188 15.058594 C 86.484375 15.058594 85.722656 14.199219 85.722656 12.890625 C 85.722656 11.933594 86.054688 11.308594 86.914062 10.605469 Z M 87.65625 9.453125 C 86.328125 8.59375 85.78125 7.910156 85.78125 7.070312 C 85.78125 6.210938 86.445312 5.585938 87.402344 5.585938 C 88.417969 5.585938 89.0625 6.25 89.0625 7.285156 C 89.0625 8.125 88.632812 8.808594 87.792969 9.375 C 87.714844 9.414062 87.714844 9.414062 87.65625 9.453125 Z M 87.65625 9.453125 "/>
<path style=" stroke:none;fill-rule:nonzero;fill:rgb(0%,0%,0%);fill-opacity:1;" d="M 95.546875 11.425781 L 95.546875 12.382812 L 99.21875 12.382812 L 99.21875 11.425781 Z M 95.546875 11.425781 "/>
<path style=" stroke:none;fill-rule:nonzero;fill:rgb(0%,0%,0%);fill-opacity:1;" d="M 101.8125 13.789062 C 101.363281 13.789062 100.992188 14.160156 100.992188 14.628906 C 100.992188 15.058594 101.363281 15.429688 101.792969 15.429688 C 102.261719 15.429688 102.632812 15.058594 102.632812 14.628906 C 102.632812 14.160156 102.261719 13.789062 101.8125 13.789062 Z M 101.8125 13.789062 "/>
<path style=" stroke:none;fill-rule:nonzero;fill:rgb(0%,0%,0%);fill-opacity:1;" d="M 105.957031 10.351562 C 106.835938 10.351562 107.1875 10.371094 107.539062 10.507812 C 108.476562 10.839844 109.042969 11.679688 109.042969 12.714844 C 109.042969 13.964844 108.203125 14.941406 107.089844 14.941406 C 106.699219 14.941406 106.386719 14.84375 105.839844 14.472656 C 105.390625 14.21875 105.136719 14.101562 104.882812 14.101562 C 104.53125 14.101562 104.316406 14.316406 104.316406 14.628906 C 104.316406 15.15625 104.960938 15.488281 105.996094 15.488281 C 107.148438 15.488281 108.339844 15.097656 109.042969 14.472656 C 109.746094 13.867188 110.117188 13.007812 110.117188 11.992188 C 110.117188 11.230469 109.882812 10.527344 109.453125 10.078125 C 109.160156 9.746094 108.867188 9.570312 108.222656 9.277344 C 109.238281 8.574219 109.609375 8.027344 109.609375 7.226562 C 109.609375 6.015625 108.671875 5.175781 107.285156 5.175781 C 106.542969 5.175781 105.878906 5.429688 105.351562 5.898438 C 104.902344 6.308594 104.667969 6.699219 104.335938 7.597656 L 104.570312 7.65625 C 105.175781 6.5625 105.859375 6.074219 106.796875 6.074219 C 107.773438 6.074219 108.4375 6.71875 108.4375 7.675781 C 108.4375 8.203125 108.222656 8.75 107.832031 9.121094 C 107.382812 9.570312 106.972656 9.785156 105.957031 10.15625 Z M 105.957031 10.351562 "/>
<path style=" stroke:none;fill-rule:nonzero;fill:rgb(0%,0%,0%);fill-opacity:1;" d="M 115.5 5.175781 L 112.804688 6.523438 L 112.804688 6.738281 C 112.980469 6.660156 113.15625 6.601562 113.214844 6.582031 C 113.46875 6.464844 113.722656 6.40625 113.878906 6.40625 C 114.191406 6.40625 114.328125 6.640625 114.328125 7.109375 L 114.328125 13.886719 C 114.328125 14.375 114.210938 14.726562 113.976562 14.863281 C 113.742188 14.980469 113.527344 15.039062 112.902344 15.058594 L 112.902344 15.273438 L 117.023438 15.273438 L 117.023438 15.058594 C 115.851562 15.039062 115.617188 14.882812 115.617188 14.160156 L 115.617188 5.195312 Z M 115.5 5.175781 "/>
<path style=" stroke:none;fill-rule:nonzero;fill:rgb(0%,0%,0%);fill-opacity:1;" d="M 125.277344 5.058594 C 123.578125 5.195312 122.71875 5.488281 121.625 6.25 C 120.003906 7.402344 119.125 9.101562 119.125 11.113281 C 119.125 12.402344 119.535156 13.710938 120.179688 14.472656 C 120.746094 15.117188 121.546875 15.488281 122.464844 15.488281 C 124.320312 15.488281 125.609375 14.0625 125.609375 11.992188 C 125.609375 10.097656 124.515625 8.886719 122.796875 8.886719 C 122.152344 8.886719 121.820312 8.984375 120.882812 9.550781 C 121.292969 7.285156 122.972656 5.683594 125.316406 5.292969 Z M 122.230469 9.570312 C 123.519531 9.570312 124.261719 10.644531 124.261719 12.5 C 124.261719 14.160156 123.675781 15.058594 122.640625 15.058594 C 121.3125 15.058594 120.511719 13.652344 120.511719 11.347656 C 120.511719 10.585938 120.628906 10.15625 120.941406 9.941406 C 121.253906 9.707031 121.703125 9.570312 122.230469 9.570312 Z M 122.230469 9.570312 "/>
<path style=" stroke:none;fill-rule:nonzero;fill:rgb(0%,0%,0%);fill-opacity:1;" d="M 132.789062 5.390625 L 127.261719 5.390625 L 126.382812 7.578125 L 126.636719 7.695312 C 127.28125 6.679688 127.554688 6.484375 128.375 6.484375 L 131.617188 6.484375 L 128.667969 15.390625 L 129.625 15.390625 L 132.789062 5.625 Z M 132.789062 5.390625 "/>
<path style=" stroke:none;fill-rule:nonzero;fill:rgb(0%,0%,0%);fill-opacity:1;" d="M 137.882812 11.425781 L 137.882812 12.382812 L 141.554688 12.382812 L 141.554688 11.425781 Z M 137.882812 11.425781 "/>
<path style=" stroke:none;fill-rule:nonzero;fill:rgb(0%,0%,0%);fill-opacity:1;" d="M 149.363281 13.222656 L 149.167969 13.144531 C 148.621094 14.003906 148.425781 14.140625 147.761719 14.140625 L 144.1875 14.140625 L 146.6875 11.503906 C 148.035156 10.117188 148.601562 8.984375 148.601562 7.8125 C 148.601562 6.328125 147.390625 5.175781 145.847656 5.175781 C 145.027344 5.175781 144.246094 5.507812 143.699219 6.09375 C 143.210938 6.601562 142.996094 7.089844 142.742188 8.144531 L 143.054688 8.222656 C 143.640625 6.757812 144.1875 6.269531 145.222656 6.269531 C 146.472656 6.269531 147.332031 7.128906 147.332031 8.378906 C 147.332031 9.550781 146.628906 10.9375 145.378906 12.265625 L 142.722656 15.097656 L 142.722656 15.273438 L 148.542969 15.273438 Z M 149.363281 13.222656 "/>
<path style=" stroke:none;fill-rule:nonzero;fill:rgb(0%,0%,0%);fill-opacity:1;" d="M 151.621094 13.789062 C 151.171875 13.789062 150.800781 14.160156 150.800781 14.628906 C 150.800781 15.058594 151.171875 15.429688 151.601562 15.429688 C 152.070312 15.429688 152.441406 15.058594 152.441406 14.628906 C 152.441406 14.160156 152.070312 13.789062 151.621094 13.789062 Z M 151.621094 13.789062 "/>
<path style=" stroke:none;fill-rule:nonzero;fill:rgb(0%,0%,0%);fill-opacity:1;" d="M 160.140625 5.058594 C 158.441406 5.195312 157.582031 5.488281 156.488281 6.25 C 154.867188 7.402344 153.988281 9.101562 153.988281 11.113281 C 153.988281 12.402344 154.398438 13.710938 155.042969 14.472656 C 155.609375 15.117188 156.410156 15.488281 157.328125 15.488281 C 159.183594 15.488281 160.472656 14.0625 160.472656 11.992188 C 160.472656 10.097656 159.378906 8.886719 157.660156 8.886719 C 157.015625 8.886719 156.683594 8.984375 155.746094 9.550781 C 156.15625 7.285156 157.835938 5.683594 160.179688 5.292969 Z M 157.09375 9.570312 C 158.382812 9.570312 159.125 10.644531 159.125 12.5 C 159.125 14.160156 158.539062 15.058594 157.503906 15.058594 C 156.175781 15.058594 155.375 13.652344 155.375 11.347656 C 155.375 10.585938 155.492188 10.15625 155.804688 9.941406 C 156.117188 9.707031 156.566406 9.570312 157.09375 9.570312 Z M 157.09375 9.570312 "/>
<path style=" stroke:none;fill-rule:nonzero;fill:rgb(0%,0%,0%);fill-opacity:1;" d="M 165.273438 11.425781 L 165.273438 12.382812 L 168.945312 12.382812 L 168.945312 11.425781 Z M 165.273438 11.425781 "/>
<path style=" stroke:none;fill-rule:nonzero;fill:rgb(0%,0%,0%);fill-opacity:1;" d="M 171.539062 13.789062 C 171.089844 13.789062 170.71875 14.160156 170.71875 14.628906 C 170.71875 15.058594 171.089844 15.429688 171.519531 15.429688 C 171.988281 15.429688 172.359375 15.058594 172.359375 14.628906 C 172.359375 14.160156 171.988281 13.789062 171.539062 13.789062 Z M 171.539062 13.789062 "/>
<path style=" stroke:none;fill-rule:nonzero;fill:rgb(0%,0%,0%);fill-opacity:1;" d="M 175.6875 10.351562 C 176.566406 10.351562 176.917969 10.371094 177.269531 10.507812 C 178.207031 10.839844 178.773438 11.679688 178.773438 12.714844 C 178.773438 13.964844 177.933594 14.941406 176.820312 14.941406 C 176.429688 14.941406 176.117188 14.84375 175.570312 14.472656 C 175.121094 14.21875 174.867188 14.101562 174.613281 14.101562 C 174.261719 14.101562 174.046875 14.316406 174.046875 14.628906 C 174.046875 15.15625 174.691406 15.488281 175.726562 15.488281 C 176.878906 15.488281 178.070312 15.097656 178.773438 14.472656 C 179.476562 13.867188 179.847656 13.007812 179.847656 11.992188 C 179.847656 11.230469 179.613281 10.527344 179.183594 10.078125 C 178.890625 9.746094 178.597656 9.570312 177.953125 9.277344 C 178.96875 8.574219 179.339844 8.027344 179.339844 7.226562 C 179.339844 6.015625 178.402344 5.175781 177.015625 5.175781 C 176.273438 5.175781 175.609375 5.429688 175.082031 5.898438 C 174.632812 6.308594 174.398438 6.699219 174.066406 7.597656 L 174.300781 7.65625 C 174.90625 6.5625 175.589844 6.074219 176.527344 6.074219 C 177.503906 6.074219 178.167969 6.71875 178.167969 7.675781 C 178.167969 8.203125 177.953125 8.75 177.5625 9.121094 C 177.113281 9.570312 176.703125 9.785156 175.6875 10.15625 Z M 175.6875 10.351562 "/>
<path style=" stroke:none;fill-rule:nonzero;fill:rgb(0%,0%,0%);fill-opacity:1;" d="M 183.15625 10.351562 C 184.035156 10.351562 184.386719 10.371094 184.738281 10.507812 C 185.675781 10.839844 186.242188 11.679688 186.242188 12.714844 C 186.242188 13.964844 185.402344 14.941406 184.289062 14.941406 C 183.898438 14.941406 183.585938 14.84375 183.039062 14.472656 C 182.589844 14.21875 182.335938 14.101562 182.082031 14.101562 C 181.730469 14.101562 181.515625 14.316406 181.515625 14.628906 C 181.515625 15.15625 182.160156 15.488281 183.195312 15.488281 C 184.347656 15.488281 185.539062 15.097656 186.242188 14.472656 C 186.945312 13.867188 187.316406 13.007812 187.316406 11.992188 C 187.316406 11.230469 187.082031 10.527344 186.652344 10.078125 C 186.359375 9.746094 186.066406 9.570312 185.421875 9.277344 C 186.4375 8.574219 186.808594 8.027344 186.808594 7.226562 C 186.808594 6.015625 185.871094 5.175781 184.484375 5.175781 C 183.742188 5.175781 183.078125 5.429688 182.550781 5.898438 C 182.101562 6.308594 181.867188 6.699219 181.535156 7.597656 L 181.769531 7.65625 C 182.375 6.5625 183.058594 6.074219 183.996094 6.074219 C 184.972656 6.074219 185.636719 6.71875 185.636719 7.675781 C 185.636719 8.203125 185.421875 8.75 185.03125 9.121094 C 184.582031 9.570312 184.171875 9.785156 183.15625 10.15625 Z M 183.15625 10.351562 "/>
<path style=" stroke:none;fill-rule:nonzero;fill:rgb(0%,0%,0%);fill-opacity:1;" d="M 191.039062 6.5625 L 193.96875 6.5625 C 194.222656 6.5625 194.28125 6.523438 194.320312 6.425781 L 194.886719 5.097656 L 194.75 5 C 194.535156 5.3125 194.378906 5.390625 194.066406 5.390625 L 190.941406 5.390625 L 189.320312 8.925781 C 189.300781 8.945312 189.300781 8.964844 189.300781 9.003906 C 189.300781 9.082031 189.359375 9.121094 189.476562 9.121094 C 189.964844 9.121094 190.550781 9.21875 191.175781 9.414062 C 192.894531 9.960938 193.675781 10.898438 193.675781 12.382812 C 193.675781 13.808594 192.757812 14.921875 191.605469 14.921875 C 191.292969 14.921875 191.039062 14.824219 190.609375 14.492188 C 190.121094 14.160156 189.769531 14.003906 189.457031 14.003906 C 189.027344 14.003906 188.8125 14.179688 188.8125 14.550781 C 188.8125 15.117188 189.515625 15.488281 190.648438 15.488281 C 191.898438 15.488281 192.972656 15.078125 193.714844 14.316406 C 194.417969 13.652344 194.730469 12.792969 194.730469 11.660156 C 194.730469 10.585938 194.4375 9.902344 193.695312 9.140625 C 193.03125 8.496094 192.191406 8.144531 190.414062 7.832031 Z M 191.039062 6.5625 "/>
<path style=" stroke:none;fill-rule:nonzero;fill:rgb(0%,0%,0%);fill-opacity:1;" d="M 200.171875 5.175781 L 197.476562 6.523438 L 197.476562 6.738281 C 197.652344 6.660156 197.828125 6.601562 197.886719 6.582031 C 198.140625 6.464844 198.394531 6.40625 198.550781 6.40625 C 198.863281 6.40625 199 6.640625 199 7.109375 L 199 13.886719 C 199 14.375 198.882812 14.726562 198.648438 14.863281 C 198.414062 14.980469 198.199219 15.039062 197.574219 15.058594 L 197.574219 15.273438 L 201.695312 15.273438 L 201.695312 15.058594 C 200.523438 15.039062 200.289062 14.882812 200.289062 14.160156 L 200.289062 5.195312 Z M 200.171875 5.175781 "/>
<path style=" stroke:none;fill-rule:nonzero;fill:rgb(0%,0%,0%);fill-opacity:1;" d="M 207.609375 11.425781 L 207.609375 12.382812 L 211.28125 12.382812 L 211.28125 11.425781 Z M 207.609375 11.425781 "/>
<path style=" stroke:none;fill-rule:nonzero;fill:rgb(0%,0%,0%);fill-opacity:1;" d="M 219.089844 13.222656 L 218.894531 13.144531 C 218.347656 14.003906 218.152344 14.140625 217.488281 14.140625 L 213.914062 14.140625 L 216.414062 11.503906 C 217.761719 10.117188 218.328125 8.984375 218.328125 7.8125 C 218.328125 6.328125 217.117188 5.175781 215.574219 5.175781 C 214.753906 5.175781 213.972656 5.507812 213.425781 6.09375 C 212.9375 6.601562 212.722656 7.089844 212.46875 8.144531 L 212.78125 8.222656 C 213.367188 6.757812 213.914062 6.269531 214.949219 6.269531 C 216.199219 6.269531 217.058594 7.128906 217.058594 8.378906 C 217.058594 9.550781 216.355469 10.9375 215.105469 12.265625 L 212.449219 15.097656 L 212.449219 15.273438 L 218.269531 15.273438 Z M 219.089844 13.222656 "/>
<path style=" stroke:none;fill-rule:nonzero;fill:rgb(0%,0%,0%);fill-opacity:1;" d="M 221.347656 13.789062 C 220.898438 13.789062 220.527344 14.160156 220.527344 14.628906 C 220.527344 15.058594 220.898438 15.429688 221.328125 15.429688 C 221.796875 15.429688 222.167969 15.058594 222.167969 14.628906 C 222.167969 14.160156 221.796875 13.789062 221.347656 13.789062 Z M 221.347656 13.789062 "/>
<path style=" stroke:none;fill-rule:nonzero;fill:rgb(0%,0%,0%);fill-opacity:1;" d="M 230.261719 11.816406 L 228.738281 11.816406 L 228.738281 5.175781 L 228.074219 5.175781 L 223.386719 11.816406 L 223.386719 12.773438 L 227.585938 12.773438 L 227.585938 15.273438 L 228.738281 15.273438 L 228.738281 12.773438 L 230.261719 12.773438 Z M 227.566406 11.816406 L 223.992188 11.816406 L 227.566406 6.699219 Z M 227.566406 11.816406 "/>
<path style=" stroke:none;fill-rule:nonzero;fill:rgb(0%,0%,0%);fill-opacity:1;" d="M 235.003906 11.425781 L 235.003906 12.382812 L 238.675781 12.382812 L 238.675781 11.425781 Z M 235.003906 11.425781 "/>
<path style=" stroke:none;fill-rule:nonzero;fill:rgb(0%,0%,0%);fill-opacity:1;" d="M 241.269531 13.789062 C 240.820312 13.789062 240.449219 14.160156 240.449219 14.628906 C 240.449219 15.058594 240.820312 15.429688 241.25 15.429688 C 241.71875 15.429688 242.089844 15.058594 242.089844 14.628906 C 242.089844 14.160156 241.71875 13.789062 241.269531 13.789062 Z M 241.269531 13.789062 "/>
<path style=" stroke:none;fill-rule:nonzero;fill:rgb(0%,0%,0%);fill-opacity:1;" d="M 245.414062 10.351562 C 246.292969 10.351562 246.644531 10.371094 246.996094 10.507812 C 247.933594 10.839844 248.5 11.679688 248.5 12.714844 C 248.5 13.964844 247.660156 14.941406 246.546875 14.941406 C 246.15625 14.941406 245.84375 14.84375 245.296875 14.472656 C 244.847656 14.21875 244.59375 14.101562 244.339844 14.101562 C 243.988281 14.101562 243.773438 14.316406 243.773438 14.628906 C 243.773438 15.15625 244.417969 15.488281 245.453125 15.488281 C 246.605469 15.488281 247.796875 15.097656 248.5 14.472656 C 249.203125 13.867188 249.574219 13.007812 249.574219 11.992188 C 249.574219 11.230469 249.339844 10.527344 248.910156 10.078125 C 248.617188 9.746094 248.324219 9.570312 247.679688 9.277344 C 248.695312 8.574219 249.066406 8.027344 249.066406 7.226562 C 249.066406 6.015625 248.128906 5.175781 246.742188 5.175781 C 246 5.175781 245.335938 5.429688 244.808594 5.898438 C 244.359375 6.308594 244.125 6.699219 243.792969 7.597656 L 244.027344 7.65625 C 244.632812 6.5625 245.316406 6.074219 246.253906 6.074219 C 247.230469 6.074219 247.894531 6.71875 247.894531 7.675781 C 247.894531 8.203125 247.679688 8.75 247.289062 9.121094 C 246.839844 9.570312 246.429688 9.785156 245.414062 10.15625 Z M 245.414062 10.351562 "/>
<path style=" stroke:none;fill-rule:nonzero;fill:rgb(0%,0%,0%);fill-opacity:1;" d="M 253.296875 6.5625 L 256.226562 6.5625 C 256.480469 6.5625 256.539062 6.523438 256.578125 6.425781 L 257.144531 5.097656 L 257.007812 5 C 256.792969 5.3125 256.636719 5.390625 256.324219 5.390625 L 253.199219 5.390625 L 251.578125 8.925781 C 251.558594 8.945312 251.558594 8.964844 251.558594 9.003906 C 251.558594 9.082031 251.617188 9.121094 251.734375 9.121094 C 252.222656 9.121094 252.808594 9.21875 253.433594 9.414062 C 255.152344 9.960938 255.933594 10.898438 255.933594 12.382812 C 255.933594 13.808594 255.015625 14.921875 253.863281 14.921875 C 253.550781 14.921875 253.296875 14.824219 252.867188 14.492188 C 252.378906 14.160156 252.027344 14.003906 251.714844 14.003906 C 251.285156 14.003906 251.070312 14.179688 251.070312 14.550781 C 251.070312 15.117188 251.773438 15.488281 252.90625 15.488281 C 254.15625 15.488281 255.230469 15.078125 255.972656 14.316406 C 256.675781 13.652344 256.988281 12.792969 256.988281 11.660156 C 256.988281 10.585938 256.695312 9.902344 255.953125 9.140625 C 255.289062 8.496094 254.449219 8.144531 252.671875 7.832031 Z M 253.296875 6.5625 "/>
<path style=" stroke:none;fill-rule:nonzero;fill:rgb(0%,0%,0%);fill-opacity:1;" d="M 260.769531 6.5625 L 263.699219 6.5625 C 263.953125 6.5625 264.011719 6.523438 264.050781 6.425781 L 264.617188 5.097656 L 264.480469 5 C 264.265625 5.3125 264.109375 5.390625 263.796875 5.390625 L 260.671875 5.390625 L 259.050781 8.925781 C 259.03125 8.945312 259.03125 8.964844 259.03125 9.003906 C 259.03125 9.082031 259.089844 9.121094 259.207031 9.121094 C 259.695312 9.121094 260.28125 9.21875 260.90625 9.414062 C 262.625 9.960938 263.40625 10.898438 263.40625 12.382812 C 263.40625 13.808594 262.488281 14.921875 261.335938 14.921875 C 261.023438 14.921875 260.769531 14.824219 260.339844 14.492188 C 259.851562 14.160156 259.5 14.003906 259.1875 14.003906 C 258.757812 14.003906 258.542969 14.179688 258.542969 14.550781 C 258.542969 15.117188 259.246094 15.488281 260.378906 15.488281 C 261.628906 15.488281 262.703125 15.078125 263.445312 14.316406 C 264.148438 13.652344 264.460938 12.792969 264.460938 11.660156 C 264.460938 10.585938 264.167969 9.902344 263.425781 9.140625 C 262.761719 8.496094 261.921875 8.144531 260.144531 7.832031 Z M 260.769531 6.5625 "/>
<path style=" stroke:none;fill-rule:nonzero;fill:rgb(0%,0%,0%);fill-opacity:1;" d="M 269.335938 5.175781 C 268.515625 5.175781 267.890625 5.429688 267.34375 5.957031 C 266.464844 6.777344 265.898438 8.496094 265.898438 10.253906 C 265.898438 11.875 266.40625 13.632812 267.109375 14.472656 C 267.65625 15.117188 268.417969 15.488281 269.277344 15.488281 C 270.039062 15.488281 270.683594 15.234375 271.230469 14.707031 C 272.089844 13.886719 272.65625 12.148438 272.65625 10.351562 C 272.65625 7.285156 271.308594 5.175781 269.335938 5.175781 Z M 269.296875 5.566406 C 270.546875 5.566406 271.230469 7.246094 271.230469 10.371094 C 271.230469 13.496094 270.566406 15.097656 269.277344 15.097656 C 267.988281 15.097656 267.34375 13.496094 267.34375 10.390625 C 267.34375 7.226562 268.007812 5.566406 269.296875 5.566406 Z M 269.296875 5.566406 "/>
<path style=" stroke:none;fill-rule:nonzero;fill:rgb(0%,0%,0%);fill-opacity:1;" d="M 277.339844 11.425781 L 277.339844 12.382812 L 281.011719 12.382812 L 281.011719 11.425781 Z M 277.339844 11.425781 "/>
<path style=" stroke:none;fill-rule:nonzero;fill:rgb(0%,0%,0%);fill-opacity:1;" d="M 288.820312 13.222656 L 288.625 13.144531 C 288.078125 14.003906 287.882812 14.140625 287.21875 14.140625 L 283.644531 14.140625 L 286.144531 11.503906 C 287.492188 10.117188 288.058594 8.984375 288.058594 7.8125 C 288.058594 6.328125 286.847656 5.175781 285.304688 5.175781 C 284.484375 5.175781 283.703125 5.507812 283.15625 6.09375 C 282.667969 6.601562 282.453125 7.089844 282.199219 8.144531 L 282.511719 8.222656 C 283.097656 6.757812 283.644531 6.269531 284.679688 6.269531 C 285.929688 6.269531 286.789062 7.128906 286.789062 8.378906 C 286.789062 9.550781 286.085938 10.9375 284.835938 12.265625 L 282.179688 15.097656 L 282.179688 15.273438 L 288 15.273438 Z M 288.820312 13.222656 "/>
<path style=" stroke:none;fill-rule:nonzero;fill:rgb(0%,0%,0%);fill-opacity:1;" d="M 291.078125 13.789062 C 290.628906 13.789062 290.257812 14.160156 290.257812 14.628906 C 290.257812 15.058594 290.628906 15.429688 291.058594 15.429688 C 291.527344 15.429688 291.898438 15.058594 291.898438 14.628906 C 291.898438 14.160156 291.527344 13.789062 291.078125 13.789062 Z M 291.078125 13.789062 "/>
<path style=" stroke:none;fill-rule:nonzero;fill:rgb(0%,0%,0%);fill-opacity:1;" d="M 300.027344 13.222656 L 299.832031 13.144531 C 299.285156 14.003906 299.089844 14.140625 298.425781 14.140625 L 294.851562 14.140625 L 297.351562 11.503906 C 298.699219 10.117188 299.265625 8.984375 299.265625 7.8125 C 299.265625 6.328125 298.054688 5.175781 296.511719 5.175781 C 295.691406 5.175781 294.910156 5.507812 294.363281 6.09375 C 293.875 6.601562 293.660156 7.089844 293.40625 8.144531 L 293.71875 8.222656 C 294.304688 6.757812 294.851562 6.269531 295.886719 6.269531 C 297.136719 6.269531 297.996094 7.128906 297.996094 8.378906 C 297.996094 9.550781 297.292969 10.9375 296.042969 12.265625 L 293.386719 15.097656 L 293.386719 15.273438 L 299.207031 15.273438 Z M 300.027344 13.222656 "/>
<path style=" stroke:none;fill-rule:nonzero;fill:rgb(0%,0%,0%);fill-opacity:1;" d="M 304.730469 11.425781 L 304.730469 12.382812 L 308.402344 12.382812 L 308.402344 11.425781 Z M 304.730469 11.425781 "/>
<path style=" stroke:none;fill-rule:nonzero;fill:rgb(0%,0%,0%);fill-opacity:1;" d="M 310.996094 13.789062 C 310.546875 13.789062 310.175781 14.160156 310.175781 14.628906 C 310.175781 15.058594 310.546875 15.429688 310.976562 15.429688 C 311.445312 15.429688 311.816406 15.058594 311.816406 14.628906 C 311.816406 14.160156 311.445312 13.789062 310.996094 13.789062 Z M 310.996094 13.789062 "/>
<path style=" stroke:none;fill-rule:nonzero;fill:rgb(0%,0%,0%);fill-opacity:1;" d="M 315.144531 10.351562 C 316.023438 10.351562 316.375 10.371094 316.726562 10.507812 C 317.664062 10.839844 318.230469 11.679688 318.230469 12.714844 C 318.230469 13.964844 317.390625 14.941406 316.277344 14.941406 C 315.886719 14.941406 315.574219 14.84375 315.027344 14.472656 C 314.578125 14.21875 314.324219 14.101562 314.070312 14.101562 C 313.71875 14.101562 313.503906 14.316406 313.503906 14.628906 C 313.503906 15.15625 314.148438 15.488281 315.183594 15.488281 C 316.335938 15.488281 317.527344 15.097656 318.230469 14.472656 C 318.933594 13.867188 319.304688 13.007812 319.304688 11.992188 C 319.304688 11.230469 319.070312 10.527344 318.640625 10.078125 C 318.347656 9.746094 318.054688 9.570312 317.410156 9.277344 C 318.425781 8.574219 318.796875 8.027344 318.796875 7.226562 C 318.796875 6.015625 317.859375 5.175781 316.472656 5.175781 C 315.730469 5.175781 315.066406 5.429688 314.539062 5.898438 C 314.089844 6.308594 313.855469 6.699219 313.523438 7.597656 L 313.757812 7.65625 C 314.363281 6.5625 315.046875 6.074219 315.984375 6.074219 C 316.960938 6.074219 317.625 6.71875 317.625 7.675781 C 317.625 8.203125 317.410156 8.75 317.019531 9.121094 C 316.570312 9.570312 316.160156 9.785156 315.144531 10.15625 Z M 315.144531 10.351562 "/>
<path style=" stroke:none;fill-rule:nonzero;fill:rgb(0%,0%,0%);fill-opacity:1;" d="M 327.03125 5.390625 L 321.503906 5.390625 L 320.625 7.578125 L 320.878906 7.695312 C 321.523438 6.679688 321.796875 6.484375 322.617188 6.484375 L 325.859375 6.484375 L 322.910156 15.390625 L 323.867188 15.390625 L 327.03125 5.625 Z M 327.03125 5.390625 "/>
<path style=" stroke:none;fill-rule:nonzero;fill:rgb(0%,0%,0%);fill-opacity:1;" d="M 334.460938 5.058594 C 332.761719 5.195312 331.902344 5.488281 330.808594 6.25 C 329.1875 7.402344 328.308594 9.101562 328.308594 11.113281 C 328.308594 12.402344 328.71875 13.710938 329.363281 14.472656 C 329.929688 15.117188 330.730469 15.488281 331.648438 15.488281 C 333.503906 15.488281 334.792969 14.0625 334.792969 11.992188 C 334.792969 10.097656 333.699219 8.886719 331.980469 8.886719 C 331.335938 8.886719 331.003906 8.984375 330.066406 9.550781 C 330.476562 7.285156 332.15625 5.683594 334.5 5.292969 Z M 331.414062 9.570312 C 332.703125 9.570312 333.445312 10.644531 333.445312 12.5 C 333.445312 14.160156 332.859375 15.058594 331.824219 15.058594 C 330.496094 15.058594 329.695312 13.652344 329.695312 11.347656 C 329.695312 10.585938 329.8125 10.15625 330.125 9.941406 C 330.4375 9.707031 330.886719 9.570312 331.414062 9.570312 Z M 331.414062 9.570312 "/>
<path style=" stroke:none;fill-rule:nonzero;fill:rgb(0%,0%,0%);fill-opacity:1;" d="M 341.972656 5.390625 L 336.445312 5.390625 L 335.566406 7.578125 L 335.820312 7.695312 C 336.464844 6.679688 336.738281 6.484375 337.558594 6.484375 L 340.800781 6.484375 L 337.851562 15.390625 L 338.808594 15.390625 L 341.972656 5.625 Z M 341.972656 5.390625 "/>
<path style=" stroke:none;fill-rule:nonzero;fill:rgb(0%,0%,0%);fill-opacity:1;" d="M 347.066406 11.425781 L 347.066406 12.382812 L 350.738281 12.382812 L 350.738281 11.425781 Z M 347.066406 11.425781 "/>
<path style=" stroke:none;fill-rule:nonzero;fill:rgb(0%,0%,0%);fill-opacity:1;" d="M 358.546875 13.222656 L 358.351562 13.144531 C 357.804688 14.003906 357.609375 14.140625 356.945312 14.140625 L 353.371094 14.140625 L 355.871094 11.503906 C 357.21875 10.117188 357.785156 8.984375 357.785156 7.8125 C 357.785156 6.328125 356.574219 5.175781 355.03125 5.175781 C 354.210938 5.175781 353.429688 5.507812 352.882812 6.09375 C 352.394531 6.601562 352.179688 7.089844 351.925781 8.144531 L 352.238281 8.222656 C 352.824219 6.757812 353.371094 6.269531 354.40625 6.269531 C 355.65625 6.269531 356.515625 7.128906 356.515625 8.378906 C 356.515625 9.550781 355.8125 10.9375 354.5625 12.265625 L 351.90625 15.097656 L 351.90625 15.273438 L 357.726562 15.273438 Z M 358.546875 13.222656 "/>
<path style=" stroke:none;fill-rule:nonzero;fill:rgb(0%,0%,0%);fill-opacity:1;" d="M 360.804688 13.789062 C 360.355469 13.789062 359.984375 14.160156 359.984375 14.628906 C 359.984375 15.058594 360.355469 15.429688 360.785156 15.429688 C 361.253906 15.429688 361.625 15.058594 361.625 14.628906 C 361.625 14.160156 361.253906 13.789062 360.804688 13.789062 Z M 360.804688 13.789062 "/>
<path style=" stroke:none;fill-rule:nonzero;fill:rgb(0%,0%,0%);fill-opacity:1;" d="M 367.886719 11.425781 L 367.886719 12.382812 L 371.558594 12.382812 L 371.558594 11.425781 Z M 367.886719 11.425781 "/>
<path style=" stroke:none;fill-rule:nonzero;fill:rgb(0%,0%,0%);fill-opacity:1;" d="M 374.152344 13.789062 C 373.703125 13.789062 373.332031 14.160156 373.332031 14.628906 C 373.332031 15.058594 373.703125 15.429688 374.132812 15.429688 C 374.601562 15.429688 374.972656 15.058594 374.972656 14.628906 C 374.972656 14.160156 374.601562 13.789062 374.152344 13.789062 Z M 374.152344 13.789062 "/>
<path style=" stroke:none;fill-rule:nonzero;fill:rgb(0%,0%,0%);fill-opacity:1;" d="M 383.0625 11.816406 L 381.539062 11.816406 L 381.539062 5.175781 L 380.875 5.175781 L 376.1875 11.816406 L 376.1875 12.773438 L 380.386719 12.773438 L 380.386719 15.273438 L 381.539062 15.273438 L 381.539062 12.773438 L 383.0625 12.773438 Z M 380.367188 11.816406 L 376.792969 11.816406 L 380.367188 6.699219 Z M 380.367188 11.816406 "/>
<path style=" stroke:none;fill-rule:nonzero;fill:rgb(0%,0%,0%);fill-opacity:1;" d="M 387.273438 5.175781 C 386.453125 5.175781 385.828125 5.429688 385.28125 5.957031 C 384.402344 6.777344 383.835938 8.496094 383.835938 10.253906 C 383.835938 11.875 384.34375 13.632812 385.046875 14.472656 C 385.59375 15.117188 386.355469 15.488281 387.214844 15.488281 C 387.976562 15.488281 388.621094 15.234375 389.167969 14.707031 C 390.027344 13.886719 390.59375 12.148438 390.59375 10.351562 C 390.59375 7.285156 389.246094 5.175781 387.273438 5.175781 Z M 387.234375 5.566406 C 388.484375 5.566406 389.167969 7.246094 389.167969 10.371094 C 389.167969 13.496094 388.503906 15.097656 387.214844 15.097656 C 385.925781 15.097656 385.28125 13.496094 385.28125 10.390625 C 385.28125 7.226562 385.945312 5.566406 387.234375 5.566406 Z M 387.234375 5.566406 "/>
<path style=" stroke:none;fill-rule:nonzero;fill:rgb(0%,0%,0%);fill-opacity:1;" d="M 394.746094 5.175781 C 393.925781 5.175781 393.300781 5.429688 392.753906 5.957031 C 391.875 6.777344 391.308594 8.496094 391.308594 10.253906 C 391.308594 11.875 391.816406 13.632812 392.519531 14.472656 C 393.066406 15.117188 393.828125 15.488281 394.6875 15.488281 C 395.449219 15.488281 396.09375 15.234375 396.640625 14.707031 C 397.5 13.886719 398.066406 12.148438 398.066406 10.351562 C 398.066406 7.285156 396.71875 5.175781 394.746094 5.175781 Z M 394.707031 5.566406 C 395.957031 5.566406 396.640625 7.246094 396.640625 10.371094 C 396.640625 13.496094 395.976562 15.097656 394.6875 15.097656 C 393.398438 15.097656 392.753906 13.496094 392.753906 10.390625 C 392.753906 7.226562 393.417969 5.566406 394.707031 5.566406 Z M 394.707031 5.566406 "/>
<path style=" stroke:none;fill-rule:nonzero;fill:rgb(0%,0%,0%);fill-opacity:1;" d="M 402.214844 5.175781 C 401.394531 5.175781 400.769531 5.429688 400.222656 5.957031 C 399.34375 6.777344 398.777344 8.496094 398.777344 10.253906 C 398.777344 11.875 399.285156 13.632812 399.988281 14.472656 C 400.535156 15.117188 401.296875 15.488281 402.15625 15.488281 C 402.917969 15.488281 403.5625 15.234375 404.109375 14.707031 C 404.96875 13.886719 405.535156 12.148438 405.535156 10.351562 C 405.535156 7.285156 404.1875 5.175781 402.214844 5.175781 Z M 402.175781 5.566406 C 403.425781 5.566406 404.109375 7.246094 404.109375 10.371094 C 404.109375 13.496094 403.445312 15.097656 402.15625 15.097656 C 400.867188 15.097656 400.222656 13.496094 400.222656 10.390625 C 400.222656 7.226562 400.886719 5.566406 402.175781 5.566406 Z M 402.175781 5.566406 "/>
<path style=" stroke:none;fill-rule:nonzero;fill:rgb(0%,0%,0%);fill-opacity:1;" d="M 410.222656 11.425781 L 410.222656 12.382812 L 413.894531 12.382812 L 413.894531 11.425781 Z M 410.222656 11.425781 "/>
<path style=" stroke:none;fill-rule:nonzero;fill:rgb(0%,0%,0%);fill-opacity:1;" d="M 418.96875 5.175781 L 416.273438 6.523438 L 416.273438 6.738281 C 416.449219 6.660156 416.625 6.601562 416.683594 6.582031 C 416.9375 6.464844 417.191406 6.40625 417.347656 6.40625 C 417.660156 6.40625 417.796875 6.640625 417.796875 7.109375 L 417.796875 13.886719 C 417.796875 14.375 417.679688 14.726562 417.445312 14.863281 C 417.210938 14.980469 416.996094 15.039062 416.371094 15.058594 L 416.371094 15.273438 L 420.492188 15.273438 L 420.492188 15.058594 C 419.320312 15.039062 419.085938 14.882812 419.085938 14.160156 L 419.085938 5.195312 Z M 418.96875 5.175781 "/>
<path style=" stroke:none;fill-rule:nonzero;fill:rgb(0%,0%,0%);fill-opacity:1;" d="M 423.957031 13.789062 C 423.507812 13.789062 423.136719 14.160156 423.136719 14.628906 C 423.136719 15.058594 423.507812 15.429688 423.9375 15.429688 C 424.40625 15.429688 424.777344 15.058594 424.777344 14.628906 C 424.777344 14.160156 424.40625 13.789062 423.957031 13.789062 Z M 423.957031 13.789062 "/>
<path style=" stroke:none;fill-rule:nonzero;fill:rgb(0%,0%,0%);fill-opacity:1;" d="M 430.15625 9.726562 C 431.640625 8.945312 432.148438 8.320312 432.148438 7.285156 C 432.148438 6.074219 431.074219 5.175781 429.589844 5.175781 C 427.949219 5.175781 426.738281 6.171875 426.738281 7.539062 C 426.738281 8.496094 427.03125 8.945312 428.59375 10.3125 C 426.992188 11.542969 426.660156 11.992188 426.660156 13.007812 C 426.660156 14.472656 427.832031 15.488281 429.53125 15.488281 C 431.328125 15.488281 432.460938 14.492188 432.460938 12.949219 C 432.460938 11.816406 431.953125 11.074219 430.15625 9.726562 Z M 429.882812 11.269531 C 430.976562 12.050781 431.328125 12.578125 431.328125 13.417969 C 431.328125 14.394531 430.664062 15.058594 429.6875 15.058594 C 428.554688 15.058594 427.792969 14.199219 427.792969 12.890625 C 427.792969 11.933594 428.125 11.308594 428.984375 10.605469 Z M 429.726562 9.453125 C 428.398438 8.59375 427.851562 7.910156 427.851562 7.070312 C 427.851562 6.210938 428.515625 5.585938 429.472656 5.585938 C 430.488281 5.585938 431.132812 6.25 431.132812 7.285156 C 431.132812 8.125 430.703125 8.808594 429.863281 9.375 C 429.785156 9.414062 429.785156 9.414062 429.726562 9.453125 Z M 429.726562 9.453125 "/>
<path style=" stroke:none;fill-rule:nonzero;fill:rgb(0%,0%,0%);fill-opacity:1;" d="M 437.613281 11.425781 L 437.613281 12.382812 L 441.285156 12.382812 L 441.285156 11.425781 Z M 437.613281 11.425781 "/>
<path style=" stroke:none;fill-rule:nonzero;fill:rgb(0%,0%,0%);fill-opacity:1;" d="M 443.878906 13.789062 C 443.429688 13.789062 443.058594 14.160156 443.058594 14.628906 C 443.058594 15.058594 443.429688 15.429688 443.859375 15.429688 C 444.328125 15.429688 444.699219 15.058594 444.699219 14.628906 C 444.699219 14.160156 444.328125 13.789062 443.878906 13.789062 Z M 443.878906 13.789062 "/>
<path style=" stroke:none;fill-rule:nonzero;fill:rgb(0%,0%,0%);fill-opacity:1;" d="M 452.792969 11.816406 L 451.269531 11.816406 L 451.269531 5.175781 L 450.605469 5.175781 L 445.917969 11.816406 L 445.917969 12.773438 L 450.117188 12.773438 L 450.117188 15.273438 L 451.269531 15.273438 L 451.269531 12.773438 L 452.792969 12.773438 Z M 450.097656 11.816406 L 446.523438 11.816406 L 450.097656 6.699219 Z M 450.097656 11.816406 "/>
<path style=" stroke:none;fill-rule:nonzero;fill:rgb(0%,0%,0%);fill-opacity:1;" d="M 460.300781 13.222656 L 460.105469 13.144531 C 459.558594 14.003906 459.363281 14.140625 458.699219 14.140625 L 455.125 14.140625 L 457.625 11.503906 C 458.972656 10.117188 459.539062 8.984375 459.539062 7.8125 C 459.539062 6.328125 458.328125 5.175781 456.785156 5.175781 C 455.964844 5.175781 455.183594 5.507812 454.636719 6.09375 C 454.148438 6.601562 453.933594 7.089844 453.679688 8.144531 L 453.992188 8.222656 C 454.578125 6.757812 455.125 6.269531 456.160156 6.269531 C 457.410156 6.269531 458.269531 7.128906 458.269531 8.378906 C 458.269531 9.550781 457.566406 10.9375 456.316406 12.265625 L 453.660156 15.097656 L 453.660156 15.273438 L 459.480469 15.273438 Z M 460.300781 13.222656 "/>
<path style=" stroke:none;fill-rule:nonzero;fill:rgb(0%,0%,0%);fill-opacity:1;" d="M 467.734375 11.816406 L 466.210938 11.816406 L 466.210938 5.175781 L 465.546875 5.175781 L 460.859375 11.816406 L 460.859375 12.773438 L 465.058594 12.773438 L 465.058594 15.273438 L 466.210938 15.273438 L 466.210938 12.773438 L 467.734375 12.773438 Z M 465.039062 11.816406 L 461.464844 11.816406 L 465.039062 6.699219 Z M 465.039062 11.816406 "/>
<path style=" stroke:none;fill-rule:nonzero;fill:rgb(0%,0%,0%);fill-opacity:1;" d="M 470.851562 6.5625 L 473.78125 6.5625 C 474.035156 6.5625 474.09375 6.523438 474.132812 6.425781 L 474.699219 5.097656 L 474.5625 5 C 474.347656 5.3125 474.191406 5.390625 473.878906 5.390625 L 470.753906 5.390625 L 469.132812 8.925781 C 469.113281 8.945312 469.113281 8.964844 469.113281 9.003906 C 469.113281 9.082031 469.171875 9.121094 469.289062 9.121094 C 469.777344 9.121094 470.363281 9.21875 470.988281 9.414062 C 472.707031 9.960938 473.488281 10.898438 473.488281 12.382812 C 473.488281 13.808594 472.570312 14.921875 471.417969 14.921875 C 471.105469 14.921875 470.851562 14.824219 470.421875 14.492188 C 469.933594 14.160156 469.582031 14.003906 469.269531 14.003906 C 468.839844 14.003906 468.625 14.179688 468.625 14.550781 C 468.625 15.117188 469.328125 15.488281 470.460938 15.488281 C 471.710938 15.488281 472.785156 15.078125 473.527344 14.316406 C 474.230469 13.652344 474.542969 12.792969 474.542969 11.660156 C 474.542969 10.585938 474.25 9.902344 473.507812 9.140625 C 472.84375 8.496094 472.003906 8.144531 470.226562 7.832031 Z M 470.851562 6.5625 "/>
<path style=" stroke:none;fill-rule:nonzero;fill:rgb(0%,0%,0%);fill-opacity:1;" d="M 479.949219 11.425781 L 479.949219 12.382812 L 483.621094 12.382812 L 483.621094 11.425781 Z M 479.949219 11.425781 "/>
<path style=" stroke:none;fill-rule:nonzero;fill:rgb(0%,0%,0%);fill-opacity:1;" d="M 488.695312 5.175781 L 486 6.523438 L 486 6.738281 C 486.175781 6.660156 486.351562 6.601562 486.410156 6.582031 C 486.664062 6.464844 486.917969 6.40625 487.074219 6.40625 C 487.386719 6.40625 487.523438 6.640625 487.523438 7.109375 L 487.523438 13.886719 C 487.523438 14.375 487.40625 14.726562 487.171875 14.863281 C 486.9375 14.980469 486.722656 15.039062 486.097656 15.058594 L 486.097656 15.273438 L 490.21875 15.273438 L 490.21875 15.058594 C 489.046875 15.039062 488.8125 14.882812 488.8125 14.160156 L 488.8125 5.195312 Z M 488.695312 5.175781 "/>
<path style=" stroke:none;fill-rule:nonzero;fill:rgb(0%,0%,0%);fill-opacity:1;" d="M 493.6875 13.789062 C 493.238281 13.789062 492.867188 14.160156 492.867188 14.628906 C 492.867188 15.058594 493.238281 15.429688 493.667969 15.429688 C 494.136719 15.429688 494.507812 15.058594 494.507812 14.628906 C 494.507812 14.160156 494.136719 13.789062 493.6875 13.789062 Z M 493.6875 13.789062 "/>
<path style=" stroke:none;fill-rule:nonzero;fill:rgb(0%,0%,0%);fill-opacity:1;" d="M 502.207031 5.058594 C 500.507812 5.195312 499.648438 5.488281 498.554688 6.25 C 496.933594 7.402344 496.054688 9.101562 496.054688 11.113281 C 496.054688 12.402344 496.464844 13.710938 497.109375 14.472656 C 497.675781 15.117188 498.476562 15.488281 499.394531 15.488281 C 501.25 15.488281 502.539062 14.0625 502.539062 11.992188 C 502.539062 10.097656 501.445312 8.886719 499.726562 8.886719 C 499.082031 8.886719 498.75 8.984375 497.8125 9.550781 C 498.222656 7.285156 499.902344 5.683594 502.246094 5.292969 Z M 499.160156 9.570312 C 500.449219 9.570312 501.191406 10.644531 501.191406 12.5 C 501.191406 14.160156 500.605469 15.058594 499.570312 15.058594 C 498.242188 15.058594 497.441406 13.652344 497.441406 11.347656 C 497.441406 10.585938 497.558594 10.15625 497.871094 9.941406 C 498.183594 9.707031 498.632812 9.570312 499.160156 9.570312 Z M 499.160156 9.570312 "/>
<path style=" stroke:none;fill-rule:nonzero;fill:rgb(0%,0%,0%);fill-opacity:1;" d="M 507.34375 11.425781 L 507.34375 12.382812 L 511.015625 12.382812 L 511.015625 11.425781 Z M 507.34375 11.425781 "/>
<path style=" stroke:none;fill-rule:nonzero;fill:rgb(0%,0%,0%);fill-opacity:1;" d="M 513.609375 13.789062 C 513.160156 13.789062 512.789062 14.160156 512.789062 14.628906 C 512.789062 15.058594 513.160156 15.429688 513.589844 15.429688 C 514.058594 15.429688 514.429688 15.058594 514.429688 14.628906 C 514.429688 14.160156 514.058594 13.789062 513.609375 13.789062 Z M 513.609375 13.789062 "/>
<path style=" stroke:none;fill-rule:nonzero;fill:rgb(0%,0%,0%);fill-opacity:1;" d="M 522.519531 11.816406 L 520.996094 11.816406 L 520.996094 5.175781 L 520.332031 5.175781 L 515.644531 11.816406 L 515.644531 12.773438 L 519.84375 12.773438 L 519.84375 15.273438 L 520.996094 15.273438 L 520.996094 12.773438 L 522.519531 12.773438 Z M 519.824219 11.816406 L 516.25 11.816406 L 519.824219 6.699219 Z M 519.824219 11.816406 "/>
<path style=" stroke:none;fill-rule:nonzero;fill:rgb(0%,0%,0%);fill-opacity:1;" d="M 529.992188 11.816406 L 528.46875 11.816406 L 528.46875 5.175781 L 527.804688 5.175781 L 523.117188 11.816406 L 523.117188 12.773438 L 527.316406 12.773438 L 527.316406 15.273438 L 528.46875 15.273438 L 528.46875 12.773438 L 529.992188 12.773438 Z M 527.296875 11.816406 L 523.722656 11.816406 L 527.296875 6.699219 Z M 527.296875 11.816406 "/>
<path style=" stroke:none;fill-rule:nonzero;fill:rgb(0%,0%,0%);fill-opacity:1;" d="M 531.292969 15.605469 C 532.972656 15.410156 533.792969 15.117188 534.808594 14.394531 C 536.351562 13.261719 537.269531 11.40625 537.269531 9.394531 C 537.269531 6.914062 535.902344 5.175781 533.96875 5.175781 C 532.191406 5.175781 530.863281 6.679688 530.863281 8.691406 C 530.863281 10.527344 531.9375 11.738281 533.558594 11.738281 C 534.378906 11.738281 535.003906 11.484375 535.785156 10.878906 C 535.179688 13.320312 533.519531 14.921875 531.253906 15.3125 Z M 535.824219 9.960938 C 535.824219 10.273438 535.765625 10.410156 535.589844 10.527344 C 535.179688 10.898438 534.632812 11.09375 534.085938 11.09375 C 532.953125 11.09375 532.230469 9.960938 532.230469 8.183594 C 532.230469 7.34375 532.484375 6.445312 532.796875 6.054688 C 533.050781 5.761719 533.421875 5.585938 533.851562 5.585938 C 535.160156 5.585938 535.824219 6.875 535.824219 9.394531 Z M 535.824219 9.960938 "/>
<path style=" stroke:none;fill-rule:nonzero;fill:rgb(0%,0%,0%);fill-opacity:1;" d="M 544.9375 11.816406 L 543.414062 11.816406 L 543.414062 5.175781 L 542.75 5.175781 L 538.0625 11.816406 L 538.0625 12.773438 L 542.261719 12.773438 L 542.261719 15.273438 L 543.414062 15.273438 L 543.414062 12.773438 L 544.9375 12.773438 Z M 542.242188 11.816406 L 538.667969 11.816406 L 542.242188 6.699219 Z M 542.242188 11.816406 "/>
<path style=" stroke:none;fill-rule:nonzero;fill:rgb(0%,0%,0%);fill-opacity:1;" d="M 549.679688 11.425781 L 549.679688 12.382812 L 553.351562 12.382812 L 553.351562 11.425781 Z M 549.679688 11.425781 "/>
<path style=" stroke:none;fill-rule:nonzero;fill:rgb(0%,0%,0%);fill-opacity:1;" d="M 558.425781 5.175781 L 555.730469 6.523438 L 555.730469 6.738281 C 555.90625 6.660156 556.082031 6.601562 556.140625 6.582031 C 556.394531 6.464844 556.648438 6.40625 556.804688 6.40625 C 557.117188 6.40625 557.253906 6.640625 557.253906 7.109375 L 557.253906 13.886719 C 557.253906 14.375 557.136719 14.726562 556.902344 14.863281 C 556.667969 14.980469 556.453125 15.039062 555.828125 15.058594 L 555.828125 15.273438 L 559.949219 15.273438 L 559.949219 15.058594 C 558.777344 15.039062 558.542969 14.882812 558.542969 14.160156 L 558.542969 5.195312 Z M 558.425781 5.175781 "/>
<path style=" stroke:none;fill-rule:nonzero;fill:rgb(0%,0%,0%);fill-opacity:1;" d="M 563.417969 13.789062 C 562.96875 13.789062 562.597656 14.160156 562.597656 14.628906 C 562.597656 15.058594 562.96875 15.429688 563.398438 15.429688 C 563.867188 15.429688 564.238281 15.058594 564.238281 14.628906 C 564.238281 14.160156 563.867188 13.789062 563.417969 13.789062 Z M 563.417969 13.789062 "/>
<path style=" stroke:none;fill-rule:nonzero;fill:rgb(0%,0%,0%);fill-opacity:1;" d="M 572.328125 11.816406 L 570.804688 11.816406 L 570.804688 5.175781 L 570.140625 5.175781 L 565.453125 11.816406 L 565.453125 12.773438 L 569.652344 12.773438 L 569.652344 15.273438 L 570.804688 15.273438 L 570.804688 12.773438 L 572.328125 12.773438 Z M 569.632812 11.816406 L 566.058594 11.816406 L 569.632812 6.699219 Z M 569.632812 11.816406 "/>
<path style=" stroke:none;fill-rule:nonzero;fill:rgb(0%,0%,0%);fill-opacity:1;" d="M 577.070312 11.425781 L 577.070312 12.382812 L 580.742188 12.382812 L 580.742188 11.425781 Z M 577.070312 11.425781 "/>
<path style=" stroke:none;fill-rule:nonzero;fill:rgb(0%,0%,0%);fill-opacity:1;" d="M 583.335938 13.789062 C 582.886719 13.789062 582.515625 14.160156 582.515625 14.628906 C 582.515625 15.058594 582.886719 15.429688 583.316406 15.429688 C 583.785156 15.429688 584.15625 15.058594 584.15625 14.628906 C 584.15625 14.160156 583.785156 13.789062 583.335938 13.789062 Z M 583.335938 13.789062 "/>
<path style=" stroke:none;fill-rule:nonzero;fill:rgb(0%,0%,0%);fill-opacity:1;" d="M 592.25 11.816406 L 590.726562 11.816406 L 590.726562 5.175781 L 590.0625 5.175781 L 585.375 11.816406 L 585.375 12.773438 L 589.574219 12.773438 L 589.574219 15.273438 L 590.726562 15.273438 L 590.726562 12.773438 L 592.25 12.773438 Z M 589.554688 11.816406 L 585.980469 11.816406 L 589.554688 6.699219 Z M 589.554688 11.816406 "/>
<path style=" stroke:none;fill-rule:nonzero;fill:rgb(0%,0%,0%);fill-opacity:1;" d="M 599.367188 5.390625 L 593.839844 5.390625 L 592.960938 7.578125 L 593.214844 7.695312 C 593.859375 6.679688 594.132812 6.484375 594.953125 6.484375 L 598.195312 6.484375 L 595.246094 15.390625 L 596.203125 15.390625 L 599.367188 5.625 Z M 599.367188 5.390625 "/>
<path style=" stroke:none;fill-rule:nonzero;fill:rgb(0%,0%,0%);fill-opacity:1;" d="M 602.425781 10.351562 C 603.304688 10.351562 603.65625 10.371094 604.007812 10.507812 C 604.945312 10.839844 605.511719 11.679688 605.511719 12.714844 C 605.511719 13.964844 604.671875 14.941406 603.558594 14.941406 C 603.167969 14.941406 602.855469 14.84375 602.308594 14.472656 C 601.859375 14.21875 601.605469 14.101562 601.351562 14.101562 C 601 14.101562 600.785156 14.316406 600.785156 14.628906 C 600.785156 15.15625 601.429688 15.488281 602.464844 15.488281 C 603.617188 15.488281 604.808594 15.097656 605.511719 14.472656 C 606.214844 13.867188 606.585938 13.007812 606.585938 11.992188 C 606.585938 11.230469 606.351562 10.527344 605.921875 10.078125 C 605.628906 9.746094 605.335938 9.570312 604.691406 9.277344 C 605.707031 8.574219 606.078125 8.027344 606.078125 7.226562 C 606.078125 6.015625 605.140625 5.175781 603.753906 5.175781 C 603.011719 5.175781 602.347656 5.429688 601.820312 5.898438 C 601.371094 6.308594 601.136719 6.699219 600.804688 7.597656 L 601.039062 7.65625 C 601.644531 6.5625 602.328125 6.074219 603.265625 6.074219 C 604.242188 6.074219 604.90625 6.71875 604.90625 7.675781 C 604.90625 8.203125 604.691406 8.75 604.300781 9.121094 C 603.851562 9.570312 603.441406 9.785156 602.425781 10.15625 Z M 602.425781 10.351562 "/>
<path style=" stroke:none;fill-rule:nonzero;fill:rgb(0%,0%,0%);fill-opacity:1;" d="M 611.402344 5.175781 C 610.582031 5.175781 609.957031 5.429688 609.410156 5.957031 C 608.53125 6.777344 607.964844 8.496094 607.964844 10.253906 C 607.964844 11.875 608.472656 13.632812 609.175781 14.472656 C 609.722656 15.117188 610.484375 15.488281 611.34375 15.488281 C 612.105469 15.488281 612.75 15.234375 613.296875 14.707031 C 614.15625 13.886719 614.722656 12.148438 614.722656 10.351562 C 614.722656 7.285156 613.375 5.175781 611.402344 5.175781 Z M 611.363281 5.566406 C 612.613281 5.566406 613.296875 7.246094 613.296875 10.371094 C 613.296875 13.496094 612.632812 15.097656 611.34375 15.097656 C 610.054688 15.097656 609.410156 13.496094 609.410156 10.390625 C 609.410156 7.226562 610.074219 5.566406 611.363281 5.566406 Z M 611.363281 5.566406 "/>
<path style=" stroke:none;fill-rule:nonzero;fill:rgb(0%,0%,0%);fill-opacity:1;" d="M 619.40625 11.425781 L 619.40625 12.382812 L 623.078125 12.382812 L 623.078125 11.425781 Z M 619.40625 11.425781 "/>
<path style=" stroke:none;fill-rule:nonzero;fill:rgb(0%,0%,0%);fill-opacity:1;" d="M 628.152344 5.175781 L 625.457031 6.523438 L 625.457031 6.738281 C 625.632812 6.660156 625.808594 6.601562 625.867188 6.582031 C 626.121094 6.464844 626.375 6.40625 626.53125 6.40625 C 626.84375 6.40625 626.980469 6.640625 626.980469 7.109375 L 626.980469 13.886719 C 626.980469 14.375 626.863281 14.726562 626.628906 14.863281 C 626.394531 14.980469 626.179688 15.039062 625.554688 15.058594 L 625.554688 15.273438 L 629.675781 15.273438 L 629.675781 15.058594 C 628.503906 15.039062 628.269531 14.882812 628.269531 14.160156 L 628.269531 5.195312 Z M 628.152344 5.175781 "/>
<path style=" stroke:none;fill-rule:nonzero;fill:rgb(0%,0%,0%);fill-opacity:1;" d="M 633.144531 13.789062 C 632.695312 13.789062 632.324219 14.160156 632.324219 14.628906 C 632.324219 15.058594 632.695312 15.429688 633.125 15.429688 C 633.59375 15.429688 633.964844 15.058594 633.964844 14.628906 C 633.964844 14.160156 633.59375 13.789062 633.144531 13.789062 Z M 633.144531 13.789062 "/>
<path style=" stroke:none;fill-rule:nonzero;fill:rgb(0%,0%,0%);fill-opacity:1;" d="M 642.097656 13.222656 L 641.902344 13.144531 C 641.355469 14.003906 641.160156 14.140625 640.496094 14.140625 L 636.921875 14.140625 L 639.421875 11.503906 C 640.769531 10.117188 641.335938 8.984375 641.335938 7.8125 C 641.335938 6.328125 640.125 5.175781 638.582031 5.175781 C 637.761719 5.175781 636.980469 5.507812 636.433594 6.09375 C 635.945312 6.601562 635.730469 7.089844 635.476562 8.144531 L 635.789062 8.222656 C 636.375 6.757812 636.921875 6.269531 637.957031 6.269531 C 639.207031 6.269531 640.066406 7.128906 640.066406 8.378906 C 640.066406 9.550781 639.363281 10.9375 638.113281 12.265625 L 635.457031 15.097656 L 635.457031 15.273438 L 641.277344 15.273438 Z M 642.097656 13.222656 "/>
<path style=" stroke:none;fill-rule:nonzero;fill:rgb(0%,0%,0%);fill-opacity:1;" d="M 646.800781 11.425781 L 646.800781 12.382812 L 650.472656 12.382812 L 650.472656 11.425781 Z M 646.800781 11.425781 "/>
<path style=" stroke:none;fill-rule:nonzero;fill:rgb(0%,0%,0%);fill-opacity:1;" d="M 653.066406 13.789062 C 652.617188 13.789062 652.246094 14.160156 652.246094 14.628906 C 652.246094 15.058594 652.617188 15.429688 653.046875 15.429688 C 653.515625 15.429688 653.886719 15.058594 653.886719 14.628906 C 653.886719 14.160156 653.515625 13.789062 653.066406 13.789062 Z M 653.066406 13.789062 "/>
<path style=" stroke:none;fill-rule:nonzero;fill:rgb(0%,0%,0%);fill-opacity:1;" d="M 661.976562 11.816406 L 660.453125 11.816406 L 660.453125 5.175781 L 659.789062 5.175781 L 655.101562 11.816406 L 655.101562 12.773438 L 659.300781 12.773438 L 659.300781 15.273438 L 660.453125 15.273438 L 660.453125 12.773438 L 661.976562 12.773438 Z M 659.28125 11.816406 L 655.707031 11.816406 L 659.28125 6.699219 Z M 659.28125 11.816406 "/>
<path style=" stroke:none;fill-rule:nonzero;fill:rgb(0%,0%,0%);fill-opacity:1;" d="M 663.277344 15.605469 C 664.957031 15.410156 665.777344 15.117188 666.792969 14.394531 C 668.335938 13.261719 669.253906 11.40625 669.253906 9.394531 C 669.253906 6.914062 667.886719 5.175781 665.953125 5.175781 C 664.175781 5.175781 662.847656 6.679688 662.847656 8.691406 C 662.847656 10.527344 663.921875 11.738281 665.542969 11.738281 C 666.363281 11.738281 666.988281 11.484375 667.769531 10.878906 C 667.164062 13.320312 665.503906 14.921875 663.238281 15.3125 Z M 667.808594 9.960938 C 667.808594 10.273438 667.75 10.410156 667.574219 10.527344 C 667.164062 10.898438 666.617188 11.09375 666.070312 11.09375 C 664.9375 11.09375 664.214844 9.960938 664.214844 8.183594 C 664.214844 7.34375 664.46875 6.445312 664.78125 6.054688 C 665.035156 5.761719 665.40625 5.585938 665.835938 5.585938 C 667.144531 5.585938 667.808594 6.875 667.808594 9.394531 Z M 667.808594 9.960938 "/>
<path style=" stroke:none;fill-rule:nonzero;fill:rgb(0%,0%,0%);fill-opacity:1;" d="M 674.226562 5.175781 L 671.53125 6.523438 L 671.53125 6.738281 C 671.707031 6.660156 671.882812 6.601562 671.941406 6.582031 C 672.195312 6.464844 672.449219 6.40625 672.605469 6.40625 C 672.917969 6.40625 673.054688 6.640625 673.054688 7.109375 L 673.054688 13.886719 C 673.054688 14.375 672.9375 14.726562 672.703125 14.863281 C 672.46875 14.980469 672.253906 15.039062 671.628906 15.058594 L 671.628906 15.273438 L 675.75 15.273438 L 675.75 15.058594 C 674.578125 15.039062 674.34375 14.882812 674.34375 14.160156 L 674.34375 5.195312 Z M 674.226562 5.175781 "/>
<path style=" stroke:none;fill-rule:nonzero;fill:rgb(0%,0%,0%);fill-opacity:1;" d="M 681.679688 9.726562 C 683.164062 8.945312 683.671875 8.320312 683.671875 7.285156 C 683.671875 6.074219 682.597656 5.175781 681.113281 5.175781 C 679.472656 5.175781 678.261719 6.171875 678.261719 7.539062 C 678.261719 8.496094 678.554688 8.945312 680.117188 10.3125 C 678.515625 11.542969 678.183594 11.992188 678.183594 13.007812 C 678.183594 14.472656 679.355469 15.488281 681.054688 15.488281 C 682.851562 15.488281 683.984375 14.492188 683.984375 12.949219 C 683.984375 11.816406 683.476562 11.074219 681.679688 9.726562 Z M 681.40625 11.269531 C 682.5 12.050781 682.851562 12.578125 682.851562 13.417969 C 682.851562 14.394531 682.1875 15.058594 681.210938 15.058594 C 680.078125 15.058594 679.316406 14.199219 679.316406 12.890625 C 679.316406 11.933594 679.648438 11.308594 680.507812 10.605469 Z M 681.25 9.453125 C 679.921875 8.59375 679.375 7.910156 679.375 7.070312 C 679.375 6.210938 680.039062 5.585938 680.996094 5.585938 C 682.011719 5.585938 682.65625 6.25 682.65625 7.285156 C 682.65625 8.125 682.226562 8.808594 681.386719 9.375 C 681.308594 9.414062 681.308594 9.414062 681.25 9.453125 Z M 681.25 9.453125 "/>
</g>
</svg>
