<?xml version="1.0" encoding="UTF-8"?>
<svg xmlns="http://www.w3.org/2000/svg" xmlns:xlink="http://www.w3.org/1999/xlink" width="697.86525pt" height="20.605469pt" viewBox="0 0 697.86525 20.605469" version="1.1">
<g id="surface481">
<path style=" stroke:none;fill-rule:nonzero;fill:rgb(0%,0%,0%);fill-opacity:1;" d="M 5 11.425781 L 5 12.382812 L 8.671875 12.382812 L 8.671875 11.425781 Z M 5 11.425781 "/>
<path style=" stroke:none;fill-rule:nonzero;fill:rgb(0%,0%,0%);fill-opacity:1;" d="M 11.675781 10.351562 C 12.554688 10.351562 12.90625 10.371094 13.257812 10.507812 C 14.195312 10.839844 14.761719 11.679688 14.761719 12.714844 C 14.761719 13.964844 13.921875 14.941406 12.808594 14.941406 C 12.417969 14.941406 12.105469 14.84375 11.558594 14.472656 C 11.109375 14.21875 10.855469 14.101562 10.601562 14.101562 C 10.25 14.101562 10.035156 14.316406 10.035156 14.628906 C 10.035156 15.15625 10.679688 15.488281 11.714844 15.488281 C 12.867188 15.488281 14.058594 15.097656 14.761719 14.472656 C 15.464844 13.867188 15.835938 13.007812 15.835938 11.992188 C 15.835938 11.230469 15.601562 10.527344 15.171875 10.078125 C 14.878906 9.746094 14.585938 9.570312 13.941406 9.277344 C 14.957031 8.574219 15.328125 8.027344 15.328125 7.226562 C 15.328125 6.015625 14.390625 5.175781 13.003906 5.175781 C 12.261719 5.175781 11.597656 5.429688 11.070312 5.898438 C 10.621094 6.308594 10.386719 6.699219 10.054688 7.597656 L 10.289062 7.65625 C 10.894531 6.5625 11.578125 6.074219 12.515625 6.074219 C 13.492188 6.074219 14.15625 6.71875 14.15625 7.675781 C 14.15625 8.203125 13.941406 8.75 13.550781 9.121094 C 13.101562 9.570312 12.691406 9.785156 11.675781 10.15625 Z M 11.675781 10.351562 "/>
<path style=" stroke:none;fill-rule:nonzero;fill:rgb(0%,0%,0%);fill-opacity:1;" d="M 18.738281 13.789062 C 18.289062 13.789062 17.917969 14.160156 17.917969 14.628906 C 17.917969 15.058594 18.289062 15.429688 18.71875 15.429688 C 19.1875 15.429688 19.558594 15.058594 19.558594 14.628906 C 19.558594 14.160156 19.1875 13.789062 18.738281 13.789062 Z M 18.738281 13.789062 "/>
<path style=" stroke:none;fill-rule:nonzero;fill:rgb(0%,0%,0%);fill-opacity:1;" d="M 27.105469 13.789062 C 26.65625 13.789062 26.285156 14.160156 26.285156 14.628906 C 26.285156 15.058594 26.65625 15.429688 27.085938 15.429688 C 27.554688 15.429688 27.925781 15.058594 27.925781 14.628906 C 27.925781 14.160156 27.554688 13.789062 27.105469 13.789062 Z M 27.105469 13.789062 "/>
<path style=" stroke:none;fill-rule:nonzero;fill:rgb(0%,0%,0%);fill-opacity:1;" d="M 31.253906 10.351562 C 32.132812 10.351562 32.484375 10.371094 32.835938 10.507812 C 33.773438 10.839844 34.339844 11.679688 34.339844 12.714844 C 34.339844 13.964844 33.5 14.941406 32.386719 14.941406 C 31.996094 14.941406 31.683594 14.84375 31.136719 14.472656 C 30.6875 14.21875 30.433594 14.101562 30.179688 14.101562 C 29.828125 14.101562 29.613281 14.316406 29.613281 14.628906 C 29.613281 15.15625 30.257812 15.488281 31.292969 15.488281 C 32.445312 15.488281 33.636719 15.097656 34.339844 14.472656 C 35.042969 13.867188 35.414062 13.007812 35.414062 11.992188 C 35.414062 11.230469 35.179688 10.527344 34.75 10.078125 C 34.457031 9.746094 34.164062 9.570312 33.519531 9.277344 C 34.535156 8.574219 34.90625 8.027344 34.90625 7.226562 C 34.90625 6.015625 33.96875 5.175781 32.582031 5.175781 C 31.839844 5.175781 31.175781 5.429688 30.648438 5.898438 C 30.199219 6.308594 29.964844 6.699219 29.632812 7.597656 L 29.867188 7.65625 C 30.472656 6.5625 31.15625 6.074219 32.09375 6.074219 C 33.070312 6.074219 33.734375 6.71875 33.734375 7.675781 C 33.734375 8.203125 33.519531 8.75 33.128906 9.121094 C 32.679688 9.570312 32.269531 9.785156 31.253906 10.15625 Z M 31.253906 10.351562 "/>
<path style=" stroke:none;fill-rule:nonzero;fill:rgb(0%,0%,0%);fill-opacity:1;" d="M 40.226562 5.175781 C 39.40625 5.175781 38.78125 5.429688 38.234375 5.957031 C 37.355469 6.777344 36.789062 8.496094 36.789062 10.253906 C 36.789062 11.875 37.296875 13.632812 38 14.472656 C 38.546875 15.117188 39.308594 15.488281 40.167969 15.488281 C 40.929688 15.488281 41.574219 15.234375 42.121094 14.707031 C 42.980469 13.886719 43.546875 12.148438 43.546875 10.351562 C 43.546875 7.285156 42.199219 5.175781 40.226562 5.175781 Z M 40.1875 5.566406 C 41.4375 5.566406 42.121094 7.246094 42.121094 10.371094 C 42.121094 13.496094 41.457031 15.097656 40.167969 15.097656 C 38.878906 15.097656 38.234375 13.496094 38.234375 10.390625 C 38.234375 7.226562 38.898438 5.566406 40.1875 5.566406 Z M 40.1875 5.566406 "/>
<path style=" stroke:none;fill-rule:nonzero;fill:rgb(0%,0%,0%);fill-opacity:1;" d="M 47.699219 5.175781 C 46.878906 5.175781 46.253906 5.429688 45.707031 5.957031 C 44.828125 6.777344 44.261719 8.496094 44.261719 10.253906 C 44.261719 11.875 44.769531 13.632812 45.472656 14.472656 C 46.019531 15.117188 46.78125 15.488281 47.640625 15.488281 C 48.402344 15.488281 49.046875 15.234375 49.59375 14.707031 C 50.453125 13.886719 51.019531 12.148438 51.019531 10.351562 C 51.019531 7.285156 49.671875 5.175781 47.699219 5.175781 Z M 47.660156 5.566406 C 48.910156 5.566406 49.59375 7.246094 49.59375 10.371094 C 49.59375 13.496094 48.929688 15.097656 47.640625 15.097656 C 46.351562 15.097656 45.707031 13.496094 45.707031 10.390625 C 45.707031 7.226562 46.371094 5.566406 47.660156 5.566406 Z M 47.660156 5.566406 "/>
<path style=" stroke:none;fill-rule:nonzero;fill:rgb(0%,0%,0%);fill-opacity:1;" d="M 55.171875 5.175781 C 54.351562 5.175781 53.726562 5.429688 53.179688 5.957031 C 52.300781 6.777344 51.734375 8.496094 51.734375 10.253906 C 51.734375 11.875 52.242188 13.632812 52.945312 14.472656 C 53.492188 15.117188 54.253906 15.488281 55.113281 15.488281 C 55.875 15.488281 56.519531 15.234375 57.066406 14.707031 C 57.925781 13.886719 58.492188 12.148438 58.492188 10.351562 C 58.492188 7.285156 57.144531 5.175781 55.171875 5.175781 Z M 55.132812 5.566406 C 56.382812 5.566406 57.066406 7.246094 57.066406 10.371094 C 57.066406 13.496094 56.402344 15.097656 55.113281 15.097656 C 53.824219 15.097656 53.179688 13.496094 53.179688 10.390625 C 53.179688 7.226562 53.84375 5.566406 55.132812 5.566406 Z M 55.132812 5.566406 "/>
<path style=" stroke:none;fill-rule:nonzero;fill:rgb(0%,0%,0%);fill-opacity:1;" d="M 63.175781 11.425781 L 63.175781 12.382812 L 66.847656 12.382812 L 66.847656 11.425781 Z M 63.175781 11.425781 "/>
<path style=" stroke:none;fill-rule:nonzero;fill:rgb(0%,0%,0%);fill-opacity:1;" d="M 74.65625 13.222656 L 74.460938 13.144531 C 73.914062 14.003906 73.71875 14.140625 73.054688 14.140625 L 69.480469 14.140625 L 71.980469 11.503906 C 73.328125 10.117188 73.894531 8.984375 73.894531 7.8125 C 73.894531 6.328125 72.683594 5.175781 71.140625 5.175781 C 70.320312 5.175781 69.539062 5.507812 68.992188 6.09375 C 68.503906 6.601562 68.289062 7.089844 68.035156 8.144531 L 68.347656 8.222656 C 68.933594 6.757812 69.480469 6.269531 70.515625 6.269531 C 71.765625 6.269531 72.625 7.128906 72.625 8.378906 C 72.625 9.550781 71.921875 10.9375 70.671875 12.265625 L 68.015625 15.097656 L 68.015625 15.273438 L 73.835938 15.273438 Z M 74.65625 13.222656 "/>
<path style=" stroke:none;fill-rule:nonzero;fill:rgb(0%,0%,0%);fill-opacity:1;" d="M 76.914062 13.789062 C 76.464844 13.789062 76.09375 14.160156 76.09375 14.628906 C 76.09375 15.058594 76.464844 15.429688 76.894531 15.429688 C 77.363281 15.429688 77.734375 15.058594 77.734375 14.628906 C 77.734375 14.160156 77.363281 13.789062 76.914062 13.789062 Z M 76.914062 13.789062 "/>
<path style=" stroke:none;fill-rule:nonzero;fill:rgb(0%,0%,0%);fill-opacity:1;" d="M 83.113281 9.726562 C 84.597656 8.945312 85.105469 8.320312 85.105469 7.285156 C 85.105469 6.074219 84.03125 5.175781 82.546875 5.175781 C 80.90625 5.175781 79.695312 6.171875 79.695312 7.539062 C 79.695312 8.496094 79.988281 8.945312 81.550781 10.3125 C 79.949219 11.542969 79.617188 11.992188 79.617188 13.007812 C 79.617188 14.472656 80.789062 15.488281 82.488281 15.488281 C 84.285156 15.488281 85.417969 14.492188 85.417969 12.949219 C 85.417969 11.816406 84.910156 11.074219 83.113281 9.726562 Z M 82.839844 11.269531 C 83.933594 12.050781 84.285156 12.578125 84.285156 13.417969 C 84.285156 14.394531 83.621094 15.058594 82.644531 15.058594 C 81.511719 15.058594 80.75 14.199219 80.75 12.890625 C 80.75 11.933594 81.082031 11.308594 81.941406 10.605469 Z M 82.683594 9.453125 C 81.355469 8.59375 80.808594 7.910156 80.808594 7.070312 C 80.808594 6.210938 81.472656 5.585938 82.429688 5.585938 C 83.445312 5.585938 84.089844 6.25 84.089844 7.285156 C 84.089844 8.125 83.660156 8.808594 82.820312 9.375 C 82.742188 9.414062 82.742188 9.414062 82.683594 9.453125 Z M 82.683594 9.453125 "/>
<path style=" stroke:none;fill-rule:nonzero;fill:rgb(0%,0%,0%);fill-opacity:1;" d="M 91.859375 13.789062 C 91.410156 13.789062 91.039062 14.160156 91.039062 14.628906 C 91.039062 15.058594 91.410156 15.429688 91.839844 15.429688 C 92.308594 15.429688 92.679688 15.058594 92.679688 14.628906 C 92.679688 14.160156 92.308594 13.789062 91.859375 13.789062 Z M 91.859375 13.789062 "/>
<path style=" stroke:none;fill-rule:nonzero;fill:rgb(0%,0%,0%);fill-opacity:1;" d="M 96.003906 10.351562 C 96.882812 10.351562 97.234375 10.371094 97.585938 10.507812 C 98.523438 10.839844 99.089844 11.679688 99.089844 12.714844 C 99.089844 13.964844 98.25 14.941406 97.136719 14.941406 C 96.746094 14.941406 96.433594 14.84375 95.886719 14.472656 C 95.4375 14.21875 95.183594 14.101562 94.929688 14.101562 C 94.578125 14.101562 94.363281 14.316406 94.363281 14.628906 C 94.363281 15.15625 95.007812 15.488281 96.042969 15.488281 C 97.195312 15.488281 98.386719 15.097656 99.089844 14.472656 C 99.792969 13.867188 100.164062 13.007812 100.164062 11.992188 C 100.164062 11.230469 99.929688 10.527344 99.5 10.078125 C 99.207031 9.746094 98.914062 9.570312 98.269531 9.277344 C 99.285156 8.574219 99.65625 8.027344 99.65625 7.226562 C 99.65625 6.015625 98.71875 5.175781 97.332031 5.175781 C 96.589844 5.175781 95.925781 5.429688 95.398438 5.898438 C 94.949219 6.308594 94.714844 6.699219 94.382812 7.597656 L 94.617188 7.65625 C 95.222656 6.5625 95.90625 6.074219 96.84375 6.074219 C 97.820312 6.074219 98.484375 6.71875 98.484375 7.675781 C 98.484375 8.203125 98.269531 8.75 97.878906 9.121094 C 97.429688 9.570312 97.019531 9.785156 96.003906 10.15625 Z M 96.003906 10.351562 "/>
<path style=" stroke:none;fill-rule:nonzero;fill:rgb(0%,0%,0%);fill-opacity:1;" d="M 105.546875 5.175781 L 102.851562 6.523438 L 102.851562 6.738281 C 103.027344 6.660156 103.203125 6.601562 103.261719 6.582031 C 103.515625 6.464844 103.769531 6.40625 103.925781 6.40625 C 104.238281 6.40625 104.375 6.640625 104.375 7.109375 L 104.375 13.886719 C 104.375 14.375 104.257812 14.726562 104.023438 14.863281 C 103.789062 14.980469 103.574219 15.039062 102.949219 15.058594 L 102.949219 15.273438 L 107.070312 15.273438 L 107.070312 15.058594 C 105.898438 15.039062 105.664062 14.882812 105.664062 14.160156 L 105.664062 5.195312 Z M 105.546875 5.175781 "/>
<path style=" stroke:none;fill-rule:nonzero;fill:rgb(0%,0%,0%);fill-opacity:1;" d="M 115.324219 5.058594 C 113.625 5.195312 112.765625 5.488281 111.671875 6.25 C 110.050781 7.402344 109.171875 9.101562 109.171875 11.113281 C 109.171875 12.402344 109.582031 13.710938 110.226562 14.472656 C 110.792969 15.117188 111.59375 15.488281 112.511719 15.488281 C 114.367188 15.488281 115.65625 14.0625 115.65625 11.992188 C 115.65625 10.097656 114.5625 8.886719 112.84375 8.886719 C 112.199219 8.886719 111.867188 8.984375 110.929688 9.550781 C 111.339844 7.285156 113.019531 5.683594 115.363281 5.292969 Z M 112.277344 9.570312 C 113.566406 9.570312 114.308594 10.644531 114.308594 12.5 C 114.308594 14.160156 113.722656 15.058594 112.6875 15.058594 C 111.359375 15.058594 110.558594 13.652344 110.558594 11.347656 C 110.558594 10.585938 110.675781 10.15625 110.988281 9.941406 C 111.300781 9.707031 111.75 9.570312 112.277344 9.570312 Z M 112.277344 9.570312 "/>
<path style=" stroke:none;fill-rule:nonzero;fill:rgb(0%,0%,0%);fill-opacity:1;" d="M 122.835938 5.390625 L 117.308594 5.390625 L 116.429688 7.578125 L 116.683594 7.695312 C 117.328125 6.679688 117.601562 6.484375 118.421875 6.484375 L 121.664062 6.484375 L 118.714844 15.390625 L 119.671875 15.390625 L 122.835938 5.625 Z M 122.835938 5.390625 "/>
<path style=" stroke:none;fill-rule:nonzero;fill:rgb(0%,0%,0%);fill-opacity:1;" d="M 127.929688 11.425781 L 127.929688 12.382812 L 131.601562 12.382812 L 131.601562 11.425781 Z M 127.929688 11.425781 "/>
<path style=" stroke:none;fill-rule:nonzero;fill:rgb(0%,0%,0%);fill-opacity:1;" d="M 139.410156 13.222656 L 139.214844 13.144531 C 138.667969 14.003906 138.472656 14.140625 137.808594 14.140625 L 134.234375 14.140625 L 136.734375 11.503906 C 138.082031 10.117188 138.648438 8.984375 138.648438 7.8125 C 138.648438 6.328125 137.4375 5.175781 135.894531 5.175781 C 135.074219 5.175781 134.292969 5.507812 133.746094 6.09375 C 133.257812 6.601562 133.042969 7.089844 132.789062 8.144531 L 133.101562 8.222656 C 133.6875 6.757812 134.234375 6.269531 135.269531 6.269531 C 136.519531 6.269531 137.378906 7.128906 137.378906 8.378906 C 137.378906 9.550781 136.675781 10.9375 135.425781 12.265625 L 132.769531 15.097656 L 132.769531 15.273438 L 138.589844 15.273438 Z M 139.410156 13.222656 "/>
<path style=" stroke:none;fill-rule:nonzero;fill:rgb(0%,0%,0%);fill-opacity:1;" d="M 141.667969 13.789062 C 141.21875 13.789062 140.847656 14.160156 140.847656 14.628906 C 140.847656 15.058594 141.21875 15.429688 141.648438 15.429688 C 142.117188 15.429688 142.488281 15.058594 142.488281 14.628906 C 142.488281 14.160156 142.117188 13.789062 141.667969 13.789062 Z M 141.667969 13.789062 "/>
<path style=" stroke:none;fill-rule:nonzero;fill:rgb(0%,0%,0%);fill-opacity:1;" d="M 150.1875 5.058594 C 148.488281 5.195312 147.628906 5.488281 146.535156 6.25 C 144.914062 7.402344 144.035156 9.101562 144.035156 11.113281 C 144.035156 12.402344 144.445312 13.710938 145.089844 14.472656 C 145.65625 15.117188 146.457031 15.488281 147.375 15.488281 C 149.230469 15.488281 150.519531 14.0625 150.519531 11.992188 C 150.519531 10.097656 149.425781 8.886719 147.707031 8.886719 C 147.0625 8.886719 146.730469 8.984375 145.792969 9.550781 C 146.203125 7.285156 147.882812 5.683594 150.226562 5.292969 Z M 147.140625 9.570312 C 148.429688 9.570312 149.171875 10.644531 149.171875 12.5 C 149.171875 14.160156 148.585938 15.058594 147.550781 15.058594 C 146.222656 15.058594 145.421875 13.652344 145.421875 11.347656 C 145.421875 10.585938 145.539062 10.15625 145.851562 9.941406 C 146.164062 9.707031 146.613281 9.570312 147.140625 9.570312 Z M 147.140625 9.570312 "/>
<path style=" stroke:none;fill-rule:nonzero;fill:rgb(0%,0%,0%);fill-opacity:1;" d="M 156.609375 13.789062 C 156.160156 13.789062 155.789062 14.160156 155.789062 14.628906 C 155.789062 15.058594 156.160156 15.429688 156.589844 15.429688 C 157.058594 15.429688 157.429688 15.058594 157.429688 14.628906 C 157.429688 14.160156 157.058594 13.789062 156.609375 13.789062 Z M 156.609375 13.789062 "/>
<path style=" stroke:none;fill-rule:nonzero;fill:rgb(0%,0%,0%);fill-opacity:1;" d="M 160.757812 10.351562 C 161.636719 10.351562 161.988281 10.371094 162.339844 10.507812 C 163.277344 10.839844 163.84375 11.679688 163.84375 12.714844 C 163.84375 13.964844 163.003906 14.941406 161.890625 14.941406 C 161.5 14.941406 161.1875 14.84375 160.640625 14.472656 C 160.191406 14.21875 159.9375 14.101562 159.683594 14.101562 C 159.332031 14.101562 159.117188 14.316406 159.117188 14.628906 C 159.117188 15.15625 159.761719 15.488281 160.796875 15.488281 C 161.949219 15.488281 163.140625 15.097656 163.84375 14.472656 C 164.546875 13.867188 164.917969 13.007812 164.917969 11.992188 C 164.917969 11.230469 164.683594 10.527344 164.253906 10.078125 C 163.960938 9.746094 163.667969 9.570312 163.023438 9.277344 C 164.039062 8.574219 164.410156 8.027344 164.410156 7.226562 C 164.410156 6.015625 163.472656 5.175781 162.085938 5.175781 C 161.34375 5.175781 160.679688 5.429688 160.152344 5.898438 C 159.703125 6.308594 159.46875 6.699219 159.136719 7.597656 L 159.371094 7.65625 C 159.976562 6.5625 160.660156 6.074219 161.597656 6.074219 C 162.574219 6.074219 163.238281 6.71875 163.238281 7.675781 C 163.238281 8.203125 163.023438 8.75 162.632812 9.121094 C 162.183594 9.570312 161.773438 9.785156 160.757812 10.15625 Z M 160.757812 10.351562 "/>
<path style=" stroke:none;fill-rule:nonzero;fill:rgb(0%,0%,0%);fill-opacity:1;" d="M 168.230469 10.351562 C 169.109375 10.351562 169.460938 10.371094 169.8125 10.507812 C 170.75 10.839844 171.316406 11.679688 171.316406 12.714844 C 171.316406 13.964844 170.476562 14.941406 169.363281 14.941406 C 168.972656 14.941406 168.660156 14.84375 168.113281 14.472656 C 167.664062 14.21875 167.410156 14.101562 167.15625 14.101562 C 166.804688 14.101562 166.589844 14.316406 166.589844 14.628906 C 166.589844 15.15625 167.234375 15.488281 168.269531 15.488281 C 169.421875 15.488281 170.613281 15.097656 171.316406 14.472656 C 172.019531 13.867188 172.390625 13.007812 172.390625 11.992188 C 172.390625 11.230469 172.15625 10.527344 171.726562 10.078125 C 171.433594 9.746094 171.140625 9.570312 170.496094 9.277344 C 171.511719 8.574219 171.882812 8.027344 171.882812 7.226562 C 171.882812 6.015625 170.945312 5.175781 169.558594 5.175781 C 168.816406 5.175781 168.152344 5.429688 167.625 5.898438 C 167.175781 6.308594 166.941406 6.699219 166.609375 7.597656 L 166.84375 7.65625 C 167.449219 6.5625 168.132812 6.074219 169.070312 6.074219 C 170.046875 6.074219 170.710938 6.71875 170.710938 7.675781 C 170.710938 8.203125 170.496094 8.75 170.105469 9.121094 C 169.65625 9.570312 169.246094 9.785156 168.230469 10.15625 Z M 168.230469 10.351562 "/>
<path style=" stroke:none;fill-rule:nonzero;fill:rgb(0%,0%,0%);fill-opacity:1;" d="M 176.109375 6.5625 L 179.039062 6.5625 C 179.292969 6.5625 179.351562 6.523438 179.390625 6.425781 L 179.957031 5.097656 L 179.820312 5 C 179.605469 5.3125 179.449219 5.390625 179.136719 5.390625 L 176.011719 5.390625 L 174.390625 8.925781 C 174.371094 8.945312 174.371094 8.964844 174.371094 9.003906 C 174.371094 9.082031 174.429688 9.121094 174.546875 9.121094 C 175.035156 9.121094 175.621094 9.21875 176.246094 9.414062 C 177.964844 9.960938 178.746094 10.898438 178.746094 12.382812 C 178.746094 13.808594 177.828125 14.921875 176.675781 14.921875 C 176.363281 14.921875 176.109375 14.824219 175.679688 14.492188 C 175.191406 14.160156 174.839844 14.003906 174.527344 14.003906 C 174.097656 14.003906 173.882812 14.179688 173.882812 14.550781 C 173.882812 15.117188 174.585938 15.488281 175.71875 15.488281 C 176.96875 15.488281 178.042969 15.078125 178.785156 14.316406 C 179.488281 13.652344 179.800781 12.792969 179.800781 11.660156 C 179.800781 10.585938 179.507812 9.902344 178.765625 9.140625 C 178.101562 8.496094 177.261719 8.144531 175.484375 7.832031 Z M 176.109375 6.5625 "/>
<path style=" stroke:none;fill-rule:nonzero;fill:rgb(0%,0%,0%);fill-opacity:1;" d="M 185.242188 5.175781 L 182.546875 6.523438 L 182.546875 6.738281 C 182.722656 6.660156 182.898438 6.601562 182.957031 6.582031 C 183.210938 6.464844 183.464844 6.40625 183.621094 6.40625 C 183.933594 6.40625 184.070312 6.640625 184.070312 7.109375 L 184.070312 13.886719 C 184.070312 14.375 183.953125 14.726562 183.71875 14.863281 C 183.484375 14.980469 183.269531 15.039062 182.644531 15.058594 L 182.644531 15.273438 L 186.765625 15.273438 L 186.765625 15.058594 C 185.59375 15.039062 185.359375 14.882812 185.359375 14.160156 L 185.359375 5.195312 Z M 185.242188 5.175781 "/>
<path style=" stroke:none;fill-rule:nonzero;fill:rgb(0%,0%,0%);fill-opacity:1;" d="M 192.683594 11.425781 L 192.683594 12.382812 L 196.355469 12.382812 L 196.355469 11.425781 Z M 192.683594 11.425781 "/>
<path style=" stroke:none;fill-rule:nonzero;fill:rgb(0%,0%,0%);fill-opacity:1;" d="M 204.160156 13.222656 L 203.964844 13.144531 C 203.417969 14.003906 203.222656 14.140625 202.558594 14.140625 L 198.984375 14.140625 L 201.484375 11.503906 C 202.832031 10.117188 203.398438 8.984375 203.398438 7.8125 C 203.398438 6.328125 202.1875 5.175781 200.644531 5.175781 C 199.824219 5.175781 199.042969 5.507812 198.496094 6.09375 C 198.007812 6.601562 197.792969 7.089844 197.539062 8.144531 L 197.851562 8.222656 C 198.4375 6.757812 198.984375 6.269531 200.019531 6.269531 C 201.269531 6.269531 202.128906 7.128906 202.128906 8.378906 C 202.128906 9.550781 201.425781 10.9375 200.175781 12.265625 L 197.519531 15.097656 L 197.519531 15.273438 L 203.339844 15.273438 Z M 204.160156 13.222656 "/>
<path style=" stroke:none;fill-rule:nonzero;fill:rgb(0%,0%,0%);fill-opacity:1;" d="M 206.417969 13.789062 C 205.96875 13.789062 205.597656 14.160156 205.597656 14.628906 C 205.597656 15.058594 205.96875 15.429688 206.398438 15.429688 C 206.867188 15.429688 207.238281 15.058594 207.238281 14.628906 C 207.238281 14.160156 206.867188 13.789062 206.417969 13.789062 Z M 206.417969 13.789062 "/>
<path style=" stroke:none;fill-rule:nonzero;fill:rgb(0%,0%,0%);fill-opacity:1;" d="M 215.332031 11.816406 L 213.808594 11.816406 L 213.808594 5.175781 L 213.144531 5.175781 L 208.457031 11.816406 L 208.457031 12.773438 L 212.65625 12.773438 L 212.65625 15.273438 L 213.808594 15.273438 L 213.808594 12.773438 L 215.332031 12.773438 Z M 212.636719 11.816406 L 209.0625 11.816406 L 212.636719 6.699219 Z M 212.636719 11.816406 "/>
<path style=" stroke:none;fill-rule:nonzero;fill:rgb(0%,0%,0%);fill-opacity:1;" d="M 221.363281 13.789062 C 220.914062 13.789062 220.542969 14.160156 220.542969 14.628906 C 220.542969 15.058594 220.914062 15.429688 221.34375 15.429688 C 221.8125 15.429688 222.183594 15.058594 222.183594 14.628906 C 222.183594 14.160156 221.8125 13.789062 221.363281 13.789062 Z M 221.363281 13.789062 "/>
<path style=" stroke:none;fill-rule:nonzero;fill:rgb(0%,0%,0%);fill-opacity:1;" d="M 225.507812 10.351562 C 226.386719 10.351562 226.738281 10.371094 227.089844 10.507812 C 228.027344 10.839844 228.59375 11.679688 228.59375 12.714844 C 228.59375 13.964844 227.753906 14.941406 226.640625 14.941406 C 226.25 14.941406 225.9375 14.84375 225.390625 14.472656 C 224.941406 14.21875 224.6875 14.101562 224.433594 14.101562 C 224.082031 14.101562 223.867188 14.316406 223.867188 14.628906 C 223.867188 15.15625 224.511719 15.488281 225.546875 15.488281 C 226.699219 15.488281 227.890625 15.097656 228.59375 14.472656 C 229.296875 13.867188 229.667969 13.007812 229.667969 11.992188 C 229.667969 11.230469 229.433594 10.527344 229.003906 10.078125 C 228.710938 9.746094 228.417969 9.570312 227.773438 9.277344 C 228.789062 8.574219 229.160156 8.027344 229.160156 7.226562 C 229.160156 6.015625 228.222656 5.175781 226.835938 5.175781 C 226.09375 5.175781 225.429688 5.429688 224.902344 5.898438 C 224.453125 6.308594 224.21875 6.699219 223.886719 7.597656 L 224.121094 7.65625 C 224.726562 6.5625 225.410156 6.074219 226.347656 6.074219 C 227.324219 6.074219 227.988281 6.71875 227.988281 7.675781 C 227.988281 8.203125 227.773438 8.75 227.382812 9.121094 C 226.933594 9.570312 226.523438 9.785156 225.507812 10.15625 Z M 225.507812 10.351562 "/>
<path style=" stroke:none;fill-rule:nonzero;fill:rgb(0%,0%,0%);fill-opacity:1;" d="M 233.390625 6.5625 L 236.320312 6.5625 C 236.574219 6.5625 236.632812 6.523438 236.671875 6.425781 L 237.238281 5.097656 L 237.101562 5 C 236.886719 5.3125 236.730469 5.390625 236.417969 5.390625 L 233.292969 5.390625 L 231.671875 8.925781 C 231.652344 8.945312 231.652344 8.964844 231.652344 9.003906 C 231.652344 9.082031 231.710938 9.121094 231.828125 9.121094 C 232.316406 9.121094 232.902344 9.21875 233.527344 9.414062 C 235.246094 9.960938 236.027344 10.898438 236.027344 12.382812 C 236.027344 13.808594 235.109375 14.921875 233.957031 14.921875 C 233.644531 14.921875 233.390625 14.824219 232.960938 14.492188 C 232.472656 14.160156 232.121094 14.003906 231.808594 14.003906 C 231.378906 14.003906 231.164062 14.179688 231.164062 14.550781 C 231.164062 15.117188 231.867188 15.488281 233 15.488281 C 234.25 15.488281 235.324219 15.078125 236.066406 14.316406 C 236.769531 13.652344 237.082031 12.792969 237.082031 11.660156 C 237.082031 10.585938 236.789062 9.902344 236.046875 9.140625 C 235.382812 8.496094 234.542969 8.144531 232.765625 7.832031 Z M 233.390625 6.5625 "/>
<path style=" stroke:none;fill-rule:nonzero;fill:rgb(0%,0%,0%);fill-opacity:1;" d="M 240.863281 6.5625 L 243.792969 6.5625 C 244.046875 6.5625 244.105469 6.523438 244.144531 6.425781 L 244.710938 5.097656 L 244.574219 5 C 244.359375 5.3125 244.203125 5.390625 243.890625 5.390625 L 240.765625 5.390625 L 239.144531 8.925781 C 239.125 8.945312 239.125 8.964844 239.125 9.003906 C 239.125 9.082031 239.183594 9.121094 239.300781 9.121094 C 239.789062 9.121094 240.375 9.21875 241 9.414062 C 242.71875 9.960938 243.5 10.898438 243.5 12.382812 C 243.5 13.808594 242.582031 14.921875 241.429688 14.921875 C 241.117188 14.921875 240.863281 14.824219 240.433594 14.492188 C 239.945312 14.160156 239.59375 14.003906 239.28125 14.003906 C 238.851562 14.003906 238.636719 14.179688 238.636719 14.550781 C 238.636719 15.117188 239.339844 15.488281 240.472656 15.488281 C 241.722656 15.488281 242.796875 15.078125 243.539062 14.316406 C 244.242188 13.652344 244.554688 12.792969 244.554688 11.660156 C 244.554688 10.585938 244.261719 9.902344 243.519531 9.140625 C 242.855469 8.496094 242.015625 8.144531 240.238281 7.832031 Z M 240.863281 6.5625 "/>
<path style=" stroke:none;fill-rule:nonzero;fill:rgb(0%,0%,0%);fill-opacity:1;" d="M 249.429688 5.175781 C 248.609375 5.175781 247.984375 5.429688 247.4375 5.957031 C 246.558594 6.777344 245.992188 8.496094 245.992188 10.253906 C 245.992188 11.875 246.5 13.632812 247.203125 14.472656 C 247.75 15.117188 248.511719 15.488281 249.371094 15.488281 C 250.132812 15.488281 250.777344 15.234375 251.324219 14.707031 C 252.183594 13.886719 252.75 12.148438 252.75 10.351562 C 252.75 7.285156 251.402344 5.175781 249.429688 5.175781 Z M 249.390625 5.566406 C 250.640625 5.566406 251.324219 7.246094 251.324219 10.371094 C 251.324219 13.496094 250.660156 15.097656 249.371094 15.097656 C 248.082031 15.097656 247.4375 13.496094 247.4375 10.390625 C 247.4375 7.226562 248.101562 5.566406 249.390625 5.566406 Z M 249.390625 5.566406 "/>
<path style=" stroke:none;fill-rule:nonzero;fill:rgb(0%,0%,0%);fill-opacity:1;" d="M 257.433594 11.425781 L 257.433594 12.382812 L 261.105469 12.382812 L 261.105469 11.425781 Z M 257.433594 11.425781 "/>
<path style=" stroke:none;fill-rule:nonzero;fill:rgb(0%,0%,0%);fill-opacity:1;" d="M 268.914062 13.222656 L 268.71875 13.144531 C 268.171875 14.003906 267.976562 14.140625 267.3125 14.140625 L 263.738281 14.140625 L 266.238281 11.503906 C 267.585938 10.117188 268.152344 8.984375 268.152344 7.8125 C 268.152344 6.328125 266.941406 5.175781 265.398438 5.175781 C 264.578125 5.175781 263.796875 5.507812 263.25 6.09375 C 262.761719 6.601562 262.546875 7.089844 262.292969 8.144531 L 262.605469 8.222656 C 263.191406 6.757812 263.738281 6.269531 264.773438 6.269531 C 266.023438 6.269531 266.882812 7.128906 266.882812 8.378906 C 266.882812 9.550781 266.179688 10.9375 264.929688 12.265625 L 262.273438 15.097656 L 262.273438 15.273438 L 268.09375 15.273438 Z M 268.914062 13.222656 "/>
<path style=" stroke:none;fill-rule:nonzero;fill:rgb(0%,0%,0%);fill-opacity:1;" d="M 271.171875 13.789062 C 270.722656 13.789062 270.351562 14.160156 270.351562 14.628906 C 270.351562 15.058594 270.722656 15.429688 271.152344 15.429688 C 271.621094 15.429688 271.992188 15.058594 271.992188 14.628906 C 271.992188 14.160156 271.621094 13.789062 271.171875 13.789062 Z M 271.171875 13.789062 "/>
<path style=" stroke:none;fill-rule:nonzero;fill:rgb(0%,0%,0%);fill-opacity:1;" d="M 280.121094 13.222656 L 279.925781 13.144531 C 279.378906 14.003906 279.183594 14.140625 278.519531 14.140625 L 274.945312 14.140625 L 277.445312 11.503906 C 278.792969 10.117188 279.359375 8.984375 279.359375 7.8125 C 279.359375 6.328125 278.148438 5.175781 276.605469 5.175781 C 275.785156 5.175781 275.003906 5.507812 274.457031 6.09375 C 273.96875 6.601562 273.753906 7.089844 273.5 8.144531 L 273.8125 8.222656 C 274.398438 6.757812 274.945312 6.269531 275.980469 6.269531 C 277.230469 6.269531 278.089844 7.128906 278.089844 8.378906 C 278.089844 9.550781 277.386719 10.9375 276.136719 12.265625 L 273.480469 15.097656 L 273.480469 15.273438 L 279.300781 15.273438 Z M 280.121094 13.222656 "/>
<path style=" stroke:none;fill-rule:nonzero;fill:rgb(0%,0%,0%);fill-opacity:1;" d="M 286.117188 13.789062 C 285.667969 13.789062 285.296875 14.160156 285.296875 14.628906 C 285.296875 15.058594 285.667969 15.429688 286.097656 15.429688 C 286.566406 15.429688 286.9375 15.058594 286.9375 14.628906 C 286.9375 14.160156 286.566406 13.789062 286.117188 13.789062 Z M 286.117188 13.789062 "/>
<path style=" stroke:none;fill-rule:nonzero;fill:rgb(0%,0%,0%);fill-opacity:1;" d="M 290.261719 10.351562 C 291.140625 10.351562 291.492188 10.371094 291.84375 10.507812 C 292.78125 10.839844 293.347656 11.679688 293.347656 12.714844 C 293.347656 13.964844 292.507812 14.941406 291.394531 14.941406 C 291.003906 14.941406 290.691406 14.84375 290.144531 14.472656 C 289.695312 14.21875 289.441406 14.101562 289.1875 14.101562 C 288.835938 14.101562 288.621094 14.316406 288.621094 14.628906 C 288.621094 15.15625 289.265625 15.488281 290.300781 15.488281 C 291.453125 15.488281 292.644531 15.097656 293.347656 14.472656 C 294.050781 13.867188 294.421875 13.007812 294.421875 11.992188 C 294.421875 11.230469 294.1875 10.527344 293.757812 10.078125 C 293.464844 9.746094 293.171875 9.570312 292.527344 9.277344 C 293.542969 8.574219 293.914062 8.027344 293.914062 7.226562 C 293.914062 6.015625 292.976562 5.175781 291.589844 5.175781 C 290.847656 5.175781 290.183594 5.429688 289.65625 5.898438 C 289.207031 6.308594 288.972656 6.699219 288.640625 7.597656 L 288.875 7.65625 C 289.480469 6.5625 290.164062 6.074219 291.101562 6.074219 C 292.078125 6.074219 292.742188 6.71875 292.742188 7.675781 C 292.742188 8.203125 292.527344 8.75 292.136719 9.121094 C 291.6875 9.570312 291.277344 9.785156 290.261719 10.15625 Z M 290.261719 10.351562 "/>
<path style=" stroke:none;fill-rule:nonzero;fill:rgb(0%,0%,0%);fill-opacity:1;" d="M 302.148438 5.390625 L 296.621094 5.390625 L 295.742188 7.578125 L 295.996094 7.695312 C 296.640625 6.679688 296.914062 6.484375 297.734375 6.484375 L 300.976562 6.484375 L 298.027344 15.390625 L 298.984375 15.390625 L 302.148438 5.625 Z M 302.148438 5.390625 "/>
<path style=" stroke:none;fill-rule:nonzero;fill:rgb(0%,0%,0%);fill-opacity:1;" d="M 309.582031 5.058594 C 307.882812 5.195312 307.023438 5.488281 305.929688 6.25 C 304.308594 7.402344 303.429688 9.101562 303.429688 11.113281 C 303.429688 12.402344 303.839844 13.710938 304.484375 14.472656 C 305.050781 15.117188 305.851562 15.488281 306.769531 15.488281 C 308.625 15.488281 309.914062 14.0625 309.914062 11.992188 C 309.914062 10.097656 308.820312 8.886719 307.101562 8.886719 C 306.457031 8.886719 306.125 8.984375 305.1875 9.550781 C 305.597656 7.285156 307.277344 5.683594 309.621094 5.292969 Z M 306.535156 9.570312 C 307.824219 9.570312 308.566406 10.644531 308.566406 12.5 C 308.566406 14.160156 307.980469 15.058594 306.945312 15.058594 C 305.617188 15.058594 304.816406 13.652344 304.816406 11.347656 C 304.816406 10.585938 304.933594 10.15625 305.246094 9.941406 C 305.558594 9.707031 306.007812 9.570312 306.535156 9.570312 Z M 306.535156 9.570312 "/>
<path style=" stroke:none;fill-rule:nonzero;fill:rgb(0%,0%,0%);fill-opacity:1;" d="M 317.089844 5.390625 L 311.5625 5.390625 L 310.683594 7.578125 L 310.9375 7.695312 C 311.582031 6.679688 311.855469 6.484375 312.675781 6.484375 L 315.917969 6.484375 L 312.96875 15.390625 L 313.925781 15.390625 L 317.089844 5.625 Z M 317.089844 5.390625 "/>
<path style=" stroke:none;fill-rule:nonzero;fill:rgb(0%,0%,0%);fill-opacity:1;" d="M 322.1875 11.425781 L 322.1875 12.382812 L 325.859375 12.382812 L 325.859375 11.425781 Z M 322.1875 11.425781 "/>
<path style=" stroke:none;fill-rule:nonzero;fill:rgb(0%,0%,0%);fill-opacity:1;" d="M 333.667969 13.222656 L 333.472656 13.144531 C 332.925781 14.003906 332.730469 14.140625 332.066406 14.140625 L 328.492188 14.140625 L 330.992188 11.503906 C 332.339844 10.117188 332.90625 8.984375 332.90625 7.8125 C 332.90625 6.328125 331.695312 5.175781 330.152344 5.175781 C 329.332031 5.175781 328.550781 5.507812 328.003906 6.09375 C 327.515625 6.601562 327.300781 7.089844 327.046875 8.144531 L 327.359375 8.222656 C 327.945312 6.757812 328.492188 6.269531 329.527344 6.269531 C 330.777344 6.269531 331.636719 7.128906 331.636719 8.378906 C 331.636719 9.550781 330.933594 10.9375 329.683594 12.265625 L 327.027344 15.097656 L 327.027344 15.273438 L 332.847656 15.273438 Z M 333.667969 13.222656 "/>
<path style=" stroke:none;fill-rule:nonzero;fill:rgb(0%,0%,0%);fill-opacity:1;" d="M 335.921875 13.789062 C 335.472656 13.789062 335.101562 14.160156 335.101562 14.628906 C 335.101562 15.058594 335.472656 15.429688 335.902344 15.429688 C 336.371094 15.429688 336.742188 15.058594 336.742188 14.628906 C 336.742188 14.160156 336.371094 13.789062 335.921875 13.789062 Z M 335.921875 13.789062 "/>
<path style=" stroke:none;fill-rule:nonzero;fill:rgb(0%,0%,0%);fill-opacity:1;" d="M 344.292969 13.789062 C 343.84375 13.789062 343.472656 14.160156 343.472656 14.628906 C 343.472656 15.058594 343.84375 15.429688 344.273438 15.429688 C 344.742188 15.429688 345.113281 15.058594 345.113281 14.628906 C 345.113281 14.160156 344.742188 13.789062 344.292969 13.789062 Z M 344.292969 13.789062 "/>
<path style=" stroke:none;fill-rule:nonzero;fill:rgb(0%,0%,0%);fill-opacity:1;" d="M 353.203125 11.816406 L 351.679688 11.816406 L 351.679688 5.175781 L 351.015625 5.175781 L 346.328125 11.816406 L 346.328125 12.773438 L 350.527344 12.773438 L 350.527344 15.273438 L 351.679688 15.273438 L 351.679688 12.773438 L 353.203125 12.773438 Z M 350.507812 11.816406 L 346.933594 11.816406 L 350.507812 6.699219 Z M 350.507812 11.816406 "/>
<path style=" stroke:none;fill-rule:nonzero;fill:rgb(0%,0%,0%);fill-opacity:1;" d="M 357.414062 5.175781 C 356.59375 5.175781 355.96875 5.429688 355.421875 5.957031 C 354.542969 6.777344 353.976562 8.496094 353.976562 10.253906 C 353.976562 11.875 354.484375 13.632812 355.1875 14.472656 C 355.734375 15.117188 356.496094 15.488281 357.355469 15.488281 C 358.117188 15.488281 358.761719 15.234375 359.308594 14.707031 C 360.167969 13.886719 360.734375 12.148438 360.734375 10.351562 C 360.734375 7.285156 359.386719 5.175781 357.414062 5.175781 Z M 357.375 5.566406 C 358.625 5.566406 359.308594 7.246094 359.308594 10.371094 C 359.308594 13.496094 358.644531 15.097656 357.355469 15.097656 C 356.066406 15.097656 355.421875 13.496094 355.421875 10.390625 C 355.421875 7.226562 356.085938 5.566406 357.375 5.566406 Z M 357.375 5.566406 "/>
<path style=" stroke:none;fill-rule:nonzero;fill:rgb(0%,0%,0%);fill-opacity:1;" d="M 364.886719 5.175781 C 364.066406 5.175781 363.441406 5.429688 362.894531 5.957031 C 362.015625 6.777344 361.449219 8.496094 361.449219 10.253906 C 361.449219 11.875 361.957031 13.632812 362.660156 14.472656 C 363.207031 15.117188 363.96875 15.488281 364.828125 15.488281 C 365.589844 15.488281 366.234375 15.234375 366.78125 14.707031 C 367.640625 13.886719 368.207031 12.148438 368.207031 10.351562 C 368.207031 7.285156 366.859375 5.175781 364.886719 5.175781 Z M 364.847656 5.566406 C 366.097656 5.566406 366.78125 7.246094 366.78125 10.371094 C 366.78125 13.496094 366.117188 15.097656 364.828125 15.097656 C 363.539062 15.097656 362.894531 13.496094 362.894531 10.390625 C 362.894531 7.226562 363.558594 5.566406 364.847656 5.566406 Z M 364.847656 5.566406 "/>
<path style=" stroke:none;fill-rule:nonzero;fill:rgb(0%,0%,0%);fill-opacity:1;" d="M 372.359375 5.175781 C 371.539062 5.175781 370.914062 5.429688 370.367188 5.957031 C 369.488281 6.777344 368.921875 8.496094 368.921875 10.253906 C 368.921875 11.875 369.429688 13.632812 370.132812 14.472656 C 370.679688 15.117188 371.441406 15.488281 372.300781 15.488281 C 373.0625 15.488281 373.707031 15.234375 374.253906 14.707031 C 375.113281 13.886719 375.679688 12.148438 375.679688 10.351562 C 375.679688 7.285156 374.332031 5.175781 372.359375 5.175781 Z M 372.320312 5.566406 C 373.570312 5.566406 374.253906 7.246094 374.253906 10.371094 C 374.253906 13.496094 373.589844 15.097656 372.300781 15.097656 C 371.011719 15.097656 370.367188 13.496094 370.367188 10.390625 C 370.367188 7.226562 371.03125 5.566406 372.320312 5.566406 Z M 372.320312 5.566406 "/>
<path style=" stroke:none;fill-rule:nonzero;fill:rgb(0%,0%,0%);fill-opacity:1;" d="M 380.363281 11.425781 L 380.363281 12.382812 L 384.035156 12.382812 L 384.035156 11.425781 Z M 380.363281 11.425781 "/>
<path style=" stroke:none;fill-rule:nonzero;fill:rgb(0%,0%,0%);fill-opacity:1;" d="M 389.109375 5.175781 L 386.414062 6.523438 L 386.414062 6.738281 C 386.589844 6.660156 386.765625 6.601562 386.824219 6.582031 C 387.078125 6.464844 387.332031 6.40625 387.488281 6.40625 C 387.800781 6.40625 387.9375 6.640625 387.9375 7.109375 L 387.9375 13.886719 C 387.9375 14.375 387.820312 14.726562 387.585938 14.863281 C 387.351562 14.980469 387.136719 15.039062 386.511719 15.058594 L 386.511719 15.273438 L 390.632812 15.273438 L 390.632812 15.058594 C 389.460938 15.039062 389.226562 14.882812 389.226562 14.160156 L 389.226562 5.195312 Z M 389.109375 5.175781 "/>
<path style=" stroke:none;fill-rule:nonzero;fill:rgb(0%,0%,0%);fill-opacity:1;" d="M 394.101562 13.789062 C 393.652344 13.789062 393.28125 14.160156 393.28125 14.628906 C 393.28125 15.058594 393.652344 15.429688 394.082031 15.429688 C 394.550781 15.429688 394.921875 15.058594 394.921875 14.628906 C 394.921875 14.160156 394.550781 13.789062 394.101562 13.789062 Z M 394.101562 13.789062 "/>
<path style=" stroke:none;fill-rule:nonzero;fill:rgb(0%,0%,0%);fill-opacity:1;" d="M 400.296875 9.726562 C 401.78125 8.945312 402.289062 8.320312 402.289062 7.285156 C 402.289062 6.074219 401.214844 5.175781 399.730469 5.175781 C 398.089844 5.175781 396.878906 6.171875 396.878906 7.539062 C 396.878906 8.496094 397.171875 8.945312 398.734375 10.3125 C 397.132812 11.542969 396.800781 11.992188 396.800781 13.007812 C 396.800781 14.472656 397.972656 15.488281 399.671875 15.488281 C 401.46875 15.488281 402.601562 14.492188 402.601562 12.949219 C 402.601562 11.816406 402.09375 11.074219 400.296875 9.726562 Z M 400.023438 11.269531 C 401.117188 12.050781 401.46875 12.578125 401.46875 13.417969 C 401.46875 14.394531 400.804688 15.058594 399.828125 15.058594 C 398.695312 15.058594 397.933594 14.199219 397.933594 12.890625 C 397.933594 11.933594 398.265625 11.308594 399.125 10.605469 Z M 399.867188 9.453125 C 398.539062 8.59375 397.992188 7.910156 397.992188 7.070312 C 397.992188 6.210938 398.65625 5.585938 399.613281 5.585938 C 400.628906 5.585938 401.273438 6.25 401.273438 7.285156 C 401.273438 8.125 400.84375 8.808594 400.003906 9.375 C 399.925781 9.414062 399.925781 9.414062 399.867188 9.453125 Z M 399.867188 9.453125 "/>
<path style=" stroke:none;fill-rule:nonzero;fill:rgb(0%,0%,0%);fill-opacity:1;" d="M 409.042969 13.789062 C 408.59375 13.789062 408.222656 14.160156 408.222656 14.628906 C 408.222656 15.058594 408.59375 15.429688 409.023438 15.429688 C 409.492188 15.429688 409.863281 15.058594 409.863281 14.628906 C 409.863281 14.160156 409.492188 13.789062 409.042969 13.789062 Z M 409.042969 13.789062 "/>
<path style=" stroke:none;fill-rule:nonzero;fill:rgb(0%,0%,0%);fill-opacity:1;" d="M 417.957031 11.816406 L 416.433594 11.816406 L 416.433594 5.175781 L 415.769531 5.175781 L 411.082031 11.816406 L 411.082031 12.773438 L 415.28125 12.773438 L 415.28125 15.273438 L 416.433594 15.273438 L 416.433594 12.773438 L 417.957031 12.773438 Z M 415.261719 11.816406 L 411.6875 11.816406 L 415.261719 6.699219 Z M 415.261719 11.816406 "/>
<path style=" stroke:none;fill-rule:nonzero;fill:rgb(0%,0%,0%);fill-opacity:1;" d="M 425.46875 13.222656 L 425.273438 13.144531 C 424.726562 14.003906 424.53125 14.140625 423.867188 14.140625 L 420.292969 14.140625 L 422.792969 11.503906 C 424.140625 10.117188 424.707031 8.984375 424.707031 7.8125 C 424.707031 6.328125 423.496094 5.175781 421.953125 5.175781 C 421.132812 5.175781 420.351562 5.507812 419.804688 6.09375 C 419.316406 6.601562 419.101562 7.089844 418.847656 8.144531 L 419.160156 8.222656 C 419.746094 6.757812 420.292969 6.269531 421.328125 6.269531 C 422.578125 6.269531 423.4375 7.128906 423.4375 8.378906 C 423.4375 9.550781 422.734375 10.9375 421.484375 12.265625 L 418.828125 15.097656 L 418.828125 15.273438 L 424.648438 15.273438 Z M 425.46875 13.222656 "/>
<path style=" stroke:none;fill-rule:nonzero;fill:rgb(0%,0%,0%);fill-opacity:1;" d="M 432.902344 11.816406 L 431.378906 11.816406 L 431.378906 5.175781 L 430.714844 5.175781 L 426.027344 11.816406 L 426.027344 12.773438 L 430.226562 12.773438 L 430.226562 15.273438 L 431.378906 15.273438 L 431.378906 12.773438 L 432.902344 12.773438 Z M 430.207031 11.816406 L 426.632812 11.816406 L 430.207031 6.699219 Z M 430.207031 11.816406 "/>
<path style=" stroke:none;fill-rule:nonzero;fill:rgb(0%,0%,0%);fill-opacity:1;" d="M 436.015625 6.5625 L 438.945312 6.5625 C 439.199219 6.5625 439.257812 6.523438 439.296875 6.425781 L 439.863281 5.097656 L 439.726562 5 C 439.511719 5.3125 439.355469 5.390625 439.042969 5.390625 L 435.917969 5.390625 L 434.296875 8.925781 C 434.277344 8.945312 434.277344 8.964844 434.277344 9.003906 C 434.277344 9.082031 434.335938 9.121094 434.453125 9.121094 C 434.941406 9.121094 435.527344 9.21875 436.152344 9.414062 C 437.871094 9.960938 438.652344 10.898438 438.652344 12.382812 C 438.652344 13.808594 437.734375 14.921875 436.582031 14.921875 C 436.269531 14.921875 436.015625 14.824219 435.585938 14.492188 C 435.097656 14.160156 434.746094 14.003906 434.433594 14.003906 C 434.003906 14.003906 433.789062 14.179688 433.789062 14.550781 C 433.789062 15.117188 434.492188 15.488281 435.625 15.488281 C 436.875 15.488281 437.949219 15.078125 438.691406 14.316406 C 439.394531 13.652344 439.707031 12.792969 439.707031 11.660156 C 439.707031 10.585938 439.414062 9.902344 438.671875 9.140625 C 438.007812 8.496094 437.167969 8.144531 435.390625 7.832031 Z M 436.015625 6.5625 "/>
<path style=" stroke:none;fill-rule:nonzero;fill:rgb(0%,0%,0%);fill-opacity:1;" d="M 445.117188 11.425781 L 445.117188 12.382812 L 448.789062 12.382812 L 448.789062 11.425781 Z M 445.117188 11.425781 "/>
<path style=" stroke:none;fill-rule:nonzero;fill:rgb(0%,0%,0%);fill-opacity:1;" d="M 453.863281 5.175781 L 451.167969 6.523438 L 451.167969 6.738281 C 451.34375 6.660156 451.519531 6.601562 451.578125 6.582031 C 451.832031 6.464844 452.085938 6.40625 452.242188 6.40625 C 452.554688 6.40625 452.691406 6.640625 452.691406 7.109375 L 452.691406 13.886719 C 452.691406 14.375 452.574219 14.726562 452.339844 14.863281 C 452.105469 14.980469 451.890625 15.039062 451.265625 15.058594 L 451.265625 15.273438 L 455.386719 15.273438 L 455.386719 15.058594 C 454.214844 15.039062 453.980469 14.882812 453.980469 14.160156 L 453.980469 5.195312 Z M 453.863281 5.175781 "/>
<path style=" stroke:none;fill-rule:nonzero;fill:rgb(0%,0%,0%);fill-opacity:1;" d="M 458.851562 13.789062 C 458.402344 13.789062 458.03125 14.160156 458.03125 14.628906 C 458.03125 15.058594 458.402344 15.429688 458.832031 15.429688 C 459.300781 15.429688 459.671875 15.058594 459.671875 14.628906 C 459.671875 14.160156 459.300781 13.789062 458.851562 13.789062 Z M 458.851562 13.789062 "/>
<path style=" stroke:none;fill-rule:nonzero;fill:rgb(0%,0%,0%);fill-opacity:1;" d="M 467.375 5.058594 C 465.675781 5.195312 464.816406 5.488281 463.722656 6.25 C 462.101562 7.402344 461.222656 9.101562 461.222656 11.113281 C 461.222656 12.402344 461.632812 13.710938 462.277344 14.472656 C 462.84375 15.117188 463.644531 15.488281 464.5625 15.488281 C 466.417969 15.488281 467.707031 14.0625 467.707031 11.992188 C 467.707031 10.097656 466.613281 8.886719 464.894531 8.886719 C 464.25 8.886719 463.917969 8.984375 462.980469 9.550781 C 463.390625 7.285156 465.070312 5.683594 467.414062 5.292969 Z M 464.328125 9.570312 C 465.617188 9.570312 466.359375 10.644531 466.359375 12.5 C 466.359375 14.160156 465.773438 15.058594 464.738281 15.058594 C 463.410156 15.058594 462.609375 13.652344 462.609375 11.347656 C 462.609375 10.585938 462.726562 10.15625 463.039062 9.941406 C 463.351562 9.707031 463.800781 9.570312 464.328125 9.570312 Z M 464.328125 9.570312 "/>
<path style=" stroke:none;fill-rule:nonzero;fill:rgb(0%,0%,0%);fill-opacity:1;" d="M 473.796875 13.789062 C 473.347656 13.789062 472.976562 14.160156 472.976562 14.628906 C 472.976562 15.058594 473.347656 15.429688 473.777344 15.429688 C 474.246094 15.429688 474.617188 15.058594 474.617188 14.628906 C 474.617188 14.160156 474.246094 13.789062 473.796875 13.789062 Z M 473.796875 13.789062 "/>
<path style=" stroke:none;fill-rule:nonzero;fill:rgb(0%,0%,0%);fill-opacity:1;" d="M 482.707031 11.816406 L 481.183594 11.816406 L 481.183594 5.175781 L 480.519531 5.175781 L 475.832031 11.816406 L 475.832031 12.773438 L 480.03125 12.773438 L 480.03125 15.273438 L 481.183594 15.273438 L 481.183594 12.773438 L 482.707031 12.773438 Z M 480.011719 11.816406 L 476.4375 11.816406 L 480.011719 6.699219 Z M 480.011719 11.816406 "/>
<path style=" stroke:none;fill-rule:nonzero;fill:rgb(0%,0%,0%);fill-opacity:1;" d="M 490.179688 11.816406 L 488.65625 11.816406 L 488.65625 5.175781 L 487.992188 5.175781 L 483.304688 11.816406 L 483.304688 12.773438 L 487.503906 12.773438 L 487.503906 15.273438 L 488.65625 15.273438 L 488.65625 12.773438 L 490.179688 12.773438 Z M 487.484375 11.816406 L 483.910156 11.816406 L 487.484375 6.699219 Z M 487.484375 11.816406 "/>
<path style=" stroke:none;fill-rule:nonzero;fill:rgb(0%,0%,0%);fill-opacity:1;" d="M 491.480469 15.605469 C 493.160156 15.410156 493.980469 15.117188 494.996094 14.394531 C 496.539062 13.261719 497.457031 11.40625 497.457031 9.394531 C 497.457031 6.914062 496.089844 5.175781 494.15625 5.175781 C 492.378906 5.175781 491.050781 6.679688 491.050781 8.691406 C 491.050781 10.527344 492.125 11.738281 493.746094 11.738281 C 494.566406 11.738281 495.191406 11.484375 495.972656 10.878906 C 495.367188 13.320312 493.707031 14.921875 491.441406 15.3125 Z M 496.011719 9.960938 C 496.011719 10.273438 495.953125 10.410156 495.777344 10.527344 C 495.367188 10.898438 494.820312 11.09375 494.273438 11.09375 C 493.140625 11.09375 492.417969 9.960938 492.417969 8.183594 C 492.417969 7.34375 492.671875 6.445312 492.984375 6.054688 C 493.238281 5.761719 493.609375 5.585938 494.039062 5.585938 C 495.347656 5.585938 496.011719 6.875 496.011719 9.394531 Z M 496.011719 9.960938 "/>
<path style=" stroke:none;fill-rule:nonzero;fill:rgb(0%,0%,0%);fill-opacity:1;" d="M 505.125 11.816406 L 503.601562 11.816406 L 503.601562 5.175781 L 502.9375 5.175781 L 498.25 11.816406 L 498.25 12.773438 L 502.449219 12.773438 L 502.449219 15.273438 L 503.601562 15.273438 L 503.601562 12.773438 L 505.125 12.773438 Z M 502.429688 11.816406 L 498.855469 11.816406 L 502.429688 6.699219 Z M 502.429688 11.816406 "/>
<path style=" stroke:none;fill-rule:nonzero;fill:rgb(0%,0%,0%);fill-opacity:1;" d="M 509.867188 11.425781 L 509.867188 12.382812 L 513.539062 12.382812 L 513.539062 11.425781 Z M 509.867188 11.425781 "/>
<path style=" stroke:none;fill-rule:nonzero;fill:rgb(0%,0%,0%);fill-opacity:1;" d="M 518.613281 5.175781 L 515.917969 6.523438 L 515.917969 6.738281 C 516.09375 6.660156 516.269531 6.601562 516.328125 6.582031 C 516.582031 6.464844 516.835938 6.40625 516.992188 6.40625 C 517.304688 6.40625 517.441406 6.640625 517.441406 7.109375 L 517.441406 13.886719 C 517.441406 14.375 517.324219 14.726562 517.089844 14.863281 C 516.855469 14.980469 516.640625 15.039062 516.015625 15.058594 L 516.015625 15.273438 L 520.136719 15.273438 L 520.136719 15.058594 C 518.964844 15.039062 518.730469 14.882812 518.730469 14.160156 L 518.730469 5.195312 Z M 518.613281 5.175781 "/>
<path style=" stroke:none;fill-rule:nonzero;fill:rgb(0%,0%,0%);fill-opacity:1;" d="M 523.605469 13.789062 C 523.15625 13.789062 522.785156 14.160156 522.785156 14.628906 C 522.785156 15.058594 523.15625 15.429688 523.585938 15.429688 C 524.054688 15.429688 524.425781 15.058594 524.425781 14.628906 C 524.425781 14.160156 524.054688 13.789062 523.605469 13.789062 Z M 523.605469 13.789062 "/>
<path style=" stroke:none;fill-rule:nonzero;fill:rgb(0%,0%,0%);fill-opacity:1;" d="M 532.515625 11.816406 L 530.992188 11.816406 L 530.992188 5.175781 L 530.328125 5.175781 L 525.640625 11.816406 L 525.640625 12.773438 L 529.839844 12.773438 L 529.839844 15.273438 L 530.992188 15.273438 L 530.992188 12.773438 L 532.515625 12.773438 Z M 529.820312 11.816406 L 526.246094 11.816406 L 529.820312 6.699219 Z M 529.820312 11.816406 "/>
<path style=" stroke:none;fill-rule:nonzero;fill:rgb(0%,0%,0%);fill-opacity:1;" d="M 538.550781 13.789062 C 538.101562 13.789062 537.730469 14.160156 537.730469 14.628906 C 537.730469 15.058594 538.101562 15.429688 538.53125 15.429688 C 539 15.429688 539.371094 15.058594 539.371094 14.628906 C 539.371094 14.160156 539 13.789062 538.550781 13.789062 Z M 538.550781 13.789062 "/>
<path style=" stroke:none;fill-rule:nonzero;fill:rgb(0%,0%,0%);fill-opacity:1;" d="M 547.460938 11.816406 L 545.9375 11.816406 L 545.9375 5.175781 L 545.273438 5.175781 L 540.585938 11.816406 L 540.585938 12.773438 L 544.785156 12.773438 L 544.785156 15.273438 L 545.9375 15.273438 L 545.9375 12.773438 L 547.460938 12.773438 Z M 544.765625 11.816406 L 541.191406 11.816406 L 544.765625 6.699219 Z M 544.765625 11.816406 "/>
<path style=" stroke:none;fill-rule:nonzero;fill:rgb(0%,0%,0%);fill-opacity:1;" d="M 554.582031 5.390625 L 549.054688 5.390625 L 548.175781 7.578125 L 548.429688 7.695312 C 549.074219 6.679688 549.347656 6.484375 550.167969 6.484375 L 553.410156 6.484375 L 550.460938 15.390625 L 551.417969 15.390625 L 554.582031 5.625 Z M 554.582031 5.390625 "/>
<path style=" stroke:none;fill-rule:nonzero;fill:rgb(0%,0%,0%);fill-opacity:1;" d="M 557.640625 10.351562 C 558.519531 10.351562 558.871094 10.371094 559.222656 10.507812 C 560.160156 10.839844 560.726562 11.679688 560.726562 12.714844 C 560.726562 13.964844 559.886719 14.941406 558.773438 14.941406 C 558.382812 14.941406 558.070312 14.84375 557.523438 14.472656 C 557.074219 14.21875 556.820312 14.101562 556.566406 14.101562 C 556.214844 14.101562 556 14.316406 556 14.628906 C 556 15.15625 556.644531 15.488281 557.679688 15.488281 C 558.832031 15.488281 560.023438 15.097656 560.726562 14.472656 C 561.429688 13.867188 561.800781 13.007812 561.800781 11.992188 C 561.800781 11.230469 561.566406 10.527344 561.136719 10.078125 C 560.84375 9.746094 560.550781 9.570312 559.90625 9.277344 C 560.921875 8.574219 561.292969 8.027344 561.292969 7.226562 C 561.292969 6.015625 560.355469 5.175781 558.96875 5.175781 C 558.226562 5.175781 557.5625 5.429688 557.035156 5.898438 C 556.585938 6.308594 556.351562 6.699219 556.019531 7.597656 L 556.253906 7.65625 C 556.859375 6.5625 557.542969 6.074219 558.480469 6.074219 C 559.457031 6.074219 560.121094 6.71875 560.121094 7.675781 C 560.121094 8.203125 559.90625 8.75 559.515625 9.121094 C 559.066406 9.570312 558.65625 9.785156 557.640625 10.15625 Z M 557.640625 10.351562 "/>
<path style=" stroke:none;fill-rule:nonzero;fill:rgb(0%,0%,0%);fill-opacity:1;" d="M 566.617188 5.175781 C 565.796875 5.175781 565.171875 5.429688 564.625 5.957031 C 563.746094 6.777344 563.179688 8.496094 563.179688 10.253906 C 563.179688 11.875 563.6875 13.632812 564.390625 14.472656 C 564.9375 15.117188 565.699219 15.488281 566.558594 15.488281 C 567.320312 15.488281 567.964844 15.234375 568.511719 14.707031 C 569.371094 13.886719 569.9375 12.148438 569.9375 10.351562 C 569.9375 7.285156 568.589844 5.175781 566.617188 5.175781 Z M 566.578125 5.566406 C 567.828125 5.566406 568.511719 7.246094 568.511719 10.371094 C 568.511719 13.496094 567.847656 15.097656 566.558594 15.097656 C 565.269531 15.097656 564.625 13.496094 564.625 10.390625 C 564.625 7.226562 565.289062 5.566406 566.578125 5.566406 Z M 566.578125 5.566406 "/>
<path style=" stroke:none;fill-rule:nonzero;fill:rgb(0%,0%,0%);fill-opacity:1;" d="M 574.621094 11.425781 L 574.621094 12.382812 L 578.292969 12.382812 L 578.292969 11.425781 Z M 574.621094 11.425781 "/>
<path style=" stroke:none;fill-rule:nonzero;fill:rgb(0%,0%,0%);fill-opacity:1;" d="M 583.367188 5.175781 L 580.671875 6.523438 L 580.671875 6.738281 C 580.847656 6.660156 581.023438 6.601562 581.082031 6.582031 C 581.335938 6.464844 581.589844 6.40625 581.746094 6.40625 C 582.058594 6.40625 582.195312 6.640625 582.195312 7.109375 L 582.195312 13.886719 C 582.195312 14.375 582.078125 14.726562 581.84375 14.863281 C 581.609375 14.980469 581.394531 15.039062 580.769531 15.058594 L 580.769531 15.273438 L 584.890625 15.273438 L 584.890625 15.058594 C 583.71875 15.039062 583.484375 14.882812 583.484375 14.160156 L 583.484375 5.195312 Z M 583.367188 5.175781 "/>
<path style=" stroke:none;fill-rule:nonzero;fill:rgb(0%,0%,0%);fill-opacity:1;" d="M 588.359375 13.789062 C 587.910156 13.789062 587.539062 14.160156 587.539062 14.628906 C 587.539062 15.058594 587.910156 15.429688 588.339844 15.429688 C 588.808594 15.429688 589.179688 15.058594 589.179688 14.628906 C 589.179688 14.160156 588.808594 13.789062 588.359375 13.789062 Z M 588.359375 13.789062 "/>
<path style=" stroke:none;fill-rule:nonzero;fill:rgb(0%,0%,0%);fill-opacity:1;" d="M 597.308594 13.222656 L 597.113281 13.144531 C 596.566406 14.003906 596.371094 14.140625 595.707031 14.140625 L 592.132812 14.140625 L 594.632812 11.503906 C 595.980469 10.117188 596.546875 8.984375 596.546875 7.8125 C 596.546875 6.328125 595.335938 5.175781 593.792969 5.175781 C 592.972656 5.175781 592.191406 5.507812 591.644531 6.09375 C 591.15625 6.601562 590.941406 7.089844 590.6875 8.144531 L 591 8.222656 C 591.585938 6.757812 592.132812 6.269531 593.167969 6.269531 C 594.417969 6.269531 595.277344 7.128906 595.277344 8.378906 C 595.277344 9.550781 594.574219 10.9375 593.324219 12.265625 L 590.667969 15.097656 L 590.667969 15.273438 L 596.488281 15.273438 Z M 597.308594 13.222656 "/>
<path style=" stroke:none;fill-rule:nonzero;fill:rgb(0%,0%,0%);fill-opacity:1;" d="M 603.300781 13.789062 C 602.851562 13.789062 602.480469 14.160156 602.480469 14.628906 C 602.480469 15.058594 602.851562 15.429688 603.28125 15.429688 C 603.75 15.429688 604.121094 15.058594 604.121094 14.628906 C 604.121094 14.160156 603.75 13.789062 603.300781 13.789062 Z M 603.300781 13.789062 "/>
<path style=" stroke:none;fill-rule:nonzero;fill:rgb(0%,0%,0%);fill-opacity:1;" d="M 612.214844 11.816406 L 610.691406 11.816406 L 610.691406 5.175781 L 610.027344 5.175781 L 605.339844 11.816406 L 605.339844 12.773438 L 609.539062 12.773438 L 609.539062 15.273438 L 610.691406 15.273438 L 610.691406 12.773438 L 612.214844 12.773438 Z M 609.519531 11.816406 L 605.945312 11.816406 L 609.519531 6.699219 Z M 609.519531 11.816406 "/>
<path style=" stroke:none;fill-rule:nonzero;fill:rgb(0%,0%,0%);fill-opacity:1;" d="M 613.515625 15.605469 C 615.195312 15.410156 616.015625 15.117188 617.03125 14.394531 C 618.574219 13.261719 619.492188 11.40625 619.492188 9.394531 C 619.492188 6.914062 618.125 5.175781 616.191406 5.175781 C 614.414062 5.175781 613.085938 6.679688 613.085938 8.691406 C 613.085938 10.527344 614.160156 11.738281 615.78125 11.738281 C 616.601562 11.738281 617.226562 11.484375 618.007812 10.878906 C 617.402344 13.320312 615.742188 14.921875 613.476562 15.3125 Z M 618.046875 9.960938 C 618.046875 10.273438 617.988281 10.410156 617.8125 10.527344 C 617.402344 10.898438 616.855469 11.09375 616.308594 11.09375 C 615.175781 11.09375 614.453125 9.960938 614.453125 8.183594 C 614.453125 7.34375 614.707031 6.445312 615.019531 6.054688 C 615.273438 5.761719 615.644531 5.585938 616.074219 5.585938 C 617.382812 5.585938 618.046875 6.875 618.046875 9.394531 Z M 618.046875 9.960938 "/>
<path style=" stroke:none;fill-rule:nonzero;fill:rgb(0%,0%,0%);fill-opacity:1;" d="M 624.460938 5.175781 L 621.765625 6.523438 L 621.765625 6.738281 C 621.941406 6.660156 622.117188 6.601562 622.175781 6.582031 C 622.429688 6.464844 622.683594 6.40625 622.839844 6.40625 C 623.152344 6.40625 623.289062 6.640625 623.289062 7.109375 L 623.289062 13.886719 C 623.289062 14.375 623.171875 14.726562 622.9375 14.863281 C 622.703125 14.980469 622.488281 15.039062 621.863281 15.058594 L 621.863281 15.273438 L 625.984375 15.273438 L 625.984375 15.058594 C 624.8125 15.039062 624.578125 14.882812 624.578125 14.160156 L 624.578125 5.195312 Z M 624.460938 5.175781 "/>
<path style=" stroke:none;fill-rule:nonzero;fill:rgb(0%,0%,0%);fill-opacity:1;" d="M 631.914062 9.726562 C 633.398438 8.945312 633.90625 8.320312 633.90625 7.285156 C 633.90625 6.074219 632.832031 5.175781 631.347656 5.175781 C 629.707031 5.175781 628.496094 6.171875 628.496094 7.539062 C 628.496094 8.496094 628.789062 8.945312 630.351562 10.3125 C 628.75 11.542969 628.417969 11.992188 628.417969 13.007812 C 628.417969 14.472656 629.589844 15.488281 631.289062 15.488281 C 633.085938 15.488281 634.21875 14.492188 634.21875 12.949219 C 634.21875 11.816406 633.710938 11.074219 631.914062 9.726562 Z M 631.640625 11.269531 C 632.734375 12.050781 633.085938 12.578125 633.085938 13.417969 C 633.085938 14.394531 632.421875 15.058594 631.445312 15.058594 C 630.3125 15.058594 629.550781 14.199219 629.550781 12.890625 C 629.550781 11.933594 629.882812 11.308594 630.742188 10.605469 Z M 631.484375 9.453125 C 630.15625 8.59375 629.609375 7.910156 629.609375 7.070312 C 629.609375 6.210938 630.273438 5.585938 631.230469 5.585938 C 632.246094 5.585938 632.890625 6.25 632.890625 7.285156 C 632.890625 8.125 632.460938 8.808594 631.621094 9.375 C 631.542969 9.414062 631.542969 9.414062 631.484375 9.453125 Z M 631.484375 9.453125 "/>
<path style=" stroke:none;fill-rule:nonzero;fill:rgb(0%,0%,0%);fill-opacity:1;" d="M 639.371094 11.425781 L 639.371094 12.382812 L 643.042969 12.382812 L 643.042969 11.425781 Z M 639.371094 11.425781 "/>
<path style=" stroke:none;fill-rule:nonzero;fill:rgb(0%,0%,0%);fill-opacity:1;" d="M 648.117188 5.175781 L 645.421875 6.523438 L 645.421875 6.738281 C 645.597656 6.660156 645.773438 6.601562 645.832031 6.582031 C 646.085938 6.464844 646.339844 6.40625 646.496094 6.40625 C 646.808594 6.40625 646.945312 6.640625 646.945312 7.109375 L 646.945312 13.886719 C 646.945312 14.375 646.828125 14.726562 646.59375 14.863281 C 646.359375 14.980469 646.144531 15.039062 645.519531 15.058594 L 645.519531 15.273438 L 649.640625 15.273438 L 649.640625 15.058594 C 648.46875 15.039062 648.234375 14.882812 648.234375 14.160156 L 648.234375 5.195312 Z M 648.117188 5.175781 "/>
<path style=" stroke:none;fill-rule:nonzero;fill:rgb(0%,0%,0%);fill-opacity:1;" d="M 653.109375 13.789062 C 652.660156 13.789062 652.289062 14.160156 652.289062 14.628906 C 652.289062 15.058594 652.660156 15.429688 653.089844 15.429688 C 653.558594 15.429688 653.929688 15.058594 653.929688 14.628906 C 653.929688 14.160156 653.558594 13.789062 653.109375 13.789062 Z M 653.109375 13.789062 "/>
<path style=" stroke:none;fill-rule:nonzero;fill:rgb(0%,0%,0%);fill-opacity:1;" d="M 661.480469 13.789062 C 661.03125 13.789062 660.660156 14.160156 660.660156 14.628906 C 660.660156 15.058594 661.03125 15.429688 661.460938 15.429688 C 661.929688 15.429688 662.300781 15.058594 662.300781 14.628906 C 662.300781 14.160156 661.929688 13.789062 661.480469 13.789062 Z M 661.480469 13.789062 "/>
<path style=" stroke:none;fill-rule:nonzero;fill:rgb(0%,0%,0%);fill-opacity:1;" d="M 666.035156 6.5625 L 668.964844 6.5625 C 669.21875 6.5625 669.277344 6.523438 669.316406 6.425781 L 669.882812 5.097656 L 669.746094 5 C 669.53125 5.3125 669.375 5.390625 669.0625 5.390625 L 665.9375 5.390625 L 664.316406 8.925781 C 664.296875 8.945312 664.296875 8.964844 664.296875 9.003906 C 664.296875 9.082031 664.355469 9.121094 664.472656 9.121094 C 664.960938 9.121094 665.546875 9.21875 666.171875 9.414062 C 667.890625 9.960938 668.671875 10.898438 668.671875 12.382812 C 668.671875 13.808594 667.753906 14.921875 666.601562 14.921875 C 666.289062 14.921875 666.035156 14.824219 665.605469 14.492188 C 665.117188 14.160156 664.765625 14.003906 664.453125 14.003906 C 664.023438 14.003906 663.808594 14.179688 663.808594 14.550781 C 663.808594 15.117188 664.511719 15.488281 665.644531 15.488281 C 666.894531 15.488281 667.96875 15.078125 668.710938 14.316406 C 669.414062 13.652344 669.726562 12.792969 669.726562 11.660156 C 669.726562 10.585938 669.433594 9.902344 668.691406 9.140625 C 668.027344 8.496094 667.1875 8.144531 665.410156 7.832031 Z M 666.035156 6.5625 "/>
<path style=" stroke:none;fill-rule:nonzero;fill:rgb(0%,0%,0%);fill-opacity:1;" d="M 674.601562 5.175781 C 673.78125 5.175781 673.15625 5.429688 672.609375 5.957031 C 671.730469 6.777344 671.164062 8.496094 671.164062 10.253906 C 671.164062 11.875 671.671875 13.632812 672.375 14.472656 C 672.921875 15.117188 673.683594 15.488281 674.542969 15.488281 C 675.304688 15.488281 675.949219 15.234375 676.496094 14.707031 C 677.355469 13.886719 677.921875 12.148438 677.921875 10.351562 C 677.921875 7.285156 676.574219 5.175781 674.601562 5.175781 Z M 674.5625 5.566406 C 675.8125 5.566406 676.496094 7.246094 676.496094 10.371094 C 676.496094 13.496094 675.832031 15.097656 674.542969 15.097656 C 673.253906 15.097656 672.609375 13.496094 672.609375 10.390625 C 672.609375 7.226562 673.273438 5.566406 674.5625 5.566406 Z M 674.5625 5.566406 "/>
<path style=" stroke:none;fill-rule:nonzero;fill:rgb(0%,0%,0%);fill-opacity:1;" d="M 682.074219 5.175781 C 681.253906 5.175781 680.628906 5.429688 680.082031 5.957031 C 679.203125 6.777344 678.636719 8.496094 678.636719 10.253906 C 678.636719 11.875 679.144531 13.632812 679.847656 14.472656 C 680.394531 15.117188 681.15625 15.488281 682.015625 15.488281 C 682.777344 15.488281 683.421875 15.234375 683.96875 14.707031 C 684.828125 13.886719 685.394531 12.148438 685.394531 10.351562 C 685.394531 7.285156 684.046875 5.175781 682.074219 5.175781 Z M 682.035156 5.566406 C 683.285156 5.566406 683.96875 7.246094 683.96875 10.371094 C 683.96875 13.496094 683.304688 15.097656 682.015625 15.097656 C 680.726562 15.097656 680.082031 13.496094 680.082031 10.390625 C 680.082031 7.226562 680.746094 5.566406 682.035156 5.566406 Z M 682.035156 5.566406 "/>
<path style=" stroke:none;fill-rule:nonzero;fill:rgb(0%,0%,0%);fill-opacity:1;" d="M 689.542969 5.175781 C 688.722656 5.175781 688.097656 5.429688 687.550781 5.957031 C 686.671875 6.777344 686.105469 8.496094 686.105469 10.253906 C 686.105469 11.875 686.613281 13.632812 687.316406 14.472656 C 687.863281 15.117188 688.625 15.488281 689.484375 15.488281 C 690.246094 15.488281 690.890625 15.234375 691.4375 14.707031 C 692.296875 13.886719 692.863281 12.148438 692.863281 10.351562 C 692.863281 7.285156 691.515625 5.175781 689.542969 5.175781 Z M 689.503906 5.566406 C 690.753906 5.566406 691.4375 7.246094 691.4375 10.371094 C 691.4375 13.496094 690.773438 15.097656 689.484375 15.097656 C 688.195312 15.097656 687.550781 13.496094 687.550781 10.390625 C 687.550781 7.226562 688.214844 5.566406 689.503906 5.566406 Z M 689.503906 5.566406 "/>
</g>
</svg>
