<?xml version="1.0" encoding="UTF-8"?>
<svg xmlns="http://www.w3.org/2000/svg" xmlns:xlink="http://www.w3.org/1999/xlink" width="612.50049pt" height="20.605469pt" viewBox="0 0 612.50049 20.605469" version="1.1">
<g id="surface209">
<path style=" stroke:none;fill-rule:nonzero;fill:rgb(0%,0%,0%);fill-opacity:1;" d="M 5 11.425781 L 5 12.382812 L 8.671875 12.382812 L 8.671875 11.425781 Z M 5 11.425781 "/>
<path style=" stroke:none;fill-rule:nonzero;fill:rgb(0%,0%,0%);fill-opacity:1;" d="M 13.746094 5.175781 L 11.050781 6.523438 L 11.050781 6.738281 C 11.226562 6.660156 11.402344 6.601562 11.460938 6.582031 C 11.714844 6.464844 11.96875 6.40625 12.125 6.40625 C 12.4375 6.40625 12.574219 6.640625 12.574219 7.109375 L 12.574219 13.886719 C 12.574219 14.375 12.457031 14.726562 12.222656 14.863281 C 11.988281 14.980469 11.773438 15.039062 11.148438 15.058594 L 11.148438 15.273438 L 15.269531 15.273438 L 15.269531 15.058594 C 14.097656 15.039062 13.863281 14.882812 13.863281 14.160156 L 13.863281 5.195312 Z M 13.746094 5.175781 "/>
<path style=" stroke:none;fill-rule:nonzero;fill:rgb(0%,0%,0%);fill-opacity:1;" d="M 18.738281 13.789062 C 18.289062 13.789062 17.917969 14.160156 17.917969 14.628906 C 17.917969 15.058594 18.289062 15.429688 18.71875 15.429688 C 19.1875 15.429688 19.558594 15.058594 19.558594 14.628906 C 19.558594 14.160156 19.1875 13.789062 18.738281 13.789062 Z M 18.738281 13.789062 "/>
<path style=" stroke:none;fill-rule:nonzero;fill:rgb(0%,0%,0%);fill-opacity:1;" d="M 25.816406 11.425781 L 25.816406 12.382812 L 29.488281 12.382812 L 29.488281 11.425781 Z M 25.816406 11.425781 "/>
<path style=" stroke:none;fill-rule:nonzero;fill:rgb(0%,0%,0%);fill-opacity:1;" d="M 34.5625 5.175781 L 31.867188 6.523438 L 31.867188 6.738281 C 32.042969 6.660156 32.21875 6.601562 32.277344 6.582031 C 32.53125 6.464844 32.785156 6.40625 32.941406 6.40625 C 33.253906 6.40625 33.390625 6.640625 33.390625 7.109375 L 33.390625 13.886719 C 33.390625 14.375 33.273438 14.726562 33.039062 14.863281 C 32.804688 14.980469 32.589844 15.039062 31.964844 15.058594 L 31.964844 15.273438 L 36.085938 15.273438 L 36.085938 15.058594 C 34.914062 15.039062 34.679688 14.882812 34.679688 14.160156 L 34.679688 5.195312 Z M 34.5625 5.175781 "/>
<path style=" stroke:none;fill-rule:nonzero;fill:rgb(0%,0%,0%);fill-opacity:1;" d="M 39.554688 13.789062 C 39.105469 13.789062 38.734375 14.160156 38.734375 14.628906 C 38.734375 15.058594 39.105469 15.429688 39.535156 15.429688 C 40.003906 15.429688 40.375 15.058594 40.375 14.628906 C 40.375 14.160156 40.003906 13.789062 39.554688 13.789062 Z M 39.554688 13.789062 "/>
<path style=" stroke:none;fill-rule:nonzero;fill:rgb(0%,0%,0%);fill-opacity:1;" d="M 42.292969 15.605469 C 43.972656 15.410156 44.792969 15.117188 45.808594 14.394531 C 47.351562 13.261719 48.269531 11.40625 48.269531 9.394531 C 48.269531 6.914062 46.902344 5.175781 44.96875 5.175781 C 43.191406 5.175781 41.863281 6.679688 41.863281 8.691406 C 41.863281 10.527344 42.9375 11.738281 44.558594 11.738281 C 45.378906 11.738281 46.003906 11.484375 46.785156 10.878906 C 46.179688 13.320312 44.519531 14.921875 42.253906 15.3125 Z M 46.824219 9.960938 C 46.824219 10.273438 46.765625 10.410156 46.589844 10.527344 C 46.179688 10.898438 45.632812 11.09375 45.085938 11.09375 C 43.953125 11.09375 43.230469 9.960938 43.230469 8.183594 C 43.230469 7.34375 43.484375 6.445312 43.796875 6.054688 C 44.050781 5.761719 44.421875 5.585938 44.851562 5.585938 C 46.160156 5.585938 46.824219 6.875 46.824219 9.394531 Z M 46.824219 9.960938 "/>
<path style=" stroke:none;fill-rule:nonzero;fill:rgb(0%,0%,0%);fill-opacity:1;" d="M 51.171875 10.351562 C 52.050781 10.351562 52.402344 10.371094 52.753906 10.507812 C 53.691406 10.839844 54.257812 11.679688 54.257812 12.714844 C 54.257812 13.964844 53.417969 14.941406 52.304688 14.941406 C 51.914062 14.941406 51.601562 14.84375 51.054688 14.472656 C 50.605469 14.21875 50.351562 14.101562 50.097656 14.101562 C 49.746094 14.101562 49.53125 14.316406 49.53125 14.628906 C 49.53125 15.15625 50.175781 15.488281 51.210938 15.488281 C 52.363281 15.488281 53.554688 15.097656 54.257812 14.472656 C 54.960938 13.867188 55.332031 13.007812 55.332031 11.992188 C 55.332031 11.230469 55.097656 10.527344 54.667969 10.078125 C 54.375 9.746094 54.082031 9.570312 53.4375 9.277344 C 54.453125 8.574219 54.824219 8.027344 54.824219 7.226562 C 54.824219 6.015625 53.886719 5.175781 52.5 5.175781 C 51.757812 5.175781 51.09375 5.429688 50.566406 5.898438 C 50.117188 6.308594 49.882812 6.699219 49.550781 7.597656 L 49.785156 7.65625 C 50.390625 6.5625 51.074219 6.074219 52.011719 6.074219 C 52.988281 6.074219 53.652344 6.71875 53.652344 7.675781 C 53.652344 8.203125 53.4375 8.75 53.046875 9.121094 C 52.597656 9.570312 52.1875 9.785156 51.171875 10.15625 Z M 51.171875 10.351562 "/>
<path style=" stroke:none;fill-rule:nonzero;fill:rgb(0%,0%,0%);fill-opacity:1;" d="M 60.695312 9.726562 C 62.179688 8.945312 62.6875 8.320312 62.6875 7.285156 C 62.6875 6.074219 61.613281 5.175781 60.128906 5.175781 C 58.488281 5.175781 57.277344 6.171875 57.277344 7.539062 C 57.277344 8.496094 57.570312 8.945312 59.132812 10.3125 C 57.53125 11.542969 57.199219 11.992188 57.199219 13.007812 C 57.199219 14.472656 58.371094 15.488281 60.070312 15.488281 C 61.867188 15.488281 63 14.492188 63 12.949219 C 63 11.816406 62.492188 11.074219 60.695312 9.726562 Z M 60.421875 11.269531 C 61.515625 12.050781 61.867188 12.578125 61.867188 13.417969 C 61.867188 14.394531 61.203125 15.058594 60.226562 15.058594 C 59.09375 15.058594 58.332031 14.199219 58.332031 12.890625 C 58.332031 11.933594 58.664062 11.308594 59.523438 10.605469 Z M 60.265625 9.453125 C 58.9375 8.59375 58.390625 7.910156 58.390625 7.070312 C 58.390625 6.210938 59.054688 5.585938 60.011719 5.585938 C 61.027344 5.585938 61.671875 6.25 61.671875 7.285156 C 61.671875 8.125 61.242188 8.808594 60.402344 9.375 C 60.324219 9.414062 60.324219 9.414062 60.265625 9.453125 Z M 60.265625 9.453125 "/>
<path style=" stroke:none;fill-rule:nonzero;fill:rgb(0%,0%,0%);fill-opacity:1;" d="M 68.152344 11.425781 L 68.152344 12.382812 L 71.824219 12.382812 L 71.824219 11.425781 Z M 68.152344 11.425781 "/>
<path style=" stroke:none;fill-rule:nonzero;fill:rgb(0%,0%,0%);fill-opacity:1;" d="M 74.417969 13.789062 C 73.96875 13.789062 73.597656 14.160156 73.597656 14.628906 C 73.597656 15.058594 73.96875 15.429688 74.398438 15.429688 C 74.867188 15.429688 75.238281 15.058594 75.238281 14.628906 C 75.238281 14.160156 74.867188 13.789062 74.417969 13.789062 Z M 74.417969 13.789062 "/>
<path style=" stroke:none;fill-rule:nonzero;fill:rgb(0%,0%,0%);fill-opacity:1;" d="M 78.976562 6.5625 L 81.90625 6.5625 C 82.160156 6.5625 82.21875 6.523438 82.257812 6.425781 L 82.824219 5.097656 L 82.6875 5 C 82.472656 5.3125 82.316406 5.390625 82.003906 5.390625 L 78.878906 5.390625 L 77.257812 8.925781 C 77.238281 8.945312 77.238281 8.964844 77.238281 9.003906 C 77.238281 9.082031 77.296875 9.121094 77.414062 9.121094 C 77.902344 9.121094 78.488281 9.21875 79.113281 9.414062 C 80.832031 9.960938 81.613281 10.898438 81.613281 12.382812 C 81.613281 13.808594 80.695312 14.921875 79.542969 14.921875 C 79.230469 14.921875 78.976562 14.824219 78.546875 14.492188 C 78.058594 14.160156 77.707031 14.003906 77.394531 14.003906 C 76.964844 14.003906 76.75 14.179688 76.75 14.550781 C 76.75 15.117188 77.453125 15.488281 78.585938 15.488281 C 79.835938 15.488281 80.910156 15.078125 81.652344 14.316406 C 82.355469 13.652344 82.667969 12.792969 82.667969 11.660156 C 82.667969 10.585938 82.375 9.902344 81.632812 9.140625 C 80.96875 8.496094 80.128906 8.144531 78.351562 7.832031 Z M 78.976562 6.5625 "/>
<path style=" stroke:none;fill-rule:nonzero;fill:rgb(0%,0%,0%);fill-opacity:1;" d="M 87.539062 5.175781 C 86.71875 5.175781 86.09375 5.429688 85.546875 5.957031 C 84.667969 6.777344 84.101562 8.496094 84.101562 10.253906 C 84.101562 11.875 84.609375 13.632812 85.3125 14.472656 C 85.859375 15.117188 86.621094 15.488281 87.480469 15.488281 C 88.242188 15.488281 88.886719 15.234375 89.433594 14.707031 C 90.292969 13.886719 90.859375 12.148438 90.859375 10.351562 C 90.859375 7.285156 89.511719 5.175781 87.539062 5.175781 Z M 87.5 5.566406 C 88.75 5.566406 89.433594 7.246094 89.433594 10.371094 C 89.433594 13.496094 88.769531 15.097656 87.480469 15.097656 C 86.191406 15.097656 85.546875 13.496094 85.546875 10.390625 C 85.546875 7.226562 86.210938 5.566406 87.5 5.566406 Z M 87.5 5.566406 "/>
<path style=" stroke:none;fill-rule:nonzero;fill:rgb(0%,0%,0%);fill-opacity:1;" d="M 95.546875 11.425781 L 95.546875 12.382812 L 99.21875 12.382812 L 99.21875 11.425781 Z M 95.546875 11.425781 "/>
<path style=" stroke:none;fill-rule:nonzero;fill:rgb(0%,0%,0%);fill-opacity:1;" d="M 101.8125 13.789062 C 101.363281 13.789062 100.992188 14.160156 100.992188 14.628906 C 100.992188 15.058594 101.363281 15.429688 101.792969 15.429688 C 102.261719 15.429688 102.632812 15.058594 102.632812 14.628906 C 102.632812 14.160156 102.261719 13.789062 101.8125 13.789062 Z M 101.8125 13.789062 "/>
<path style=" stroke:none;fill-rule:nonzero;fill:rgb(0%,0%,0%);fill-opacity:1;" d="M 110.332031 5.058594 C 108.632812 5.195312 107.773438 5.488281 106.679688 6.25 C 105.058594 7.402344 104.179688 9.101562 104.179688 11.113281 C 104.179688 12.402344 104.589844 13.710938 105.234375 14.472656 C 105.800781 15.117188 106.601562 15.488281 107.519531 15.488281 C 109.375 15.488281 110.664062 14.0625 110.664062 11.992188 C 110.664062 10.097656 109.570312 8.886719 107.851562 8.886719 C 107.207031 8.886719 106.875 8.984375 105.9375 9.550781 C 106.347656 7.285156 108.027344 5.683594 110.371094 5.292969 Z M 107.285156 9.570312 C 108.574219 9.570312 109.316406 10.644531 109.316406 12.5 C 109.316406 14.160156 108.730469 15.058594 107.695312 15.058594 C 106.367188 15.058594 105.566406 13.652344 105.566406 11.347656 C 105.566406 10.585938 105.683594 10.15625 105.996094 9.941406 C 106.308594 9.707031 106.757812 9.570312 107.285156 9.570312 Z M 107.285156 9.570312 "/>
<path style=" stroke:none;fill-rule:nonzero;fill:rgb(0%,0%,0%);fill-opacity:1;" d="M 117.804688 5.058594 C 116.105469 5.195312 115.246094 5.488281 114.152344 6.25 C 112.53125 7.402344 111.652344 9.101562 111.652344 11.113281 C 111.652344 12.402344 112.0625 13.710938 112.707031 14.472656 C 113.273438 15.117188 114.074219 15.488281 114.992188 15.488281 C 116.847656 15.488281 118.136719 14.0625 118.136719 11.992188 C 118.136719 10.097656 117.042969 8.886719 115.324219 8.886719 C 114.679688 8.886719 114.347656 8.984375 113.410156 9.550781 C 113.820312 7.285156 115.5 5.683594 117.84375 5.292969 Z M 114.757812 9.570312 C 116.046875 9.570312 116.789062 10.644531 116.789062 12.5 C 116.789062 14.160156 116.203125 15.058594 115.167969 15.058594 C 113.839844 15.058594 113.039062 13.652344 113.039062 11.347656 C 113.039062 10.585938 113.15625 10.15625 113.46875 9.941406 C 113.78125 9.707031 114.230469 9.570312 114.757812 9.570312 Z M 114.757812 9.570312 "/>
<path style=" stroke:none;fill-rule:nonzero;fill:rgb(0%,0%,0%);fill-opacity:1;" d="M 119.496094 15.605469 C 121.175781 15.410156 121.996094 15.117188 123.011719 14.394531 C 124.554688 13.261719 125.472656 11.40625 125.472656 9.394531 C 125.472656 6.914062 124.105469 5.175781 122.171875 5.175781 C 120.394531 5.175781 119.066406 6.679688 119.066406 8.691406 C 119.066406 10.527344 120.140625 11.738281 121.761719 11.738281 C 122.582031 11.738281 123.207031 11.484375 123.988281 10.878906 C 123.382812 13.320312 121.722656 14.921875 119.457031 15.3125 Z M 124.027344 9.960938 C 124.027344 10.273438 123.96875 10.410156 123.792969 10.527344 C 123.382812 10.898438 122.835938 11.09375 122.289062 11.09375 C 121.15625 11.09375 120.433594 9.960938 120.433594 8.183594 C 120.433594 7.34375 120.6875 6.445312 121 6.054688 C 121.253906 5.761719 121.625 5.585938 122.054688 5.585938 C 123.363281 5.585938 124.027344 6.875 124.027344 9.394531 Z M 124.027344 9.960938 "/>
<path style=" stroke:none;fill-rule:nonzero;fill:rgb(0%,0%,0%);fill-opacity:1;" d="M 130.445312 5.175781 L 127.75 6.523438 L 127.75 6.738281 C 127.925781 6.660156 128.101562 6.601562 128.160156 6.582031 C 128.414062 6.464844 128.667969 6.40625 128.824219 6.40625 C 129.136719 6.40625 129.273438 6.640625 129.273438 7.109375 L 129.273438 13.886719 C 129.273438 14.375 129.15625 14.726562 128.921875 14.863281 C 128.6875 14.980469 128.472656 15.039062 127.847656 15.058594 L 127.847656 15.273438 L 131.96875 15.273438 L 131.96875 15.058594 C 130.796875 15.039062 130.5625 14.882812 130.5625 14.160156 L 130.5625 5.195312 Z M 130.445312 5.175781 "/>
<path style=" stroke:none;fill-rule:nonzero;fill:rgb(0%,0%,0%);fill-opacity:1;" d="M 141.085938 5.175781 C 140.265625 5.175781 139.640625 5.429688 139.09375 5.957031 C 138.214844 6.777344 137.648438 8.496094 137.648438 10.253906 C 137.648438 11.875 138.15625 13.632812 138.859375 14.472656 C 139.40625 15.117188 140.167969 15.488281 141.027344 15.488281 C 141.789062 15.488281 142.433594 15.234375 142.980469 14.707031 C 143.839844 13.886719 144.40625 12.148438 144.40625 10.351562 C 144.40625 7.285156 143.058594 5.175781 141.085938 5.175781 Z M 141.046875 5.566406 C 142.296875 5.566406 142.980469 7.246094 142.980469 10.371094 C 142.980469 13.496094 142.316406 15.097656 141.027344 15.097656 C 139.738281 15.097656 139.09375 13.496094 139.09375 10.390625 C 139.09375 7.226562 139.757812 5.566406 141.046875 5.566406 Z M 141.046875 5.566406 "/>
<path style=" stroke:none;fill-rule:nonzero;fill:rgb(0%,0%,0%);fill-opacity:1;" d="M 152.292969 5.175781 C 151.472656 5.175781 150.847656 5.429688 150.300781 5.957031 C 149.421875 6.777344 148.855469 8.496094 148.855469 10.253906 C 148.855469 11.875 149.363281 13.632812 150.066406 14.472656 C 150.613281 15.117188 151.375 15.488281 152.234375 15.488281 C 152.996094 15.488281 153.640625 15.234375 154.1875 14.707031 C 155.046875 13.886719 155.613281 12.148438 155.613281 10.351562 C 155.613281 7.285156 154.265625 5.175781 152.292969 5.175781 Z M 152.253906 5.566406 C 153.503906 5.566406 154.1875 7.246094 154.1875 10.371094 C 154.1875 13.496094 153.523438 15.097656 152.234375 15.097656 C 150.945312 15.097656 150.300781 13.496094 150.300781 10.390625 C 150.300781 7.226562 150.964844 5.566406 152.253906 5.566406 Z M 152.253906 5.566406 "/>
<path style=" stroke:none;fill-rule:nonzero;fill:rgb(0%,0%,0%);fill-opacity:1;" d="M 161.585938 13.789062 C 161.136719 13.789062 160.765625 14.160156 160.765625 14.628906 C 160.765625 15.058594 161.136719 15.429688 161.566406 15.429688 C 162.035156 15.429688 162.40625 15.058594 162.40625 14.628906 C 162.40625 14.160156 162.035156 13.789062 161.585938 13.789062 Z M 161.585938 13.789062 "/>
<path style=" stroke:none;fill-rule:nonzero;fill:rgb(0%,0%,0%);fill-opacity:1;" d="M 166.144531 6.5625 L 169.074219 6.5625 C 169.328125 6.5625 169.386719 6.523438 169.425781 6.425781 L 169.992188 5.097656 L 169.855469 5 C 169.640625 5.3125 169.484375 5.390625 169.171875 5.390625 L 166.046875 5.390625 L 164.425781 8.925781 C 164.40625 8.945312 164.40625 8.964844 164.40625 9.003906 C 164.40625 9.082031 164.464844 9.121094 164.582031 9.121094 C 165.070312 9.121094 165.65625 9.21875 166.28125 9.414062 C 168 9.960938 168.78125 10.898438 168.78125 12.382812 C 168.78125 13.808594 167.863281 14.921875 166.710938 14.921875 C 166.398438 14.921875 166.144531 14.824219 165.714844 14.492188 C 165.226562 14.160156 164.875 14.003906 164.5625 14.003906 C 164.132812 14.003906 163.917969 14.179688 163.917969 14.550781 C 163.917969 15.117188 164.621094 15.488281 165.753906 15.488281 C 167.003906 15.488281 168.078125 15.078125 168.820312 14.316406 C 169.523438 13.652344 169.835938 12.792969 169.835938 11.660156 C 169.835938 10.585938 169.542969 9.902344 168.800781 9.140625 C 168.136719 8.496094 167.296875 8.144531 165.519531 7.832031 Z M 166.144531 6.5625 "/>
<path style=" stroke:none;fill-rule:nonzero;fill:rgb(0%,0%,0%);fill-opacity:1;" d="M 174.710938 5.175781 C 173.890625 5.175781 173.265625 5.429688 172.71875 5.957031 C 171.839844 6.777344 171.273438 8.496094 171.273438 10.253906 C 171.273438 11.875 171.78125 13.632812 172.484375 14.472656 C 173.03125 15.117188 173.792969 15.488281 174.652344 15.488281 C 175.414062 15.488281 176.058594 15.234375 176.605469 14.707031 C 177.464844 13.886719 178.03125 12.148438 178.03125 10.351562 C 178.03125 7.285156 176.683594 5.175781 174.710938 5.175781 Z M 174.671875 5.566406 C 175.921875 5.566406 176.605469 7.246094 176.605469 10.371094 C 176.605469 13.496094 175.941406 15.097656 174.652344 15.097656 C 173.363281 15.097656 172.71875 13.496094 172.71875 10.390625 C 172.71875 7.226562 173.382812 5.566406 174.671875 5.566406 Z M 174.671875 5.566406 "/>
<path style=" stroke:none;fill-rule:nonzero;fill:rgb(0%,0%,0%);fill-opacity:1;" d="M 184.003906 13.789062 C 183.554688 13.789062 183.183594 14.160156 183.183594 14.628906 C 183.183594 15.058594 183.554688 15.429688 183.984375 15.429688 C 184.453125 15.429688 184.824219 15.058594 184.824219 14.628906 C 184.824219 14.160156 184.453125 13.789062 184.003906 13.789062 Z M 184.003906 13.789062 "/>
<path style=" stroke:none;fill-rule:nonzero;fill:rgb(0%,0%,0%);fill-opacity:1;" d="M 192.914062 11.816406 L 191.390625 11.816406 L 191.390625 5.175781 L 190.726562 5.175781 L 186.039062 11.816406 L 186.039062 12.773438 L 190.238281 12.773438 L 190.238281 15.273438 L 191.390625 15.273438 L 191.390625 12.773438 L 192.914062 12.773438 Z M 190.21875 11.816406 L 186.644531 11.816406 L 190.21875 6.699219 Z M 190.21875 11.816406 "/>
<path style=" stroke:none;fill-rule:nonzero;fill:rgb(0%,0%,0%);fill-opacity:1;" d="M 197.125 5.175781 C 196.304688 5.175781 195.679688 5.429688 195.132812 5.957031 C 194.253906 6.777344 193.6875 8.496094 193.6875 10.253906 C 193.6875 11.875 194.195312 13.632812 194.898438 14.472656 C 195.445312 15.117188 196.207031 15.488281 197.066406 15.488281 C 197.828125 15.488281 198.472656 15.234375 199.019531 14.707031 C 199.878906 13.886719 200.445312 12.148438 200.445312 10.351562 C 200.445312 7.285156 199.097656 5.175781 197.125 5.175781 Z M 197.085938 5.566406 C 198.335938 5.566406 199.019531 7.246094 199.019531 10.371094 C 199.019531 13.496094 198.355469 15.097656 197.066406 15.097656 C 195.777344 15.097656 195.132812 13.496094 195.132812 10.390625 C 195.132812 7.226562 195.796875 5.566406 197.085938 5.566406 Z M 197.085938 5.566406 "/>
<path style=" stroke:none;fill-rule:nonzero;fill:rgb(0%,0%,0%);fill-opacity:1;" d="M 203.503906 6.5625 L 206.433594 6.5625 C 206.6875 6.5625 206.746094 6.523438 206.785156 6.425781 L 207.351562 5.097656 L 207.214844 5 C 207 5.3125 206.84375 5.390625 206.53125 5.390625 L 203.40625 5.390625 L 201.785156 8.925781 C 201.765625 8.945312 201.765625 8.964844 201.765625 9.003906 C 201.765625 9.082031 201.824219 9.121094 201.941406 9.121094 C 202.429688 9.121094 203.015625 9.21875 203.640625 9.414062 C 205.359375 9.960938 206.140625 10.898438 206.140625 12.382812 C 206.140625 13.808594 205.222656 14.921875 204.070312 14.921875 C 203.757812 14.921875 203.503906 14.824219 203.074219 14.492188 C 202.585938 14.160156 202.234375 14.003906 201.921875 14.003906 C 201.492188 14.003906 201.277344 14.179688 201.277344 14.550781 C 201.277344 15.117188 201.980469 15.488281 203.113281 15.488281 C 204.363281 15.488281 205.4375 15.078125 206.179688 14.316406 C 206.882812 13.652344 207.195312 12.792969 207.195312 11.660156 C 207.195312 10.585938 206.902344 9.902344 206.160156 9.140625 C 205.496094 8.496094 204.65625 8.144531 202.878906 7.832031 Z M 203.503906 6.5625 "/>
<path style=" stroke:none;fill-rule:nonzero;fill:rgb(0%,0%,0%);fill-opacity:1;" d="M 212.617188 9.726562 C 214.101562 8.945312 214.609375 8.320312 214.609375 7.285156 C 214.609375 6.074219 213.535156 5.175781 212.050781 5.175781 C 210.410156 5.175781 209.199219 6.171875 209.199219 7.539062 C 209.199219 8.496094 209.492188 8.945312 211.054688 10.3125 C 209.453125 11.542969 209.121094 11.992188 209.121094 13.007812 C 209.121094 14.472656 210.292969 15.488281 211.992188 15.488281 C 213.789062 15.488281 214.921875 14.492188 214.921875 12.949219 C 214.921875 11.816406 214.414062 11.074219 212.617188 9.726562 Z M 212.34375 11.269531 C 213.4375 12.050781 213.789062 12.578125 213.789062 13.417969 C 213.789062 14.394531 213.125 15.058594 212.148438 15.058594 C 211.015625 15.058594 210.253906 14.199219 210.253906 12.890625 C 210.253906 11.933594 210.585938 11.308594 211.445312 10.605469 Z M 212.1875 9.453125 C 210.859375 8.59375 210.3125 7.910156 210.3125 7.070312 C 210.3125 6.210938 210.976562 5.585938 211.933594 5.585938 C 212.949219 5.585938 213.59375 6.25 213.59375 7.285156 C 213.59375 8.125 213.164062 8.808594 212.324219 9.375 C 212.246094 9.414062 212.246094 9.414062 212.1875 9.453125 Z M 212.1875 9.453125 "/>
<path style=" stroke:none;fill-rule:nonzero;fill:rgb(0%,0%,0%);fill-opacity:1;" d="M 223.84375 5.175781 L 221.148438 6.523438 L 221.148438 6.738281 C 221.324219 6.660156 221.5 6.601562 221.558594 6.582031 C 221.8125 6.464844 222.066406 6.40625 222.222656 6.40625 C 222.535156 6.40625 222.671875 6.640625 222.671875 7.109375 L 222.671875 13.886719 C 222.671875 14.375 222.554688 14.726562 222.320312 14.863281 C 222.085938 14.980469 221.871094 15.039062 221.246094 15.058594 L 221.246094 15.273438 L 225.367188 15.273438 L 225.367188 15.058594 C 224.195312 15.039062 223.960938 14.882812 223.960938 14.160156 L 223.960938 5.195312 Z M 223.84375 5.175781 "/>
<path style=" stroke:none;fill-rule:nonzero;fill:rgb(0%,0%,0%);fill-opacity:1;" d="M 228.835938 13.789062 C 228.386719 13.789062 228.015625 14.160156 228.015625 14.628906 C 228.015625 15.058594 228.386719 15.429688 228.816406 15.429688 C 229.285156 15.429688 229.65625 15.058594 229.65625 14.628906 C 229.65625 14.160156 229.285156 13.789062 228.835938 13.789062 Z M 228.835938 13.789062 "/>
<path style=" stroke:none;fill-rule:nonzero;fill:rgb(0%,0%,0%);fill-opacity:1;" d="M 237.203125 13.789062 C 236.753906 13.789062 236.382812 14.160156 236.382812 14.628906 C 236.382812 15.058594 236.753906 15.429688 237.183594 15.429688 C 237.652344 15.429688 238.023438 15.058594 238.023438 14.628906 C 238.023438 14.160156 237.652344 13.789062 237.203125 13.789062 Z M 237.203125 13.789062 "/>
<path style=" stroke:none;fill-rule:nonzero;fill:rgb(0%,0%,0%);fill-opacity:1;" d="M 245.765625 5.390625 L 240.238281 5.390625 L 239.359375 7.578125 L 239.613281 7.695312 C 240.257812 6.679688 240.53125 6.484375 241.351562 6.484375 L 244.59375 6.484375 L 241.644531 15.390625 L 242.601562 15.390625 L 245.765625 5.625 Z M 245.765625 5.390625 "/>
<path style=" stroke:none;fill-rule:nonzero;fill:rgb(0%,0%,0%);fill-opacity:1;" d="M 250.890625 5.175781 L 248.195312 6.523438 L 248.195312 6.738281 C 248.371094 6.660156 248.546875 6.601562 248.605469 6.582031 C 248.859375 6.464844 249.113281 6.40625 249.269531 6.40625 C 249.582031 6.40625 249.71875 6.640625 249.71875 7.109375 L 249.71875 13.886719 C 249.71875 14.375 249.601562 14.726562 249.367188 14.863281 C 249.132812 14.980469 248.917969 15.039062 248.292969 15.058594 L 248.292969 15.273438 L 252.414062 15.273438 L 252.414062 15.058594 C 251.242188 15.039062 251.007812 14.882812 251.007812 14.160156 L 251.007812 5.195312 Z M 250.890625 5.175781 "/>
<path style=" stroke:none;fill-rule:nonzero;fill:rgb(0%,0%,0%);fill-opacity:1;" d="M 261.097656 13.222656 L 260.902344 13.144531 C 260.355469 14.003906 260.160156 14.140625 259.496094 14.140625 L 255.921875 14.140625 L 258.421875 11.503906 C 259.769531 10.117188 260.335938 8.984375 260.335938 7.8125 C 260.335938 6.328125 259.125 5.175781 257.582031 5.175781 C 256.761719 5.175781 255.980469 5.507812 255.433594 6.09375 C 254.945312 6.601562 254.730469 7.089844 254.476562 8.144531 L 254.789062 8.222656 C 255.375 6.757812 255.921875 6.269531 256.957031 6.269531 C 258.207031 6.269531 259.066406 7.128906 259.066406 8.378906 C 259.066406 9.550781 258.363281 10.9375 257.113281 12.265625 L 254.457031 15.097656 L 254.457031 15.273438 L 260.277344 15.273438 Z M 261.097656 13.222656 "/>
<path style=" stroke:none;fill-rule:nonzero;fill:rgb(0%,0%,0%);fill-opacity:1;" d="M 268.140625 5.058594 C 266.441406 5.195312 265.582031 5.488281 264.488281 6.25 C 262.867188 7.402344 261.988281 9.101562 261.988281 11.113281 C 261.988281 12.402344 262.398438 13.710938 263.042969 14.472656 C 263.609375 15.117188 264.410156 15.488281 265.328125 15.488281 C 267.183594 15.488281 268.472656 14.0625 268.472656 11.992188 C 268.472656 10.097656 267.378906 8.886719 265.660156 8.886719 C 265.015625 8.886719 264.683594 8.984375 263.746094 9.550781 C 264.15625 7.285156 265.835938 5.683594 268.179688 5.292969 Z M 265.09375 9.570312 C 266.382812 9.570312 267.125 10.644531 267.125 12.5 C 267.125 14.160156 266.539062 15.058594 265.503906 15.058594 C 264.175781 15.058594 263.375 13.652344 263.375 11.347656 C 263.375 10.585938 263.492188 10.15625 263.804688 9.941406 C 264.117188 9.707031 264.566406 9.570312 265.09375 9.570312 Z M 265.09375 9.570312 "/>
<path style=" stroke:none;fill-rule:nonzero;fill:rgb(0%,0%,0%);fill-opacity:1;" d="M 277.042969 5.175781 L 274.347656 6.523438 L 274.347656 6.738281 C 274.523438 6.660156 274.699219 6.601562 274.757812 6.582031 C 275.011719 6.464844 275.265625 6.40625 275.421875 6.40625 C 275.734375 6.40625 275.871094 6.640625 275.871094 7.109375 L 275.871094 13.886719 C 275.871094 14.375 275.753906 14.726562 275.519531 14.863281 C 275.285156 14.980469 275.070312 15.039062 274.445312 15.058594 L 274.445312 15.273438 L 278.566406 15.273438 L 278.566406 15.058594 C 277.394531 15.039062 277.160156 14.882812 277.160156 14.160156 L 277.160156 5.195312 Z M 277.042969 5.175781 "/>
<path style=" stroke:none;fill-rule:nonzero;fill:rgb(0%,0%,0%);fill-opacity:1;" d="M 282.035156 13.789062 C 281.585938 13.789062 281.214844 14.160156 281.214844 14.628906 C 281.214844 15.058594 281.585938 15.429688 282.015625 15.429688 C 282.484375 15.429688 282.855469 15.058594 282.855469 14.628906 C 282.855469 14.160156 282.484375 13.789062 282.035156 13.789062 Z M 282.035156 13.789062 "/>
<path style=" stroke:none;fill-rule:nonzero;fill:rgb(0%,0%,0%);fill-opacity:1;" d="M 286.59375 6.5625 L 289.523438 6.5625 C 289.777344 6.5625 289.835938 6.523438 289.875 6.425781 L 290.441406 5.097656 L 290.304688 5 C 290.089844 5.3125 289.933594 5.390625 289.621094 5.390625 L 286.496094 5.390625 L 284.875 8.925781 C 284.855469 8.945312 284.855469 8.964844 284.855469 9.003906 C 284.855469 9.082031 284.914062 9.121094 285.03125 9.121094 C 285.519531 9.121094 286.105469 9.21875 286.730469 9.414062 C 288.449219 9.960938 289.230469 10.898438 289.230469 12.382812 C 289.230469 13.808594 288.3125 14.921875 287.160156 14.921875 C 286.847656 14.921875 286.59375 14.824219 286.164062 14.492188 C 285.675781 14.160156 285.324219 14.003906 285.011719 14.003906 C 284.582031 14.003906 284.367188 14.179688 284.367188 14.550781 C 284.367188 15.117188 285.070312 15.488281 286.203125 15.488281 C 287.453125 15.488281 288.527344 15.078125 289.269531 14.316406 C 289.972656 13.652344 290.285156 12.792969 290.285156 11.660156 C 290.285156 10.585938 289.992188 9.902344 289.25 9.140625 C 288.585938 8.496094 287.746094 8.144531 285.96875 7.832031 Z M 286.59375 6.5625 "/>
<path style=" stroke:none;fill-rule:nonzero;fill:rgb(0%,0%,0%);fill-opacity:1;" d="M 299.460938 5.175781 L 296.765625 6.523438 L 296.765625 6.738281 C 296.941406 6.660156 297.117188 6.601562 297.175781 6.582031 C 297.429688 6.464844 297.683594 6.40625 297.839844 6.40625 C 298.152344 6.40625 298.289062 6.640625 298.289062 7.109375 L 298.289062 13.886719 C 298.289062 14.375 298.171875 14.726562 297.9375 14.863281 C 297.703125 14.980469 297.488281 15.039062 296.863281 15.058594 L 296.863281 15.273438 L 300.984375 15.273438 L 300.984375 15.058594 C 299.8125 15.039062 299.578125 14.882812 299.578125 14.160156 L 299.578125 5.195312 Z M 299.460938 5.175781 "/>
<path style=" stroke:none;fill-rule:nonzero;fill:rgb(0%,0%,0%);fill-opacity:1;" d="M 304.453125 13.789062 C 304.003906 13.789062 303.632812 14.160156 303.632812 14.628906 C 303.632812 15.058594 304.003906 15.429688 304.433594 15.429688 C 304.902344 15.429688 305.273438 15.058594 305.273438 14.628906 C 305.273438 14.160156 304.902344 13.789062 304.453125 13.789062 Z M 304.453125 13.789062 "/>
<path style=" stroke:none;fill-rule:nonzero;fill:rgb(0%,0%,0%);fill-opacity:1;" d="M 310.101562 5.175781 C 309.28125 5.175781 308.65625 5.429688 308.109375 5.957031 C 307.230469 6.777344 306.664062 8.496094 306.664062 10.253906 C 306.664062 11.875 307.171875 13.632812 307.875 14.472656 C 308.421875 15.117188 309.183594 15.488281 310.042969 15.488281 C 310.804688 15.488281 311.449219 15.234375 311.996094 14.707031 C 312.855469 13.886719 313.421875 12.148438 313.421875 10.351562 C 313.421875 7.285156 312.074219 5.175781 310.101562 5.175781 Z M 310.0625 5.566406 C 311.3125 5.566406 311.996094 7.246094 311.996094 10.371094 C 311.996094 13.496094 311.332031 15.097656 310.042969 15.097656 C 308.753906 15.097656 308.109375 13.496094 308.109375 10.390625 C 308.109375 7.226562 308.773438 5.566406 310.0625 5.566406 Z M 310.0625 5.566406 "/>
<path style=" stroke:none;fill-rule:nonzero;fill:rgb(0%,0%,0%);fill-opacity:1;" d="M 317.574219 5.175781 C 316.753906 5.175781 316.128906 5.429688 315.582031 5.957031 C 314.703125 6.777344 314.136719 8.496094 314.136719 10.253906 C 314.136719 11.875 314.644531 13.632812 315.347656 14.472656 C 315.894531 15.117188 316.65625 15.488281 317.515625 15.488281 C 318.277344 15.488281 318.921875 15.234375 319.46875 14.707031 C 320.328125 13.886719 320.894531 12.148438 320.894531 10.351562 C 320.894531 7.285156 319.546875 5.175781 317.574219 5.175781 Z M 317.535156 5.566406 C 318.785156 5.566406 319.46875 7.246094 319.46875 10.371094 C 319.46875 13.496094 318.804688 15.097656 317.515625 15.097656 C 316.226562 15.097656 315.582031 13.496094 315.582031 10.390625 C 315.582031 7.226562 316.246094 5.566406 317.535156 5.566406 Z M 317.535156 5.566406 "/>
<path style=" stroke:none;fill-rule:nonzero;fill:rgb(0%,0%,0%);fill-opacity:1;" d="M 327.917969 5.058594 C 326.21875 5.195312 325.359375 5.488281 324.265625 6.25 C 322.644531 7.402344 321.765625 9.101562 321.765625 11.113281 C 321.765625 12.402344 322.175781 13.710938 322.820312 14.472656 C 323.386719 15.117188 324.1875 15.488281 325.105469 15.488281 C 326.960938 15.488281 328.25 14.0625 328.25 11.992188 C 328.25 10.097656 327.15625 8.886719 325.4375 8.886719 C 324.792969 8.886719 324.460938 8.984375 323.523438 9.550781 C 323.933594 7.285156 325.613281 5.683594 327.957031 5.292969 Z M 324.871094 9.570312 C 326.160156 9.570312 326.902344 10.644531 326.902344 12.5 C 326.902344 14.160156 326.316406 15.058594 325.28125 15.058594 C 323.953125 15.058594 323.152344 13.652344 323.152344 11.347656 C 323.152344 10.585938 323.269531 10.15625 323.582031 9.941406 C 323.894531 9.707031 324.34375 9.570312 324.871094 9.570312 Z M 324.871094 9.570312 "/>
<path style=" stroke:none;fill-rule:nonzero;fill:rgb(0%,0%,0%);fill-opacity:1;" d="M 339.554688 13.222656 L 339.359375 13.144531 C 338.8125 14.003906 338.617188 14.140625 337.953125 14.140625 L 334.378906 14.140625 L 336.878906 11.503906 C 338.226562 10.117188 338.792969 8.984375 338.792969 7.8125 C 338.792969 6.328125 337.582031 5.175781 336.039062 5.175781 C 335.21875 5.175781 334.4375 5.507812 333.890625 6.09375 C 333.402344 6.601562 333.1875 7.089844 332.933594 8.144531 L 333.246094 8.222656 C 333.832031 6.757812 334.378906 6.269531 335.414062 6.269531 C 336.664062 6.269531 337.523438 7.128906 337.523438 8.378906 C 337.523438 9.550781 336.820312 10.9375 335.570312 12.265625 L 332.914062 15.097656 L 332.914062 15.273438 L 338.734375 15.273438 Z M 339.554688 13.222656 "/>
<path style=" stroke:none;fill-rule:nonzero;fill:rgb(0%,0%,0%);fill-opacity:1;" d="M 341.8125 13.789062 C 341.363281 13.789062 340.992188 14.160156 340.992188 14.628906 C 340.992188 15.058594 341.363281 15.429688 341.792969 15.429688 C 342.261719 15.429688 342.632812 15.058594 342.632812 14.628906 C 342.632812 14.160156 342.261719 13.789062 341.8125 13.789062 Z M 341.8125 13.789062 "/>
<path style=" stroke:none;fill-rule:nonzero;fill:rgb(0%,0%,0%);fill-opacity:1;" d="M 352.660156 5.175781 L 349.964844 6.523438 L 349.964844 6.738281 C 350.140625 6.660156 350.316406 6.601562 350.375 6.582031 C 350.628906 6.464844 350.882812 6.40625 351.039062 6.40625 C 351.351562 6.40625 351.488281 6.640625 351.488281 7.109375 L 351.488281 13.886719 C 351.488281 14.375 351.371094 14.726562 351.136719 14.863281 C 350.902344 14.980469 350.6875 15.039062 350.0625 15.058594 L 350.0625 15.273438 L 354.183594 15.273438 L 354.183594 15.058594 C 353.011719 15.039062 352.777344 14.882812 352.777344 14.160156 L 352.777344 5.195312 Z M 352.660156 5.175781 "/>
<path style=" stroke:none;fill-rule:nonzero;fill:rgb(0%,0%,0%);fill-opacity:1;" d="M 357.652344 13.789062 C 357.203125 13.789062 356.832031 14.160156 356.832031 14.628906 C 356.832031 15.058594 357.203125 15.429688 357.632812 15.429688 C 358.101562 15.429688 358.472656 15.058594 358.472656 14.628906 C 358.472656 14.160156 358.101562 13.789062 357.652344 13.789062 Z M 357.652344 13.789062 "/>
<path style=" stroke:none;fill-rule:nonzero;fill:rgb(0%,0%,0%);fill-opacity:1;" d="M 361.796875 10.351562 C 362.675781 10.351562 363.027344 10.371094 363.378906 10.507812 C 364.316406 10.839844 364.882812 11.679688 364.882812 12.714844 C 364.882812 13.964844 364.042969 14.941406 362.929688 14.941406 C 362.539062 14.941406 362.226562 14.84375 361.679688 14.472656 C 361.230469 14.21875 360.976562 14.101562 360.722656 14.101562 C 360.371094 14.101562 360.15625 14.316406 360.15625 14.628906 C 360.15625 15.15625 360.800781 15.488281 361.835938 15.488281 C 362.988281 15.488281 364.179688 15.097656 364.882812 14.472656 C 365.585938 13.867188 365.957031 13.007812 365.957031 11.992188 C 365.957031 11.230469 365.722656 10.527344 365.292969 10.078125 C 365 9.746094 364.707031 9.570312 364.0625 9.277344 C 365.078125 8.574219 365.449219 8.027344 365.449219 7.226562 C 365.449219 6.015625 364.511719 5.175781 363.125 5.175781 C 362.382812 5.175781 361.71875 5.429688 361.191406 5.898438 C 360.742188 6.308594 360.507812 6.699219 360.175781 7.597656 L 360.410156 7.65625 C 361.015625 6.5625 361.699219 6.074219 362.636719 6.074219 C 363.613281 6.074219 364.277344 6.71875 364.277344 7.675781 C 364.277344 8.203125 364.0625 8.75 363.671875 9.121094 C 363.222656 9.570312 362.8125 9.785156 361.796875 10.15625 Z M 361.796875 10.351562 "/>
<path style=" stroke:none;fill-rule:nonzero;fill:rgb(0%,0%,0%);fill-opacity:1;" d="M 369.269531 10.351562 C 370.148438 10.351562 370.5 10.371094 370.851562 10.507812 C 371.789062 10.839844 372.355469 11.679688 372.355469 12.714844 C 372.355469 13.964844 371.515625 14.941406 370.402344 14.941406 C 370.011719 14.941406 369.699219 14.84375 369.152344 14.472656 C 368.703125 14.21875 368.449219 14.101562 368.195312 14.101562 C 367.84375 14.101562 367.628906 14.316406 367.628906 14.628906 C 367.628906 15.15625 368.273438 15.488281 369.308594 15.488281 C 370.460938 15.488281 371.652344 15.097656 372.355469 14.472656 C 373.058594 13.867188 373.429688 13.007812 373.429688 11.992188 C 373.429688 11.230469 373.195312 10.527344 372.765625 10.078125 C 372.472656 9.746094 372.179688 9.570312 371.535156 9.277344 C 372.550781 8.574219 372.921875 8.027344 372.921875 7.226562 C 372.921875 6.015625 371.984375 5.175781 370.597656 5.175781 C 369.855469 5.175781 369.191406 5.429688 368.664062 5.898438 C 368.214844 6.308594 367.980469 6.699219 367.648438 7.597656 L 367.882812 7.65625 C 368.488281 6.5625 369.171875 6.074219 370.109375 6.074219 C 371.085938 6.074219 371.75 6.71875 371.75 7.675781 C 371.75 8.203125 371.535156 8.75 371.144531 9.121094 C 370.695312 9.570312 370.285156 9.785156 369.269531 10.15625 Z M 369.269531 10.351562 "/>
<path style=" stroke:none;fill-rule:nonzero;fill:rgb(0%,0%,0%);fill-opacity:1;" d="M 381.507812 11.816406 L 379.984375 11.816406 L 379.984375 5.175781 L 379.320312 5.175781 L 374.632812 11.816406 L 374.632812 12.773438 L 378.832031 12.773438 L 378.832031 15.273438 L 379.984375 15.273438 L 379.984375 12.773438 L 381.507812 12.773438 Z M 378.8125 11.816406 L 375.238281 11.816406 L 378.8125 6.699219 Z M 378.8125 11.816406 "/>
<path style=" stroke:none;fill-rule:nonzero;fill:rgb(0%,0%,0%);fill-opacity:1;" d="M 392.753906 13.222656 L 392.558594 13.144531 C 392.011719 14.003906 391.816406 14.140625 391.152344 14.140625 L 387.578125 14.140625 L 390.078125 11.503906 C 391.425781 10.117188 391.992188 8.984375 391.992188 7.8125 C 391.992188 6.328125 390.78125 5.175781 389.238281 5.175781 C 388.417969 5.175781 387.636719 5.507812 387.089844 6.09375 C 386.601562 6.601562 386.386719 7.089844 386.132812 8.144531 L 386.445312 8.222656 C 387.03125 6.757812 387.578125 6.269531 388.613281 6.269531 C 389.863281 6.269531 390.722656 7.128906 390.722656 8.378906 C 390.722656 9.550781 390.019531 10.9375 388.769531 12.265625 L 386.113281 15.097656 L 386.113281 15.273438 L 391.933594 15.273438 Z M 392.753906 13.222656 "/>
<path style=" stroke:none;fill-rule:nonzero;fill:rgb(0%,0%,0%);fill-opacity:1;" d="M 395.011719 13.789062 C 394.5625 13.789062 394.191406 14.160156 394.191406 14.628906 C 394.191406 15.058594 394.5625 15.429688 394.992188 15.429688 C 395.460938 15.429688 395.832031 15.058594 395.832031 14.628906 C 395.832031 14.160156 395.460938 13.789062 395.011719 13.789062 Z M 395.011719 13.789062 "/>
<path style=" stroke:none;fill-rule:nonzero;fill:rgb(0%,0%,0%);fill-opacity:1;" d="M 399.570312 6.5625 L 402.5 6.5625 C 402.753906 6.5625 402.8125 6.523438 402.851562 6.425781 L 403.417969 5.097656 L 403.28125 5 C 403.066406 5.3125 402.910156 5.390625 402.597656 5.390625 L 399.472656 5.390625 L 397.851562 8.925781 C 397.832031 8.945312 397.832031 8.964844 397.832031 9.003906 C 397.832031 9.082031 397.890625 9.121094 398.007812 9.121094 C 398.496094 9.121094 399.082031 9.21875 399.707031 9.414062 C 401.425781 9.960938 402.207031 10.898438 402.207031 12.382812 C 402.207031 13.808594 401.289062 14.921875 400.136719 14.921875 C 399.824219 14.921875 399.570312 14.824219 399.140625 14.492188 C 398.652344 14.160156 398.300781 14.003906 397.988281 14.003906 C 397.558594 14.003906 397.34375 14.179688 397.34375 14.550781 C 397.34375 15.117188 398.046875 15.488281 399.179688 15.488281 C 400.429688 15.488281 401.503906 15.078125 402.246094 14.316406 C 402.949219 13.652344 403.261719 12.792969 403.261719 11.660156 C 403.261719 10.585938 402.96875 9.902344 402.226562 9.140625 C 401.5625 8.496094 400.722656 8.144531 398.945312 7.832031 Z M 399.570312 6.5625 "/>
<path style=" stroke:none;fill-rule:nonzero;fill:rgb(0%,0%,0%);fill-opacity:1;" d="M 412.4375 5.175781 L 409.742188 6.523438 L 409.742188 6.738281 C 409.917969 6.660156 410.09375 6.601562 410.152344 6.582031 C 410.40625 6.464844 410.660156 6.40625 410.816406 6.40625 C 411.128906 6.40625 411.265625 6.640625 411.265625 7.109375 L 411.265625 13.886719 C 411.265625 14.375 411.148438 14.726562 410.914062 14.863281 C 410.679688 14.980469 410.464844 15.039062 409.839844 15.058594 L 409.839844 15.273438 L 413.960938 15.273438 L 413.960938 15.058594 C 412.789062 15.039062 412.554688 14.882812 412.554688 14.160156 L 412.554688 5.195312 Z M 412.4375 5.175781 "/>
<path style=" stroke:none;fill-rule:nonzero;fill:rgb(0%,0%,0%);fill-opacity:1;" d="M 417.429688 13.789062 C 416.980469 13.789062 416.609375 14.160156 416.609375 14.628906 C 416.609375 15.058594 416.980469 15.429688 417.410156 15.429688 C 417.878906 15.429688 418.25 15.058594 418.25 14.628906 C 418.25 14.160156 417.878906 13.789062 417.429688 13.789062 Z M 417.429688 13.789062 "/>
<path style=" stroke:none;fill-rule:nonzero;fill:rgb(0%,0%,0%);fill-opacity:1;" d="M 425.988281 5.390625 L 420.460938 5.390625 L 419.582031 7.578125 L 419.835938 7.695312 C 420.480469 6.679688 420.753906 6.484375 421.574219 6.484375 L 424.816406 6.484375 L 421.867188 15.390625 L 422.824219 15.390625 L 425.988281 5.625 Z M 425.988281 5.390625 "/>
<path style=" stroke:none;fill-rule:nonzero;fill:rgb(0%,0%,0%);fill-opacity:1;" d="M 429.046875 10.351562 C 429.925781 10.351562 430.277344 10.371094 430.628906 10.507812 C 431.566406 10.839844 432.132812 11.679688 432.132812 12.714844 C 432.132812 13.964844 431.292969 14.941406 430.179688 14.941406 C 429.789062 14.941406 429.476562 14.84375 428.929688 14.472656 C 428.480469 14.21875 428.226562 14.101562 427.972656 14.101562 C 427.621094 14.101562 427.40625 14.316406 427.40625 14.628906 C 427.40625 15.15625 428.050781 15.488281 429.085938 15.488281 C 430.238281 15.488281 431.429688 15.097656 432.132812 14.472656 C 432.835938 13.867188 433.207031 13.007812 433.207031 11.992188 C 433.207031 11.230469 432.972656 10.527344 432.542969 10.078125 C 432.25 9.746094 431.957031 9.570312 431.3125 9.277344 C 432.328125 8.574219 432.699219 8.027344 432.699219 7.226562 C 432.699219 6.015625 431.761719 5.175781 430.375 5.175781 C 429.632812 5.175781 428.96875 5.429688 428.441406 5.898438 C 427.992188 6.308594 427.757812 6.699219 427.425781 7.597656 L 427.660156 7.65625 C 428.265625 6.5625 428.949219 6.074219 429.886719 6.074219 C 430.863281 6.074219 431.527344 6.71875 431.527344 7.675781 C 431.527344 8.203125 431.3125 8.75 430.921875 9.121094 C 430.472656 9.570312 430.0625 9.785156 429.046875 10.15625 Z M 429.046875 10.351562 "/>
<path style=" stroke:none;fill-rule:nonzero;fill:rgb(0%,0%,0%);fill-opacity:1;" d="M 436.519531 10.351562 C 437.398438 10.351562 437.75 10.371094 438.101562 10.507812 C 439.039062 10.839844 439.605469 11.679688 439.605469 12.714844 C 439.605469 13.964844 438.765625 14.941406 437.652344 14.941406 C 437.261719 14.941406 436.949219 14.84375 436.402344 14.472656 C 435.953125 14.21875 435.699219 14.101562 435.445312 14.101562 C 435.09375 14.101562 434.878906 14.316406 434.878906 14.628906 C 434.878906 15.15625 435.523438 15.488281 436.558594 15.488281 C 437.710938 15.488281 438.902344 15.097656 439.605469 14.472656 C 440.308594 13.867188 440.679688 13.007812 440.679688 11.992188 C 440.679688 11.230469 440.445312 10.527344 440.015625 10.078125 C 439.722656 9.746094 439.429688 9.570312 438.785156 9.277344 C 439.800781 8.574219 440.171875 8.027344 440.171875 7.226562 C 440.171875 6.015625 439.234375 5.175781 437.847656 5.175781 C 437.105469 5.175781 436.441406 5.429688 435.914062 5.898438 C 435.464844 6.308594 435.230469 6.699219 434.898438 7.597656 L 435.132812 7.65625 C 435.738281 6.5625 436.421875 6.074219 437.359375 6.074219 C 438.335938 6.074219 439 6.71875 439 7.675781 C 439 8.203125 438.785156 8.75 438.394531 9.121094 C 437.945312 9.570312 437.535156 9.785156 436.519531 10.15625 Z M 436.519531 10.351562 "/>
<path style=" stroke:none;fill-rule:nonzero;fill:rgb(0%,0%,0%);fill-opacity:1;" d="M 447.726562 10.351562 C 448.605469 10.351562 448.957031 10.371094 449.308594 10.507812 C 450.246094 10.839844 450.8125 11.679688 450.8125 12.714844 C 450.8125 13.964844 449.972656 14.941406 448.859375 14.941406 C 448.46875 14.941406 448.15625 14.84375 447.609375 14.472656 C 447.160156 14.21875 446.90625 14.101562 446.652344 14.101562 C 446.300781 14.101562 446.085938 14.316406 446.085938 14.628906 C 446.085938 15.15625 446.730469 15.488281 447.765625 15.488281 C 448.917969 15.488281 450.109375 15.097656 450.8125 14.472656 C 451.515625 13.867188 451.886719 13.007812 451.886719 11.992188 C 451.886719 11.230469 451.652344 10.527344 451.222656 10.078125 C 450.929688 9.746094 450.636719 9.570312 449.992188 9.277344 C 451.007812 8.574219 451.378906 8.027344 451.378906 7.226562 C 451.378906 6.015625 450.441406 5.175781 449.054688 5.175781 C 448.3125 5.175781 447.648438 5.429688 447.121094 5.898438 C 446.671875 6.308594 446.4375 6.699219 446.105469 7.597656 L 446.339844 7.65625 C 446.945312 6.5625 447.628906 6.074219 448.566406 6.074219 C 449.542969 6.074219 450.207031 6.71875 450.207031 7.675781 C 450.207031 8.203125 449.992188 8.75 449.601562 9.121094 C 449.152344 9.570312 448.742188 9.785156 447.726562 10.15625 Z M 447.726562 10.351562 "/>
<path style=" stroke:none;fill-rule:nonzero;fill:rgb(0%,0%,0%);fill-opacity:1;" d="M 454.789062 13.789062 C 454.339844 13.789062 453.96875 14.160156 453.96875 14.628906 C 453.96875 15.058594 454.339844 15.429688 454.769531 15.429688 C 455.238281 15.429688 455.609375 15.058594 455.609375 14.628906 C 455.609375 14.160156 455.238281 13.789062 454.789062 13.789062 Z M 454.789062 13.789062 "/>
<path style=" stroke:none;fill-rule:nonzero;fill:rgb(0%,0%,0%);fill-opacity:1;" d="M 468.371094 13.222656 L 468.175781 13.144531 C 467.628906 14.003906 467.433594 14.140625 466.769531 14.140625 L 463.195312 14.140625 L 465.695312 11.503906 C 467.042969 10.117188 467.609375 8.984375 467.609375 7.8125 C 467.609375 6.328125 466.398438 5.175781 464.855469 5.175781 C 464.035156 5.175781 463.253906 5.507812 462.707031 6.09375 C 462.21875 6.601562 462.003906 7.089844 461.75 8.144531 L 462.0625 8.222656 C 462.648438 6.757812 463.195312 6.269531 464.230469 6.269531 C 465.480469 6.269531 466.339844 7.128906 466.339844 8.378906 C 466.339844 9.550781 465.636719 10.9375 464.386719 12.265625 L 461.730469 15.097656 L 461.730469 15.273438 L 467.550781 15.273438 Z M 468.371094 13.222656 "/>
<path style=" stroke:none;fill-rule:nonzero;fill:rgb(0%,0%,0%);fill-opacity:1;" d="M 470.628906 13.789062 C 470.179688 13.789062 469.808594 14.160156 469.808594 14.628906 C 469.808594 15.058594 470.179688 15.429688 470.609375 15.429688 C 471.078125 15.429688 471.449219 15.058594 471.449219 14.628906 C 471.449219 14.160156 471.078125 13.789062 470.628906 13.789062 Z M 470.628906 13.789062 "/>
<path style=" stroke:none;fill-rule:nonzero;fill:rgb(0%,0%,0%);fill-opacity:1;" d="M 479.578125 13.222656 L 479.382812 13.144531 C 478.835938 14.003906 478.640625 14.140625 477.976562 14.140625 L 474.402344 14.140625 L 476.902344 11.503906 C 478.25 10.117188 478.816406 8.984375 478.816406 7.8125 C 478.816406 6.328125 477.605469 5.175781 476.0625 5.175781 C 475.242188 5.175781 474.460938 5.507812 473.914062 6.09375 C 473.425781 6.601562 473.210938 7.089844 472.957031 8.144531 L 473.269531 8.222656 C 473.855469 6.757812 474.402344 6.269531 475.4375 6.269531 C 476.6875 6.269531 477.546875 7.128906 477.546875 8.378906 C 477.546875 9.550781 476.84375 10.9375 475.59375 12.265625 L 472.9375 15.097656 L 472.9375 15.273438 L 478.757812 15.273438 Z M 479.578125 13.222656 "/>
<path style=" stroke:none;fill-rule:nonzero;fill:rgb(0%,0%,0%);fill-opacity:1;" d="M 482.246094 10.351562 C 483.125 10.351562 483.476562 10.371094 483.828125 10.507812 C 484.765625 10.839844 485.332031 11.679688 485.332031 12.714844 C 485.332031 13.964844 484.492188 14.941406 483.378906 14.941406 C 482.988281 14.941406 482.675781 14.84375 482.128906 14.472656 C 481.679688 14.21875 481.425781 14.101562 481.171875 14.101562 C 480.820312 14.101562 480.605469 14.316406 480.605469 14.628906 C 480.605469 15.15625 481.25 15.488281 482.285156 15.488281 C 483.4375 15.488281 484.628906 15.097656 485.332031 14.472656 C 486.035156 13.867188 486.40625 13.007812 486.40625 11.992188 C 486.40625 11.230469 486.171875 10.527344 485.742188 10.078125 C 485.449219 9.746094 485.15625 9.570312 484.511719 9.277344 C 485.527344 8.574219 485.898438 8.027344 485.898438 7.226562 C 485.898438 6.015625 484.960938 5.175781 483.574219 5.175781 C 482.832031 5.175781 482.167969 5.429688 481.640625 5.898438 C 481.191406 6.308594 480.957031 6.699219 480.625 7.597656 L 480.859375 7.65625 C 481.464844 6.5625 482.148438 6.074219 483.085938 6.074219 C 484.0625 6.074219 484.726562 6.71875 484.726562 7.675781 C 484.726562 8.203125 484.511719 8.75 484.121094 9.121094 C 483.671875 9.570312 483.261719 9.785156 482.246094 10.15625 Z M 482.246094 10.351562 "/>
<path style=" stroke:none;fill-rule:nonzero;fill:rgb(0%,0%,0%);fill-opacity:1;" d="M 490.128906 6.5625 L 493.058594 6.5625 C 493.3125 6.5625 493.371094 6.523438 493.410156 6.425781 L 493.976562 5.097656 L 493.839844 5 C 493.625 5.3125 493.46875 5.390625 493.15625 5.390625 L 490.03125 5.390625 L 488.410156 8.925781 C 488.390625 8.945312 488.390625 8.964844 488.390625 9.003906 C 488.390625 9.082031 488.449219 9.121094 488.566406 9.121094 C 489.054688 9.121094 489.640625 9.21875 490.265625 9.414062 C 491.984375 9.960938 492.765625 10.898438 492.765625 12.382812 C 492.765625 13.808594 491.847656 14.921875 490.695312 14.921875 C 490.382812 14.921875 490.128906 14.824219 489.699219 14.492188 C 489.210938 14.160156 488.859375 14.003906 488.546875 14.003906 C 488.117188 14.003906 487.902344 14.179688 487.902344 14.550781 C 487.902344 15.117188 488.605469 15.488281 489.738281 15.488281 C 490.988281 15.488281 492.0625 15.078125 492.804688 14.316406 C 493.507812 13.652344 493.820312 12.792969 493.820312 11.660156 C 493.820312 10.585938 493.527344 9.902344 492.785156 9.140625 C 492.121094 8.496094 491.28125 8.144531 489.503906 7.832031 Z M 490.128906 6.5625 "/>
<path style=" stroke:none;fill-rule:nonzero;fill:rgb(0%,0%,0%);fill-opacity:1;" d="M 500.925781 10.351562 C 501.804688 10.351562 502.15625 10.371094 502.507812 10.507812 C 503.445312 10.839844 504.011719 11.679688 504.011719 12.714844 C 504.011719 13.964844 503.171875 14.941406 502.058594 14.941406 C 501.667969 14.941406 501.355469 14.84375 500.808594 14.472656 C 500.359375 14.21875 500.105469 14.101562 499.851562 14.101562 C 499.5 14.101562 499.285156 14.316406 499.285156 14.628906 C 499.285156 15.15625 499.929688 15.488281 500.964844 15.488281 C 502.117188 15.488281 503.308594 15.097656 504.011719 14.472656 C 504.714844 13.867188 505.085938 13.007812 505.085938 11.992188 C 505.085938 11.230469 504.851562 10.527344 504.421875 10.078125 C 504.128906 9.746094 503.835938 9.570312 503.191406 9.277344 C 504.207031 8.574219 504.578125 8.027344 504.578125 7.226562 C 504.578125 6.015625 503.640625 5.175781 502.253906 5.175781 C 501.511719 5.175781 500.847656 5.429688 500.320312 5.898438 C 499.871094 6.308594 499.636719 6.699219 499.304688 7.597656 L 499.539062 7.65625 C 500.144531 6.5625 500.828125 6.074219 501.765625 6.074219 C 502.742188 6.074219 503.40625 6.71875 503.40625 7.675781 C 503.40625 8.203125 503.191406 8.75 502.800781 9.121094 C 502.351562 9.570312 501.941406 9.785156 500.925781 10.15625 Z M 500.925781 10.351562 "/>
<path style=" stroke:none;fill-rule:nonzero;fill:rgb(0%,0%,0%);fill-opacity:1;" d="M 507.988281 13.789062 C 507.539062 13.789062 507.167969 14.160156 507.167969 14.628906 C 507.167969 15.058594 507.539062 15.429688 507.96875 15.429688 C 508.4375 15.429688 508.808594 15.058594 508.808594 14.628906 C 508.808594 14.160156 508.4375 13.789062 507.988281 13.789062 Z M 507.988281 13.789062 "/>
<path style=" stroke:none;fill-rule:nonzero;fill:rgb(0%,0%,0%);fill-opacity:1;" d="M 512.546875 6.5625 L 515.476562 6.5625 C 515.730469 6.5625 515.789062 6.523438 515.828125 6.425781 L 516.394531 5.097656 L 516.257812 5 C 516.042969 5.3125 515.886719 5.390625 515.574219 5.390625 L 512.449219 5.390625 L 510.828125 8.925781 C 510.808594 8.945312 510.808594 8.964844 510.808594 9.003906 C 510.808594 9.082031 510.867188 9.121094 510.984375 9.121094 C 511.472656 9.121094 512.058594 9.21875 512.683594 9.414062 C 514.402344 9.960938 515.183594 10.898438 515.183594 12.382812 C 515.183594 13.808594 514.265625 14.921875 513.113281 14.921875 C 512.800781 14.921875 512.546875 14.824219 512.117188 14.492188 C 511.628906 14.160156 511.277344 14.003906 510.964844 14.003906 C 510.535156 14.003906 510.320312 14.179688 510.320312 14.550781 C 510.320312 15.117188 511.023438 15.488281 512.15625 15.488281 C 513.40625 15.488281 514.480469 15.078125 515.222656 14.316406 C 515.925781 13.652344 516.238281 12.792969 516.238281 11.660156 C 516.238281 10.585938 515.945312 9.902344 515.203125 9.140625 C 514.539062 8.496094 513.699219 8.144531 511.921875 7.832031 Z M 512.546875 6.5625 "/>
<path style=" stroke:none;fill-rule:nonzero;fill:rgb(0%,0%,0%);fill-opacity:1;" d="M 528.148438 13.222656 L 527.953125 13.144531 C 527.40625 14.003906 527.210938 14.140625 526.546875 14.140625 L 522.972656 14.140625 L 525.472656 11.503906 C 526.820312 10.117188 527.386719 8.984375 527.386719 7.8125 C 527.386719 6.328125 526.175781 5.175781 524.632812 5.175781 C 523.8125 5.175781 523.03125 5.507812 522.484375 6.09375 C 521.996094 6.601562 521.78125 7.089844 521.527344 8.144531 L 521.839844 8.222656 C 522.425781 6.757812 522.972656 6.269531 524.007812 6.269531 C 525.257812 6.269531 526.117188 7.128906 526.117188 8.378906 C 526.117188 9.550781 525.414062 10.9375 524.164062 12.265625 L 521.507812 15.097656 L 521.507812 15.273438 L 527.328125 15.273438 Z M 528.148438 13.222656 "/>
<path style=" stroke:none;fill-rule:nonzero;fill:rgb(0%,0%,0%);fill-opacity:1;" d="M 530.40625 13.789062 C 529.957031 13.789062 529.585938 14.160156 529.585938 14.628906 C 529.585938 15.058594 529.957031 15.429688 530.386719 15.429688 C 530.855469 15.429688 531.226562 15.058594 531.226562 14.628906 C 531.226562 14.160156 530.855469 13.789062 530.40625 13.789062 Z M 530.40625 13.789062 "/>
<path style=" stroke:none;fill-rule:nonzero;fill:rgb(0%,0%,0%);fill-opacity:1;" d="M 536.601562 9.726562 C 538.085938 8.945312 538.59375 8.320312 538.59375 7.285156 C 538.59375 6.074219 537.519531 5.175781 536.035156 5.175781 C 534.394531 5.175781 533.183594 6.171875 533.183594 7.539062 C 533.183594 8.496094 533.476562 8.945312 535.039062 10.3125 C 533.4375 11.542969 533.105469 11.992188 533.105469 13.007812 C 533.105469 14.472656 534.277344 15.488281 535.976562 15.488281 C 537.773438 15.488281 538.90625 14.492188 538.90625 12.949219 C 538.90625 11.816406 538.398438 11.074219 536.601562 9.726562 Z M 536.328125 11.269531 C 537.421875 12.050781 537.773438 12.578125 537.773438 13.417969 C 537.773438 14.394531 537.109375 15.058594 536.132812 15.058594 C 535 15.058594 534.238281 14.199219 534.238281 12.890625 C 534.238281 11.933594 534.570312 11.308594 535.429688 10.605469 Z M 536.171875 9.453125 C 534.84375 8.59375 534.296875 7.910156 534.296875 7.070312 C 534.296875 6.210938 534.960938 5.585938 535.917969 5.585938 C 536.933594 5.585938 537.578125 6.25 537.578125 7.285156 C 537.578125 8.125 537.148438 8.808594 536.308594 9.375 C 536.230469 9.414062 536.230469 9.414062 536.171875 9.453125 Z M 536.171875 9.453125 "/>
<path style=" stroke:none;fill-rule:nonzero;fill:rgb(0%,0%,0%);fill-opacity:1;" d="M 546.4375 5.390625 L 540.910156 5.390625 L 540.03125 7.578125 L 540.285156 7.695312 C 540.929688 6.679688 541.203125 6.484375 542.023438 6.484375 L 545.265625 6.484375 L 542.316406 15.390625 L 543.273438 15.390625 L 546.4375 5.625 Z M 546.4375 5.390625 "/>
<path style=" stroke:none;fill-rule:nonzero;fill:rgb(0%,0%,0%);fill-opacity:1;" d="M 549.90625 6.5625 L 552.835938 6.5625 C 553.089844 6.5625 553.148438 6.523438 553.1875 6.425781 L 553.753906 5.097656 L 553.617188 5 C 553.402344 5.3125 553.246094 5.390625 552.933594 5.390625 L 549.808594 5.390625 L 548.1875 8.925781 C 548.167969 8.945312 548.167969 8.964844 548.167969 9.003906 C 548.167969 9.082031 548.226562 9.121094 548.34375 9.121094 C 548.832031 9.121094 549.417969 9.21875 550.042969 9.414062 C 551.761719 9.960938 552.542969 10.898438 552.542969 12.382812 C 552.542969 13.808594 551.625 14.921875 550.472656 14.921875 C 550.160156 14.921875 549.90625 14.824219 549.476562 14.492188 C 548.988281 14.160156 548.636719 14.003906 548.324219 14.003906 C 547.894531 14.003906 547.679688 14.179688 547.679688 14.550781 C 547.679688 15.117188 548.382812 15.488281 549.515625 15.488281 C 550.765625 15.488281 551.839844 15.078125 552.582031 14.316406 C 553.285156 13.652344 553.597656 12.792969 553.597656 11.660156 C 553.597656 10.585938 553.304688 9.902344 552.5625 9.140625 C 551.898438 8.496094 551.058594 8.144531 549.28125 7.832031 Z M 549.90625 6.5625 "/>
<path style=" stroke:none;fill-rule:nonzero;fill:rgb(0%,0%,0%);fill-opacity:1;" d="M 565.46875 11.816406 L 563.945312 11.816406 L 563.945312 5.175781 L 563.28125 5.175781 L 558.59375 11.816406 L 558.59375 12.773438 L 562.792969 12.773438 L 562.792969 15.273438 L 563.945312 15.273438 L 563.945312 12.773438 L 565.46875 12.773438 Z M 562.773438 11.816406 L 559.199219 11.816406 L 562.773438 6.699219 Z M 562.773438 11.816406 "/>
<path style=" stroke:none;fill-rule:nonzero;fill:rgb(0%,0%,0%);fill-opacity:1;" d="M 567.765625 13.789062 C 567.316406 13.789062 566.945312 14.160156 566.945312 14.628906 C 566.945312 15.058594 567.316406 15.429688 567.746094 15.429688 C 568.214844 15.429688 568.585938 15.058594 568.585938 14.628906 C 568.585938 14.160156 568.214844 13.789062 567.765625 13.789062 Z M 567.765625 13.789062 "/>
<path style=" stroke:none;fill-rule:nonzero;fill:rgb(0%,0%,0%);fill-opacity:1;" d="M 576.542969 10.351562 C 577.421875 10.351562 577.773438 10.371094 578.125 10.507812 C 579.0625 10.839844 579.628906 11.679688 579.628906 12.714844 C 579.628906 13.964844 578.789062 14.941406 577.675781 14.941406 C 577.285156 14.941406 576.972656 14.84375 576.425781 14.472656 C 575.976562 14.21875 575.722656 14.101562 575.46875 14.101562 C 575.117188 14.101562 574.902344 14.316406 574.902344 14.628906 C 574.902344 15.15625 575.546875 15.488281 576.582031 15.488281 C 577.734375 15.488281 578.925781 15.097656 579.628906 14.472656 C 580.332031 13.867188 580.703125 13.007812 580.703125 11.992188 C 580.703125 11.230469 580.46875 10.527344 580.039062 10.078125 C 579.746094 9.746094 579.453125 9.570312 578.808594 9.277344 C 579.824219 8.574219 580.195312 8.027344 580.195312 7.226562 C 580.195312 6.015625 579.257812 5.175781 577.871094 5.175781 C 577.128906 5.175781 576.464844 5.429688 575.9375 5.898438 C 575.488281 6.308594 575.253906 6.699219 574.921875 7.597656 L 575.15625 7.65625 C 575.761719 6.5625 576.445312 6.074219 577.382812 6.074219 C 578.359375 6.074219 579.023438 6.71875 579.023438 7.675781 C 579.023438 8.203125 578.808594 8.75 578.417969 9.121094 C 577.96875 9.570312 577.558594 9.785156 576.542969 10.15625 Z M 576.542969 10.351562 "/>
<path style=" stroke:none;fill-rule:nonzero;fill:rgb(0%,0%,0%);fill-opacity:1;" d="M 583.605469 13.789062 C 583.15625 13.789062 582.785156 14.160156 582.785156 14.628906 C 582.785156 15.058594 583.15625 15.429688 583.585938 15.429688 C 584.054688 15.429688 584.425781 15.058594 584.425781 14.628906 C 584.425781 14.160156 584.054688 13.789062 583.605469 13.789062 Z M 583.605469 13.789062 "/>
<path style=" stroke:none;fill-rule:nonzero;fill:rgb(0%,0%,0%);fill-opacity:1;" d="M 592.125 5.058594 C 590.425781 5.195312 589.566406 5.488281 588.472656 6.25 C 586.851562 7.402344 585.972656 9.101562 585.972656 11.113281 C 585.972656 12.402344 586.382812 13.710938 587.027344 14.472656 C 587.59375 15.117188 588.394531 15.488281 589.3125 15.488281 C 591.167969 15.488281 592.457031 14.0625 592.457031 11.992188 C 592.457031 10.097656 591.363281 8.886719 589.644531 8.886719 C 589 8.886719 588.667969 8.984375 587.730469 9.550781 C 588.140625 7.285156 589.820312 5.683594 592.164062 5.292969 Z M 589.078125 9.570312 C 590.367188 9.570312 591.109375 10.644531 591.109375 12.5 C 591.109375 14.160156 590.523438 15.058594 589.488281 15.058594 C 588.160156 15.058594 587.359375 13.652344 587.359375 11.347656 C 587.359375 10.585938 587.476562 10.15625 587.789062 9.941406 C 588.101562 9.707031 588.550781 9.570312 589.078125 9.570312 Z M 589.078125 9.570312 "/>
<path style=" stroke:none;fill-rule:nonzero;fill:rgb(0%,0%,0%);fill-opacity:1;" d="M 593.816406 15.605469 C 595.496094 15.410156 596.316406 15.117188 597.332031 14.394531 C 598.875 13.261719 599.792969 11.40625 599.792969 9.394531 C 599.792969 6.914062 598.425781 5.175781 596.492188 5.175781 C 594.714844 5.175781 593.386719 6.679688 593.386719 8.691406 C 593.386719 10.527344 594.460938 11.738281 596.082031 11.738281 C 596.902344 11.738281 597.527344 11.484375 598.308594 10.878906 C 597.703125 13.320312 596.042969 14.921875 593.777344 15.3125 Z M 598.347656 9.960938 C 598.347656 10.273438 598.289062 10.410156 598.113281 10.527344 C 597.703125 10.898438 597.15625 11.09375 596.609375 11.09375 C 595.476562 11.09375 594.753906 9.960938 594.753906 8.183594 C 594.753906 7.34375 595.007812 6.445312 595.320312 6.054688 C 595.574219 5.761719 595.945312 5.585938 596.375 5.585938 C 597.683594 5.585938 598.347656 6.875 598.347656 9.394531 Z M 598.347656 9.960938 "/>
<path style=" stroke:none;fill-rule:nonzero;fill:rgb(0%,0%,0%);fill-opacity:1;" d="M 607.5 13.222656 L 607.304688 13.144531 C 606.757812 14.003906 606.5625 14.140625 605.898438 14.140625 L 602.324219 14.140625 L 604.824219 11.503906 C 606.171875 10.117188 606.738281 8.984375 606.738281 7.8125 C 606.738281 6.328125 605.527344 5.175781 603.984375 5.175781 C 603.164062 5.175781 602.382812 5.507812 601.835938 6.09375 C 601.347656 6.601562 601.132812 7.089844 600.878906 8.144531 L 601.191406 8.222656 C 601.777344 6.757812 602.324219 6.269531 603.359375 6.269531 C 604.609375 6.269531 605.46875 7.128906 605.46875 8.378906 C 605.46875 9.550781 604.765625 10.9375 603.515625 12.265625 L 600.859375 15.097656 L 600.859375 15.273438 L 606.679688 15.273438 Z M 607.5 13.222656 "/>
</g>
</svg>
