<?xml version="1.0" encoding="UTF-8"?>
<svg xmlns="http://www.w3.org/2000/svg" xmlns:xlink="http://www.w3.org/1999/xlink" width="697.86525pt" height="20.605469pt" viewBox="0 0 697.86525 20.605469" version="1.1">
<g id="surface409">
<path style=" stroke:none;fill-rule:nonzero;fill:rgb(0%,0%,0%);fill-opacity:1;" d="M 5 11.425781 L 5 12.382812 L 8.671875 12.382812 L 8.671875 11.425781 Z M 5 11.425781 "/>
<path style=" stroke:none;fill-rule:nonzero;fill:rgb(0%,0%,0%);fill-opacity:1;" d="M 11.675781 10.351562 C 12.554688 10.351562 12.90625 10.371094 13.257812 10.507812 C 14.195312 10.839844 14.761719 11.679688 14.761719 12.714844 C 14.761719 13.964844 13.921875 14.941406 12.808594 14.941406 C 12.417969 14.941406 12.105469 14.84375 11.558594 14.472656 C 11.109375 14.21875 10.855469 14.101562 10.601562 14.101562 C 10.25 14.101562 10.035156 14.316406 10.035156 14.628906 C 10.035156 15.15625 10.679688 15.488281 11.714844 15.488281 C 12.867188 15.488281 14.058594 15.097656 14.761719 14.472656 C 15.464844 13.867188 15.835938 13.007812 15.835938 11.992188 C 15.835938 11.230469 15.601562 10.527344 15.171875 10.078125 C 14.878906 9.746094 14.585938 9.570312 13.941406 9.277344 C 14.957031 8.574219 15.328125 8.027344 15.328125 7.226562 C 15.328125 6.015625 14.390625 5.175781 13.003906 5.175781 C 12.261719 5.175781 11.597656 5.429688 11.070312 5.898438 C 10.621094 6.308594 10.386719 6.699219 10.054688 7.597656 L 10.289062 7.65625 C 10.894531 6.5625 11.578125 6.074219 12.515625 6.074219 C 13.492188 6.074219 14.15625 6.71875 14.15625 7.675781 C 14.15625 8.203125 13.941406 8.75 13.550781 9.121094 C 13.101562 9.570312 12.691406 9.785156 11.675781 10.15625 Z M 11.675781 10.351562 "/>
<path style=" stroke:none;fill-rule:nonzero;fill:rgb(0%,0%,0%);fill-opacity:1;" d="M 18.738281 13.789062 C 18.289062 13.789062 17.917969 14.160156 17.917969 14.628906 C 17.917969 15.058594 18.289062 15.429688 18.71875 15.429688 C 19.1875 15.429688 19.558594 15.058594 19.558594 14.628906 C 19.558594 14.160156 19.1875 13.789062 18.738281 13.789062 Z M 18.738281 13.789062 "/>
<path style=" stroke:none;fill-rule:nonzero;fill:rgb(0%,0%,0%);fill-opacity:1;" d="M 27.105469 13.789062 C 26.65625 13.789062 26.285156 14.160156 26.285156 14.628906 C 26.285156 15.058594 26.65625 15.429688 27.085938 15.429688 C 27.554688 15.429688 27.925781 15.058594 27.925781 14.628906 C 27.925781 14.160156 27.554688 13.789062 27.105469 13.789062 Z M 27.105469 13.789062 "/>
<path style=" stroke:none;fill-rule:nonzero;fill:rgb(0%,0%,0%);fill-opacity:1;" d="M 33.324219 5.175781 L 30.628906 6.523438 L 30.628906 6.738281 C 30.804688 6.660156 30.980469 6.601562 31.039062 6.582031 C 31.292969 6.464844 31.546875 6.40625 31.703125 6.40625 C 32.015625 6.40625 32.152344 6.640625 32.152344 7.109375 L 32.152344 13.886719 C 32.152344 14.375 32.035156 14.726562 31.800781 14.863281 C 31.566406 14.980469 31.351562 15.039062 30.726562 15.058594 L 30.726562 15.273438 L 34.847656 15.273438 L 34.847656 15.058594 C 33.675781 15.039062 33.441406 14.882812 33.441406 14.160156 L 33.441406 5.195312 Z M 33.324219 5.175781 "/>
<path style=" stroke:none;fill-rule:nonzero;fill:rgb(0%,0%,0%);fill-opacity:1;" d="M 40.226562 5.175781 C 39.40625 5.175781 38.78125 5.429688 38.234375 5.957031 C 37.355469 6.777344 36.789062 8.496094 36.789062 10.253906 C 36.789062 11.875 37.296875 13.632812 38 14.472656 C 38.546875 15.117188 39.308594 15.488281 40.167969 15.488281 C 40.929688 15.488281 41.574219 15.234375 42.121094 14.707031 C 42.980469 13.886719 43.546875 12.148438 43.546875 10.351562 C 43.546875 7.285156 42.199219 5.175781 40.226562 5.175781 Z M 40.1875 5.566406 C 41.4375 5.566406 42.121094 7.246094 42.121094 10.371094 C 42.121094 13.496094 41.457031 15.097656 40.167969 15.097656 C 38.878906 15.097656 38.234375 13.496094 38.234375 10.390625 C 38.234375 7.226562 38.898438 5.566406 40.1875 5.566406 Z M 40.1875 5.566406 "/>
<path style=" stroke:none;fill-rule:nonzero;fill:rgb(0%,0%,0%);fill-opacity:1;" d="M 47.699219 5.175781 C 46.878906 5.175781 46.253906 5.429688 45.707031 5.957031 C 44.828125 6.777344 44.261719 8.496094 44.261719 10.253906 C 44.261719 11.875 44.769531 13.632812 45.472656 14.472656 C 46.019531 15.117188 46.78125 15.488281 47.640625 15.488281 C 48.402344 15.488281 49.046875 15.234375 49.59375 14.707031 C 50.453125 13.886719 51.019531 12.148438 51.019531 10.351562 C 51.019531 7.285156 49.671875 5.175781 47.699219 5.175781 Z M 47.660156 5.566406 C 48.910156 5.566406 49.59375 7.246094 49.59375 10.371094 C 49.59375 13.496094 48.929688 15.097656 47.640625 15.097656 C 46.351562 15.097656 45.707031 13.496094 45.707031 10.390625 C 45.707031 7.226562 46.371094 5.566406 47.660156 5.566406 Z M 47.660156 5.566406 "/>
<path style=" stroke:none;fill-rule:nonzero;fill:rgb(0%,0%,0%);fill-opacity:1;" d="M 55.171875 5.175781 C 54.351562 5.175781 53.726562 5.429688 53.179688 5.957031 C 52.300781 6.777344 51.734375 8.496094 51.734375 10.253906 C 51.734375 11.875 52.242188 13.632812 52.945312 14.472656 C 53.492188 15.117188 54.253906 15.488281 55.113281 15.488281 C 55.875 15.488281 56.519531 15.234375 57.066406 14.707031 C 57.925781 13.886719 58.492188 12.148438 58.492188 10.351562 C 58.492188 7.285156 57.144531 5.175781 55.171875 5.175781 Z M 55.132812 5.566406 C 56.382812 5.566406 57.066406 7.246094 57.066406 10.371094 C 57.066406 13.496094 56.402344 15.097656 55.113281 15.097656 C 53.824219 15.097656 53.179688 13.496094 53.179688 10.390625 C 53.179688 7.226562 53.84375 5.566406 55.132812 5.566406 Z M 55.132812 5.566406 "/>
<path style=" stroke:none;fill-rule:nonzero;fill:rgb(0%,0%,0%);fill-opacity:1;" d="M 63.175781 11.425781 L 63.175781 12.382812 L 66.847656 12.382812 L 66.847656 11.425781 Z M 63.175781 11.425781 "/>
<path style=" stroke:none;fill-rule:nonzero;fill:rgb(0%,0%,0%);fill-opacity:1;" d="M 74.65625 13.222656 L 74.460938 13.144531 C 73.914062 14.003906 73.71875 14.140625 73.054688 14.140625 L 69.480469 14.140625 L 71.980469 11.503906 C 73.328125 10.117188 73.894531 8.984375 73.894531 7.8125 C 73.894531 6.328125 72.683594 5.175781 71.140625 5.175781 C 70.320312 5.175781 69.539062 5.507812 68.992188 6.09375 C 68.503906 6.601562 68.289062 7.089844 68.035156 8.144531 L 68.347656 8.222656 C 68.933594 6.757812 69.480469 6.269531 70.515625 6.269531 C 71.765625 6.269531 72.625 7.128906 72.625 8.378906 C 72.625 9.550781 71.921875 10.9375 70.671875 12.265625 L 68.015625 15.097656 L 68.015625 15.273438 L 73.835938 15.273438 Z M 74.65625 13.222656 "/>
<path style=" stroke:none;fill-rule:nonzero;fill:rgb(0%,0%,0%);fill-opacity:1;" d="M 76.914062 13.789062 C 76.464844 13.789062 76.09375 14.160156 76.09375 14.628906 C 76.09375 15.058594 76.464844 15.429688 76.894531 15.429688 C 77.363281 15.429688 77.734375 15.058594 77.734375 14.628906 C 77.734375 14.160156 77.363281 13.789062 76.914062 13.789062 Z M 76.914062 13.789062 "/>
<path style=" stroke:none;fill-rule:nonzero;fill:rgb(0%,0%,0%);fill-opacity:1;" d="M 83.113281 9.726562 C 84.597656 8.945312 85.105469 8.320312 85.105469 7.285156 C 85.105469 6.074219 84.03125 5.175781 82.546875 5.175781 C 80.90625 5.175781 79.695312 6.171875 79.695312 7.539062 C 79.695312 8.496094 79.988281 8.945312 81.550781 10.3125 C 79.949219 11.542969 79.617188 11.992188 79.617188 13.007812 C 79.617188 14.472656 80.789062 15.488281 82.488281 15.488281 C 84.285156 15.488281 85.417969 14.492188 85.417969 12.949219 C 85.417969 11.816406 84.910156 11.074219 83.113281 9.726562 Z M 82.839844 11.269531 C 83.933594 12.050781 84.285156 12.578125 84.285156 13.417969 C 84.285156 14.394531 83.621094 15.058594 82.644531 15.058594 C 81.511719 15.058594 80.75 14.199219 80.75 12.890625 C 80.75 11.933594 81.082031 11.308594 81.941406 10.605469 Z M 82.683594 9.453125 C 81.355469 8.59375 80.808594 7.910156 80.808594 7.070312 C 80.808594 6.210938 81.472656 5.585938 82.429688 5.585938 C 83.445312 5.585938 84.089844 6.25 84.089844 7.285156 C 84.089844 8.125 83.660156 8.808594 82.820312 9.375 C 82.742188 9.414062 82.742188 9.414062 82.683594 9.453125 Z M 82.683594 9.453125 "/>
<path style=" stroke:none;fill-rule:nonzero;fill:rgb(0%,0%,0%);fill-opacity:1;" d="M 91.859375 13.789062 C 91.410156 13.789062 91.039062 14.160156 91.039062 14.628906 C 91.039062 15.058594 91.410156 15.429688 91.839844 15.429688 C 92.308594 15.429688 92.679688 15.058594 92.679688 14.628906 C 92.679688 14.160156 92.308594 13.789062 91.859375 13.789062 Z M 91.859375 13.789062 "/>
<path style=" stroke:none;fill-rule:nonzero;fill:rgb(0%,0%,0%);fill-opacity:1;" d="M 98.074219 5.175781 L 95.378906 6.523438 L 95.378906 6.738281 C 95.554688 6.660156 95.730469 6.601562 95.789062 6.582031 C 96.042969 6.464844 96.296875 6.40625 96.453125 6.40625 C 96.765625 6.40625 96.902344 6.640625 96.902344 7.109375 L 96.902344 13.886719 C 96.902344 14.375 96.785156 14.726562 96.550781 14.863281 C 96.316406 14.980469 96.101562 15.039062 95.476562 15.058594 L 95.476562 15.273438 L 99.597656 15.273438 L 99.597656 15.058594 C 98.425781 15.039062 98.191406 14.882812 98.191406 14.160156 L 98.191406 5.195312 Z M 98.074219 5.175781 "/>
<path style=" stroke:none;fill-rule:nonzero;fill:rgb(0%,0%,0%);fill-opacity:1;" d="M 105.546875 5.175781 L 102.851562 6.523438 L 102.851562 6.738281 C 103.027344 6.660156 103.203125 6.601562 103.261719 6.582031 C 103.515625 6.464844 103.769531 6.40625 103.925781 6.40625 C 104.238281 6.40625 104.375 6.640625 104.375 7.109375 L 104.375 13.886719 C 104.375 14.375 104.257812 14.726562 104.023438 14.863281 C 103.789062 14.980469 103.574219 15.039062 102.949219 15.058594 L 102.949219 15.273438 L 107.070312 15.273438 L 107.070312 15.058594 C 105.898438 15.039062 105.664062 14.882812 105.664062 14.160156 L 105.664062 5.195312 Z M 105.546875 5.175781 "/>
<path style=" stroke:none;fill-rule:nonzero;fill:rgb(0%,0%,0%);fill-opacity:1;" d="M 110.949219 10.351562 C 111.828125 10.351562 112.179688 10.371094 112.53125 10.507812 C 113.46875 10.839844 114.035156 11.679688 114.035156 12.714844 C 114.035156 13.964844 113.195312 14.941406 112.082031 14.941406 C 111.691406 14.941406 111.378906 14.84375 110.832031 14.472656 C 110.382812 14.21875 110.128906 14.101562 109.875 14.101562 C 109.523438 14.101562 109.308594 14.316406 109.308594 14.628906 C 109.308594 15.15625 109.953125 15.488281 110.988281 15.488281 C 112.140625 15.488281 113.332031 15.097656 114.035156 14.472656 C 114.738281 13.867188 115.109375 13.007812 115.109375 11.992188 C 115.109375 11.230469 114.875 10.527344 114.445312 10.078125 C 114.152344 9.746094 113.859375 9.570312 113.214844 9.277344 C 114.230469 8.574219 114.601562 8.027344 114.601562 7.226562 C 114.601562 6.015625 113.664062 5.175781 112.277344 5.175781 C 111.535156 5.175781 110.871094 5.429688 110.34375 5.898438 C 109.894531 6.308594 109.660156 6.699219 109.328125 7.597656 L 109.5625 7.65625 C 110.167969 6.5625 110.851562 6.074219 111.789062 6.074219 C 112.765625 6.074219 113.429688 6.71875 113.429688 7.675781 C 113.429688 8.203125 113.214844 8.75 112.824219 9.121094 C 112.375 9.570312 111.964844 9.785156 110.949219 10.15625 Z M 110.949219 10.351562 "/>
<path style=" stroke:none;fill-rule:nonzero;fill:rgb(0%,0%,0%);fill-opacity:1;" d="M 120.492188 5.175781 L 117.796875 6.523438 L 117.796875 6.738281 C 117.972656 6.660156 118.148438 6.601562 118.207031 6.582031 C 118.460938 6.464844 118.714844 6.40625 118.871094 6.40625 C 119.183594 6.40625 119.320312 6.640625 119.320312 7.109375 L 119.320312 13.886719 C 119.320312 14.375 119.203125 14.726562 118.96875 14.863281 C 118.734375 14.980469 118.519531 15.039062 117.894531 15.058594 L 117.894531 15.273438 L 122.015625 15.273438 L 122.015625 15.058594 C 120.84375 15.039062 120.609375 14.882812 120.609375 14.160156 L 120.609375 5.195312 Z M 120.492188 5.175781 "/>
<path style=" stroke:none;fill-rule:nonzero;fill:rgb(0%,0%,0%);fill-opacity:1;" d="M 127.929688 11.425781 L 127.929688 12.382812 L 131.601562 12.382812 L 131.601562 11.425781 Z M 127.929688 11.425781 "/>
<path style=" stroke:none;fill-rule:nonzero;fill:rgb(0%,0%,0%);fill-opacity:1;" d="M 139.410156 13.222656 L 139.214844 13.144531 C 138.667969 14.003906 138.472656 14.140625 137.808594 14.140625 L 134.234375 14.140625 L 136.734375 11.503906 C 138.082031 10.117188 138.648438 8.984375 138.648438 7.8125 C 138.648438 6.328125 137.4375 5.175781 135.894531 5.175781 C 135.074219 5.175781 134.292969 5.507812 133.746094 6.09375 C 133.257812 6.601562 133.042969 7.089844 132.789062 8.144531 L 133.101562 8.222656 C 133.6875 6.757812 134.234375 6.269531 135.269531 6.269531 C 136.519531 6.269531 137.378906 7.128906 137.378906 8.378906 C 137.378906 9.550781 136.675781 10.9375 135.425781 12.265625 L 132.769531 15.097656 L 132.769531 15.273438 L 138.589844 15.273438 Z M 139.410156 13.222656 "/>
<path style=" stroke:none;fill-rule:nonzero;fill:rgb(0%,0%,0%);fill-opacity:1;" d="M 141.667969 13.789062 C 141.21875 13.789062 140.847656 14.160156 140.847656 14.628906 C 140.847656 15.058594 141.21875 15.429688 141.648438 15.429688 C 142.117188 15.429688 142.488281 15.058594 142.488281 14.628906 C 142.488281 14.160156 142.117188 13.789062 141.667969 13.789062 Z M 141.667969 13.789062 "/>
<path style=" stroke:none;fill-rule:nonzero;fill:rgb(0%,0%,0%);fill-opacity:1;" d="M 150.1875 5.058594 C 148.488281 5.195312 147.628906 5.488281 146.535156 6.25 C 144.914062 7.402344 144.035156 9.101562 144.035156 11.113281 C 144.035156 12.402344 144.445312 13.710938 145.089844 14.472656 C 145.65625 15.117188 146.457031 15.488281 147.375 15.488281 C 149.230469 15.488281 150.519531 14.0625 150.519531 11.992188 C 150.519531 10.097656 149.425781 8.886719 147.707031 8.886719 C 147.0625 8.886719 146.730469 8.984375 145.792969 9.550781 C 146.203125 7.285156 147.882812 5.683594 150.226562 5.292969 Z M 147.140625 9.570312 C 148.429688 9.570312 149.171875 10.644531 149.171875 12.5 C 149.171875 14.160156 148.585938 15.058594 147.550781 15.058594 C 146.222656 15.058594 145.421875 13.652344 145.421875 11.347656 C 145.421875 10.585938 145.539062 10.15625 145.851562 9.941406 C 146.164062 9.707031 146.613281 9.570312 147.140625 9.570312 Z M 147.140625 9.570312 "/>
<path style=" stroke:none;fill-rule:nonzero;fill:rgb(0%,0%,0%);fill-opacity:1;" d="M 156.609375 13.789062 C 156.160156 13.789062 155.789062 14.160156 155.789062 14.628906 C 155.789062 15.058594 156.160156 15.429688 156.589844 15.429688 C 157.058594 15.429688 157.429688 15.058594 157.429688 14.628906 C 157.429688 14.160156 157.058594 13.789062 156.609375 13.789062 Z M 156.609375 13.789062 "/>
<path style=" stroke:none;fill-rule:nonzero;fill:rgb(0%,0%,0%);fill-opacity:1;" d="M 162.828125 5.175781 L 160.132812 6.523438 L 160.132812 6.738281 C 160.308594 6.660156 160.484375 6.601562 160.542969 6.582031 C 160.796875 6.464844 161.050781 6.40625 161.207031 6.40625 C 161.519531 6.40625 161.65625 6.640625 161.65625 7.109375 L 161.65625 13.886719 C 161.65625 14.375 161.539062 14.726562 161.304688 14.863281 C 161.070312 14.980469 160.855469 15.039062 160.230469 15.058594 L 160.230469 15.273438 L 164.351562 15.273438 L 164.351562 15.058594 C 163.179688 15.039062 162.945312 14.882812 162.945312 14.160156 L 162.945312 5.195312 Z M 162.828125 5.175781 "/>
<path style=" stroke:none;fill-rule:nonzero;fill:rgb(0%,0%,0%);fill-opacity:1;" d="M 173.035156 13.222656 L 172.839844 13.144531 C 172.292969 14.003906 172.097656 14.140625 171.433594 14.140625 L 167.859375 14.140625 L 170.359375 11.503906 C 171.707031 10.117188 172.273438 8.984375 172.273438 7.8125 C 172.273438 6.328125 171.0625 5.175781 169.519531 5.175781 C 168.699219 5.175781 167.917969 5.507812 167.371094 6.09375 C 166.882812 6.601562 166.667969 7.089844 166.414062 8.144531 L 166.726562 8.222656 C 167.3125 6.757812 167.859375 6.269531 168.894531 6.269531 C 170.144531 6.269531 171.003906 7.128906 171.003906 8.378906 C 171.003906 9.550781 170.300781 10.9375 169.050781 12.265625 L 166.394531 15.097656 L 166.394531 15.273438 L 172.214844 15.273438 Z M 173.035156 13.222656 "/>
<path style=" stroke:none;fill-rule:nonzero;fill:rgb(0%,0%,0%);fill-opacity:1;" d="M 177.75 9.726562 C 179.234375 8.945312 179.742188 8.320312 179.742188 7.285156 C 179.742188 6.074219 178.667969 5.175781 177.183594 5.175781 C 175.542969 5.175781 174.332031 6.171875 174.332031 7.539062 C 174.332031 8.496094 174.625 8.945312 176.1875 10.3125 C 174.585938 11.542969 174.253906 11.992188 174.253906 13.007812 C 174.253906 14.472656 175.425781 15.488281 177.125 15.488281 C 178.921875 15.488281 180.054688 14.492188 180.054688 12.949219 C 180.054688 11.816406 179.546875 11.074219 177.75 9.726562 Z M 177.476562 11.269531 C 178.570312 12.050781 178.921875 12.578125 178.921875 13.417969 C 178.921875 14.394531 178.257812 15.058594 177.28125 15.058594 C 176.148438 15.058594 175.386719 14.199219 175.386719 12.890625 C 175.386719 11.933594 175.71875 11.308594 176.578125 10.605469 Z M 177.320312 9.453125 C 175.992188 8.59375 175.445312 7.910156 175.445312 7.070312 C 175.445312 6.210938 176.109375 5.585938 177.066406 5.585938 C 178.082031 5.585938 178.726562 6.25 178.726562 7.285156 C 178.726562 8.125 178.296875 8.808594 177.457031 9.375 C 177.378906 9.414062 177.378906 9.414062 177.320312 9.453125 Z M 177.320312 9.453125 "/>
<path style=" stroke:none;fill-rule:nonzero;fill:rgb(0%,0%,0%);fill-opacity:1;" d="M 181.765625 15.605469 C 183.445312 15.410156 184.265625 15.117188 185.28125 14.394531 C 186.824219 13.261719 187.742188 11.40625 187.742188 9.394531 C 187.742188 6.914062 186.375 5.175781 184.441406 5.175781 C 182.664062 5.175781 181.335938 6.679688 181.335938 8.691406 C 181.335938 10.527344 182.410156 11.738281 184.03125 11.738281 C 184.851562 11.738281 185.476562 11.484375 186.257812 10.878906 C 185.652344 13.320312 183.992188 14.921875 181.726562 15.3125 Z M 186.296875 9.960938 C 186.296875 10.273438 186.238281 10.410156 186.0625 10.527344 C 185.652344 10.898438 185.105469 11.09375 184.558594 11.09375 C 183.425781 11.09375 182.703125 9.960938 182.703125 8.183594 C 182.703125 7.34375 182.957031 6.445312 183.269531 6.054688 C 183.523438 5.761719 183.894531 5.585938 184.324219 5.585938 C 185.632812 5.585938 186.296875 6.875 186.296875 9.394531 Z M 186.296875 9.960938 "/>
<path style=" stroke:none;fill-rule:nonzero;fill:rgb(0%,0%,0%);fill-opacity:1;" d="M 192.683594 11.425781 L 192.683594 12.382812 L 196.355469 12.382812 L 196.355469 11.425781 Z M 192.683594 11.425781 "/>
<path style=" stroke:none;fill-rule:nonzero;fill:rgb(0%,0%,0%);fill-opacity:1;" d="M 204.160156 13.222656 L 203.964844 13.144531 C 203.417969 14.003906 203.222656 14.140625 202.558594 14.140625 L 198.984375 14.140625 L 201.484375 11.503906 C 202.832031 10.117188 203.398438 8.984375 203.398438 7.8125 C 203.398438 6.328125 202.1875 5.175781 200.644531 5.175781 C 199.824219 5.175781 199.042969 5.507812 198.496094 6.09375 C 198.007812 6.601562 197.792969 7.089844 197.539062 8.144531 L 197.851562 8.222656 C 198.4375 6.757812 198.984375 6.269531 200.019531 6.269531 C 201.269531 6.269531 202.128906 7.128906 202.128906 8.378906 C 202.128906 9.550781 201.425781 10.9375 200.175781 12.265625 L 197.519531 15.097656 L 197.519531 15.273438 L 203.339844 15.273438 Z M 204.160156 13.222656 "/>
<path style=" stroke:none;fill-rule:nonzero;fill:rgb(0%,0%,0%);fill-opacity:1;" d="M 206.417969 13.789062 C 205.96875 13.789062 205.597656 14.160156 205.597656 14.628906 C 205.597656 15.058594 205.96875 15.429688 206.398438 15.429688 C 206.867188 15.429688 207.238281 15.058594 207.238281 14.628906 C 207.238281 14.160156 206.867188 13.789062 206.417969 13.789062 Z M 206.417969 13.789062 "/>
<path style=" stroke:none;fill-rule:nonzero;fill:rgb(0%,0%,0%);fill-opacity:1;" d="M 215.332031 11.816406 L 213.808594 11.816406 L 213.808594 5.175781 L 213.144531 5.175781 L 208.457031 11.816406 L 208.457031 12.773438 L 212.65625 12.773438 L 212.65625 15.273438 L 213.808594 15.273438 L 213.808594 12.773438 L 215.332031 12.773438 Z M 212.636719 11.816406 L 209.0625 11.816406 L 212.636719 6.699219 Z M 212.636719 11.816406 "/>
<path style=" stroke:none;fill-rule:nonzero;fill:rgb(0%,0%,0%);fill-opacity:1;" d="M 221.363281 13.789062 C 220.914062 13.789062 220.542969 14.160156 220.542969 14.628906 C 220.542969 15.058594 220.914062 15.429688 221.34375 15.429688 C 221.8125 15.429688 222.183594 15.058594 222.183594 14.628906 C 222.183594 14.160156 221.8125 13.789062 221.363281 13.789062 Z M 221.363281 13.789062 "/>
<path style=" stroke:none;fill-rule:nonzero;fill:rgb(0%,0%,0%);fill-opacity:1;" d="M 227.578125 5.175781 L 224.882812 6.523438 L 224.882812 6.738281 C 225.058594 6.660156 225.234375 6.601562 225.292969 6.582031 C 225.546875 6.464844 225.800781 6.40625 225.957031 6.40625 C 226.269531 6.40625 226.40625 6.640625 226.40625 7.109375 L 226.40625 13.886719 C 226.40625 14.375 226.289062 14.726562 226.054688 14.863281 C 225.820312 14.980469 225.605469 15.039062 224.980469 15.058594 L 224.980469 15.273438 L 229.101562 15.273438 L 229.101562 15.058594 C 227.929688 15.039062 227.695312 14.882812 227.695312 14.160156 L 227.695312 5.195312 Z M 227.578125 5.175781 "/>
<path style=" stroke:none;fill-rule:nonzero;fill:rgb(0%,0%,0%);fill-opacity:1;" d="M 237.746094 11.816406 L 236.222656 11.816406 L 236.222656 5.175781 L 235.558594 5.175781 L 230.871094 11.816406 L 230.871094 12.773438 L 235.070312 12.773438 L 235.070312 15.273438 L 236.222656 15.273438 L 236.222656 12.773438 L 237.746094 12.773438 Z M 235.050781 11.816406 L 231.476562 11.816406 L 235.050781 6.699219 Z M 235.050781 11.816406 "/>
<path style=" stroke:none;fill-rule:nonzero;fill:rgb(0%,0%,0%);fill-opacity:1;" d="M 244.867188 5.390625 L 239.339844 5.390625 L 238.460938 7.578125 L 238.714844 7.695312 C 239.359375 6.679688 239.632812 6.484375 240.453125 6.484375 L 243.695312 6.484375 L 240.746094 15.390625 L 241.703125 15.390625 L 244.867188 5.625 Z M 244.867188 5.390625 "/>
<path style=" stroke:none;fill-rule:nonzero;fill:rgb(0%,0%,0%);fill-opacity:1;" d="M 246.519531 15.605469 C 248.199219 15.410156 249.019531 15.117188 250.035156 14.394531 C 251.578125 13.261719 252.496094 11.40625 252.496094 9.394531 C 252.496094 6.914062 251.128906 5.175781 249.195312 5.175781 C 247.417969 5.175781 246.089844 6.679688 246.089844 8.691406 C 246.089844 10.527344 247.164062 11.738281 248.785156 11.738281 C 249.605469 11.738281 250.230469 11.484375 251.011719 10.878906 C 250.40625 13.320312 248.746094 14.921875 246.480469 15.3125 Z M 251.050781 9.960938 C 251.050781 10.273438 250.992188 10.410156 250.816406 10.527344 C 250.40625 10.898438 249.859375 11.09375 249.3125 11.09375 C 248.179688 11.09375 247.457031 9.960938 247.457031 8.183594 C 247.457031 7.34375 247.710938 6.445312 248.023438 6.054688 C 248.277344 5.761719 248.648438 5.585938 249.078125 5.585938 C 250.386719 5.585938 251.050781 6.875 251.050781 9.394531 Z M 251.050781 9.960938 "/>
<path style=" stroke:none;fill-rule:nonzero;fill:rgb(0%,0%,0%);fill-opacity:1;" d="M 257.433594 11.425781 L 257.433594 12.382812 L 261.105469 12.382812 L 261.105469 11.425781 Z M 257.433594 11.425781 "/>
<path style=" stroke:none;fill-rule:nonzero;fill:rgb(0%,0%,0%);fill-opacity:1;" d="M 268.914062 13.222656 L 268.71875 13.144531 C 268.171875 14.003906 267.976562 14.140625 267.3125 14.140625 L 263.738281 14.140625 L 266.238281 11.503906 C 267.585938 10.117188 268.152344 8.984375 268.152344 7.8125 C 268.152344 6.328125 266.941406 5.175781 265.398438 5.175781 C 264.578125 5.175781 263.796875 5.507812 263.25 6.09375 C 262.761719 6.601562 262.546875 7.089844 262.292969 8.144531 L 262.605469 8.222656 C 263.191406 6.757812 263.738281 6.269531 264.773438 6.269531 C 266.023438 6.269531 266.882812 7.128906 266.882812 8.378906 C 266.882812 9.550781 266.179688 10.9375 264.929688 12.265625 L 262.273438 15.097656 L 262.273438 15.273438 L 268.09375 15.273438 Z M 268.914062 13.222656 "/>
<path style=" stroke:none;fill-rule:nonzero;fill:rgb(0%,0%,0%);fill-opacity:1;" d="M 271.171875 13.789062 C 270.722656 13.789062 270.351562 14.160156 270.351562 14.628906 C 270.351562 15.058594 270.722656 15.429688 271.152344 15.429688 C 271.621094 15.429688 271.992188 15.058594 271.992188 14.628906 C 271.992188 14.160156 271.621094 13.789062 271.171875 13.789062 Z M 271.171875 13.789062 "/>
<path style=" stroke:none;fill-rule:nonzero;fill:rgb(0%,0%,0%);fill-opacity:1;" d="M 280.121094 13.222656 L 279.925781 13.144531 C 279.378906 14.003906 279.183594 14.140625 278.519531 14.140625 L 274.945312 14.140625 L 277.445312 11.503906 C 278.792969 10.117188 279.359375 8.984375 279.359375 7.8125 C 279.359375 6.328125 278.148438 5.175781 276.605469 5.175781 C 275.785156 5.175781 275.003906 5.507812 274.457031 6.09375 C 273.96875 6.601562 273.753906 7.089844 273.5 8.144531 L 273.8125 8.222656 C 274.398438 6.757812 274.945312 6.269531 275.980469 6.269531 C 277.230469 6.269531 278.089844 7.128906 278.089844 8.378906 C 278.089844 9.550781 277.386719 10.9375 276.136719 12.265625 L 273.480469 15.097656 L 273.480469 15.273438 L 279.300781 15.273438 Z M 280.121094 13.222656 "/>
<path style=" stroke:none;fill-rule:nonzero;fill:rgb(0%,0%,0%);fill-opacity:1;" d="M 286.117188 13.789062 C 285.667969 13.789062 285.296875 14.160156 285.296875 14.628906 C 285.296875 15.058594 285.667969 15.429688 286.097656 15.429688 C 286.566406 15.429688 286.9375 15.058594 286.9375 14.628906 C 286.9375 14.160156 286.566406 13.789062 286.117188 13.789062 Z M 286.117188 13.789062 "/>
<path style=" stroke:none;fill-rule:nonzero;fill:rgb(0%,0%,0%);fill-opacity:1;" d="M 292.332031 5.175781 L 289.636719 6.523438 L 289.636719 6.738281 C 289.8125 6.660156 289.988281 6.601562 290.046875 6.582031 C 290.300781 6.464844 290.554688 6.40625 290.710938 6.40625 C 291.023438 6.40625 291.160156 6.640625 291.160156 7.109375 L 291.160156 13.886719 C 291.160156 14.375 291.042969 14.726562 290.808594 14.863281 C 290.574219 14.980469 290.359375 15.039062 289.734375 15.058594 L 289.734375 15.273438 L 293.855469 15.273438 L 293.855469 15.058594 C 292.683594 15.039062 292.449219 14.882812 292.449219 14.160156 L 292.449219 5.195312 Z M 292.332031 5.175781 "/>
<path style=" stroke:none;fill-rule:nonzero;fill:rgb(0%,0%,0%);fill-opacity:1;" d="M 302.148438 5.390625 L 296.621094 5.390625 L 295.742188 7.578125 L 295.996094 7.695312 C 296.640625 6.679688 296.914062 6.484375 297.734375 6.484375 L 300.976562 6.484375 L 298.027344 15.390625 L 298.984375 15.390625 L 302.148438 5.625 Z M 302.148438 5.390625 "/>
<path style=" stroke:none;fill-rule:nonzero;fill:rgb(0%,0%,0%);fill-opacity:1;" d="M 307.277344 5.175781 L 304.582031 6.523438 L 304.582031 6.738281 C 304.757812 6.660156 304.933594 6.601562 304.992188 6.582031 C 305.246094 6.464844 305.5 6.40625 305.65625 6.40625 C 305.96875 6.40625 306.105469 6.640625 306.105469 7.109375 L 306.105469 13.886719 C 306.105469 14.375 305.988281 14.726562 305.753906 14.863281 C 305.519531 14.980469 305.304688 15.039062 304.679688 15.058594 L 304.679688 15.273438 L 308.800781 15.273438 L 308.800781 15.058594 C 307.628906 15.039062 307.394531 14.882812 307.394531 14.160156 L 307.394531 5.195312 Z M 307.277344 5.175781 "/>
<path style=" stroke:none;fill-rule:nonzero;fill:rgb(0%,0%,0%);fill-opacity:1;" d="M 317.480469 13.222656 L 317.285156 13.144531 C 316.738281 14.003906 316.542969 14.140625 315.878906 14.140625 L 312.304688 14.140625 L 314.804688 11.503906 C 316.152344 10.117188 316.71875 8.984375 316.71875 7.8125 C 316.71875 6.328125 315.507812 5.175781 313.964844 5.175781 C 313.144531 5.175781 312.363281 5.507812 311.816406 6.09375 C 311.328125 6.601562 311.113281 7.089844 310.859375 8.144531 L 311.171875 8.222656 C 311.757812 6.757812 312.304688 6.269531 313.339844 6.269531 C 314.589844 6.269531 315.449219 7.128906 315.449219 8.378906 C 315.449219 9.550781 314.746094 10.9375 313.496094 12.265625 L 310.839844 15.097656 L 310.839844 15.273438 L 316.660156 15.273438 Z M 317.480469 13.222656 "/>
<path style=" stroke:none;fill-rule:nonzero;fill:rgb(0%,0%,0%);fill-opacity:1;" d="M 322.1875 11.425781 L 322.1875 12.382812 L 325.859375 12.382812 L 325.859375 11.425781 Z M 322.1875 11.425781 "/>
<path style=" stroke:none;fill-rule:nonzero;fill:rgb(0%,0%,0%);fill-opacity:1;" d="M 333.667969 13.222656 L 333.472656 13.144531 C 332.925781 14.003906 332.730469 14.140625 332.066406 14.140625 L 328.492188 14.140625 L 330.992188 11.503906 C 332.339844 10.117188 332.90625 8.984375 332.90625 7.8125 C 332.90625 6.328125 331.695312 5.175781 330.152344 5.175781 C 329.332031 5.175781 328.550781 5.507812 328.003906 6.09375 C 327.515625 6.601562 327.300781 7.089844 327.046875 8.144531 L 327.359375 8.222656 C 327.945312 6.757812 328.492188 6.269531 329.527344 6.269531 C 330.777344 6.269531 331.636719 7.128906 331.636719 8.378906 C 331.636719 9.550781 330.933594 10.9375 329.683594 12.265625 L 327.027344 15.097656 L 327.027344 15.273438 L 332.847656 15.273438 Z M 333.667969 13.222656 "/>
<path style=" stroke:none;fill-rule:nonzero;fill:rgb(0%,0%,0%);fill-opacity:1;" d="M 335.921875 13.789062 C 335.472656 13.789062 335.101562 14.160156 335.101562 14.628906 C 335.101562 15.058594 335.472656 15.429688 335.902344 15.429688 C 336.371094 15.429688 336.742188 15.058594 336.742188 14.628906 C 336.742188 14.160156 336.371094 13.789062 335.921875 13.789062 Z M 335.921875 13.789062 "/>
<path style=" stroke:none;fill-rule:nonzero;fill:rgb(0%,0%,0%);fill-opacity:1;" d="M 344.292969 13.789062 C 343.84375 13.789062 343.472656 14.160156 343.472656 14.628906 C 343.472656 15.058594 343.84375 15.429688 344.273438 15.429688 C 344.742188 15.429688 345.113281 15.058594 345.113281 14.628906 C 345.113281 14.160156 344.742188 13.789062 344.292969 13.789062 Z M 344.292969 13.789062 "/>
<path style=" stroke:none;fill-rule:nonzero;fill:rgb(0%,0%,0%);fill-opacity:1;" d="M 353.242188 13.222656 L 353.046875 13.144531 C 352.5 14.003906 352.304688 14.140625 351.640625 14.140625 L 348.066406 14.140625 L 350.566406 11.503906 C 351.914062 10.117188 352.480469 8.984375 352.480469 7.8125 C 352.480469 6.328125 351.269531 5.175781 349.726562 5.175781 C 348.90625 5.175781 348.125 5.507812 347.578125 6.09375 C 347.089844 6.601562 346.875 7.089844 346.621094 8.144531 L 346.933594 8.222656 C 347.519531 6.757812 348.066406 6.269531 349.101562 6.269531 C 350.351562 6.269531 351.210938 7.128906 351.210938 8.378906 C 351.210938 9.550781 350.507812 10.9375 349.257812 12.265625 L 346.601562 15.097656 L 346.601562 15.273438 L 352.421875 15.273438 Z M 353.242188 13.222656 "/>
<path style=" stroke:none;fill-rule:nonzero;fill:rgb(0%,0%,0%);fill-opacity:1;" d="M 357.414062 5.175781 C 356.59375 5.175781 355.96875 5.429688 355.421875 5.957031 C 354.542969 6.777344 353.976562 8.496094 353.976562 10.253906 C 353.976562 11.875 354.484375 13.632812 355.1875 14.472656 C 355.734375 15.117188 356.496094 15.488281 357.355469 15.488281 C 358.117188 15.488281 358.761719 15.234375 359.308594 14.707031 C 360.167969 13.886719 360.734375 12.148438 360.734375 10.351562 C 360.734375 7.285156 359.386719 5.175781 357.414062 5.175781 Z M 357.375 5.566406 C 358.625 5.566406 359.308594 7.246094 359.308594 10.371094 C 359.308594 13.496094 358.644531 15.097656 357.355469 15.097656 C 356.066406 15.097656 355.421875 13.496094 355.421875 10.390625 C 355.421875 7.226562 356.085938 5.566406 357.375 5.566406 Z M 357.375 5.566406 "/>
<path style=" stroke:none;fill-rule:nonzero;fill:rgb(0%,0%,0%);fill-opacity:1;" d="M 364.886719 5.175781 C 364.066406 5.175781 363.441406 5.429688 362.894531 5.957031 C 362.015625 6.777344 361.449219 8.496094 361.449219 10.253906 C 361.449219 11.875 361.957031 13.632812 362.660156 14.472656 C 363.207031 15.117188 363.96875 15.488281 364.828125 15.488281 C 365.589844 15.488281 366.234375 15.234375 366.78125 14.707031 C 367.640625 13.886719 368.207031 12.148438 368.207031 10.351562 C 368.207031 7.285156 366.859375 5.175781 364.886719 5.175781 Z M 364.847656 5.566406 C 366.097656 5.566406 366.78125 7.246094 366.78125 10.371094 C 366.78125 13.496094 366.117188 15.097656 364.828125 15.097656 C 363.539062 15.097656 362.894531 13.496094 362.894531 10.390625 C 362.894531 7.226562 363.558594 5.566406 364.847656 5.566406 Z M 364.847656 5.566406 "/>
<path style=" stroke:none;fill-rule:nonzero;fill:rgb(0%,0%,0%);fill-opacity:1;" d="M 372.359375 5.175781 C 371.539062 5.175781 370.914062 5.429688 370.367188 5.957031 C 369.488281 6.777344 368.921875 8.496094 368.921875 10.253906 C 368.921875 11.875 369.429688 13.632812 370.132812 14.472656 C 370.679688 15.117188 371.441406 15.488281 372.300781 15.488281 C 373.0625 15.488281 373.707031 15.234375 374.253906 14.707031 C 375.113281 13.886719 375.679688 12.148438 375.679688 10.351562 C 375.679688 7.285156 374.332031 5.175781 372.359375 5.175781 Z M 372.320312 5.566406 C 373.570312 5.566406 374.253906 7.246094 374.253906 10.371094 C 374.253906 13.496094 373.589844 15.097656 372.300781 15.097656 C 371.011719 15.097656 370.367188 13.496094 370.367188 10.390625 C 370.367188 7.226562 371.03125 5.566406 372.320312 5.566406 Z M 372.320312 5.566406 "/>
<path style=" stroke:none;fill-rule:nonzero;fill:rgb(0%,0%,0%);fill-opacity:1;" d="M 380.363281 11.425781 L 380.363281 12.382812 L 384.035156 12.382812 L 384.035156 11.425781 Z M 380.363281 11.425781 "/>
<path style=" stroke:none;fill-rule:nonzero;fill:rgb(0%,0%,0%);fill-opacity:1;" d="M 389.109375 5.175781 L 386.414062 6.523438 L 386.414062 6.738281 C 386.589844 6.660156 386.765625 6.601562 386.824219 6.582031 C 387.078125 6.464844 387.332031 6.40625 387.488281 6.40625 C 387.800781 6.40625 387.9375 6.640625 387.9375 7.109375 L 387.9375 13.886719 C 387.9375 14.375 387.820312 14.726562 387.585938 14.863281 C 387.351562 14.980469 387.136719 15.039062 386.511719 15.058594 L 386.511719 15.273438 L 390.632812 15.273438 L 390.632812 15.058594 C 389.460938 15.039062 389.226562 14.882812 389.226562 14.160156 L 389.226562 5.195312 Z M 389.109375 5.175781 "/>
<path style=" stroke:none;fill-rule:nonzero;fill:rgb(0%,0%,0%);fill-opacity:1;" d="M 394.101562 13.789062 C 393.652344 13.789062 393.28125 14.160156 393.28125 14.628906 C 393.28125 15.058594 393.652344 15.429688 394.082031 15.429688 C 394.550781 15.429688 394.921875 15.058594 394.921875 14.628906 C 394.921875 14.160156 394.550781 13.789062 394.101562 13.789062 Z M 394.101562 13.789062 "/>
<path style=" stroke:none;fill-rule:nonzero;fill:rgb(0%,0%,0%);fill-opacity:1;" d="M 400.296875 9.726562 C 401.78125 8.945312 402.289062 8.320312 402.289062 7.285156 C 402.289062 6.074219 401.214844 5.175781 399.730469 5.175781 C 398.089844 5.175781 396.878906 6.171875 396.878906 7.539062 C 396.878906 8.496094 397.171875 8.945312 398.734375 10.3125 C 397.132812 11.542969 396.800781 11.992188 396.800781 13.007812 C 396.800781 14.472656 397.972656 15.488281 399.671875 15.488281 C 401.46875 15.488281 402.601562 14.492188 402.601562 12.949219 C 402.601562 11.816406 402.09375 11.074219 400.296875 9.726562 Z M 400.023438 11.269531 C 401.117188 12.050781 401.46875 12.578125 401.46875 13.417969 C 401.46875 14.394531 400.804688 15.058594 399.828125 15.058594 C 398.695312 15.058594 397.933594 14.199219 397.933594 12.890625 C 397.933594 11.933594 398.265625 11.308594 399.125 10.605469 Z M 399.867188 9.453125 C 398.539062 8.59375 397.992188 7.910156 397.992188 7.070312 C 397.992188 6.210938 398.65625 5.585938 399.613281 5.585938 C 400.628906 5.585938 401.273438 6.25 401.273438 7.285156 C 401.273438 8.125 400.84375 8.808594 400.003906 9.375 C 399.925781 9.414062 399.925781 9.414062 399.867188 9.453125 Z M 399.867188 9.453125 "/>
<path style=" stroke:none;fill-rule:nonzero;fill:rgb(0%,0%,0%);fill-opacity:1;" d="M 409.042969 13.789062 C 408.59375 13.789062 408.222656 14.160156 408.222656 14.628906 C 408.222656 15.058594 408.59375 15.429688 409.023438 15.429688 C 409.492188 15.429688 409.863281 15.058594 409.863281 14.628906 C 409.863281 14.160156 409.492188 13.789062 409.042969 13.789062 Z M 409.042969 13.789062 "/>
<path style=" stroke:none;fill-rule:nonzero;fill:rgb(0%,0%,0%);fill-opacity:1;" d="M 417.996094 13.222656 L 417.800781 13.144531 C 417.253906 14.003906 417.058594 14.140625 416.394531 14.140625 L 412.820312 14.140625 L 415.320312 11.503906 C 416.667969 10.117188 417.234375 8.984375 417.234375 7.8125 C 417.234375 6.328125 416.023438 5.175781 414.480469 5.175781 C 413.660156 5.175781 412.878906 5.507812 412.332031 6.09375 C 411.84375 6.601562 411.628906 7.089844 411.375 8.144531 L 411.6875 8.222656 C 412.273438 6.757812 412.820312 6.269531 413.855469 6.269531 C 415.105469 6.269531 415.964844 7.128906 415.964844 8.378906 C 415.964844 9.550781 415.261719 10.9375 414.011719 12.265625 L 411.355469 15.097656 L 411.355469 15.273438 L 417.175781 15.273438 Z M 417.996094 13.222656 "/>
<path style=" stroke:none;fill-rule:nonzero;fill:rgb(0%,0%,0%);fill-opacity:1;" d="M 420.664062 10.351562 C 421.542969 10.351562 421.894531 10.371094 422.246094 10.507812 C 423.183594 10.839844 423.75 11.679688 423.75 12.714844 C 423.75 13.964844 422.910156 14.941406 421.796875 14.941406 C 421.40625 14.941406 421.09375 14.84375 420.546875 14.472656 C 420.097656 14.21875 419.84375 14.101562 419.589844 14.101562 C 419.238281 14.101562 419.023438 14.316406 419.023438 14.628906 C 419.023438 15.15625 419.667969 15.488281 420.703125 15.488281 C 421.855469 15.488281 423.046875 15.097656 423.75 14.472656 C 424.453125 13.867188 424.824219 13.007812 424.824219 11.992188 C 424.824219 11.230469 424.589844 10.527344 424.160156 10.078125 C 423.867188 9.746094 423.574219 9.570312 422.929688 9.277344 C 423.945312 8.574219 424.316406 8.027344 424.316406 7.226562 C 424.316406 6.015625 423.378906 5.175781 421.992188 5.175781 C 421.25 5.175781 420.585938 5.429688 420.058594 5.898438 C 419.609375 6.308594 419.375 6.699219 419.042969 7.597656 L 419.277344 7.65625 C 419.882812 6.5625 420.566406 6.074219 421.503906 6.074219 C 422.480469 6.074219 423.144531 6.71875 423.144531 7.675781 C 423.144531 8.203125 422.929688 8.75 422.539062 9.121094 C 422.089844 9.570312 421.679688 9.785156 420.664062 10.15625 Z M 420.664062 10.351562 "/>
<path style=" stroke:none;fill-rule:nonzero;fill:rgb(0%,0%,0%);fill-opacity:1;" d="M 428.546875 6.5625 L 431.476562 6.5625 C 431.730469 6.5625 431.789062 6.523438 431.828125 6.425781 L 432.394531 5.097656 L 432.257812 5 C 432.042969 5.3125 431.886719 5.390625 431.574219 5.390625 L 428.449219 5.390625 L 426.828125 8.925781 C 426.808594 8.945312 426.808594 8.964844 426.808594 9.003906 C 426.808594 9.082031 426.867188 9.121094 426.984375 9.121094 C 427.472656 9.121094 428.058594 9.21875 428.683594 9.414062 C 430.402344 9.960938 431.183594 10.898438 431.183594 12.382812 C 431.183594 13.808594 430.265625 14.921875 429.113281 14.921875 C 428.800781 14.921875 428.546875 14.824219 428.117188 14.492188 C 427.628906 14.160156 427.277344 14.003906 426.964844 14.003906 C 426.535156 14.003906 426.320312 14.179688 426.320312 14.550781 C 426.320312 15.117188 427.023438 15.488281 428.15625 15.488281 C 429.40625 15.488281 430.480469 15.078125 431.222656 14.316406 C 431.925781 13.652344 432.238281 12.792969 432.238281 11.660156 C 432.238281 10.585938 431.945312 9.902344 431.203125 9.140625 C 430.539062 8.496094 429.699219 8.144531 427.921875 7.832031 Z M 428.546875 6.5625 "/>
<path style=" stroke:none;fill-rule:nonzero;fill:rgb(0%,0%,0%);fill-opacity:1;" d="M 437.65625 9.726562 C 439.140625 8.945312 439.648438 8.320312 439.648438 7.285156 C 439.648438 6.074219 438.574219 5.175781 437.089844 5.175781 C 435.449219 5.175781 434.238281 6.171875 434.238281 7.539062 C 434.238281 8.496094 434.53125 8.945312 436.09375 10.3125 C 434.492188 11.542969 434.160156 11.992188 434.160156 13.007812 C 434.160156 14.472656 435.332031 15.488281 437.03125 15.488281 C 438.828125 15.488281 439.960938 14.492188 439.960938 12.949219 C 439.960938 11.816406 439.453125 11.074219 437.65625 9.726562 Z M 437.382812 11.269531 C 438.476562 12.050781 438.828125 12.578125 438.828125 13.417969 C 438.828125 14.394531 438.164062 15.058594 437.1875 15.058594 C 436.054688 15.058594 435.292969 14.199219 435.292969 12.890625 C 435.292969 11.933594 435.625 11.308594 436.484375 10.605469 Z M 437.226562 9.453125 C 435.898438 8.59375 435.351562 7.910156 435.351562 7.070312 C 435.351562 6.210938 436.015625 5.585938 436.972656 5.585938 C 437.988281 5.585938 438.632812 6.25 438.632812 7.285156 C 438.632812 8.125 438.203125 8.808594 437.363281 9.375 C 437.285156 9.414062 437.285156 9.414062 437.226562 9.453125 Z M 437.226562 9.453125 "/>
<path style=" stroke:none;fill-rule:nonzero;fill:rgb(0%,0%,0%);fill-opacity:1;" d="M 445.117188 11.425781 L 445.117188 12.382812 L 448.789062 12.382812 L 448.789062 11.425781 Z M 445.117188 11.425781 "/>
<path style=" stroke:none;fill-rule:nonzero;fill:rgb(0%,0%,0%);fill-opacity:1;" d="M 453.863281 5.175781 L 451.167969 6.523438 L 451.167969 6.738281 C 451.34375 6.660156 451.519531 6.601562 451.578125 6.582031 C 451.832031 6.464844 452.085938 6.40625 452.242188 6.40625 C 452.554688 6.40625 452.691406 6.640625 452.691406 7.109375 L 452.691406 13.886719 C 452.691406 14.375 452.574219 14.726562 452.339844 14.863281 C 452.105469 14.980469 451.890625 15.039062 451.265625 15.058594 L 451.265625 15.273438 L 455.386719 15.273438 L 455.386719 15.058594 C 454.214844 15.039062 453.980469 14.882812 453.980469 14.160156 L 453.980469 5.195312 Z M 453.863281 5.175781 "/>
<path style=" stroke:none;fill-rule:nonzero;fill:rgb(0%,0%,0%);fill-opacity:1;" d="M 458.851562 13.789062 C 458.402344 13.789062 458.03125 14.160156 458.03125 14.628906 C 458.03125 15.058594 458.402344 15.429688 458.832031 15.429688 C 459.300781 15.429688 459.671875 15.058594 459.671875 14.628906 C 459.671875 14.160156 459.300781 13.789062 458.851562 13.789062 Z M 458.851562 13.789062 "/>
<path style=" stroke:none;fill-rule:nonzero;fill:rgb(0%,0%,0%);fill-opacity:1;" d="M 467.375 5.058594 C 465.675781 5.195312 464.816406 5.488281 463.722656 6.25 C 462.101562 7.402344 461.222656 9.101562 461.222656 11.113281 C 461.222656 12.402344 461.632812 13.710938 462.277344 14.472656 C 462.84375 15.117188 463.644531 15.488281 464.5625 15.488281 C 466.417969 15.488281 467.707031 14.0625 467.707031 11.992188 C 467.707031 10.097656 466.613281 8.886719 464.894531 8.886719 C 464.25 8.886719 463.917969 8.984375 462.980469 9.550781 C 463.390625 7.285156 465.070312 5.683594 467.414062 5.292969 Z M 464.328125 9.570312 C 465.617188 9.570312 466.359375 10.644531 466.359375 12.5 C 466.359375 14.160156 465.773438 15.058594 464.738281 15.058594 C 463.410156 15.058594 462.609375 13.652344 462.609375 11.347656 C 462.609375 10.585938 462.726562 10.15625 463.039062 9.941406 C 463.351562 9.707031 463.800781 9.570312 464.328125 9.570312 Z M 464.328125 9.570312 "/>
<path style=" stroke:none;fill-rule:nonzero;fill:rgb(0%,0%,0%);fill-opacity:1;" d="M 473.796875 13.789062 C 473.347656 13.789062 472.976562 14.160156 472.976562 14.628906 C 472.976562 15.058594 473.347656 15.429688 473.777344 15.429688 C 474.246094 15.429688 474.617188 15.058594 474.617188 14.628906 C 474.617188 14.160156 474.246094 13.789062 473.796875 13.789062 Z M 473.796875 13.789062 "/>
<path style=" stroke:none;fill-rule:nonzero;fill:rgb(0%,0%,0%);fill-opacity:1;" d="M 482.746094 13.222656 L 482.550781 13.144531 C 482.003906 14.003906 481.808594 14.140625 481.144531 14.140625 L 477.570312 14.140625 L 480.070312 11.503906 C 481.417969 10.117188 481.984375 8.984375 481.984375 7.8125 C 481.984375 6.328125 480.773438 5.175781 479.230469 5.175781 C 478.410156 5.175781 477.628906 5.507812 477.082031 6.09375 C 476.59375 6.601562 476.378906 7.089844 476.125 8.144531 L 476.4375 8.222656 C 477.023438 6.757812 477.570312 6.269531 478.605469 6.269531 C 479.855469 6.269531 480.714844 7.128906 480.714844 8.378906 C 480.714844 9.550781 480.011719 10.9375 478.761719 12.265625 L 476.105469 15.097656 L 476.105469 15.273438 L 481.925781 15.273438 Z M 482.746094 13.222656 "/>
<path style=" stroke:none;fill-rule:nonzero;fill:rgb(0%,0%,0%);fill-opacity:1;" d="M 487.464844 9.726562 C 488.949219 8.945312 489.457031 8.320312 489.457031 7.285156 C 489.457031 6.074219 488.382812 5.175781 486.898438 5.175781 C 485.257812 5.175781 484.046875 6.171875 484.046875 7.539062 C 484.046875 8.496094 484.339844 8.945312 485.902344 10.3125 C 484.300781 11.542969 483.96875 11.992188 483.96875 13.007812 C 483.96875 14.472656 485.140625 15.488281 486.839844 15.488281 C 488.636719 15.488281 489.769531 14.492188 489.769531 12.949219 C 489.769531 11.816406 489.261719 11.074219 487.464844 9.726562 Z M 487.191406 11.269531 C 488.285156 12.050781 488.636719 12.578125 488.636719 13.417969 C 488.636719 14.394531 487.972656 15.058594 486.996094 15.058594 C 485.863281 15.058594 485.101562 14.199219 485.101562 12.890625 C 485.101562 11.933594 485.433594 11.308594 486.292969 10.605469 Z M 487.035156 9.453125 C 485.707031 8.59375 485.160156 7.910156 485.160156 7.070312 C 485.160156 6.210938 485.824219 5.585938 486.78125 5.585938 C 487.796875 5.585938 488.441406 6.25 488.441406 7.285156 C 488.441406 8.125 488.011719 8.808594 487.171875 9.375 C 487.09375 9.414062 487.09375 9.414062 487.035156 9.453125 Z M 487.035156 9.453125 "/>
<path style=" stroke:none;fill-rule:nonzero;fill:rgb(0%,0%,0%);fill-opacity:1;" d="M 494.390625 5.175781 C 493.570312 5.175781 492.945312 5.429688 492.398438 5.957031 C 491.519531 6.777344 490.953125 8.496094 490.953125 10.253906 C 490.953125 11.875 491.460938 13.632812 492.164062 14.472656 C 492.710938 15.117188 493.472656 15.488281 494.332031 15.488281 C 495.09375 15.488281 495.738281 15.234375 496.285156 14.707031 C 497.144531 13.886719 497.710938 12.148438 497.710938 10.351562 C 497.710938 7.285156 496.363281 5.175781 494.390625 5.175781 Z M 494.351562 5.566406 C 495.601562 5.566406 496.285156 7.246094 496.285156 10.371094 C 496.285156 13.496094 495.621094 15.097656 494.332031 15.097656 C 493.042969 15.097656 492.398438 13.496094 492.398438 10.390625 C 492.398438 7.226562 493.0625 5.566406 494.351562 5.566406 Z M 494.351562 5.566406 "/>
<path style=" stroke:none;fill-rule:nonzero;fill:rgb(0%,0%,0%);fill-opacity:1;" d="M 498.953125 15.605469 C 500.632812 15.410156 501.453125 15.117188 502.46875 14.394531 C 504.011719 13.261719 504.929688 11.40625 504.929688 9.394531 C 504.929688 6.914062 503.5625 5.175781 501.628906 5.175781 C 499.851562 5.175781 498.523438 6.679688 498.523438 8.691406 C 498.523438 10.527344 499.597656 11.738281 501.21875 11.738281 C 502.039062 11.738281 502.664062 11.484375 503.445312 10.878906 C 502.839844 13.320312 501.179688 14.921875 498.914062 15.3125 Z M 503.484375 9.960938 C 503.484375 10.273438 503.425781 10.410156 503.25 10.527344 C 502.839844 10.898438 502.292969 11.09375 501.746094 11.09375 C 500.613281 11.09375 499.890625 9.960938 499.890625 8.183594 C 499.890625 7.34375 500.144531 6.445312 500.457031 6.054688 C 500.710938 5.761719 501.082031 5.585938 501.511719 5.585938 C 502.820312 5.585938 503.484375 6.875 503.484375 9.394531 Z M 503.484375 9.960938 "/>
<path style=" stroke:none;fill-rule:nonzero;fill:rgb(0%,0%,0%);fill-opacity:1;" d="M 509.867188 11.425781 L 509.867188 12.382812 L 513.539062 12.382812 L 513.539062 11.425781 Z M 509.867188 11.425781 "/>
<path style=" stroke:none;fill-rule:nonzero;fill:rgb(0%,0%,0%);fill-opacity:1;" d="M 518.613281 5.175781 L 515.917969 6.523438 L 515.917969 6.738281 C 516.09375 6.660156 516.269531 6.601562 516.328125 6.582031 C 516.582031 6.464844 516.835938 6.40625 516.992188 6.40625 C 517.304688 6.40625 517.441406 6.640625 517.441406 7.109375 L 517.441406 13.886719 C 517.441406 14.375 517.324219 14.726562 517.089844 14.863281 C 516.855469 14.980469 516.640625 15.039062 516.015625 15.058594 L 516.015625 15.273438 L 520.136719 15.273438 L 520.136719 15.058594 C 518.964844 15.039062 518.730469 14.882812 518.730469 14.160156 L 518.730469 5.195312 Z M 518.613281 5.175781 "/>
<path style=" stroke:none;fill-rule:nonzero;fill:rgb(0%,0%,0%);fill-opacity:1;" d="M 523.605469 13.789062 C 523.15625 13.789062 522.785156 14.160156 522.785156 14.628906 C 522.785156 15.058594 523.15625 15.429688 523.585938 15.429688 C 524.054688 15.429688 524.425781 15.058594 524.425781 14.628906 C 524.425781 14.160156 524.054688 13.789062 523.605469 13.789062 Z M 523.605469 13.789062 "/>
<path style=" stroke:none;fill-rule:nonzero;fill:rgb(0%,0%,0%);fill-opacity:1;" d="M 532.515625 11.816406 L 530.992188 11.816406 L 530.992188 5.175781 L 530.328125 5.175781 L 525.640625 11.816406 L 525.640625 12.773438 L 529.839844 12.773438 L 529.839844 15.273438 L 530.992188 15.273438 L 530.992188 12.773438 L 532.515625 12.773438 Z M 529.820312 11.816406 L 526.246094 11.816406 L 529.820312 6.699219 Z M 529.820312 11.816406 "/>
<path style=" stroke:none;fill-rule:nonzero;fill:rgb(0%,0%,0%);fill-opacity:1;" d="M 538.550781 13.789062 C 538.101562 13.789062 537.730469 14.160156 537.730469 14.628906 C 537.730469 15.058594 538.101562 15.429688 538.53125 15.429688 C 539 15.429688 539.371094 15.058594 539.371094 14.628906 C 539.371094 14.160156 539 13.789062 538.550781 13.789062 Z M 538.550781 13.789062 "/>
<path style=" stroke:none;fill-rule:nonzero;fill:rgb(0%,0%,0%);fill-opacity:1;" d="M 542.695312 10.351562 C 543.574219 10.351562 543.925781 10.371094 544.277344 10.507812 C 545.214844 10.839844 545.78125 11.679688 545.78125 12.714844 C 545.78125 13.964844 544.941406 14.941406 543.828125 14.941406 C 543.4375 14.941406 543.125 14.84375 542.578125 14.472656 C 542.128906 14.21875 541.875 14.101562 541.621094 14.101562 C 541.269531 14.101562 541.054688 14.316406 541.054688 14.628906 C 541.054688 15.15625 541.699219 15.488281 542.734375 15.488281 C 543.886719 15.488281 545.078125 15.097656 545.78125 14.472656 C 546.484375 13.867188 546.855469 13.007812 546.855469 11.992188 C 546.855469 11.230469 546.621094 10.527344 546.191406 10.078125 C 545.898438 9.746094 545.605469 9.570312 544.960938 9.277344 C 545.976562 8.574219 546.347656 8.027344 546.347656 7.226562 C 546.347656 6.015625 545.410156 5.175781 544.023438 5.175781 C 543.28125 5.175781 542.617188 5.429688 542.089844 5.898438 C 541.640625 6.308594 541.40625 6.699219 541.074219 7.597656 L 541.308594 7.65625 C 541.914062 6.5625 542.597656 6.074219 543.535156 6.074219 C 544.511719 6.074219 545.175781 6.71875 545.175781 7.675781 C 545.175781 8.203125 544.960938 8.75 544.570312 9.121094 C 544.121094 9.570312 543.710938 9.785156 542.695312 10.15625 Z M 542.695312 10.351562 "/>
<path style=" stroke:none;fill-rule:nonzero;fill:rgb(0%,0%,0%);fill-opacity:1;" d="M 550.167969 10.351562 C 551.046875 10.351562 551.398438 10.371094 551.75 10.507812 C 552.6875 10.839844 553.253906 11.679688 553.253906 12.714844 C 553.253906 13.964844 552.414062 14.941406 551.300781 14.941406 C 550.910156 14.941406 550.597656 14.84375 550.050781 14.472656 C 549.601562 14.21875 549.347656 14.101562 549.09375 14.101562 C 548.742188 14.101562 548.527344 14.316406 548.527344 14.628906 C 548.527344 15.15625 549.171875 15.488281 550.207031 15.488281 C 551.359375 15.488281 552.550781 15.097656 553.253906 14.472656 C 553.957031 13.867188 554.328125 13.007812 554.328125 11.992188 C 554.328125 11.230469 554.09375 10.527344 553.664062 10.078125 C 553.371094 9.746094 553.078125 9.570312 552.433594 9.277344 C 553.449219 8.574219 553.820312 8.027344 553.820312 7.226562 C 553.820312 6.015625 552.882812 5.175781 551.496094 5.175781 C 550.753906 5.175781 550.089844 5.429688 549.5625 5.898438 C 549.113281 6.308594 548.878906 6.699219 548.546875 7.597656 L 548.78125 7.65625 C 549.386719 6.5625 550.070312 6.074219 551.007812 6.074219 C 551.984375 6.074219 552.648438 6.71875 552.648438 7.675781 C 552.648438 8.203125 552.433594 8.75 552.042969 9.121094 C 551.59375 9.570312 551.183594 9.785156 550.167969 10.15625 Z M 550.167969 10.351562 "/>
<path style=" stroke:none;fill-rule:nonzero;fill:rgb(0%,0%,0%);fill-opacity:1;" d="M 562.054688 5.390625 L 556.527344 5.390625 L 555.648438 7.578125 L 555.902344 7.695312 C 556.546875 6.679688 556.820312 6.484375 557.640625 6.484375 L 560.882812 6.484375 L 557.933594 15.390625 L 558.890625 15.390625 L 562.054688 5.625 Z M 562.054688 5.390625 "/>
<path style=" stroke:none;fill-rule:nonzero;fill:rgb(0%,0%,0%);fill-opacity:1;" d="M 567.164062 9.726562 C 568.648438 8.945312 569.15625 8.320312 569.15625 7.285156 C 569.15625 6.074219 568.082031 5.175781 566.597656 5.175781 C 564.957031 5.175781 563.746094 6.171875 563.746094 7.539062 C 563.746094 8.496094 564.039062 8.945312 565.601562 10.3125 C 564 11.542969 563.667969 11.992188 563.667969 13.007812 C 563.667969 14.472656 564.839844 15.488281 566.539062 15.488281 C 568.335938 15.488281 569.46875 14.492188 569.46875 12.949219 C 569.46875 11.816406 568.960938 11.074219 567.164062 9.726562 Z M 566.890625 11.269531 C 567.984375 12.050781 568.335938 12.578125 568.335938 13.417969 C 568.335938 14.394531 567.671875 15.058594 566.695312 15.058594 C 565.5625 15.058594 564.800781 14.199219 564.800781 12.890625 C 564.800781 11.933594 565.132812 11.308594 565.992188 10.605469 Z M 566.734375 9.453125 C 565.40625 8.59375 564.859375 7.910156 564.859375 7.070312 C 564.859375 6.210938 565.523438 5.585938 566.480469 5.585938 C 567.496094 5.585938 568.140625 6.25 568.140625 7.285156 C 568.140625 8.125 567.710938 8.808594 566.871094 9.375 C 566.792969 9.414062 566.792969 9.414062 566.734375 9.453125 Z M 566.734375 9.453125 "/>
<path style=" stroke:none;fill-rule:nonzero;fill:rgb(0%,0%,0%);fill-opacity:1;" d="M 574.621094 11.425781 L 574.621094 12.382812 L 578.292969 12.382812 L 578.292969 11.425781 Z M 574.621094 11.425781 "/>
<path style=" stroke:none;fill-rule:nonzero;fill:rgb(0%,0%,0%);fill-opacity:1;" d="M 583.367188 5.175781 L 580.671875 6.523438 L 580.671875 6.738281 C 580.847656 6.660156 581.023438 6.601562 581.082031 6.582031 C 581.335938 6.464844 581.589844 6.40625 581.746094 6.40625 C 582.058594 6.40625 582.195312 6.640625 582.195312 7.109375 L 582.195312 13.886719 C 582.195312 14.375 582.078125 14.726562 581.84375 14.863281 C 581.609375 14.980469 581.394531 15.039062 580.769531 15.058594 L 580.769531 15.273438 L 584.890625 15.273438 L 584.890625 15.058594 C 583.71875 15.039062 583.484375 14.882812 583.484375 14.160156 L 583.484375 5.195312 Z M 583.367188 5.175781 "/>
<path style=" stroke:none;fill-rule:nonzero;fill:rgb(0%,0%,0%);fill-opacity:1;" d="M 588.359375 13.789062 C 587.910156 13.789062 587.539062 14.160156 587.539062 14.628906 C 587.539062 15.058594 587.910156 15.429688 588.339844 15.429688 C 588.808594 15.429688 589.179688 15.058594 589.179688 14.628906 C 589.179688 14.160156 588.808594 13.789062 588.359375 13.789062 Z M 588.359375 13.789062 "/>
<path style=" stroke:none;fill-rule:nonzero;fill:rgb(0%,0%,0%);fill-opacity:1;" d="M 597.308594 13.222656 L 597.113281 13.144531 C 596.566406 14.003906 596.371094 14.140625 595.707031 14.140625 L 592.132812 14.140625 L 594.632812 11.503906 C 595.980469 10.117188 596.546875 8.984375 596.546875 7.8125 C 596.546875 6.328125 595.335938 5.175781 593.792969 5.175781 C 592.972656 5.175781 592.191406 5.507812 591.644531 6.09375 C 591.15625 6.601562 590.941406 7.089844 590.6875 8.144531 L 591 8.222656 C 591.585938 6.757812 592.132812 6.269531 593.167969 6.269531 C 594.417969 6.269531 595.277344 7.128906 595.277344 8.378906 C 595.277344 9.550781 594.574219 10.9375 593.324219 12.265625 L 590.667969 15.097656 L 590.667969 15.273438 L 596.488281 15.273438 Z M 597.308594 13.222656 "/>
<path style=" stroke:none;fill-rule:nonzero;fill:rgb(0%,0%,0%);fill-opacity:1;" d="M 603.300781 13.789062 C 602.851562 13.789062 602.480469 14.160156 602.480469 14.628906 C 602.480469 15.058594 602.851562 15.429688 603.28125 15.429688 C 603.75 15.429688 604.121094 15.058594 604.121094 14.628906 C 604.121094 14.160156 603.75 13.789062 603.300781 13.789062 Z M 603.300781 13.789062 "/>
<path style=" stroke:none;fill-rule:nonzero;fill:rgb(0%,0%,0%);fill-opacity:1;" d="M 612.214844 11.816406 L 610.691406 11.816406 L 610.691406 5.175781 L 610.027344 5.175781 L 605.339844 11.816406 L 605.339844 12.773438 L 609.539062 12.773438 L 609.539062 15.273438 L 610.691406 15.273438 L 610.691406 12.773438 L 612.214844 12.773438 Z M 609.519531 11.816406 L 605.945312 11.816406 L 609.519531 6.699219 Z M 609.519531 11.816406 "/>
<path style=" stroke:none;fill-rule:nonzero;fill:rgb(0%,0%,0%);fill-opacity:1;" d="M 616.425781 5.175781 C 615.605469 5.175781 614.980469 5.429688 614.433594 5.957031 C 613.554688 6.777344 612.988281 8.496094 612.988281 10.253906 C 612.988281 11.875 613.496094 13.632812 614.199219 14.472656 C 614.746094 15.117188 615.507812 15.488281 616.367188 15.488281 C 617.128906 15.488281 617.773438 15.234375 618.320312 14.707031 C 619.179688 13.886719 619.746094 12.148438 619.746094 10.351562 C 619.746094 7.285156 618.398438 5.175781 616.425781 5.175781 Z M 616.386719 5.566406 C 617.636719 5.566406 618.320312 7.246094 618.320312 10.371094 C 618.320312 13.496094 617.65625 15.097656 616.367188 15.097656 C 615.078125 15.097656 614.433594 13.496094 614.433594 10.390625 C 614.433594 7.226562 615.097656 5.566406 616.386719 5.566406 Z M 616.386719 5.566406 "/>
<path style=" stroke:none;fill-rule:nonzero;fill:rgb(0%,0%,0%);fill-opacity:1;" d="M 620.984375 15.605469 C 622.664062 15.410156 623.484375 15.117188 624.5 14.394531 C 626.042969 13.261719 626.960938 11.40625 626.960938 9.394531 C 626.960938 6.914062 625.59375 5.175781 623.660156 5.175781 C 621.882812 5.175781 620.554688 6.679688 620.554688 8.691406 C 620.554688 10.527344 621.628906 11.738281 623.25 11.738281 C 624.070312 11.738281 624.695312 11.484375 625.476562 10.878906 C 624.871094 13.320312 623.210938 14.921875 620.945312 15.3125 Z M 625.515625 9.960938 C 625.515625 10.273438 625.457031 10.410156 625.28125 10.527344 C 624.871094 10.898438 624.324219 11.09375 623.777344 11.09375 C 622.644531 11.09375 621.921875 9.960938 621.921875 8.183594 C 621.921875 7.34375 622.175781 6.445312 622.488281 6.054688 C 622.742188 5.761719 623.113281 5.585938 623.542969 5.585938 C 624.851562 5.585938 625.515625 6.875 625.515625 9.394531 Z M 625.515625 9.960938 "/>
<path style=" stroke:none;fill-rule:nonzero;fill:rgb(0%,0%,0%);fill-opacity:1;" d="M 631.914062 9.726562 C 633.398438 8.945312 633.90625 8.320312 633.90625 7.285156 C 633.90625 6.074219 632.832031 5.175781 631.347656 5.175781 C 629.707031 5.175781 628.496094 6.171875 628.496094 7.539062 C 628.496094 8.496094 628.789062 8.945312 630.351562 10.3125 C 628.75 11.542969 628.417969 11.992188 628.417969 13.007812 C 628.417969 14.472656 629.589844 15.488281 631.289062 15.488281 C 633.085938 15.488281 634.21875 14.492188 634.21875 12.949219 C 634.21875 11.816406 633.710938 11.074219 631.914062 9.726562 Z M 631.640625 11.269531 C 632.734375 12.050781 633.085938 12.578125 633.085938 13.417969 C 633.085938 14.394531 632.421875 15.058594 631.445312 15.058594 C 630.3125 15.058594 629.550781 14.199219 629.550781 12.890625 C 629.550781 11.933594 629.882812 11.308594 630.742188 10.605469 Z M 631.484375 9.453125 C 630.15625 8.59375 629.609375 7.910156 629.609375 7.070312 C 629.609375 6.210938 630.273438 5.585938 631.230469 5.585938 C 632.246094 5.585938 632.890625 6.25 632.890625 7.285156 C 632.890625 8.125 632.460938 8.808594 631.621094 9.375 C 631.542969 9.414062 631.542969 9.414062 631.484375 9.453125 Z M 631.484375 9.453125 "/>
<path style=" stroke:none;fill-rule:nonzero;fill:rgb(0%,0%,0%);fill-opacity:1;" d="M 639.371094 11.425781 L 639.371094 12.382812 L 643.042969 12.382812 L 643.042969 11.425781 Z M 639.371094 11.425781 "/>
<path style=" stroke:none;fill-rule:nonzero;fill:rgb(0%,0%,0%);fill-opacity:1;" d="M 648.117188 5.175781 L 645.421875 6.523438 L 645.421875 6.738281 C 645.597656 6.660156 645.773438 6.601562 645.832031 6.582031 C 646.085938 6.464844 646.339844 6.40625 646.496094 6.40625 C 646.808594 6.40625 646.945312 6.640625 646.945312 7.109375 L 646.945312 13.886719 C 646.945312 14.375 646.828125 14.726562 646.59375 14.863281 C 646.359375 14.980469 646.144531 15.039062 645.519531 15.058594 L 645.519531 15.273438 L 649.640625 15.273438 L 649.640625 15.058594 C 648.46875 15.039062 648.234375 14.882812 648.234375 14.160156 L 648.234375 5.195312 Z M 648.117188 5.175781 "/>
<path style=" stroke:none;fill-rule:nonzero;fill:rgb(0%,0%,0%);fill-opacity:1;" d="M 653.109375 13.789062 C 652.660156 13.789062 652.289062 14.160156 652.289062 14.628906 C 652.289062 15.058594 652.660156 15.429688 653.089844 15.429688 C 653.558594 15.429688 653.929688 15.058594 653.929688 14.628906 C 653.929688 14.160156 653.558594 13.789062 653.109375 13.789062 Z M 653.109375 13.789062 "/>
<path style=" stroke:none;fill-rule:nonzero;fill:rgb(0%,0%,0%);fill-opacity:1;" d="M 661.480469 13.789062 C 661.03125 13.789062 660.660156 14.160156 660.660156 14.628906 C 660.660156 15.058594 661.03125 15.429688 661.460938 15.429688 C 661.929688 15.429688 662.300781 15.058594 662.300781 14.628906 C 662.300781 14.160156 661.929688 13.789062 661.480469 13.789062 Z M 661.480469 13.789062 "/>
<path style=" stroke:none;fill-rule:nonzero;fill:rgb(0%,0%,0%);fill-opacity:1;" d="M 666.035156 6.5625 L 668.964844 6.5625 C 669.21875 6.5625 669.277344 6.523438 669.316406 6.425781 L 669.882812 5.097656 L 669.746094 5 C 669.53125 5.3125 669.375 5.390625 669.0625 5.390625 L 665.9375 5.390625 L 664.316406 8.925781 C 664.296875 8.945312 664.296875 8.964844 664.296875 9.003906 C 664.296875 9.082031 664.355469 9.121094 664.472656 9.121094 C 664.960938 9.121094 665.546875 9.21875 666.171875 9.414062 C 667.890625 9.960938 668.671875 10.898438 668.671875 12.382812 C 668.671875 13.808594 667.753906 14.921875 666.601562 14.921875 C 666.289062 14.921875 666.035156 14.824219 665.605469 14.492188 C 665.117188 14.160156 664.765625 14.003906 664.453125 14.003906 C 664.023438 14.003906 663.808594 14.179688 663.808594 14.550781 C 663.808594 15.117188 664.511719 15.488281 665.644531 15.488281 C 666.894531 15.488281 667.96875 15.078125 668.710938 14.316406 C 669.414062 13.652344 669.726562 12.792969 669.726562 11.660156 C 669.726562 10.585938 669.433594 9.902344 668.691406 9.140625 C 668.027344 8.496094 667.1875 8.144531 665.410156 7.832031 Z M 666.035156 6.5625 "/>
<path style=" stroke:none;fill-rule:nonzero;fill:rgb(0%,0%,0%);fill-opacity:1;" d="M 674.601562 5.175781 C 673.78125 5.175781 673.15625 5.429688 672.609375 5.957031 C 671.730469 6.777344 671.164062 8.496094 671.164062 10.253906 C 671.164062 11.875 671.671875 13.632812 672.375 14.472656 C 672.921875 15.117188 673.683594 15.488281 674.542969 15.488281 C 675.304688 15.488281 675.949219 15.234375 676.496094 14.707031 C 677.355469 13.886719 677.921875 12.148438 677.921875 10.351562 C 677.921875 7.285156 676.574219 5.175781 674.601562 5.175781 Z M 674.5625 5.566406 C 675.8125 5.566406 676.496094 7.246094 676.496094 10.371094 C 676.496094 13.496094 675.832031 15.097656 674.542969 15.097656 C 673.253906 15.097656 672.609375 13.496094 672.609375 10.390625 C 672.609375 7.226562 673.273438 5.566406 674.5625 5.566406 Z M 674.5625 5.566406 "/>
<path style=" stroke:none;fill-rule:nonzero;fill:rgb(0%,0%,0%);fill-opacity:1;" d="M 682.074219 5.175781 C 681.253906 5.175781 680.628906 5.429688 680.082031 5.957031 C 679.203125 6.777344 678.636719 8.496094 678.636719 10.253906 C 678.636719 11.875 679.144531 13.632812 679.847656 14.472656 C 680.394531 15.117188 681.15625 15.488281 682.015625 15.488281 C 682.777344 15.488281 683.421875 15.234375 683.96875 14.707031 C 684.828125 13.886719 685.394531 12.148438 685.394531 10.351562 C 685.394531 7.285156 684.046875 5.175781 682.074219 5.175781 Z M 682.035156 5.566406 C 683.285156 5.566406 683.96875 7.246094 683.96875 10.371094 C 683.96875 13.496094 683.304688 15.097656 682.015625 15.097656 C 680.726562 15.097656 680.082031 13.496094 680.082031 10.390625 C 680.082031 7.226562 680.746094 5.566406 682.035156 5.566406 Z M 682.035156 5.566406 "/>
<path style=" stroke:none;fill-rule:nonzero;fill:rgb(0%,0%,0%);fill-opacity:1;" d="M 689.542969 5.175781 C 688.722656 5.175781 688.097656 5.429688 687.550781 5.957031 C 686.671875 6.777344 686.105469 8.496094 686.105469 10.253906 C 686.105469 11.875 686.613281 13.632812 687.316406 14.472656 C 687.863281 15.117188 688.625 15.488281 689.484375 15.488281 C 690.246094 15.488281 690.890625 15.234375 691.4375 14.707031 C 692.296875 13.886719 692.863281 12.148438 692.863281 10.351562 C 692.863281 7.285156 691.515625 5.175781 689.542969 5.175781 Z M 689.503906 5.566406 C 690.753906 5.566406 691.4375 7.246094 691.4375 10.371094 C 691.4375 13.496094 690.773438 15.097656 689.484375 15.097656 C 688.195312 15.097656 687.550781 13.496094 687.550781 10.390625 C 687.550781 7.226562 688.214844 5.566406 689.503906 5.566406 Z M 689.503906 5.566406 "/>
</g>
</svg>
