<?xml version="1.0" encoding="UTF-8"?>
<svg xmlns="http://www.w3.org/2000/svg" xmlns:xlink="http://www.w3.org/1999/xlink" width="677.81314pt" height="20.605469pt" viewBox="0 0 677.81314 20.605469" version="1.1">
<g id="surface369">
<path style=" stroke:none;fill-rule:nonzero;fill:rgb(0%,0%,0%);fill-opacity:1;" d="M 5.820312 13.789062 C 5.371094 13.789062 5 14.160156 5 14.628906 C 5 15.058594 5.371094 15.429688 5.800781 15.429688 C 6.269531 15.429688 6.640625 15.058594 6.640625 14.628906 C 6.640625 14.160156 6.269531 13.789062 5.820312 13.789062 Z M 5.820312 13.789062 "/>
<path style=" stroke:none;fill-rule:nonzero;fill:rgb(0%,0%,0%);fill-opacity:1;" d="M 14.339844 5.058594 C 12.640625 5.195312 11.78125 5.488281 10.6875 6.25 C 9.066406 7.402344 8.1875 9.101562 8.1875 11.113281 C 8.1875 12.402344 8.597656 13.710938 9.242188 14.472656 C 9.808594 15.117188 10.609375 15.488281 11.527344 15.488281 C 13.382812 15.488281 14.671875 14.0625 14.671875 11.992188 C 14.671875 10.097656 13.578125 8.886719 11.859375 8.886719 C 11.214844 8.886719 10.882812 8.984375 9.945312 9.550781 C 10.355469 7.285156 12.035156 5.683594 14.378906 5.292969 Z M 11.292969 9.570312 C 12.582031 9.570312 13.324219 10.644531 13.324219 12.5 C 13.324219 14.160156 12.738281 15.058594 11.703125 15.058594 C 10.375 15.058594 9.574219 13.652344 9.574219 11.347656 C 9.574219 10.585938 9.691406 10.15625 10.003906 9.941406 C 10.316406 9.707031 10.765625 9.570312 11.292969 9.570312 Z M 11.292969 9.570312 "/>
<path style=" stroke:none;fill-rule:nonzero;fill:rgb(0%,0%,0%);fill-opacity:1;" d="M 18.941406 5.175781 C 18.121094 5.175781 17.496094 5.429688 16.949219 5.957031 C 16.070312 6.777344 15.503906 8.496094 15.503906 10.253906 C 15.503906 11.875 16.011719 13.632812 16.714844 14.472656 C 17.261719 15.117188 18.023438 15.488281 18.882812 15.488281 C 19.644531 15.488281 20.289062 15.234375 20.835938 14.707031 C 21.695312 13.886719 22.261719 12.148438 22.261719 10.351562 C 22.261719 7.285156 20.914062 5.175781 18.941406 5.175781 Z M 18.902344 5.566406 C 20.152344 5.566406 20.835938 7.246094 20.835938 10.371094 C 20.835938 13.496094 20.171875 15.097656 18.882812 15.097656 C 17.59375 15.097656 16.949219 13.496094 16.949219 10.390625 C 16.949219 7.226562 17.613281 5.566406 18.902344 5.566406 Z M 18.902344 5.566406 "/>
<path style=" stroke:none;fill-rule:nonzero;fill:rgb(0%,0%,0%);fill-opacity:1;" d="M 33.410156 11.816406 L 31.886719 11.816406 L 31.886719 5.175781 L 31.222656 5.175781 L 26.535156 11.816406 L 26.535156 12.773438 L 30.734375 12.773438 L 30.734375 15.273438 L 31.886719 15.273438 L 31.886719 12.773438 L 33.410156 12.773438 Z M 30.714844 11.816406 L 27.140625 11.816406 L 30.714844 6.699219 Z M 30.714844 11.816406 "/>
<path style=" stroke:none;fill-rule:nonzero;fill:rgb(0%,0%,0%);fill-opacity:1;" d="M 35.707031 13.789062 C 35.257812 13.789062 34.886719 14.160156 34.886719 14.628906 C 34.886719 15.058594 35.257812 15.429688 35.6875 15.429688 C 36.15625 15.429688 36.527344 15.058594 36.527344 14.628906 C 36.527344 14.160156 36.15625 13.789062 35.707031 13.789062 Z M 35.707031 13.789062 "/>
<path style=" stroke:none;fill-rule:nonzero;fill:rgb(0%,0%,0%);fill-opacity:1;" d="M 44.269531 5.390625 L 38.742188 5.390625 L 37.863281 7.578125 L 38.117188 7.695312 C 38.761719 6.679688 39.035156 6.484375 39.855469 6.484375 L 43.097656 6.484375 L 40.148438 15.390625 L 41.105469 15.390625 L 44.269531 5.625 Z M 44.269531 5.390625 "/>
<path style=" stroke:none;fill-rule:nonzero;fill:rgb(0%,0%,0%);fill-opacity:1;" d="M 51.703125 5.058594 C 50.003906 5.195312 49.144531 5.488281 48.050781 6.25 C 46.429688 7.402344 45.550781 9.101562 45.550781 11.113281 C 45.550781 12.402344 45.960938 13.710938 46.605469 14.472656 C 47.171875 15.117188 47.972656 15.488281 48.890625 15.488281 C 50.746094 15.488281 52.035156 14.0625 52.035156 11.992188 C 52.035156 10.097656 50.941406 8.886719 49.222656 8.886719 C 48.578125 8.886719 48.246094 8.984375 47.308594 9.550781 C 47.71875 7.285156 49.398438 5.683594 51.742188 5.292969 Z M 48.65625 9.570312 C 49.945312 9.570312 50.6875 10.644531 50.6875 12.5 C 50.6875 14.160156 50.101562 15.058594 49.066406 15.058594 C 47.738281 15.058594 46.9375 13.652344 46.9375 11.347656 C 46.9375 10.585938 47.054688 10.15625 47.367188 9.941406 C 47.679688 9.707031 48.128906 9.570312 48.65625 9.570312 Z M 48.65625 9.570312 "/>
<path style=" stroke:none;fill-rule:nonzero;fill:rgb(0%,0%,0%);fill-opacity:1;" d="M 59.601562 13.222656 L 59.40625 13.144531 C 58.859375 14.003906 58.664062 14.140625 58 14.140625 L 54.425781 14.140625 L 56.925781 11.503906 C 58.273438 10.117188 58.839844 8.984375 58.839844 7.8125 C 58.839844 6.328125 57.628906 5.175781 56.085938 5.175781 C 55.265625 5.175781 54.484375 5.507812 53.9375 6.09375 C 53.449219 6.601562 53.234375 7.089844 52.980469 8.144531 L 53.292969 8.222656 C 53.878906 6.757812 54.425781 6.269531 55.460938 6.269531 C 56.710938 6.269531 57.570312 7.128906 57.570312 8.378906 C 57.570312 9.550781 56.867188 10.9375 55.617188 12.265625 L 52.960938 15.097656 L 52.960938 15.273438 L 58.78125 15.273438 Z M 59.601562 13.222656 "/>
<path style=" stroke:none;fill-rule:nonzero;fill:rgb(0%,0%,0%);fill-opacity:1;" d="M 65.597656 13.789062 C 65.148438 13.789062 64.777344 14.160156 64.777344 14.628906 C 64.777344 15.058594 65.148438 15.429688 65.578125 15.429688 C 66.046875 15.429688 66.417969 15.058594 66.417969 14.628906 C 66.417969 14.160156 66.046875 13.789062 65.597656 13.789062 Z M 65.597656 13.789062 "/>
<path style=" stroke:none;fill-rule:nonzero;fill:rgb(0%,0%,0%);fill-opacity:1;" d="M 74.15625 5.390625 L 68.628906 5.390625 L 67.75 7.578125 L 68.003906 7.695312 C 68.648438 6.679688 68.921875 6.484375 69.742188 6.484375 L 72.984375 6.484375 L 70.035156 15.390625 L 70.992188 15.390625 L 74.15625 5.625 Z M 74.15625 5.390625 "/>
<path style=" stroke:none;fill-rule:nonzero;fill:rgb(0%,0%,0%);fill-opacity:1;" d="M 78.71875 5.175781 C 77.898438 5.175781 77.273438 5.429688 76.726562 5.957031 C 75.847656 6.777344 75.28125 8.496094 75.28125 10.253906 C 75.28125 11.875 75.789062 13.632812 76.492188 14.472656 C 77.039062 15.117188 77.800781 15.488281 78.660156 15.488281 C 79.421875 15.488281 80.066406 15.234375 80.613281 14.707031 C 81.472656 13.886719 82.039062 12.148438 82.039062 10.351562 C 82.039062 7.285156 80.691406 5.175781 78.71875 5.175781 Z M 78.679688 5.566406 C 79.929688 5.566406 80.613281 7.246094 80.613281 10.371094 C 80.613281 13.496094 79.949219 15.097656 78.660156 15.097656 C 77.371094 15.097656 76.726562 13.496094 76.726562 10.390625 C 76.726562 7.226562 77.390625 5.566406 78.679688 5.566406 Z M 78.679688 5.566406 "/>
<path style=" stroke:none;fill-rule:nonzero;fill:rgb(0%,0%,0%);fill-opacity:1;" d="M 93.226562 13.222656 L 93.03125 13.144531 C 92.484375 14.003906 92.289062 14.140625 91.625 14.140625 L 88.050781 14.140625 L 90.550781 11.503906 C 91.898438 10.117188 92.464844 8.984375 92.464844 7.8125 C 92.464844 6.328125 91.253906 5.175781 89.710938 5.175781 C 88.890625 5.175781 88.109375 5.507812 87.5625 6.09375 C 87.074219 6.601562 86.859375 7.089844 86.605469 8.144531 L 86.917969 8.222656 C 87.503906 6.757812 88.050781 6.269531 89.085938 6.269531 C 90.335938 6.269531 91.195312 7.128906 91.195312 8.378906 C 91.195312 9.550781 90.492188 10.9375 89.242188 12.265625 L 86.585938 15.097656 L 86.585938 15.273438 L 92.40625 15.273438 Z M 93.226562 13.222656 "/>
<path style=" stroke:none;fill-rule:nonzero;fill:rgb(0%,0%,0%);fill-opacity:1;" d="M 95.484375 13.789062 C 95.035156 13.789062 94.664062 14.160156 94.664062 14.628906 C 94.664062 15.058594 95.035156 15.429688 95.464844 15.429688 C 95.933594 15.429688 96.304688 15.058594 96.304688 14.628906 C 96.304688 14.160156 95.933594 13.789062 95.484375 13.789062 Z M 95.484375 13.789062 "/>
<path style=" stroke:none;fill-rule:nonzero;fill:rgb(0%,0%,0%);fill-opacity:1;" d="M 104.433594 13.222656 L 104.238281 13.144531 C 103.691406 14.003906 103.496094 14.140625 102.832031 14.140625 L 99.257812 14.140625 L 101.757812 11.503906 C 103.105469 10.117188 103.671875 8.984375 103.671875 7.8125 C 103.671875 6.328125 102.460938 5.175781 100.917969 5.175781 C 100.097656 5.175781 99.316406 5.507812 98.769531 6.09375 C 98.28125 6.601562 98.066406 7.089844 97.8125 8.144531 L 98.125 8.222656 C 98.710938 6.757812 99.257812 6.269531 100.292969 6.269531 C 101.542969 6.269531 102.402344 7.128906 102.402344 8.378906 C 102.402344 9.550781 101.699219 10.9375 100.449219 12.265625 L 97.792969 15.097656 L 97.792969 15.273438 L 103.613281 15.273438 Z M 104.433594 13.222656 "/>
<path style=" stroke:none;fill-rule:nonzero;fill:rgb(0%,0%,0%);fill-opacity:1;" d="M 111.515625 5.390625 L 105.988281 5.390625 L 105.109375 7.578125 L 105.363281 7.695312 C 106.007812 6.679688 106.28125 6.484375 107.101562 6.484375 L 110.34375 6.484375 L 107.394531 15.390625 L 108.351562 15.390625 L 111.515625 5.625 Z M 111.515625 5.390625 "/>
<path style=" stroke:none;fill-rule:nonzero;fill:rgb(0%,0%,0%);fill-opacity:1;" d="M 114.574219 10.351562 C 115.453125 10.351562 115.804688 10.371094 116.15625 10.507812 C 117.09375 10.839844 117.660156 11.679688 117.660156 12.714844 C 117.660156 13.964844 116.820312 14.941406 115.707031 14.941406 C 115.316406 14.941406 115.003906 14.84375 114.457031 14.472656 C 114.007812 14.21875 113.753906 14.101562 113.5 14.101562 C 113.148438 14.101562 112.933594 14.316406 112.933594 14.628906 C 112.933594 15.15625 113.578125 15.488281 114.613281 15.488281 C 115.765625 15.488281 116.957031 15.097656 117.660156 14.472656 C 118.363281 13.867188 118.734375 13.007812 118.734375 11.992188 C 118.734375 11.230469 118.5 10.527344 118.070312 10.078125 C 117.777344 9.746094 117.484375 9.570312 116.839844 9.277344 C 117.855469 8.574219 118.226562 8.027344 118.226562 7.226562 C 118.226562 6.015625 117.289062 5.175781 115.902344 5.175781 C 115.160156 5.175781 114.496094 5.429688 113.96875 5.898438 C 113.519531 6.308594 113.285156 6.699219 112.953125 7.597656 L 113.1875 7.65625 C 113.792969 6.5625 114.476562 6.074219 115.414062 6.074219 C 116.390625 6.074219 117.054688 6.71875 117.054688 7.675781 C 117.054688 8.203125 116.839844 8.75 116.449219 9.121094 C 116 9.570312 115.589844 9.785156 114.574219 10.15625 Z M 114.574219 10.351562 "/>
<path style=" stroke:none;fill-rule:nonzero;fill:rgb(0%,0%,0%);fill-opacity:1;" d="M 125.371094 13.789062 C 124.921875 13.789062 124.550781 14.160156 124.550781 14.628906 C 124.550781 15.058594 124.921875 15.429688 125.351562 15.429688 C 125.820312 15.429688 126.191406 15.058594 126.191406 14.628906 C 126.191406 14.160156 125.820312 13.789062 125.371094 13.789062 Z M 125.371094 13.789062 "/>
<path style=" stroke:none;fill-rule:nonzero;fill:rgb(0%,0%,0%);fill-opacity:1;" d="M 131.570312 9.726562 C 133.054688 8.945312 133.5625 8.320312 133.5625 7.285156 C 133.5625 6.074219 132.488281 5.175781 131.003906 5.175781 C 129.363281 5.175781 128.152344 6.171875 128.152344 7.539062 C 128.152344 8.496094 128.445312 8.945312 130.007812 10.3125 C 128.40625 11.542969 128.074219 11.992188 128.074219 13.007812 C 128.074219 14.472656 129.246094 15.488281 130.945312 15.488281 C 132.742188 15.488281 133.875 14.492188 133.875 12.949219 C 133.875 11.816406 133.367188 11.074219 131.570312 9.726562 Z M 131.296875 11.269531 C 132.390625 12.050781 132.742188 12.578125 132.742188 13.417969 C 132.742188 14.394531 132.078125 15.058594 131.101562 15.058594 C 129.96875 15.058594 129.207031 14.199219 129.207031 12.890625 C 129.207031 11.933594 129.539062 11.308594 130.398438 10.605469 Z M 131.140625 9.453125 C 129.8125 8.59375 129.265625 7.910156 129.265625 7.070312 C 129.265625 6.210938 129.929688 5.585938 130.886719 5.585938 C 131.902344 5.585938 132.546875 6.25 132.546875 7.285156 C 132.546875 8.125 132.117188 8.808594 131.277344 9.375 C 131.199219 9.414062 131.199219 9.414062 131.140625 9.453125 Z M 131.140625 9.453125 "/>
<path style=" stroke:none;fill-rule:nonzero;fill:rgb(0%,0%,0%);fill-opacity:1;" d="M 138.496094 5.175781 C 137.675781 5.175781 137.050781 5.429688 136.503906 5.957031 C 135.625 6.777344 135.058594 8.496094 135.058594 10.253906 C 135.058594 11.875 135.566406 13.632812 136.269531 14.472656 C 136.816406 15.117188 137.578125 15.488281 138.4375 15.488281 C 139.199219 15.488281 139.84375 15.234375 140.390625 14.707031 C 141.25 13.886719 141.816406 12.148438 141.816406 10.351562 C 141.816406 7.285156 140.46875 5.175781 138.496094 5.175781 Z M 138.457031 5.566406 C 139.707031 5.566406 140.390625 7.246094 140.390625 10.371094 C 140.390625 13.496094 139.726562 15.097656 138.4375 15.097656 C 137.148438 15.097656 136.503906 13.496094 136.503906 10.390625 C 136.503906 7.226562 137.167969 5.566406 138.457031 5.566406 Z M 138.457031 5.566406 "/>
<path style=" stroke:none;fill-rule:nonzero;fill:rgb(0%,0%,0%);fill-opacity:1;" d="M 150.269531 5.175781 L 147.574219 6.523438 L 147.574219 6.738281 C 147.75 6.660156 147.925781 6.601562 147.984375 6.582031 C 148.238281 6.464844 148.492188 6.40625 148.648438 6.40625 C 148.960938 6.40625 149.097656 6.640625 149.097656 7.109375 L 149.097656 13.886719 C 149.097656 14.375 148.980469 14.726562 148.746094 14.863281 C 148.511719 14.980469 148.296875 15.039062 147.671875 15.058594 L 147.671875 15.273438 L 151.792969 15.273438 L 151.792969 15.058594 C 150.621094 15.039062 150.386719 14.882812 150.386719 14.160156 L 150.386719 5.195312 Z M 150.269531 5.175781 "/>
<path style=" stroke:none;fill-rule:nonzero;fill:rgb(0%,0%,0%);fill-opacity:1;" d="M 155.261719 13.789062 C 154.8125 13.789062 154.441406 14.160156 154.441406 14.628906 C 154.441406 15.058594 154.8125 15.429688 155.242188 15.429688 C 155.710938 15.429688 156.082031 15.058594 156.082031 14.628906 C 156.082031 14.160156 155.710938 13.789062 155.261719 13.789062 Z M 155.261719 13.789062 "/>
<path style=" stroke:none;fill-rule:nonzero;fill:rgb(0%,0%,0%);fill-opacity:1;" d="M 164.171875 11.816406 L 162.648438 11.816406 L 162.648438 5.175781 L 161.984375 5.175781 L 157.296875 11.816406 L 157.296875 12.773438 L 161.496094 12.773438 L 161.496094 15.273438 L 162.648438 15.273438 L 162.648438 12.773438 L 164.171875 12.773438 Z M 161.476562 11.816406 L 157.902344 11.816406 L 161.476562 6.699219 Z M 161.476562 11.816406 "/>
<path style=" stroke:none;fill-rule:nonzero;fill:rgb(0%,0%,0%);fill-opacity:1;" d="M 171.644531 11.816406 L 170.121094 11.816406 L 170.121094 5.175781 L 169.457031 5.175781 L 164.769531 11.816406 L 164.769531 12.773438 L 168.96875 12.773438 L 168.96875 15.273438 L 170.121094 15.273438 L 170.121094 12.773438 L 171.644531 12.773438 Z M 168.949219 11.816406 L 165.375 11.816406 L 168.949219 6.699219 Z M 168.949219 11.816406 "/>
<path style=" stroke:none;fill-rule:nonzero;fill:rgb(0%,0%,0%);fill-opacity:1;" d="M 172.945312 15.605469 C 174.625 15.410156 175.445312 15.117188 176.460938 14.394531 C 178.003906 13.261719 178.921875 11.40625 178.921875 9.394531 C 178.921875 6.914062 177.554688 5.175781 175.621094 5.175781 C 173.84375 5.175781 172.515625 6.679688 172.515625 8.691406 C 172.515625 10.527344 173.589844 11.738281 175.210938 11.738281 C 176.03125 11.738281 176.65625 11.484375 177.4375 10.878906 C 176.832031 13.320312 175.171875 14.921875 172.90625 15.3125 Z M 177.476562 9.960938 C 177.476562 10.273438 177.417969 10.410156 177.242188 10.527344 C 176.832031 10.898438 176.285156 11.09375 175.738281 11.09375 C 174.605469 11.09375 173.882812 9.960938 173.882812 8.183594 C 173.882812 7.34375 174.136719 6.445312 174.449219 6.054688 C 174.703125 5.761719 175.074219 5.585938 175.503906 5.585938 C 176.8125 5.585938 177.476562 6.875 177.476562 9.394531 Z M 177.476562 9.960938 "/>
<path style=" stroke:none;fill-rule:nonzero;fill:rgb(0%,0%,0%);fill-opacity:1;" d="M 185.148438 13.789062 C 184.699219 13.789062 184.328125 14.160156 184.328125 14.628906 C 184.328125 15.058594 184.699219 15.429688 185.128906 15.429688 C 185.597656 15.429688 185.96875 15.058594 185.96875 14.628906 C 185.96875 14.160156 185.597656 13.789062 185.148438 13.789062 Z M 185.148438 13.789062 "/>
<path style=" stroke:none;fill-rule:nonzero;fill:rgb(0%,0%,0%);fill-opacity:1;" d="M 187.886719 15.605469 C 189.566406 15.410156 190.386719 15.117188 191.402344 14.394531 C 192.945312 13.261719 193.863281 11.40625 193.863281 9.394531 C 193.863281 6.914062 192.496094 5.175781 190.5625 5.175781 C 188.785156 5.175781 187.457031 6.679688 187.457031 8.691406 C 187.457031 10.527344 188.53125 11.738281 190.152344 11.738281 C 190.972656 11.738281 191.597656 11.484375 192.378906 10.878906 C 191.773438 13.320312 190.113281 14.921875 187.847656 15.3125 Z M 192.417969 9.960938 C 192.417969 10.273438 192.359375 10.410156 192.183594 10.527344 C 191.773438 10.898438 191.226562 11.09375 190.679688 11.09375 C 189.546875 11.09375 188.824219 9.960938 188.824219 8.183594 C 188.824219 7.34375 189.078125 6.445312 189.390625 6.054688 C 189.644531 5.761719 190.015625 5.585938 190.445312 5.585938 C 191.753906 5.585938 192.417969 6.875 192.417969 9.394531 Z M 192.417969 9.960938 "/>
<path style=" stroke:none;fill-rule:nonzero;fill:rgb(0%,0%,0%);fill-opacity:1;" d="M 198.269531 5.175781 C 197.449219 5.175781 196.824219 5.429688 196.277344 5.957031 C 195.398438 6.777344 194.832031 8.496094 194.832031 10.253906 C 194.832031 11.875 195.339844 13.632812 196.042969 14.472656 C 196.589844 15.117188 197.351562 15.488281 198.210938 15.488281 C 198.972656 15.488281 199.617188 15.234375 200.164062 14.707031 C 201.023438 13.886719 201.589844 12.148438 201.589844 10.351562 C 201.589844 7.285156 200.242188 5.175781 198.269531 5.175781 Z M 198.230469 5.566406 C 199.480469 5.566406 200.164062 7.246094 200.164062 10.371094 C 200.164062 13.496094 199.5 15.097656 198.210938 15.097656 C 196.921875 15.097656 196.277344 13.496094 196.277344 10.390625 C 196.277344 7.226562 196.941406 5.566406 198.230469 5.566406 Z M 198.230469 5.566406 "/>
<path style=" stroke:none;fill-rule:nonzero;fill:rgb(0%,0%,0%);fill-opacity:1;" d="M 210.042969 5.175781 L 207.347656 6.523438 L 207.347656 6.738281 C 207.523438 6.660156 207.699219 6.601562 207.757812 6.582031 C 208.011719 6.464844 208.265625 6.40625 208.421875 6.40625 C 208.734375 6.40625 208.871094 6.640625 208.871094 7.109375 L 208.871094 13.886719 C 208.871094 14.375 208.753906 14.726562 208.519531 14.863281 C 208.285156 14.980469 208.070312 15.039062 207.445312 15.058594 L 207.445312 15.273438 L 211.566406 15.273438 L 211.566406 15.058594 C 210.394531 15.039062 210.160156 14.882812 210.160156 14.160156 L 210.160156 5.195312 Z M 210.042969 5.175781 "/>
<path style=" stroke:none;fill-rule:nonzero;fill:rgb(0%,0%,0%);fill-opacity:1;" d="M 215.035156 13.789062 C 214.585938 13.789062 214.214844 14.160156 214.214844 14.628906 C 214.214844 15.058594 214.585938 15.429688 215.015625 15.429688 C 215.484375 15.429688 215.855469 15.058594 215.855469 14.628906 C 215.855469 14.160156 215.484375 13.789062 215.035156 13.789062 Z M 215.035156 13.789062 "/>
<path style=" stroke:none;fill-rule:nonzero;fill:rgb(0%,0%,0%);fill-opacity:1;" d="M 220.6875 5.175781 C 219.867188 5.175781 219.242188 5.429688 218.695312 5.957031 C 217.816406 6.777344 217.25 8.496094 217.25 10.253906 C 217.25 11.875 217.757812 13.632812 218.460938 14.472656 C 219.007812 15.117188 219.769531 15.488281 220.628906 15.488281 C 221.390625 15.488281 222.035156 15.234375 222.582031 14.707031 C 223.441406 13.886719 224.007812 12.148438 224.007812 10.351562 C 224.007812 7.285156 222.660156 5.175781 220.6875 5.175781 Z M 220.648438 5.566406 C 221.898438 5.566406 222.582031 7.246094 222.582031 10.371094 C 222.582031 13.496094 221.917969 15.097656 220.628906 15.097656 C 219.339844 15.097656 218.695312 13.496094 218.695312 10.390625 C 218.695312 7.226562 219.359375 5.566406 220.648438 5.566406 Z M 220.648438 5.566406 "/>
<path style=" stroke:none;fill-rule:nonzero;fill:rgb(0%,0%,0%);fill-opacity:1;" d="M 231.421875 11.816406 L 229.898438 11.816406 L 229.898438 5.175781 L 229.234375 5.175781 L 224.546875 11.816406 L 224.546875 12.773438 L 228.746094 12.773438 L 228.746094 15.273438 L 229.898438 15.273438 L 229.898438 12.773438 L 231.421875 12.773438 Z M 228.726562 11.816406 L 225.152344 11.816406 L 228.726562 6.699219 Z M 228.726562 11.816406 "/>
<path style=" stroke:none;fill-rule:nonzero;fill:rgb(0%,0%,0%);fill-opacity:1;" d="M 238.929688 13.222656 L 238.734375 13.144531 C 238.1875 14.003906 237.992188 14.140625 237.328125 14.140625 L 233.753906 14.140625 L 236.253906 11.503906 C 237.601562 10.117188 238.167969 8.984375 238.167969 7.8125 C 238.167969 6.328125 236.957031 5.175781 235.414062 5.175781 C 234.59375 5.175781 233.8125 5.507812 233.265625 6.09375 C 232.777344 6.601562 232.5625 7.089844 232.308594 8.144531 L 232.621094 8.222656 C 233.207031 6.757812 233.753906 6.269531 234.789062 6.269531 C 236.039062 6.269531 236.898438 7.128906 236.898438 8.378906 C 236.898438 9.550781 236.195312 10.9375 234.945312 12.265625 L 232.289062 15.097656 L 232.289062 15.273438 L 238.109375 15.273438 Z M 238.929688 13.222656 "/>
<path style=" stroke:none;fill-rule:nonzero;fill:rgb(0%,0%,0%);fill-opacity:1;" d="M 247.40625 5.175781 L 244.710938 6.523438 L 244.710938 6.738281 C 244.886719 6.660156 245.0625 6.601562 245.121094 6.582031 C 245.375 6.464844 245.628906 6.40625 245.785156 6.40625 C 246.097656 6.40625 246.234375 6.640625 246.234375 7.109375 L 246.234375 13.886719 C 246.234375 14.375 246.117188 14.726562 245.882812 14.863281 C 245.648438 14.980469 245.433594 15.039062 244.808594 15.058594 L 244.808594 15.273438 L 248.929688 15.273438 L 248.929688 15.058594 C 247.757812 15.039062 247.523438 14.882812 247.523438 14.160156 L 247.523438 5.195312 Z M 247.40625 5.175781 "/>
<path style=" stroke:none;fill-rule:nonzero;fill:rgb(0%,0%,0%);fill-opacity:1;" d="M 252.394531 13.789062 C 251.945312 13.789062 251.574219 14.160156 251.574219 14.628906 C 251.574219 15.058594 251.945312 15.429688 252.375 15.429688 C 252.84375 15.429688 253.214844 15.058594 253.214844 14.628906 C 253.214844 14.160156 252.84375 13.789062 252.394531 13.789062 Z M 252.394531 13.789062 "/>
<path style=" stroke:none;fill-rule:nonzero;fill:rgb(0%,0%,0%);fill-opacity:1;" d="M 260.765625 13.789062 C 260.316406 13.789062 259.945312 14.160156 259.945312 14.628906 C 259.945312 15.058594 260.316406 15.429688 260.746094 15.429688 C 261.214844 15.429688 261.585938 15.058594 261.585938 14.628906 C 261.585938 14.160156 261.214844 13.789062 260.765625 13.789062 Z M 260.765625 13.789062 "/>
<path style=" stroke:none;fill-rule:nonzero;fill:rgb(0%,0%,0%);fill-opacity:1;" d="M 266.960938 9.726562 C 268.445312 8.945312 268.953125 8.320312 268.953125 7.285156 C 268.953125 6.074219 267.878906 5.175781 266.394531 5.175781 C 264.753906 5.175781 263.542969 6.171875 263.542969 7.539062 C 263.542969 8.496094 263.835938 8.945312 265.398438 10.3125 C 263.796875 11.542969 263.464844 11.992188 263.464844 13.007812 C 263.464844 14.472656 264.636719 15.488281 266.335938 15.488281 C 268.132812 15.488281 269.265625 14.492188 269.265625 12.949219 C 269.265625 11.816406 268.757812 11.074219 266.960938 9.726562 Z M 266.6875 11.269531 C 267.78125 12.050781 268.132812 12.578125 268.132812 13.417969 C 268.132812 14.394531 267.46875 15.058594 266.492188 15.058594 C 265.359375 15.058594 264.597656 14.199219 264.597656 12.890625 C 264.597656 11.933594 264.929688 11.308594 265.789062 10.605469 Z M 266.53125 9.453125 C 265.203125 8.59375 264.65625 7.910156 264.65625 7.070312 C 264.65625 6.210938 265.320312 5.585938 266.277344 5.585938 C 267.292969 5.585938 267.9375 6.25 267.9375 7.285156 C 267.9375 8.125 267.507812 8.808594 266.667969 9.375 C 266.589844 9.414062 266.589844 9.414062 266.53125 9.453125 Z M 266.53125 9.453125 "/>
<path style=" stroke:none;fill-rule:nonzero;fill:rgb(0%,0%,0%);fill-opacity:1;" d="M 273.886719 5.175781 C 273.066406 5.175781 272.441406 5.429688 271.894531 5.957031 C 271.015625 6.777344 270.449219 8.496094 270.449219 10.253906 C 270.449219 11.875 270.957031 13.632812 271.660156 14.472656 C 272.207031 15.117188 272.96875 15.488281 273.828125 15.488281 C 274.589844 15.488281 275.234375 15.234375 275.78125 14.707031 C 276.640625 13.886719 277.207031 12.148438 277.207031 10.351562 C 277.207031 7.285156 275.859375 5.175781 273.886719 5.175781 Z M 273.847656 5.566406 C 275.097656 5.566406 275.78125 7.246094 275.78125 10.371094 C 275.78125 13.496094 275.117188 15.097656 273.828125 15.097656 C 272.539062 15.097656 271.894531 13.496094 271.894531 10.390625 C 271.894531 7.226562 272.558594 5.566406 273.847656 5.566406 Z M 273.847656 5.566406 "/>
<path style=" stroke:none;fill-rule:nonzero;fill:rgb(0%,0%,0%);fill-opacity:1;" d="M 281.359375 5.175781 C 280.539062 5.175781 279.914062 5.429688 279.367188 5.957031 C 278.488281 6.777344 277.921875 8.496094 277.921875 10.253906 C 277.921875 11.875 278.429688 13.632812 279.132812 14.472656 C 279.679688 15.117188 280.441406 15.488281 281.300781 15.488281 C 282.0625 15.488281 282.707031 15.234375 283.253906 14.707031 C 284.113281 13.886719 284.679688 12.148438 284.679688 10.351562 C 284.679688 7.285156 283.332031 5.175781 281.359375 5.175781 Z M 281.320312 5.566406 C 282.570312 5.566406 283.253906 7.246094 283.253906 10.371094 C 283.253906 13.496094 282.589844 15.097656 281.300781 15.097656 C 280.011719 15.097656 279.367188 13.496094 279.367188 10.390625 C 279.367188 7.226562 280.03125 5.566406 281.320312 5.566406 Z M 281.320312 5.566406 "/>
<path style=" stroke:none;fill-rule:nonzero;fill:rgb(0%,0%,0%);fill-opacity:1;" d="M 288.832031 5.175781 C 288.011719 5.175781 287.386719 5.429688 286.839844 5.957031 C 285.960938 6.777344 285.394531 8.496094 285.394531 10.253906 C 285.394531 11.875 285.902344 13.632812 286.605469 14.472656 C 287.152344 15.117188 287.914062 15.488281 288.773438 15.488281 C 289.535156 15.488281 290.179688 15.234375 290.726562 14.707031 C 291.585938 13.886719 292.152344 12.148438 292.152344 10.351562 C 292.152344 7.285156 290.804688 5.175781 288.832031 5.175781 Z M 288.792969 5.566406 C 290.042969 5.566406 290.726562 7.246094 290.726562 10.371094 C 290.726562 13.496094 290.0625 15.097656 288.773438 15.097656 C 287.484375 15.097656 286.839844 13.496094 286.839844 10.390625 C 286.839844 7.226562 287.503906 5.566406 288.792969 5.566406 Z M 288.792969 5.566406 "/>
<path style=" stroke:none;fill-rule:nonzero;fill:rgb(0%,0%,0%);fill-opacity:1;" d="M 300.605469 5.175781 L 297.910156 6.523438 L 297.910156 6.738281 C 298.085938 6.660156 298.261719 6.601562 298.320312 6.582031 C 298.574219 6.464844 298.828125 6.40625 298.984375 6.40625 C 299.296875 6.40625 299.433594 6.640625 299.433594 7.109375 L 299.433594 13.886719 C 299.433594 14.375 299.316406 14.726562 299.082031 14.863281 C 298.847656 14.980469 298.632812 15.039062 298.007812 15.058594 L 298.007812 15.273438 L 302.128906 15.273438 L 302.128906 15.058594 C 300.957031 15.039062 300.722656 14.882812 300.722656 14.160156 L 300.722656 5.195312 Z M 300.605469 5.175781 "/>
<path style=" stroke:none;fill-rule:nonzero;fill:rgb(0%,0%,0%);fill-opacity:1;" d="M 305.597656 13.789062 C 305.148438 13.789062 304.777344 14.160156 304.777344 14.628906 C 304.777344 15.058594 305.148438 15.429688 305.578125 15.429688 C 306.046875 15.429688 306.417969 15.058594 306.417969 14.628906 C 306.417969 14.160156 306.046875 13.789062 305.597656 13.789062 Z M 305.597656 13.789062 "/>
<path style=" stroke:none;fill-rule:nonzero;fill:rgb(0%,0%,0%);fill-opacity:1;" d="M 311.8125 5.175781 L 309.117188 6.523438 L 309.117188 6.738281 C 309.292969 6.660156 309.46875 6.601562 309.527344 6.582031 C 309.78125 6.464844 310.035156 6.40625 310.191406 6.40625 C 310.503906 6.40625 310.640625 6.640625 310.640625 7.109375 L 310.640625 13.886719 C 310.640625 14.375 310.523438 14.726562 310.289062 14.863281 C 310.054688 14.980469 309.839844 15.039062 309.214844 15.058594 L 309.214844 15.273438 L 313.335938 15.273438 L 313.335938 15.058594 C 312.164062 15.039062 311.929688 14.882812 311.929688 14.160156 L 311.929688 5.195312 Z M 311.8125 5.175781 "/>
<path style=" stroke:none;fill-rule:nonzero;fill:rgb(0%,0%,0%);fill-opacity:1;" d="M 320.539062 13.789062 C 320.089844 13.789062 319.71875 14.160156 319.71875 14.628906 C 319.71875 15.058594 320.089844 15.429688 320.519531 15.429688 C 320.988281 15.429688 321.359375 15.058594 321.359375 14.628906 C 321.359375 14.160156 320.988281 13.789062 320.539062 13.789062 Z M 320.539062 13.789062 "/>
<path style=" stroke:none;fill-rule:nonzero;fill:rgb(0%,0%,0%);fill-opacity:1;" d="M 329.0625 5.058594 C 327.363281 5.195312 326.503906 5.488281 325.410156 6.25 C 323.789062 7.402344 322.910156 9.101562 322.910156 11.113281 C 322.910156 12.402344 323.320312 13.710938 323.964844 14.472656 C 324.53125 15.117188 325.332031 15.488281 326.25 15.488281 C 328.105469 15.488281 329.394531 14.0625 329.394531 11.992188 C 329.394531 10.097656 328.300781 8.886719 326.582031 8.886719 C 325.9375 8.886719 325.605469 8.984375 324.667969 9.550781 C 325.078125 7.285156 326.757812 5.683594 329.101562 5.292969 Z M 326.015625 9.570312 C 327.304688 9.570312 328.046875 10.644531 328.046875 12.5 C 328.046875 14.160156 327.460938 15.058594 326.425781 15.058594 C 325.097656 15.058594 324.296875 13.652344 324.296875 11.347656 C 324.296875 10.585938 324.414062 10.15625 324.726562 9.941406 C 325.039062 9.707031 325.488281 9.570312 326.015625 9.570312 Z M 326.015625 9.570312 "/>
<path style=" stroke:none;fill-rule:nonzero;fill:rgb(0%,0%,0%);fill-opacity:1;" d="M 336.925781 11.816406 L 335.402344 11.816406 L 335.402344 5.175781 L 334.738281 5.175781 L 330.050781 11.816406 L 330.050781 12.773438 L 334.25 12.773438 L 334.25 15.273438 L 335.402344 15.273438 L 335.402344 12.773438 L 336.925781 12.773438 Z M 334.230469 11.816406 L 330.65625 11.816406 L 334.230469 6.699219 Z M 334.230469 11.816406 "/>
<path style=" stroke:none;fill-rule:nonzero;fill:rgb(0%,0%,0%);fill-opacity:1;" d="M 341.703125 5.175781 L 339.007812 6.523438 L 339.007812 6.738281 C 339.183594 6.660156 339.359375 6.601562 339.417969 6.582031 C 339.671875 6.464844 339.925781 6.40625 340.082031 6.40625 C 340.394531 6.40625 340.53125 6.640625 340.53125 7.109375 L 340.53125 13.886719 C 340.53125 14.375 340.414062 14.726562 340.179688 14.863281 C 339.945312 14.980469 339.730469 15.039062 339.105469 15.058594 L 339.105469 15.273438 L 343.226562 15.273438 L 343.226562 15.058594 C 342.054688 15.039062 341.820312 14.882812 341.820312 14.160156 L 341.820312 5.195312 Z M 341.703125 5.175781 "/>
<path style=" stroke:none;fill-rule:nonzero;fill:rgb(0%,0%,0%);fill-opacity:1;" d="M 348.605469 5.175781 C 347.785156 5.175781 347.160156 5.429688 346.613281 5.957031 C 345.734375 6.777344 345.167969 8.496094 345.167969 10.253906 C 345.167969 11.875 345.675781 13.632812 346.378906 14.472656 C 346.925781 15.117188 347.6875 15.488281 348.546875 15.488281 C 349.308594 15.488281 349.953125 15.234375 350.5 14.707031 C 351.359375 13.886719 351.925781 12.148438 351.925781 10.351562 C 351.925781 7.285156 350.578125 5.175781 348.605469 5.175781 Z M 348.566406 5.566406 C 349.816406 5.566406 350.5 7.246094 350.5 10.371094 C 350.5 13.496094 349.835938 15.097656 348.546875 15.097656 C 347.257812 15.097656 346.613281 13.496094 346.613281 10.390625 C 346.613281 7.226562 347.277344 5.566406 348.566406 5.566406 Z M 348.566406 5.566406 "/>
<path style=" stroke:none;fill-rule:nonzero;fill:rgb(0%,0%,0%);fill-opacity:1;" d="M 360.382812 5.175781 L 357.6875 6.523438 L 357.6875 6.738281 C 357.863281 6.660156 358.039062 6.601562 358.097656 6.582031 C 358.351562 6.464844 358.605469 6.40625 358.761719 6.40625 C 359.074219 6.40625 359.210938 6.640625 359.210938 7.109375 L 359.210938 13.886719 C 359.210938 14.375 359.09375 14.726562 358.859375 14.863281 C 358.625 14.980469 358.410156 15.039062 357.785156 15.058594 L 357.785156 15.273438 L 361.90625 15.273438 L 361.90625 15.058594 C 360.734375 15.039062 360.5 14.882812 360.5 14.160156 L 360.5 5.195312 Z M 360.382812 5.175781 "/>
<path style=" stroke:none;fill-rule:nonzero;fill:rgb(0%,0%,0%);fill-opacity:1;" d="M 365.371094 13.789062 C 364.921875 13.789062 364.550781 14.160156 364.550781 14.628906 C 364.550781 15.058594 364.921875 15.429688 365.351562 15.429688 C 365.820312 15.429688 366.191406 15.058594 366.191406 14.628906 C 366.191406 14.160156 365.820312 13.789062 365.371094 13.789062 Z M 365.371094 13.789062 "/>
<path style=" stroke:none;fill-rule:nonzero;fill:rgb(0%,0%,0%);fill-opacity:1;" d="M 374.324219 13.222656 L 374.128906 13.144531 C 373.582031 14.003906 373.386719 14.140625 372.722656 14.140625 L 369.148438 14.140625 L 371.648438 11.503906 C 372.996094 10.117188 373.5625 8.984375 373.5625 7.8125 C 373.5625 6.328125 372.351562 5.175781 370.808594 5.175781 C 369.988281 5.175781 369.207031 5.507812 368.660156 6.09375 C 368.171875 6.601562 367.957031 7.089844 367.703125 8.144531 L 368.015625 8.222656 C 368.601562 6.757812 369.148438 6.269531 370.183594 6.269531 C 371.433594 6.269531 372.292969 7.128906 372.292969 8.378906 C 372.292969 9.550781 371.589844 10.9375 370.339844 12.265625 L 367.683594 15.097656 L 367.683594 15.273438 L 373.503906 15.273438 Z M 374.324219 13.222656 "/>
<path style=" stroke:none;fill-rule:nonzero;fill:rgb(0%,0%,0%);fill-opacity:1;" d="M 380.316406 13.789062 C 379.867188 13.789062 379.496094 14.160156 379.496094 14.628906 C 379.496094 15.058594 379.867188 15.429688 380.296875 15.429688 C 380.765625 15.429688 381.136719 15.058594 381.136719 14.628906 C 381.136719 14.160156 380.765625 13.789062 380.316406 13.789062 Z M 380.316406 13.789062 "/>
<path style=" stroke:none;fill-rule:nonzero;fill:rgb(0%,0%,0%);fill-opacity:1;" d="M 384.875 6.5625 L 387.804688 6.5625 C 388.058594 6.5625 388.117188 6.523438 388.15625 6.425781 L 388.722656 5.097656 L 388.585938 5 C 388.371094 5.3125 388.214844 5.390625 387.902344 5.390625 L 384.777344 5.390625 L 383.15625 8.925781 C 383.136719 8.945312 383.136719 8.964844 383.136719 9.003906 C 383.136719 9.082031 383.195312 9.121094 383.3125 9.121094 C 383.800781 9.121094 384.386719 9.21875 385.011719 9.414062 C 386.730469 9.960938 387.511719 10.898438 387.511719 12.382812 C 387.511719 13.808594 386.59375 14.921875 385.441406 14.921875 C 385.128906 14.921875 384.875 14.824219 384.445312 14.492188 C 383.957031 14.160156 383.605469 14.003906 383.292969 14.003906 C 382.863281 14.003906 382.648438 14.179688 382.648438 14.550781 C 382.648438 15.117188 383.351562 15.488281 384.484375 15.488281 C 385.734375 15.488281 386.808594 15.078125 387.550781 14.316406 C 388.253906 13.652344 388.566406 12.792969 388.566406 11.660156 C 388.566406 10.585938 388.273438 9.902344 387.53125 9.140625 C 386.867188 8.496094 386.027344 8.144531 384.25 7.832031 Z M 384.875 6.5625 "/>
<path style=" stroke:none;fill-rule:nonzero;fill:rgb(0%,0%,0%);fill-opacity:1;" d="M 396.738281 13.222656 L 396.542969 13.144531 C 395.996094 14.003906 395.800781 14.140625 395.136719 14.140625 L 391.5625 14.140625 L 394.0625 11.503906 C 395.410156 10.117188 395.976562 8.984375 395.976562 7.8125 C 395.976562 6.328125 394.765625 5.175781 393.222656 5.175781 C 392.402344 5.175781 391.621094 5.507812 391.074219 6.09375 C 390.585938 6.601562 390.371094 7.089844 390.117188 8.144531 L 390.429688 8.222656 C 391.015625 6.757812 391.5625 6.269531 392.597656 6.269531 C 393.847656 6.269531 394.707031 7.128906 394.707031 8.378906 C 394.707031 9.550781 394.003906 10.9375 392.753906 12.265625 L 390.097656 15.097656 L 390.097656 15.273438 L 395.917969 15.273438 Z M 396.738281 13.222656 "/>
<path style=" stroke:none;fill-rule:nonzero;fill:rgb(0%,0%,0%);fill-opacity:1;" d="M 398 15.605469 C 399.679688 15.410156 400.5 15.117188 401.515625 14.394531 C 403.058594 13.261719 403.976562 11.40625 403.976562 9.394531 C 403.976562 6.914062 402.609375 5.175781 400.675781 5.175781 C 398.898438 5.175781 397.570312 6.679688 397.570312 8.691406 C 397.570312 10.527344 398.644531 11.738281 400.265625 11.738281 C 401.085938 11.738281 401.710938 11.484375 402.492188 10.878906 C 401.886719 13.320312 400.226562 14.921875 397.960938 15.3125 Z M 402.53125 9.960938 C 402.53125 10.273438 402.472656 10.410156 402.296875 10.527344 C 401.886719 10.898438 401.339844 11.09375 400.792969 11.09375 C 399.660156 11.09375 398.9375 9.960938 398.9375 8.183594 C 398.9375 7.34375 399.191406 6.445312 399.503906 6.054688 C 399.757812 5.761719 400.128906 5.585938 400.558594 5.585938 C 401.867188 5.585938 402.53125 6.875 402.53125 9.394531 Z M 402.53125 9.960938 "/>
<path style=" stroke:none;fill-rule:nonzero;fill:rgb(0%,0%,0%);fill-opacity:1;" d="M 408.949219 5.175781 L 406.253906 6.523438 L 406.253906 6.738281 C 406.429688 6.660156 406.605469 6.601562 406.664062 6.582031 C 406.917969 6.464844 407.171875 6.40625 407.328125 6.40625 C 407.640625 6.40625 407.777344 6.640625 407.777344 7.109375 L 407.777344 13.886719 C 407.777344 14.375 407.660156 14.726562 407.425781 14.863281 C 407.191406 14.980469 406.976562 15.039062 406.351562 15.058594 L 406.351562 15.273438 L 410.472656 15.273438 L 410.472656 15.058594 C 409.300781 15.039062 409.066406 14.882812 409.066406 14.160156 L 409.066406 5.195312 Z M 408.949219 5.175781 "/>
<path style=" stroke:none;fill-rule:nonzero;fill:rgb(0%,0%,0%);fill-opacity:1;" d="M 420.15625 5.175781 L 417.460938 6.523438 L 417.460938 6.738281 C 417.636719 6.660156 417.8125 6.601562 417.871094 6.582031 C 418.125 6.464844 418.378906 6.40625 418.535156 6.40625 C 418.847656 6.40625 418.984375 6.640625 418.984375 7.109375 L 418.984375 13.886719 C 418.984375 14.375 418.867188 14.726562 418.632812 14.863281 C 418.398438 14.980469 418.183594 15.039062 417.558594 15.058594 L 417.558594 15.273438 L 421.679688 15.273438 L 421.679688 15.058594 C 420.507812 15.039062 420.273438 14.882812 420.273438 14.160156 L 420.273438 5.195312 Z M 420.15625 5.175781 "/>
<path style=" stroke:none;fill-rule:nonzero;fill:rgb(0%,0%,0%);fill-opacity:1;" d="M 425.148438 13.789062 C 424.699219 13.789062 424.328125 14.160156 424.328125 14.628906 C 424.328125 15.058594 424.699219 15.429688 425.128906 15.429688 C 425.597656 15.429688 425.96875 15.058594 425.96875 14.628906 C 425.96875 14.160156 425.597656 13.789062 425.148438 13.789062 Z M 425.148438 13.789062 "/>
<path style=" stroke:none;fill-rule:nonzero;fill:rgb(0%,0%,0%);fill-opacity:1;" d="M 429.296875 10.351562 C 430.175781 10.351562 430.527344 10.371094 430.878906 10.507812 C 431.816406 10.839844 432.382812 11.679688 432.382812 12.714844 C 432.382812 13.964844 431.542969 14.941406 430.429688 14.941406 C 430.039062 14.941406 429.726562 14.84375 429.179688 14.472656 C 428.730469 14.21875 428.476562 14.101562 428.222656 14.101562 C 427.871094 14.101562 427.65625 14.316406 427.65625 14.628906 C 427.65625 15.15625 428.300781 15.488281 429.335938 15.488281 C 430.488281 15.488281 431.679688 15.097656 432.382812 14.472656 C 433.085938 13.867188 433.457031 13.007812 433.457031 11.992188 C 433.457031 11.230469 433.222656 10.527344 432.792969 10.078125 C 432.5 9.746094 432.207031 9.570312 431.5625 9.277344 C 432.578125 8.574219 432.949219 8.027344 432.949219 7.226562 C 432.949219 6.015625 432.011719 5.175781 430.625 5.175781 C 429.882812 5.175781 429.21875 5.429688 428.691406 5.898438 C 428.242188 6.308594 428.007812 6.699219 427.675781 7.597656 L 427.910156 7.65625 C 428.515625 6.5625 429.199219 6.074219 430.136719 6.074219 C 431.113281 6.074219 431.777344 6.71875 431.777344 7.675781 C 431.777344 8.203125 431.5625 8.75 431.171875 9.121094 C 430.722656 9.570312 430.3125 9.785156 429.296875 10.15625 Z M 429.296875 10.351562 "/>
<path style=" stroke:none;fill-rule:nonzero;fill:rgb(0%,0%,0%);fill-opacity:1;" d="M 440.09375 13.789062 C 439.644531 13.789062 439.273438 14.160156 439.273438 14.628906 C 439.273438 15.058594 439.644531 15.429688 440.074219 15.429688 C 440.542969 15.429688 440.914062 15.058594 440.914062 14.628906 C 440.914062 14.160156 440.542969 13.789062 440.09375 13.789062 Z M 440.09375 13.789062 "/>
<path style=" stroke:none;fill-rule:nonzero;fill:rgb(0%,0%,0%);fill-opacity:1;" d="M 449.003906 11.816406 L 447.480469 11.816406 L 447.480469 5.175781 L 446.816406 5.175781 L 442.128906 11.816406 L 442.128906 12.773438 L 446.328125 12.773438 L 446.328125 15.273438 L 447.480469 15.273438 L 447.480469 12.773438 L 449.003906 12.773438 Z M 446.308594 11.816406 L 442.734375 11.816406 L 446.308594 6.699219 Z M 446.308594 11.816406 "/>
<path style=" stroke:none;fill-rule:nonzero;fill:rgb(0%,0%,0%);fill-opacity:1;" d="M 456.476562 11.816406 L 454.953125 11.816406 L 454.953125 5.175781 L 454.289062 5.175781 L 449.601562 11.816406 L 449.601562 12.773438 L 453.800781 12.773438 L 453.800781 15.273438 L 454.953125 15.273438 L 454.953125 12.773438 L 456.476562 12.773438 Z M 453.78125 11.816406 L 450.207031 11.816406 L 453.78125 6.699219 Z M 453.78125 11.816406 "/>
<path style=" stroke:none;fill-rule:nonzero;fill:rgb(0%,0%,0%);fill-opacity:1;" d="M 463.558594 5.058594 C 461.859375 5.195312 461 5.488281 459.90625 6.25 C 458.285156 7.402344 457.40625 9.101562 457.40625 11.113281 C 457.40625 12.402344 457.816406 13.710938 458.460938 14.472656 C 459.027344 15.117188 459.828125 15.488281 460.746094 15.488281 C 462.601562 15.488281 463.890625 14.0625 463.890625 11.992188 C 463.890625 10.097656 462.796875 8.886719 461.078125 8.886719 C 460.433594 8.886719 460.101562 8.984375 459.164062 9.550781 C 459.574219 7.285156 461.253906 5.683594 463.597656 5.292969 Z M 460.511719 9.570312 C 461.800781 9.570312 462.542969 10.644531 462.542969 12.5 C 462.542969 14.160156 461.957031 15.058594 460.921875 15.058594 C 459.59375 15.058594 458.792969 13.652344 458.792969 11.347656 C 458.792969 10.585938 458.910156 10.15625 459.222656 9.941406 C 459.535156 9.707031 459.984375 9.570312 460.511719 9.570312 Z M 460.511719 9.570312 "/>
<path style=" stroke:none;fill-rule:nonzero;fill:rgb(0%,0%,0%);fill-opacity:1;" d="M 471.421875 11.816406 L 469.898438 11.816406 L 469.898438 5.175781 L 469.234375 5.175781 L 464.546875 11.816406 L 464.546875 12.773438 L 468.746094 12.773438 L 468.746094 15.273438 L 469.898438 15.273438 L 469.898438 12.773438 L 471.421875 12.773438 Z M 468.726562 11.816406 L 465.152344 11.816406 L 468.726562 6.699219 Z M 468.726562 11.816406 "/>
<path style=" stroke:none;fill-rule:nonzero;fill:rgb(0%,0%,0%);fill-opacity:1;" d="M 479.933594 5.175781 L 477.238281 6.523438 L 477.238281 6.738281 C 477.414062 6.660156 477.589844 6.601562 477.648438 6.582031 C 477.902344 6.464844 478.15625 6.40625 478.3125 6.40625 C 478.625 6.40625 478.761719 6.640625 478.761719 7.109375 L 478.761719 13.886719 C 478.761719 14.375 478.644531 14.726562 478.410156 14.863281 C 478.175781 14.980469 477.960938 15.039062 477.335938 15.058594 L 477.335938 15.273438 L 481.457031 15.273438 L 481.457031 15.058594 C 480.285156 15.039062 480.050781 14.882812 480.050781 14.160156 L 480.050781 5.195312 Z M 479.933594 5.175781 "/>
<path style=" stroke:none;fill-rule:nonzero;fill:rgb(0%,0%,0%);fill-opacity:1;" d="M 484.925781 13.789062 C 484.476562 13.789062 484.105469 14.160156 484.105469 14.628906 C 484.105469 15.058594 484.476562 15.429688 484.90625 15.429688 C 485.375 15.429688 485.746094 15.058594 485.746094 14.628906 C 485.746094 14.160156 485.375 13.789062 484.925781 13.789062 Z M 484.925781 13.789062 "/>
<path style=" stroke:none;fill-rule:nonzero;fill:rgb(0%,0%,0%);fill-opacity:1;" d="M 493.835938 11.816406 L 492.3125 11.816406 L 492.3125 5.175781 L 491.648438 5.175781 L 486.960938 11.816406 L 486.960938 12.773438 L 491.160156 12.773438 L 491.160156 15.273438 L 492.3125 15.273438 L 492.3125 12.773438 L 493.835938 12.773438 Z M 491.140625 11.816406 L 487.566406 11.816406 L 491.140625 6.699219 Z M 491.140625 11.816406 "/>
<path style=" stroke:none;fill-rule:nonzero;fill:rgb(0%,0%,0%);fill-opacity:1;" d="M 499.867188 13.789062 C 499.417969 13.789062 499.046875 14.160156 499.046875 14.628906 C 499.046875 15.058594 499.417969 15.429688 499.847656 15.429688 C 500.316406 15.429688 500.6875 15.058594 500.6875 14.628906 C 500.6875 14.160156 500.316406 13.789062 499.867188 13.789062 Z M 499.867188 13.789062 "/>
<path style=" stroke:none;fill-rule:nonzero;fill:rgb(0%,0%,0%);fill-opacity:1;" d="M 504.015625 10.351562 C 504.894531 10.351562 505.246094 10.371094 505.597656 10.507812 C 506.535156 10.839844 507.101562 11.679688 507.101562 12.714844 C 507.101562 13.964844 506.261719 14.941406 505.148438 14.941406 C 504.757812 14.941406 504.445312 14.84375 503.898438 14.472656 C 503.449219 14.21875 503.195312 14.101562 502.941406 14.101562 C 502.589844 14.101562 502.375 14.316406 502.375 14.628906 C 502.375 15.15625 503.019531 15.488281 504.054688 15.488281 C 505.207031 15.488281 506.398438 15.097656 507.101562 14.472656 C 507.804688 13.867188 508.175781 13.007812 508.175781 11.992188 C 508.175781 11.230469 507.941406 10.527344 507.511719 10.078125 C 507.21875 9.746094 506.925781 9.570312 506.28125 9.277344 C 507.296875 8.574219 507.667969 8.027344 507.667969 7.226562 C 507.667969 6.015625 506.730469 5.175781 505.34375 5.175781 C 504.601562 5.175781 503.9375 5.429688 503.410156 5.898438 C 502.960938 6.308594 502.726562 6.699219 502.394531 7.597656 L 502.628906 7.65625 C 503.234375 6.5625 503.917969 6.074219 504.855469 6.074219 C 505.832031 6.074219 506.496094 6.71875 506.496094 7.675781 C 506.496094 8.203125 506.28125 8.75 505.890625 9.121094 C 505.441406 9.570312 505.03125 9.785156 504.015625 10.15625 Z M 504.015625 10.351562 "/>
<path style=" stroke:none;fill-rule:nonzero;fill:rgb(0%,0%,0%);fill-opacity:1;" d="M 513.539062 9.726562 C 515.023438 8.945312 515.53125 8.320312 515.53125 7.285156 C 515.53125 6.074219 514.457031 5.175781 512.972656 5.175781 C 511.332031 5.175781 510.121094 6.171875 510.121094 7.539062 C 510.121094 8.496094 510.414062 8.945312 511.976562 10.3125 C 510.375 11.542969 510.042969 11.992188 510.042969 13.007812 C 510.042969 14.472656 511.214844 15.488281 512.914062 15.488281 C 514.710938 15.488281 515.84375 14.492188 515.84375 12.949219 C 515.84375 11.816406 515.335938 11.074219 513.539062 9.726562 Z M 513.265625 11.269531 C 514.359375 12.050781 514.710938 12.578125 514.710938 13.417969 C 514.710938 14.394531 514.046875 15.058594 513.070312 15.058594 C 511.9375 15.058594 511.175781 14.199219 511.175781 12.890625 C 511.175781 11.933594 511.507812 11.308594 512.367188 10.605469 Z M 513.109375 9.453125 C 511.78125 8.59375 511.234375 7.910156 511.234375 7.070312 C 511.234375 6.210938 511.898438 5.585938 512.855469 5.585938 C 513.871094 5.585938 514.515625 6.25 514.515625 7.285156 C 514.515625 8.125 514.085938 8.808594 513.246094 9.375 C 513.167969 9.414062 513.167969 9.414062 513.109375 9.453125 Z M 513.109375 9.453125 "/>
<path style=" stroke:none;fill-rule:nonzero;fill:rgb(0%,0%,0%);fill-opacity:1;" d="M 518.960938 10.351562 C 519.839844 10.351562 520.191406 10.371094 520.542969 10.507812 C 521.480469 10.839844 522.046875 11.679688 522.046875 12.714844 C 522.046875 13.964844 521.207031 14.941406 520.09375 14.941406 C 519.703125 14.941406 519.390625 14.84375 518.84375 14.472656 C 518.394531 14.21875 518.140625 14.101562 517.886719 14.101562 C 517.535156 14.101562 517.320312 14.316406 517.320312 14.628906 C 517.320312 15.15625 517.964844 15.488281 519 15.488281 C 520.152344 15.488281 521.34375 15.097656 522.046875 14.472656 C 522.75 13.867188 523.121094 13.007812 523.121094 11.992188 C 523.121094 11.230469 522.886719 10.527344 522.457031 10.078125 C 522.164062 9.746094 521.871094 9.570312 521.226562 9.277344 C 522.242188 8.574219 522.613281 8.027344 522.613281 7.226562 C 522.613281 6.015625 521.675781 5.175781 520.289062 5.175781 C 519.546875 5.175781 518.882812 5.429688 518.355469 5.898438 C 517.90625 6.308594 517.671875 6.699219 517.339844 7.597656 L 517.574219 7.65625 C 518.179688 6.5625 518.863281 6.074219 519.800781 6.074219 C 520.777344 6.074219 521.441406 6.71875 521.441406 7.675781 C 521.441406 8.203125 521.226562 8.75 520.835938 9.121094 C 520.386719 9.570312 519.976562 9.785156 518.960938 10.15625 Z M 518.960938 10.351562 "/>
<path style=" stroke:none;fill-rule:nonzero;fill:rgb(0%,0%,0%);fill-opacity:1;" d="M 528.5 5.175781 L 525.804688 6.523438 L 525.804688 6.738281 C 525.980469 6.660156 526.15625 6.601562 526.214844 6.582031 C 526.46875 6.464844 526.722656 6.40625 526.878906 6.40625 C 527.191406 6.40625 527.328125 6.640625 527.328125 7.109375 L 527.328125 13.886719 C 527.328125 14.375 527.210938 14.726562 526.976562 14.863281 C 526.742188 14.980469 526.527344 15.039062 525.902344 15.058594 L 525.902344 15.273438 L 530.023438 15.273438 L 530.023438 15.058594 C 528.851562 15.039062 528.617188 14.882812 528.617188 14.160156 L 528.617188 5.195312 Z M 528.5 5.175781 "/>
<path style=" stroke:none;fill-rule:nonzero;fill:rgb(0%,0%,0%);fill-opacity:1;" d="M 539.710938 5.175781 L 537.015625 6.523438 L 537.015625 6.738281 C 537.191406 6.660156 537.367188 6.601562 537.425781 6.582031 C 537.679688 6.464844 537.933594 6.40625 538.089844 6.40625 C 538.402344 6.40625 538.539062 6.640625 538.539062 7.109375 L 538.539062 13.886719 C 538.539062 14.375 538.421875 14.726562 538.1875 14.863281 C 537.953125 14.980469 537.738281 15.039062 537.113281 15.058594 L 537.113281 15.273438 L 541.234375 15.273438 L 541.234375 15.058594 C 540.0625 15.039062 539.828125 14.882812 539.828125 14.160156 L 539.828125 5.195312 Z M 539.710938 5.175781 "/>
<path style=" stroke:none;fill-rule:nonzero;fill:rgb(0%,0%,0%);fill-opacity:1;" d="M 544.699219 13.789062 C 544.25 13.789062 543.878906 14.160156 543.878906 14.628906 C 543.878906 15.058594 544.25 15.429688 544.679688 15.429688 C 545.148438 15.429688 545.519531 15.058594 545.519531 14.628906 C 545.519531 14.160156 545.148438 13.789062 544.699219 13.789062 Z M 544.699219 13.789062 "/>
<path style=" stroke:none;fill-rule:nonzero;fill:rgb(0%,0%,0%);fill-opacity:1;" d="M 549.257812 6.5625 L 552.1875 6.5625 C 552.441406 6.5625 552.5 6.523438 552.539062 6.425781 L 553.105469 5.097656 L 552.96875 5 C 552.753906 5.3125 552.597656 5.390625 552.285156 5.390625 L 549.160156 5.390625 L 547.539062 8.925781 C 547.519531 8.945312 547.519531 8.964844 547.519531 9.003906 C 547.519531 9.082031 547.578125 9.121094 547.695312 9.121094 C 548.183594 9.121094 548.769531 9.21875 549.394531 9.414062 C 551.113281 9.960938 551.894531 10.898438 551.894531 12.382812 C 551.894531 13.808594 550.976562 14.921875 549.824219 14.921875 C 549.511719 14.921875 549.257812 14.824219 548.828125 14.492188 C 548.339844 14.160156 547.988281 14.003906 547.675781 14.003906 C 547.246094 14.003906 547.03125 14.179688 547.03125 14.550781 C 547.03125 15.117188 547.734375 15.488281 548.867188 15.488281 C 550.117188 15.488281 551.191406 15.078125 551.933594 14.316406 C 552.636719 13.652344 552.949219 12.792969 552.949219 11.660156 C 552.949219 10.585938 552.65625 9.902344 551.914062 9.140625 C 551.25 8.496094 550.410156 8.144531 548.632812 7.832031 Z M 549.257812 6.5625 "/>
<path style=" stroke:none;fill-rule:nonzero;fill:rgb(0%,0%,0%);fill-opacity:1;" d="M 559.644531 13.789062 C 559.195312 13.789062 558.824219 14.160156 558.824219 14.628906 C 558.824219 15.058594 559.195312 15.429688 559.625 15.429688 C 560.09375 15.429688 560.464844 15.058594 560.464844 14.628906 C 560.464844 14.160156 560.09375 13.789062 559.644531 13.789062 Z M 559.644531 13.789062 "/>
<path style=" stroke:none;fill-rule:nonzero;fill:rgb(0%,0%,0%);fill-opacity:1;" d="M 563.792969 10.351562 C 564.671875 10.351562 565.023438 10.371094 565.375 10.507812 C 566.3125 10.839844 566.878906 11.679688 566.878906 12.714844 C 566.878906 13.964844 566.039062 14.941406 564.925781 14.941406 C 564.535156 14.941406 564.222656 14.84375 563.675781 14.472656 C 563.226562 14.21875 562.972656 14.101562 562.71875 14.101562 C 562.367188 14.101562 562.152344 14.316406 562.152344 14.628906 C 562.152344 15.15625 562.796875 15.488281 563.832031 15.488281 C 564.984375 15.488281 566.175781 15.097656 566.878906 14.472656 C 567.582031 13.867188 567.953125 13.007812 567.953125 11.992188 C 567.953125 11.230469 567.71875 10.527344 567.289062 10.078125 C 566.996094 9.746094 566.703125 9.570312 566.058594 9.277344 C 567.074219 8.574219 567.445312 8.027344 567.445312 7.226562 C 567.445312 6.015625 566.507812 5.175781 565.121094 5.175781 C 564.378906 5.175781 563.714844 5.429688 563.1875 5.898438 C 562.738281 6.308594 562.503906 6.699219 562.171875 7.597656 L 562.40625 7.65625 C 563.011719 6.5625 563.695312 6.074219 564.632812 6.074219 C 565.609375 6.074219 566.273438 6.71875 566.273438 7.675781 C 566.273438 8.203125 566.058594 8.75 565.667969 9.121094 C 565.21875 9.570312 564.808594 9.785156 563.792969 10.15625 Z M 563.792969 10.351562 "/>
<path style=" stroke:none;fill-rule:nonzero;fill:rgb(0%,0%,0%);fill-opacity:1;" d="M 571.261719 10.351562 C 572.140625 10.351562 572.492188 10.371094 572.84375 10.507812 C 573.78125 10.839844 574.347656 11.679688 574.347656 12.714844 C 574.347656 13.964844 573.507812 14.941406 572.394531 14.941406 C 572.003906 14.941406 571.691406 14.84375 571.144531 14.472656 C 570.695312 14.21875 570.441406 14.101562 570.1875 14.101562 C 569.835938 14.101562 569.621094 14.316406 569.621094 14.628906 C 569.621094 15.15625 570.265625 15.488281 571.300781 15.488281 C 572.453125 15.488281 573.644531 15.097656 574.347656 14.472656 C 575.050781 13.867188 575.421875 13.007812 575.421875 11.992188 C 575.421875 11.230469 575.1875 10.527344 574.757812 10.078125 C 574.464844 9.746094 574.171875 9.570312 573.527344 9.277344 C 574.542969 8.574219 574.914062 8.027344 574.914062 7.226562 C 574.914062 6.015625 573.976562 5.175781 572.589844 5.175781 C 571.847656 5.175781 571.183594 5.429688 570.65625 5.898438 C 570.207031 6.308594 569.972656 6.699219 569.640625 7.597656 L 569.875 7.65625 C 570.480469 6.5625 571.164062 6.074219 572.101562 6.074219 C 573.078125 6.074219 573.742188 6.71875 573.742188 7.675781 C 573.742188 8.203125 573.527344 8.75 573.136719 9.121094 C 572.6875 9.570312 572.277344 9.785156 571.261719 10.15625 Z M 571.261719 10.351562 "/>
<path style=" stroke:none;fill-rule:nonzero;fill:rgb(0%,0%,0%);fill-opacity:1;" d="M 578.734375 10.351562 C 579.613281 10.351562 579.964844 10.371094 580.316406 10.507812 C 581.253906 10.839844 581.820312 11.679688 581.820312 12.714844 C 581.820312 13.964844 580.980469 14.941406 579.867188 14.941406 C 579.476562 14.941406 579.164062 14.84375 578.617188 14.472656 C 578.167969 14.21875 577.914062 14.101562 577.660156 14.101562 C 577.308594 14.101562 577.09375 14.316406 577.09375 14.628906 C 577.09375 15.15625 577.738281 15.488281 578.773438 15.488281 C 579.925781 15.488281 581.117188 15.097656 581.820312 14.472656 C 582.523438 13.867188 582.894531 13.007812 582.894531 11.992188 C 582.894531 11.230469 582.660156 10.527344 582.230469 10.078125 C 581.9375 9.746094 581.644531 9.570312 581 9.277344 C 582.015625 8.574219 582.386719 8.027344 582.386719 7.226562 C 582.386719 6.015625 581.449219 5.175781 580.0625 5.175781 C 579.320312 5.175781 578.65625 5.429688 578.128906 5.898438 C 577.679688 6.308594 577.445312 6.699219 577.113281 7.597656 L 577.347656 7.65625 C 577.953125 6.5625 578.636719 6.074219 579.574219 6.074219 C 580.550781 6.074219 581.214844 6.71875 581.214844 7.675781 C 581.214844 8.203125 581 8.75 580.609375 9.121094 C 580.160156 9.570312 579.75 9.785156 578.734375 10.15625 Z M 578.734375 10.351562 "/>
<path style=" stroke:none;fill-rule:nonzero;fill:rgb(0%,0%,0%);fill-opacity:1;" d="M 586.207031 10.351562 C 587.085938 10.351562 587.4375 10.371094 587.789062 10.507812 C 588.726562 10.839844 589.292969 11.679688 589.292969 12.714844 C 589.292969 13.964844 588.453125 14.941406 587.339844 14.941406 C 586.949219 14.941406 586.636719 14.84375 586.089844 14.472656 C 585.640625 14.21875 585.386719 14.101562 585.132812 14.101562 C 584.78125 14.101562 584.566406 14.316406 584.566406 14.628906 C 584.566406 15.15625 585.210938 15.488281 586.246094 15.488281 C 587.398438 15.488281 588.589844 15.097656 589.292969 14.472656 C 589.996094 13.867188 590.367188 13.007812 590.367188 11.992188 C 590.367188 11.230469 590.132812 10.527344 589.703125 10.078125 C 589.410156 9.746094 589.117188 9.570312 588.472656 9.277344 C 589.488281 8.574219 589.859375 8.027344 589.859375 7.226562 C 589.859375 6.015625 588.921875 5.175781 587.535156 5.175781 C 586.792969 5.175781 586.128906 5.429688 585.601562 5.898438 C 585.152344 6.308594 584.917969 6.699219 584.585938 7.597656 L 584.820312 7.65625 C 585.425781 6.5625 586.109375 6.074219 587.046875 6.074219 C 588.023438 6.074219 588.6875 6.71875 588.6875 7.675781 C 588.6875 8.203125 588.472656 8.75 588.082031 9.121094 C 587.632812 9.570312 587.222656 9.785156 586.207031 10.15625 Z M 586.207031 10.351562 "/>
<path style=" stroke:none;fill-rule:nonzero;fill:rgb(0%,0%,0%);fill-opacity:1;" d="M 599.484375 5.175781 L 596.789062 6.523438 L 596.789062 6.738281 C 596.964844 6.660156 597.140625 6.601562 597.199219 6.582031 C 597.453125 6.464844 597.707031 6.40625 597.863281 6.40625 C 598.175781 6.40625 598.3125 6.640625 598.3125 7.109375 L 598.3125 13.886719 C 598.3125 14.375 598.195312 14.726562 597.960938 14.863281 C 597.726562 14.980469 597.511719 15.039062 596.886719 15.058594 L 596.886719 15.273438 L 601.007812 15.273438 L 601.007812 15.058594 C 599.835938 15.039062 599.601562 14.882812 599.601562 14.160156 L 599.601562 5.195312 Z M 599.484375 5.175781 "/>
<path style=" stroke:none;fill-rule:nonzero;fill:rgb(0%,0%,0%);fill-opacity:1;" d="M 604.476562 13.789062 C 604.027344 13.789062 603.65625 14.160156 603.65625 14.628906 C 603.65625 15.058594 604.027344 15.429688 604.457031 15.429688 C 604.925781 15.429688 605.296875 15.058594 605.296875 14.628906 C 605.296875 14.160156 604.925781 13.789062 604.476562 13.789062 Z M 604.476562 13.789062 "/>
<path style=" stroke:none;fill-rule:nonzero;fill:rgb(0%,0%,0%);fill-opacity:1;" d="M 613 5.058594 C 611.300781 5.195312 610.441406 5.488281 609.347656 6.25 C 607.726562 7.402344 606.847656 9.101562 606.847656 11.113281 C 606.847656 12.402344 607.257812 13.710938 607.902344 14.472656 C 608.46875 15.117188 609.269531 15.488281 610.1875 15.488281 C 612.042969 15.488281 613.332031 14.0625 613.332031 11.992188 C 613.332031 10.097656 612.238281 8.886719 610.519531 8.886719 C 609.875 8.886719 609.542969 8.984375 608.605469 9.550781 C 609.015625 7.285156 610.695312 5.683594 613.039062 5.292969 Z M 609.953125 9.570312 C 611.242188 9.570312 611.984375 10.644531 611.984375 12.5 C 611.984375 14.160156 611.398438 15.058594 610.363281 15.058594 C 609.035156 15.058594 608.234375 13.652344 608.234375 11.347656 C 608.234375 10.585938 608.351562 10.15625 608.664062 9.941406 C 608.976562 9.707031 609.425781 9.570312 609.953125 9.570312 Z M 609.953125 9.570312 "/>
<path style=" stroke:none;fill-rule:nonzero;fill:rgb(0%,0%,0%);fill-opacity:1;" d="M 619.421875 13.789062 C 618.972656 13.789062 618.601562 14.160156 618.601562 14.628906 C 618.601562 15.058594 618.972656 15.429688 619.402344 15.429688 C 619.871094 15.429688 620.242188 15.058594 620.242188 14.628906 C 620.242188 14.160156 619.871094 13.789062 619.421875 13.789062 Z M 619.421875 13.789062 "/>
<path style=" stroke:none;fill-rule:nonzero;fill:rgb(0%,0%,0%);fill-opacity:1;" d="M 628.371094 13.222656 L 628.175781 13.144531 C 627.628906 14.003906 627.433594 14.140625 626.769531 14.140625 L 623.195312 14.140625 L 625.695312 11.503906 C 627.042969 10.117188 627.609375 8.984375 627.609375 7.8125 C 627.609375 6.328125 626.398438 5.175781 624.855469 5.175781 C 624.035156 5.175781 623.253906 5.507812 622.707031 6.09375 C 622.21875 6.601562 622.003906 7.089844 621.75 8.144531 L 622.0625 8.222656 C 622.648438 6.757812 623.195312 6.269531 624.230469 6.269531 C 625.480469 6.269531 626.339844 7.128906 626.339844 8.378906 C 626.339844 9.550781 625.636719 10.9375 624.386719 12.265625 L 621.730469 15.097656 L 621.730469 15.273438 L 627.550781 15.273438 Z M 628.371094 13.222656 "/>
<path style=" stroke:none;fill-rule:nonzero;fill:rgb(0%,0%,0%);fill-opacity:1;" d="M 629.632812 15.605469 C 631.3125 15.410156 632.132812 15.117188 633.148438 14.394531 C 634.691406 13.261719 635.609375 11.40625 635.609375 9.394531 C 635.609375 6.914062 634.242188 5.175781 632.308594 5.175781 C 630.53125 5.175781 629.203125 6.679688 629.203125 8.691406 C 629.203125 10.527344 630.277344 11.738281 631.898438 11.738281 C 632.71875 11.738281 633.34375 11.484375 634.125 10.878906 C 633.519531 13.320312 631.859375 14.921875 629.59375 15.3125 Z M 634.164062 9.960938 C 634.164062 10.273438 634.105469 10.410156 633.929688 10.527344 C 633.519531 10.898438 632.972656 11.09375 632.425781 11.09375 C 631.292969 11.09375 630.570312 9.960938 630.570312 8.183594 C 630.570312 7.34375 630.824219 6.445312 631.136719 6.054688 C 631.390625 5.761719 631.761719 5.585938 632.191406 5.585938 C 633.5 5.585938 634.164062 6.875 634.164062 9.394531 Z M 634.164062 9.960938 "/>
<path style=" stroke:none;fill-rule:nonzero;fill:rgb(0%,0%,0%);fill-opacity:1;" d="M 638.511719 10.351562 C 639.390625 10.351562 639.742188 10.371094 640.09375 10.507812 C 641.03125 10.839844 641.597656 11.679688 641.597656 12.714844 C 641.597656 13.964844 640.757812 14.941406 639.644531 14.941406 C 639.253906 14.941406 638.941406 14.84375 638.394531 14.472656 C 637.945312 14.21875 637.691406 14.101562 637.4375 14.101562 C 637.085938 14.101562 636.871094 14.316406 636.871094 14.628906 C 636.871094 15.15625 637.515625 15.488281 638.550781 15.488281 C 639.703125 15.488281 640.894531 15.097656 641.597656 14.472656 C 642.300781 13.867188 642.671875 13.007812 642.671875 11.992188 C 642.671875 11.230469 642.4375 10.527344 642.007812 10.078125 C 641.714844 9.746094 641.421875 9.570312 640.777344 9.277344 C 641.792969 8.574219 642.164062 8.027344 642.164062 7.226562 C 642.164062 6.015625 641.226562 5.175781 639.839844 5.175781 C 639.097656 5.175781 638.433594 5.429688 637.90625 5.898438 C 637.457031 6.308594 637.222656 6.699219 636.890625 7.597656 L 637.125 7.65625 C 637.730469 6.5625 638.414062 6.074219 639.351562 6.074219 C 640.328125 6.074219 640.992188 6.71875 640.992188 7.675781 C 640.992188 8.203125 640.777344 8.75 640.386719 9.121094 C 639.9375 9.570312 639.527344 9.785156 638.511719 10.15625 Z M 638.511719 10.351562 "/>
<path style=" stroke:none;fill-rule:nonzero;fill:rgb(0%,0%,0%);fill-opacity:1;" d="M 645.984375 10.351562 C 646.863281 10.351562 647.214844 10.371094 647.566406 10.507812 C 648.503906 10.839844 649.070312 11.679688 649.070312 12.714844 C 649.070312 13.964844 648.230469 14.941406 647.117188 14.941406 C 646.726562 14.941406 646.414062 14.84375 645.867188 14.472656 C 645.417969 14.21875 645.164062 14.101562 644.910156 14.101562 C 644.558594 14.101562 644.34375 14.316406 644.34375 14.628906 C 644.34375 15.15625 644.988281 15.488281 646.023438 15.488281 C 647.175781 15.488281 648.367188 15.097656 649.070312 14.472656 C 649.773438 13.867188 650.144531 13.007812 650.144531 11.992188 C 650.144531 11.230469 649.910156 10.527344 649.480469 10.078125 C 649.1875 9.746094 648.894531 9.570312 648.25 9.277344 C 649.265625 8.574219 649.636719 8.027344 649.636719 7.226562 C 649.636719 6.015625 648.699219 5.175781 647.3125 5.175781 C 646.570312 5.175781 645.90625 5.429688 645.378906 5.898438 C 644.929688 6.308594 644.695312 6.699219 644.363281 7.597656 L 644.597656 7.65625 C 645.203125 6.5625 645.886719 6.074219 646.824219 6.074219 C 647.800781 6.074219 648.464844 6.71875 648.464844 7.675781 C 648.464844 8.203125 648.25 8.75 647.859375 9.121094 C 647.410156 9.570312 647 9.785156 645.984375 10.15625 Z M 645.984375 10.351562 "/>
<path style=" stroke:none;fill-rule:nonzero;fill:rgb(0%,0%,0%);fill-opacity:1;" d="M 659.261719 5.175781 L 656.566406 6.523438 L 656.566406 6.738281 C 656.742188 6.660156 656.917969 6.601562 656.976562 6.582031 C 657.230469 6.464844 657.484375 6.40625 657.640625 6.40625 C 657.953125 6.40625 658.089844 6.640625 658.089844 7.109375 L 658.089844 13.886719 C 658.089844 14.375 657.972656 14.726562 657.738281 14.863281 C 657.503906 14.980469 657.289062 15.039062 656.664062 15.058594 L 656.664062 15.273438 L 660.785156 15.273438 L 660.785156 15.058594 C 659.613281 15.039062 659.378906 14.882812 659.378906 14.160156 L 659.378906 5.195312 Z M 659.261719 5.175781 "/>
<path style=" stroke:none;fill-rule:nonzero;fill:rgb(0%,0%,0%);fill-opacity:1;" d="M 664.253906 13.789062 C 663.804688 13.789062 663.433594 14.160156 663.433594 14.628906 C 663.433594 15.058594 663.804688 15.429688 664.234375 15.429688 C 664.703125 15.429688 665.074219 15.058594 665.074219 14.628906 C 665.074219 14.160156 664.703125 13.789062 664.253906 13.789062 Z M 664.253906 13.789062 "/>
<path style=" stroke:none;fill-rule:nonzero;fill:rgb(0%,0%,0%);fill-opacity:1;" d="M 672.8125 5.390625 L 667.285156 5.390625 L 666.40625 7.578125 L 666.660156 7.695312 C 667.304688 6.679688 667.578125 6.484375 668.398438 6.484375 L 671.640625 6.484375 L 668.691406 15.390625 L 669.648438 15.390625 L 672.8125 5.625 Z M 672.8125 5.390625 "/>
</g>
</svg>
